<?xml version="1.0" encoding="UTF-8"?>
<svg width="98px" height="122px" viewBox="0 0 98 122" version="1.1" xmlns="http://www.w3.org/2000/svg" xmlns:xlink="http://www.w3.org/1999/xlink">
    <!-- Generator: Sketch 42 (36781) - http://www.bohemiancoding.com/sketch -->
    <title>10</title>
    <desc>Created with Sketch.</desc>
    <defs>
        <polygon id="path-1" points="63.5937 8 0.3267 8 0.3267 0.3772 63.5937 0.3772 63.5937 8"></polygon>
        <polygon id="path-3" points="0 122.041 97.951 122.041 97.951 0 0 0"></polygon>
    </defs>
    <g id="Page-1" stroke="none" stroke-width="1" fill="none" fill-rule="evenodd">
        <g id="1024" transform="translate(-207.000000, -246.000000)">
            <g id="10" transform="translate(207.000000, 246.000000)">
                <g id="Group-3" transform="translate(20.000000, 114.041000)">
                    <mask id="mask-2" fill="white">
                        <use xlink:href="#path-1"></use>
                    </mask>
                    <g id="Clip-2"></g>
                    <path d="M63.5937,4.1892 C63.5937,6.2932 49.4307,8.0002 31.9607,8.0002 C14.4897,8.0002 0.3267,6.2932 0.3267,4.1892 C0.3267,2.0842 14.4897,0.3772 31.9607,0.3772 C49.4307,0.3772 63.5937,2.0842 63.5937,4.1892" id="Fill-1" fill="#CCCCCC" mask="url(#mask-2)"></path>
                </g>
                <mask id="mask-4" fill="white">
                    <use xlink:href="#path-3"></use>
                </mask>
                <g id="Clip-5"></g>
                <polygon id="Fill-4" fill="#758586" mask="url(#mask-4)" points="43.578 87.554 59.697 87.554 59.697 75.948 43.578 75.948"></polygon>
                <path d="M44.328,86.804 L58.947,86.804 L58.947,76.698 L44.328,76.698 L44.328,86.804 Z M59.697,88.304 L43.578,88.304 C43.164,88.304 42.828,87.968 42.828,87.554 L42.828,75.948 C42.828,75.534 43.164,75.198 43.578,75.198 L59.697,75.198 C60.111,75.198 60.447,75.534 60.447,75.948 L60.447,87.554 C60.447,87.968 60.111,88.304 59.697,88.304 L59.697,88.304 Z" id="Fill-6" fill="#354546" mask="url(#mask-4)"></path>
                <polygon id="Fill-7" fill="#758586" mask="url(#mask-4)" points="47.239 61.398 56.581 61.398 56.581 52.895 47.239 52.895"></polygon>
                <path d="M47.988,60.648 L55.83,60.648 L55.83,53.645 L47.988,53.645 L47.988,60.648 Z M56.581,62.148 L47.238,62.148 C46.824,62.148 46.488,61.812 46.488,61.398 L46.488,52.895 C46.488,52.481 46.824,52.145 47.238,52.145 L56.581,52.145 C56.995,52.145 57.331,52.481 57.331,52.895 L57.331,61.398 C57.331,61.812 56.995,62.148 56.581,62.148 L56.581,62.148 Z" id="Fill-8" fill="#354546" mask="url(#mask-4)"></path>
                <path d="M56.581,58.3982 C56.567,58.3982 56.554,58.3982 56.54,58.3972 L47.198,57.8952 C46.784,57.8732 46.467,57.5202 46.489,57.1062 C46.511,56.6922 46.865,56.3762 47.278,56.3972 L56.621,56.8992 C57.034,56.9212 57.352,57.2752 57.33,57.6882 C57.308,58.0882 56.977,58.3982 56.581,58.3982" id="Fill-9" fill="#354546" mask="url(#mask-4)"></path>
                <path d="M68.8081,67.0827 C67.8601,67.1937 66.9041,67.1957 65.9741,67.1037 C65.0421,67.0117 64.1371,66.8267 63.2661,66.5797 L64.5291,62.1907 C65.7991,62.5527 67.0621,62.6907 68.2731,62.5477 L68.8081,67.0827 Z" id="Fill-10" fill="#F9BF3B" mask="url(#mask-4)"></path>
                <path d="M67.3149,63.3533 C66.3569,63.3533 65.3549,63.2063 64.3229,62.9123 L64.7339,61.4693 C65.9559,61.8173 67.1169,61.9293 68.1849,61.8033 L68.3609,63.2923 C68.0189,63.3323 67.6699,63.3533 67.3149,63.3533" id="Fill-11" fill="#F1892D" mask="url(#mask-4)"></path>
                <path d="M67.3066,67.9197 C66.8396,67.9197 66.3696,67.8967 65.8996,67.8497 C64.9746,67.7587 64.0206,67.5737 63.0616,67.3007 L63.4726,65.8577 C64.3456,66.1067 65.2116,66.2737 66.0476,66.3577 C66.9496,66.4467 67.8486,66.4407 68.7206,66.3377 L68.8956,67.8277 C68.3726,67.8897 67.8416,67.9197 67.3066,67.9197" id="Fill-12" fill="#F1892D" mask="url(#mask-4)"></path>
                <polygon id="Fill-13" fill="#F1892D" mask="url(#mask-4)" points="66.7202 67.1775 65.2272 67.0305 65.6772 62.4855 67.1692 62.6325"></polygon>
                <path d="M74.103,65.2449 C72.538,66.1749 70.712,66.8709 68.808,67.0829 L68.273,62.5479 C69.485,62.4119 70.652,61.9769 71.776,61.3159 L74.103,65.2449 Z" id="Fill-14" fill="#F9BF3B" mask="url(#mask-4)"></path>
                <path d="M68.3564,63.2927 L68.1894,61.8027 C69.2404,61.6857 70.3184,61.3037 71.3954,60.6697 L72.1564,61.9627 C70.8964,62.7037 69.6184,63.1517 68.3564,63.2927" id="Fill-15" fill="#F1892D" mask="url(#mask-4)"></path>
                <path d="M68.8916,67.8279 L68.7246,66.3379 C70.3916,66.1519 72.1196,65.5509 73.7206,64.5999 L74.4856,65.8909 C72.7036,66.9489 70.7686,67.6189 68.8916,67.8279" id="Fill-16" fill="#F1892D" mask="url(#mask-4)"></path>
                <polygon id="Fill-17" fill="#F1892D" mask="url(#mask-4)" points="70.8764 66.6833 69.3504 62.3793 70.7644 61.8783 72.2904 66.1823"></polygon>
                <path d="M78.2065,61.9802 C77.0095,63.1632 75.6775,64.3132 74.1025,65.2452 L71.7755,61.3162 C72.8985,60.6542 73.9645,59.7532 74.9895,58.7392 L78.2065,61.9802 Z" id="Fill-18" fill="#F9BF3B" mask="url(#mask-4)"></path>
                <path d="M72.1567,61.9626 L71.3947,60.6696 C72.3567,60.1026 73.3607,59.2966 74.4617,58.2056 L75.5167,59.2726 C74.3257,60.4506 73.2267,61.3306 72.1567,61.9626" id="Fill-19" fill="#F1892D" mask="url(#mask-4)"></path>
                <path d="M74.4848,65.8904 L73.7208,64.5994 C75.0268,63.8264 76.2848,62.8244 77.6798,61.4464 L78.7338,62.5134 C77.2498,63.9794 75.8998,65.0524 74.4848,65.8904" id="Fill-20" fill="#F1892D" mask="url(#mask-4)"></path>
                <polygon id="Fill-21" fill="#F1892D" mask="url(#mask-4)" points="75.7138 64.1785 72.8368 60.6315 74.0018 59.6875 76.8788 63.2345"></polygon>
                <path d="M81.4809,58.3728 C80.4609,59.5568 79.4019,60.7928 78.2069,61.9798 L74.9889,58.7388 C76.0159,57.7208 76.9989,56.5808 78.0199,55.3938 L81.4809,58.3728 Z" id="Fill-22" fill="#F9BF3B" mask="url(#mask-4)"></path>
                <path d="M75.5175,59.2712 L74.4605,58.2072 C75.4845,57.1912 76.4845,56.0292 77.4515,54.9052 L78.5885,55.8822 C77.6025,57.0292 76.5835,58.2142 75.5175,59.2712" id="Fill-23" fill="#F1892D" mask="url(#mask-4)"></path>
                <path d="M78.7353,62.5115 L77.6783,61.4485 C78.8193,60.3135 79.8413,59.1275 80.8293,57.9805 L80.9123,57.8835 L82.0493,58.8625 L81.9653,58.9585 C80.9593,60.1275 79.9183,61.3365 78.7353,62.5115" id="Fill-24" fill="#F1892D" mask="url(#mask-4)"></path>
                <polygon id="Fill-25" fill="#F1892D" mask="url(#mask-4)" points="79.4091 60.7341 76.0061 57.6881 77.0071 56.5711 80.4091 59.6171"></polygon>
                <path d="M84.4541,55.2009 C83.9731,55.6129 83.4781,56.1239 82.9841,56.6609 C82.4881,57.2039 81.9901,57.7819 81.4811,58.3729 L78.0191,55.3939 C78.5321,54.7999 79.0551,54.1919 79.6141,53.5789 C80.1791,52.9669 80.7711,52.3469 81.4771,51.7379 L84.4541,55.2009 Z" id="Fill-26" fill="#F9BF3B" mask="url(#mask-4)"></path>
                <path d="M78.5879,55.8835 L77.4519,54.9045 L77.4769,54.8745 C77.9819,54.2885 78.5029,53.6845 79.0609,53.0725 C79.6279,52.4575 80.2519,51.8035 80.9879,51.1695 L81.9659,52.3075 C81.3259,52.8585 80.7829,53.4175 80.1659,54.0875 C79.6249,54.6795 79.1109,55.2765 78.6139,55.8535 L78.5879,55.8835 Z" id="Fill-27" fill="#F1892D" mask="url(#mask-4)"></path>
                <path d="M82.0493,58.862 L80.9123,57.883 C81.4073,57.308 81.9193,56.715 82.4293,56.155 C83.0533,55.477 83.5273,55.008 83.9663,54.632 L84.9423,55.77 C84.5493,56.107 84.1153,56.538 83.5353,57.169 C83.0413,57.71 82.5373,58.296 82.0493,58.862" id="Fill-28" fill="#F1892D" mask="url(#mask-4)"></path>
                <polygon id="Fill-29" fill="#F1892D" mask="url(#mask-4)" points="82.4775 57.2146 79.1075 54.1326 80.1205 53.0256 83.4895 56.1086"></polygon>
                <path d="M86.5459,54.2956 C86.4029,54.2506 86.2969,54.2366 86.1819,54.2406 C86.0669,54.2446 85.9319,54.2746 85.7559,54.3426 C85.4059,54.4766 84.9329,54.7826 84.4539,55.2006 L81.4769,51.7376 C81.8319,51.4356 82.2069,51.1346 82.6419,50.8516 C83.0739,50.5676 83.5549,50.2986 84.1109,50.0826 C84.6639,49.8666 85.2979,49.7086 85.9669,49.6796 C86.6339,49.6466 87.3139,49.7466 87.9159,49.9396 L86.5459,54.2956 Z" id="Fill-30" fill="#F9BF3B" mask="url(#mask-4)"></path>
                <path d="M81.9643,52.3083 L80.9893,51.1683 C81.3023,50.9023 81.7253,50.5533 82.2313,50.2233 C82.7733,49.8683 83.2993,49.5933 83.8383,49.3833 C84.5323,49.1133 85.2373,48.9603 85.9333,48.9303 C86.6633,48.8943 87.4293,48.9953 88.1443,49.2253 L87.6873,50.6543 C87.1493,50.4823 86.5513,50.4023 86.0033,50.4283 C85.4673,50.4523 84.9233,50.5713 84.3823,50.7813 C83.9423,50.9533 83.5063,51.1813 83.0523,51.4783 C82.6193,51.7613 82.2593,52.0563 81.9643,52.3083" id="Fill-31" fill="#F1892D" mask="url(#mask-4)"></path>
                <path d="M84.9477,55.7654 L83.9607,54.6364 C84.4977,54.1664 85.0397,53.8134 85.4877,53.6424 C85.7267,53.5484 85.9457,53.4994 86.1527,53.4914 C86.3647,53.4854 86.5547,53.5124 86.7727,53.5804 L86.3187,55.0104 C86.2507,54.9894 86.2287,54.9894 86.2067,54.9904 C86.1977,54.9914 86.1447,54.9954 86.0277,55.0404 C85.8097,55.1244 85.4137,55.3584 84.9477,55.7654" id="Fill-32" fill="#F1892D" mask="url(#mask-4)"></path>
                <polygon id="Fill-33" fill="#F1892D" mask="url(#mask-4)" points="85.0566 54.612 83.4106 50.352 84.8096 49.812 86.4556 54.072"></polygon>
                <path d="M88.0298,55.6394 C88.0188,55.5434 87.9888,55.4504 87.9418,55.3654 C87.9058,55.3014 87.7928,55.1494 87.6318,54.9964 L87.4998,54.8784 C87.4558,54.8384 87.3998,54.7984 87.3518,54.7584 C87.3008,54.7144 87.2508,54.6824 87.2008,54.6464 C87.1508,54.6144 87.0998,54.5694 87.0528,54.5434 C86.8588,54.4164 86.6878,54.3434 86.5458,54.2954 L87.9158,49.9394 C88.5178,50.1314 89.0568,50.4014 89.5188,50.7014 C89.6408,50.7744 89.7418,50.8534 89.8548,50.9304 C89.9638,51.0074 90.0748,51.0854 90.1748,51.1684 C90.2768,51.2514 90.3778,51.3284 90.4798,51.4184 L90.7848,51.6934 C91.1878,52.0824 91.5848,52.5344 91.9368,53.1504 C92.2738,53.7464 92.4928,54.4094 92.5708,55.0894 L88.0298,55.6394 Z" id="Fill-34" fill="#F9BF3B" mask="url(#mask-4)"></path>
                <path d="M91.8252,55.1745 C91.7602,54.6045 91.5732,54.0305 91.2832,53.5195 C91.0202,53.0585 90.7082,52.6625 90.2732,52.2405 L89.9782,51.9765 C89.9222,51.9265 89.8602,51.8775 89.7982,51.8275 L89.7012,51.7505 C89.6232,51.6855 89.5332,51.6215 89.4382,51.5545 L89.4202,51.5415 C89.3892,51.5215 89.3512,51.4935 89.3132,51.4665 C89.2472,51.4185 89.1902,51.3775 89.1332,51.3435 L89.1112,51.3295 C88.6642,51.0405 88.1852,50.8135 87.6872,50.6535 L88.1432,49.2255 C88.7652,49.4235 89.3622,49.7055 89.9172,50.0655 C90.0212,50.1275 90.1092,50.1915 90.1872,50.2465 C90.2182,50.2695 90.2482,50.2905 90.2802,50.3135 L90.3062,50.3315 C90.4192,50.4115 90.5372,50.4945 90.6532,50.5915 L90.7322,50.6545 C90.8142,50.7195 90.8942,50.7835 90.9762,50.8565 L91.3052,51.1535 C91.6452,51.4815 92.1472,52.0065 92.5882,52.7785 C92.9772,53.4675 93.2272,54.2365 93.3152,55.0045 L91.8252,55.1745 Z" id="Fill-35" fill="#F1892D" mask="url(#mask-4)"></path>
                <path d="M87.2929,55.7419 C87.2809,55.7239 87.2199,55.6409 87.1229,55.5479 L86.9999,55.4369 C86.9819,55.4229 86.9669,55.4109 86.9529,55.3989 C86.9239,55.3769 86.8959,55.3549 86.8689,55.3329 C86.8429,55.3089 86.8249,55.2999 86.8089,55.2879 L86.7779,55.2659 C86.7499,55.2469 86.7219,55.2259 86.6929,55.2059 L86.6399,55.1699 C86.4979,55.0769 86.3809,55.0319 86.3069,55.0069 L86.7849,53.5859 C87.0189,53.6639 87.2339,53.7669 87.4429,53.9029 C87.5039,53.9389 87.5539,53.9749 87.5909,54.0039 L87.6629,54.0549 C87.7099,54.0869 87.7739,54.1319 87.8439,54.1919 C87.8479,54.1949 87.8619,54.2069 87.8759,54.2179 C87.9219,54.2529 87.9659,54.2889 88.0049,54.3239 L88.1479,54.4529 C88.3379,54.6329 88.5109,54.8449 88.5989,55.0049 C88.6899,55.1659 88.7509,55.3529 88.7739,55.5529 L87.2849,55.7259 L87.2929,55.7419 Z" id="Fill-36" fill="#F1892D" mask="url(#mask-4)"></path>
                <polygon id="Fill-37" fill="#F1892D" mask="url(#mask-4)" points="88.1743 55.5144 87.0893 54.4794 90.2423 51.1754 91.3273 52.2104"></polygon>
                <path d="M86.7163,58.2615 C87.1343,57.6905 87.5083,57.1225 87.7483,56.6255 C87.8683,56.3795 87.9533,56.1545 87.9963,55.9785 C88.0113,55.9315 88.0113,55.8995 88.0223,55.8605 C88.0273,55.8265 88.0273,55.8095 88.0333,55.7835 C88.0323,55.7355 88.0383,55.6875 88.0293,55.6395 L92.5703,55.0895 C92.6123,55.4295 92.6113,55.7735 92.5893,56.1155 C92.5713,56.2825 92.5523,56.4605 92.5253,56.6205 C92.4953,56.7725 92.4683,56.9345 92.4293,57.0755 C92.2833,57.6595 92.0763,58.1645 91.8563,58.6215 C91.4093,59.5325 90.9033,60.2675 90.4003,60.9595 L86.7163,58.2615 Z" id="Fill-38" fill="#F9BF3B" mask="url(#mask-4)"></path>
                <path d="M91.0073,61.4001 L89.7943,60.5181 C90.2363,59.9101 90.7443,59.1861 91.1823,58.2921 C91.4213,57.7981 91.5873,57.3531 91.7023,56.8931 L91.7063,56.8781 C91.7273,56.7981 91.7473,56.6981 91.7673,56.5901 L91.7873,56.4881 C91.8093,56.3521 91.8273,56.1931 91.8413,56.0531 C91.8623,55.7221 91.8573,55.4371 91.8253,55.1821 L93.3143,54.9981 C93.3583,55.3501 93.3653,55.7321 93.3373,56.1651 L93.3353,56.1901 C93.3183,56.3611 93.2963,56.5601 93.2643,56.7461 L93.2413,56.8701 C93.2173,56.9931 93.1913,57.1311 93.1553,57.2651 C93.0143,57.8251 92.8163,58.3601 92.5303,58.9491 C92.0383,59.9541 91.4863,60.7411 91.0073,61.4001" id="Fill-39" fill="#F1892D" mask="url(#mask-4)"></path>
                <path d="M88.768,55.9324 L88.761,55.9654 C88.764,55.9534 88.766,55.9434 88.768,55.9324 M87.321,58.7044 L86.111,57.8184 C86.557,57.2104 86.88,56.6994 87.073,56.3004 C87.165,56.1114 87.236,55.9284 87.269,55.7974 L87.274,55.7784 C87.277,55.7614 87.28,55.7454 87.283,55.7304 C87.283,55.7274 87.284,55.7234 87.284,55.7184 L87.284,55.7034 C87.284,55.7064 87.284,55.7104 87.285,55.7144 C87.288,55.6874 87.294,55.6474 87.306,55.6014 L87.694,55.6994 L88.768,55.5084 C88.787,55.6164 88.785,55.7054 88.784,55.7584 L88.783,55.8664 L88.771,55.9194 C88.769,55.9364 88.767,55.9534 88.764,55.9744 L88.75,56.0434 C88.744,56.0784 88.736,56.1234 88.72,56.1794 C88.66,56.4104 88.558,56.6774 88.422,56.9544 C88.188,57.4404 87.828,58.0134 87.321,58.7044" id="Fill-40" fill="#F1892D" mask="url(#mask-4)"></path>
                <polygon id="Fill-41" fill="#F1892D" mask="url(#mask-4)" points="91.5278 59.2966 87.4208 57.3006 88.0758 55.9516 92.1838 57.9466"></polygon>
                <path d="M83.853,61.8318 C84.854,60.5988 85.871,59.4108 86.716,58.2618 L90.4,60.9598 C89.389,62.3298 88.364,63.5178 87.394,64.7148 L83.853,61.8318 Z" id="Fill-42" fill="#F9BF3B" mask="url(#mask-4)"></path>
                <path d="M87.977,65.1863 L86.811,64.2433 C87.084,63.9053 87.363,63.5683 87.644,63.2273 C88.351,62.3703 89.081,61.4833 89.797,60.5133 L91.004,61.4053 C90.264,62.4073 89.52,63.3093 88.801,64.1813 C88.523,64.5193 88.248,64.8523 87.977,65.1863" id="Fill-43" fill="#F1892D" mask="url(#mask-4)"></path>
                <path d="M84.4355,62.3035 L83.2705,61.3585 C83.5485,61.0175 83.8265,60.6785 84.1025,60.3445 C84.8275,59.4635 85.5115,58.6325 86.1125,57.8175 L87.3205,58.7055 C86.6955,59.5545 85.9985,60.4015 85.2605,61.2975 C84.9865,61.6295 84.7105,61.9655 84.4355,62.3035" id="Fill-44" fill="#F1892D" mask="url(#mask-4)"></path>
                <polygon id="Fill-45" fill="#F1892D" mask="url(#mask-4)" points="88.4072 63.4822 84.8682 60.5962 85.8162 59.4342 89.3552 62.3202"></polygon>
                <path d="M80.9033,65.7273 C81.8393,64.3543 82.8473,63.0653 83.8533,61.8313 L87.3943,64.7143 C86.4233,65.9053 85.5033,67.0853 84.6763,68.2983 L80.9033,65.7273 Z" id="Fill-46" fill="#F9BF3B" mask="url(#mask-4)"></path>
                <path d="M85.2964,68.7214 L84.0574,67.8764 C84.7934,66.7964 85.6434,65.6754 86.8134,64.2414 L87.9754,65.1884 C86.8344,66.5884 86.0074,67.6784 85.2964,68.7214" id="Fill-47" fill="#F1892D" mask="url(#mask-4)"></path>
                <path d="M81.5229,66.1501 L80.2839,65.3041 C81.3229,63.7801 82.4259,62.3941 83.2719,61.3571 L84.4349,62.3051 C83.6079,63.3191 82.5299,64.6711 81.5229,66.1501" id="Fill-48" fill="#F1892D" mask="url(#mask-4)"></path>
                <polygon id="Fill-49" fill="#F1892D" mask="url(#mask-4)" points="85.5258 67.0945 81.8968 64.3235 82.8068 63.1305 86.4368 65.9025"></polygon>
                <path d="M78.3813,70.1189 C79.1033,68.5609 79.9663,67.0989 80.9033,65.7269 L84.6763,68.2989 C83.8493,69.5109 83.1203,70.7549 82.5253,72.0369 L78.3813,70.1189 Z" id="Fill-50" fill="#F9BF3B" mask="url(#mask-4)"></path>
                <path d="M83.2055,72.3533 L81.8455,71.7213 C82.4345,70.4513 83.1575,69.1933 84.0575,67.8753 L85.2955,68.7223 C84.4435,69.9703 83.7595,71.1583 83.2055,72.3533" id="Fill-51" fill="#F1892D" mask="url(#mask-4)"></path>
                <path d="M79.062,70.4333 L77.701,69.8033 C78.397,68.3013 79.242,66.8303 80.284,65.3043 L81.522,66.1503 C80.527,67.6073 79.723,69.0083 79.062,70.4333" id="Fill-52" fill="#F1892D" mask="url(#mask-4)"></path>
                <polygon id="Fill-53" fill="#F1892D" mask="url(#mask-4)" points="83.1382 70.7908 79.1862 68.5028 79.9372 67.2048 83.8892 69.4918"></polygon>
                <path d="M76.7197,75.0378 C77.0847,73.3268 77.6597,71.6738 78.3817,70.1188 L82.5257,72.0368 C81.9307,73.3198 81.4737,74.6418 81.1857,75.9928 L76.7197,75.0378 Z" id="Fill-54" fill="#F9BF3B" mask="url(#mask-4)"></path>
                <path d="M81.9189,76.1492 L80.4519,75.8362 C80.7439,74.4692 81.2119,73.0862 81.8449,71.7212 L83.2059,72.3532 C82.6209,73.6152 82.1879,74.8922 81.9189,76.1492" id="Fill-55" fill="#F1892D" mask="url(#mask-4)"></path>
                <path d="M77.4536,75.1941 L75.9866,74.8811 C76.3496,73.1821 76.9256,71.4731 77.7016,69.8021 L79.0616,70.4341 C78.3336,72.0041 77.7926,73.6051 77.4536,75.1941" id="Fill-56" fill="#F1892D" mask="url(#mask-4)"></path>
                <polygon id="Fill-57" fill="#F1892D" mask="url(#mask-4)" points="81.4995 74.699 77.1755 73.23 77.6585 71.809 81.9815 73.279"></polygon>
                <path d="M14.1211,65.198 C14.0941,64.344 14.0901,63.494 14.1171,62.641 C14.1281,62.216 14.1481,61.789 14.1741,61.36 C14.1871,61.145 14.2031,60.93 14.2201,60.714 L14.2481,60.385 L14.2861,60.026 L18.9711,60.584 L18.9471,60.825 L18.9231,61.096 L18.8841,61.652 C18.8611,62.025 18.8431,62.402 18.8331,62.779 C18.8091,63.533 18.8131,64.29 18.8371,65.043 L14.1211,65.198 Z" id="Fill-58" fill="#F9BF3B" mask="url(#mask-4)"></path>
                <path d="M18.0879,65.0671 C18.0619,64.2731 18.0609,63.4961 18.0839,62.7551 C18.0919,62.4121 18.1089,62.0361 18.1349,61.6071 L18.2249,60.5081 L19.7169,60.6591 L19.6709,61.1611 L19.6319,61.7051 C19.6079,62.1081 19.5919,62.4691 19.5829,62.7991 C19.5609,63.5101 19.5629,64.2561 19.5869,65.0191 L18.0879,65.0671 Z" id="Fill-59" fill="#F1892D" mask="url(#mask-4)"></path>
                <path d="M13.3716,65.2224 C13.3426,64.3304 13.3416,63.4544 13.3666,62.6184 C13.3776,62.2234 13.3966,61.7954 13.4256,61.3154 C13.4386,61.0944 13.4546,60.8744 13.4726,60.6534 L13.5396,59.9504 L15.0316,60.1024 L14.9676,60.7784 C14.9506,60.9874 14.9356,61.1974 14.9226,61.4064 C14.8946,61.8684 14.8766,62.2804 14.8666,62.6614 C14.8416,63.4694 14.8426,64.3134 14.8706,65.1734 L13.3716,65.2224 Z" id="Fill-60" fill="#F1892D" mask="url(#mask-4)"></path>
                <polygon id="Fill-61" fill="#F1892D" mask="url(#mask-4)" points="18.811 63.529 14.095 63.391 14.138 61.891 18.855 62.029"></polygon>
                <path d="M14.6543,70.3396 C14.3363,68.6186 14.1793,66.9036 14.1213,65.1976 L18.8373,65.0426 C18.8883,66.5486 19.0283,68.0436 19.2953,69.4856 L14.6543,70.3396 Z" id="Fill-62" fill="#F9BF3B" mask="url(#mask-4)"></path>
                <path d="M18.5576,69.6218 C18.3016,68.2438 18.1436,66.7118 18.0876,65.0688 L19.5866,65.0178 C19.6406,66.5868 19.7906,68.0438 20.0326,69.3488 L18.5576,69.6218 Z" id="Fill-63" fill="#F1892D" mask="url(#mask-4)"></path>
                <path d="M13.917,70.4753 C13.615,68.8443 13.437,67.1263 13.372,65.2233 L14.871,65.1713 C14.934,67.0003 15.104,68.6463 15.392,70.2033 L13.917,70.4753 Z" id="Fill-64" fill="#F1892D" mask="url(#mask-4)"></path>
                <polygon id="Fill-65" fill="#F1892D" mask="url(#mask-4)" points="14.3667 68.5095 14.2157 67.0165 18.9097 66.5415 19.0607 68.0335"></polygon>
                <path d="M16.1919,75.4792 C15.8139,74.6342 15.5109,73.7782 15.2619,72.9182 C15.0129,72.0602 14.8139,71.1992 14.6539,70.3392 L19.2949,69.4852 C19.4289,70.2052 19.5929,70.9112 19.7919,71.5952 C19.9889,72.2812 20.2249,72.9422 20.5039,73.5642 L16.1919,75.4792 Z" id="Fill-66" fill="#F9BF3B" mask="url(#mask-4)"></path>
                <path d="M19.8203,73.8718 C19.5373,73.2418 19.2853,72.5468 19.0703,71.8038 C18.8713,71.1178 18.6983,70.3838 18.5573,69.6218 L20.0323,69.3488 C20.1643,70.0608 20.3263,70.7468 20.5113,71.3868 C20.7073,72.0628 20.9343,72.6918 21.1883,73.2578 L19.8203,73.8718 Z" id="Fill-67" fill="#F1892D" mask="url(#mask-4)"></path>
                <path d="M15.5068,75.7859 C15.1338,74.9519 14.8188,74.0829 14.5418,73.1279 C14.2978,72.2889 14.0878,71.3959 13.9168,70.4749 L15.3918,70.2029 C15.5528,71.0739 15.7518,71.9179 15.9828,72.7099 C16.2398,73.5979 16.5318,74.4029 16.8768,75.1729 L15.5068,75.7859 Z" id="Fill-68" fill="#F1892D" mask="url(#mask-4)"></path>
                <polygon id="Fill-69" fill="#F1892D" mask="url(#mask-4)" points="15.4726 73.6394 15.0516 72.1994 19.5806 70.8754 20.0016 72.3154"></polygon>
                <path d="M19.1377,80.0925 C18.5397,79.3795 18.0177,78.6605 17.5407,77.9395 L17.4497,77.8045 L17.3547,77.6545 L17.1667,77.3505 C17.0377,77.1485 16.9237,76.9415 16.8117,76.7345 L16.6427,76.4235 C16.5877,76.3205 16.5387,76.2145 16.4877,76.1105 C16.3877,75.9005 16.2787,75.6915 16.1917,75.4795 L20.5047,73.5645 C20.5687,73.7245 20.6487,73.8715 20.7207,74.0255 C20.7577,74.1005 20.7927,74.1775 20.8317,74.2515 L20.9517,74.4695 C21.0307,74.6155 21.1097,74.7625 21.1987,74.8985 L21.3267,75.1065 C21.3487,75.1415 21.3667,75.1745 21.3917,75.2125 L21.4697,75.3265 C21.8777,75.9465 22.3057,76.5265 22.7407,77.0455 L19.1377,80.0925 Z" id="Fill-70" fill="#F9BF3B" mask="url(#mask-4)"></path>
                <path d="M22.165,77.5261 C21.714,76.9871 21.269,76.3851 20.843,75.7391 L20.771,75.6331 C20.746,75.5951 20.727,75.5631 20.708,75.5321 L20.565,75.2991 C20.458,75.1351 20.366,74.9631 20.291,74.8251 L20.174,74.6131 C20.139,74.5471 20.112,74.4901 20.084,74.4321 L20.048,74.3571 C20.02,74.2981 19.998,74.2541 19.976,74.2091 C19.923,74.1011 19.862,73.9781 19.808,73.8431 L21.201,73.2861 C21.233,73.3671 21.276,73.4531 21.321,73.5451 C21.347,73.5981 21.373,73.6511 21.399,73.7051 C21.408,73.7231 21.423,73.7551 21.438,73.7871 C21.457,73.8251 21.475,73.8641 21.495,73.9011 L21.609,74.1081 C21.678,74.2361 21.752,74.3751 21.826,74.4871 L21.837,74.5051 L21.992,74.7571 C21.999,74.7691 22.006,74.7811 22.015,74.7951 L22.09,74.9051 C22.491,75.5131 22.901,76.0691 23.315,76.5641 L22.165,77.5261 Z" id="Fill-71" fill="#F1892D" mask="url(#mask-4)"></path>
                <path d="M18.563,80.5749 C17.989,79.8889 17.45,79.1629 16.915,78.3529 L16.72,78.0539 L16.529,77.7449 C16.39,77.5279 16.267,77.3029 16.152,77.0909 L15.984,76.7819 C15.938,76.6959 15.901,76.6189 15.863,76.5409 L15.815,76.4419 C15.784,76.3759 15.756,76.3199 15.728,76.2629 C15.65,76.1039 15.57,75.9389 15.498,75.7639 L16.885,75.1939 C16.939,75.3239 17.005,75.4599 17.076,75.6039 C17.105,75.6649 17.135,75.7259 17.165,75.7869 L17.213,75.8879 C17.244,75.9499 17.274,76.0129 17.306,76.0739 L17.47,76.3749 C17.573,76.5639 17.681,76.7619 17.798,76.9459 L18.162,77.5189 C18.67,78.2879 19.176,78.9709 19.713,79.6109 L18.563,80.5749 Z" id="Fill-72" fill="#F1892D" mask="url(#mask-4)"></path>
                <polygon id="Fill-73" fill="#F1892D" mask="url(#mask-4)" points="17.956 78.5642 17.125 77.3152 21.055 74.7022 21.885 75.9512"></polygon>
                <path d="M25.5263,82.9577 C24.8643,83.1487 24.1583,83.1777 23.4803,83.0487 C22.8013,82.9217 22.1533,82.6437 21.5523,82.2797 C21.2603,82.0927 20.9463,81.8757 20.7433,81.6987 C20.6303,81.6057 20.5133,81.5107 20.4063,81.4177 L20.1293,81.1557 C19.9373,80.9797 19.7753,80.8037 19.6093,80.6257 C19.4373,80.4487 19.2903,80.2707 19.1373,80.0927 L22.7403,77.0457 C22.8493,77.1727 22.9573,77.3057 23.0673,77.4157 C23.1753,77.5307 23.2833,77.6517 23.3903,77.7457 L23.5493,77.8987 L23.6773,78.0017 C23.7763,78.0907 23.7953,78.0997 23.8383,78.1297 C23.9203,78.1827 24.0073,78.2277 24.1023,78.2497 C24.1963,78.2727 24.2963,78.2687 24.3883,78.2387 L25.5263,82.9577 Z" id="Fill-74" fill="#F9BF3B" mask="url(#mask-4)"></path>
                <path d="M24.2236,77.5144 C24.2046,77.5144 24.1856,77.5174 24.1666,77.5234 L24.1856,77.5854 L24.2306,77.5154 C24.2286,77.5144 24.2256,77.5144 24.2236,77.5144 M24.2236,79.0144 C24.1206,79.0144 24.0166,79.0014 23.9166,78.9764 C23.7616,78.9394 23.6016,78.8684 23.4346,78.7624 L23.3896,78.7314 C23.3396,78.6964 23.2886,78.6604 23.1916,78.5744 L23.0306,78.4404 L22.8816,78.2964 C22.7736,78.2004 22.6766,78.0964 22.5826,77.9944 L22.5266,77.9364 C22.4236,77.8314 22.3296,77.7204 22.2396,77.6144 L22.1706,77.5334 L23.3096,76.5574 L23.3846,76.6454 C23.4616,76.7364 23.5346,76.8224 23.5976,76.8864 L23.6786,76.9714 C23.7556,77.0544 23.8276,77.1314 23.8876,77.1834 L23.9096,77.2044 L24.0466,77.3354 L24.1766,77.4424 C24.2226,77.4834 24.2306,77.4894 24.2426,77.4964 L24.2526,77.5044 C24.2766,77.5194 24.2866,77.5234 24.2876,77.5234 C24.2836,77.5224 24.2796,77.5214 24.2746,77.5204 L24.1986,77.6264 L24.6116,78.9554 C24.4846,78.9944 24.3536,79.0144 24.2236,79.0144" id="Fill-75" fill="#F1892D" mask="url(#mask-4)"></path>
                <path d="M24.3149,83.8777 C23.9889,83.8777 23.6629,83.8467 23.3399,83.7857 C22.6219,83.6507 21.8889,83.3597 21.1639,82.9207 L21.1479,82.9107 C20.8849,82.7427 20.5189,82.4957 20.2599,82.2737 L20.2399,82.2567 C20.1299,82.1667 20.0169,82.0737 19.9139,81.9827 L19.8919,81.9637 L19.6139,81.7007 C19.4299,81.5327 19.2709,81.3617 19.1169,81.1977 L19.0619,81.1397 C18.9099,80.9817 18.7729,80.8217 18.6419,80.6667 L18.5679,80.5797 L19.7079,79.6057 L19.7849,79.6957 C19.9059,79.8387 20.0209,79.9737 20.1479,80.1047 L20.2119,80.1727 C20.3529,80.3237 20.4859,80.4667 20.6359,80.6037 L20.9099,80.8617 C20.9999,80.9397 21.0969,81.0197 21.1919,81.0977 L21.2339,81.1327 C21.3799,81.2597 21.6409,81.4447 21.9499,81.6437 C22.5169,81.9857 23.0779,82.2107 23.6179,82.3117 C24.1889,82.4207 24.7749,82.3947 25.3179,82.2367 L25.7349,83.6787 C25.2769,83.8117 24.7969,83.8777 24.3149,83.8777" id="Fill-76" fill="#F1892D" mask="url(#mask-4)"></path>
                <polygon id="Fill-77" fill="#F1892D" mask="url(#mask-4)" points="22.2099 82.6413 20.8959 81.9173 23.1819 77.7683 24.4959 78.4923"></polygon>
                <path d="M30.1811,78.281 C29.9711,78.661 29.7521,79.044 29.5071,79.433 C29.2691,79.821 28.9931,80.22 28.6861,80.622 L28.4421,80.926 L28.4101,80.964 L28.3691,81.01 L28.2871,81.103 L28.1191,81.287 C28.0111,81.407 27.8821,81.531 27.7531,81.651 C27.6241,81.771 27.4931,81.889 27.3541,81.995 C26.8071,82.431 26.1901,82.771 25.5261,82.958 L24.3891,78.239 C24.4811,78.21 24.5641,78.155 24.6371,78.093 C24.6561,78.077 24.6731,78.06 24.6911,78.043 C24.7081,78.026 24.7241,78.011 24.7491,77.981 L24.7851,77.942 L24.8021,77.923 L24.8111,77.913 L24.8271,77.893 L24.9601,77.726 C25.3221,77.258 25.6931,76.651 26.0491,76.003 L30.1811,78.281 Z" id="Fill-78" fill="#F9BF3B" mask="url(#mask-4)"></path>
                <path d="M24.6191,78.9529 L24.1591,77.5249 C24.1401,77.5309 24.1311,77.5369 24.1311,77.5369 C24.1311,77.5369 24.1371,77.5339 24.1471,77.5239 L24.2391,77.4279 L24.3751,77.2579 C24.6691,76.8759 25.0141,76.3279 25.3921,75.6409 L26.7061,76.3639 C26.2861,77.1289 25.9091,77.7239 25.5541,78.1839 L25.3081,78.4809 C25.2741,78.5209 25.2461,78.5489 25.2181,78.5759 C25.1851,78.6079 25.1531,78.6399 25.1181,78.6679 C24.9621,78.8009 24.7951,78.8959 24.6191,78.9529" id="Fill-79" fill="#F1892D" mask="url(#mask-4)"></path>
                <path d="M25.7295,83.6794 L25.3235,82.2364 C25.8645,82.0834 26.3905,81.8054 26.8855,81.4084 L26.9025,81.3964 C27.0195,81.3074 27.1335,81.2024 27.2395,81.1034 C27.3405,81.0104 27.4645,80.8924 27.5625,80.7844 L27.8615,80.4504 L28.0955,80.1584 C28.3845,79.7814 28.6455,79.4054 28.8685,79.0404 C29.1285,78.6254 29.3555,78.2234 29.5245,77.9174 L30.8375,78.6454 C30.6585,78.9674 30.4185,79.3934 30.1425,79.8324 C29.8955,80.2354 29.6045,80.6574 29.2815,81.0774 L29.2705,81.0914 L28.8465,81.6024 L28.6725,81.7924 C28.5395,81.9404 28.3835,82.0884 28.2635,82.2004 C28.1385,82.3174 27.9855,82.4564 27.8145,82.5864 C27.1635,83.1054 26.4625,83.4734 25.7295,83.6794" id="Fill-80" fill="#F1892D" mask="url(#mask-4)"></path>
                <polygon id="Fill-81" fill="#F1892D" mask="url(#mask-4)" points="28.2256 81.2146 24.4996 78.3186 25.4206 77.1346 29.1466 80.0296"></polygon>
                <path d="M32.4082,73.9587 C31.6862,75.3167 31.0092,76.7707 30.1812,78.2807 L26.0492,76.0027 C26.7682,74.6947 27.4532,73.2337 28.2372,71.7527 L32.4082,73.9587 Z" id="Fill-82" fill="#F9BF3B" mask="url(#mask-4)"></path>
                <path d="M26.7065,76.364 L25.3925,75.641 C25.7835,74.929 26.1625,74.175 26.5645,73.376 C26.8875,72.734 27.2205,72.07 27.5745,71.402 L28.9005,72.103 C28.5535,72.758 28.2235,73.415 27.9045,74.05 C27.4965,74.861 27.1105,75.628 26.7065,76.364" id="Fill-83" fill="#F1892D" mask="url(#mask-4)"></path>
                <path d="M30.8388,78.6413 L29.5238,77.9213 C29.9868,77.0743 30.4068,76.2393 30.8128,75.4313 C31.1308,74.7983 31.4308,74.2013 31.7458,73.6073 L33.0708,74.3113 C32.7628,74.8893 32.4668,75.4803 32.1528,76.1043 C31.7408,76.9233 31.3158,77.7713 30.8388,78.6413" id="Fill-84" fill="#F1892D" mask="url(#mask-4)"></path>
                <polygon id="Fill-85" fill="#F1892D" mask="url(#mask-4)" points="30.997 76.7331 26.782 74.6121 27.456 73.2721 31.671 75.3931"></polygon>
                <path d="M34.7173,70.3611 C34.2983,70.8401 33.8983,71.4091 33.5153,72.0181 C33.1333,72.6281 32.7673,73.2811 32.4083,73.9591 L28.2373,71.7531 C28.6303,71.0101 29.0493,70.2591 29.5203,69.5071 C29.9933,68.7571 30.5143,68.0031 31.1523,67.2691 L34.7173,70.3611 Z" id="Fill-86" fill="#F9BF3B" mask="url(#mask-4)"></path>
                <path d="M28.9004,72.1033 L27.5744,71.4013 C28.0484,70.5073 28.4644,69.7793 28.8844,69.1093 C29.4704,68.1793 30.0104,67.4383 30.5864,66.7773 L31.7174,67.7623 C31.1944,68.3643 30.6974,69.0453 30.1544,69.9073 C29.7544,70.5443 29.3564,71.2433 28.9004,72.1033" id="Fill-87" fill="#F1892D" mask="url(#mask-4)"></path>
                <path d="M33.0713,74.3103 L31.7453,73.6083 C32.1623,72.8213 32.5233,72.1883 32.8803,71.6193 C33.3273,70.9083 33.7433,70.3343 34.1533,69.8673 L35.2813,70.8553 C34.9253,71.2623 34.5543,71.7733 34.1513,72.4163 C33.8133,72.9543 33.4703,73.5553 33.0713,74.3103" id="Fill-88" fill="#F1892D" mask="url(#mask-4)"></path>
                <polygon id="Fill-89" fill="#F1892D" mask="url(#mask-4)" points="33.1167 72.6531 29.1207 70.1421 29.9197 68.8731 33.9147 71.3821"></polygon>
                <path d="M37.2383,68.7634 L37.0783,68.7824 C37.0273,68.7944 36.9753,68.8064 36.9233,68.8174 C36.8973,68.8224 36.8713,68.8254 36.8453,68.8314 L36.7693,68.8584 L36.6143,68.9044 C36.5633,68.9274 36.5123,68.9494 36.4613,68.9694 L36.3833,68.9994 L36.3053,69.0414 L36.1493,69.1194 L35.9913,69.2184 C35.5683,69.4754 35.1353,69.8834 34.7173,70.3614 L31.1523,67.2694 C31.3123,67.0864 31.4723,66.9054 31.6513,66.7264 C31.8203,66.5464 32.0093,66.3714 32.1983,66.1984 C32.3843,66.0244 32.5983,65.8594 32.8013,65.6934 L33.1303,65.4554 L33.2963,65.3384 L33.4733,65.2284 L33.8293,65.0104 L34.2093,64.8144 L34.4003,64.7184 L34.6003,64.6334 L35.0043,64.4694 C35.1433,64.4214 35.2833,64.3784 35.4243,64.3344 L35.6353,64.2714 C35.7073,64.2524 35.7803,64.2384 35.8513,64.2214 L36.2853,64.1294 C36.4313,64.1074 36.5773,64.0914 36.7243,64.0734 L37.2383,68.7634 Z" id="Fill-90" fill="#F9BF3B" mask="url(#mask-4)"></path>
                <path d="M31.7163,67.7634 L30.5873,66.7764 C30.7643,66.5744 30.9253,66.3914 31.1123,66.2044 C31.3003,66.0044 31.5023,65.8194 31.6923,65.6444 C31.8463,65.4994 32.0163,65.3634 32.1803,65.2314 L32.3623,65.0854 L32.8993,64.7014 L33.4843,64.3454 L34.1063,64.0284 L34.7633,63.7584 C34.9083,63.7094 35.0553,63.6634 35.2023,63.6184 L35.4493,63.5444 C35.5073,63.5304 35.5653,63.5164 35.6243,63.5034 L36.1683,63.3894 C36.2953,63.3684 36.4223,63.3544 36.5493,63.3384 L36.6333,63.3284 L36.8143,64.8184 L36.7263,64.8284 C36.6243,64.8404 36.5223,64.8524 36.4213,64.8674 L35.9473,64.9684 C35.9103,64.9764 35.8733,64.9854 35.8363,64.9934 L35.6413,65.0524 C35.5183,65.0904 35.3913,65.1304 35.2653,65.1724 L34.7153,65.3994 L34.1973,65.6644 L33.7123,65.9634 L33.2573,66.2894 L33.1223,66.3994 C32.9723,66.5194 32.8313,66.6334 32.7103,66.7454 C32.5323,66.9094 32.3513,67.0764 32.1973,67.2404 L32.1813,67.2574 C32.0233,67.4144 31.8773,67.5794 31.7163,67.7634" id="Fill-91" fill="#F1892D" mask="url(#mask-4)"></path>
                <path d="M35.2812,70.8552 L34.1532,69.8672 C34.6692,69.2772 35.1442,68.8552 35.6022,68.5772 L35.8122,68.4502 L36.1082,68.3022 L36.1862,68.2712 C36.2252,68.2562 36.2652,68.2392 36.3052,68.2212 L36.3982,68.1862 L36.6682,68.1032 C36.6982,68.0962 36.7272,68.0902 36.7582,68.0842 L36.7782,68.0812 C36.8172,68.0732 36.8542,68.0652 36.8922,68.0552 L36.9962,68.0362 L37.1552,68.0182 L37.3212,69.5092 L37.2102,69.5212 C37.1632,69.5332 37.1162,69.5432 37.0692,69.5522 C37.0642,69.5532 37.0522,69.5552 37.0392,69.5582 L36.8762,69.6092 C36.8302,69.6282 36.7832,69.6482 36.7372,69.6672 L36.6422,69.7112 L36.5162,69.7752 L36.3882,69.8542 C36.0592,70.0542 35.6892,70.3892 35.2812,70.8552" id="Fill-92" fill="#F1892D" mask="url(#mask-4)"></path>
                <polygon id="Fill-93" fill="#F1892D" mask="url(#mask-4)" points="35.3574 69.6189 32.8384 65.6289 34.1074 64.8279 36.6264 68.8179"></polygon>
                <path d="M40.3481,69.6941 C39.7781,69.3611 39.2081,69.0931 38.6771,68.9311 L38.5771,68.8981 C38.5431,68.8891 38.5121,68.8831 38.4791,68.8761 L38.2861,68.8301 C38.2211,68.8091 38.1601,68.8041 38.0991,68.7951 L37.9151,68.7651 C37.8541,68.7571 37.7981,68.7591 37.7391,68.7541 C37.6811,68.7531 37.6211,68.7391 37.5661,68.7451 C37.4561,68.7541 37.3421,68.7421 37.2381,68.7631 L36.7241,64.0731 C37.0181,64.0311 37.3071,64.0351 37.5981,64.0261 C37.7441,64.0211 37.8841,64.0381 38.0271,64.0451 C38.1691,64.0541 38.3131,64.0601 38.4521,64.0781 L38.8641,64.1391 C39.0011,64.1601 39.1401,64.1801 39.2691,64.2151 L39.6621,64.3071 C39.7271,64.3241 39.7941,64.3391 39.8571,64.3571 L40.0441,64.4161 C41.0511,64.7231 41.9381,65.1581 42.7551,65.6351 L40.3481,69.6941 Z" id="Fill-94" fill="#F9BF3B" mask="url(#mask-4)"></path>
                <path d="M42.3764,66.2829 C41.4724,65.7539 40.6614,65.3879 39.8254,65.1329 L39.6434,65.0759 C39.6124,65.0669 39.5814,65.0599 39.5494,65.0529 L39.0804,64.9399 C38.9964,64.9189 38.8904,64.9019 38.7774,64.8849 L38.3514,64.8209 C38.2694,64.8109 38.1854,64.8059 38.1014,64.8009 L37.9854,64.7929 C37.9374,64.7909 37.8884,64.7879 37.8394,64.7839 C37.7564,64.7789 37.6854,64.7729 37.6244,64.7759 C37.5584,64.7779 37.4964,64.7789 37.4354,64.7799 C37.2214,64.7839 37.0194,64.7879 36.8324,64.8149 L36.6164,63.3309 C36.8974,63.2909 37.1554,63.2859 37.4064,63.2799 L37.5774,63.2769 C37.7094,63.2719 37.8324,63.2799 37.9404,63.2879 C37.9804,63.2909 38.0204,63.2929 38.0604,63.2949 L38.1974,63.3039 C38.3084,63.3109 38.4234,63.3179 38.5444,63.3339 L39.0064,63.4019 C39.1414,63.4239 39.2944,63.4469 39.4494,63.4859 L39.9024,63.5949 C39.9574,63.6069 40.0114,63.6209 40.0634,63.6359 L40.2694,63.6999 C41.2144,63.9889 42.1264,64.3989 43.1334,64.9879 L42.3764,66.2829 Z" id="Fill-95" fill="#F1892D" mask="url(#mask-4)"></path>
                <path d="M39.9697,70.3415 C39.4197,70.0205 38.9107,69.7865 38.4587,69.6495 L38.3587,69.6165 C38.3397,69.6125 38.3207,69.6095 38.3017,69.6045 L38.0687,69.5465 C38.0637,69.5465 38.0497,69.5455 38.0347,69.5435 L37.8127,69.5085 C37.8047,69.5085 37.7937,69.5075 37.7827,69.5075 C37.7537,69.5065 37.7237,69.5045 37.6937,69.5025 C37.6607,69.5015 37.6277,69.4985 37.5947,69.4945 C37.5447,69.4975 37.4957,69.4985 37.4457,69.4985 L37.4207,69.4985 C37.4057,69.4985 37.3897,69.4985 37.3757,69.5005 L37.3947,69.4975 L37.0817,68.0295 C37.2207,68.0005 37.3437,67.9995 37.4337,67.9985 C37.4567,67.9985 37.4787,67.9995 37.5017,67.9975 C37.6067,67.9875 37.6957,67.9965 37.7487,68.0025 L37.8057,68.0075 C37.8187,68.0085 37.8297,68.0085 37.8417,68.0085 C37.8987,68.0115 37.9557,68.0145 38.0137,68.0225 L38.2357,68.0565 C38.2937,68.0655 38.3797,68.0755 38.4787,68.1045 L38.6747,68.1515 C38.7107,68.1585 38.7457,68.1665 38.7827,68.1775 L38.9047,68.2175 C39.4667,68.3895 40.0797,68.6685 40.7267,69.0465 L39.9697,70.3415 Z" id="Fill-96" fill="#F1892D" mask="url(#mask-4)"></path>
                <polygon id="Fill-97" fill="#F1892D" mask="url(#mask-4)" points="39.3945 69.1492 37.9585 68.7142 39.3265 64.1982 40.7625 64.6332"></polygon>
                <path d="M19.956,58.4304 C21.019,59.6924 20.857,61.5944 19.596,62.6584 L15.105,66.4084 C13.843,67.4714 11.941,67.3094 10.878,66.0474 L6.515,60.6814 C5.452,59.4194 6.017,57.9614 7.279,56.8984 L11.547,53.3494 C12.809,52.2854 14.308,52.0034 15.372,53.2654 L19.956,58.4304 Z" id="Fill-98" fill="#A5B5B6" mask="url(#mask-4)"></path>
                <path d="M13.6714,53.1804 C13.0404,53.1804 12.4254,53.5894 12.0304,53.9234 L7.7584,57.4754 C7.2304,57.9194 6.8724,58.4264 6.7524,58.8994 C6.6344,59.3644 6.7444,59.7884 7.0884,60.1984 L11.4594,65.5744 C12.2514,66.5124 13.6724,66.6334 14.6214,65.8344 L19.1144,62.0814 C20.0584,61.2864 20.1814,59.8694 19.3884,58.9204 L14.8104,53.7634 C14.8064,53.7584 14.8024,53.7534 14.7974,53.7484 C14.4474,53.3324 14.0564,53.1804 13.6714,53.1804 M13.1754,67.8634 C12.1074,67.8634 11.0454,67.4094 10.3044,66.5314 L5.9334,61.1544 C5.2824,60.3814 5.0594,59.4714 5.2974,58.5314 C5.4974,57.7454 6.0144,56.9824 6.7954,56.3254 L11.0674,52.7734 C12.7924,51.3194 14.7044,51.3194 15.9384,52.7744 L20.5174,57.9324 C20.5214,57.9374 20.5254,57.9424 20.5294,57.9474 C21.8624,59.5284 21.6604,61.8984 20.0794,63.2314 L15.5864,66.9834 C14.8854,67.5744 14.0284,67.8634 13.1754,67.8634" id="Fill-99" fill="#354546" mask="url(#mask-4)"></path>
                <path d="M8.4692,50.7126 C7.9132,50.1036 7.9572,49.1496 8.5662,48.5936 L9.1142,48.0926 C9.7232,47.5366 10.6772,47.5796 11.2332,48.1896 L18.2532,55.4416 C18.8092,56.0506 18.7652,57.0036 18.1562,57.5606 L17.6082,58.0606 C16.9992,58.6166 16.0452,58.5726 15.4892,57.9636 L8.4692,50.7126 Z" id="Fill-100" fill="#A5B5B6" mask="url(#mask-4)"></path>
                <path d="M9.0175,50.1999 L16.0275,57.4419 C16.0335,57.4479 16.0385,57.4529 16.0425,57.4579 C16.1765,57.6049 16.3615,57.6909 16.5625,57.6999 C16.7635,57.7099 16.9555,57.6399 17.1025,57.5069 L17.6505,57.0069 C17.9545,56.7289 17.9775,56.2599 17.7055,55.9539 L10.6945,48.7119 C10.6895,48.7059 10.6845,48.7009 10.6795,48.6949 C10.4005,48.3889 9.9255,48.3679 9.6205,48.6469 L9.0715,49.1469 C8.7685,49.4239 8.7455,49.8939 9.0175,50.1999 M16.6005,59.2009 C16.5645,59.2009 16.5295,59.1999 16.4945,59.1989 C15.8965,59.1719 15.3465,58.9159 14.9435,58.4779 L7.9305,51.2339 C7.9255,51.2289 7.9205,51.2229 7.9155,51.2189 C7.0795,50.3019 7.1435,48.8759 8.0605,48.0399 L8.6085,47.5389 C9.5225,46.7049 10.9415,46.7669 11.7795,47.6759 L18.7915,54.9199 C18.7965,54.9249 18.8015,54.9289 18.8075,54.9349 C19.6425,55.8509 19.5785,57.2779 18.6625,58.1139 L18.1135,58.6139 C17.6975,58.9949 17.1635,59.2009 16.6005,59.2009" id="Fill-101" fill="#354546" mask="url(#mask-4)"></path>
                <polygon id="Fill-102" fill="#6D6D6D" mask="url(#mask-4)" points="2.1806 32.1755 0.7496 30.1055 4.2356 27.6965 5.6666 29.7675"></polygon>
                <path d="M1.7934,30.2956 L2.3714,31.1326 L4.6234,29.5766 L4.0454,28.7396 L1.7934,30.2956 Z M2.1814,32.9256 C1.9434,32.9256 1.7094,32.8136 1.5634,32.6026 L0.1324,30.5316 C0.0204,30.3676 -0.0236,30.1656 0.0124,29.9706 C0.0474,29.7746 0.1604,29.6016 0.3234,29.4876 L3.8094,27.0796 C4.1504,26.8446 4.6174,26.9296 4.8534,27.2706 L6.2834,29.3416 C6.5194,29.6826 6.4334,30.1496 6.0924,30.3846 L2.6064,32.7926 C2.4774,32.8826 2.3284,32.9256 2.1814,32.9256 L2.1814,32.9256 Z" id="Fill-103" fill="#242424" mask="url(#mask-4)"></path>
                <polygon id="Fill-104" fill="#373737" mask="url(#mask-4)" points="18.3296 58.5495 0.7776 33.1455 7.0076 28.8405 24.5596 54.2435"></polygon>
                <path d="M1.8208,33.3367 L18.5198,57.5057 L23.5168,54.0537 L6.8178,29.8837 L1.8208,33.3367 Z M18.3298,59.2997 C18.2848,59.2997 18.2388,59.2947 18.1948,59.2867 C17.9988,59.2507 17.8258,59.1397 17.7128,58.9757 L0.1598,33.5717 C0.0468,33.4077 0.0038,33.2067 0.0398,33.0107 C0.0748,32.8157 0.1868,32.6417 0.3508,32.5287 L6.5818,28.2237 C6.7448,28.1107 6.9468,28.0677 7.1428,28.1037 C7.3388,28.1387 7.5118,28.2507 7.6248,28.4147 L25.1768,53.8177 C25.4128,54.1587 25.3268,54.6257 24.9868,54.8607 L18.7558,59.1657 C18.6298,59.2537 18.4808,59.2997 18.3298,59.2997 L18.3298,59.2997 Z" id="Fill-105" fill="#242424" mask="url(#mask-4)"></path>
                <polygon id="Fill-106" fill="#373737" mask="url(#mask-4)" points="18.2212 58.3923 7.2352 70.2683 3.8602 64.7963 14.8462 52.9203"></polygon>
                <path d="M4.7973,64.8884 L7.3553,69.0344 L17.2833,58.3014 L14.7253,54.1554 L4.7973,64.8884 Z M7.2353,71.0184 C7.2113,71.0184 7.1873,71.0174 7.1633,71.0144 C6.9293,70.9924 6.7203,70.8624 6.5973,70.6614 L3.2213,65.1914 C3.0453,64.9044 3.0803,64.5344 3.3093,64.2874 L14.2953,52.4114 C14.4543,52.2404 14.6853,52.1534 14.9183,52.1744 C15.1513,52.1974 15.3603,52.3274 15.4843,52.5274 L18.8593,57.9984 C19.0363,58.2844 19.0003,58.6554 18.7713,58.9024 L7.7863,70.7784 C7.6433,70.9324 7.4433,71.0184 7.2353,71.0184 L7.2353,71.0184 Z" id="Fill-107" fill="#242424" mask="url(#mask-4)"></path>
                <polygon id="Fill-108" fill="#6D6D6D" mask="url(#mask-4)" points="21.8774 56.0974 4.3444 30.7214 7.0074 28.8404 24.5604 54.2434"></polygon>
                <path d="M5.3833,30.906 L22.0683,55.054 L23.5163,54.053 L6.8213,29.89 L5.3833,30.906 Z M21.8773,56.847 C21.8323,56.847 21.7873,56.843 21.7423,56.836 C21.5473,56.8 21.3733,56.687 21.2603,56.524 L3.7273,31.148 C3.4933,30.81 3.5753,30.346 3.9113,30.109 L6.5753,28.228 C6.7383,28.112 6.9423,28.067 7.1393,28.102 C7.3363,28.137 7.5113,28.25 7.6253,28.415 L25.1773,53.818 C25.4123,54.159 25.3273,54.626 24.9863,54.861 L22.3033,56.715 C22.1773,56.802 22.0293,56.847 21.8773,56.847 L21.8773,56.847 Z" id="Fill-109" fill="#242424" mask="url(#mask-4)"></path>
                <path d="M9.1953,32.1316 C8.9573,32.1316 8.7233,32.0186 8.5773,31.8076 C8.3423,31.4666 8.4273,30.9996 8.7683,30.7646 L10.2073,29.7706 C10.5483,29.5346 11.0153,29.6196 11.2503,29.9606 C11.4863,30.3016 11.4003,30.7696 11.0593,31.0046 L9.6213,31.9976 C9.4903,32.0886 9.3423,32.1316 9.1953,32.1316" id="Fill-110" fill="#242424" mask="url(#mask-4)"></path>
                <path d="M9.3818,58.7888 C9.1438,58.7888 8.9098,58.6758 8.7638,58.4648 L5.2338,53.3538 C4.0808,51.6858 4.3978,49.2588 5.9408,47.9428 L9.0668,45.2768 C9.3818,45.0078 9.8548,45.0458 10.1238,45.3608 C10.3928,45.6758 10.3548,46.1488 10.0398,46.4178 L6.9138,49.0838 C5.9558,49.9008 5.7518,51.4668 6.4668,52.5018 L9.9978,57.6118 C10.2338,57.9528 10.1488,58.4208 9.8078,58.6558 C9.6768,58.7458 9.5288,58.7888 9.3818,58.7888" id="Fill-111" fill="#242424" mask="url(#mask-4)"></path>
                <path d="M8.3208,52.8015 C8.0368,52.8015 7.7658,52.6405 7.6388,52.3655 C7.4658,51.9895 7.6298,51.5445 8.0058,51.3705 L11.9448,49.5495 C12.3208,49.3765 12.7668,49.5395 12.9408,49.9155 C13.1138,50.2915 12.9498,50.7385 12.5738,50.9115 L8.6348,52.7325 C8.5328,52.7795 8.4258,52.8015 8.3208,52.8015" id="Fill-112" fill="#242424" mask="url(#mask-4)"></path>
                <path d="M8.1733,56.3035 C7.6173,55.6945 7.6603,54.7415 8.2703,54.1845 L8.8183,53.6845 C9.4273,53.1275 10.3813,53.1715 10.9373,53.7815 L13.4533,56.4145 C14.0093,57.0245 13.9663,57.9775 13.3563,58.5335 L12.8083,59.0335 C12.1993,59.5905 11.2453,59.5465 10.6893,58.9375 L8.1733,56.3035 Z" id="Fill-113" fill="#A5B5B6" mask="url(#mask-4)"></path>
                <path d="M8.7226,55.7927 L11.2316,58.4197 C11.2356,58.4237 11.2396,58.4277 11.2436,58.4327 C11.5216,58.7367 11.9976,58.7597 12.3026,58.4807 L12.8506,57.9807 C13.1546,57.7027 13.1776,57.2307 12.9046,56.9257 L10.3946,54.2987 L10.3836,54.2867 C10.2496,54.1397 10.0646,54.0537 9.8636,54.0447 C9.6616,54.0367 9.4706,54.1047 9.3236,54.2377 L8.7756,54.7377 C8.4716,55.0157 8.4486,55.4867 8.7226,55.7927 M11.7986,60.1757 C11.1906,60.1757 10.5846,59.9317 10.1416,59.4497 L7.6306,56.8217 C7.6266,56.8167 7.6226,56.8137 7.6186,56.8097 C6.7836,55.8937 6.8476,54.4667 7.7646,53.6307 L8.3126,53.1307 C8.7546,52.7267 9.3296,52.5187 9.9316,52.5467 C10.5306,52.5737 11.0816,52.8297 11.4846,53.2687 L13.9956,55.8967 C13.9996,55.9007 14.0036,55.9047 14.0076,55.9087 C14.4116,56.3517 14.6186,56.9267 14.5916,57.5277 C14.5636,58.1297 14.3056,58.6837 13.8626,59.0877 L13.3136,59.5877 C12.8836,59.9807 12.3396,60.1757 11.7986,60.1757" id="Fill-114" fill="#354546" mask="url(#mask-4)"></path>
                <path d="M5.311,58.8962 C4.755,58.2872 4.798,57.3332 5.408,56.7772 L5.956,56.2772 C6.565,55.7202 7.519,55.7642 8.075,56.3742 L10.591,59.0072 C11.147,59.6172 11.104,60.5702 10.495,61.1262 L9.946,61.6262 C9.337,62.1822 8.384,62.1392 7.827,61.5302 L5.311,58.8962 Z" id="Fill-115" fill="#A5B5B6" mask="url(#mask-4)"></path>
                <path d="M5.8603,58.3855 L8.3693,61.0115 C8.3733,61.0165 8.3773,61.0205 8.3813,61.0245 C8.5153,61.1705 8.6993,61.2565 8.9013,61.2665 C9.1013,61.2765 9.2943,61.2065 9.4413,61.0735 L9.9883,60.5725 C10.1353,60.4385 10.2213,60.2535 10.2313,60.0525 C10.2393,59.8535 10.1723,59.6635 10.0423,59.5185 L7.5323,56.8915 C7.5283,56.8875 7.5253,56.8835 7.5213,56.8785 C7.2423,56.5735 6.7673,56.5525 6.4623,56.8305 L5.9133,57.3305 C5.6103,57.6085 5.5863,58.0795 5.8603,58.3855 M8.9383,62.7675 C8.9033,62.7675 8.8683,62.7665 8.8333,62.7645 C8.2343,62.7375 7.6833,62.4815 7.2793,62.0425 L4.7693,59.4135 L4.7573,59.4025 C3.9213,58.4855 3.9853,57.0595 4.9023,56.2235 L5.4503,55.7225 C6.3643,54.8885 7.7853,54.9505 8.6223,55.8615 L11.1333,58.4895 C11.1373,58.4925 11.1413,58.4975 11.1453,58.5015 C11.5493,58.9445 11.7563,59.5195 11.7293,60.1205 C11.7013,60.7225 11.4433,61.2765 11.0003,61.6805 L10.4523,62.1805 C10.0353,62.5615 9.5013,62.7675 8.9383,62.7675" id="Fill-116" fill="#354546" mask="url(#mask-4)"></path>
                <path d="M17.3774,55.3591 C18.1334,55.2631 18.8534,55.8511 18.9774,56.6661 L19.0884,57.3981 C19.2124,58.2121 18.6944,58.9571 17.9384,59.0521 L11.0254,59.9291 C10.2694,60.0251 9.5494,59.4381 9.4254,58.6241 L9.3144,57.8911 C9.1904,57.0771 9.7084,56.3331 10.4644,56.2361 L17.3774,55.3591 Z" id="Fill-117" fill="#A5B5B6" mask="url(#mask-4)"></path>
                <path d="M17.4716,56.1033 L10.5586,56.9803 C10.3746,57.0033 10.2576,57.1133 10.1906,57.2023 C10.0736,57.3573 10.0236,57.5673 10.0556,57.7793 L10.1676,58.5113 C10.2296,58.9213 10.5796,59.2283 10.9306,59.1853 L17.8436,58.3083 C18.0286,58.2853 18.1456,58.1753 18.2126,58.0873 C18.3296,57.9313 18.3796,57.7213 18.3466,57.5103 L18.2356,56.7783 C18.1736,56.3683 17.8246,56.0603 17.4716,56.1033 M10.8636,60.6903 C9.8046,60.6903 8.8546,59.8623 8.6836,58.7363 L8.5726,58.0033 C8.4806,57.3953 8.6336,56.7743 8.9936,56.2973 C9.3336,55.8473 9.8226,55.5623 10.3706,55.4923 L17.2836,54.6153 C18.4426,54.4663 19.5346,55.3373 19.7186,56.5523 L19.8296,57.2853 C19.9226,57.8933 19.7686,58.5153 19.4096,58.9923 C19.0696,59.4413 18.5806,59.7273 18.0336,59.7963 L11.1196,60.6733 C11.0346,60.6843 10.9486,60.6903 10.8636,60.6903" id="Fill-118" fill="#354546" mask="url(#mask-4)"></path>
                <path d="M20.3779,57.7673 L19.2289,56.4303 C18.1529,55.1783 16.2499,55.0353 14.9979,56.1103 L13.6609,57.2593 C12.4099,58.3343 12.2659,60.2383 13.3409,61.4903 L14.4899,62.8273 C15.5659,64.0793 17.4689,64.2223 18.7209,63.1473 L20.0579,61.9973 C21.3089,60.9223 21.4529,59.0193 20.3779,57.7673" id="Fill-119" fill="#A5B5B6" mask="url(#mask-4)"></path>
                <path d="M16.9516,56.1365 C16.4326,56.1365 15.9106,56.3155 15.4866,56.6795 L14.1496,57.8275 C13.2086,58.6365 13.1006,60.0605 13.9096,61.0005 L15.0586,62.3385 C15.8676,63.2795 17.2906,63.3865 18.2316,62.5785 L19.5686,61.4295 C20.0226,61.0395 20.2966,60.4935 20.3426,59.8925 C20.3886,59.2905 20.1986,58.7095 19.8086,58.2565 L18.6596,56.9195 C18.2156,56.4025 17.5856,56.1365 16.9516,56.1365 M16.7676,64.6195 C15.7116,64.6195 14.6616,64.1775 13.9206,63.3165 L12.7716,61.9785 C11.4246,60.4105 11.6036,58.0375 13.1726,56.6905 L14.5096,55.5415 C16.0776,54.1945 18.4506,54.3735 19.7976,55.9415 L20.9466,57.2795 C21.5976,58.0355 21.9136,59.0045 21.8386,60.0055 C21.7626,61.0065 21.3036,61.9155 20.5466,62.5675 L19.2096,63.7155 C18.5026,64.3235 17.6336,64.6195 16.7676,64.6195" id="Fill-120" fill="#354546" mask="url(#mask-4)"></path>
                <path d="M58.9267,75.0505 L58.9277,75.0505 L58.9267,75.0505 Z M59.8627,75.4275 C59.8387,75.4275 59.8157,75.4275 59.7927,75.4285 C59.6127,75.4365 59.5437,75.4785 59.5327,75.4925 C59.4487,75.6085 59.3797,76.3035 60.1457,77.9235 C60.7267,79.1545 61.5517,80.3995 62.0317,80.9465 C62.4177,81.3865 62.9027,81.6285 63.3647,81.6065 C63.7637,81.5875 64.1177,81.3825 64.3877,81.0125 C65.0597,80.0895 64.9257,78.5075 64.0937,77.5595 C63.3867,76.7535 61.0677,75.4275 59.8627,75.4275 L59.8627,75.4275 Z M63.3087,83.1075 C62.4317,83.1075 61.5617,82.6855 60.9047,81.9365 C60.3647,81.3215 56.9227,76.5285 58.3207,74.6095 C58.5317,74.3195 58.9477,73.9655 59.7247,73.9305 C61.4697,73.8555 64.2617,75.4775 65.2207,76.5705 C66.5257,78.0575 66.6917,80.3965 65.5997,81.8965 C65.0607,82.6365 64.2907,83.0655 63.4327,83.1045 C63.3907,83.1065 63.3497,83.1075 63.3087,83.1075 L63.3087,83.1075 Z" id="Fill-121" fill="#19B5FE" mask="url(#mask-4)"></path>
                <path d="M60.1401,74.779 C60.0721,75.211 60.5501,76.042 62.0951,77.077 C63.3741,77.933 64.9231,78.606 65.7311,78.805 C66.3331,78.953 66.9511,78.844 67.4701,78.498 C68.0971,78.082 68.5331,77.358 68.6651,76.513 C68.9281,74.844 67.9731,73.199 66.5381,72.846 C65.4051,72.568 62.3311,72.97 60.8251,73.973 C60.5401,74.162 60.1911,74.456 60.1401,74.779 M66.2631,80.371 C65.9681,80.371 65.6691,80.335 65.3731,80.261 C63.6061,79.828 58.2281,77.283 58.6581,74.547 C58.7671,73.854 59.2161,73.242 59.9941,72.724 C61.7851,71.532 65.2861,70.994 66.8961,71.389 C69.0691,71.924 70.5271,74.327 70.1471,76.746 C69.9501,78.005 69.2771,79.098 68.3011,79.747 C67.6821,80.159 66.9801,80.371 66.2631,80.371" id="Fill-122" fill="#C72C1C" mask="url(#mask-4)"></path>
                <path d="M55.2026,60.0242 C53.5586,59.8802 50.8656,59.8342 49.2186,59.9202 L40.1476,60.3932 C38.4996,60.4802 37.1276,61.9002 37.0986,63.5492 L36.9486,72.1722 C36.9196,73.8232 38.1986,75.5282 39.7906,75.9622 L48.9796,78.4692 C50.5716,78.9042 53.1876,78.9492 54.7936,78.5712 L64.0646,76.3852 C65.6706,76.0062 67.0086,74.3472 67.0366,72.6982 L67.1876,64.0752 C67.2166,62.4252 65.8946,60.9582 64.2506,60.8142 L55.2026,60.0242 Z" id="Fill-123" fill="#A5B5B6" mask="url(#mask-4)"></path>
                <path d="M64.1064,73.9861 L54.8354,76.1721 C53.2294,76.5491 50.6134,76.5041 49.0214,76.0701 L39.8324,73.5621 C38.2404,73.1281 36.9614,71.4231 36.9904,69.7731 L36.9484,72.1731 C36.9194,73.8231 38.1984,75.5281 39.7904,75.9621 L48.9794,78.4691 C50.5714,78.9041 53.1884,78.9491 54.7934,78.5711 L64.0644,76.3851 C65.6704,76.0071 67.0084,74.3471 67.0374,72.6981 L67.0794,70.2981 C67.0504,71.9481 65.7124,73.6071 64.1064,73.9861" id="Fill-124" fill="#859596" mask="url(#mask-4)"></path>
                <path d="M51.1845,60.6257 C50.4775,60.6257 49.8095,60.6397 49.2575,60.6687 L40.1865,61.1427 C38.9415,61.2077 37.8715,62.3157 37.8495,63.5637 L37.6985,72.1867 C37.6755,73.4957 38.7245,74.8937 39.9885,75.2377 L49.1775,77.7457 C50.6455,78.1467 53.1395,78.1897 54.6215,77.8407 L63.8925,75.6557 C65.1675,75.3547 66.2645,73.9947 66.2875,72.6847 L66.4375,64.0617 C66.4595,62.8147 65.4285,61.6697 64.1855,61.5617 L55.1375,60.7717 C54.0685,60.6777 52.5565,60.6257 51.1845,60.6257 M52.1625,79.5797 C50.9535,79.5797 49.7215,79.4487 48.7825,79.1927 L39.5935,76.6857 C37.6545,76.1567 36.1635,74.1687 36.1985,72.1597 L36.3495,63.5367 C36.3845,61.4967 38.0715,59.7507 40.1085,59.6447 L49.1795,59.1707 C50.8605,59.0827 53.5925,59.1307 55.2675,59.2767 L64.3165,60.0667 C66.3485,60.2447 67.9735,62.0487 67.9375,64.0877 L67.7875,72.7107 C67.7515,74.7197 66.1925,76.6547 64.2365,77.1157 L54.9655,79.3007 C54.1715,79.4877 53.1745,79.5797 52.1625,79.5797" id="Fill-125" fill="#354546" mask="url(#mask-4)"></path>
                <polygon id="Fill-126" fill="#556566" mask="url(#mask-4)" points="55.0957 73.1023 42.0197 72.8733 42.1797 63.6753 55.2567 63.9033"></polygon>
                <path d="M50.6801,71.1628 C50.4231,71.1628 50.1811,71.0318 50.0441,70.8098 L49.0061,69.1448 L47.3891,69.1168 C47.1381,69.1118 46.9051,68.9818 46.7701,68.7698 L46.7021,68.6648 L46.2661,69.6818 C46.1681,69.9078 45.9651,70.0718 45.7231,70.1208 C45.4811,70.1688 45.2311,70.0948 45.0541,69.9228 L44.1671,69.0598 L42.0871,69.0238 C41.6731,69.0168 41.3431,68.6758 41.3501,68.2618 C41.3571,67.8508 41.6921,67.5238 42.0991,67.5238 L42.1131,67.5238 L44.4911,67.5658 C44.6811,67.5688 44.8641,67.6448 45.0001,67.7778 L45.3181,68.0878 L45.8841,66.7708 C45.9931,66.5158 46.2351,66.3418 46.5121,66.3188 C46.7901,66.2988 47.0561,66.4298 47.2051,66.6638 L47.8181,67.6238 L49.4401,67.6518 C49.6941,67.6568 49.9291,67.7898 50.0631,68.0058 L50.4581,68.6388 L51.2701,66.0848 C51.3681,65.7768 51.6531,65.5658 51.9761,65.5618 L51.9851,65.5618 C52.3051,65.5618 52.5891,65.7658 52.6941,66.0678 L53.2641,67.7198 L55.1891,67.7528 C55.6031,67.7598 55.9331,68.1008 55.9261,68.5158 C55.9181,68.9298 55.5781,69.2668 55.1631,69.2528 L52.7131,69.2098 C52.3981,69.2038 52.1201,69.0028 52.0171,68.7048 L52.0141,68.6948 L51.3951,70.6408 C51.3061,70.9198 51.0631,71.1208 50.7731,71.1568 C50.7421,71.1618 50.7111,71.1628 50.6801,71.1628" id="Fill-127" fill="#D5E5E6" mask="url(#mask-4)"></path>
                <path d="M42.7827,72.1365 L54.3587,72.3385 L54.4927,64.6405 L42.9167,64.4385 L42.7827,72.1365 Z M55.0957,73.8525 C55.0917,73.8525 55.0867,73.8525 55.0827,73.8515 L42.0067,73.6235 C41.5927,73.6155 41.2627,73.2755 41.2697,72.8615 L41.4297,63.6615 C41.4337,63.4625 41.5157,63.2735 41.6587,63.1355 C41.8027,62.9975 41.9937,62.9175 42.1937,62.9255 L55.2687,63.1535 C55.6837,63.1605 56.0127,63.5025 56.0057,63.9165 L55.8457,73.1155 C55.8427,73.3145 55.7597,73.5035 55.6167,73.6415 C55.4767,73.7775 55.2897,73.8525 55.0957,73.8525 L55.0957,73.8525 Z" id="Fill-128" fill="#354546" mask="url(#mask-4)"></path>
                <path d="M62.0742,65.7976 C62.0572,66.7776 61.2482,67.5586 60.2682,67.5406 C59.2882,67.5246 58.5082,66.7156 58.5252,65.7356 C58.5422,64.7556 59.3502,63.9746 60.3302,63.9916 C61.3102,64.0086 62.0912,64.8176 62.0742,65.7976" id="Fill-129" fill="#F85C4C" mask="url(#mask-4)"></path>
                <path d="M60.2993,64.741 C59.7423,64.741 59.2843,65.189 59.2743,65.749 C59.2643,66.313 59.7163,66.781 60.2813,66.792 C60.5563,66.801 60.8143,66.694 61.0113,66.504 C61.2083,66.313 61.3193,66.058 61.3243,65.784 C61.3293,65.511 61.2273,65.252 61.0363,65.054 C60.8463,64.857 60.5913,64.747 60.3173,64.742 C60.3113,64.742 60.3053,64.741 60.2993,64.741 M60.3003,68.292 C60.2853,68.292 60.2703,68.292 60.2553,68.291 C58.8633,68.266 57.7503,67.115 57.7753,65.722 C57.7993,64.331 58.9533,63.215 60.3433,63.242 C61.0183,63.254 61.6473,63.527 62.1153,64.012 C62.5843,64.498 62.8363,65.137 62.8243,65.81 C62.8123,66.485 62.5383,67.114 62.0533,67.583 C61.5793,68.041 60.9583,68.292 60.3003,68.292" id="Fill-130" fill="#C72C1C" mask="url(#mask-4)"></path>
                <path d="M61.9756,71.447 C61.9586,72.426 61.1496,73.208 60.1696,73.19 C59.1896,73.174 58.4096,72.365 58.4266,71.385 C58.4436,70.404 59.2516,69.624 60.2316,69.641 C61.2116,69.658 61.9926,70.467 61.9756,71.447" id="Fill-131" fill="#B9D96D" mask="url(#mask-4)"></path>
                <path d="M60.2002,70.3904 C59.9332,70.3904 59.6812,70.4924 59.4892,70.6784 C59.2922,70.8694 59.1802,71.1234 59.1762,71.3984 C59.1662,71.9624 59.6172,72.4304 60.1832,72.4404 C60.4582,72.4454 60.7162,72.3434 60.9132,72.1534 C61.1102,71.9624 61.2212,71.7064 61.2252,71.4334 C61.2352,70.8694 60.7832,70.4014 60.2192,70.3904 L60.2002,70.3904 Z M60.2022,73.9404 L60.1572,73.9404 C58.7642,73.9154 57.6522,72.7634 57.6762,71.3714 C57.6882,70.6974 57.9622,70.0684 58.4472,69.5994 C58.9322,69.1304 59.5722,68.8794 60.2452,68.8914 C61.6372,68.9154 62.7502,70.0674 62.7252,71.4594 C62.7142,72.1344 62.4402,72.7634 61.9552,73.2324 C61.4802,73.6904 60.8602,73.9404 60.2022,73.9404 L60.2022,73.9404 Z" id="Fill-132" fill="#719911" mask="url(#mask-4)"></path>
                <path d="M41.8325,62.5466 C41.4715,62.5466 41.1535,62.2856 41.0935,61.9186 L40.6895,59.4656 C40.6225,59.0576 40.8985,58.6706 41.3075,58.6036 C41.7165,58.5366 42.1025,58.8136 42.1695,59.2216 L42.5735,61.6746 C42.6405,62.0836 42.3635,62.4696 41.9555,62.5366 C41.9135,62.5436 41.8725,62.5466 41.8325,62.5466" id="Fill-133" fill="#354546" mask="url(#mask-4)"></path>
                <path d="M44.7924,62.0593 C44.4314,62.0593 44.1134,61.7983 44.0534,61.4313 L43.6494,58.9783 C43.5824,58.5703 43.8584,58.1833 44.2674,58.1163 C44.6764,58.0483 45.0624,58.3263 45.1294,58.7343 L45.5334,61.1873 C45.6004,61.5963 45.3244,61.9823 44.9154,62.0493 C44.8744,62.0563 44.8334,62.0593 44.7924,62.0593" id="Fill-134" fill="#354546" mask="url(#mask-4)"></path>
                <path d="M62.1367,62.5466 C62.0957,62.5466 62.0547,62.5436 62.0137,62.5366 C61.6047,62.4696 61.3287,62.0836 61.3957,61.6746 L61.7997,59.2216 C61.8667,58.8136 62.2527,58.5356 62.6617,58.6036 C63.0707,58.6706 63.3467,59.0576 63.2797,59.4656 L62.8757,61.9186 C62.8157,62.2856 62.4967,62.5466 62.1367,62.5466" id="Fill-135" fill="#354546" mask="url(#mask-4)"></path>
                <path d="M59.1762,62.0593 C59.1352,62.0593 59.0952,62.0563 59.0532,62.0493 C58.6452,61.9823 58.3682,61.5963 58.4352,61.1873 L58.8392,58.7343 C58.9062,58.3263 59.2922,58.0483 59.7012,58.1163 C60.1102,58.1833 60.3862,58.5703 60.3192,58.9783 L59.9152,61.4313 C59.8552,61.7983 59.5372,62.0593 59.1762,62.0593" id="Fill-136" fill="#354546" mask="url(#mask-4)"></path>
                <polygon id="Fill-137" fill="#A5B5B6" mask="url(#mask-4)" points="38.891 107.861 43.578 107.861 43.578 98.861 38.891 98.861"></polygon>
                <polygon id="Fill-138" fill="#C5D5D6" mask="url(#mask-4)" points="38.891 102.436 43.578 102.436 43.578 98.861 38.891 98.861"></polygon>
                <path d="M39.64,107.111 L42.828,107.111 L42.828,99.611 L39.64,99.611 L39.64,107.111 Z M43.578,108.611 L38.89,108.611 C38.476,108.611 38.14,108.275 38.14,107.861 L38.14,98.861 C38.14,98.446 38.476,98.111 38.89,98.111 L43.578,98.111 C43.992,98.111 44.328,98.446 44.328,98.861 L44.328,107.861 C44.328,108.275 43.992,108.611 43.578,108.611 L43.578,108.611 Z" id="Fill-139" fill="#354546" mask="url(#mask-4)"></path>
                <polygon id="Fill-140" fill="#A5B5B6" mask="url(#mask-4)" points="35.711 106.098 38.896 106.098 38.896 90.198 35.711 90.198"></polygon>
                <path d="M36.461,105.348 L38.146,105.348 L38.146,90.948 L36.461,90.948 L36.461,105.348 Z M38.896,106.848 L35.711,106.848 C35.297,106.848 34.961,106.512 34.961,106.098 L34.961,90.198 C34.961,89.784 35.297,89.448 35.711,89.448 L38.896,89.448 C39.311,89.448 39.646,89.784 39.646,90.198 L39.646,106.098 C39.646,106.512 39.311,106.848 38.896,106.848 L38.896,106.848 Z" id="Fill-141" fill="#354546" mask="url(#mask-4)"></path>
                <path d="M37.3701,84.6853 L37.2381,84.6853 C35.5881,84.6853 34.2381,86.0363 34.2381,87.6853 L34.2381,94.8103 L40.3701,94.8103 L40.3701,87.6853 C40.3701,86.0363 39.0201,84.6853 37.3701,84.6853" id="Fill-142" fill="#A5B5B6" mask="url(#mask-4)"></path>
                <path d="M37.3701,84.6853 L37.2381,84.6853 C35.5881,84.6853 34.2381,86.0363 34.2381,87.6853 L34.2381,90.4233 C34.2381,88.7733 35.5881,87.4233 37.2381,87.4233 L37.3701,87.4233 C39.0201,87.4233 40.3701,88.7733 40.3701,90.4233 L40.3701,87.6853 C40.3701,86.0363 39.0201,84.6853 37.3701,84.6853" id="Fill-143" fill="#C5D5D6" mask="url(#mask-4)"></path>
                <path d="M34.9878,94.0603 L39.6198,94.0603 L39.6198,87.6853 C39.6198,86.4453 38.6108,85.4353 37.3698,85.4353 L37.2378,85.4353 C35.9968,85.4353 34.9878,86.4453 34.9878,87.6853 L34.9878,94.0603 Z M40.3698,95.5603 L34.2378,95.5603 C33.8238,95.5603 33.4878,95.2243 33.4878,94.8103 L33.4878,87.6853 C33.4878,85.6183 35.1698,83.9353 37.2378,83.9353 L37.3698,83.9353 C39.4378,83.9353 41.1198,85.6183 41.1198,87.6853 L41.1198,94.8103 C41.1198,95.2243 40.7848,95.5603 40.3698,95.5603 L40.3698,95.5603 Z" id="Fill-144" fill="#354546" mask="url(#mask-4)"></path>
                <polygon id="Fill-145" fill="#A5B5B6" mask="url(#mask-4)" points="60.016 107.861 64.703 107.861 64.703 98.861 60.016 98.861"></polygon>
                <polygon id="Fill-146" fill="#C5D5D6" mask="url(#mask-4)" points="60.016 102.436 64.703 102.436 64.703 98.861 60.016 98.861"></polygon>
                <path d="M60.766,107.111 L63.953,107.111 L63.953,99.611 L60.766,99.611 L60.766,107.111 Z M64.703,108.611 L60.016,108.611 C59.601,108.611 59.266,108.275 59.266,107.861 L59.266,98.861 C59.266,98.446 59.601,98.111 60.016,98.111 L64.703,98.111 C65.117,98.111 65.453,98.446 65.453,98.861 L65.453,107.861 C65.453,108.275 65.117,108.611 64.703,108.611 L64.703,108.611 Z" id="Fill-147" fill="#354546" mask="url(#mask-4)"></path>
                <polygon id="Fill-148" fill="#A5B5B6" mask="url(#mask-4)" points="64.697 106.098 67.882 106.098 67.882 90.198 64.697 90.198"></polygon>
                <path d="M65.447,105.348 L67.132,105.348 L67.132,90.948 L65.447,90.948 L65.447,105.348 Z M67.882,106.848 L64.697,106.848 C64.282,106.848 63.947,106.512 63.947,106.098 L63.947,90.198 C63.947,89.784 64.282,89.448 64.697,89.448 L67.882,89.448 C68.296,89.448 68.632,89.784 68.632,90.198 L68.632,106.098 C68.632,106.512 68.296,106.848 67.882,106.848 L67.882,106.848 Z" id="Fill-149" fill="#354546" mask="url(#mask-4)"></path>
                <path d="M66.2231,84.6853 L66.3551,84.6853 C68.0051,84.6853 69.3551,86.0363 69.3551,87.6853 L69.3551,94.8103 L63.2231,94.8103 L63.2231,87.6853 C63.2231,86.0363 64.5731,84.6853 66.2231,84.6853" id="Fill-150" fill="#A5B5B6" mask="url(#mask-4)"></path>
                <path d="M66.2231,84.6853 L66.3551,84.6853 C68.0051,84.6853 69.3551,86.0363 69.3551,87.6853 L69.3551,90.4233 C69.3551,88.7733 68.0051,87.4233 66.3551,87.4233 L66.2231,87.4233 C64.5731,87.4233 63.2231,88.7733 63.2231,90.4233 L63.2231,87.6853 C63.2231,86.0363 64.5731,84.6853 66.2231,84.6853" id="Fill-151" fill="#C5D5D6" mask="url(#mask-4)"></path>
                <path d="M63.9731,94.0603 L68.6051,94.0603 L68.6051,87.6853 C68.6051,86.4453 67.5961,85.4353 66.3551,85.4353 L66.2231,85.4353 C64.9821,85.4353 63.9731,86.4453 63.9731,87.6853 L63.9731,94.0603 Z M69.3551,95.5603 L63.2231,95.5603 C62.8081,95.5603 62.4731,95.2243 62.4731,94.8103 L62.4731,87.6853 C62.4731,85.6183 64.1551,83.9353 66.2231,83.9353 L66.3551,83.9353 C68.4231,83.9353 70.1051,85.6183 70.1051,87.6853 L70.1051,94.8103 C70.1051,95.2243 69.7691,95.5603 69.3551,95.5603 L69.3551,95.5603 Z" id="Fill-152" fill="#354546" mask="url(#mask-4)"></path>
                <path d="M59.8774,115.3611 C59.8774,117.0101 58.5274,118.3611 56.8774,118.3611 L46.5774,118.3611 C44.9274,118.3611 43.5774,117.0101 43.5774,115.3611 L43.5774,91.3611 C43.5774,89.7111 44.9274,88.3611 46.5774,88.3611 L56.8774,88.3611 C58.5274,88.3611 59.8774,89.7111 59.8774,91.3611 L59.8774,115.3611 Z" id="Fill-153" fill="#6D6D6D" mask="url(#mask-4)"></path>
                <path d="M56.8774,113.7859 L46.5774,113.7859 C45.2374,113.7859 43.9964,112.8949 43.5774,111.6779 L43.5774,115.3609 C43.5774,117.0109 44.9274,118.3609 46.5774,118.3609 L56.8774,118.3609 C58.5274,118.3609 59.8774,117.0109 59.8774,115.3609 L59.8774,111.6779 C59.4584,112.8949 58.2174,113.7859 56.8774,113.7859" id="Fill-154" fill="#5B5B5B" mask="url(#mask-4)"></path>
                <polygon id="Fill-155" fill="#929292" mask="url(#mask-4)" points="59.7871 101.4109 43.5781 100.0599 43.6681 96.0109 59.7871 96.0109"></polygon>
                <polygon id="Fill-156" fill="#929292" mask="url(#mask-4)" points="59.7871 104.5603 43.6681 105.6643 43.6681 102.9643 59.7871 102.9643"></polygon>
                <path d="M46.5776,89.1111 C45.3366,89.1111 44.3276,90.1201 44.3276,91.3611 L44.3276,115.3611 C44.3276,116.6011 45.3366,117.6111 46.5776,117.6111 L56.8776,117.6111 C58.1186,117.6111 59.1276,116.6011 59.1276,115.3611 L59.1276,91.3611 C59.1276,90.1201 58.1186,89.1111 56.8776,89.1111 L46.5776,89.1111 Z M56.8776,119.1111 L46.5776,119.1111 C44.5096,119.1111 42.8276,117.4281 42.8276,115.3611 L42.8276,91.3611 C42.8276,89.2931 44.5096,87.6111 46.5776,87.6111 L56.8776,87.6111 C58.9456,87.6111 60.6276,89.2931 60.6276,91.3611 L60.6276,115.3611 C60.6276,117.4281 58.9456,119.1111 56.8776,119.1111 L56.8776,119.1111 Z" id="Fill-157" fill="#121212" mask="url(#mask-4)"></path>
                <path d="M59.9145,84.6853 L43.5405,84.6853 C41.7595,84.6853 40.3015,86.0363 40.3015,87.6853 L40.3015,92.0363 L63.1545,92.0363 L63.1545,87.6853 C63.1545,86.0363 61.6965,84.6853 59.9145,84.6853" id="Fill-158" fill="#A5B5B6" mask="url(#mask-4)"></path>
                <path d="M59.9145,84.6853 L43.5405,84.6853 C41.7595,84.6853 40.3015,86.0363 40.3015,87.6853 L63.1545,87.6853 C63.1545,86.0363 61.6965,84.6853 59.9145,84.6853" id="Fill-159" fill="#C5D5D6" mask="url(#mask-4)"></path>
                <path d="M41.0512,91.2859 L62.4042,91.2859 L62.4042,87.6849 C62.4042,86.4449 61.2872,85.4349 59.9142,85.4349 L43.5412,85.4349 C42.1682,85.4349 41.0512,86.4449 41.0512,87.6849 L41.0512,91.2859 Z M63.1542,92.7859 L40.3012,92.7859 C39.8872,92.7859 39.5512,92.4499 39.5512,92.0359 L39.5512,87.6849 C39.5512,85.6179 41.3412,83.9349 43.5412,83.9349 L59.9142,83.9349 C62.1142,83.9349 63.9042,85.6179 63.9042,87.6849 L63.9042,92.0359 C63.9042,92.4499 63.5682,92.7859 63.1542,92.7859 L63.1542,92.7859 Z" id="Fill-160" fill="#354546" mask="url(#mask-4)"></path>
                <path d="M47.2275,86.866 C46.8135,86.866 46.4775,86.531 46.4775,86.116 L46.4775,83.631 C46.4775,83.217 46.8135,82.881 47.2275,82.881 C47.6425,82.881 47.9775,83.217 47.9775,83.631 L47.9775,86.116 C47.9775,86.531 47.6425,86.866 47.2275,86.866" id="Fill-161" fill="#354546" mask="url(#mask-4)"></path>
                <path d="M50.2275,86.866 C49.8135,86.866 49.4775,86.531 49.4775,86.116 L49.4775,83.631 C49.4775,83.217 49.8135,82.881 50.2275,82.881 C50.6425,82.881 50.9775,83.217 50.9775,83.631 L50.9775,86.116 C50.9775,86.531 50.6425,86.866 50.2275,86.866" id="Fill-162" fill="#354546" mask="url(#mask-4)"></path>
                <path d="M53.2275,86.866 C52.8135,86.866 52.4775,86.531 52.4775,86.116 L52.4775,83.631 C52.4775,83.217 52.8135,82.881 53.2275,82.881 C53.6425,82.881 53.9775,83.217 53.9775,83.631 L53.9775,86.116 C53.9775,86.531 53.6425,86.866 53.2275,86.866" id="Fill-163" fill="#354546" mask="url(#mask-4)"></path>
                <path d="M56.2275,86.866 C55.8135,86.866 55.4775,86.531 55.4775,86.116 L55.4775,83.631 C55.4775,83.217 55.8135,82.881 56.2275,82.881 C56.6425,82.881 56.9775,83.217 56.9775,83.631 L56.9775,86.116 C56.9775,86.531 56.6425,86.866 56.2275,86.866" id="Fill-164" fill="#354546" mask="url(#mask-4)"></path>
                <path d="M74.0791,21.112 L74.0471,21.112 C73.6331,21.094 73.3111,20.745 73.3291,20.331 L73.7591,10.209 C73.8251,8.42 73.1831,6.702 71.9521,5.377 C70.7211,4.05 69.0561,3.285 67.2621,3.218 C67.2551,3.218 67.2481,3.217 67.2411,3.217 L41.1811,1.505 C37.4651,1.375 34.3341,4.286 34.1971,8.002 L33.7671,18.875 C33.7511,19.289 33.4031,19.614 32.9881,19.594 C32.5741,19.579 32.2521,19.23 32.2681,18.816 L32.6981,7.944 C32.8661,3.4 36.7001,-0.164 41.2461,0.007 C41.2541,0.007 41.2611,0.007 41.2681,0.008 L67.3291,1.719 C69.5181,1.803 71.5501,2.74 73.0511,4.356 C74.5551,5.974 75.3381,8.075 75.2571,10.268 L74.8281,20.394 C74.8101,20.798 74.4781,21.112 74.0791,21.112" id="Fill-165" fill="#354546" mask="url(#mask-4)"></path>
                <path d="M28.7348,19.7644 C27.4418,19.7164 26.3328,21.0264 26.2718,22.6754 L25.8978,32.8094 C25.8368,34.4574 26.8448,35.8464 28.1388,35.8944 C29.4328,35.9414 30.4908,35.9814 30.4908,35.9814 L31.0878,19.8514 C31.0878,19.8514 30.0288,19.8124 28.7348,19.7644" id="Fill-166" fill="#A5B5B6" mask="url(#mask-4)"></path>
                <path d="M26.2719,22.6755 L26.0889,27.6355 L30.7929,27.8085 L31.0869,19.8515 C31.0869,19.8515 30.0289,19.8125 28.7349,19.7645 C27.4409,19.7165 26.3329,21.0265 26.2719,22.6755" id="Fill-167" fill="#C5D5D6" mask="url(#mask-4)"></path>
                <path d="M30.4633,36.7302 L28.1113,36.6432 C26.4013,36.5802 25.0713,34.8472 25.1483,32.7812 L25.5223,22.6472 C25.5983,20.5812 27.0523,18.9532 28.7623,19.0142 L31.1143,19.1012 L31.0593,20.6002 L28.7073,20.5132 C27.8373,20.4772 27.0663,21.4842 27.0213,22.7032 L26.6473,32.8362 C26.6023,34.0552 27.2973,35.1122 28.1663,35.1442 L30.5193,35.2312 L30.4633,36.7302 Z" id="Fill-168" fill="#354546" mask="url(#mask-4)"></path>
                <polygon id="Fill-169" fill="#859596" mask="url(#mask-4)" points="34.8066 38.5398 30.4026 38.3768 31.1266 18.7758 35.5316 18.9378"></polygon>
                <polygon id="Fill-170" fill="#A5B5B6" mask="url(#mask-4)" points="35.1167 30.1531 30.7127 29.9901 31.1267 18.7761 35.5317 18.9381"></polygon>
                <path d="M31.1797,37.655 L34.0847,37.762 L34.7537,19.66 L31.8487,19.552 L31.1797,37.655 Z M34.8067,39.29 C34.7977,39.29 34.7887,39.29 34.7797,39.289 L30.3747,39.127 C29.9607,39.111 29.6377,38.763 29.6537,38.349 L30.3777,18.748 C30.3847,18.55 30.4707,18.361 30.6167,18.226 C30.7627,18.091 30.9567,18.021 31.1547,18.026 L35.5587,18.189 C35.9727,18.204 36.2957,18.552 36.2807,18.967 L35.5557,38.567 C35.5497,38.766 35.4627,38.954 35.3177,39.09 C35.1787,39.218 34.9957,39.29 34.8067,39.29 L34.8067,39.29 Z" id="Fill-171" fill="#354546" mask="url(#mask-4)"></path>
                <path d="M26.0888,28.3845 L26.0878,28.3845 L24.2858,28.3815 C23.8718,28.3805 23.5368,28.0445 23.5378,27.6295 C23.5388,27.2165 23.8738,26.8815 24.2878,26.8815 L24.2888,26.8815 L26.0898,26.8845 C26.5048,26.8855 26.8388,27.2225 26.8388,27.6365 C26.8378,28.0495 26.5028,28.3845 26.0888,28.3845" id="Fill-172" fill="#354546" mask="url(#mask-4)"></path>
                <path d="M81.1631,10.5554 C81.0771,10.5554 80.9901,10.5444 80.9031,10.5234 C80.3411,10.3794 80.0011,9.8084 80.1451,9.2454 L80.9211,6.1984 C81.0641,5.6354 81.6361,5.2964 82.1981,5.4394 C82.7601,5.5824 83.1001,6.1544 82.9561,6.7164 L82.1801,9.7644 C82.0591,10.2404 81.6321,10.5554 81.1631,10.5554" id="Fill-173" fill="#354546" mask="url(#mask-4)"></path>
                <path d="M78.0849,22.3376 C78.0229,22.3376 77.9609,22.3296 77.8989,22.3146 C77.4979,22.2116 77.2549,21.8036 77.3569,21.4016 L80.4359,9.3196 C80.5379,8.9186 80.9459,8.6766 81.3479,8.7776 C81.7489,8.8806 81.9909,9.2886 81.8889,9.6906 L78.8109,21.7726 C78.7249,22.1116 78.4189,22.3376 78.0849,22.3376" id="Fill-174" fill="#354546" mask="url(#mask-4)"></path>
                <path d="M78.0844,21.5876 C79.3774,21.6356 80.3864,23.0236 80.3254,24.6726 L79.9514,34.8066 C79.8904,36.4546 78.7824,37.7646 77.4884,37.7166 C76.1944,37.6696 75.1364,37.6296 75.1364,37.6296 L75.7314,21.5006 C75.7314,21.5006 76.7904,21.5396 78.0844,21.5876" id="Fill-175" fill="#A5B5B6" mask="url(#mask-4)"></path>
                <path d="M80.3257,24.6726 L80.1427,29.6316 L75.4377,29.4576 L75.7317,21.5006 C75.7317,21.5006 76.7907,21.5396 78.0847,21.5876 C79.3777,21.6356 80.3867,23.0236 80.3257,24.6726" id="Fill-176" fill="#C5D5D6" mask="url(#mask-4)"></path>
                <path d="M77.5566,38.4685 C77.5246,38.4685 77.4926,38.4675 77.4606,38.4665 L75.1086,38.3795 C74.6946,38.3645 74.3706,38.0165 74.3866,37.6025 C74.4016,37.1885 74.7516,36.8675 75.1636,36.8805 L77.5156,36.9675 C78.3856,36.9995 79.1566,35.9965 79.2016,34.7785 L79.5766,24.6445 C79.6206,23.4255 78.9256,22.3685 78.0566,22.3365 L75.7046,22.2495 C75.2906,22.2345 74.9676,21.8865 74.9826,21.4725 C74.9976,21.0595 75.3466,20.7325 75.7596,20.7505 L78.1116,20.8375 C79.8226,20.9015 81.1516,22.6335 81.0756,24.6995 L80.7006,34.8335 C80.6256,36.8615 79.2246,38.4685 77.5566,38.4685" id="Fill-177" fill="#354546" mask="url(#mask-4)"></path>
                <polygon id="Fill-178" fill="#859596" mask="url(#mask-4)" points="70.6435 39.863 75.0475 40.026 75.7715 20.426 71.3675 20.262"></polygon>
                <polygon id="Fill-179" fill="#A5B5B6" mask="url(#mask-4)" points="70.9531 31.4773 75.3571 31.6393 75.7721 20.4253 71.3681 20.2623"></polygon>
                <path d="M71.4204,39.1413 L74.3254,39.2483 L74.9944,21.1473 L72.0894,21.0393 L71.4204,39.1413 Z M75.0474,40.7763 L75.0204,40.7763 L70.6154,40.6133 C70.2014,40.5973 69.8784,40.2493 69.8944,39.8353 L70.6184,20.2353 C70.6334,19.8213 70.9814,19.4963 71.3954,19.5123 L75.7994,19.6753 C75.9984,19.6833 76.1864,19.7693 76.3214,19.9143 C76.4564,20.0603 76.5284,20.2533 76.5214,20.4533 L75.7964,40.0533 C75.7894,40.2523 75.7034,40.4403 75.5584,40.5763 C75.4194,40.7043 75.2364,40.7763 75.0474,40.7763 L75.0474,40.7763 Z" id="Fill-180" fill="#354546" mask="url(#mask-4)"></path>
                <path d="M81.9394,30.5115 C81.9214,30.5115 81.9034,30.5105 81.8854,30.5095 L80.0884,30.3795 C79.6754,30.3505 79.3644,29.9905 79.3944,29.5775 C79.4244,29.1645 79.7834,28.8545 80.1964,28.8835 L81.9924,29.0135 C82.4054,29.0425 82.7164,29.4025 82.6874,29.8155 C82.6584,30.2095 82.3294,30.5115 81.9394,30.5115" id="Fill-181" fill="#354546" mask="url(#mask-4)"></path>
                <path d="M34.7387,44.6765 C33.7127,44.6765 31.1037,45.7905 29.9987,47.0515 C29.0597,48.1205 28.9087,49.9065 29.6697,50.9515 C29.9807,51.3785 30.3907,51.6145 30.8547,51.6365 C31.3867,51.6575 31.9437,51.3865 32.3847,50.8845 C32.9167,50.2785 33.8297,48.8975 34.4737,47.5355 C35.3067,45.7745 35.2747,44.9625 35.1417,44.7805 C35.1007,44.7245 34.9717,44.6865 34.7967,44.6785 C34.7787,44.6775 34.7587,44.6765 34.7387,44.6765 M30.9197,53.1385 C30.8757,53.1385 30.8317,53.1365 30.7867,53.1345 C29.8647,53.0935 29.0377,52.6315 28.4577,51.8345 C27.2747,50.2105 27.4557,47.6745 28.8707,46.0625 C29.9177,44.8685 32.9637,43.0995 34.8647,43.1795 C35.6917,43.2175 36.1307,43.5905 36.3537,43.8965 C36.9657,44.7375 36.7947,46.1365 35.8297,48.1765 C35.1207,49.6785 34.1267,51.1735 33.5117,51.8735 C32.8017,52.6825 31.8647,53.1385 30.9197,53.1385" id="Fill-182" fill="#19B5FE" mask="url(#mask-4)"></path>
                <path d="M67.646,42.6345 L67.647,42.6345 L67.646,42.6345 Z M69.168,42.8995 C68.711,42.8995 68.357,42.9745 68.189,43.1515 C68.065,43.2815 68.071,43.5425 68.099,43.7385 C68.271,44.9765 69.613,46.7285 70.365,47.1735 C71.324,47.7405 72.885,47.4295 73.773,46.4935 C74.2,46.0455 74.407,45.5195 74.341,45.0495 C74.289,44.6755 74.068,44.3635 73.703,44.1475 C72.637,43.5175 70.479,42.8995 69.168,42.8995 L69.168,42.8995 Z M71.511,48.9595 C70.83,48.9595 70.167,48.7995 69.601,48.4645 C68.437,47.7765 66.844,45.6065 66.613,43.9455 C66.481,42.9985 66.806,42.4295 67.102,42.1175 C68.728,40.4055 73.416,42.2345 74.466,42.8565 C75.228,43.3065 75.711,44.0125 75.827,44.8425 C75.956,45.7675 75.604,46.7455 74.861,47.5285 C73.979,48.4565 72.716,48.9595 71.511,48.9595 L71.511,48.9595 Z" id="Fill-183" fill="#19B5FE" mask="url(#mask-4)"></path>
                <path d="M28.3706,41.74 C27.9586,41.74 27.6046,41.771 27.3436,41.836 C25.7246,42.233 24.6476,44.084 24.9426,45.962 C25.0926,46.913 25.5846,47.729 26.2926,48.2 C26.8836,48.593 27.5846,48.717 28.2686,48.549 C29.1656,48.329 30.8836,47.582 32.2996,46.634 C33.7706,45.648 34.5876,44.674 34.4866,44.027 C34.4266,43.643 34.0246,43.304 33.6986,43.087 C32.3706,42.204 29.9466,41.74 28.3706,41.74 M27.6656,50.123 C26.8896,50.123 26.1306,49.894 25.4616,49.449 C24.4046,48.746 23.6756,47.559 23.4606,46.194 C23.0486,43.566 24.6296,40.958 26.9856,40.379 C28.7446,39.946 32.5716,40.535 34.5296,41.839 C35.3686,42.396 35.8516,43.054 35.9686,43.795 C36.4336,46.761 30.5576,49.531 28.6266,50.006 C28.3076,50.084 27.9846,50.123 27.6656,50.123" id="Fill-184" fill="#719911" mask="url(#mask-4)"></path>
                <path d="M70.292,47.3103 C70.14,51.4323 66.64,54.7913 62.515,54.7743 L40.896,54.6843 C36.771,54.6673 33.659,51.2893 33.979,47.1753 L36.367,13.3303 C36.688,9.2163 40.313,6.1363 44.424,6.4843 L64.192,8.1543 C68.303,8.5013 71.541,12.1593 71.389,16.2813 L70.292,47.3103 Z" id="Fill-185" fill="#A5B5B6" mask="url(#mask-4)"></path>
                <path d="M66.8672,41.0163 C66.7552,44.0473 63.9512,46.5093 60.6372,46.4873 L43.2662,46.3663 C39.9522,46.3433 37.4432,43.8503 37.6902,40.8263 L39.5272,16.9303 C39.7742,13.9073 42.6802,11.6503 45.9832,11.9153 L61.8702,13.1943 C65.1742,13.4593 67.7852,16.1583 67.6732,19.1893 L66.8672,41.0163 Z" id="Fill-186" fill="#C5D5D6" mask="url(#mask-4)"></path>
                <path d="M64.0888,51.4353 L40.5958,51.2763 C37.6798,51.2563 35.2268,49.8153 33.9588,47.6793 C33.9188,51.5603 36.9408,54.6673 40.8958,54.6843 L62.5148,54.7743 C65.9748,54.7893 68.9928,52.4283 69.9668,49.2353 C68.4358,50.6053 66.3508,51.4513 64.0888,51.4353" id="Fill-187" fill="#859596" mask="url(#mask-4)"></path>
                <path d="M64.1499,52.1853 L64.0839,52.1853 L40.5899,52.0263 C37.4949,52.0053 34.7749,50.5233 33.3139,48.0623 C33.1029,47.7063 33.2199,47.2463 33.5759,47.0343 C33.9329,46.8233 34.3929,46.9403 34.6039,47.2963 C35.7939,49.3013 38.0359,50.5083 40.6009,50.5263 L64.0939,50.6853 C66.0959,50.6963 68.0039,49.9853 69.4669,48.6763 C69.7759,48.4003 70.2499,48.4263 70.5259,48.7353 C70.8019,49.0433 70.7759,49.5183 70.4669,49.7943 C68.7419,51.3373 66.5009,52.1853 64.1499,52.1853" id="Fill-188" fill="#354546" mask="url(#mask-4)"></path>
                <path d="M70.292,47.3103 L70.293,47.3103 L70.292,47.3103 Z M43.788,7.2063 C42.204,7.2063 40.686,7.7643 39.46,8.8053 C38.087,9.9723 37.254,11.5993 37.115,13.3873 L34.728,47.2293 C34.588,49.0133 35.155,50.6903 36.322,51.9573 C37.489,53.2253 39.115,53.9263 40.899,53.9343 L62.519,54.0243 L62.547,54.0243 C66.27,54.0243 69.405,51.0063 69.543,47.2833 L70.639,16.2543 C70.777,12.5143 67.857,9.2163 64.129,8.9023 L44.36,7.2313 C44.169,7.2143 43.978,7.2063 43.788,7.2063 L43.788,7.2063 Z M62.547,55.5243 L62.512,55.5243 L40.893,55.4343 C38.687,55.4253 36.672,54.5513 35.219,52.9743 C33.766,51.3963 33.06,49.3173 33.231,47.1183 L35.619,13.2773 C35.79,11.0813 36.809,9.0893 38.489,7.6633 C40.168,6.2363 42.299,5.5513 44.487,5.7363 L64.255,7.4073 C68.769,7.7893 72.306,11.7823 72.138,16.3083 L71.042,47.3363 L71.042,47.3383 C70.875,51.8593 67.067,55.5243 62.547,55.5243 L62.547,55.5243 Z" id="Fill-189" fill="#354546" mask="url(#mask-4)"></path>
                <path d="M53.7656,16.2966 C49.6576,16.2966 44.7616,15.0346 44.7616,9.0246 C44.7616,8.0816 44.8836,7.4546 45.1226,6.5626 C45.2306,6.1616 45.6426,5.9256 46.0416,6.0316 C46.4426,6.1406 46.6796,6.5516 46.5716,6.9516 C46.3566,7.7506 46.2616,8.2386 46.2616,9.0246 C46.2616,10.4516 46.2616,14.7966 53.7656,14.7966 C61.3026,14.7966 61.3026,10.4516 61.3026,9.0246 C61.3026,8.7066 61.2856,8.3866 61.2536,8.0716 C61.2106,7.6596 61.5106,7.2916 61.9226,7.2486 C62.3346,7.2066 62.7036,7.5066 62.7456,7.9186 C62.7836,8.2826 62.8026,8.6546 62.8026,9.0246 C62.8026,12.3416 61.2346,16.2966 53.7656,16.2966" id="Fill-190" fill="#354546" mask="url(#mask-4)"></path>
                <path d="M48.9829,25.9431 C48.8179,30.4141 45.0599,33.9041 40.5889,33.7391 C36.1189,33.5731 32.6289,29.8151 32.7939,25.3451 C32.9599,20.8751 36.7169,17.3841 41.1879,17.5491 C45.6579,17.7141 49.1479,21.4721 48.9829,25.9431" id="Fill-191" fill="#C5D5D6" mask="url(#mask-4)"></path>
                <path d="M40.8852,18.2937 C36.9562,18.2937 33.6902,21.4147 33.5432,25.3727 C33.4712,27.3347 34.1672,29.2077 35.5032,30.6467 C36.8392,32.0847 38.6552,32.9167 40.6172,32.9887 C42.5782,33.0637 44.4512,32.3657 45.8902,31.0297 C47.3292,29.6937 48.1612,27.8777 48.2332,25.9157 C48.3832,21.8647 45.2102,18.4487 41.1602,18.2987 C41.0682,18.2957 40.9762,18.2937 40.8852,18.2937 M40.8972,34.4937 C40.7852,34.4937 40.6742,34.4917 40.5622,34.4877 C38.1992,34.4007 36.0122,33.3987 34.4042,31.6667 C32.7952,29.9347 31.9572,27.6797 32.0442,25.3167 C32.2202,20.5517 36.1542,16.7937 40.8842,16.7937 C40.9942,16.7937 41.1042,16.7957 41.2152,16.7997 C46.0922,16.9807 49.9122,21.0947 49.7322,25.9707 L48.9832,25.9427 L49.7322,25.9707 C49.6452,28.3327 48.6432,30.5207 46.9112,32.1287 C45.2612,33.6607 43.1362,34.4937 40.8972,34.4937" id="Fill-192" fill="#354546" mask="url(#mask-4)"></path>
                <path d="M46.1079,25.8367 C46.0019,28.7197 43.5779,30.9697 40.6959,30.8627 C37.8139,30.7567 35.5629,28.3337 35.6699,25.4507 C35.7759,22.5687 38.1989,20.3177 41.0819,20.4247 C43.9639,20.5307 46.2139,22.9547 46.1079,25.8367" id="Fill-193" fill="#9ABD45" mask="url(#mask-4)"></path>
                <path d="M44.1889,24.2351 C44.1229,26.0271 42.6169,27.4251 40.8249,27.3591 C39.0339,27.2941 37.6349,25.7871 37.7009,23.9961 C37.7669,22.2041 39.2729,20.8041 41.0649,20.8711 C42.8559,20.9371 44.2549,22.4431 44.1889,24.2351" id="Fill-194" fill="#CEEC87" mask="url(#mask-4)"></path>
                <path d="M46.1079,25.8367 L46.1089,25.8367 L46.1079,25.8367 Z M40.8859,21.1717 C38.4959,21.1717 36.5079,23.0697 36.4189,25.4797 C36.3749,26.6727 36.7979,27.8127 37.6109,28.6887 C38.4239,29.5637 39.5289,30.0697 40.7239,30.1137 C43.1899,30.2127 45.2669,28.2747 45.3579,25.8097 C45.4489,23.3447 43.5179,21.2657 41.0539,21.1747 C40.9979,21.1727 40.9419,21.1717 40.8859,21.1717 L40.8859,21.1717 Z M40.8919,31.6167 C40.8169,31.6167 40.7429,31.6147 40.6679,31.6127 C37.3769,31.4907 34.7979,28.7147 34.9199,25.4237 C35.0389,22.2067 37.6929,19.6717 40.8859,19.6717 C40.9599,19.6717 41.0339,19.6727 41.1089,19.6757 C44.3999,19.7967 46.9789,22.5727 46.8579,25.8647 C46.7379,29.0807 44.0839,31.6167 40.8919,31.6167 L40.8919,31.6167 Z" id="Fill-195" fill="#354546" mask="url(#mask-4)"></path>
                <path d="M42.2343,22.1697 C42.5663,22.9117 41.5283,23.5457 40.1713,24.1527 C38.8133,24.7607 37.6493,25.1117 37.3173,24.3697 C36.9853,23.6287 37.8173,22.5347 39.1743,21.9267 C40.5323,21.3187 41.9023,21.4277 42.2343,22.1697" id="Fill-196" fill="#FFFFFF" mask="url(#mask-4)"></path>
                <path d="M41.2973,29.3503 C41.2113,29.1583 41.4803,28.9933 41.8333,28.8353 C42.1853,28.6773 42.4873,28.5863 42.5733,28.7793 C42.6593,28.9713 42.4433,29.2553 42.0913,29.4123 C41.7393,29.5713 41.3833,29.5423 41.2973,29.3503" id="Fill-197" fill="#FFFFFF" mask="url(#mask-4)"></path>
                <path d="M45.6919,25.7829 C45.6669,26.4639 45.0939,26.9949 44.4139,26.9699 C43.7339,26.9439 43.2019,26.3719 43.2279,25.6919 C43.2529,25.0119 43.8249,24.4799 44.5049,24.5049 C45.1859,24.5299 45.7169,25.1019 45.6919,25.7829" id="Fill-198" fill="#354546" mask="url(#mask-4)"></path>
                <path d="M71.8213,27.2908 C71.6813,31.0788 68.4973,32.3868 64.7093,32.2458 C60.9203,32.1058 57.9633,30.5718 58.1033,26.7838 C58.2423,22.9958 61.4273,20.0378 65.2163,20.1778 C69.0043,20.3178 71.9613,23.5028 71.8213,27.2908" id="Fill-199" fill="#C5D5D6" mask="url(#mask-4)"></path>
                <path d="M64.9565,20.9236 C63.4095,20.9236 61.9415,21.4986 60.8015,22.5576 C59.6045,23.6686 58.9125,25.1796 58.8525,26.8116 C58.7165,30.4986 61.9775,31.3956 64.7365,31.4966 C69.8355,31.6896 70.9965,29.2986 71.0715,27.2626 C71.1325,25.6306 70.5535,24.0726 69.4415,22.8766 C68.3305,21.6796 66.8195,20.9876 65.1875,20.9276 C65.1105,20.9246 65.0335,20.9236 64.9565,20.9236 M65.2595,33.0066 C65.0695,33.0066 64.8765,33.0026 64.6815,32.9956 C59.8845,32.8186 57.2135,30.5446 57.3535,26.7556 C57.4285,24.7236 58.2905,22.8426 59.7805,21.4576 C61.2705,20.0736 63.2105,19.3516 65.2435,19.4286 C67.2755,19.5036 69.1575,20.3656 70.5405,21.8556 C71.9255,23.3456 72.6455,25.2856 72.5705,27.3186 C72.4365,30.9536 69.7815,33.0066 65.2595,33.0066" id="Fill-200" fill="#354546" mask="url(#mask-4)"></path>
                <path d="M69.3847,27.2009 C69.2947,29.6429 67.2407,29.8999 64.7987,29.8099 C62.3557,29.7199 60.4487,29.3159 60.5397,26.8739 C60.6297,24.4309 62.6827,22.5239 65.1257,22.6139 C67.5687,22.7049 69.4747,24.7579 69.3847,27.2009" id="Fill-201" fill="#19B5FE" mask="url(#mask-4)"></path>
                <path d="M67.7114,25.6677 C67.6554,27.1867 66.4804,27.7497 64.9624,27.6937 C63.4434,27.6377 62.1564,26.9827 62.2124,25.4647 C62.2694,23.9457 63.5454,22.7617 65.0644,22.8167 C66.5824,22.8727 67.7674,24.1487 67.7114,25.6677" id="Fill-202" fill="#39D5FF" mask="url(#mask-4)"></path>
                <path d="M69.3847,27.2009 L69.3857,27.2009 L69.3847,27.2009 Z M64.9587,23.3609 C64.0287,23.3609 63.1457,23.7079 62.4607,24.3439 C61.7407,25.0119 61.3247,25.9209 61.2887,26.9009 C61.2497,27.9699 61.6647,28.3419 62.0767,28.5639 C62.7647,28.9369 63.8527,29.0239 64.8267,29.0599 C67.9647,29.1779 68.5867,28.4859 68.6347,27.1729 C68.7107,25.1469 67.1227,23.4379 65.0977,23.3639 C65.0517,23.3619 65.0047,23.3609 64.9587,23.3609 L64.9587,23.3609 Z M65.6367,30.5799 C65.3197,30.5799 65.0247,30.5689 64.7707,30.5589 C63.6247,30.5169 62.3227,30.4039 61.3627,29.8839 C60.2667,29.2899 59.7377,28.2679 59.7897,26.8469 C59.8417,25.4649 60.4267,24.1849 61.4397,23.2449 C62.4527,22.3039 63.7707,21.8149 65.1537,21.8649 C68.0057,21.9709 70.2397,24.3759 70.1347,27.2279 C70.0237,30.2259 67.4487,30.5799 65.6367,30.5799 L65.6367,30.5799 Z" id="Fill-203" fill="#354546" mask="url(#mask-4)"></path>
                <path d="M66.1025,24.0925 C66.3835,24.7215 65.5045,25.2585 64.3545,25.7735 C63.2035,26.2885 62.2175,26.5865 61.9355,25.9575 C61.6545,25.3285 62.3595,24.4025 63.5095,23.8875 C64.6605,23.3715 65.8215,23.4645 66.1025,24.0925" id="Fill-204" fill="#FFFFFF" mask="url(#mask-4)"></path>
                <path d="M66.4199,28.5876 C66.3469,28.4246 66.5749,28.2846 66.8739,28.1506 C67.1719,28.0176 67.4279,27.9406 67.5009,28.1036 C67.5739,28.2666 67.3909,28.5076 67.0929,28.6406 C66.7939,28.7746 66.4929,28.7506 66.4199,28.5876" id="Fill-205" fill="#FFFFFF" mask="url(#mask-4)"></path>
                <path d="M63.0454,27.0046 C63.0244,27.5816 62.5394,28.0316 61.9624,28.0106 C61.3854,27.9886 60.9354,27.5046 60.9574,26.9276 C60.9784,26.3516 61.4624,25.9006 62.0394,25.9226 C62.6164,25.9436 63.0664,26.4286 63.0454,27.0046" id="Fill-206" fill="#354546" mask="url(#mask-4)"></path>
                <path d="M41.0244,40.6384 L63.7704,35.5564 C63.7704,35.5564 65.0484,42.5634 59.5174,44.6074 C49.7754,48.2074 41.0244,40.6384 41.0244,40.6384" id="Fill-207" fill="#FFFFFF" mask="url(#mask-4)"></path>
                <path d="M41.0244,40.6384 L41.0254,40.6384 L41.0244,40.6384 Z M42.7774,41.0154 C43.7304,41.6684 45.1754,42.5524 46.9524,43.3004 C51.2754,45.1204 55.4154,45.3244 59.2564,43.9044 C61.2744,43.1594 62.5244,41.5824 62.9724,39.2194 C63.1774,38.1434 63.1654,37.1324 63.1184,36.4704 L42.7774,41.0154 Z M54.0674,46.3214 C51.5414,46.3214 48.9304,45.7674 46.3254,44.6634 C42.8504,43.1924 40.6264,41.2854 40.5334,41.2054 C40.3194,41.0204 40.2284,40.7304 40.2964,40.4544 C40.3664,40.1804 40.5844,39.9684 40.8604,39.9074 L63.6064,34.8244 C63.8054,34.7804 64.0144,34.8184 64.1844,34.9314 C64.3544,35.0434 64.4714,35.2214 64.5074,35.4214 C64.5224,35.4984 64.8474,37.3334 64.4554,39.4514 C63.9184,42.3524 62.3004,44.3784 59.7764,45.3114 C57.9534,45.9854 56.0354,46.3214 54.0674,46.3214 L54.0674,46.3214 Z" id="Fill-208" fill="#354546" mask="url(#mask-4)"></path>
                <path d="M47.4492,45.0564 C47.0742,45.0564 46.7502,44.7754 46.7052,44.3934 L46.1202,39.4204 C46.0722,39.0094 46.3662,38.6364 46.7782,38.5884 C47.1882,38.5404 47.5622,38.8344 47.6102,39.2454 L48.1952,44.2184 C48.2432,44.6294 47.9492,45.0024 47.5372,45.0504 C47.5082,45.0544 47.4782,45.0564 47.4492,45.0564" id="Fill-209" fill="#354546" mask="url(#mask-4)"></path>
                <path d="M52.8994,46.0652 C52.4974,46.0652 52.1644,45.7472 52.1504,45.3412 L51.8954,38.0682 C51.8804,37.6552 52.2044,37.3072 52.6184,37.2932 C53.0324,37.2762 53.3794,37.6022 53.3944,38.0152 L53.6494,45.2892 C53.6644,45.7032 53.3404,46.0502 52.9264,46.0652 L52.8994,46.0652 Z" id="Fill-210" fill="#354546" mask="url(#mask-4)"></path>
                <path d="M58.4668,45.3572 C58.0558,45.3572 57.7218,45.0272 57.7168,44.6162 L57.6338,36.7682 C57.6288,36.3532 57.9608,36.0142 58.3748,36.0092 C58.7858,36.0062 59.1288,36.3372 59.1338,36.7522 L59.2168,44.5992 C59.2208,45.0132 58.8888,45.3532 58.4748,45.3572 L58.4668,45.3572 Z" id="Fill-211" fill="#354546" mask="url(#mask-4)"></path>
                <path d="M72.5537,73.6609 L73.1877,73.6719 L72.6927,83.5739 L72.3407,83.5679 C70.6907,83.5399 69.3637,82.1669 69.3917,80.5169 L69.5037,76.6089 C69.5317,74.9599 70.9047,73.6329 72.5537,73.6609" id="Fill-212" fill="#A5B5B6" mask="url(#mask-4)"></path>
                <path d="M72.6933,84.324 L72.6803,84.324 L72.3273,84.317 C70.2603,84.283 68.6063,82.572 68.6413,80.505 L68.7543,76.588 C68.7883,74.529 70.5013,72.871 72.5663,72.911 L73.2003,72.922 C73.6143,72.928 73.9443,73.27 73.9373,73.684 C73.9303,74.095 73.5953,74.422 73.1873,74.422 L73.1743,74.422 L72.5413,74.411 C72.5283,74.411 72.5153,74.41 72.5023,74.41 C71.2793,74.41 70.2743,75.394 70.2533,76.623 L70.1413,80.539 C70.1203,81.77 71.1123,82.797 72.3533,82.818 L72.7063,82.824 C73.1203,82.831 73.4503,83.173 73.4433,83.587 C73.4363,83.997 73.1013,84.324 72.6933,84.324" id="Fill-213" fill="#354546" mask="url(#mask-4)"></path>
                <path d="M87.2319,90.9792 C86.8179,90.9792 86.4819,90.6442 86.4819,90.2292 L86.4819,85.7682 C86.4819,83.9262 84.6939,82.4292 82.4959,82.4292 L74.0659,82.4292 C71.8679,82.4292 70.0799,83.9262 70.0799,85.7682 L70.0799,90.2292 C70.0799,90.6442 69.7439,90.9792 69.3299,90.9792 C68.9159,90.9792 68.5799,90.6442 68.5799,90.2292 L68.5799,85.7682 C68.5799,83.1002 71.0409,80.9292 74.0659,80.9292 L82.4959,80.9292 C85.5209,80.9292 87.9819,83.1002 87.9819,85.7682 L87.9819,90.2292 C87.9819,90.6442 87.6469,90.9792 87.2319,90.9792" id="Fill-214" fill="#494949" mask="url(#mask-4)"></path>
                <path d="M90.2256,89.8562 C93.0886,89.8562 95.4306,91.7002 95.4306,93.9532 L95.4306,110.1032 C95.4306,112.3562 93.0886,114.2002 90.2256,114.2002 L64.5016,114.2002 L64.5016,89.8562 L90.2256,89.8562 Z" id="Fill-215" fill="#DBDBDB" mask="url(#mask-4)"></path>
                <path d="M90.6919,109.8259 C91.5579,109.8259 92.3299,109.5149 92.8279,109.0349 L92.8279,110.2469 C92.8279,111.3369 91.6609,112.2229 90.2259,112.2229 L67.1039,112.2229 L67.1039,109.8259 L90.6919,109.8259 Z" id="Fill-216" fill="#C8C8C8" mask="url(#mask-4)"></path>
                <path d="M90.6919,94.7439 C91.5579,94.7439 92.3299,95.0539 92.8279,95.5339 L92.8279,94.3219 C92.8279,93.2319 91.6609,92.3459 90.2259,92.3459 L67.1039,92.3459 L67.1039,94.7439 L90.6919,94.7439 Z" id="Fill-217" fill="#E6E6E6" mask="url(#mask-4)"></path>
                <path d="M65.2509,113.4499 L90.2259,113.4499 C92.6399,113.4499 94.6809,111.9169 94.6809,110.1029 L94.6809,93.9529 C94.6809,92.1379 92.6399,90.6059 90.2259,90.6059 L65.2509,90.6059 L65.2509,113.4499 Z M90.2259,114.9499 L64.5009,114.9499 C64.0869,114.9499 63.7509,114.6139 63.7509,114.1999 L63.7509,89.8559 C63.7509,89.4419 64.0869,89.1059 64.5009,89.1059 L90.2259,89.1059 C93.5089,89.1059 96.1809,91.2799 96.1809,93.9529 L96.1809,110.1029 C96.1809,112.7749 93.5089,114.9499 90.2259,114.9499 L90.2259,114.9499 Z" id="Fill-218" fill="#494949" mask="url(#mask-4)"></path>
                <path d="M59.706,110.1033 C59.706,112.3563 61.926,114.2003 64.639,114.2003 C67.352,114.2003 69.573,112.3563 69.573,110.1033 L69.573,93.9533 C69.573,91.7003 67.352,89.8563 64.639,89.8563 C61.926,89.8563 59.706,91.7003 59.706,93.9533 L59.706,110.1033 Z" id="Fill-219" fill="#E6E6E6" mask="url(#mask-4)"></path>
                <path d="M64.6391,90.6062 C62.3321,90.6062 60.4561,92.1072 60.4561,93.9532 L60.4561,110.1032 C60.4561,111.9482 62.3321,113.4502 64.6391,113.4502 C66.9461,113.4502 68.8231,111.9482 68.8231,110.1032 L68.8231,93.9532 C68.8231,92.1072 66.9461,90.6062 64.6391,90.6062 M64.6391,114.9502 C61.5051,114.9502 58.9561,112.7752 58.9561,110.1032 L58.9561,93.9532 C58.9561,91.2802 61.5051,89.1062 64.6391,89.1062 C67.7731,89.1062 70.3231,91.2802 70.3231,93.9532 L70.3231,110.1032 C70.3231,112.7752 67.7731,114.9502 64.6391,114.9502" id="Fill-220" fill="#494949" mask="url(#mask-4)"></path>
                <path d="M97.2011,99.7263 L58.3191,99.7263 C57.9051,99.7263 57.5691,99.3903 57.5691,98.9763 C57.5691,98.5613 57.9051,98.2263 58.3191,98.2263 L97.2011,98.2263 C97.6151,98.2263 97.9511,98.5613 97.9511,98.9763 C97.9511,99.3903 97.6151,99.7263 97.2011,99.7263" id="Fill-221" fill="#494949" mask="url(#mask-4)"></path>
                <path d="M97.2011,103.822 L58.3191,103.822 C57.9051,103.822 57.5691,103.486 57.5691,103.072 C57.5691,102.658 57.9051,102.322 58.3191,102.322 L97.2011,102.322 C97.6151,102.322 97.9511,102.658 97.9511,103.072 C97.9511,103.486 97.6151,103.822 97.2011,103.822" id="Fill-222" fill="#494949" mask="url(#mask-4)"></path>
                <path d="M97.2011,107.9187 L58.3191,107.9187 C57.9051,107.9187 57.5691,107.5827 57.5691,107.1687 C57.5691,106.7547 57.9051,106.4187 58.3191,106.4187 L97.2011,106.4187 C97.6151,106.4187 97.9511,106.7547 97.9511,107.1687 C97.9511,107.5827 97.6151,107.9187 97.2011,107.9187" id="Fill-223" fill="#494949" mask="url(#mask-4)"></path>
                <path d="M73.1875,73.6716 L75.9065,73.7176 L76.9965,73.7356 L82.4285,73.8276 C84.0775,73.8566 85.4045,75.2286 85.3765,76.8786 L85.1735,84.7086 C85.1455,86.3586 83.7735,87.6856 82.1235,87.6566 L75.6015,87.5466 C73.9525,87.5196 72.6255,86.1466 72.6525,84.4966 L72.7605,82.0746 L73.1875,73.6716 Z" id="Fill-224" fill="#A5B5B6" mask="url(#mask-4)"></path>
                <path d="M75.6015,87.5466 C73.9525,87.5196 72.6245,86.1466 72.6525,84.4966 L72.7325,83.6836 L85.2525,83.9436 L85.1735,84.7086 C85.1455,86.3586 83.7735,87.6856 82.1235,87.6566 L75.6015,87.5466 Z" id="Fill-225" fill="#859596" mask="url(#mask-4)"></path>
                <path d="M82.1758,88.4079 C82.1538,88.4079 82.1328,88.4079 82.1108,88.4069 L75.5888,88.2969 C73.5218,88.2619 71.8678,86.5519 71.9038,84.4839 L71.9038,84.4639 L72.0108,82.0419 C72.0288,81.6289 72.3788,81.3059 72.7928,81.3259 C73.2068,81.3449 73.5278,81.6939 73.5088,82.1079 L73.4028,84.5179 C73.3868,85.7549 74.3768,86.7759 75.6138,86.7969 L82.1358,86.9069 C82.7318,86.9149 83.3018,86.6919 83.7358,86.2729 C84.1698,85.8529 84.4138,85.2939 84.4238,84.6959 L84.6268,76.8589 C84.6478,75.6249 83.6558,74.5989 82.4158,74.5779 L73.1748,74.4219 C72.7598,74.4149 72.4308,74.0729 72.4378,73.6589 C72.4448,73.2449 72.7898,72.9159 73.1998,72.9219 L82.4408,73.0779 C84.5088,73.1129 86.1618,74.8239 86.1268,76.8909 L85.9238,84.7279 C85.9068,85.7199 85.4998,86.6539 84.7788,87.3509 C84.0718,88.0339 83.1498,88.4079 82.1758,88.4079" id="Fill-226" fill="#354546" mask="url(#mask-4)"></path>
                <path d="M85.2539,84.6462 C85.2499,84.6462 85.2459,84.6462 85.2409,84.6452 L72.7199,84.4332 C72.3059,84.4262 71.9759,84.0852 71.9829,83.6702 C71.9899,83.2562 72.3279,82.9222 72.7459,82.9342 L85.2669,83.1462 C85.6809,83.1532 86.0109,83.4952 86.0039,83.9092 C85.9969,84.3182 85.6619,84.6462 85.2539,84.6462" id="Fill-227" fill="#354546" mask="url(#mask-4)"></path>
                <path d="M77.3525,88.3269 C76.9415,88.3269 76.6065,87.9959 76.6025,87.5839 L76.5665,83.7679 C76.5635,83.3539 76.8955,83.0149 77.3105,83.0119 L77.3175,83.0119 C77.7275,83.0119 78.0625,83.3429 78.0665,83.7549 L78.1025,87.5699 C78.1065,87.9839 77.7745,88.3229 77.3595,88.3269 L77.3525,88.3269 Z" id="Fill-228" fill="#354546" mask="url(#mask-4)"></path>
                <path d="M81.6743,88.4001 C81.6553,88.4001 81.6373,88.3991 81.6183,88.3971 C81.2053,88.3671 80.8953,88.0071 80.9253,87.5941 L81.2063,83.7851 C81.2373,83.3721 81.5963,83.0591 82.0093,83.0921 C82.4223,83.1231 82.7333,83.4821 82.7023,83.8951 L82.4213,87.7051 C82.3923,88.0991 82.0633,88.4001 81.6743,88.4001" id="Fill-229" fill="#354546" mask="url(#mask-4)"></path>
                <path d="M81.9101,78.5886 L81.8971,78.5886 L74.0301,78.4546 C73.8301,78.4516 73.6411,78.3696 73.5031,78.2266 C73.3651,78.0836 73.2891,77.8916 73.2921,77.6926 L73.3601,73.6746 C73.3681,73.2646 73.7021,72.9376 74.1101,72.9376 L74.1231,72.9376 C74.5371,72.9436 74.8671,73.2856 74.8601,73.6996 L74.8051,76.9676 L81.1731,77.0756 L81.2281,73.8076 C81.2351,73.3986 81.5691,73.0696 81.9781,73.0696 L81.9911,73.0696 C82.4051,73.0776 82.7351,73.4186 82.7281,73.8326 L82.6601,77.8516 C82.6571,78.0496 82.5741,78.2386 82.4311,78.3776 C82.2911,78.5136 82.1041,78.5886 81.9101,78.5886" id="Fill-230" fill="#354546" mask="url(#mask-4)"></path>
                <path d="M72.7602,82.8249 L72.7462,82.8249 C72.3312,82.8169 72.0022,82.4749 72.0102,82.0609 L72.0522,79.8459 C72.0592,79.4309 72.4062,79.0969 72.8162,79.1089 C73.2302,79.1169 73.5592,79.4599 73.5522,79.8739 L73.5102,82.0899 C73.5022,82.4989 73.1682,82.8249 72.7602,82.8249" id="Fill-231" fill="#354546" mask="url(#mask-4)"></path>
            </g>
        </g>
    </g>
</svg>