<?xml version="1.0" encoding="UTF-8"?>
<svg width="113px" height="122px" viewBox="0 0 113 122" version="1.1" xmlns="http://www.w3.org/2000/svg" xmlns:xlink="http://www.w3.org/1999/xlink">
    <!-- Generator: Sketch 42 (36781) - http://www.bohemiancoding.com/sketch -->
    <title>11</title>
    <desc>Created with Sketch.</desc>
    <defs>
        <polygon id="path-1" points="64.1427 8 0.8757 8 0.8757 0.3776 64.1427 0.3776 64.1427 8"></polygon>
        <polygon id="path-3" points="0 122.041 112.759 122.041 112.759 0 0 0"></polygon>
    </defs>
    <g id="Page-1" stroke="none" stroke-width="1" fill="none" fill-rule="evenodd">
        <g id="1024" transform="translate(-94.000000, -246.000000)">
            <g id="11" transform="translate(94.000000, 246.000000)">
                <g id="Group-3" transform="translate(24.000000, 114.041000)">
                    <mask id="mask-2" fill="white">
                        <use xlink:href="#path-1"></use>
                    </mask>
                    <g id="Clip-2"></g>
                    <path d="M64.1427,4.1886 C64.1427,6.2936 49.9807,8.0006 32.5097,8.0006 C15.0387,8.0006 0.8757,6.2936 0.8757,4.1886 C0.8757,2.0846 15.0387,0.3776 32.5097,0.3776 C49.9807,0.3776 64.1427,2.0846 64.1427,4.1886" id="Fill-1" fill="#CCCCCC" mask="url(#mask-2)"></path>
                </g>
                <mask id="mask-4" fill="white">
                    <use xlink:href="#path-3"></use>
                </mask>
                <g id="Clip-5"></g>
                <polygon id="Fill-4" fill="#758586" mask="url(#mask-4)" points="48.127 87.555 64.246 87.555 64.246 75.949 48.127 75.949"></polygon>
                <path d="M48.877,86.805 L63.496,86.805 L63.496,76.699 L48.877,76.699 L48.877,86.805 Z M64.246,88.305 L48.127,88.305 C47.713,88.305 47.377,87.969 47.377,87.555 L47.377,75.948 C47.377,75.534 47.713,75.198 48.127,75.198 L64.246,75.198 C64.66,75.198 64.996,75.534 64.996,75.948 L64.996,87.555 C64.996,87.969 64.66,88.305 64.246,88.305 L64.246,88.305 Z" id="Fill-6" fill="#354546" mask="url(#mask-4)"></path>
                <polygon id="Fill-7" fill="#758586" mask="url(#mask-4)" points="51.787 61.398 61.13 61.398 61.13 52.895 51.787 52.895"></polygon>
                <path d="M52.537,60.649 L60.38,60.649 L60.38,53.645 L52.537,53.645 L52.537,60.649 Z M61.13,62.149 L51.787,62.149 C51.373,62.149 51.037,61.813 51.037,61.399 L51.037,52.895 C51.037,52.481 51.373,52.145 51.787,52.145 L61.13,52.145 C61.544,52.145 61.88,52.481 61.88,52.895 L61.88,61.399 C61.88,61.813 61.544,62.149 61.13,62.149 L61.13,62.149 Z" id="Fill-8" fill="#354546" mask="url(#mask-4)"></path>
                <path d="M61.1309,58.3985 C61.1169,58.3985 61.1039,58.3975 61.0899,58.3975 L51.7469,57.8955 C51.3339,57.8735 51.0169,57.5195 51.0379,57.1065 C51.0609,56.6925 51.4139,56.3775 51.8269,56.3975 L61.1699,56.8995 C61.5839,56.9205 61.9019,57.2745 61.8789,57.6885 C61.8579,58.0875 61.5269,58.3985 61.1309,58.3985" id="Fill-9" fill="#354546" mask="url(#mask-4)"></path>
                <path d="M18.3565,67.5177 C18.1115,66.7527 17.8735,65.9877 17.6395,65.2187 C17.4055,64.4467 17.1805,63.6897 16.9565,62.8907 L21.3555,61.6677 C21.5595,62.3927 21.7845,63.1517 22.0095,63.8927 C22.2355,64.6387 22.4675,65.3827 22.7065,66.1237 L18.3565,67.5177 Z" id="Fill-10" fill="#F9BF3B" mask="url(#mask-4)"></path>
                <path d="M21.9913,66.3536 C21.7553,65.6176 21.5193,64.8626 21.2923,64.1106 C21.0363,63.2696 20.8213,62.5376 20.6343,61.8726 L22.0783,61.4646 C22.2623,62.1216 22.4743,62.8436 22.7263,63.6746 C22.9533,64.4186 23.1853,65.1666 23.4203,65.8956 L21.9913,66.3536 Z" id="Fill-11" fill="#F1892D" mask="url(#mask-4)"></path>
                <path d="M17.6427,67.7472 C17.3977,66.9832 17.1557,66.2062 16.9217,65.4362 C16.6477,64.5322 16.4357,63.8092 16.2347,63.0942 L17.6777,62.6872 C17.8767,63.3932 18.0857,64.1062 18.3577,65.0012 C18.5877,65.7642 18.8287,66.5322 19.0717,67.2882 L17.6427,67.7472 Z" id="Fill-12" fill="#F1892D" mask="url(#mask-4)"></path>
                <polygon id="Fill-13" fill="#F1892D" mask="url(#mask-4)" points="17.8575 65.9366 17.4215 64.5006 21.7915 63.1746 22.2275 64.6106"></polygon>
                <path d="M19.9034,72.086 C19.3614,70.568 18.8454,69.047 18.3564,67.518 L22.7064,66.124 C23.1794,67.609 23.6794,69.084 24.2024,70.545 L19.9034,72.086 Z" id="Fill-14" fill="#F9BF3B" mask="url(#mask-4)"></path>
                <path d="M23.4962,70.797 C22.9662,69.314 22.4602,67.818 21.9912,66.353 L23.4202,65.897 C23.8832,67.346 24.3842,68.825 24.9082,70.293 L23.4962,70.797 Z" id="Fill-15" fill="#F1892D" mask="url(#mask-4)"></path>
                <path d="M19.1973,72.339 C18.6493,70.806 18.1263,69.261 17.6423,67.746 L19.0713,67.289 C19.5503,68.788 20.0673,70.317 20.6093,71.834 L19.1973,72.339 Z" id="Fill-16" fill="#F1892D" mask="url(#mask-4)"></path>
                <polygon id="Fill-17" fill="#F1892D" mask="url(#mask-4)" points="19.3507 70.5167 18.8707 69.0957 23.1957 67.6327 23.6757 69.0537"></polygon>
                <path d="M21.6485,76.6212 C21.0235,75.1152 20.4475,73.6032 19.9035,72.0862 L24.2025,70.5452 C24.7255,72.0062 25.2775,73.4502 25.8655,74.8672 L21.6485,76.6212 Z" id="Fill-18" fill="#F9BF3B" mask="url(#mask-4)"></path>
                <path d="M25.172,75.1544 C24.607,73.7914 24.058,72.3664 23.496,70.7984 L24.908,70.2924 C25.462,71.8374 26.001,73.2394 26.558,74.5794 L25.172,75.1544 Z" id="Fill-19" fill="#F1892D" mask="url(#mask-4)"></path>
                <path d="M20.9561,76.9083 C20.3601,75.4733 19.7851,73.9793 19.1971,72.3393 L20.6091,71.8333 C21.1881,73.4493 21.7561,74.9223 22.3421,76.3343 L20.9561,76.9083 Z" id="Fill-20" fill="#F1892D" mask="url(#mask-4)"></path>
                <polygon id="Fill-21" fill="#F1892D" mask="url(#mask-4)" points="21.0147 75.0587 20.4777 73.6587 24.7407 72.0227 25.2787 73.4227"></polygon>
                <path d="M23.7462,81.1212 C22.9552,79.6262 22.2732,78.1282 21.6482,76.6212 L25.8652,74.8672 C26.4512,76.2832 27.0842,77.6662 27.7722,78.9672 L23.7462,81.1212 Z" id="Fill-22" fill="#F9BF3B" mask="url(#mask-4)"></path>
                <path d="M27.1104,79.3175 C26.4484,78.0675 25.8144,76.7055 25.1724,75.1535 L26.5574,74.5805 C27.1814,76.0875 27.7964,77.4075 28.4354,78.6165 L27.1104,79.3175 Z" id="Fill-23" fill="#F1892D" mask="url(#mask-4)"></path>
                <path d="M23.0841,81.4727 C22.3531,80.0917 21.6561,78.5987 20.9561,76.9087 L22.3421,76.3337 C23.0241,77.9807 23.7001,79.4317 24.4091,80.7707 L23.0841,81.4727 Z" id="Fill-24" fill="#F1892D" mask="url(#mask-4)"></path>
                <polygon id="Fill-25" fill="#F1892D" mask="url(#mask-4)" points="22.9503 79.5567 22.3203 78.1947 26.4663 76.2787 27.0953 77.6407"></polygon>
                <path d="M28.1348,86.3761 C27.1308,85.7921 26.1918,84.8641 25.3768,83.7671 L24.7938,82.9131 L24.7238,82.8101 L24.6758,82.7321 L24.5818,82.5781 L24.3948,82.2691 L24.2118,81.9621 L24.0558,81.6821 C23.9518,81.4951 23.8448,81.3081 23.7458,81.1211 L27.7728,78.9671 C27.8588,79.1311 27.9488,79.2851 28.0358,79.4451 L28.1688,79.6831 C28.2118,79.7581 28.2498,79.8171 28.2908,79.8851 L28.5098,80.2521 L28.5908,80.3741 C28.6998,80.5361 28.8228,80.6891 28.9698,80.8191 L28.1348,86.3761 Z" id="Fill-26" fill="#F9BF3B" mask="url(#mask-4)"></path>
                <path d="M28.4718,81.381 C28.2958,81.224 28.1318,81.033 27.9708,80.798 L27.8668,80.637 L27.6048,80.2 C27.5758,80.154 27.5478,80.109 27.5178,80.055 L27.3808,79.81 C27.3478,79.749 27.3168,79.693 27.2848,79.637 C27.2248,79.53 27.1648,79.424 27.1088,79.315 L28.4378,78.619 C28.4878,78.716 28.5398,78.809 28.5928,78.902 C28.6268,78.963 28.6598,79.024 28.6948,79.085 L28.8248,79.318 C28.8418,79.349 28.8628,79.382 28.8828,79.415 C28.9008,79.444 28.9178,79.472 28.9358,79.502 L29.2178,79.963 C29.3008,80.085 29.3858,80.186 29.4678,80.259 L28.4718,81.381 Z" id="Fill-27" fill="#F1892D" mask="url(#mask-4)"></path>
                <path d="M27.7579,87.0245 C26.7089,86.4145 25.7059,85.4685 24.7759,84.2135 L24.7589,84.1905 L24.0369,83.1255 L23.5569,82.3275 L23.4009,82.0475 C23.3639,81.9815 23.3289,81.9195 23.2939,81.8565 C23.2219,81.7275 23.1499,81.5985 23.0819,81.4695 L24.4109,80.7735 C24.4719,80.8895 24.5369,81.0065 24.6029,81.1235 C24.6399,81.1885 24.6769,81.2545 24.7129,81.3205 L24.8619,81.5875 L25.4139,82.4925 L25.9879,83.3315 C26.7829,84.4015 27.6559,85.2295 28.5119,85.7275 L27.7579,87.0245 Z" id="Fill-28" fill="#F1892D" mask="url(#mask-4)"></path>
                <polygon id="Fill-29" fill="#F1892D" mask="url(#mask-4)" points="25.922 84.2823 24.833 83.2513 28.046 79.8583 29.135 80.8903"></polygon>
                <path d="M33.42,84.1436 C33.181,84.7416 32.882,85.2476 32.541,85.6656 C32.197,86.0806 31.811,86.4116 31.318,86.6566 C31.072,86.7816 30.786,86.8596 30.503,86.9036 C30.218,86.9496 29.941,86.9346 29.674,86.9056 C29.142,86.8316 28.638,86.6476 28.135,86.3756 L28.97,80.8196 C29.044,80.8826 29.122,80.9436 29.212,80.9826 C29.3,81.0246 29.412,81.0246 29.489,80.9596 C29.565,80.8966 29.611,80.8066 29.649,80.7176 C29.687,80.6266 29.716,80.5336 29.741,80.4396 L33.42,84.1436 Z" id="Fill-30" fill="#F9BF3B" mask="url(#mask-4)"></path>
                <path d="M29.5196,80.2989 C29.4936,80.2869 29.4666,80.2789 29.4396,80.2729 L29.4586,80.2509 C29.4976,80.2829 29.5136,80.2949 29.5196,80.2989 M28.9456,80.4539 C28.9506,80.4449 28.9546,80.4349 28.9576,80.4259 C28.9766,80.3809 28.9966,80.3219 29.0186,80.2389 L29.1866,80.2859 C29.1216,80.3069 29.0586,80.3409 29.0036,80.3879 C28.9626,80.4219 28.9456,80.4529 28.9456,80.4539 M29.3376,81.7619 C29.1916,81.7619 29.0416,81.7309 28.9026,81.6649 C28.7206,81.5849 28.5826,81.4759 28.4816,81.3889 L29.3816,80.3399 L30.4646,80.6389 C30.4396,80.7289 30.4006,80.8639 30.3416,81.0049 C30.2796,81.1529 30.1756,81.3609 29.9726,81.5329 C29.7946,81.6839 29.5696,81.7619 29.3376,81.7619" id="Fill-31" fill="#F1892D" mask="url(#mask-4)"></path>
                <path d="M30.1134,87.6827 C29.9194,87.6827 29.7414,87.6667 29.5914,87.6507 L29.5724,87.6487 C28.9784,87.5677 28.3914,87.3677 27.7784,87.0357 L28.4914,85.7157 C28.9394,85.9577 29.3574,86.1037 29.7664,86.1617 C30.0284,86.1897 30.2134,86.1897 30.3834,86.1617 C30.6214,86.1257 30.8244,86.0657 30.9784,85.9877 C31.3534,85.8007 31.6654,85.5467 31.9654,85.1867 C32.2634,84.8197 32.5204,84.3727 32.7234,83.8657 L34.1164,84.4227 C33.8564,85.0717 33.5224,85.6497 33.1234,86.1397 C32.6864,86.6637 32.2074,87.0507 31.6524,87.3277 C31.3594,87.4767 31.0094,87.5837 30.6174,87.6437 C30.4424,87.6727 30.2724,87.6827 30.1134,87.6827" id="Fill-32" fill="#F1892D" mask="url(#mask-4)"></path>
                <polygon id="Fill-33" fill="#F1892D" mask="url(#mask-4)" points="30.6046 86.8858 28.7746 81.1888 30.2036 80.7308 32.0326 86.4268"></polygon>
                <path d="M34.9356,78.295 C34.7486,79.02 34.5806,79.762 34.4086,80.532 L34.2476,81.249 L34.1386,81.721 L34.0176,82.225 C33.8506,82.894 33.6596,83.549 33.4196,84.144 L29.7416,80.44 C29.7676,80.345 29.7906,80.25 29.8126,80.154 L29.9516,79.537 C30.1236,78.763 30.3056,77.962 30.5136,77.155 L34.9356,78.295 Z" id="Fill-34" fill="#F9BF3B" mask="url(#mask-4)"></path>
                <path d="M30.4649,80.6378 L29.0189,80.2408 C29.0419,80.1558 29.0629,80.0708 29.0819,79.9848 L29.2199,79.3718 C29.3899,78.6118 29.5749,77.7908 29.7869,76.9688 L31.2389,77.3418 C31.0329,78.1438 30.8509,78.9498 30.6839,79.6998 L30.5449,80.3198 C30.5189,80.4298 30.4929,80.5338 30.4649,80.6378" id="Fill-35" fill="#F1892D" mask="url(#mask-4)"></path>
                <path d="M34.1163,84.4239 L32.7243,83.8639 C32.9233,83.3699 33.1023,82.7909 33.2903,82.0429 L33.5163,81.0799 L33.6773,80.3669 C33.8383,79.6439 34.0133,78.8669 34.2093,78.1089 L35.6623,78.4819 C35.4713,79.2199 35.2993,79.9819 35.1403,80.6949 L34.7473,82.3999 C34.5413,83.2239 34.3413,83.8639 34.1163,84.4239" id="Fill-36" fill="#F1892D" mask="url(#mask-4)"></path>
                <polygon id="Fill-37" fill="#F1892D" mask="url(#mask-4)" points="34.2452 81.2638 29.7882 80.2688 30.1152 78.8048 34.5712 79.7998"></polygon>
                <path d="M36.3477,74.255 C35.7517,75.478 35.3077,76.85 34.9357,78.295 L30.5137,77.155 C30.9317,75.54 31.4517,73.881 32.2417,72.256 L36.3477,74.255 Z" id="Fill-38" fill="#F9BF3B" mask="url(#mask-4)"></path>
                <path d="M31.2393,77.3429 L29.7873,76.9679 C30.3153,74.9289 30.8643,73.3749 31.5673,71.9279 L32.9163,72.5839 C32.2583,73.9379 31.7413,75.4059 31.2393,77.3429" id="Fill-39" fill="#F1892D" mask="url(#mask-4)"></path>
                <path d="M35.6622,78.4815 L34.2092,78.1075 C34.6482,76.4025 35.1142,75.0745 35.6732,73.9265 L37.0212,74.5845 C36.5082,75.6385 36.0752,76.8775 35.6622,78.4815" id="Fill-40" fill="#F1892D" mask="url(#mask-4)"></path>
                <polygon id="Fill-41" fill="#F1892D" mask="url(#mask-4)" points="35.3145 76.9015 30.9955 75.4195 31.4825 74.0005 35.8015 75.4825"></polygon>
                <path d="M38.5987,71.1759 C37.6827,71.9709 36.9447,73.0369 36.3477,74.2549 L32.2417,72.2559 C32.6377,71.4449 33.1027,70.6439 33.6557,69.8789 C34.2047,69.1139 34.8487,68.3879 35.5827,67.7459 L38.5987,71.1759 Z" id="Fill-42" fill="#F9BF3B" mask="url(#mask-4)"></path>
                <path d="M32.9161,72.5851 L31.5671,71.9271 C32.0081,71.0251 32.5061,70.1891 33.0471,69.4391 C33.6561,68.5941 34.3441,67.8331 35.0901,67.1821 L36.0771,68.3121 C35.4171,68.8881 34.8071,69.5631 34.2641,70.3171 C33.7711,70.9981 33.3181,71.7611 32.9161,72.5851" id="Fill-43" fill="#F1892D" mask="url(#mask-4)"></path>
                <path d="M37.0206,74.5851 L35.6736,73.9251 C36.3566,72.5341 37.1746,71.4181 38.1076,70.6091 L39.0896,71.7421 C38.3106,72.4191 37.6146,73.3751 37.0206,74.5851" id="Fill-44" fill="#F1892D" mask="url(#mask-4)"></path>
                <polygon id="Fill-45" fill="#F1892D" mask="url(#mask-4)" points="36.9141 73.1642 33.2151 70.4862 34.0951 69.2712 37.7931 71.9492"></polygon>
                <path d="M41.8272,69.5108 C40.5942,69.8228 39.5102,70.3748 38.5982,71.1758 L35.5832,67.7458 C36.3152,67.1038 37.1352,66.5448 38.0022,66.0998 C38.8702,65.6528 39.7822,65.3188 40.7002,65.0858 L41.8272,69.5108 Z" id="Fill-46" fill="#F9BF3B" mask="url(#mask-4)"></path>
                <path d="M36.0782,68.3097 L35.0892,67.1827 C35.8722,66.4957 36.7362,65.9057 37.6602,65.4317 C38.5452,64.9757 39.5062,64.6157 40.5152,64.3587 L40.8852,65.8127 C39.9852,66.0407 39.1312,66.3617 38.3462,66.7657 C37.5312,67.1837 36.7682,67.7037 36.0782,68.3097" id="Fill-47" fill="#F1892D" mask="url(#mask-4)"></path>
                <path d="M39.0938,71.7393 L38.1038,70.6123 C39.0948,69.7423 40.2848,69.1273 41.6438,68.7843 L42.0108,70.2383 C40.8848,70.5223 39.9048,71.0273 39.0938,71.7393" id="Fill-48" fill="#F1892D" mask="url(#mask-4)"></path>
                <polygon id="Fill-49" fill="#F1892D" mask="url(#mask-4)" points="39.4249 70.503 37.3349 66.442 38.6689 65.756 40.7589 69.816"></polygon>
                <path d="M45.8184,69.2169 C45.1204,69.1749 44.4304,69.1669 43.7584,69.2079 C43.0894,69.2559 42.4424,69.3559 41.8274,69.5109 L40.7004,65.0859 C41.6184,64.8529 42.5404,64.7159 43.4494,64.6529 C44.3574,64.5949 45.2514,64.6069 46.1314,64.6609 L45.8184,69.2169 Z" id="Fill-50" fill="#F9BF3B" mask="url(#mask-4)"></path>
                <path d="M40.8848,65.8126 L40.5158,64.3586 C41.4268,64.1276 42.3958,63.9746 43.3968,63.9046 C44.2758,63.8486 45.1838,63.8516 46.1778,63.9126 L46.0858,65.4096 C45.1548,65.3526 44.3078,65.3496 43.4958,65.4006 C42.5898,65.4646 41.7088,65.6036 40.8848,65.8126" id="Fill-51" fill="#F1892D" mask="url(#mask-4)"></path>
                <path d="M42.0108,70.2384 L41.6428,68.7844 C42.2878,68.6204 42.9828,68.5114 43.7058,68.4604 C44.3758,68.4194 45.0788,68.4224 45.8628,68.4674 L45.7738,69.9654 C45.0518,69.9224 44.4068,69.9204 43.8048,69.9574 C43.1768,70.0024 42.5708,70.0964 42.0108,70.2384" id="Fill-52" fill="#F1892D" mask="url(#mask-4)"></path>
                <polygon id="Fill-53" fill="#F1892D" mask="url(#mask-4)" points="43.0108 69.2599 42.7008 64.7029 44.1978 64.6019 44.5068 69.1569"></polygon>
                <path d="M90.0528,66.1241 C90.2908,65.3831 90.5238,64.6391 90.7488,63.8931 C90.9738,63.1511 91.1988,62.3931 91.4028,61.6681 L95.8028,62.8911 C95.5778,63.6891 95.3528,64.4461 95.1188,65.2191 C94.8858,65.9871 94.6468,66.7531 94.4018,67.5181 L90.0528,66.1241 Z" id="Fill-54" fill="#F9BF3B" mask="url(#mask-4)"></path>
                <path d="M95.1153,67.7472 L93.6873,67.2882 C93.9293,66.5322 94.1703,65.7642 94.4013,65.0012 C94.6733,64.1062 94.8823,63.3932 95.0813,62.6872 L96.5243,63.0942 C96.3233,63.8092 96.1113,64.5322 95.8373,65.4362 C95.6033,66.2062 95.3603,66.9832 95.1153,67.7472" id="Fill-55" fill="#F1892D" mask="url(#mask-4)"></path>
                <path d="M90.7667,66.3536 L89.3387,65.8956 C89.5737,65.1656 89.8067,64.4176 90.0317,63.6746 C90.2797,62.8586 90.4977,62.1146 90.6807,61.4646 L92.1247,61.8716 C91.9397,62.5306 91.7177,63.2846 91.4667,64.1106 C91.2397,64.8616 91.0037,65.6156 90.7667,66.3536" id="Fill-56" fill="#F1892D" mask="url(#mask-4)"></path>
                <polygon id="Fill-57" fill="#F1892D" mask="url(#mask-4)" points="94.9014 65.9366 90.5314 64.6106 90.9664 63.1746 95.3374 64.5006"></polygon>
                <path d="M88.5567,70.545 C89.0777,69.084 89.5777,67.609 90.0527,66.124 L94.4017,67.518 C93.9127,69.047 93.3977,70.568 92.8557,72.086 L88.5567,70.545 Z" id="Fill-58" fill="#F9BF3B" mask="url(#mask-4)"></path>
                <path d="M93.5616,72.339 L92.1486,71.834 C92.6906,70.318 93.2076,68.788 93.6876,67.289 L95.1166,67.746 C94.6316,69.261 94.1086,70.807 93.5616,72.339" id="Fill-59" fill="#F1892D" mask="url(#mask-4)"></path>
                <path d="M89.2628,70.797 L87.8508,70.293 C88.3738,68.825 88.8748,67.347 89.3388,65.897 L90.7678,66.353 C90.2988,67.818 89.7928,69.315 89.2628,70.797" id="Fill-60" fill="#F1892D" mask="url(#mask-4)"></path>
                <polygon id="Fill-61" fill="#F1892D" mask="url(#mask-4)" points="93.4083 70.5167 89.0823 69.0537 89.5623 67.6327 93.8883 69.0957"></polygon>
                <path d="M86.8936,74.8673 C87.4816,73.4503 88.0336,72.0063 88.5566,70.5453 L92.8556,72.0863 C92.3106,73.6033 91.7346,75.1153 91.1096,76.6213 L86.8936,74.8673 Z" id="Fill-62" fill="#F9BF3B" mask="url(#mask-4)"></path>
                <path d="M91.8028,76.9083 L90.4168,76.3343 C91.0028,74.9213 91.5698,73.4493 92.1498,71.8333 L93.5618,72.3393 C92.9738,73.9783 92.3988,75.4723 91.8028,76.9083" id="Fill-63" fill="#F1892D" mask="url(#mask-4)"></path>
                <path d="M87.586,75.1544 L86.201,74.5794 C86.757,73.2394 87.297,71.8374 87.851,70.2924 L89.263,70.7984 C88.7,72.3664 88.152,73.7914 87.586,75.1544" id="Fill-64" fill="#F1892D" mask="url(#mask-4)"></path>
                <polygon id="Fill-65" fill="#F1892D" mask="url(#mask-4)" points="91.7442 75.0587 87.4802 73.4227 88.0172 72.0227 92.2812 73.6587"></polygon>
                <path d="M84.9854,78.9669 C85.6744,77.6659 86.3074,76.2829 86.8934,74.8669 L91.1094,76.6209 C90.4854,78.1279 89.8034,79.6259 89.0114,81.1209 L84.9854,78.9669 Z" id="Fill-66" fill="#F9BF3B" mask="url(#mask-4)"></path>
                <path d="M89.6749,81.4727 L88.3499,80.7707 C89.0589,79.4317 89.7349,77.9807 90.4169,76.3337 L91.8029,76.9087 C91.1029,78.5987 90.4059,80.0907 89.6749,81.4727" id="Fill-67" fill="#F1892D" mask="url(#mask-4)"></path>
                <path d="M85.6485,79.3175 L84.3235,78.6165 C84.9615,77.4085 85.5765,76.0885 86.2005,74.5805 L87.5865,75.1535 C86.9445,76.7065 86.3105,78.0685 85.6485,79.3175" id="Fill-68" fill="#F1892D" mask="url(#mask-4)"></path>
                <polygon id="Fill-69" fill="#F1892D" mask="url(#mask-4)" points="89.8087 79.5567 85.6627 77.6407 86.2927 76.2787 90.4377 78.1947"></polygon>
                <path d="M83.7882,80.8194 C83.9342,80.6894 84.0582,80.5364 84.1682,80.3744 L84.2482,80.2524 L84.4682,79.8844 C84.5082,79.8174 84.5472,79.7574 84.5902,79.6824 L84.7222,79.4454 C84.8092,79.2854 84.9002,79.1314 84.9852,78.9664 L89.0122,81.1214 C88.9142,81.3074 88.8062,81.4954 88.7032,81.6814 L88.5472,81.9624 L88.3642,82.2684 L88.1772,82.5784 L88.0822,82.7324 L88.0352,82.8094 L87.9652,82.9134 L87.3812,83.7664 C86.5662,84.8644 85.6272,85.7924 84.6242,86.3764 L83.7882,80.8194 Z" id="Fill-70" fill="#F9BF3B" mask="url(#mask-4)"></path>
                <path d="M85.0011,87.0245 L84.2471,85.7275 C85.1031,85.2295 85.9751,84.4015 86.7711,83.3315 L87.4431,82.3395 L87.8971,81.5875 L88.0481,81.3165 C88.0821,81.2535 88.1191,81.1875 88.1561,81.1215 C88.2221,81.0055 88.2871,80.8895 88.3481,80.7735 L89.6771,81.4695 C89.6091,81.5975 89.5371,81.7265 89.4651,81.8545 C89.4301,81.9185 89.3951,81.9805 89.3601,82.0445 L89.1911,82.3455 L88.6551,83.2315 L87.9831,84.2135 C87.0531,85.4685 86.0491,86.4145 85.0011,87.0245" id="Fill-71" fill="#F1892D" mask="url(#mask-4)"></path>
                <path d="M84.2862,81.381 L83.2902,80.259 C83.3732,80.186 83.4582,80.085 83.5492,79.951 L83.6122,79.854 L83.8242,79.5 C83.8412,79.472 83.8582,79.444 83.8762,79.415 C83.8952,79.382 83.9162,79.349 83.9382,79.312 L84.0662,79.08 C84.0982,79.024 84.1322,78.963 84.1662,78.902 C84.2192,78.809 84.2702,78.716 84.3212,78.619 L85.6502,79.315 C85.5932,79.424 85.5332,79.53 85.4732,79.637 C85.4422,79.693 85.4102,79.749 85.3802,79.806 L85.2452,80.048 C85.2102,80.109 85.1822,80.154 85.1532,80.2 L84.7952,80.786 C84.6262,81.033 84.4622,81.224 84.2862,81.381" id="Fill-72" fill="#F1892D" mask="url(#mask-4)"></path>
                <polygon id="Fill-73" fill="#F1892D" mask="url(#mask-4)" points="86.837 84.2823 83.623 80.8903 84.713 79.8583 87.926 83.2513"></polygon>
                <path d="M83.0167,80.4395 C83.0427,80.5335 83.0727,80.6265 83.1097,80.7175 C83.1477,80.8065 83.1947,80.8965 83.2697,80.9605 C83.3457,81.0245 83.4577,81.0245 83.5457,80.9825 C83.6357,80.9435 83.7147,80.8825 83.7877,80.8195 L84.6237,86.3765 C84.1207,86.6475 83.6177,86.8325 83.0837,86.9055 C82.8187,86.9345 82.5397,86.9495 82.2547,86.9035 C81.9727,86.8595 81.6867,86.7815 81.4407,86.6565 C80.9487,86.4115 80.5617,86.0805 80.2167,85.6665 C79.8757,85.2485 79.5777,84.7415 79.3377,84.1435 L83.0167,80.4395 Z" id="Fill-74" fill="#F9BF3B" mask="url(#mask-4)"></path>
                <path d="M82.6466,87.6827 C82.4866,87.6827 82.3146,87.6717 82.1346,87.6437 C81.7496,87.5837 81.3996,87.4767 81.1006,87.3257 C80.5506,87.0507 80.0716,86.6637 79.6406,86.1457 C79.2366,85.6497 78.9016,85.0717 78.6416,84.4227 L80.0346,83.8657 C80.2386,84.3727 80.4956,84.8197 80.7986,85.1927 C81.0936,85.5467 81.4056,85.8007 81.7746,85.9847 C81.9336,86.0657 82.1376,86.1257 82.3696,86.1617 C82.5446,86.1907 82.7296,86.1897 82.9926,86.1617 C83.4016,86.1037 83.8186,85.9577 84.2676,85.7157 L84.9806,87.0357 C84.3676,87.3677 83.7806,87.5677 83.1856,87.6487 L83.1676,87.6507 C83.0186,87.6667 82.8416,87.6827 82.6466,87.6827" id="Fill-75" fill="#F1892D" mask="url(#mask-4)"></path>
                <path d="M83.2227,80.3058 L83.2467,80.2948 C83.2427,80.2958 83.2567,80.2868 83.2997,80.2508 L83.3187,80.2728 C83.2847,80.2808 83.2527,80.2908 83.2227,80.3058 M83.8137,80.4538 C83.8127,80.4528 83.7947,80.4218 83.7527,80.3868 C83.6987,80.3398 83.6367,80.3068 83.5727,80.2858 L83.7407,80.2398 C83.7627,80.3228 83.7827,80.3808 83.8017,80.4298 C83.8047,80.4348 83.8087,80.4448 83.8137,80.4538 M83.4207,81.7618 C83.1897,81.7618 82.9627,81.6838 82.7847,81.5318 C82.5827,81.3618 82.4787,81.1528 82.4187,81.0098 C82.3587,80.8648 82.3187,80.7288 82.2937,80.6388 L83.3757,80.3398 L84.2777,81.3888 C84.1757,81.4758 84.0367,81.5848 83.8567,81.6648 C83.7167,81.7308 83.5677,81.7618 83.4207,81.7618" id="Fill-76" fill="#F1892D" mask="url(#mask-4)"></path>
                <polygon id="Fill-77" fill="#F1892D" mask="url(#mask-4)" points="82.1544 86.8858 80.7254 86.4268 82.5554 80.7308 83.9834 81.1888"></polygon>
                <path d="M82.2452,77.1554 C82.4522,77.9624 82.6352,78.7624 82.8072,79.5374 L82.9452,80.1544 C82.9682,80.2504 82.9912,80.3444 83.0162,80.4394 L79.3382,84.1434 C79.0992,83.5494 78.9082,82.8934 78.7402,82.2244 L78.6202,81.7204 L78.5112,81.2494 L78.3492,80.5324 C78.1792,79.7614 78.0102,79.0194 77.8232,78.2954 L82.2452,77.1554 Z" id="Fill-78" fill="#F9BF3B" mask="url(#mask-4)"></path>
                <path d="M78.6427,84.4239 C78.4167,83.8639 78.2177,83.2239 78.0127,82.4069 L77.7807,81.4179 L77.6187,80.6959 C77.4587,79.9819 77.2867,79.2199 77.0967,78.4819 L78.5497,78.1089 C78.7447,78.8669 78.9207,79.6439 79.0817,80.3689 L79.4697,82.0509 C79.6557,82.7909 79.8347,83.3699 80.0347,83.8639 L78.6427,84.4239 Z" id="Fill-79" fill="#F1892D" mask="url(#mask-4)"></path>
                <path d="M82.294,80.6378 C82.265,80.5338 82.239,80.4298 82.215,80.3248 L82.075,79.7008 C81.907,78.9488 81.725,78.1428 81.519,77.3418 L82.972,76.9688 C83.183,77.7898 83.369,78.6108 83.539,79.3738 L83.678,79.9908 C83.696,80.0708 83.717,80.1558 83.74,80.2408 L82.294,80.6378 Z" id="Fill-80" fill="#F1892D" mask="url(#mask-4)"></path>
                <polygon id="Fill-81" fill="#F1892D" mask="url(#mask-4)" points="78.5137 81.2638 78.1867 79.7998 82.6437 78.8048 82.9707 80.2688"></polygon>
                <path d="M80.5167,72.256 C81.3067,73.881 81.8277,75.54 82.2457,77.155 L77.8237,78.295 C77.4507,76.85 77.0067,75.478 76.4117,74.255 L80.5167,72.256 Z" id="Fill-82" fill="#F9BF3B" mask="url(#mask-4)"></path>
                <path d="M77.0968,78.4815 C76.6828,76.8775 76.2508,75.6385 75.7378,74.5845 L77.0848,73.9265 C77.6448,75.0745 78.1098,76.4025 78.5488,78.1075 L77.0968,78.4815 Z" id="Fill-83" fill="#F1892D" mask="url(#mask-4)"></path>
                <path d="M81.5196,77.3429 C81.0176,75.4059 80.4996,73.9379 79.8416,72.5839 L81.1916,71.9279 C81.8946,73.3749 82.4436,74.9289 82.9716,76.9679 L81.5196,77.3429 Z" id="Fill-84" fill="#F1892D" mask="url(#mask-4)"></path>
                <polygon id="Fill-85" fill="#F1892D" mask="url(#mask-4)" points="77.4444 76.9015 76.9574 75.4825 81.2764 74.0005 81.7634 75.4195"></polygon>
                <path d="M77.1749,67.7462 C77.9089,68.3882 78.5529,69.1142 79.1039,69.8792 C79.6559,70.6432 80.1199,71.4442 80.5169,72.2562 L76.4109,74.2552 C75.8149,73.0372 75.0759,71.9712 74.1589,71.1762 L77.1749,67.7462 Z" id="Fill-86" fill="#F9BF3B" mask="url(#mask-4)"></path>
                <path d="M75.7384,74.5851 C75.1444,73.3761 74.4484,72.4191 73.6684,71.7421 L74.6514,70.6091 C75.5844,71.4181 76.4024,72.5341 77.0854,73.9251 L75.7384,74.5851 Z" id="Fill-87" fill="#F1892D" mask="url(#mask-4)"></path>
                <path d="M79.8428,72.5851 C79.4408,71.7611 78.9868,70.9981 78.4958,70.3181 C77.9518,69.5631 77.3418,68.8881 76.6818,68.3121 L77.6678,67.1821 C78.4148,67.8331 79.1028,68.5941 79.7118,69.4401 C80.2528,70.1891 80.7498,71.0251 81.1908,71.9271 L79.8428,72.5851 Z" id="Fill-88" fill="#F1892D" mask="url(#mask-4)"></path>
                <polygon id="Fill-89" fill="#F1892D" mask="url(#mask-4)" points="75.8448 73.1642 74.9648 71.9492 78.6638 69.2712 79.5428 70.4862"></polygon>
                <path d="M72.0587,65.086 C72.9757,65.318 73.8887,65.652 74.7557,66.1 C75.6237,66.545 76.4437,67.104 77.1747,67.746 L74.1597,71.176 C73.2477,70.375 72.1647,69.822 70.9317,69.511 L72.0587,65.086 Z" id="Fill-90" fill="#F9BF3B" mask="url(#mask-4)"></path>
                <path d="M73.6641,71.7393 C72.8541,71.0273 71.8731,70.5223 70.7481,70.2383 L71.1151,68.7843 C72.4741,69.1273 73.6641,69.7423 74.6541,70.6123 L73.6641,71.7393 Z" id="Fill-91" fill="#F1892D" mask="url(#mask-4)"></path>
                <path d="M76.6798,68.3097 C75.9898,67.7037 75.2268,67.1837 74.4138,66.7667 C73.6278,66.3617 72.7738,66.0407 71.8738,65.8127 L72.2428,64.3587 C73.2518,64.6157 74.2138,64.9757 75.0998,65.4327 C76.0218,65.9057 76.8868,66.4957 77.6698,67.1827 L76.6798,68.3097 Z" id="Fill-92" fill="#F1892D" mask="url(#mask-4)"></path>
                <polygon id="Fill-93" fill="#F1892D" mask="url(#mask-4)" points="73.3331 70.503 72.0001 69.816 74.0901 65.756 75.4231 66.442"></polygon>
                <path d="M66.627,64.6612 C67.508,64.6062 68.401,64.5952 69.31,64.6522 C70.219,64.7162 71.141,64.8522 72.059,65.0862 L70.932,69.5112 C70.316,69.3552 69.669,69.2562 69,69.2082 C68.328,69.1672 67.639,69.1752 66.94,69.2172 L66.627,64.6612 Z" id="Fill-94" fill="#F9BF3B" mask="url(#mask-4)"></path>
                <path d="M70.7471,70.2384 C70.1871,70.0964 69.5821,70.0024 68.9461,69.9564 C68.3511,69.9204 67.7071,69.9234 66.9841,69.9654 L66.8951,68.4674 C67.6791,68.4214 68.3821,68.4194 69.0461,68.4604 C69.7761,68.5114 70.4711,68.6204 71.1151,68.7844 L70.7471,70.2384 Z" id="Fill-95" fill="#F1892D" mask="url(#mask-4)"></path>
                <path d="M71.8741,65.8126 C71.0491,65.6036 70.1681,65.4646 69.2571,65.4006 C68.4511,65.3496 67.6031,65.3526 66.6731,65.4096 L66.5811,63.9126 C67.5751,63.8516 68.4821,63.8486 69.3561,63.9036 C70.3621,63.9746 71.3321,64.1276 72.2431,64.3586 L71.8741,65.8126 Z" id="Fill-96" fill="#F1892D" mask="url(#mask-4)"></path>
                <polygon id="Fill-97" fill="#F1892D" mask="url(#mask-4)" points="69.7481 69.2599 68.2511 69.1569 68.5611 64.6019 70.0581 64.7029"></polygon>
                <path d="M63.4766,75.0509 L63.4776,75.0509 L63.4766,75.0509 Z M64.4126,75.4269 C64.3876,75.4269 64.3656,75.4279 64.3426,75.4289 C64.1626,75.4369 64.0926,75.4789 64.0816,75.4919 C63.9976,75.6089 63.9286,76.3039 64.6946,77.9229 C65.2766,79.1539 66.1006,80.3999 66.5806,80.9469 C66.9666,81.3869 67.4536,81.6299 67.9136,81.6059 C68.3136,81.5879 68.6666,81.3829 68.9366,81.0129 C69.6096,80.0889 69.4746,78.5079 68.6426,77.5589 C67.9356,76.7529 65.6166,75.4269 64.4126,75.4269 L64.4126,75.4269 Z M67.8586,83.1079 C66.9806,83.1079 66.1106,82.6859 65.4546,81.9369 C64.9136,81.3219 61.4726,76.5279 62.8706,74.6099 C63.0806,74.3189 63.4976,73.9649 64.2746,73.9299 C66.0206,73.8499 68.8116,75.4769 69.7696,76.5699 C71.0756,78.0569 71.2416,80.3969 70.1496,81.8959 C69.6096,82.6359 68.8396,83.0659 67.9816,83.1049 C67.9406,83.1069 67.8996,83.1079 67.8586,83.1079 L67.8586,83.1079 Z" id="Fill-98" fill="#19B5FE" mask="url(#mask-4)"></path>
                <path d="M63.9483,74.6622 L63.9503,74.6622 L63.9483,74.6622 Z M70.1663,72.7612 C68.7503,72.7612 66.5693,73.1782 65.3743,73.9732 C65.0903,74.1622 64.7403,74.4552 64.6893,74.7782 C64.6223,75.2112 65.0993,76.0412 66.6443,77.0762 C67.9233,77.9332 69.4723,78.6062 70.2813,78.8062 C70.8833,78.9532 71.5003,78.8442 72.0193,78.4982 C72.6463,78.0812 73.0823,77.3572 73.2153,76.5142 C73.4763,74.8442 72.5223,73.1992 71.0873,72.8472 C70.8533,72.7892 70.5353,72.7612 70.1663,72.7612 L70.1663,72.7612 Z M70.8123,80.3702 C70.5163,80.3702 70.2193,80.3352 69.9233,80.2622 C68.1563,79.8272 62.7773,77.2822 63.2083,74.5462 C63.3163,73.8542 63.7653,73.2412 64.5443,72.7242 C66.3353,71.5322 69.8363,70.9932 71.4453,71.3902 C73.6183,71.9242 75.0763,74.3262 74.6963,76.7462 C74.4993,78.0042 73.8263,79.0982 72.8503,79.7472 C72.2313,80.1592 71.5293,80.3702 70.8123,80.3702 L70.8123,80.3702 Z" id="Fill-99" fill="#C72C1C" mask="url(#mask-4)"></path>
                <path d="M59.752,60.0235 C58.108,59.8795 55.415,59.8335 53.768,59.9195 L44.697,60.3935 C43.049,60.4795 41.678,61.9005 41.648,63.5495 L41.498,72.1725 C41.47,73.8225 42.748,75.5275 44.34,75.9615 L53.529,78.4685 C55.121,78.9035 57.737,78.9495 59.343,78.5705 L68.614,76.3855 C70.22,76.0065 71.558,74.3475 71.586,72.6975 L71.736,64.0745 C71.766,62.4245 70.444,60.9585 68.801,60.8145 L59.752,60.0235 Z" id="Fill-100" fill="#A5B5B6" mask="url(#mask-4)"></path>
                <path d="M68.6563,73.9854 L59.3853,76.1714 C57.7793,76.5494 55.1633,76.5044 53.5703,76.0694 L44.3823,73.5624 C42.7903,73.1284 41.5103,71.4224 41.5403,69.7734 L41.4983,72.1734 C41.4693,73.8224 42.7483,75.5274 44.3403,75.9624 L53.5293,78.4684 C55.1213,78.9034 57.7373,78.9494 59.3433,78.5704 L68.6143,76.3854 C70.2193,76.0064 71.5573,74.3474 71.5863,72.6974 L71.6283,70.2974 C71.5993,71.9484 70.2613,73.6074 68.6563,73.9854" id="Fill-101" fill="#859596" mask="url(#mask-4)"></path>
                <path d="M55.7325,60.6261 C55.0265,60.6261 54.3585,60.6401 53.8065,60.6681 L44.7365,61.1431 C43.4905,61.2081 42.4195,62.3161 42.3985,63.5631 L42.2485,72.1861 C42.2245,73.4951 43.2735,74.8941 44.5375,75.2381 L53.7265,77.7461 C55.1955,78.1471 57.6885,78.1891 59.1705,77.8411 L68.4425,75.6551 C69.7165,75.3551 70.8135,73.9941 70.8365,72.6851 L70.9875,64.0621 C71.0085,62.8141 69.9775,61.6701 68.7355,61.5621 L59.6865,60.7721 C58.6175,60.6781 57.1045,60.6261 55.7325,60.6261 M56.7115,79.5801 C55.5025,79.5801 54.2705,79.4491 53.3315,79.1921 L44.1425,76.6861 C42.2045,76.1561 40.7125,74.1691 40.7485,72.1591 L40.8985,63.5371 C40.9345,61.4971 42.6205,59.7511 44.6575,59.6451 L53.7285,59.1701 C55.4095,59.0831 58.1405,59.1301 59.8175,59.2761 L68.8655,60.0671 C70.8975,60.2441 72.5225,62.0481 72.4865,64.0881 L72.3365,72.7111 C72.3005,74.7201 70.7415,76.6541 68.7865,77.1151 L59.5145,79.3011 C58.7205,79.4881 57.7235,79.5801 56.7115,79.5801" id="Fill-102" fill="#354546" mask="url(#mask-4)"></path>
                <polygon id="Fill-103" fill="#556566" mask="url(#mask-4)" points="59.6446 73.1017 46.5696 72.8727 46.7296 63.6747 59.8056 63.9037"></polygon>
                <path d="M55.2296,71.1632 C54.9726,71.1632 54.7316,71.0312 54.5926,70.8092 L53.5556,69.1442 L51.9386,69.1172 C51.6866,69.1122 51.4546,68.9822 51.3196,68.7702 L51.2516,68.6652 L50.8156,69.6812 C50.7176,69.9082 50.5146,70.0722 50.2726,70.1202 C50.0306,70.1692 49.7806,70.0952 49.6036,69.9232 L48.7166,69.0602 L46.6356,69.0242 C46.2216,69.0172 45.8926,68.6762 45.8996,68.2612 C45.9066,67.8472 46.2476,67.5172 46.6626,67.5242 L49.0406,67.5652 C49.2306,67.5692 49.4136,67.6452 49.5496,67.7782 L49.8676,68.0872 L50.4336,66.7702 C50.5426,66.5162 50.7856,66.3422 51.0616,66.3192 C51.3386,66.2952 51.6056,66.4292 51.7546,66.6632 L52.3676,67.6242 L53.9896,67.6522 C54.2436,67.6562 54.4786,67.7902 54.6126,68.0062 L55.0066,68.6392 L55.8196,66.0852 C55.9176,65.7772 56.2026,65.5662 56.5256,65.5622 C56.8466,65.5612 57.1376,65.7622 57.2436,66.0672 L57.8136,67.7192 L59.7386,67.7532 C60.1526,67.7602 60.4826,68.1012 60.4746,68.5162 C60.4676,68.9302 60.1266,69.2642 59.7116,69.2522 L57.2626,69.2102 C56.9486,69.2042 56.6696,69.0022 56.5676,68.7042 L56.5636,68.6942 L55.9446,70.6412 C55.8556,70.9192 55.6136,71.1212 55.3226,71.1572 C55.2916,71.1612 55.2596,71.1632 55.2296,71.1632" id="Fill-104" fill="#D5E5E6" mask="url(#mask-4)"></path>
                <path d="M47.3321,72.1368 L58.9081,72.3388 L59.0431,64.6398 L47.4661,64.4388 L47.3321,72.1368 Z M59.6451,73.8518 L59.6321,73.8518 L46.5561,73.6228 C46.3571,73.6198 46.1681,73.5378 46.0291,73.3948 C45.8921,73.2518 45.8151,73.0598 45.8191,72.8608 L45.9791,63.6618 C45.9831,63.4628 46.0651,63.2738 46.2091,63.1358 C46.3521,62.9968 46.5431,62.9158 46.7421,62.9248 L59.8181,63.1538 C60.2321,63.1598 60.5621,63.5018 60.5561,63.9158 L60.3951,73.1148 C60.3881,73.5248 60.0541,73.8518 59.6451,73.8518 L59.6451,73.8518 Z" id="Fill-105" fill="#354546" mask="url(#mask-4)"></path>
                <path d="M66.6231,65.797 C66.6061,66.777 65.7981,67.559 64.8171,67.541 C63.8381,67.525 63.0571,66.716 63.0741,65.735 C63.0911,64.755 63.8991,63.975 64.8801,63.991 C65.8591,64.009 66.6411,64.818 66.6231,65.797" id="Fill-106" fill="#F85C4C" mask="url(#mask-4)"></path>
                <path d="M66.6231,65.7979 L66.6251,65.7979 L66.6231,65.7979 Z M64.8491,64.7409 C64.5811,64.7409 64.3291,64.8429 64.1371,65.0289 C63.9391,65.2189 63.8291,65.4749 63.8241,65.7479 C63.8191,66.0229 63.9211,66.2809 64.1111,66.4789 C64.3021,66.6759 64.5571,66.7859 64.8311,66.7909 C65.1051,66.7959 65.3641,66.6939 65.5611,66.5039 C65.7581,66.3139 65.8691,66.0579 65.8741,65.7839 C65.8841,65.2189 65.4321,64.7509 64.8661,64.7409 L64.8491,64.7409 Z M64.8501,68.2909 L64.8051,68.2909 C64.1301,68.2789 63.5011,68.0059 63.0321,67.5209 C62.5631,67.0349 62.3121,66.3969 62.3241,65.7229 C62.3361,65.0479 62.6091,64.4189 63.0951,63.9499 C63.5801,63.4819 64.2171,63.2299 64.8931,63.2419 C66.2851,63.2659 67.3971,64.4179 67.3731,65.8109 C67.3501,67.1879 66.2221,68.2909 64.8501,68.2909 L64.8501,68.2909 Z" id="Fill-107" fill="#C72C1C" mask="url(#mask-4)"></path>
                <path d="M66.5245,71.4464 C66.5075,72.4264 65.6995,73.2074 64.7185,73.1904 C63.7395,73.1734 62.9585,72.3644 62.9755,71.3844 C62.9925,70.4044 63.8005,69.6244 64.7815,69.6404 C65.7615,69.6584 66.5425,70.4664 66.5245,71.4464" id="Fill-108" fill="#B9D96D" mask="url(#mask-4)"></path>
                <path d="M66.5245,71.4464 L66.5265,71.4464 L66.5245,71.4464 Z M64.7505,70.3904 C64.4825,70.3904 64.2305,70.4924 64.0385,70.6774 C63.8405,70.8684 63.7305,71.1244 63.7255,71.3974 C63.7205,71.6724 63.8225,71.9304 64.0125,72.1284 C64.2035,72.3244 64.4595,72.4354 64.7325,72.4404 C65.0065,72.4474 65.2655,72.3424 65.4625,72.1534 C65.6595,71.9634 65.7705,71.7074 65.7755,71.4334 C65.7795,71.1594 65.6775,70.9004 65.4875,70.7034 C65.2965,70.5074 65.0425,70.3954 64.7685,70.3904 L64.7505,70.3904 Z M64.7515,73.9404 L64.7065,73.9404 C64.0315,73.9284 63.4025,73.6544 62.9335,73.1704 C62.4645,72.6844 62.2135,72.0464 62.2255,71.3714 C62.2375,70.6974 62.5105,70.0674 62.9965,69.5994 C63.4815,69.1314 64.1195,68.8794 64.7945,68.8904 C65.4685,68.9024 66.0975,69.1764 66.5665,69.6614 C67.0355,70.1464 67.2865,70.7854 67.2745,71.4604 C67.2515,72.8374 66.1235,73.9404 64.7515,73.9404 L64.7515,73.9404 Z" id="Fill-109" fill="#719911" mask="url(#mask-4)"></path>
                <path d="M46.3819,62.547 C46.0219,62.547 45.7029,62.286 45.6429,61.918 L45.2379,59.466 C45.1709,59.057 45.4479,58.671 45.8569,58.604 C46.2659,58.536 46.6519,58.814 46.7189,59.222 L47.1219,61.675 C47.1899,62.083 46.9129,62.469 46.5049,62.536 C46.4629,62.543 46.4219,62.547 46.3819,62.547" id="Fill-110" fill="#354546" mask="url(#mask-4)"></path>
                <path d="M49.3419,62.0597 C48.9819,62.0597 48.6629,61.7977 48.6029,61.4307 L48.1989,58.9787 C48.1319,58.5697 48.4079,58.1837 48.8179,58.1167 C49.2259,58.0497 49.6119,58.3267 49.6789,58.7347 L50.0829,61.1877 C50.1509,61.5957 49.8729,61.9817 49.4649,62.0487 C49.4229,62.0557 49.3819,62.0597 49.3419,62.0597" id="Fill-111" fill="#354546" mask="url(#mask-4)"></path>
                <path d="M66.6856,62.547 C66.6456,62.547 66.6046,62.543 66.5636,62.536 C66.1546,62.469 65.8776,62.083 65.9456,61.675 L66.3486,59.222 C66.4156,58.814 66.8006,58.537 67.2106,58.604 C67.6196,58.671 67.8966,59.057 67.8296,59.466 L67.4246,61.918 C67.3646,62.286 67.0466,62.547 66.6856,62.547" id="Fill-112" fill="#354546" mask="url(#mask-4)"></path>
                <path d="M63.7257,62.0597 C63.6857,62.0597 63.6447,62.0557 63.6027,62.0487 C63.1947,61.9817 62.9177,61.5957 62.9847,61.1877 L63.3887,58.7347 C63.4557,58.3267 63.8407,58.0497 64.2507,58.1167 C64.6597,58.1837 64.9367,58.5697 64.8697,58.9787 L64.4647,61.4307 C64.4047,61.7977 64.0857,62.0597 63.7257,62.0597" id="Fill-113" fill="#354546" mask="url(#mask-4)"></path>
                <polygon id="Fill-114" fill="#A5B5B6" mask="url(#mask-4)" points="43.44 107.86 48.127 107.86 48.127 98.86 43.44 98.86"></polygon>
                <polygon id="Fill-115" fill="#C5D5D6" mask="url(#mask-4)" points="43.44 102.437 48.127 102.437 48.127 98.861 43.44 98.861"></polygon>
                <path d="M44.19,107.11 L47.378,107.11 L47.378,99.61 L44.19,99.61 L44.19,107.11 Z M48.127,108.61 L43.44,108.61 C43.025,108.61 42.69,108.275 42.69,107.86 L42.69,98.86 C42.69,98.446 43.025,98.11 43.44,98.11 L48.127,98.11 C48.541,98.11 48.877,98.446 48.877,98.86 L48.877,107.86 C48.877,108.275 48.541,108.61 48.127,108.61 L48.127,108.61 Z" id="Fill-116" fill="#354546" mask="url(#mask-4)"></path>
                <polygon id="Fill-117" fill="#A5B5B6" mask="url(#mask-4)" points="40.26 106.098 43.446 106.098 43.446 90.199 40.26 90.199"></polygon>
                <path d="M41.011,105.348 L42.697,105.348 L42.697,90.949 L41.011,90.949 L41.011,105.348 Z M43.446,106.848 L40.261,106.848 C39.847,106.848 39.511,106.512 39.511,106.098 L39.511,90.198 C39.511,89.784 39.847,89.448 40.261,89.448 L43.446,89.448 C43.86,89.448 44.196,89.784 44.196,90.198 L44.196,106.098 C44.196,106.512 43.86,106.848 43.446,106.848 L43.446,106.848 Z" id="Fill-118" fill="#354546" mask="url(#mask-4)"></path>
                <path d="M41.92,84.6856 L41.787,84.6856 C40.137,84.6856 38.787,86.0356 38.787,87.6856 L38.787,94.8106 L44.92,94.8106 L44.92,87.6856 C44.92,86.0356 43.569,84.6856 41.92,84.6856" id="Fill-119" fill="#A5B5B6" mask="url(#mask-4)"></path>
                <path d="M41.92,84.6856 L41.787,84.6856 C40.137,84.6856 38.787,86.0356 38.787,87.6856 L38.787,90.4226 C38.787,88.7726 40.137,87.4226 41.787,87.4226 L41.92,87.4226 C43.569,87.4226 44.92,88.7726 44.92,90.4226 L44.92,87.6856 C44.92,86.0356 43.569,84.6856 41.92,84.6856" id="Fill-120" fill="#C5D5D6" mask="url(#mask-4)"></path>
                <path d="M39.5372,94.0607 L44.1702,94.0607 L44.1702,87.6857 C44.1702,86.4447 43.1602,85.4357 41.9202,85.4357 L41.7872,85.4357 C40.5472,85.4357 39.5372,86.4447 39.5372,87.6857 L39.5372,94.0607 Z M44.9202,95.5607 L38.7872,95.5607 C38.3732,95.5607 38.0372,95.2247 38.0372,94.8107 L38.0372,87.6857 C38.0372,85.6187 39.7202,83.9357 41.7872,83.9357 L41.9202,83.9357 C43.9872,83.9357 45.6702,85.6187 45.6702,87.6857 L45.6702,94.8107 C45.6702,95.2247 45.3342,95.5607 44.9202,95.5607 L44.9202,95.5607 Z" id="Fill-121" fill="#354546" mask="url(#mask-4)"></path>
                <polygon id="Fill-122" fill="#A5B5B6" mask="url(#mask-4)" points="64.565 107.86 69.252 107.86 69.252 98.86 64.565 98.86"></polygon>
                <polygon id="Fill-123" fill="#C5D5D6" mask="url(#mask-4)" points="64.565 102.437 69.252 102.437 69.252 98.861 64.565 98.861"></polygon>
                <path d="M65.315,107.11 L68.503,107.11 L68.503,99.61 L65.315,99.61 L65.315,107.11 Z M69.252,108.61 L64.565,108.61 C64.15,108.61 63.815,108.275 63.815,107.86 L63.815,98.86 C63.815,98.446 64.15,98.11 64.565,98.11 L69.252,98.11 C69.666,98.11 70.002,98.446 70.002,98.86 L70.002,107.86 C70.002,108.275 69.666,108.61 69.252,108.61 L69.252,108.61 Z" id="Fill-124" fill="#354546" mask="url(#mask-4)"></path>
                <polygon id="Fill-125" fill="#A5B5B6" mask="url(#mask-4)" points="69.246 106.098 72.431 106.098 72.431 90.199 69.246 90.199"></polygon>
                <path d="M69.996,105.348 L71.681,105.348 L71.681,90.949 L69.996,90.949 L69.996,105.348 Z M72.431,106.848 L69.246,106.848 C68.832,106.848 68.496,106.512 68.496,106.098 L68.496,90.198 C68.496,89.784 68.832,89.448 69.246,89.448 L72.431,89.448 C72.845,89.448 73.181,89.784 73.181,90.198 L73.181,106.098 C73.181,106.512 72.845,106.848 72.431,106.848 L72.431,106.848 Z" id="Fill-126" fill="#354546" mask="url(#mask-4)"></path>
                <path d="M70.7725,84.6856 L70.9045,84.6856 C72.5545,84.6856 73.9045,86.0356 73.9045,87.6856 L73.9045,94.8106 L67.7725,94.8106 L67.7725,87.6856 C67.7725,86.0356 69.1225,84.6856 70.7725,84.6856" id="Fill-127" fill="#A5B5B6" mask="url(#mask-4)"></path>
                <path d="M70.7725,84.6856 L70.9045,84.6856 C72.5545,84.6856 73.9045,86.0356 73.9045,87.6856 L73.9045,90.4226 C73.9045,88.7726 72.5545,87.4226 70.9045,87.4226 L70.7725,87.4226 C69.1225,87.4226 67.7725,88.7726 67.7725,90.4226 L67.7725,87.6856 C67.7725,86.0356 69.1225,84.6856 70.7725,84.6856" id="Fill-128" fill="#C5D5D6" mask="url(#mask-4)"></path>
                <path d="M68.5225,94.0607 L73.1545,94.0607 L73.1545,87.6857 C73.1545,86.4447 72.1455,85.4357 70.9045,85.4357 L70.7725,85.4357 C69.5315,85.4357 68.5225,86.4447 68.5225,87.6857 L68.5225,94.0607 Z M73.9045,95.5607 L67.7725,95.5607 C67.3585,95.5607 67.0225,95.2247 67.0225,94.8107 L67.0225,87.6857 C67.0225,85.6187 68.7045,83.9357 70.7725,83.9357 L70.9045,83.9357 C72.9725,83.9357 74.6545,85.6187 74.6545,87.6857 L74.6545,94.8107 C74.6545,95.2247 74.3195,95.5607 73.9045,95.5607 L73.9045,95.5607 Z" id="Fill-129" fill="#354546" mask="url(#mask-4)"></path>
                <path d="M64.4268,115.3605 C64.4268,117.0105 63.0768,118.3605 61.4268,118.3605 L51.1268,118.3605 C49.4768,118.3605 48.1268,117.0105 48.1268,115.3605 L48.1268,91.3605 C48.1268,89.7105 49.4768,88.3605 51.1268,88.3605 L61.4268,88.3605 C63.0768,88.3605 64.4268,89.7105 64.4268,91.3605 L64.4268,115.3605 Z" id="Fill-130" fill="#6D6D6D" mask="url(#mask-4)"></path>
                <path d="M61.4268,113.7853 L51.1268,113.7853 C49.7868,113.7853 48.5458,112.8953 48.1268,111.6773 L48.1268,115.3603 C48.1268,117.0113 49.4768,118.3603 51.1268,118.3603 L61.4268,118.3603 C63.0768,118.3603 64.4268,117.0113 64.4268,115.3603 L64.4268,111.6773 C64.0078,112.8953 62.7668,113.7853 61.4268,113.7853" id="Fill-131" fill="#5B5B5B" mask="url(#mask-4)"></path>
                <polygon id="Fill-132" fill="#929292" mask="url(#mask-4)" points="64.336 101.4112 48.127 100.0602 48.218 96.0112 64.336 96.0112"></polygon>
                <polygon id="Fill-133" fill="#929292" mask="url(#mask-4)" points="64.336 104.5607 48.218 105.6647 48.218 102.9647 64.336 102.9647"></polygon>
                <path d="M51.127,89.1104 C49.887,89.1104 48.877,90.1204 48.877,91.3604 L48.877,115.3604 C48.877,116.6014 49.887,117.6104 51.127,117.6104 L61.427,117.6104 C62.668,117.6104 63.677,116.6014 63.677,115.3604 L63.677,91.3604 C63.677,90.1204 62.668,89.1104 61.427,89.1104 L51.127,89.1104 Z M61.427,119.1104 L51.127,119.1104 C49.06,119.1104 47.377,117.4284 47.377,115.3604 L47.377,91.3604 C47.377,89.2934 49.06,87.6104 51.127,87.6104 L61.427,87.6104 C63.495,87.6104 65.177,89.2934 65.177,91.3604 L65.177,115.3604 C65.177,117.4284 63.495,119.1104 61.427,119.1104 L61.427,119.1104 Z" id="Fill-134" fill="#121212" mask="url(#mask-4)"></path>
                <path d="M64.4639,84.6856 L48.0899,84.6856 C46.3089,84.6856 44.8509,86.0356 44.8509,87.6856 L44.8509,92.0356 L67.7029,92.0356 L67.7029,87.6856 C67.7029,86.0356 66.2459,84.6856 64.4639,84.6856" id="Fill-135" fill="#A5B5B6" mask="url(#mask-4)"></path>
                <path d="M64.4639,84.6856 L48.0899,84.6856 C46.3089,84.6856 44.8509,86.0356 44.8509,87.6856 L67.7029,87.6856 C67.7029,86.0356 66.2459,84.6856 64.4639,84.6856" id="Fill-136" fill="#C5D5D6" mask="url(#mask-4)"></path>
                <path d="M45.6007,91.2853 L66.9537,91.2853 L66.9537,87.6853 C66.9537,86.4443 65.8367,85.4353 64.4637,85.4353 L48.0897,85.4353 C46.7177,85.4353 45.6007,86.4443 45.6007,87.6853 L45.6007,91.2853 Z M67.7037,92.7853 L44.8507,92.7853 C44.4367,92.7853 44.1007,92.4493 44.1007,92.0353 L44.1007,87.6853 C44.1007,85.6183 45.8907,83.9353 48.0897,83.9353 L64.4637,83.9353 C66.6637,83.9353 68.4537,85.6183 68.4537,87.6853 L68.4537,92.0353 C68.4537,92.4493 68.1177,92.7853 67.7037,92.7853 L67.7037,92.7853 Z" id="Fill-137" fill="#354546" mask="url(#mask-4)"></path>
                <path d="M51.7774,86.8663 C51.3634,86.8663 51.0274,86.5303 51.0274,86.1163 L51.0274,83.6313 C51.0274,83.2163 51.3634,82.8813 51.7774,82.8813 C52.1914,82.8813 52.5274,83.2163 52.5274,83.6313 L52.5274,86.1163 C52.5274,86.5303 52.1914,86.8663 51.7774,86.8663" id="Fill-138" fill="#354546" mask="url(#mask-4)"></path>
                <path d="M54.7774,86.8663 C54.3634,86.8663 54.0274,86.5303 54.0274,86.1163 L54.0274,83.6313 C54.0274,83.2163 54.3634,82.8813 54.7774,82.8813 C55.1914,82.8813 55.5274,83.2163 55.5274,83.6313 L55.5274,86.1163 C55.5274,86.5303 55.1914,86.8663 54.7774,86.8663" id="Fill-139" fill="#354546" mask="url(#mask-4)"></path>
                <path d="M57.7774,86.8663 C57.3634,86.8663 57.0274,86.5303 57.0274,86.1163 L57.0274,83.6313 C57.0274,83.2163 57.3634,82.8813 57.7774,82.8813 C58.1914,82.8813 58.5274,83.2163 58.5274,83.6313 L58.5274,86.1163 C58.5274,86.5303 58.1914,86.8663 57.7774,86.8663" id="Fill-140" fill="#354546" mask="url(#mask-4)"></path>
                <path d="M60.7774,86.8663 C60.3634,86.8663 60.0274,86.5303 60.0274,86.1163 L60.0274,83.6313 C60.0274,83.2163 60.3634,82.8813 60.7774,82.8813 C61.1914,82.8813 61.5274,83.2163 61.5274,83.6313 L61.5274,86.1163 C61.5274,86.5303 61.1914,86.8663 60.7774,86.8663" id="Fill-141" fill="#354546" mask="url(#mask-4)"></path>
                <path d="M78.629,21.1124 C78.618,21.1124 78.607,21.1124 78.596,21.1114 C78.183,21.0944 77.861,20.7444 77.879,20.3314 L78.308,10.2094 C78.445,6.4934 75.531,3.3554 71.812,3.2184 C71.805,3.2174 71.797,3.2174 71.79,3.2164 L45.731,1.5054 C43.941,1.4404 42.227,2.0834 40.904,3.3114 C39.579,4.5424 38.813,6.2084 38.746,8.0014 L38.316,18.8754 C38.3,19.2894 37.946,19.6094 37.537,19.5944 C37.124,19.5784 36.802,19.2294 36.817,18.8154 L37.247,7.9444 C37.328,5.7524 38.265,3.7164 39.883,2.2124 C41.502,0.7094 43.602,-0.0746 45.796,0.0064 C45.803,0.0074 45.811,0.0074 45.817,0.0074 L71.878,1.7194 C76.419,1.8934 79.975,5.7254 79.807,10.2684 L79.377,20.3944 C79.36,20.7974 79.028,21.1124 78.629,21.1124" id="Fill-142" fill="#354546" mask="url(#mask-4)"></path>
                <path d="M33.2843,19.7638 C31.9903,19.7158 30.8823,21.0268 30.8213,22.6748 L30.4473,32.8088 C30.3863,34.4578 31.3943,35.8458 32.6883,35.8938 C33.9823,35.9418 35.0403,35.9808 35.0403,35.9808 L35.6373,19.8508 C35.6373,19.8508 34.5783,19.8118 33.2843,19.7638" id="Fill-143" fill="#A5B5B6" mask="url(#mask-4)"></path>
                <path d="M30.8214,22.6749 L30.6374,27.6349 L35.3424,27.8089 L35.6364,19.8509 C35.6364,19.8509 34.5784,19.8119 33.2844,19.7639 C31.9904,19.7159 30.8824,21.0269 30.8214,22.6749" id="Fill-144" fill="#C5D5D6" mask="url(#mask-4)"></path>
                <path d="M35.0411,36.7306 L35.0131,36.7306 L32.6601,36.6426 C31.8121,36.6116 31.0081,36.1566 30.4531,35.3926 C29.9301,34.6726 29.6621,33.7456 29.6971,32.7816 L30.0711,22.6476 C30.1071,21.6826 30.4431,20.7776 31.0181,20.0986 C31.6271,19.3786 32.4621,18.9846 33.3121,19.0146 L35.6641,19.1016 L35.6081,20.6006 L33.2571,20.5136 C32.8651,20.4956 32.4781,20.6956 32.1631,21.0676 C31.8101,21.4856 31.5941,22.0816 31.5701,22.7036 L31.1961,32.8366 C31.1731,33.4586 31.3451,34.0686 31.6661,34.5106 C31.9521,34.9046 32.3251,35.1296 32.7161,35.1436 L35.0681,35.2316 C35.4821,35.2466 35.8061,35.5946 35.7901,36.0076 C35.7751,36.4136 35.4421,36.7306 35.0411,36.7306" id="Fill-145" fill="#354546" mask="url(#mask-4)"></path>
                <polygon id="Fill-146" fill="#859596" mask="url(#mask-4)" points="39.3565 38.5392 34.9525 38.3772 35.6755 18.7752 40.0805 18.9382"></polygon>
                <polygon id="Fill-147" fill="#A5B5B6" mask="url(#mask-4)" points="39.6661 30.1524 35.2621 29.9904 35.6761 18.7754 40.0801 18.9384"></polygon>
                <path d="M35.7296,37.6554 L38.6346,37.7614 L39.3026,19.6604 L36.3986,19.5524 L35.7296,37.6554 Z M39.3566,39.2894 L39.3286,39.2894 L34.9236,39.1264 C34.5106,39.1104 34.1876,38.7624 34.2026,38.3484 L34.9266,18.7484 C34.9336,18.5494 35.0206,18.3614 35.1666,18.2254 C35.3116,18.0914 35.5066,18.0204 35.7046,18.0264 L40.1086,18.1884 C40.5226,18.2044 40.8446,18.5514 40.8306,18.9664 L40.1056,38.5674 C40.0986,38.7654 40.0116,38.9544 39.8666,39.0894 C39.7276,39.2174 39.5446,39.2894 39.3566,39.2894 L39.3566,39.2894 Z" id="Fill-148" fill="#354546" mask="url(#mask-4)"></path>
                <path d="M30.6378,28.3849 L30.6368,28.3849 L28.8348,28.3809 C28.4208,28.3809 28.0858,28.0439 28.0868,27.6299 C28.0878,27.2159 28.4228,26.8809 28.8368,26.8809 L28.8378,26.8809 L30.6398,26.8849 C31.0538,26.8859 31.3888,27.2219 31.3878,27.6369 C31.3868,28.0499 31.0518,28.3849 30.6378,28.3849" id="Fill-149" fill="#354546" mask="url(#mask-4)"></path>
                <path d="M85.712,10.5558 C85.627,10.5558 85.539,10.5448 85.452,10.5228 C84.891,10.3798 84.551,9.8078 84.694,9.2458 L85.471,6.1978 C85.614,5.6358 86.186,5.2958 86.747,5.4398 C87.31,5.5818 87.649,6.1548 87.506,6.7158 L86.729,9.7648 C86.608,10.2398 86.181,10.5558 85.712,10.5558" id="Fill-150" fill="#354546" mask="url(#mask-4)"></path>
                <path d="M82.6339,22.337 C82.5719,22.337 82.5109,22.33 82.4479,22.315 C82.0469,22.212 81.8049,21.804 81.9059,21.402 L84.9849,9.32 C85.0869,8.919 85.4949,8.676 85.8969,8.778 C86.2979,8.881 86.5409,9.289 86.4389,9.691 L83.3609,21.773 C83.2739,22.111 82.9689,22.337 82.6339,22.337" id="Fill-151" fill="#354546" mask="url(#mask-4)"></path>
                <path d="M82.6339,21.587 C83.9279,21.635 84.9359,23.024 84.8749,24.672 L84.5009,34.806 C84.4399,36.455 83.3309,37.765 82.0379,37.717 C80.7439,37.669 79.6859,37.63 79.6859,37.63 L80.2809,21.5 C80.2809,21.5 81.3399,21.539 82.6339,21.587" id="Fill-152" fill="#A5B5B6" mask="url(#mask-4)"></path>
                <path d="M84.8751,24.672 L84.6911,29.632 L79.9871,29.458 L80.2811,21.5 C80.2811,21.5 81.3401,21.539 82.6341,21.587 C83.9281,21.635 84.9361,23.024 84.8751,24.672" id="Fill-153" fill="#C5D5D6" mask="url(#mask-4)"></path>
                <path d="M82.1065,38.4679 C82.0745,38.4679 82.0425,38.4679 82.0095,38.4669 L79.6575,38.3799 L79.7125,36.8809 L82.0655,36.9679 L82.1055,36.9679 C82.9585,36.9679 83.7075,35.9779 83.7515,34.7789 L84.1265,24.6449 C84.1485,24.0229 83.9775,23.4129 83.6555,22.9699 C83.3695,22.5759 82.9965,22.3519 82.6055,22.3369 L80.2535,22.2499 L80.3085,20.7509 L82.6615,20.8379 C83.5095,20.8689 84.3145,21.3249 84.8695,22.0879 C85.3915,22.8079 85.6605,23.7359 85.6245,24.6989 L85.2505,34.8339 C85.1745,36.8619 83.7745,38.4679 82.1065,38.4679" id="Fill-154" fill="#354546" mask="url(#mask-4)"></path>
                <polygon id="Fill-155" fill="#859596" mask="url(#mask-4)" points="75.1925 39.8634 79.5965 40.0264 80.3215 20.4254 75.9175 20.2624"></polygon>
                <polygon id="Fill-156" fill="#A5B5B6" mask="url(#mask-4)" points="75.503 31.4767 79.906 31.6397 80.321 20.4247 75.917 20.2627"></polygon>
                <path d="M75.9698,39.1417 L78.8748,39.2487 L79.5438,21.1467 L76.6388,21.0387 L75.9698,39.1417 Z M79.5968,40.7767 C79.5878,40.7767 79.5778,40.7767 79.5698,40.7757 L75.1648,40.6137 C74.7508,40.5977 74.4278,40.2497 74.4438,39.8357 L75.1668,20.2347 C75.1748,20.0367 75.2608,19.8477 75.4068,19.7127 C75.5518,19.5777 75.7458,19.5077 75.9448,19.5127 L80.3488,19.6757 C80.7628,19.6907 81.0858,20.0387 81.0708,20.4537 L80.3468,40.0537 C80.3388,40.2527 80.2528,40.4407 80.1078,40.5767 C79.9688,40.7047 79.7858,40.7767 79.5968,40.7767 L79.5968,40.7767 Z" id="Fill-157" fill="#354546" mask="url(#mask-4)"></path>
                <path d="M86.4893,30.5108 C86.4703,30.5108 86.4533,30.5108 86.4343,30.5098 L84.6373,30.3798 C84.2243,30.3508 83.9143,29.9908 83.9433,29.5778 C83.9733,29.1648 84.3343,28.8548 84.7463,28.8838 L86.5423,29.0128 C86.9553,29.0428 87.2653,29.4018 87.2363,29.8158 C87.2083,30.2098 86.8793,30.5108 86.4893,30.5108" id="Fill-158" fill="#354546" mask="url(#mask-4)"></path>
                <path d="M39.2882,44.6768 C38.2622,44.6768 35.6532,45.7908 34.5482,47.0518 C33.6092,48.1208 33.4592,49.9068 34.2192,50.9508 C34.5302,51.3788 34.9402,51.6148 35.4042,51.6368 C35.9352,51.6628 36.4932,51.3868 36.9342,50.8848 C37.4662,50.2778 38.3802,48.8978 39.0232,47.5348 C39.8562,45.7748 39.8242,44.9628 39.6902,44.7808 C39.6502,44.7238 39.5212,44.6858 39.3472,44.6778 C39.3272,44.6768 39.3082,44.6768 39.2882,44.6768 M35.4692,53.1378 C35.4252,53.1378 35.3812,53.1368 35.3372,53.1348 C34.4152,53.0928 33.5872,52.6308 33.0072,51.8348 C31.8232,50.2098 32.0052,47.6748 33.4202,46.0618 C34.4672,44.8688 37.5092,43.0998 39.4142,43.1798 C40.2402,43.2168 40.6802,43.5898 40.9032,43.8968 C41.5162,44.7368 41.3442,46.1368 40.3802,48.1768 C39.6702,49.6778 38.6762,51.1728 38.0602,51.8738 C37.3512,52.6828 36.4142,53.1378 35.4692,53.1378" id="Fill-159" fill="#19B5FE" mask="url(#mask-4)"></path>
                <path d="M72.7384,43.1505 C72.6144,43.2825 72.6204,43.5435 72.6474,43.7385 C72.8204,44.9765 74.1624,46.7285 74.9144,47.1725 C75.8734,47.7405 77.4344,47.4295 78.3234,46.4945 C78.7494,46.0465 78.9564,45.5195 78.8904,45.0495 C78.8394,44.6755 78.6174,44.3635 78.2524,44.1475 C76.8144,43.2965 73.3864,42.4685 72.7384,43.1505 M76.0594,48.9595 C75.3794,48.9595 74.7174,48.7985 74.1504,48.4635 C72.9864,47.7755 71.3934,45.6065 71.1624,43.9455 C71.0304,42.9995 71.3554,42.4285 71.6514,42.1175 C73.2774,40.4065 77.9654,42.2345 79.0154,42.8565 C79.7774,43.3065 80.2604,44.0115 80.3764,44.8425 C80.5054,45.7675 80.1534,46.7465 79.4104,47.5275 C78.5284,48.4565 77.2654,48.9595 76.0594,48.9595" id="Fill-160" fill="#19B5FE" mask="url(#mask-4)"></path>
                <path d="M32.92,41.7393 C32.508,41.7393 32.154,41.7713 31.894,41.8353 C30.274,42.2333 29.197,44.0843 29.492,45.9623 C29.642,46.9133 30.134,47.7283 30.842,48.2003 C31.433,48.5933 32.134,48.7173 32.818,48.5493 C33.715,48.3283 35.433,47.5823 36.849,46.6333 C38.319,45.6473 39.138,44.6733 39.036,44.0263 C38.976,43.6423 38.574,43.3033 38.248,43.0873 C36.92,42.2033 34.495,41.7393 32.92,41.7393 M32.215,50.1233 C31.44,50.1233 30.68,49.8933 30.011,49.4493 C28.954,48.7463 28.225,47.5593 28.011,46.1943 C27.598,43.5663 29.179,40.9583 31.535,40.3793 C33.294,39.9463 37.12,40.5353 39.079,41.8383 C39.917,42.3953 40.401,43.0533 40.518,43.7943 C40.983,46.7603 35.107,49.5313 33.176,50.0053 C32.857,50.0843 32.534,50.1233 32.215,50.1233" id="Fill-161" fill="#719911" mask="url(#mask-4)"></path>
                <path d="M74.8419,47.3106 C74.6899,51.4326 71.1899,54.7906 67.0649,54.7746 L45.4459,54.6846 C41.3209,54.6666 38.2079,51.2886 38.5289,47.1756 L40.9159,13.3296 C41.2379,9.2166 44.8629,6.1356 48.9729,6.4836 L68.7409,8.1546 C72.8519,8.5016 76.0899,12.1586 75.9389,16.2806 L74.8419,47.3106 Z" id="Fill-162" fill="#A5B5B6" mask="url(#mask-4)"></path>
                <path d="M71.4161,41.0167 C71.3041,44.0477 68.5011,46.5097 65.1871,46.4867 L47.8151,46.3667 C44.5021,46.3427 41.9921,43.8507 42.2401,40.8267 L44.0761,16.9307 C44.3241,13.9067 47.2291,11.6497 50.5321,11.9157 L66.4201,13.1947 C69.7241,13.4597 72.3351,16.1577 72.2231,19.1897 L71.4161,41.0167 Z" id="Fill-163" fill="#C5D5D6" mask="url(#mask-4)"></path>
                <path d="M68.6387,51.4356 L45.1447,51.2766 C42.2297,51.2566 39.7767,49.8156 38.5087,47.6796 C38.4677,51.5606 41.4907,54.6676 45.4457,54.6846 L67.0647,54.7746 C70.5237,54.7886 73.5417,52.4276 74.5167,49.2356 C72.9857,50.6056 70.9007,51.4516 68.6387,51.4356" id="Fill-164" fill="#859596" mask="url(#mask-4)"></path>
                <path d="M68.6993,52.1856 L68.6333,52.1856 L45.1393,52.0266 C42.0443,52.0056 39.3243,50.5236 37.8633,48.0616 C37.6523,47.7066 37.7693,47.2456 38.1263,47.0346 C38.4813,46.8236 38.9423,46.9406 39.1533,47.2966 C40.3433,49.3016 42.5853,50.5086 45.1493,50.5266 L68.6433,50.6856 C70.6423,50.6986 72.5533,49.9856 74.0163,48.6756 C74.3253,48.4006 74.7993,48.4266 75.0753,48.7356 C75.3513,49.0436 75.3253,49.5176 75.0163,49.7936 C73.2913,51.3376 71.0503,52.1856 68.6993,52.1856" id="Fill-165" fill="#354546" mask="url(#mask-4)"></path>
                <path d="M74.8419,47.3106 L74.8429,47.3106 L74.8419,47.3106 Z M48.3369,7.2066 C46.7529,7.2066 45.2349,7.7636 44.0089,8.8056 C42.6369,9.9716 41.8039,11.5996 41.6639,13.3876 L39.2769,47.2286 C39.1379,49.0126 39.7039,50.6906 40.8709,51.9576 C42.0389,53.2246 43.6639,53.9266 45.4479,53.9346 L67.0679,54.0246 L67.0969,54.0246 C70.8199,54.0246 73.9539,51.0066 74.0919,47.2846 L75.1889,16.2536 C75.3259,12.5146 72.4059,9.2166 68.6789,8.9016 L48.9099,7.2316 C48.7179,7.2146 48.5279,7.2066 48.3369,7.2066 L48.3369,7.2066 Z M67.0969,55.5246 L67.0619,55.5246 L45.4429,55.4346 C43.2369,55.4246 41.2219,54.5516 39.7689,52.9736 C38.3159,51.3966 37.6099,49.3166 37.7809,47.1176 L40.1679,13.2766 C40.3389,11.0816 41.3589,9.0896 43.0379,7.6626 C44.7179,6.2356 46.8469,5.5526 49.0359,5.7366 L68.8049,7.4076 C73.3189,7.7886 76.8549,11.7816 76.6879,16.3086 L75.5909,47.3366 L75.5909,47.3376 C75.4239,51.8596 71.6169,55.5246 67.0969,55.5246 L67.0969,55.5246 Z" id="Fill-166" fill="#354546" mask="url(#mask-4)"></path>
                <path d="M58.3145,16.296 C54.2075,16.296 49.3105,15.035 49.3105,9.025 C49.3105,8.081 49.4325,7.455 49.6725,6.562 C49.7805,6.162 50.1915,5.926 50.5915,6.032 C50.9915,6.14 51.2285,6.552 51.1215,6.951 C50.9065,7.75 50.8105,8.239 50.8105,9.025 C50.8105,10.452 50.8105,14.796 58.3145,14.796 C65.8515,14.796 65.8515,10.452 65.8515,9.025 C65.8515,8.706 65.8355,8.386 65.8025,8.072 C65.7605,7.66 66.0595,7.291 66.4715,7.249 C66.8835,7.208 67.2525,7.506 67.2945,7.918 C67.3325,8.283 67.3515,8.655 67.3515,9.025 C67.3515,12.342 65.7845,16.296 58.3145,16.296" id="Fill-167" fill="#354546" mask="url(#mask-4)"></path>
                <path d="M55.961,24.4073 C55.961,29.3023 51.993,33.2693 47.1,33.2693 C42.205,33.2693 38.238,29.3023 38.238,24.4073 C38.238,19.5133 42.205,15.5463 47.1,15.5463 C51.993,15.5463 55.961,19.5133 55.961,24.4073" id="Fill-168" fill="#FFCF4B" mask="url(#mask-4)"></path>
                <path d="M53.8409,18.6593 C53.7269,23.4543 49.8069,27.3073 44.9849,27.3073 C42.2839,27.3073 39.8689,26.0983 38.2429,24.1943 C38.2409,24.2653 38.2379,24.3363 38.2379,24.4073 C38.2379,29.3023 42.2049,33.2693 47.0999,33.2693 C51.9929,33.2693 55.9609,29.3023 55.9609,24.4073 C55.9609,22.2143 55.1609,20.2073 53.8409,18.6593" id="Fill-169" fill="#F9B32F" mask="url(#mask-4)"></path>
                <path d="M47.0997,16.296 C42.6267,16.296 38.9887,19.936 38.9887,24.407 C38.9887,28.881 42.6267,32.52 47.0997,32.52 C51.5727,32.52 55.2107,28.881 55.2107,24.407 C55.2107,19.936 51.5727,16.296 47.0997,16.296 M47.0997,34.02 C41.7997,34.02 37.4887,29.708 37.4887,24.407 C37.4887,19.108 41.7997,14.796 47.0997,14.796 C52.3997,14.796 56.7107,19.108 56.7107,24.407 C56.7107,29.708 52.3997,34.02 47.0997,34.02" id="Fill-170" fill="#A13227" mask="url(#mask-4)"></path>
                <path d="M47.0499,29.7247 C47.0279,29.7247 47.0049,29.7247 46.9819,29.7237 C45.6129,29.6947 44.4299,28.7457 44.1029,27.4177 C44.0039,27.0157 44.2489,26.6097 44.6519,26.5107 C45.0549,26.4117 45.4599,26.6577 45.5599,27.0597 C45.7249,27.7307 46.3229,28.2087 47.0149,28.2247 C47.8569,28.2467 48.5639,27.5707 48.5819,26.7247 C48.5939,26.2147 48.3989,25.6247 46.8639,25.1207 C46.8549,25.1177 46.8449,25.1137 46.8349,25.1097 C46.0089,24.7987 44.0719,24.0707 44.1159,22.0577 C44.1349,21.2467 44.4669,20.4927 45.0529,19.9327 C45.6379,19.3717 46.4069,19.0747 47.2169,19.0907 C48.5849,19.1217 49.7689,20.0707 50.0959,21.3977 C50.1949,21.7997 49.9489,22.2057 49.5469,22.3057 C49.1459,22.4047 48.7379,22.1587 48.6399,21.7557 C48.4739,21.0847 47.8759,20.6067 47.1839,20.5907 C46.7729,20.5787 46.3859,20.7327 46.0899,21.0157 C45.7929,21.2997 45.6249,21.6807 45.6159,22.0907 C45.6039,22.6757 45.8899,23.1497 47.3499,23.7007 C49.1949,24.3127 50.1129,25.3407 50.0819,26.7577 C50.0459,28.4077 48.6919,29.7247 47.0499,29.7247" id="Fill-171" fill="#A13227" mask="url(#mask-4)"></path>
                <path d="M46.9678,31.1202 C46.9618,31.1202 46.9568,31.1202 46.9508,31.1192 C46.5368,31.1102 46.2088,30.7672 46.2178,30.3532 L46.2488,28.9582 C46.2578,28.5442 46.6048,28.2132 47.0148,28.2242 C47.4288,28.2332 47.7568,28.5772 47.7478,28.9912 L47.7178,30.3862 C47.7078,30.7952 47.3738,31.1202 46.9678,31.1202" id="Fill-172" fill="#A13227" mask="url(#mask-4)"></path>
                <path d="M47.2003,20.5909 L47.1833,20.5909 C46.7693,20.5819 46.4413,20.2379 46.4503,19.8239 L46.4813,18.4299 C46.4903,18.0159 46.8343,17.6909 47.2483,17.6959 C47.6623,17.7049 47.9903,18.0479 47.9803,18.4619 L47.9503,19.8579 C47.9403,20.2659 47.6073,20.5909 47.2003,20.5909" id="Fill-173" fill="#A13227" mask="url(#mask-4)"></path>
                <path d="M43.5665,19.0479 C43.8845,19.3659 43.7885,19.9799 43.3495,20.4169 C42.9125,20.8559 42.2985,20.9519 41.9805,20.6339 C41.6625,20.3159 41.7585,19.7019 42.1975,19.2639 C42.6345,18.8259 43.2485,18.7289 43.5665,19.0479" id="Fill-174" fill="#FFFFFF" mask="url(#mask-4)"></path>
                <path d="M51.0557,29.8643 C51.1947,30.1033 51.0387,30.4523 50.7097,30.6423 C50.3797,30.8333 50.0007,30.7933 49.8627,30.5523 C49.7247,30.3133 49.8787,29.9653 50.2087,29.7743 C50.5377,29.5853 50.9177,29.6253 51.0557,29.8643" id="Fill-175" fill="#FFFFFF" mask="url(#mask-4)"></path>
                <path d="M76.2764,25.6222 C76.2764,29.5862 73.0634,32.7992 69.1004,32.7992 C65.1364,32.7992 61.9234,29.5862 61.9234,25.6222 C61.9234,21.6592 65.1364,18.4452 69.1004,18.4452 C73.0634,18.4452 76.2764,21.6592 76.2764,25.6222" id="Fill-176" fill="#FFCF4B" mask="url(#mask-4)"></path>
                <path d="M74.5596,20.9669 C74.4676,24.8509 71.2926,27.9709 67.3876,27.9709 C65.2016,27.9709 63.2446,26.9909 61.9276,25.4489 C61.9266,25.5069 61.9236,25.5649 61.9236,25.6219 C61.9236,29.5859 65.1366,32.7989 69.1006,32.7989 C73.0636,32.7989 76.2766,29.5859 76.2766,25.6219 C76.2766,23.8449 75.6296,22.2199 74.5596,20.9669" id="Fill-177" fill="#F9B32F" mask="url(#mask-4)"></path>
                <path d="M69.1007,19.1954 C65.5567,19.1954 62.6737,22.0794 62.6737,25.6224 C62.6737,29.1664 65.5567,32.0494 69.1007,32.0494 C72.6437,32.0494 75.5267,29.1664 75.5267,25.6224 C75.5267,22.0794 72.6437,19.1954 69.1007,19.1954 M69.1007,33.5494 C64.7297,33.5494 61.1737,29.9934 61.1737,25.6224 C61.1737,21.2524 64.7297,17.6954 69.1007,17.6954 C73.4707,17.6954 77.0267,21.2524 77.0267,25.6224 C77.0267,29.9934 73.4707,33.5494 69.1007,33.5494" id="Fill-178" fill="#A13227" mask="url(#mask-4)"></path>
                <path d="M69.0606,30.0714 C69.0406,30.0714 69.0216,30.0704 69.0016,30.0704 C67.8306,30.0454 66.8156,29.2314 66.5356,28.0934 C66.4356,27.6924 66.6816,27.2864 67.0836,27.1864 C67.4866,27.0874 67.8926,27.3344 67.9916,27.7354 C68.1096,28.2164 68.5396,28.5594 69.0356,28.5704 C69.0426,28.5704 69.0516,28.5714 69.0596,28.5714 C69.6556,28.5714 70.1456,28.0934 70.1596,27.4964 C70.1646,27.2584 70.1746,26.7654 68.8656,26.3354 C68.8556,26.3314 68.8456,26.3284 68.8356,26.3244 C68.1386,26.0614 66.5036,25.4474 66.5416,23.7164 C66.5576,23.0214 66.8416,22.3754 67.3436,21.8944 C67.8456,21.4154 68.5016,21.1574 69.1986,21.1744 C70.3716,21.2004 71.3856,22.0124 71.6646,23.1504 C71.7646,23.5524 71.5186,23.9594 71.1166,24.0574 C70.7146,24.1584 70.3076,23.9114 70.2086,23.5094 C70.0906,23.0284 69.6616,22.6844 69.1646,22.6744 C68.8716,22.6634 68.5926,22.7754 68.3806,22.9784 C68.1686,23.1814 68.0476,23.4554 68.0416,23.7494 C68.0326,24.1714 68.2446,24.4974 69.3506,24.9154 C70.9096,25.4324 71.6856,26.3114 71.6586,27.5294 C71.6266,28.9424 70.4666,30.0714 69.0606,30.0714" id="Fill-179" fill="#A13227" mask="url(#mask-4)"></path>
                <path d="M68.9942,31.2003 L68.9762,31.2003 C68.5622,31.1913 68.2342,30.8473 68.2442,30.4333 L68.2682,29.3043 C68.2772,28.8893 68.6242,28.5663 69.0352,28.5703 C69.4492,28.5803 69.7772,28.9233 69.7682,29.3373 L69.7432,30.4673 C69.7342,30.8763 69.4002,31.2003 68.9942,31.2003" id="Fill-180" fill="#A13227" mask="url(#mask-4)"></path>
                <path d="M69.1827,22.6739 L69.1647,22.6739 C68.7507,22.6649 68.4227,22.3209 68.4317,21.9069 L68.4567,20.7779 C68.4657,20.3629 68.8117,20.0339 69.2237,20.0439 C69.6377,20.0539 69.9657,20.3969 69.9567,20.8109 L69.9317,21.9409 C69.9227,22.3489 69.5887,22.6739 69.1827,22.6739" id="Fill-181" fill="#A13227" mask="url(#mask-4)"></path>
                <path d="M66.2393,21.2813 C66.4973,21.5393 66.4193,22.0363 66.0633,22.3903 C65.7093,22.7453 65.2123,22.8233 64.9553,22.5653 C64.6963,22.3073 64.7753,21.8113 65.1303,21.4573 C65.4843,21.1013 65.9813,21.0233 66.2393,21.2813" id="Fill-182" fill="#FFFFFF" mask="url(#mask-4)"></path>
                <path d="M72.3048,30.0411 C72.4158,30.2351 72.2908,30.5181 72.0248,30.6721 C71.7568,30.8251 71.4508,30.7931 71.3378,30.5991 C71.2268,30.4051 71.3518,30.1231 71.6178,29.9691 C71.8858,29.8141 72.1928,29.8481 72.3048,30.0411" id="Fill-183" fill="#FFFFFF" mask="url(#mask-4)"></path>
                <path d="M45.0206,37.5323 C45.3516,43.4903 51.0216,48.0633 57.6866,47.7463 C64.3516,47.4293 69.4866,42.3433 69.1566,36.3853 L45.0206,37.5323 Z" id="Fill-184" fill="#FFFFFF" mask="url(#mask-4)"></path>
                <path d="M45.8428,38.2442 C46.5678,43.4112 51.6938,47.2812 57.6518,46.9972 C60.8828,46.8442 63.8998,45.4662 65.9278,43.2172 C67.4878,41.4882 68.3568,39.3652 68.4178,37.1712 L45.8428,38.2442 Z M57.0378,48.5122 C50.2728,48.5122 44.6138,43.7252 44.2718,37.5742 C44.2608,37.3742 44.3298,37.1792 44.4638,37.0302 C44.5978,36.8822 44.7848,36.7932 44.9858,36.7832 L69.1198,35.6362 C69.5318,35.6152 69.8818,35.9322 69.9048,36.3442 C70.0638,39.2012 69.0468,41.9992 67.0418,44.2222 C64.7478,46.7652 61.3508,48.3232 57.7218,48.4952 C57.4928,48.5072 57.2648,48.5122 57.0378,48.5122 L57.0378,48.5122 Z" id="Fill-185" fill="#354546" mask="url(#mask-4)"></path>
                <path d="M50.4346,46.3976 C50.0306,46.3976 49.6976,46.0766 49.6846,45.6696 L49.4336,37.3096 C49.4216,36.8956 49.7476,36.5496 50.1616,36.5376 C50.5746,36.5276 50.9206,36.8506 50.9336,37.2646 L51.1846,45.6256 C51.1966,46.0396 50.8716,46.3846 50.4566,46.3976 L50.4346,46.3976 Z" id="Fill-186" fill="#354546" mask="url(#mask-4)"></path>
                <path d="M56.8302,48.5099 L56.8262,48.5099 C56.4122,48.5079 56.0782,48.1699 56.0802,47.7559 L56.1352,36.9999 C56.1372,36.5869 56.4732,36.2539 56.8852,36.2539 L56.8892,36.2539 C57.3032,36.2559 57.6372,36.5939 57.6352,37.0079 L57.5802,47.7639 C57.5782,48.1769 57.2432,48.5099 56.8302,48.5099" id="Fill-187" fill="#354546" mask="url(#mask-4)"></path>
                <path d="M63.38,46.4337 L63.369,46.4337 C62.955,46.4277 62.624,46.0867 62.63,45.6727 L62.759,36.6787 C62.765,36.2677 63.099,35.9397 63.508,35.9397 L63.52,35.9397 C63.934,35.9457 64.265,36.2857 64.258,36.6997 L64.13,45.6947 C64.124,46.1057 63.789,46.4337 63.38,46.4337" id="Fill-188" fill="#354546" mask="url(#mask-4)"></path>
                <path d="M22.1241,58.7472 C23.7711,58.6532 25.1961,59.9242 25.2901,61.5712 L25.5971,67.4142 C25.6901,69.0612 24.4201,70.4862 22.7721,70.5802 L15.8621,70.8512 C14.2151,70.9452 13.3881,69.6192 13.2931,67.9722 L13.0151,62.4282 C12.9201,60.7802 13.5941,59.4112 15.2411,59.3172 L22.1241,58.7472 Z" id="Fill-189" fill="#A5B5B6" mask="url(#mask-4)"></path>
                <path d="M15.2413,59.3175 L15.2423,59.3175 L15.2413,59.3175 Z M22.1763,59.4955 L15.3033,60.0645 C15.2973,60.0655 15.2903,60.0655 15.2843,60.0665 C14.6693,60.1015 13.6523,60.4495 13.7623,62.3845 L14.0423,67.9345 C14.0813,68.6105 14.3343,70.1885 15.8193,70.1025 L22.7433,69.8315 C23.3263,69.7965 23.8763,69.5305 24.2773,69.0805 C24.6793,68.6305 24.8823,68.0535 24.8473,67.4575 L24.5413,61.6105 C24.5073,61.0175 24.2403,60.4675 23.7903,60.0665 C23.3433,59.6665 22.7703,59.4655 22.1763,59.4955 L22.1763,59.4955 Z M15.6883,71.6065 C13.9003,71.6065 12.6703,70.2195 12.5453,68.0145 L12.2653,62.4655 C12.1373,60.2135 13.2833,58.6825 15.1883,58.5695 L22.0613,58.0005 C22.0683,57.9995 22.0753,57.9995 22.0813,57.9985 C23.0783,57.9435 24.0393,58.2785 24.7893,58.9465 C25.5383,59.6155 25.9813,60.5325 26.0393,61.5285 L26.3453,67.3755 C26.4023,68.3685 26.0653,69.3295 25.3973,70.0795 C24.7283,70.8285 23.8113,71.2725 22.8153,71.3295 L15.8913,71.6005 C15.8233,71.6045 15.7553,71.6065 15.6883,71.6065 L15.6883,71.6065 Z" id="Fill-190" fill="#354546" mask="url(#mask-4)"></path>
                <path d="M35.9893,96.6358 C35.4033,105.0028 27.7653,111.6428 18.0363,111.4268 C8.3053,111.2118 0.5683,104.2408 0.7533,95.8578 C1.0903,80.6158 18.7813,71.1498 18.7813,71.1498 C18.7813,71.1498 36.9713,82.5898 35.9893,96.6358" id="Fill-191" fill="#E6E6E6" mask="url(#mask-4)"></path>
                <path d="M18.3194,105.8712 C11.1414,105.7122 5.2964,101.6632 4.4614,96.5562 C4.3624,97.1342 4.3014,97.7202 4.2884,98.3152 C4.1614,104.0782 10.4114,108.8912 18.2484,109.0632 C26.0864,109.2362 32.2194,104.6932 32.6694,98.9432 C32.7254,98.2252 32.6944,97.5102 32.5914,96.8012 C31.5264,102.0432 25.6724,106.0332 18.3194,105.8712" id="Fill-192" fill="#DBDBDB" mask="url(#mask-4)"></path>
                <path d="M18.752,72.0274 C17.592,72.6984 13.98,74.9104 10.385,78.3554 C6.426,82.1504 1.671,88.2704 1.503,95.8744 C1.418,99.7074 3.079,103.3564 6.178,106.1484 C9.309,108.9684 13.526,110.5774 18.053,110.6774 C22.528,110.7764 26.76,109.3544 29.96,106.6744 C33.094,104.0504 34.969,100.4664 35.24,96.5844 C35.51,92.7354 34.339,86.5904 27.234,79.1674 C23.641,75.4134 19.917,72.8064 18.752,72.0274 M18.489,112.1824 C18.333,112.1824 18.177,112.1804 18.02,112.1764 C13.134,112.0694 8.572,110.3244 5.174,107.2624 C1.745,104.1734 -0.091,100.1174 0.003,95.8404 C0.146,89.4054 3.387,82.9754 9.375,77.2464 C13.862,72.9524 18.243,70.5874 18.428,70.4884 C18.665,70.3614 18.952,70.3714 19.181,70.5144 C19.369,70.6334 23.857,73.4774 28.295,78.1064 C34.234,84.3024 37.154,90.7284 36.737,96.6884 L35.989,96.6354 L36.737,96.6884 C36.437,100.9814 34.372,104.9364 30.923,107.8254 C27.557,110.6434 23.157,112.1824 18.489,112.1824" id="Fill-193" fill="#A4A4A4" mask="url(#mask-4)"></path>
                <path d="M18.3829,98.9982 C18.3619,98.9982 18.3409,98.9972 18.3199,98.9972 C17.0599,98.9692 15.9689,98.0962 15.6679,96.8732 C15.5699,96.4712 15.8149,96.0642 16.2169,95.9662 C16.6189,95.8662 17.0259,96.1122 17.1239,96.5152 C17.2639,97.0802 17.7689,97.4842 18.3529,97.4972 C18.6969,97.5102 19.0259,97.3782 19.2759,97.1392 C19.5259,96.8992 19.6669,96.5782 19.6749,96.2322 C19.6839,95.8052 19.5149,95.3092 18.1919,94.8732 C18.1819,94.8702 18.1719,94.8662 18.1619,94.8622 C17.4059,94.5782 15.6369,93.9132 15.6779,92.0562 C15.7119,90.5162 16.9929,89.2892 18.5329,89.3242 C19.7929,89.3522 20.8829,90.2262 21.1849,91.4482 C21.2829,91.8512 21.0369,92.2572 20.6349,92.3552 C20.2339,92.4552 19.8269,92.2092 19.7279,91.8072 C19.5889,91.2412 19.0829,90.8372 18.4999,90.8242 C18.4899,90.8232 18.4809,90.8232 18.4709,90.8232 C17.7709,90.8232 17.1939,91.3852 17.1779,92.0892 C17.1669,92.5902 17.4089,92.9752 18.6759,93.4532 C20.3619,94.0132 21.2029,94.9592 21.1739,96.2662 C21.1569,97.0122 20.8519,97.7072 20.3129,98.2232 C19.7879,98.7242 19.1059,98.9982 18.3829,98.9982" id="Fill-194" fill="#354546" mask="url(#mask-4)"></path>
                <path d="M18.3087,100.2462 C18.3027,100.2462 18.2967,100.2462 18.2917,100.2452 C17.8777,100.2362 17.5487,99.8932 17.5587,99.4792 L17.5857,98.2302 C17.5947,97.8162 17.9427,97.4832 18.3527,97.4972 C18.7667,97.5072 19.0947,97.8502 19.0857,98.2642 L19.0577,99.5132 C19.0487,99.9212 18.7147,100.2462 18.3087,100.2462" id="Fill-195" fill="#354546" mask="url(#mask-4)"></path>
                <path d="M18.5167,90.8243 L18.4997,90.8243 C18.0857,90.8143 17.7577,90.4713 17.7667,90.0573 L17.7937,88.8083 C17.8037,88.3943 18.1407,88.0633 18.5607,88.0753 C18.9747,88.0853 19.3027,88.4283 19.2937,88.8423 L19.2667,90.0913 C19.2567,90.4993 18.9227,90.8243 18.5167,90.8243" id="Fill-196" fill="#354546" mask="url(#mask-4)"></path>
                <path d="M18.4239,86.3399 C14.1919,86.3399 10.7019,89.7359 10.6079,93.9879 C10.5129,98.2989 13.9429,101.8839 18.2529,101.9789 C22.5639,102.0769 26.1499,98.6449 26.2439,94.3329 L26.9939,94.3499 L26.2439,94.3329 C26.3399,90.0229 22.9099,86.4379 18.5989,86.3419 C18.5399,86.3409 18.4819,86.3399 18.4239,86.3399 M18.4289,103.4809 C18.3599,103.4809 18.2899,103.4809 18.2209,103.4789 C13.0819,103.3649 8.9939,99.0929 9.1089,93.9549 C9.2199,88.8869 13.3789,84.8399 18.4229,84.8399 C18.4929,84.8399 18.5619,84.8409 18.6319,84.8429 C23.7699,84.9559 27.8579,89.2289 27.7439,94.3659 C27.6319,99.4349 23.4729,103.4809 18.4289,103.4809" id="Fill-197" fill="#354546" mask="url(#mask-4)"></path>
                <polygon id="Fill-198" fill="#E6E6E6" mask="url(#mask-4)" points="16.4229 73.6212 12.6259 54.1082 16.1299 53.5132 17.0799 55.9342 18.4009 51.2942 25.3409 52.1282 19.9249 72.0912"></polygon>
                <path d="M16.422,74.3712 C16.07,74.3712 15.757,74.1222 15.687,73.7652 L11.89,54.2522 C11.852,54.0542 11.895,53.8492 12.009,53.6832 C12.124,53.5162 12.301,53.4032 12.5,53.3692 L16.004,52.7732 C16.354,52.7132 16.698,52.9072 16.828,53.2382 L16.967,53.5922 L17.679,51.0892 C17.78,50.7342 18.124,50.5062 18.489,50.5502 L25.431,51.3832 C25.647,51.4092 25.841,51.5272 25.963,51.7082 C26.085,51.8892 26.122,52.1132 26.066,52.3242 L20.649,72.2872 C20.54,72.6862 20.128,72.9232 19.729,72.8142 C19.329,72.7062 19.093,72.2942 19.201,71.8942 L24.39,52.7682 L18.946,52.1152 L17.802,56.1402 C17.714,56.4492 17.438,56.6682 17.116,56.6842 C16.795,56.7012 16.499,56.5082 16.382,56.2082 L15.654,54.3542 L13.509,54.7202 L17.159,73.4772 C17.238,73.8852 16.973,74.2782 16.567,74.3572 C16.518,74.3672 16.47,74.3712 16.422,74.3712" id="Fill-199" fill="#A4A4A4" mask="url(#mask-4)"></path>
                <path d="M20.2794,71.5352 C20.2664,71.5352 20.2534,71.5352 20.2394,71.5342 C19.8264,71.5132 19.5084,71.1592 19.5304,70.7462 L20.3474,55.2852 C20.3694,54.8712 20.7224,54.5552 21.1364,54.5752 C21.5504,54.5982 21.8674,54.9502 21.8454,55.3642 L21.0284,70.8252 C21.0074,71.2252 20.6754,71.5352 20.2794,71.5352" id="Fill-200" fill="#A4A4A4" mask="url(#mask-4)"></path>
                <path d="M13.3917,75.0977 C13.0547,75.0977 12.7527,74.8707 12.6657,74.5357 C12.5687,74.1607 12.7737,73.7727 13.1387,73.6417 L16.3337,72.4957 L13.7727,72.7017 C13.3597,72.7347 12.9977,72.4267 12.9647,72.0137 C12.9317,71.6007 13.2407,71.2397 13.6527,71.2057 L21.8377,70.5497 C22.2117,70.5197 22.5517,70.7727 22.6307,71.1397 C22.7097,71.5067 22.5047,71.8767 22.1517,72.0037 L21.4227,72.2647 L22.0667,72.1587 C22.4747,72.0917 22.8607,72.3687 22.9277,72.7767 C22.9957,73.1857 22.7187,73.5717 22.3097,73.6387 L13.5137,75.0877 C13.4727,75.0947 13.4317,75.0977 13.3917,75.0977" id="Fill-201" fill="#354546" mask="url(#mask-4)"></path>
                <path d="M24.6612,83.6749 C24.3862,83.6749 24.1202,83.5229 23.9892,83.2589 L19.9222,75.0739 L18.7442,80.3669 C18.6542,80.7719 18.2542,81.0269 17.8492,80.9369 C17.4452,80.8469 17.1902,80.4459 17.2802,80.0409 L18.9182,72.6799 C18.9872,72.3699 19.2442,72.1369 19.5592,72.0989 C19.8752,72.0589 20.1812,72.2249 20.3222,72.5089 L25.3322,82.5909 C25.5162,82.9619 25.3652,83.4119 24.9942,83.5969 C24.8872,83.6499 24.7732,83.6749 24.6612,83.6749" id="Fill-202" fill="#354546" mask="url(#mask-4)"></path>
                <path d="M12.3643,62.878 C11.5433,62.957 10.8053,62.351 10.7263,61.529 L10.6543,60.79 C10.5753,59.969 11.1813,59.232 12.0033,59.152 L15.6203,58.72 C16.4413,58.64 17.1773,59.247 17.2583,60.068 L17.3293,60.807 C17.4083,61.628 16.8013,62.365 15.9803,62.444 L12.3643,62.878 Z" id="Fill-203" fill="#A5B5B6" mask="url(#mask-4)"></path>
                <path d="M15.6993,59.4659 L12.0933,59.8979 C12.0873,59.8989 12.0813,59.8989 12.0753,59.8999 C11.6643,59.9399 11.3613,60.3069 11.4013,60.7179 L11.4723,61.4569 C11.4923,61.6539 11.5883,61.8339 11.7443,61.9619 C11.8973,62.0889 12.0903,62.1489 12.2843,62.1319 L15.8913,61.6989 C15.8973,61.6989 15.9023,61.6979 15.9083,61.6979 C16.3203,61.6579 16.6223,61.2909 16.5823,60.8789 L16.5113,60.1409 C16.4923,59.9429 16.3953,59.7629 16.2403,59.6349 C16.0863,59.5089 15.8933,59.4479 15.6993,59.4659 L15.6993,59.4659 Z M12.3643,62.8779 L12.3653,62.8779 L12.3643,62.8779 Z M12.2173,63.6349 C11.6973,63.6349 11.1973,63.4559 10.7903,63.1199 C10.3253,62.7369 10.0373,62.1979 9.9793,61.6019 L9.9083,60.8619 C9.7893,59.6309 10.6913,58.5309 11.9223,58.4069 L15.5313,57.9749 C15.5363,57.9749 15.5423,57.9739 15.5483,57.9729 C16.1433,57.9139 16.7283,58.0939 17.1933,58.4779 C17.6583,58.8609 17.9463,59.3999 18.0043,59.9959 L18.0753,60.7349 C18.1943,61.9659 17.2923,63.0659 16.0623,63.1899 L12.4533,63.6219 C12.4473,63.6229 12.4413,63.6229 12.4363,63.6239 C12.3623,63.6309 12.2893,63.6349 12.2173,63.6349 L12.2173,63.6349 Z" id="Fill-204" fill="#354546" mask="url(#mask-4)"></path>
                <path d="M12.9278,67.1065 C12.1068,67.1855 11.3688,66.5795 11.2898,65.7575 L11.2178,65.0185 C11.1388,64.1975 11.7458,63.4605 12.5668,63.3805 L16.1838,62.9485 C17.0048,62.8685 17.7408,63.4755 17.8218,64.2965 L17.8928,65.0355 C17.9718,65.8565 17.3648,66.5935 16.5438,66.6725 L12.9278,67.1065 Z" id="Fill-205" fill="#A5B5B6" mask="url(#mask-4)"></path>
                <path d="M16.2628,63.6944 L12.6568,64.1264 C12.6508,64.1274 12.6448,64.1274 12.6388,64.1284 C12.2278,64.1684 11.9248,64.5354 11.9648,64.9464 L12.0358,65.6854 C12.0758,66.0944 12.4408,66.3964 12.8478,66.3604 L16.4548,65.9274 C16.4598,65.9274 16.4658,65.9264 16.4718,65.9264 C16.6698,65.9074 16.8488,65.8104 16.9778,65.6554 C17.1058,65.5004 17.1648,65.3054 17.1468,65.1074 L17.0748,64.3694 C17.0558,64.1714 16.9588,63.9914 16.8038,63.8634 C16.6498,63.7374 16.4578,63.6764 16.2628,63.6944 L16.2628,63.6944 Z M12.9278,67.1064 L12.9288,67.1064 L12.9278,67.1064 Z M12.7818,67.8634 C11.6378,67.8634 10.6558,66.9914 10.5428,65.8304 L10.4718,65.0904 C10.3528,63.8594 11.2548,62.7594 12.4858,62.6354 L16.0938,62.2034 C16.0998,62.2034 16.1058,62.2024 16.1118,62.2014 C16.7078,62.1434 17.2918,62.3234 17.7568,62.7054 C18.2218,63.0884 18.5098,63.6284 18.5678,64.2244 L18.6388,64.9634 C18.6978,65.5594 18.5178,66.1444 18.1348,66.6094 C17.7538,67.0714 17.2188,67.3584 16.6258,67.4184 L13.0168,67.8504 C13.0108,67.8514 13.0048,67.8514 12.9988,67.8524 C12.9258,67.8594 12.8538,67.8634 12.7818,67.8634 L12.7818,67.8634 Z" id="Fill-206" fill="#354546" mask="url(#mask-4)"></path>
                <path d="M13.2852,70.9513 C12.4642,71.0303 11.7262,70.4243 11.6472,69.6023 L11.5752,68.8643 C11.4962,68.0433 12.1022,67.3053 12.9242,67.2263 L16.5412,66.7933 C17.3622,66.7143 18.0982,67.3203 18.1792,68.1413 L18.2502,68.8803 C18.3292,69.7013 17.7222,70.4383 16.9012,70.5173 L13.2852,70.9513 Z" id="Fill-207" fill="#A5B5B6" mask="url(#mask-4)"></path>
                <path d="M16.6202,67.5392 L13.0142,67.9712 C13.0082,67.9722 13.0022,67.9732 12.9962,67.9732 C12.7992,67.9922 12.6192,68.0882 12.4912,68.2432 C12.3632,68.3992 12.3032,68.5942 12.3222,68.7922 L12.3932,69.5302 C12.4332,69.9392 12.7982,70.2402 13.2052,70.2052 L16.8122,69.7732 C16.8172,69.7722 16.8232,69.7712 16.8292,69.7712 C17.2402,69.7312 17.5432,69.3642 17.5032,68.9522 L17.4322,68.2142 C17.3922,67.8052 17.0312,67.5042 16.6202,67.5392 L16.6202,67.5392 Z M13.2852,70.9512 L13.2862,70.9512 L13.2852,70.9512 Z M13.1392,71.7082 C11.9952,71.7082 11.0132,70.8362 10.9002,69.6752 L10.8292,68.9362 C10.7712,68.3402 10.9502,67.7552 11.3332,67.2902 C11.7142,66.8282 12.2502,66.5402 12.8432,66.4802 L16.4512,66.0482 C16.4572,66.0482 16.4632,66.0472 16.4692,66.0472 C17.7032,65.9272 18.8062,66.8352 18.9252,68.0692 L18.9962,68.8082 C19.1152,70.0402 18.2132,71.1402 16.9832,71.2642 L13.3742,71.6952 C13.3682,71.6962 13.3622,71.6972 13.3562,71.6972 C13.2832,71.7052 13.2112,71.7082 13.1392,71.7082 L13.1392,71.7082 Z" id="Fill-208" fill="#354546" mask="url(#mask-4)"></path>
                <path d="M18.1202,58.9688 C18.4972,58.3058 19.3982,58.0818 20.1242,58.4718 L20.7772,58.8228 C21.5032,59.2108 21.7882,60.0728 21.4112,60.7358 L17.9672,66.7918 C17.5902,67.4548 16.6872,67.6778 15.9622,67.2888 L15.3082,66.9388 C14.5832,66.5488 14.2982,65.6888 14.6752,65.0258 L18.1202,58.9688 Z" id="Fill-209" fill="#A5B5B6" mask="url(#mask-4)"></path>
                <path d="M18.1202,58.9688 L18.1212,58.9688 L18.1202,58.9688 Z M19.3632,59.0308 C19.1162,59.0308 18.8852,59.1398 18.7712,59.3388 L15.3272,65.3968 C15.2352,65.5578 15.2522,65.7178 15.2822,65.8228 C15.3372,66.0108 15.4752,66.1768 15.6632,66.2778 L16.3162,66.6278 C16.6832,66.8238 17.1402,66.7298 17.3142,66.4208 L20.7602,60.3648 C20.8512,60.2028 20.8342,60.0428 20.8042,59.9368 C20.7492,59.7488 20.6102,59.5838 20.4232,59.4838 L19.7692,59.1328 C19.6412,59.0638 19.4992,59.0308 19.3632,59.0308 L19.3632,59.0308 Z M16.7182,68.2298 C16.3432,68.2298 15.9612,68.1398 15.6072,67.9488 L14.9542,67.5988 C14.4122,67.3088 14.0072,66.8128 13.8422,66.2398 C13.6852,65.6978 13.7502,65.1348 14.0222,64.6548 L17.4682,58.5978 C18.0452,57.5818 19.3962,57.2298 20.4792,57.8108 L21.1322,58.1608 C21.6742,58.4518 22.0792,58.9478 22.2452,59.5218 C22.4012,60.0628 22.3362,60.6258 22.0632,61.1058 L18.6182,67.1628 C18.2292,67.8468 17.4902,68.2298 16.7182,68.2298 L16.7182,68.2298 Z" id="Fill-210" fill="#354546" mask="url(#mask-4)"></path>
                <path d="M25.1563,62.5655 L25.0393,60.8065 C24.9293,59.1605 23.4933,57.9025 21.8463,58.0125 L20.0873,58.1295 C18.4403,58.2395 17.1833,59.6755 17.2933,61.3225 L17.4113,63.0825 C17.5203,64.7275 18.9573,65.9855 20.6033,65.8765 L22.3623,65.7575 C24.0093,65.6485 25.2663,64.2115 25.1563,62.5655" id="Fill-211" fill="#A5B5B6" mask="url(#mask-4)"></path>
                <path d="M22.0479,58.756 C21.9969,58.756 21.9469,58.757 21.8969,58.761 L20.1369,58.878 C18.8999,58.961 17.9589,60.035 18.0419,61.273 L18.1589,63.031 C18.1989,63.628 18.4709,64.176 18.9249,64.572 C19.3789,64.97 19.9579,65.167 20.5539,65.127 L22.3129,65.01 C23.5509,64.928 24.4899,63.854 24.4079,62.615 L24.2909,60.857 C24.2119,59.669 23.2209,58.756 22.0479,58.756 M20.4009,66.632 C19.4949,66.632 18.6289,66.307 17.9369,65.701 C17.1819,65.04 16.7289,64.128 16.6619,63.132 L16.5449,61.372 C16.4789,60.376 16.8069,59.411 17.4679,58.656 C18.1289,57.901 19.0409,57.447 20.0369,57.381 L21.7969,57.264 C22.7929,57.198 23.7579,57.526 24.5129,58.187 C25.2689,58.848 25.7219,59.76 25.7879,60.757 L25.7879,60.756 L25.9049,62.516 C26.0419,64.578 24.4759,66.369 22.4129,66.507 L20.6529,66.624 C20.5689,66.63 20.4849,66.632 20.4009,66.632" id="Fill-212" fill="#354546" mask="url(#mask-4)"></path>
                <path d="M90.6348,58.7472 C88.9878,58.6532 87.5628,59.9242 87.4688,61.5712 L87.1618,67.4142 C87.0678,69.0612 88.3388,70.4862 89.9868,70.5802 L96.8968,70.8512 C98.5438,70.9452 99.3708,69.6192 99.4648,67.9722 L99.7438,62.4282 C99.8378,60.7802 99.1648,59.4112 97.5178,59.3172 L90.6348,58.7472 Z" id="Fill-213" fill="#A5B5B6" mask="url(#mask-4)"></path>
                <path d="M90.462,59.4923 C89.912,59.4923 89.386,59.6933 88.968,60.0663 C88.518,60.4683 88.251,61.0173 88.217,61.6143 L87.911,67.4533 C87.877,68.0543 88.079,68.6303 88.481,69.0803 C88.882,69.5303 89.432,69.7973 90.028,69.8313 L96.926,70.1013 C97.474,70.1343 97.879,69.9673 98.18,69.5943 C98.486,69.2143 98.677,68.6233 98.717,67.9293 L98.995,62.3903 C99.043,61.5553 98.908,60.1473 97.475,60.0663 C97.468,60.0653 97.462,60.0653 97.455,60.0643 L90.583,59.4953 C90.543,59.4933 90.502,59.4923 90.462,59.4923 M97.062,71.6063 C96.993,71.6063 96.924,71.6043 96.854,71.6003 L89.956,71.3293 C88.946,71.2723 88.029,70.8283 87.361,70.0793 C86.693,69.3293 86.357,68.3683 86.413,67.3713 L86.72,61.5323 C86.776,60.5323 87.221,59.6153 87.97,58.9463 C88.719,58.2783 89.68,57.9413 90.677,57.9983 C90.684,57.9993 90.691,57.9993 90.696,58.0003 L97.57,58.5693 C99.475,58.6823 100.622,60.2133 100.493,62.4713 L100.214,68.0103 C100.156,69.0333 99.856,69.9053 99.347,70.5363 C98.779,71.2383 97.992,71.6063 97.062,71.6063" id="Fill-214" fill="#354546" mask="url(#mask-4)"></path>
                <path d="M76.7696,96.6358 C77.3546,105.0028 84.9926,111.6428 94.7226,111.4268 C104.4536,111.2118 112.1906,104.2408 112.0046,95.8578 C111.6686,80.6158 93.9766,71.1498 93.9766,71.1498 C93.9766,71.1498 75.7876,82.5898 76.7696,96.6358" id="Fill-215" fill="#E6E6E6" mask="url(#mask-4)"></path>
                <path d="M94.4395,105.8712 C101.6175,105.7122 107.4615,101.6632 108.2975,96.5562 C108.3965,97.1342 108.4575,97.7202 108.4695,98.3152 C108.5975,104.0782 102.3475,108.8912 94.5095,109.0632 C86.6725,109.2362 80.5385,104.6932 80.0885,98.9432 C80.0335,98.2252 80.0645,97.5102 80.1665,96.8012 C81.2325,102.0432 87.0855,106.0332 94.4395,105.8712" id="Fill-216" fill="#DBDBDB" mask="url(#mask-4)"></path>
                <path d="M94.0059,72.0274 C92.8419,72.8064 89.1179,75.4134 85.5249,79.1674 C81.6029,83.2644 77.0299,89.6114 77.5179,96.5844 C77.7889,100.4664 79.6649,104.0504 82.7979,106.6744 C85.9989,109.3544 90.2269,110.7774 94.7059,110.6774 C99.2329,110.5774 103.4489,108.9684 106.5799,106.1484 C109.6799,103.3564 111.3399,99.7074 111.2559,95.8744 C111.1629,91.6764 109.5469,85.2304 102.3739,78.3554 C98.7779,74.9104 95.1659,72.6984 94.0059,72.0274 M94.2689,112.1824 C89.6009,112.1824 85.2019,110.6434 81.8349,107.8254 C78.3869,104.9364 76.3209,100.9814 76.0219,96.6884 C75.6049,90.7284 78.5239,84.3024 84.4639,78.1064 C88.9019,73.4774 93.3889,70.6334 93.5779,70.5144 C93.8059,70.3714 94.0939,70.3614 94.3309,70.4884 C94.5149,70.5874 98.8959,72.9524 103.3829,77.2464 C109.3719,82.9754 112.6129,89.4054 112.7549,95.8404 C112.8499,100.1174 111.0139,104.1734 107.5839,107.2624 C104.1869,110.3244 99.6249,112.0694 94.7389,112.1764 C94.5819,112.1804 94.4249,112.1824 94.2689,112.1824" id="Fill-217" fill="#A4A4A4" mask="url(#mask-4)"></path>
                <path d="M94.2882,98.9982 C94.2672,98.9982 94.2462,98.9972 94.2262,98.9972 C92.9662,98.9692 91.8752,98.0962 91.5742,96.8732 C91.4752,96.4712 91.7212,96.0642 92.1232,95.9662 C92.5252,95.8662 92.9322,96.1122 93.0302,96.5152 C93.1702,97.0802 93.6752,97.4842 94.2592,97.4972 C94.9712,97.5192 95.5642,96.9452 95.5812,96.2322 C95.5902,95.8052 95.4212,95.3092 94.0982,94.8732 C94.0882,94.8702 94.0782,94.8662 94.0682,94.8622 C93.3122,94.5782 91.5432,93.9132 91.5842,92.0562 C91.6002,91.3102 91.9072,90.6142 92.4462,90.0992 C92.9852,89.5832 93.6932,89.3122 94.4392,89.3242 C95.6992,89.3522 96.7892,90.2262 97.0912,91.4482 C97.1892,91.8512 96.9432,92.2572 96.5412,92.3552 C96.1402,92.4552 95.7332,92.2092 95.6342,91.8072 C95.4942,91.2412 94.9892,90.8372 94.4062,90.8242 C94.0632,90.8132 93.7322,90.9432 93.4832,91.1832 C93.2332,91.4222 93.0922,91.7432 93.0842,92.0892 C93.0732,92.5902 93.3152,92.9752 94.5822,93.4532 C96.2682,94.0132 97.1092,94.9592 97.0802,96.2662 C97.0472,97.7852 95.8002,98.9982 94.2882,98.9982" id="Fill-218" fill="#354546" mask="url(#mask-4)"></path>
                <path d="M94.2149,100.2462 C94.2089,100.2462 94.2029,100.2462 94.1979,100.2452 C93.7839,100.2362 93.4549,99.8932 93.4649,99.4792 L93.4919,98.2302 C93.5009,97.8162 93.8499,97.4832 94.2589,97.4972 C94.6729,97.5072 95.0009,97.8502 94.9919,98.2642 L94.9639,99.5132 C94.9549,99.9212 94.6209,100.2462 94.2149,100.2462" id="Fill-219" fill="#354546" mask="url(#mask-4)"></path>
                <path d="M94.4229,90.8243 L94.4059,90.8243 C93.9919,90.8143 93.6629,90.4713 93.6729,90.0573 L93.6999,88.8083 C93.7099,88.3943 94.0529,88.0633 94.4669,88.0753 C94.8809,88.0853 95.2089,88.4283 95.1999,88.8423 L95.1719,90.0913 C95.1629,90.4993 94.8289,90.8243 94.4229,90.8243" id="Fill-220" fill="#354546" mask="url(#mask-4)"></path>
                <path d="M94.3302,86.3399 C90.0982,86.3399 86.6072,89.7359 86.5142,93.9879 C86.4192,98.2989 89.8492,101.8839 94.1592,101.9789 C98.4712,102.0769 102.0562,98.6449 102.1502,94.3329 L102.9002,94.3499 L102.1502,94.3329 C102.2462,90.0229 98.8162,86.4379 94.5052,86.3419 C94.4462,86.3409 94.3882,86.3399 94.3302,86.3399 M94.3352,103.4809 C94.2662,103.4809 94.1962,103.4809 94.1262,103.4789 C88.9882,103.3649 84.9002,99.0929 85.0152,93.9549 C85.1262,88.8869 89.2852,84.8399 94.3292,84.8399 C94.3992,84.8399 94.4682,84.8409 94.5382,84.8429 C99.6762,84.9559 103.7642,89.2289 103.6502,94.3659 C103.5382,99.4349 99.3792,103.4809 94.3352,103.4809" id="Fill-221" fill="#354546" mask="url(#mask-4)"></path>
                <polygon id="Fill-222" fill="#E6E6E6" mask="url(#mask-4)" points="96.336 73.6212 100.133 54.1082 96.629 53.5132 95.679 55.9342 94.358 51.2942 87.417 52.1282 92.833 72.0912"></polygon>
                <path d="M96.336,74.3712 C96.289,74.3712 96.24,74.3672 96.192,74.3572 C95.786,74.2782 95.521,73.8852 95.6,73.4772 L99.25,54.7202 L97.104,54.3542 L96.377,56.2082 C96.259,56.5082 95.965,56.6992 95.642,56.6842 C95.32,56.6682 95.045,56.4492 94.957,56.1402 L93.812,52.1152 L88.368,52.7682 L93.558,71.8942 C93.666,72.2942 93.43,72.7062 93.03,72.8142 C92.63,72.9242 92.218,72.6862 92.109,72.2872 L86.693,52.3242 C86.637,52.1132 86.674,51.8892 86.795,51.7082 C86.917,51.5272 87.111,51.4092 87.328,51.3832 L94.269,50.5502 C94.635,50.5062 94.979,50.7342 95.079,51.0892 L95.792,53.5922 L95.931,53.2382 C96.061,52.9072 96.404,52.7122 96.755,52.7732 L100.258,53.3692 C100.457,53.4032 100.635,53.5162 100.749,53.6832 C100.864,53.8492 100.907,54.0542 100.869,54.2522 L97.071,73.7652 C97.002,74.1222 96.689,74.3712 96.336,74.3712" id="Fill-223" fill="#A4A4A4" mask="url(#mask-4)"></path>
                <path d="M92.4786,71.5352 C92.0826,71.5352 91.7516,71.2252 91.7306,70.8252 L90.9136,55.3642 C90.8906,54.9502 91.2076,54.5982 91.6226,54.5752 C92.0376,54.5532 92.3886,54.8712 92.4116,55.2852 L93.2286,70.7462 C93.2496,71.1592 92.9326,71.5132 92.5186,71.5342 C92.5056,71.5352 92.4926,71.5352 92.4786,71.5352" id="Fill-224" fill="#A4A4A4" mask="url(#mask-4)"></path>
                <path d="M99.3673,75.0977 C99.3273,75.0977 99.2863,75.0947 99.2453,75.0877 L90.4483,73.6387 C90.0403,73.5717 89.7633,73.1857 89.8303,72.7767 C89.8973,72.3687 90.2843,72.0907 90.6923,72.1587 L91.3353,72.2647 L90.6073,72.0037 C90.2543,71.8767 90.0483,71.5067 90.1283,71.1397 C90.2073,70.7727 90.5453,70.5197 90.9213,70.5497 L99.1053,71.2057 C99.5183,71.2397 99.8263,71.6007 99.7933,72.0137 C99.7613,72.4267 99.3993,72.7347 98.9853,72.7017 L96.4253,72.4957 L99.6203,73.6417 C99.9853,73.7727 100.1893,74.1607 100.0933,74.5357 C100.0063,74.8707 99.7033,75.0977 99.3673,75.0977" id="Fill-225" fill="#354546" mask="url(#mask-4)"></path>
                <path d="M88.0968,83.6749 C87.9858,83.6749 87.8708,83.6499 87.7638,83.5969 C87.3928,83.4119 87.2418,82.9619 87.4258,82.5909 L92.4368,72.5089 C92.5778,72.2249 92.8838,72.0579 93.1998,72.0989 C93.5148,72.1369 93.7718,72.3699 93.8398,72.6799 L95.4788,80.0409 C95.5688,80.4459 95.3138,80.8469 94.9088,80.9369 C94.5048,81.0269 94.1038,80.7719 94.0138,80.3669 L92.8358,75.0739 L88.7698,83.2589 C88.6388,83.5229 88.3728,83.6749 88.0968,83.6749" id="Fill-226" fill="#354546" mask="url(#mask-4)"></path>
                <path d="M100.3946,62.878 C101.2156,62.957 101.9536,62.351 102.0326,61.529 L102.1036,60.79 C102.1836,59.969 101.5766,59.232 100.7546,59.152 L97.1386,58.72 C96.3176,58.64 95.5806,59.247 95.5006,60.068 L95.4296,60.807 C95.3496,61.628 95.9576,62.365 96.7786,62.444 L100.3946,62.878 Z" id="Fill-227" fill="#A5B5B6" mask="url(#mask-4)"></path>
                <path d="M100.4737,62.1319 C100.6687,62.1489 100.8617,62.0889 101.0147,61.9619 C101.1697,61.8339 101.2667,61.6539 101.2857,61.4569 L101.3577,60.7179 C101.3977,60.3069 101.0947,59.9399 100.6827,59.8999 C100.6777,59.8989 100.6717,59.8989 100.6657,59.8979 L97.0597,59.4659 C96.8647,59.4479 96.6717,59.5079 96.5187,59.6349 C96.3637,59.7629 96.2667,59.9429 96.2467,60.1409 L96.1757,60.8789 C96.1357,61.2909 96.4387,61.6579 96.8507,61.6979 C96.8557,61.6979 96.8617,61.6989 96.8677,61.6989 L100.4737,62.1319 Z M100.5417,63.6349 C100.4687,63.6349 100.3957,63.6309 100.3227,63.6239 C100.3167,63.6229 100.3117,63.6229 100.3057,63.6219 L96.6967,63.1899 C95.4657,63.0659 94.5637,61.9659 94.6827,60.7349 L94.7547,59.9959 C94.8127,59.3999 95.0997,58.8609 95.5647,58.4779 C96.0297,58.0949 96.6147,57.9149 97.2107,57.9729 C97.2167,57.9739 97.2217,57.9749 97.2277,57.9749 L100.8367,58.4069 C102.0667,58.5309 102.9697,59.6309 102.8507,60.8619 L102.7787,61.6019 C102.7207,62.1979 102.4327,62.7369 101.9687,63.1199 C101.5607,63.4559 101.0607,63.6349 100.5417,63.6349 L100.5417,63.6349 Z" id="Fill-228" fill="#354546" mask="url(#mask-4)"></path>
                <path d="M99.8311,67.1065 C100.6521,67.1855 101.3901,66.5795 101.4691,65.7575 L101.5401,65.0185 C101.6201,64.1975 101.0131,63.4605 100.1911,63.3805 L96.5751,62.9485 C95.7541,62.8685 95.0171,63.4755 94.9371,64.2965 L94.8661,65.0355 C94.7861,65.8565 95.3941,66.5935 96.2151,66.6725 L99.8311,67.1065 Z" id="Fill-229" fill="#A5B5B6" mask="url(#mask-4)"></path>
                <path d="M99.9102,66.3604 C100.3192,66.3944 100.6822,66.0944 100.7222,65.6854 L100.7942,64.9464 C100.8332,64.5354 100.5312,64.1684 100.1192,64.1284 C100.1142,64.1274 100.1082,64.1274 100.1022,64.1264 L96.4962,63.6944 C96.3002,63.6764 96.1082,63.7374 95.9552,63.8634 C95.7992,63.9914 95.7032,64.1714 95.6832,64.3694 L95.6122,65.1074 C95.5942,65.3054 95.6532,65.5004 95.7812,65.6554 C95.9092,65.8104 96.0892,65.9074 96.2862,65.9264 C96.2922,65.9264 96.2982,65.9274 96.3042,65.9274 L99.9102,66.3604 Z M99.9772,67.8634 C99.9052,67.8634 99.8322,67.8594 99.7592,67.8524 C99.7532,67.8514 99.7482,67.8514 99.7422,67.8504 L96.1332,67.4184 C95.5402,67.3584 95.0042,67.0714 94.6232,66.6094 C94.2402,66.1444 94.0612,65.5594 94.1192,64.9634 L94.1912,64.2244 C94.2492,63.6284 94.5362,63.0884 95.0012,62.7054 C95.4662,62.3224 96.0512,62.1434 96.6472,62.2014 C96.6532,62.2024 96.6582,62.2034 96.6642,62.2034 L100.2732,62.6354 C101.5042,62.7594 102.4062,63.8594 102.2872,65.0904 L102.2152,65.8304 C102.1022,66.9914 101.1212,67.8634 99.9772,67.8634 L99.9772,67.8634 Z" id="Fill-230" fill="#354546" mask="url(#mask-4)"></path>
                <path d="M99.4737,70.9513 C100.2947,71.0303 101.0327,70.4243 101.1117,69.6023 L101.1827,68.8643 C101.2627,68.0433 100.6557,67.3053 99.8337,67.2263 L96.2177,66.7933 C95.3967,66.7143 94.6597,67.3203 94.5797,68.1413 L94.5087,68.8803 C94.4287,69.7013 95.0367,70.4383 95.8577,70.5173 L99.4737,70.9513 Z" id="Fill-231" fill="#A5B5B6" mask="url(#mask-4)"></path>
                <path d="M99.5528,70.2052 C99.9608,70.2412 100.3248,69.9392 100.3648,69.5302 L100.4368,68.7912 C100.4548,68.5942 100.3958,68.3992 100.2678,68.2432 C100.1398,68.0882 99.9598,67.9922 99.7618,67.9732 C99.7568,67.9732 99.7508,67.9722 99.7448,67.9712 L96.1388,67.5392 C95.7288,67.5022 95.3658,67.8052 95.3258,68.2142 L95.2548,68.9522 C95.2148,69.3642 95.5178,69.7312 95.9298,69.7712 C95.9348,69.7712 95.9408,69.7722 95.9468,69.7732 L99.5528,70.2052 Z M99.6198,71.7082 C99.5478,71.7082 99.4748,71.7052 99.4018,71.6972 C99.3958,71.6972 99.3898,71.6962 99.3848,71.6952 L95.7758,71.2642 C94.5448,71.1402 93.6428,70.0402 93.7618,68.8082 L93.8328,68.0692 C93.9528,66.8352 95.0548,65.9252 96.2898,66.0472 C96.2948,66.0472 96.3008,66.0482 96.3068,66.0482 L99.9158,66.4802 C100.5088,66.5402 101.0448,66.8282 101.4248,67.2902 C101.8078,67.7552 101.9878,68.3402 101.9298,68.9362 L101.8578,69.6752 C101.7448,70.8362 100.7638,71.7082 99.6198,71.7082 L99.6198,71.7082 Z" id="Fill-232" fill="#354546" mask="url(#mask-4)"></path>
                <path d="M94.6387,58.9688 C94.2617,58.3058 93.3597,58.0818 92.6337,58.4718 L91.9817,58.8228 C91.2557,59.2108 90.9697,60.0728 91.3467,60.7358 L94.7917,66.7918 C95.1687,67.4548 96.0717,67.6778 96.7967,67.2888 L97.4497,66.9388 C98.1747,66.5488 98.4597,65.6888 98.0827,65.0258 L94.6387,58.9688 Z" id="Fill-233" fill="#A5B5B6" mask="url(#mask-4)"></path>
                <path d="M93.3946,59.0304 C93.2586,59.0304 93.1186,59.0634 92.9886,59.1334 L92.3356,59.4824 C92.1476,59.5844 92.0086,59.7494 91.9556,59.9364 C91.9246,60.0434 91.9076,60.2034 91.9986,60.3644 L95.4446,66.4214 C95.6196,66.7294 96.0766,66.8244 96.4426,66.6284 L97.0946,66.2774 C97.2836,66.1764 97.4216,66.0104 97.4756,65.8234 C97.5056,65.7174 97.5236,65.5574 97.4316,65.3964 L93.9866,59.3394 C93.8736,59.1394 93.6426,59.0304 93.3946,59.0304 M96.0406,68.2294 C95.2686,68.2294 94.5286,67.8464 94.1396,67.1634 L90.6956,61.1054 C90.4216,60.6264 90.3576,60.0624 90.5136,59.5214 C90.6786,58.9474 91.0846,58.4524 91.6266,58.1614 L92.2796,57.8104 C93.3626,57.2294 94.7126,57.5824 95.2906,58.5974 L98.7356,64.6544 C99.0086,65.1344 99.0736,65.6974 98.9166,66.2394 C98.7516,66.8124 98.3456,67.3084 97.8036,67.5994 L97.1516,67.9494 C96.7976,68.1394 96.4156,68.2294 96.0406,68.2294" id="Fill-234" fill="#354546" mask="url(#mask-4)"></path>
                <path d="M92.671,58.13 L90.912,58.013 C89.266,57.902 87.829,59.16 87.719,60.807 L87.602,62.566 C87.492,64.212 88.749,65.649 90.396,65.758 L92.155,65.876 C93.801,65.985 95.238,64.728 95.348,63.082 L95.465,61.322 C95.575,59.676 94.317,58.239 92.671,58.13" id="Fill-235" fill="#A5B5B6" mask="url(#mask-4)"></path>
                <path d="M87.7188,60.8067 L87.7208,60.8067 L87.7188,60.8067 Z M90.7108,58.7557 C89.5378,58.7557 88.5468,59.6687 88.4678,60.8567 L88.3508,62.6157 C88.2678,63.8537 89.2078,64.9277 90.4458,65.0097 L92.2048,65.1267 C92.8008,65.1667 93.3798,64.9697 93.8338,64.5727 C94.2878,64.1757 94.5598,63.6277 94.5998,63.0327 L94.7168,61.2727 C94.7988,60.0357 93.8598,58.9607 92.6208,58.8777 L90.8628,58.7607 C90.8118,58.7567 90.7608,58.7557 90.7108,58.7557 L90.7108,58.7557 Z M92.3578,66.6317 C92.2738,66.6317 92.1898,66.6297 92.1058,66.6237 L90.3458,66.5067 C88.2818,66.3687 86.7158,64.5777 86.8538,62.5157 L86.9708,60.7557 C87.0368,59.7597 87.4898,58.8477 88.2448,58.1867 C89.0008,57.5257 89.9658,57.1987 90.9618,57.2637 L92.7208,57.3807 C93.7168,57.4477 94.6298,57.9007 95.2908,58.6567 C95.9518,59.4107 96.2808,60.3757 96.2128,61.3717 L96.0958,63.1317 C96.0298,64.1277 95.5768,65.0397 94.8218,65.7017 C94.1298,66.3067 93.2638,66.6317 92.3578,66.6317 L92.3578,66.6317 Z" id="Fill-236" fill="#354546" mask="url(#mask-4)"></path>
            </g>
        </g>
    </g>
</svg>