<?xml version="1.0" encoding="UTF-8"?>
<svg width="94px" height="122px" viewBox="0 0 94 122" version="1.1" xmlns="http://www.w3.org/2000/svg" xmlns:xlink="http://www.w3.org/1999/xlink">
    <!-- Generator: Sketch 42 (36781) - http://www.bohemiancoding.com/sketch -->
    <title>12</title>
    <desc>Created with Sketch.</desc>
    <defs>
        <polygon id="path-1" points="64.1826 8 0.9156 8 0.9156 0.3776 64.1826 0.3776 64.1826 8"></polygon>
        <polygon id="path-3" points="0 122.041 93.232 122.041 93.232 0 0 0"></polygon>
    </defs>
    <g id="Page-1" stroke="none" stroke-width="1" fill="none" fill-rule="evenodd">
        <g id="1024" transform="translate(0.000000, -246.000000)">
            <g id="12" transform="translate(0.000000, 246.000000)">
                <g id="Group-3" transform="translate(10.000000, 114.041000)">
                    <mask id="mask-2" fill="white">
                        <use xlink:href="#path-1"></use>
                    </mask>
                    <g id="Clip-2"></g>
                    <path d="M64.1826,4.1886 C64.1826,6.2936 50.0196,8.0006 32.5486,8.0006 C15.0786,8.0006 0.9156,6.2936 0.9156,4.1886 C0.9156,2.0846 15.0786,0.3776 32.5486,0.3776 C50.0196,0.3776 64.1826,2.0846 64.1826,4.1886" id="Fill-1" fill="#CCCCCC" mask="url(#mask-2)"></path>
                </g>
                <mask id="mask-4" fill="white">
                    <use xlink:href="#path-3"></use>
                </mask>
                <g id="Clip-5"></g>
                <polygon id="Fill-4" fill="#758586" mask="url(#mask-4)" points="34.167 87.555 50.285 87.555 50.285 75.949 34.167 75.949"></polygon>
                <path d="M34.917,86.805 L49.535,86.805 L49.535,76.699 L34.917,76.699 L34.917,86.805 Z M50.285,88.305 L34.167,88.305 C33.752,88.305 33.417,87.969 33.417,87.555 L33.417,75.948 C33.417,75.534 33.752,75.198 34.167,75.198 L50.285,75.198 C50.699,75.198 51.035,75.534 51.035,75.948 L51.035,87.555 C51.035,87.969 50.699,88.305 50.285,88.305 L50.285,88.305 Z" id="Fill-6" fill="#354546" mask="url(#mask-4)"></path>
                <polygon id="Fill-7" fill="#758586" mask="url(#mask-4)" points="37.827 61.398 47.169 61.398 47.169 52.895 37.827 52.895"></polygon>
                <path d="M38.577,60.649 L46.419,60.649 L46.419,53.645 L38.577,53.645 L38.577,60.649 Z M47.169,62.149 L37.827,62.149 C37.413,62.149 37.077,61.813 37.077,61.399 L37.077,52.895 C37.077,52.481 37.413,52.145 37.827,52.145 L47.169,52.145 C47.584,52.145 47.919,52.481 47.919,52.895 L47.919,61.399 C47.919,61.813 47.584,62.149 47.169,62.149 L47.169,62.149 Z" id="Fill-8" fill="#354546" mask="url(#mask-4)"></path>
                <path d="M47.1699,58.3985 C47.1559,58.3985 47.1429,58.3975 47.1289,58.3975 L37.7859,57.8955 C37.3729,57.8735 37.0559,57.5195 37.0779,57.1065 C37.0999,56.6925 37.4539,56.3775 37.8669,56.3975 L47.2099,56.8995 C47.6229,56.9205 47.9409,57.2745 47.9179,57.6885 C47.8969,58.0875 47.5659,58.3985 47.1699,58.3985" id="Fill-9" fill="#354546" mask="url(#mask-4)"></path>
                <path d="M24.2178,62.8536 C25.0788,62.9036 25.9378,62.9676 26.7968,63.0476 C27.2268,63.0866 27.6558,63.1306 28.0878,63.1796 L28.7368,63.2556 L29.4088,63.3446 L28.7448,67.8626 L28.1758,67.7886 L27.5788,67.7176 C27.1798,67.6726 26.7778,67.6316 26.3748,67.5946 C25.5708,67.5196 24.7628,67.4586 23.9548,67.4136 L24.2178,62.8536 Z" id="Fill-10" fill="#F9BF3B" mask="url(#mask-4)"></path>
                <path d="M28.6474,68.6065 L28.0774,68.5315 L27.4914,68.4615 C27.1234,68.4205 26.7334,68.3805 26.3054,68.3405 C25.5124,68.2675 24.7074,68.2075 23.9124,68.1615 L23.9984,66.6645 C24.8104,66.7105 25.6324,66.7725 26.4444,66.8475 C26.8824,66.8885 27.2814,66.9295 27.6634,66.9725 L28.2624,67.0435 L28.8424,67.1195 L28.6474,68.6065 Z" id="Fill-11" fill="#F1892D" mask="url(#mask-4)"></path>
                <path d="M29.3115,64.088 L28.6375,63.999 L27.9995,63.924 C27.5965,63.879 27.1785,63.836 26.7275,63.794 C25.8825,63.716 25.0235,63.651 24.1745,63.603 L24.2605,62.105 C25.1275,62.155 26.0035,62.221 26.8665,62.301 C27.3285,62.344 27.7545,62.387 28.1715,62.435 L28.8245,62.511 L29.5065,62.601 L29.3115,64.088 Z" id="Fill-12" fill="#F1892D" mask="url(#mask-4)"></path>
                <polygon id="Fill-13" fill="#F1892D" mask="url(#mask-4)" points="27.1221 67.6642 25.6291 67.5252 26.0511 62.9782 27.5441 63.1172"></polygon>
                <path d="M19.0264,62.7501 C20.7664,62.7141 22.4964,62.7551 24.2174,62.8541 L23.9554,67.4131 C22.3394,67.3191 20.7234,67.2821 19.1224,67.3151 L19.0264,62.7501 Z" id="Fill-14" fill="#F9BF3B" mask="url(#mask-4)"></path>
                <path d="M23.9121,68.1612 C22.2571,68.0662 20.6501,68.0342 19.1381,68.0652 L19.1061,66.5652 C20.6581,66.5342 22.3041,66.5662 23.9981,66.6642 L23.9121,68.1612 Z" id="Fill-15" fill="#F1892D" mask="url(#mask-4)"></path>
                <path d="M24.1748,63.6026 C22.3768,63.4986 20.6978,63.4646 19.0418,63.4986 L19.0118,61.9996 C20.7068,61.9656 22.4238,61.9986 24.2608,62.1046 L24.1748,63.6026 Z" id="Fill-16" fill="#F1892D" mask="url(#mask-4)"></path>
                <polygon id="Fill-17" fill="#F1892D" mask="url(#mask-4)" points="22.2832 67.3321 20.7832 67.3011 20.8792 62.7351 22.3792 62.7671"></polygon>
                <path d="M13.7685,63.1388 C15.5355,62.8988 17.2865,62.7868 19.0265,62.7498 L19.1225,67.3158 C17.5205,67.3498 15.9305,67.4528 14.3835,67.6628 L13.7685,63.1388 Z" id="Fill-18" fill="#F9BF3B" mask="url(#mask-4)"></path>
                <path d="M14.4853,68.4063 L14.2833,66.9203 C15.7583,66.7193 17.3363,66.6033 19.1053,66.5653 L19.1373,68.0653 C17.4253,68.1013 15.9043,68.2133 14.4853,68.4063" id="Fill-19" fill="#F1892D" mask="url(#mask-4)"></path>
                <path d="M13.8691,63.881 L13.6681,62.396 C15.3181,62.171 17.0651,62.042 19.0111,62 L19.0431,63.499 C17.1551,63.54 15.4631,63.665 13.8691,63.881" id="Fill-20" fill="#F1892D" mask="url(#mask-4)"></path>
                <polygon id="Fill-21" fill="#F1892D" mask="url(#mask-4)" points="15.9844 67.4767 15.6594 62.9207 17.1554 62.8147 17.4804 67.3697"></polygon>
                <path d="M8.4316,64.3751 C9.3256,64.0551 10.2186,63.8101 11.1086,63.6101 C11.9986,63.4111 12.8856,63.2571 13.7686,63.1391 L14.3836,67.6631 C13.6106,67.7671 12.8486,67.9001 12.1086,68.0661 C11.3676,68.2311 10.6466,68.4321 9.9656,68.6761 L8.4316,64.3751 Z" id="Fill-22" fill="#F9BF3B" mask="url(#mask-4)"></path>
                <path d="M10.2187,69.3819 L9.7127,67.9699 C10.3887,67.7279 11.1397,67.5139 11.9457,67.3339 C12.6817,67.1689 13.4697,67.0289 14.2837,66.9199 L14.4837,68.4059 C13.7127,68.5099 12.9687,68.6419 12.2727,68.7979 C11.5267,68.9649 10.8357,69.1609 10.2187,69.3819" id="Fill-23" fill="#F1892D" mask="url(#mask-4)"></path>
                <path d="M8.6846,65.0811 L8.1786,63.6691 C9.0406,63.3601 9.9466,63.1021 10.9456,62.8791 C11.8236,62.6821 12.7136,62.5231 13.6686,62.3941 L13.8696,63.8821 C12.9576,64.0041 12.1086,64.1551 11.2736,64.3431 C10.3336,64.5521 9.4876,64.7941 8.6846,65.0811" id="Fill-24" fill="#F1892D" mask="url(#mask-4)"></path>
                <polygon id="Fill-25" fill="#F1892D" mask="url(#mask-4)" points="11.3769 68.2306 10.3769 63.7746 11.8409 63.4466 12.8399 67.9026"></polygon>
                <path d="M3.2832,67.5499 C3.6602,67.1439 4.0662,66.7859 4.4832,66.4579 C4.9012,66.1339 5.3332,65.8529 5.7692,65.5929 C6.6442,65.0869 7.5392,64.6909 8.4312,64.3749 L9.9662,68.6759 C9.2832,68.9159 8.6452,69.2059 8.0722,69.5359 C7.7922,69.7049 7.5222,69.8799 7.2802,70.0689 C7.0412,70.2579 6.8182,70.4529 6.6272,70.6609 L3.2832,67.5499 Z" id="Fill-26" fill="#F9BF3B" mask="url(#mask-4)"></path>
                <path d="M7.1777,71.17 L6.0747,70.151 C6.2757,69.936 6.5097,69.723 6.8137,69.482 C7.0567,69.292 7.3307,69.107 7.6857,68.894 L7.6987,68.886 C8.3187,68.53 8.9967,68.222 9.7177,67.968 L10.2147,69.384 C9.5837,69.606 8.9907,69.874 8.4527,70.183 C8.1547,70.362 7.9277,70.514 7.7407,70.66 C7.5077,70.846 7.3217,71.014 7.1777,71.17" id="Fill-27" fill="#F1892D" mask="url(#mask-4)"></path>
                <path d="M3.833,68.0597 L2.733,67.0387 C3.101,66.6437 3.521,66.2607 4.02,65.8697 C4.423,65.5557 4.855,65.2647 5.386,64.9487 C6.258,64.4457 7.195,64.0157 8.182,63.6677 L8.682,65.0817 C7.781,65.3997 6.928,65.7897 6.145,66.2427 C5.678,66.5207 5.293,66.7797 4.943,67.0507 C4.512,67.3907 4.146,67.7217 3.833,68.0597" id="Fill-28" fill="#F1892D" mask="url(#mask-4)"></path>
                <polygon id="Fill-29" fill="#F1892D" mask="url(#mask-4)" points="7.4248 69.9142 5.1218 65.9712 6.4168 65.2142 8.7208 69.1572"></polygon>
                <path d="M0.7617,73.5265 C0.7797,72.9655 0.8707,72.4125 0.9907,71.8705 C1.1167,71.3305 1.2937,70.8075 1.5057,70.3055 C1.7177,69.8025 1.9747,69.3265 2.2657,68.8675 C2.5517,68.4145 2.9107,67.9545 3.2827,67.5495 L6.6267,70.6615 C6.4357,70.8735 6.2757,71.0715 6.1147,71.3245 C5.9587,71.5725 5.8167,71.8335 5.7037,72.1005 C5.5927,72.3685 5.4997,72.6395 5.4357,72.9145 C5.3787,73.1875 5.3267,73.4625 5.3237,73.7375 L0.7617,73.5265 Z" id="Fill-30" fill="#F9BF3B" mask="url(#mask-4)"></path>
                <path d="M6.0732,73.7491 L4.5732,73.7261 C4.5782,73.3851 4.6392,73.0631 4.7012,72.7631 L4.7062,72.7421 C4.7752,72.4451 4.8752,72.1421 5.0112,71.8131 C5.1312,71.5261 5.2892,71.2281 5.4802,70.9241 C5.6872,70.5971 5.8942,70.3531 6.0682,70.1601 L7.1842,71.1611 C7.0232,71.3411 6.8872,71.5061 6.7492,71.7261 C6.6012,71.9581 6.4832,72.1821 6.3962,72.3901 C6.2942,72.6371 6.2192,72.8611 6.1682,73.0751 C6.1192,73.3121 6.0762,73.5411 6.0732,73.7491" id="Fill-31" fill="#F1892D" mask="url(#mask-4)"></path>
                <path d="M1.5107,73.5499 L0.0117,73.5029 C0.0287,72.9649 0.1067,72.3949 0.2577,71.7089 C0.3897,71.1489 0.5747,70.5809 0.8147,70.0149 C1.0337,69.4929 1.3017,68.9869 1.6317,68.4659 C1.9317,67.9899 2.3127,67.4969 2.7317,67.0419 L3.8347,68.0579 C3.4817,68.4419 3.1497,68.8709 2.9007,69.2679 C2.6137,69.7199 2.3837,70.1539 2.1967,70.5979 C1.9907,71.0859 1.8297,71.5719 1.7197,72.0419 C1.5917,72.6239 1.5247,73.1069 1.5107,73.5499" id="Fill-32" fill="#F1892D" mask="url(#mask-4)"></path>
                <polygon id="Fill-33" fill="#F1892D" mask="url(#mask-4)" points="5.4092 72.7901 1.2112 70.9951 1.8002 69.6151 5.9992 71.4111"></polygon>
                <path d="M2.5898,79.6114 C2.0298,78.7694 1.5418,77.8324 1.2088,76.7994 C1.0388,76.2864 0.9198,75.7464 0.8368,75.1974 C0.8038,74.9224 0.7748,74.6434 0.7598,74.3654 C0.7548,74.0864 0.7398,73.8054 0.7618,73.5264 L5.3228,73.7374 C5.2598,74.8344 5.6538,75.9694 6.3858,77.0724 L2.5898,79.6114 Z" id="Fill-34" fill="#F9BF3B" mask="url(#mask-4)"></path>
                <path d="M5.7607,77.4864 C4.9027,76.1934 4.5027,74.9174 4.5737,73.6944 L6.0727,73.7814 C6.0197,74.6734 6.3357,75.6404 7.0107,76.6574 L5.7607,77.4864 Z" id="Fill-35" fill="#F1892D" mask="url(#mask-4)"></path>
                <path d="M1.9658,80.0265 C1.3168,79.0505 0.8218,78.0435 0.4948,77.0305 C0.3238,76.5145 0.1928,75.9505 0.0948,75.3105 L0.0918,75.2875 C0.0628,75.0465 0.0278,74.7275 0.0108,74.4035 L0.0058,74.2045 C-0.0002,73.9695 -0.0062,73.7265 0.0138,73.4685 L1.5088,73.5835 C1.4948,73.7645 1.4998,73.9605 1.5048,74.1665 L1.5088,74.3375 C1.5238,74.6055 1.5528,74.8705 1.5798,75.0965 C1.6638,75.6465 1.7758,76.1275 1.9208,76.5645 C2.2068,77.4515 2.6418,78.3355 3.2148,79.1965 L1.9658,80.0265 Z" id="Fill-36" fill="#F1892D" mask="url(#mask-4)"></path>
                <polygon id="Fill-37" fill="#F1892D" mask="url(#mask-4)" points="1.4385 77.5138 0.9795 76.0858 5.3275 74.6878 5.7865 76.1168"></polygon>
                <path d="M6.5683,83.7257 C6.2073,83.4387 5.8433,83.1587 5.4963,82.8417 C5.3213,82.6847 5.1423,82.5387 4.9723,82.3717 L4.4633,81.8747 C3.7963,81.1887 3.1493,80.4577 2.5893,79.6117 L6.3853,77.0727 C6.7463,77.6227 7.2133,78.1507 7.7083,78.6637 L8.0953,79.0407 C8.2233,79.1677 8.3703,79.2847 8.5053,79.4077 C8.7753,79.6557 9.0743,79.8847 9.3683,80.1187 L6.5683,83.7257 Z" id="Fill-38" fill="#F9BF3B" mask="url(#mask-4)"></path>
                <path d="M8.9004,80.7042 L8.7414,80.5782 C8.4944,80.3832 8.2384,80.1812 7.9984,79.9592 C7.9574,79.9222 7.9094,79.8812 7.8614,79.8402 C7.7654,79.7572 7.6674,79.6722 7.5694,79.5752 L7.1694,79.1842 C6.5324,78.5262 6.0974,78.0012 5.7574,77.4822 L7.0124,76.6612 C7.2964,77.0962 7.6754,77.5502 8.2404,78.1342 L8.6194,78.5052 C8.6844,78.5692 8.7604,78.6352 8.8414,78.7042 C8.8984,78.7532 8.9544,78.8022 9.0084,78.8502 C9.2124,79.0392 9.4354,79.2152 9.6714,79.4012 L9.8354,79.5312 L8.9004,80.7042 Z" id="Fill-39" fill="#F1892D" mask="url(#mask-4)"></path>
                <path d="M6.1015,84.3136 L5.9605,84.2016 C5.6415,83.9496 5.3125,83.6886 4.9915,83.3956 C4.9385,83.3486 4.8815,83.2996 4.8255,83.2506 C4.7035,83.1436 4.5765,83.0346 4.4495,82.9106 L3.9245,82.3976 C3.3535,81.8096 2.6145,81.0076 1.9635,80.0256 L3.2155,79.1986 C3.7935,80.0736 4.4685,80.8046 4.9935,81.3456 L5.4965,81.8356 C5.5925,81.9296 5.6985,82.0216 5.8095,82.1186 C5.8725,82.1726 5.9345,82.2276 5.9975,82.2836 C6.2845,82.5446 6.5795,82.7776 6.8905,83.0246 L7.0345,83.1376 L6.1015,84.3136 Z" id="Fill-40" fill="#F1892D" mask="url(#mask-4)"></path>
                <polygon id="Fill-41" fill="#F1892D" mask="url(#mask-4)" points="4.9902 82.4083 3.9342 81.3423 7.1802 78.1303 8.2352 79.1953"></polygon>
                <path d="M11.0947,86.6329 C9.5437,85.7929 8.0197,84.8529 6.5687,83.7259 L9.3677,80.1179 C10.5567,81.0419 11.8837,81.8679 13.2727,82.6189 L11.0947,86.6329 Z" id="Fill-42" fill="#F9BF3B" mask="url(#mask-4)"></path>
                <path d="M12.916,83.2784 C11.358,82.4374 10.048,81.5964 8.907,80.7104 L9.828,79.5264 C10.902,80.3614 12.145,81.1574 13.629,81.9594 L12.916,83.2784 Z" id="Fill-43" fill="#F1892D" mask="url(#mask-4)"></path>
                <path d="M10.7373,87.2921 C8.9623,86.3311 7.4473,85.3581 6.1073,84.3171 L7.0283,83.1331 C8.3013,84.1221 9.7493,85.0521 11.4513,85.9741 L10.7373,87.2921 Z" id="Fill-44" fill="#F1892D" mask="url(#mask-4)"></path>
                <polygon id="Fill-45" fill="#F1892D" mask="url(#mask-4)" points="9.4267 85.6895 8.1607 84.8845 10.6127 81.0315 11.8777 81.8355"></polygon>
                <path d="M15.8183,88.8888 C14.2253,88.2058 12.6453,87.4708 11.0943,86.6328 L13.2723,82.6188 C14.6633,83.3698 16.1153,84.0468 17.5953,84.6828 L15.8183,88.8888 Z" id="Fill-46" fill="#F9BF3B" mask="url(#mask-4)"></path>
                <path d="M17.2998,85.3712 C15.6348,84.6572 14.2008,83.9732 12.9158,83.2792 L13.6288,81.9592 C14.8738,82.6312 16.2678,83.2972 17.8908,83.9932 L17.2998,85.3712 Z" id="Fill-47" fill="#F1892D" mask="url(#mask-4)"></path>
                <path d="M15.5224,89.5782 C13.7184,88.8052 12.1534,88.0572 10.7384,87.2932 L11.4514,85.9732 C12.8264,86.7162 14.3514,87.4442 16.1134,88.1992 L15.5224,89.5782 Z" id="Fill-48" fill="#F1892D" mask="url(#mask-4)"></path>
                <polygon id="Fill-49" fill="#F1892D" mask="url(#mask-4)" points="14.1181 88.1407 12.7641 87.4967 14.7221 83.3717 16.0781 84.0157"></polygon>
                <path d="M81.3769,68.2804 C81.4839,67.4334 81.5679,66.5864 81.6229,65.7354 C81.6509,65.3104 81.6719,64.8844 81.6869,64.4554 C81.6929,64.2404 81.6989,64.0244 81.7019,63.8064 L81.7039,63.4764 L81.7019,63.1164 L76.9839,63.2284 L76.9859,63.4704 L76.9829,63.7434 L76.9709,64.3014 C76.9569,64.6754 76.9399,65.0514 76.9139,65.4264 C76.8659,66.1804 76.7919,66.9334 76.6959,67.6804 L81.3769,68.2804 Z" id="Fill-50" fill="#F9BF3B" mask="url(#mask-4)"></path>
                <path d="M77.4404,67.7755 L75.9524,67.5865 C76.0484,66.8295 76.1214,66.0875 76.1664,65.3795 C76.1884,65.0465 76.2074,64.6865 76.2204,64.2745 L76.2364,63.4645 L76.2344,63.2335 L77.7344,63.2235 L77.7364,63.4655 L77.7334,63.7505 L77.7204,64.3185 C77.7054,64.7555 77.6864,65.1315 77.6634,65.4785 C77.6164,66.2135 77.5414,66.9885 77.4404,67.7755" id="Fill-51" fill="#F1892D" mask="url(#mask-4)"></path>
                <path d="M82.1211,68.3751 L80.6331,68.1861 C80.7411,67.3311 80.8231,66.4911 80.8741,65.6871 C80.9001,65.3051 80.9211,64.8941 80.9361,64.4291 C80.9441,64.2201 80.9491,64.0101 80.9521,63.7971 L80.9541,63.4711 L80.9521,63.1221 L82.4521,63.1101 L82.4541,63.4711 L82.4521,63.8131 C82.4491,64.0401 82.4431,64.2601 82.4361,64.4791 C82.4191,64.9621 82.3981,65.3901 82.3711,65.7861 C82.3181,66.6181 82.2331,67.4901 82.1211,68.3751" id="Fill-52" fill="#F1892D" mask="url(#mask-4)"></path>
                <polygon id="Fill-53" fill="#F1892D" mask="url(#mask-4)" points="81.5742 66.4845 76.8652 66.1755 76.9642 64.6785 81.6722 64.9875"></polygon>
                <path d="M80.3603,73.3487 C80.8393,71.6647 81.1573,69.9737 81.3773,68.2807 L76.6963,67.6807 C76.5033,69.1737 76.2233,70.6507 75.8213,72.0597 L80.3603,73.3487 Z" id="Fill-54" fill="#F9BF3B" mask="url(#mask-4)"></path>
                <path d="M76.542,72.2647 L75.1,71.8537 C75.464,70.5777 75.751,69.1407 75.952,67.5837 L77.44,67.7777 C77.229,69.4077 76.927,70.9167 76.542,72.2647" id="Fill-55" fill="#F1892D" mask="url(#mask-4)"></path>
                <path d="M81.081,73.5538 L79.639,73.1428 C80.072,71.6198 80.397,69.9978 80.633,68.1838 L82.12,68.3768 C81.875,70.2658 81.535,71.9588 81.081,73.5538" id="Fill-56" fill="#F1892D" mask="url(#mask-4)"></path>
                <polygon id="Fill-57" fill="#F1892D" mask="url(#mask-4)" points="80.8193 71.5538 76.1913 70.6368 76.4823 69.1658 81.1113 70.0818"></polygon>
                <path d="M78.3437,78.3204 C78.7997,77.5144 79.1827,76.6904 79.5107,75.8594 C79.8407,75.0274 80.1197,74.1894 80.3607,73.3484 L75.8217,72.0594 C75.6197,72.7634 75.3897,73.4514 75.1267,74.1144 C74.8647,74.7774 74.5687,75.4134 74.2317,76.0074 L78.3437,78.3204 Z" id="Fill-58" fill="#F9BF3B" mask="url(#mask-4)"></path>
                <path d="M74.8838,76.377 L73.5788,75.636 C73.8858,75.098 74.1718,74.492 74.4298,73.839 C74.6758,73.219 74.9008,72.551 75.0998,71.854 L76.5418,72.265 C76.3288,73.01 76.0878,73.726 75.8238,74.39 C75.5408,75.108 75.2248,75.777 74.8838,76.377" id="Fill-59" fill="#F1892D" mask="url(#mask-4)"></path>
                <path d="M78.9971,78.6895 L77.6911,77.9505 C78.1071,77.2165 78.4741,76.4425 78.8131,75.5845 C79.1181,74.8155 79.3951,73.9945 79.6391,73.1425 L81.0811,73.5535 C80.8251,74.4535 80.5311,75.3225 80.2081,76.1355 C79.8431,77.0595 79.4461,77.8955 78.9971,78.6895" id="Fill-60" fill="#F1892D" mask="url(#mask-4)"></path>
                <polygon id="Fill-61" fill="#F1892D" mask="url(#mask-4)" points="79.2334 76.5558 74.8494 74.8108 75.4044 73.4168 79.7884 75.1618"></polygon>
                <path d="M74.9746,82.6349 C75.6376,81.9819 76.2256,81.3159 76.7686,80.6419 L76.8716,80.5159 L76.9806,80.3759 L77.1966,80.0909 C77.3446,79.9019 77.4766,79.7059 77.6086,79.5109 L77.8056,79.2179 C77.8706,79.1189 77.9286,79.0199 77.9906,78.9199 C78.1096,78.7209 78.2376,78.5239 78.3436,78.3209 L74.2316,76.0069 C74.1526,76.1599 74.0596,76.2989 73.9726,76.4449 C73.9286,76.5159 73.8866,76.5899 73.8406,76.6589 L73.7016,76.8649 C73.6086,77.0039 73.5156,77.1419 73.4146,77.2689 L73.2676,77.4639 C73.2426,77.4969 73.2206,77.5279 73.1926,77.5629 L73.1036,77.6689 C72.6396,78.2469 72.1586,78.7849 71.6766,79.2609 L74.9746,82.6349 Z" id="Fill-62" fill="#F9BF3B" mask="url(#mask-4)"></path>
                <path d="M72.2041,79.794 L71.1491,78.727 C71.6081,78.274 72.0691,77.76 72.5191,77.199 L72.6131,77.085 C72.6221,77.075 72.6301,77.064 72.6391,77.053 L72.8291,76.8 C72.9121,76.695 72.9961,76.57 73.0771,76.449 L73.2211,76.237 C73.2371,76.212 73.2591,76.176 73.2811,76.139 L73.3351,76.05 C73.3581,76.011 73.3901,75.96 73.4211,75.909 C73.4751,75.822 73.5241,75.74 73.5641,75.663 L74.8981,76.35 C74.8321,76.48 74.7601,76.595 74.6971,76.697 L74.6181,76.826 L74.5671,76.91 C74.5351,76.965 74.5021,77.019 74.4681,77.071 L74.3201,77.287 C74.2321,77.42 74.1291,77.576 74.0081,77.729 L73.8451,77.944 C73.8221,77.975 73.7991,78.005 73.7711,78.038 L73.6831,78.148 C73.2021,78.744 72.7031,79.301 72.2041,79.794" id="Fill-63" fill="#F1892D" mask="url(#mask-4)"></path>
                <path d="M75.5019,83.169 L74.4479,82.101 C75.0429,81.514 75.6109,80.883 76.1849,80.171 L76.3859,79.918 L76.5989,79.638 C76.7389,79.457 76.8609,79.277 76.9849,79.094 L77.1849,78.798 C77.2159,78.749 77.2519,78.69 77.2879,78.63 L77.3519,78.525 C77.3809,78.478 77.4159,78.42 77.4509,78.363 C77.5349,78.226 77.6139,78.096 77.6809,77.971 L79.0079,78.67 C78.9189,78.838 78.8229,78.995 78.7309,79.147 C78.6969,79.199 78.6649,79.253 78.6329,79.306 L78.5699,79.408 C78.5259,79.481 78.4809,79.555 78.4339,79.628 L78.2299,79.931 C78.0969,80.129 77.9519,80.342 77.7869,80.553 L77.3479,81.119 C76.7429,81.869 76.1379,82.541 75.5019,83.169" id="Fill-64" fill="#F1892D" mask="url(#mask-4)"></path>
                <polygon id="Fill-65" fill="#F1892D" mask="url(#mask-4)" points="76.2959 81.2247 72.6319 78.2517 73.5759 77.0867 77.2409 80.0597"></polygon>
                <path d="M68.3447,84.8829 C68.9857,85.1369 69.6857,85.2319 70.3727,85.1669 C71.0607,85.1059 71.7327,84.8889 72.3647,84.5839 C72.6727,84.4249 73.0067,84.2379 73.2257,84.0819 C73.3467,84.0009 73.4727,83.9159 73.5867,83.8339 L73.8887,83.5989 C74.0957,83.4429 74.2737,83.2819 74.4557,83.1209 C74.6437,82.9609 74.8067,82.7979 74.9747,82.6349 L71.6767,79.2609 C71.5567,79.3769 71.4367,79.4989 71.3167,79.5979 C71.1977,79.7029 71.0777,79.8129 70.9627,79.8969 L70.7897,80.0329 L70.6537,80.1239 C70.5457,80.2029 70.5277,80.2099 70.4817,80.2369 C70.3947,80.2799 70.3037,80.3179 70.2067,80.3309 C70.1117,80.3459 70.0117,80.3309 69.9227,80.2929 L68.3447,84.8829 Z" id="Fill-66" fill="#F9BF3B" mask="url(#mask-4)"></path>
                <path d="M70.1494,79.587 L70.1864,79.66 L70.2114,79.602 C70.1904,79.593 70.1694,79.588 70.1494,79.587 M70.1324,81.087 C69.9654,81.087 69.7954,81.053 69.6334,80.985 L70.1694,79.703 L70.1024,79.589 L70.1044,79.588 C70.0994,79.589 70.0964,79.589 70.0924,79.59 C70.0944,79.589 70.1054,79.585 70.1284,79.575 L70.1374,79.568 C70.1514,79.562 70.1594,79.557 70.2104,79.52 L70.3484,79.427 L70.5224,79.29 C70.5864,79.244 70.6654,79.173 70.7504,79.098 L70.8374,79.021 C70.9084,78.963 70.9894,78.884 71.0744,78.8 L71.1554,78.721 L72.1984,79.8 L72.1234,79.872 C72.0224,79.971 71.9194,80.072 71.8054,80.167 L71.7454,80.221 C71.6414,80.313 71.5344,80.407 71.4184,80.493 L71.2064,80.658 L71.0834,80.739 C70.9784,80.816 70.9254,80.847 70.8724,80.877 L70.8224,80.904 C70.6464,80.994 70.4814,81.049 70.3144,81.073 C70.2544,81.082 70.1944,81.087 70.1324,81.087" id="Fill-67" fill="#F1892D" mask="url(#mask-4)"></path>
                <path d="M69.957,85.9366 C69.31,85.9366 68.664,85.8156 68.069,85.5816 L68.62,84.1856 C69.145,84.3936 69.727,84.4746 70.303,84.4206 C70.853,84.3716 71.433,84.2006 72.029,83.9126 C72.355,83.7446 72.632,83.5836 72.79,83.4716 L72.827,83.4466 C72.932,83.3756 73.039,83.3036 73.138,83.2336 L73.428,83.0076 C73.597,82.8786 73.742,82.7506 73.896,82.6146 L73.96,82.5586 C74.107,82.4326 74.235,82.3086 74.37,82.1766 L74.453,82.0956 L75.497,83.1736 L75.416,83.2516 C75.269,83.3946 75.119,83.5406 74.942,83.6916 L74.89,83.7386 C74.721,83.8876 74.547,84.0406 74.341,84.1976 L74.024,84.4436 C73.91,84.5256 73.785,84.6096 73.664,84.6906 L73.652,84.6996 C73.373,84.8966 72.985,85.1076 72.707,85.2506 L72.69,85.2586 C71.928,85.6276 71.171,85.8476 70.44,85.9146 C70.279,85.9296 70.118,85.9366 69.957,85.9366" id="Fill-68" fill="#F1892D" mask="url(#mask-4)"></path>
                <polygon id="Fill-69" fill="#F1892D" mask="url(#mask-4)" points="71.6758 84.8819 69.7928 80.5349 71.1688 79.9389 73.0528 84.2849"></polygon>
                <path d="M64.1523,79.7882 C64.3253,80.1852 64.5063,80.5872 64.7143,80.9992 C64.9153,81.4072 65.1513,81.8302 65.4203,82.2602 L65.6333,82.5842 L65.6613,82.6262 L65.6983,82.6762 L65.7713,82.7762 L65.9213,82.9752 C66.0173,83.1042 66.1333,83.2402 66.2513,83.3722 C66.3683,83.5042 66.4863,83.6332 66.6163,83.7512 C67.1183,84.2382 67.7013,84.6352 68.3443,84.8832 L69.9233,80.2932 C69.8333,80.2552 69.7563,80.1932 69.6893,80.1232 C69.6723,80.1062 69.6563,80.0882 69.6403,80.0692 C69.6253,80.0512 69.6103,80.0352 69.5883,80.0032 L69.5563,79.9602 L69.5413,79.9392 L69.5333,79.9292 L69.5193,79.9072 L69.4023,79.7282 C69.0873,79.2272 68.7743,78.5892 68.4813,77.9092 L64.1523,79.7882 Z" id="Fill-70" fill="#F9BF3B" mask="url(#mask-4)"></path>
                <path d="M69.626,80.9825 C69.457,80.9095 69.299,80.7975 69.156,80.6515 C69.124,80.6195 69.094,80.5855 69.064,80.5495 C69.041,80.5225 69.017,80.4935 68.979,80.4405 L68.89,80.3135 L68.775,80.1405 C68.458,79.6365 68.139,79.0075 67.793,78.2075 L69.169,77.6125 C69.48,78.3315 69.772,78.9095 70.037,79.3295 L70.23,79.6045 C70.24,79.6145 70.246,79.6185 70.246,79.6185 C70.246,79.6185 70.237,79.6125 70.22,79.6045 L69.626,80.9825 Z" id="Fill-71" fill="#F1892D" mask="url(#mask-4)"></path>
                <path d="M68.0742,85.5831 C67.3632,85.3081 66.7002,84.8751 66.1012,84.2971 C65.9432,84.1511 65.8042,83.9981 65.6882,83.8671 C65.5822,83.7481 65.4412,83.5871 65.3192,83.4221 L65.0112,83.0031 L64.7832,82.6561 C64.5022,82.2061 64.2532,81.7601 64.0412,81.3291 C63.8112,80.8721 63.6122,80.4261 63.4652,80.0881 L64.8402,79.4881 C64.9792,79.8081 65.1672,80.2301 65.3852,80.6611 C65.5752,81.0511 65.7992,81.4501 66.0512,81.8541 L66.3762,82.3321 L66.5202,82.5231 C66.6102,82.6451 66.7222,82.7731 66.8112,82.8721 C66.9052,82.9791 67.0122,83.0991 67.1222,83.1981 L67.1372,83.2131 C67.5932,83.6541 68.0902,83.9801 68.6152,84.1841 L68.0742,85.5831 Z" id="Fill-72" fill="#F1892D" mask="url(#mask-4)"></path>
                <polygon id="Fill-73" fill="#F1892D" mask="url(#mask-4)" points="65.8223 82.8927 65.0173 81.6257 69.0003 79.0957 69.8043 80.3617"></polygon>
                <path d="M62.3437,75.2745 C62.9337,76.6955 63.4717,78.2055 64.1527,79.7885 L68.4817,77.9095 C67.8897,76.5405 67.3447,75.0205 66.7037,73.4715 L62.3437,75.2745 Z" id="Fill-74" fill="#F9BF3B" mask="url(#mask-4)"></path>
                <path d="M67.792,78.2071 C67.459,77.4361 67.148,76.6371 66.818,75.7901 C66.561,75.1281 66.294,74.4431 66.011,73.7591 L67.397,73.1861 C67.687,73.8841 67.956,74.5761 68.217,75.2461 C68.541,76.0791 68.848,76.8661 69.17,77.6121 L67.792,78.2071 Z" id="Fill-75" fill="#F1892D" mask="url(#mask-4)"></path>
                <path d="M63.4639,80.0841 C63.0709,79.1721 62.7279,78.2881 62.3949,77.4341 C62.1419,76.7821 61.9019,76.1671 61.6509,75.5631 L63.0359,74.9861 C63.2939,75.6071 63.5359,76.2301 63.7929,76.8901 C64.1199,77.7321 64.4589,78.6041 64.8419,79.4911 L63.4639,80.0841 Z" id="Fill-76" fill="#F1892D" mask="url(#mask-4)"></path>
                <polygon id="Fill-77" fill="#F1892D" mask="url(#mask-4)" points="63.4863 78.17 62.9423 76.772 67.3393 75.059 67.8823 76.456"></polygon>
                <path d="M60.3848,71.4747 C60.7578,71.9917 61.1018,72.5947 61.4248,73.2377 C61.7478,73.8807 62.0498,74.5657 62.3438,75.2747 L66.7038,73.4717 C66.3828,72.6967 66.0378,71.9097 65.6398,71.1167 C65.2388,70.3237 64.7918,69.5237 64.2268,68.7337 L60.3848,71.4747 Z" id="Fill-78" fill="#F9BF3B" mask="url(#mask-4)"></path>
                <path d="M66.0107,73.7589 C65.6397,72.8609 65.3077,72.1269 64.9687,71.4529 C64.5117,70.5449 64.0807,69.8199 63.6157,69.1699 L64.8357,68.2969 C65.3467,69.0109 65.8147,69.7989 66.3087,70.7789 C66.6647,71.4879 67.0107,72.2519 67.3977,73.1859 L66.0107,73.7589 Z" id="Fill-79" fill="#F1892D" mask="url(#mask-4)"></path>
                <path d="M61.6504,75.5616 C61.3244,74.7726 61.0394,74.1406 60.7544,73.5746 C60.4134,72.8956 60.0924,72.3516 59.7764,71.9136 L60.9944,71.0366 C61.3564,71.5406 61.7164,72.1496 62.0944,72.9006 C62.3964,73.5006 62.6954,74.1646 63.0364,74.9886 L61.6504,75.5616 Z" id="Fill-80" fill="#F1892D" mask="url(#mask-4)"></path>
                <polygon id="Fill-81" fill="#F1892D" mask="url(#mask-4)" points="61.7617 73.9073 61.0867 72.5673 65.3017 70.4463 65.9767 71.7863"></polygon>
                <path d="M58.0264,69.6466 L58.1834,69.6786 C58.2334,69.6976 58.2834,69.7136 58.3344,69.7286 C58.3594,69.7366 58.3854,69.7426 58.4114,69.7506 L58.4844,69.7846 L58.6334,69.8446 C58.6824,69.8736 58.7314,69.8996 58.7804,69.9236 L58.8554,69.9616 L58.9284,70.0106 L59.0774,70.1036 L59.2234,70.2166 C59.6214,70.5116 60.0134,70.9596 60.3844,71.4746 L64.2264,68.7336 C64.0844,68.5366 63.9414,68.3396 63.7814,68.1456 C63.6304,67.9506 63.4584,67.7586 63.2864,67.5686 C63.1174,67.3766 62.9204,67.1936 62.7334,67.0086 L62.4274,66.7416 L62.2744,66.6086 L62.1084,66.4826 L61.7744,66.2326 L61.4154,66.0006 L61.2344,65.8866 L61.0434,65.7836 L60.6564,65.5826 C60.5224,65.5216 60.3854,65.4646 60.2504,65.4086 L60.0464,65.3256 C59.9764,65.2996 59.9064,65.2786 59.8364,65.2546 L59.4124,65.1236 C59.2694,65.0856 59.1254,65.0566 58.9814,65.0256 L58.0264,69.6466 Z" id="Fill-82" fill="#F9BF3B" mask="url(#mask-4)"></path>
                <path d="M63.6181,69.172 C63.4741,68.974 63.3451,68.795 63.2031,68.624 L63.1871,68.606 C63.0511,68.428 62.8871,68.244 62.7301,68.071 C62.6151,67.942 62.4851,67.816 62.3481,67.682 C62.3061,67.641 62.2641,67.6 62.2221,67.558 L61.8021,67.192 L61.3461,66.849 L60.8551,66.535 L60.3291,66.258 C60.2081,66.203 60.0851,66.152 59.9621,66.101 L59.7771,66.026 C59.7421,66.013 59.7061,66.001 59.6691,65.989 L59.2081,65.845 C59.1081,65.82 59.0091,65.799 58.9091,65.777 L58.8201,65.758 L59.1411,64.293 L59.2261,64.311 C59.3501,64.338 59.4751,64.365 59.5991,64.398 L59.6351,64.407 L60.1301,64.562 C60.1871,64.58 60.2451,64.6 60.3011,64.62 L60.3291,64.631 L60.5341,64.714 C60.6801,64.776 60.8231,64.835 60.9631,64.898 L61.0031,64.917 L61.6331,65.252 L62.2221,65.632 L62.7641,66.04 L63.2621,66.476 L63.3961,66.609 C63.5471,66.755 63.7021,66.906 63.8471,67.071 C64.0151,67.256 64.1981,67.461 64.3661,67.677 C64.5341,67.881 64.6781,68.078 64.8351,68.296 L63.6181,69.172 Z" id="Fill-83" fill="#F1892D" mask="url(#mask-4)"></path>
                <path d="M59.7773,71.9132 C59.4143,71.4112 59.0773,71.0422 58.7763,70.8182 L58.6493,70.7212 L58.4413,70.5942 C58.3953,70.5702 58.3513,70.5462 58.3063,70.5212 L58.1483,70.4552 C58.1363,70.4522 58.1233,70.4482 58.1103,70.4442 C58.0703,70.4332 58.0273,70.4192 57.9823,70.4032 L57.8723,70.3802 L58.1793,68.9122 L58.4353,68.9732 C58.4733,68.9862 58.5113,68.9992 58.5493,69.0102 L58.5653,69.0152 C58.5963,69.0232 58.6283,69.0322 58.6583,69.0432 L58.9633,69.1692 L59.0063,69.1942 C59.0443,69.2162 59.0823,69.2362 59.1203,69.2562 L59.2703,69.3382 L59.5323,69.5082 L59.6793,69.6212 C60.1023,69.9342 60.5343,70.3992 60.9933,71.0352 L59.7773,71.9132 Z" id="Fill-84" fill="#F1892D" mask="url(#mask-4)"></path>
                <polygon id="Fill-85" fill="#F1892D" mask="url(#mask-4)" points="59.8174 70.6749 58.6304 69.7579 61.5144 66.0239 62.7024 66.9409"></polygon>
                <path d="M54.8418,70.2784 C55.4418,70.0004 56.0328,69.7884 56.5778,69.6774 L56.6818,69.6534 C56.7148,69.6474 56.7468,69.6444 56.7798,69.6404 L56.9768,69.6124 C57.0428,69.5984 57.1048,69.5984 57.1658,69.5954 L57.3528,69.5844 C57.4128,69.5814 57.4698,69.5894 57.5288,69.5894 C57.5858,69.5924 57.6478,69.5854 57.7008,69.5964 C57.8098,69.6154 57.9248,69.6144 58.0268,69.6464 L58.9818,65.0254 C58.6928,64.9554 58.4048,64.9314 58.1148,64.8954 C57.9698,64.8774 57.8298,64.8804 57.6868,64.8734 C57.5448,64.8704 57.4008,64.8624 57.2608,64.8664 L56.8448,64.8884 C56.7058,64.8964 56.5668,64.9044 56.4348,64.9244 L56.0338,64.9804 C55.9678,64.9914 55.9008,64.9994 55.8348,65.0114 L55.6438,65.0524 C54.6128,65.2634 53.6878,65.6124 52.8298,66.0104 L54.8418,70.2784 Z" id="Fill-86" fill="#F9BF3B" mask="url(#mask-4)"></path>
                <path d="M53.1455,66.6905 L52.5135,65.3305 C53.5725,64.8385 54.5185,64.5175 55.4935,64.3175 L55.7005,64.2735 C55.7525,64.2635 55.8075,64.2555 55.8625,64.2485 L56.3235,64.1835 C56.4805,64.1585 56.6345,64.1495 56.7715,64.1415 L57.2395,64.1165 C57.3625,64.1135 57.4785,64.1165 57.5905,64.1205 L57.7235,64.1245 C57.7625,64.1265 57.8025,64.1275 57.8415,64.1275 C57.9515,64.1305 58.0745,64.1345 58.2115,64.1525 L58.3765,64.1715 C58.6255,64.2005 58.8825,64.2295 59.1585,64.2965 L58.8035,65.7535 C58.6195,65.7095 58.4185,65.6865 58.2065,65.6625 C58.1455,65.6555 58.0835,65.6475 58.0235,65.6405 C57.9575,65.6315 57.8855,65.6295 57.8015,65.6285 C57.7535,65.6265 57.7065,65.6255 57.6575,65.6235 L57.5435,65.6195 C57.4585,65.6175 57.3745,65.6145 57.2905,65.6155 L56.8595,65.6385 C56.7465,65.6455 56.6385,65.6515 56.5535,65.6655 L56.0755,65.7325 C56.0425,65.7375 56.0105,65.7425 55.9795,65.7485 L55.8005,65.7865 C54.9375,65.9625 54.0955,66.2505 53.1455,66.6905" id="Fill-87" fill="#F1892D" mask="url(#mask-4)"></path>
                <path d="M55.1582,70.9591 L54.5262,69.5991 C55.2062,69.2821 55.8432,69.0631 56.4192,68.9441 L56.5462,68.9161 C56.5832,68.9091 56.6192,68.9041 56.6552,68.9001 L56.8532,68.8721 C56.9552,68.8541 57.0422,68.8511 57.1002,68.8491 L57.3212,68.8351 C57.3822,68.8321 57.4392,68.8341 57.4972,68.8381 C57.5092,68.8381 57.5202,68.8391 57.5322,68.8391 L57.5822,68.8411 L57.5902,68.8401 C57.6432,68.8401 57.7322,68.8391 57.8372,68.8581 C57.8592,68.8621 57.8832,68.8641 57.9052,68.8661 C57.9942,68.8761 58.1152,68.8891 58.2492,68.9301 L57.8032,70.3621 C57.8082,70.3641 57.8142,70.3651 57.8202,70.3671 C57.7982,70.3621 57.7742,70.3611 57.7512,70.3581 C57.7012,70.3541 57.6522,70.3481 57.6032,70.3401 C57.5692,70.3401 57.5362,70.3401 57.5022,70.3391 C57.4722,70.3381 57.4432,70.3371 57.4142,70.3351 C57.4032,70.3351 57.3932,70.3341 57.3832,70.3341 L57.1592,70.3471 C57.1442,70.3481 57.1302,70.3481 57.1152,70.3501 L57.0822,70.3551 L56.7272,70.4121 C56.2632,70.5071 55.7352,70.6901 55.1582,70.9591" id="Fill-88" fill="#F1892D" mask="url(#mask-4)"></path>
                <polygon id="Fill-89" fill="#F1892D" mask="url(#mask-4)" points="55.8437 69.8263 54.9077 65.2013 56.3787 64.9033 57.3137 69.5283"></polygon>
                <path d="M78.4424,54.6407 C76.7934,54.6047 75.4144,55.9247 75.3774,57.5747 L75.2754,63.4237 C75.2384,65.0737 76.5584,66.4537 78.2084,66.4897 L85.1244,66.5187 C86.7734,66.5557 87.5534,65.2017 87.5894,63.5517 L87.6754,58.0007 C87.7124,56.3517 86.9914,55.0067 85.3414,54.9707 L78.4424,54.6407 Z" id="Fill-90" fill="#A5B5B6" mask="url(#mask-4)"></path>
                <path d="M78.376,55.3907 C77.158,55.3907 76.154,56.3677 76.127,57.5907 L76.024,63.4367 C75.997,64.6807 76.984,65.7117 78.225,65.7397 L85.127,65.7687 C85.672,65.7867 86.074,65.6007 86.362,65.2167 C86.655,64.8277 86.825,64.2297 86.841,63.5357 L86.926,57.9897 C86.944,57.1527 86.761,55.7517 85.325,55.7197 L85.306,55.7197 L78.417,55.3907 L78.376,55.3907 Z M85.189,67.2697 C85.162,67.2697 85.135,67.2697 85.107,67.2687 L78.205,67.2397 C76.124,67.1937 74.48,65.4747 74.525,63.4077 L74.628,57.5607 C74.673,55.4907 76.397,53.8507 78.459,53.8917 L78.479,53.8917 L85.368,54.2207 C87.275,54.2677 88.476,55.7567 88.425,58.0177 L88.34,63.5627 C88.317,64.5877 88.049,65.4697 87.562,66.1187 C86.995,66.8727 86.176,67.2697 85.189,67.2697 L85.189,67.2697 Z" id="Fill-91" fill="#354546" mask="url(#mask-4)"></path>
                <path d="M78.9258,69.2257 L78.9848,69.2277 C78.9778,66.0967 79.0918,62.5957 79.3408,58.9037 C79.5678,55.5527 79.8838,52.3687 80.2598,49.4827 C80.5868,46.7527 77.8108,44.4277 77.8108,44.4277 L83.6378,44.6777 L83.9368,44.6917 L89.7638,44.9417 C89.7638,44.9417 86.6898,47.0157 86.6488,49.7567 L86.6478,49.7567 C86.6338,52.6597 86.5188,55.8517 86.2918,59.2027 C86.0428,62.8947 85.6848,66.3857 85.2568,69.4977 L85.3148,69.4997 C84.9878,72.2297 87.7638,74.5547 87.7638,74.5547 L81.9368,74.3037 L81.6378,74.2907 L75.8108,74.0397 C75.8108,74.0397 78.8838,71.9667 78.9258,69.2257" id="Fill-92" fill="#A4A4A4" mask="url(#mask-4)"></path>
                <path d="M77.7168,73.3722 L85.9818,73.7272 C85.2378,72.7442 84.4648,71.3242 84.5428,69.7292 C84.5088,69.6232 84.4978,69.5092 84.5138,69.3952 C84.9548,66.1892 85.3018,62.7422 85.5438,59.1512 C85.7638,55.8942 85.8828,52.7322 85.8978,49.7532 C85.9238,48.0332 86.9368,46.5802 87.8578,45.6102 L79.5918,45.2552 C80.3818,46.2982 81.2028,47.8322 81.0068,49.5452 C81.0068,49.5572 81.0048,49.5672 81.0038,49.5792 C80.6168,52.5442 80.3098,55.6982 80.0898,58.9532 C79.8468,62.5452 79.7278,66.0012 79.7348,69.2262 C79.7348,69.3412 79.7088,69.4522 79.6598,69.5532 C79.5248,71.1312 78.5808,72.4632 77.7168,73.3722 M87.7648,75.3052 C87.7538,75.3052 87.7418,75.3052 87.7318,75.3042 L75.7788,74.7902 C75.4538,74.7752 75.1768,74.5562 75.0878,74.2442 C74.9998,73.9332 75.1218,73.6002 75.3908,73.4192 C75.4168,73.4002 78.1408,71.5242 78.1758,69.2142 C78.1778,69.1182 78.1968,69.0232 78.2338,68.9362 C78.2348,65.7612 78.3558,62.3692 78.5928,58.8522 C78.8148,55.5742 79.1238,52.3972 79.5128,49.4092 C79.5138,49.4032 79.5148,49.3982 79.5148,49.3932 C79.7888,47.1072 77.3528,45.0222 77.3278,45.0022 C77.0818,44.7952 76.9948,44.4542 77.1128,44.1552 C77.2288,43.8562 77.5228,43.6632 77.8428,43.6782 L89.7958,44.1922 C90.1198,44.2062 90.3978,44.4272 90.4868,44.7382 C90.5738,45.0502 90.4518,45.3832 90.1838,45.5632 C90.1568,45.5822 87.4338,47.4582 87.3988,49.7682 C87.3828,52.7732 87.2628,55.9672 87.0408,59.2522 C86.8028,62.7692 86.4668,66.1502 86.0388,69.3082 C86.0638,69.3982 86.0708,69.4942 86.0598,69.5902 C85.7828,71.8892 88.2208,73.9592 88.2448,73.9792 C88.4918,74.1862 88.5788,74.5262 88.4628,74.8262 C88.3508,75.1152 88.0718,75.3052 87.7648,75.3052" id="Fill-93" fill="#373737" mask="url(#mask-4)"></path>
                <path d="M82.8496,32.8419 L81.0286,38.3789 C80.8356,38.9649 81.1586,39.5889 81.7456,39.7659 L85.6606,40.9459 C86.2476,41.1229 86.8856,40.7889 87.0786,40.2029 L89.0836,34.1059 C91.2766,35.4579 92.6346,37.6849 92.4686,40.1429 C92.2066,44.0199 88.2556,47.0009 83.6446,46.8029 C79.0326,46.6049 75.5056,43.3009 75.7676,39.4239 C75.9956,36.0469 79.0246,33.3499 82.8496,32.8419" id="Fill-94" fill="#C8C8C8" mask="url(#mask-4)"></path>
                <path d="M81.7344,33.8331 C78.8154,34.6461 76.6914,36.8791 76.5154,39.4751 C76.4184,40.9231 76.9384,42.3611 77.9804,43.5251 C79.3314,45.0341 81.4074,45.9561 83.6764,46.0541 C87.8784,46.2301 91.4864,43.5601 91.7204,40.0921 C91.8414,38.2881 91.0164,36.5541 89.4794,35.3041 L87.7914,40.4371 C87.4714,41.4081 86.4194,41.9581 85.4444,41.6641 L81.5294,40.4831 C81.0504,40.3401 80.6614,40.0171 80.4304,39.5741 C80.1994,39.1311 80.1594,38.6221 80.3164,38.1451 L81.7344,33.8331 Z M84.0754,47.5621 C83.9214,47.5621 83.7664,47.5591 83.6124,47.5521 C80.9414,47.4371 78.4814,46.3341 76.8624,44.5261 C75.5484,43.0591 74.8944,41.2291 75.0194,39.3741 C75.2654,35.7201 78.5174,32.6601 82.7514,32.0991 C83.0064,32.0641 83.2614,32.1641 83.4264,32.3631 C83.5914,32.5621 83.6424,32.8311 83.5624,33.0761 L81.7414,38.6131 C81.7004,38.7351 81.7364,38.8341 81.7614,38.8821 C81.7864,38.9291 81.8434,39.0121 81.9634,39.0481 L85.8774,40.2291 C86.0764,40.2891 86.2994,40.1701 86.3664,39.9691 L88.3724,33.8711 C88.4434,33.6531 88.6114,33.4801 88.8274,33.4011 C89.0424,33.3221 89.2824,33.3471 89.4774,33.4681 C91.9994,35.0221 93.3964,37.5361 93.2164,40.1931 C92.9374,44.3341 88.8824,47.5621 84.0754,47.5621 L84.0754,47.5621 Z" id="Fill-95" fill="#373737" mask="url(#mask-4)"></path>
                <path d="M82.6562,84.0196 L84.2572,79.1556 C84.4262,78.6406 84.1422,78.0926 83.6262,77.9366 L80.1872,76.8996 C79.6722,76.7446 79.1112,77.0386 78.9412,77.5526 L77.1792,82.9096 C75.2542,81.7216 74.0602,79.7656 74.2072,77.6056 C74.4362,74.2006 77.9072,71.5816 81.9592,71.7546 C86.0102,71.9296 89.1082,74.8316 88.8782,78.2376 C88.6772,81.2046 86.0172,83.5736 82.6562,84.0196" id="Fill-96" fill="#C8C8C8" mask="url(#mask-4)"></path>
                <path d="M79.9062,76.1085 C80.0722,76.1085 80.2392,76.1315 80.4042,76.1815 L83.8432,77.2185 C84.2862,77.3525 84.6482,77.6525 84.8622,78.0625 C85.0772,78.4745 85.1152,78.9465 84.9682,79.3895 L83.7772,83.0125 C86.2192,82.2725 87.9812,80.3795 88.1302,78.1865 C88.2142,76.9385 87.7652,75.6995 86.8662,74.6945 C85.6962,73.3875 83.8952,72.5885 81.9272,72.5045 C78.2862,72.3485 75.1572,74.6595 74.9552,77.6565 C74.8522,79.1705 75.5262,80.6295 76.7882,81.7015 L78.2292,77.3185 C78.4702,76.5835 79.1672,76.1085 79.9062,76.1085 M82.6562,84.7695 C82.4352,84.7695 82.2222,84.6715 82.0792,84.4985 C81.9142,84.2995 81.8632,84.0305 81.9442,83.7855 L83.5442,78.9215 C83.5672,78.8485 83.5512,78.7915 83.5322,78.7555 C83.5132,78.7205 83.4782,78.6755 83.4102,78.6555 L79.9702,77.6185 C79.8442,77.5795 79.6962,77.6595 79.6542,77.7875 L77.8922,83.1435 C77.8202,83.3615 77.6522,83.5345 77.4372,83.6135 C77.2212,83.6925 76.9812,83.6685 76.7862,83.5465 C74.5422,82.1645 73.2982,79.9235 73.4582,77.5555 C73.7152,73.7535 77.5422,70.8125 81.9912,71.0055 C84.3612,71.1075 86.5462,72.0875 87.9842,73.6945 C89.1542,75.0025 89.7382,76.6335 89.6262,78.2875 C89.4062,81.5405 86.5162,84.2635 82.7552,84.7625 C82.7222,84.7675 82.6892,84.7695 82.6562,84.7695" id="Fill-97" fill="#373737" mask="url(#mask-4)"></path>
                <path d="M88.3418,58.4278 C89.1648,58.4788 89.8798,57.8468 89.9308,57.0228 L89.9768,56.2818 C90.0278,55.4588 89.3948,54.7428 88.5708,54.6928 L84.9428,54.3858 C84.1178,54.3348 83.4038,54.9678 83.3528,55.7908 L83.3068,56.5318 C83.2558,57.3558 83.8888,58.0708 84.7118,58.1208 L88.3418,58.4278 Z" id="Fill-98" fill="#A5B5B6" mask="url(#mask-4)"></path>
                <path d="M88.3945,57.6798 C88.8075,57.7038 89.1575,57.3868 89.1825,56.9768 L89.2275,56.2368 C89.2525,55.8238 88.9385,55.4668 88.5255,55.4418 C88.5195,55.4408 88.5135,55.4408 88.5085,55.4408 L84.8885,55.1338 C84.4815,55.1138 84.1265,55.4268 84.1005,55.8368 L84.0555,56.5778 C84.0305,56.9908 84.3445,57.3468 84.7575,57.3728 C84.7635,57.3728 84.7695,57.3728 84.7745,57.3738 L88.3945,57.6798 Z M88.4355,59.1808 C88.3885,59.1808 88.3415,59.1798 88.2945,59.1768 C88.2895,59.1758 88.2845,59.1758 88.2785,59.1748 L84.6565,58.8688 C83.4225,58.7878 82.4825,57.7208 82.5585,56.4858 L82.6035,55.7448 C82.6795,54.5068 83.7475,53.5608 84.9885,53.6378 C84.9945,53.6378 84.9985,53.6378 85.0045,53.6388 L88.6265,53.9448 C89.8615,54.0268 90.8005,55.0928 90.7245,56.3278 L90.6795,57.0698 C90.6055,58.2608 89.6135,59.1808 88.4355,59.1808 L88.4355,59.1808 Z" id="Fill-99" fill="#354546" mask="url(#mask-4)"></path>
                <path d="M87.9258,62.6739 C88.7488,62.7249 89.4648,62.0919 89.5158,61.2689 L89.5608,60.5279 C89.6118,59.7039 88.9798,58.9889 88.1558,58.9389 L84.5268,58.6319 C83.7028,58.5809 82.9878,59.2129 82.9368,60.0359 L82.8918,60.7779 C82.8408,61.6009 83.4728,62.3169 84.2958,62.3669 L87.9258,62.6739 Z" id="Fill-100" fill="#A5B5B6" mask="url(#mask-4)"></path>
                <path d="M87.9785,61.9249 C88.3895,61.9459 88.7415,61.6329 88.7665,61.2229 L88.8125,60.4819 C88.8375,60.0689 88.5225,59.7119 88.1105,59.6869 C88.1045,59.6869 88.0985,59.6859 88.0925,59.6859 L84.4735,59.3799 C84.2775,59.3679 84.0875,59.4369 83.9385,59.5689 C83.7885,59.7009 83.6985,59.8849 83.6855,60.0829 L83.6395,60.8229 C83.6275,61.0219 83.6945,61.2139 83.8285,61.3649 C83.9605,61.5159 84.1435,61.6059 84.3415,61.6179 C84.3475,61.6179 84.3535,61.6189 84.3595,61.6189 L87.9785,61.9249 Z M88.0195,63.4269 C87.9725,63.4269 87.9265,63.4249 87.8795,63.4219 C87.8745,63.4219 87.8685,63.4209 87.8625,63.4209 L84.2405,63.1139 C83.6465,63.0759 83.1005,62.8079 82.7045,62.3589 C82.3045,61.9069 82.1055,61.3289 82.1425,60.7319 L82.1885,59.9899 C82.2255,59.3929 82.4945,58.8429 82.9455,58.4449 C83.3965,58.0449 83.9735,57.8459 84.5725,57.8829 C84.5785,57.8839 84.5835,57.8839 84.5895,57.8849 L88.2115,58.1909 C89.4455,58.2719 90.3855,59.3389 90.3095,60.5739 L90.2635,61.3149 C90.1905,62.5059 89.1975,63.4269 88.0195,63.4269 L88.0195,63.4269 Z" id="Fill-101" fill="#354546" mask="url(#mask-4)"></path>
                <path d="M87.7031,66.5284 C88.5261,66.5794 89.2411,65.9474 89.2921,65.1244 L89.3381,64.3824 C89.3891,63.5594 88.7571,62.8434 87.9331,62.7944 L84.3041,62.4864 C83.4801,62.4354 82.7651,63.0684 82.7141,63.8914 L82.6681,64.6324 C82.6171,65.4564 83.2501,66.1714 84.0731,66.2214 L87.7031,66.5284 Z" id="Fill-102" fill="#A5B5B6" mask="url(#mask-4)"></path>
                <path d="M87.7558,65.7804 C88.1658,65.8014 88.5188,65.4884 88.5438,65.0774 L88.5898,64.3374 C88.6148,63.9244 88.2998,63.5674 87.8868,63.5424 C87.8808,63.5424 87.8758,63.5414 87.8698,63.5414 L84.2498,63.2354 C84.0548,63.2254 83.8648,63.2914 83.7158,63.4234 C83.5648,63.5564 83.4748,63.7394 83.4628,63.9374 L83.4168,64.6784 C83.4038,64.8774 83.4718,65.0694 83.6048,65.2194 C83.7378,65.3714 83.9208,65.4614 84.1188,65.4734 C84.1248,65.4734 84.1308,65.4734 84.1368,65.4744 L87.7558,65.7804 Z M87.7968,67.2814 C87.7498,67.2814 87.7038,67.2804 87.6568,67.2774 C87.6518,67.2764 87.6458,67.2764 87.6398,67.2764 L84.0178,66.9694 C83.4228,66.9304 82.8778,66.6624 82.4818,66.2144 C82.0818,65.7624 81.8828,65.1844 81.9198,64.5864 L81.9658,63.8454 C82.0018,63.2474 82.2718,62.6984 82.7228,62.3004 C83.1738,61.9004 83.7508,61.7004 84.3498,61.7384 C84.3558,61.7384 84.3608,61.7394 84.3658,61.7394 L87.9878,62.0454 C89.2228,62.1274 90.1628,63.1944 90.0868,64.4284 L90.0408,65.1704 C89.9678,66.3614 88.9748,67.2814 87.7968,67.2814 L87.7968,67.2814 Z" id="Fill-103" fill="#354546" mask="url(#mask-4)"></path>
                <path d="M82.4521,54.7218 C82.0531,54.0738 81.1431,53.8808 80.4311,54.2958 L79.7911,54.6688 C79.0801,55.0828 78.8241,55.9528 79.2241,56.6028 L82.8791,62.5348 C83.2781,63.1848 84.1871,63.3768 84.8991,62.9618 L85.5401,62.5888 C86.2511,62.1748 86.5071,61.3048 86.1061,60.6558 L82.4521,54.7218 Z" id="Fill-104" fill="#A5B5B6" mask="url(#mask-4)"></path>
                <path d="M81.2402,54.8263 C81.0952,54.8263 80.9452,54.8643 80.8092,54.9433 L80.1692,55.3163 C79.9842,55.4243 79.8512,55.5943 79.8032,55.7833 C79.7772,55.8903 79.7652,56.0513 79.8632,56.2093 L83.5172,62.1423 C83.7032,62.4443 84.1632,62.5233 84.5222,62.3133 L85.1622,61.9413 C85.3462,61.8343 85.4792,61.6633 85.5272,61.4733 C85.5532,61.3673 85.5652,61.2063 85.4682,61.0483 L81.8132,55.1153 C81.6982,54.9283 81.4772,54.8263 81.2402,54.8263 M84.0952,63.9303 C83.3522,63.9303 82.6372,63.5753 82.2402,62.9293 L78.5862,56.9963 C78.2962,56.5253 78.2122,55.9653 78.3482,55.4193 C78.4942,54.8403 78.8832,54.3303 79.4142,54.0203 L80.0532,53.6473 C81.1162,53.0283 82.4782,53.3343 83.0912,54.3293 L86.7452,60.2623 C87.0352,60.7323 87.1192,61.2923 86.9822,61.8393 C86.8372,62.4183 86.4492,62.9283 85.9172,63.2373 L85.2772,63.6103 C84.9052,63.8273 84.4962,63.9303 84.0952,63.9303" id="Fill-105" fill="#354546" mask="url(#mask-4)"></path>
                <path d="M80.457,53.9522 L78.694,53.8962 C77.045,53.8452 75.653,55.1512 75.602,56.8012 L75.546,58.5622 C75.493,60.2122 76.8,61.6032 78.449,61.6562 L80.211,61.7122 C81.86,61.7642 83.253,60.4572 83.305,58.8072 L83.36,57.0462 C83.412,55.3962 82.106,54.0052 80.457,53.9522" id="Fill-106" fill="#A5B5B6" mask="url(#mask-4)"></path>
                <path d="M75.6015,56.8009 L75.6025,56.8009 L75.6015,56.8009 Z M78.5985,54.6459 C78.0275,54.6459 77.4845,54.8619 77.0625,55.2579 C76.6225,55.6699 76.3705,56.2269 76.3505,56.8239 L76.2945,58.5859 C76.2765,59.1839 76.4935,59.7549 76.9065,60.1959 C77.3195,60.6349 77.8745,60.8879 78.4725,60.9059 L80.2355,60.9619 C80.8345,60.9829 81.4035,60.7639 81.8435,60.3519 C82.2835,59.9389 82.5365,59.3819 82.5545,58.7839 L82.6105,57.0229 C82.6295,56.4249 82.4135,55.8539 81.9995,55.4129 C81.5865,54.9739 81.0305,54.7209 80.4325,54.7019 L78.6705,54.6469 C78.6465,54.6459 78.6225,54.6459 78.5985,54.6459 L78.5985,54.6459 Z M80.3075,62.4629 C80.2675,62.4629 80.2275,62.4629 80.1875,62.4609 L78.4255,62.4049 C76.3585,62.3399 74.7305,60.6059 74.7955,58.5389 L74.8515,56.7769 C74.8825,55.7789 75.3035,54.8509 76.0365,54.1639 C76.7675,53.4769 77.7185,53.1129 78.7185,53.1479 L80.4805,53.2029 C82.5465,53.2689 84.1755,55.0029 84.1105,57.0699 L84.0545,58.8319 C84.0225,59.8299 83.6025,60.7579 82.8705,61.4449 C82.1675,62.1049 81.2615,62.4629 80.3075,62.4629 L80.3075,62.4629 Z" id="Fill-107" fill="#354546" mask="url(#mask-4)"></path>
                <path d="M49.5156,75.0509 L49.5176,75.0509 L49.5156,75.0509 Z M50.4516,75.4269 C50.4276,75.4269 50.4046,75.4279 50.3816,75.4289 C50.2026,75.4369 50.1316,75.4789 50.1216,75.4919 C50.0366,75.6089 49.9686,76.3039 50.7346,77.9229 C51.3166,79.1539 52.1406,80.3999 52.6206,80.9469 C53.0066,81.3869 53.4926,81.6299 53.9526,81.6059 C54.3536,81.5879 54.7066,81.3829 54.9766,81.0129 C55.6496,80.0889 55.5146,78.5079 54.6816,77.5589 C53.9756,76.7529 51.6566,75.4269 50.4516,75.4269 L50.4516,75.4269 Z M53.8976,83.1079 C53.0206,83.1079 52.1506,82.6859 51.4936,81.9369 C50.9536,81.3219 47.5116,76.5279 48.9096,74.6099 C49.1206,74.3189 49.5366,73.9649 50.3146,73.9299 C52.0596,73.8499 54.8506,75.4769 55.8096,76.5699 C57.1146,78.0569 57.2816,80.3969 56.1886,81.8959 C55.6496,82.6359 54.8796,83.0659 54.0216,83.1049 C53.9806,83.1069 53.9396,83.1079 53.8976,83.1079 L53.8976,83.1079 Z" id="Fill-108" fill="#19B5FE" mask="url(#mask-4)"></path>
                <path d="M56.206,72.7608 C54.789,72.7608 52.608,73.1778 51.414,73.9728 C51.13,74.1618 50.779,74.4548 50.728,74.7788 C50.661,75.2108 51.139,76.0408 52.684,77.0758 C53.963,77.9328 55.512,78.6068 56.32,78.8058 C56.922,78.9528 57.539,78.8438 58.06,78.4978 C58.685,78.0808 59.121,77.3578 59.254,76.5138 C59.517,74.8438 58.562,73.1988 57.127,72.8468 C56.893,72.7888 56.575,72.7608 56.206,72.7608 M56.852,80.3698 C56.557,80.3698 56.259,80.3348 55.962,80.2618 C54.195,79.8268 48.817,77.2828 49.247,74.5458 C49.355,73.8548 49.805,73.2408 50.583,72.7238 C52.374,71.5318 55.875,70.9928 57.485,71.3898 C59.657,71.9238 61.116,74.3258 60.736,76.7458 C60.538,78.0038 59.865,79.0978 58.89,79.7468 C58.271,80.1588 57.569,80.3698 56.852,80.3698" id="Fill-109" fill="#C72C1C" mask="url(#mask-4)"></path>
                <path d="M45.791,60.0235 C44.147,59.8795 41.455,59.8335 39.807,59.9195 L30.736,60.3935 C29.089,60.4795 27.717,61.9005 27.688,63.5495 L27.538,72.1725 C27.509,73.8225 28.788,75.5275 30.38,75.9615 L39.568,78.4685 C41.16,78.9035 43.776,78.9495 45.383,78.5705 L54.653,76.3855 C56.26,76.0065 57.597,74.3475 57.626,72.6975 L57.776,64.0745 C57.805,62.4245 56.483,60.9585 54.84,60.8145 L45.791,60.0235 Z" id="Fill-110" fill="#A5B5B6" mask="url(#mask-4)"></path>
                <path d="M54.6953,73.9854 L45.4243,76.1714 C43.8183,76.5494 41.2023,76.5044 39.6103,76.0694 L30.4213,73.5624 C28.8293,73.1284 27.5503,71.4224 27.5793,69.7734 L27.5383,72.1734 C27.5083,73.8224 28.7883,75.5274 30.3803,75.9624 L39.5683,78.4684 C41.1603,78.9034 43.7763,78.9494 45.3823,78.5704 L54.6533,76.3854 C56.2593,76.0064 57.5963,74.3474 57.6263,72.6974 L57.6683,70.2974 C57.6383,71.9484 56.3013,73.6074 54.6953,73.9854" id="Fill-111" fill="#859596" mask="url(#mask-4)"></path>
                <path d="M41.7724,60.6261 C41.0664,60.6261 40.3974,60.6401 39.8454,60.6681 L30.7754,61.1431 C29.5304,61.2081 28.4594,62.3161 28.4374,63.5631 L28.2874,72.1861 C28.2644,73.4951 29.3134,74.8941 30.5774,75.2381 L39.7654,77.7461 C41.2354,78.1471 43.7284,78.1891 45.2104,77.8411 L54.4814,75.6551 C55.7564,75.3551 56.8534,73.9941 56.8764,72.6851 L57.0264,64.0621 C57.0474,62.8141 56.0164,61.6701 54.7744,61.5621 L45.7264,60.7721 C44.6574,60.6781 43.1434,60.6261 41.7724,60.6261 M42.7504,79.5801 C41.5424,79.5801 40.3094,79.4491 39.3714,79.1921 L30.1814,76.6861 C28.2444,76.1561 26.7524,74.1691 26.7884,72.1591 L26.9384,63.5371 C26.9734,61.4971 28.6604,59.7511 30.6974,59.6451 L39.7674,59.1701 C41.4494,59.0831 44.1794,59.1301 45.8564,59.2761 L54.9054,60.0671 C56.9374,60.2441 58.5614,62.0481 58.5264,64.0881 L58.3764,72.7111 C58.3404,74.7201 56.7814,76.6541 54.8254,77.1151 L45.5544,79.3011 C44.7604,79.4881 43.7634,79.5801 42.7504,79.5801" id="Fill-112" fill="#354546" mask="url(#mask-4)"></path>
                <polygon id="Fill-113" fill="#556566" mask="url(#mask-4)" points="45.6846 73.1017 32.6086 72.8727 32.7696 63.6747 45.8446 63.9037"></polygon>
                <path d="M41.2685,71.1632 C41.0125,71.1632 40.7705,71.0312 40.6325,70.8092 L39.5945,69.1442 L37.9775,69.1172 C37.7265,69.1122 37.4945,68.9822 37.3585,68.7702 L37.2905,68.6652 L36.8545,69.6812 C36.7565,69.9082 36.5545,70.0722 36.3125,70.1202 C36.0705,70.1692 35.8195,70.0952 35.6425,69.9232 L34.7565,69.0602 L32.6755,69.0242 C32.2615,69.0172 31.9315,68.6762 31.9395,68.2612 C31.9465,67.8472 32.2825,67.5172 32.7025,67.5242 L35.0795,67.5652 C35.2705,67.5692 35.4525,67.6452 35.5895,67.7782 L35.9075,68.0872 L36.4725,66.7702 C36.5815,66.5162 36.8245,66.3422 37.1015,66.3192 C37.3775,66.2972 37.6445,66.4292 37.7935,66.6632 L38.4075,67.6242 L40.0285,67.6522 C40.2835,67.6562 40.5175,67.7902 40.6525,68.0062 L41.0465,68.6392 L41.8595,66.0852 C41.9565,65.7772 42.2415,65.5662 42.5645,65.5622 C42.8875,65.5612 43.1775,65.7622 43.2835,66.0672 L43.8535,67.7192 L45.7775,67.7532 C46.1925,67.7602 46.5215,68.1012 46.5145,68.5162 C46.5075,68.9302 46.1635,69.2642 45.7515,69.2522 L43.3025,69.2102 C42.9875,69.2042 42.7085,69.0022 42.6065,68.7042 L42.6035,68.6942 L41.9835,70.6412 C41.8955,70.9192 41.6525,71.1212 41.3625,71.1572 C41.3305,71.1612 41.2995,71.1632 41.2685,71.1632" id="Fill-114" fill="#D5E5E6" mask="url(#mask-4)"></path>
                <path d="M33.3711,72.1368 L44.9471,72.3388 L45.0821,64.6398 L33.5061,64.4388 L33.3711,72.1368 Z M45.6841,73.8518 L45.6721,73.8518 L32.5961,73.6228 C32.3961,73.6198 32.2071,73.5378 32.0691,73.3948 C31.9311,73.2518 31.8551,73.0598 31.8581,72.8608 L32.0191,63.6618 C32.0221,63.4628 32.1041,63.2738 32.2481,63.1358 C32.3921,62.9968 32.5821,62.9168 32.7821,62.9248 L45.8581,63.1538 C46.2721,63.1598 46.6021,63.5018 46.5951,63.9158 L46.4341,73.1148 C46.4281,73.5248 46.0931,73.8518 45.6841,73.8518 L45.6841,73.8518 Z" id="Fill-115" fill="#354546" mask="url(#mask-4)"></path>
                <path d="M52.6631,65.797 C52.6451,66.777 51.8381,67.559 50.8571,67.541 C49.8771,67.525 49.0971,66.716 49.1131,65.735 C49.1311,64.755 49.9391,63.975 50.9191,63.991 C51.8991,64.009 52.6801,64.818 52.6631,65.797" id="Fill-116" fill="#F85C4C" mask="url(#mask-4)"></path>
                <path d="M50.8877,64.7413 C50.6207,64.7413 50.3687,64.8433 50.1767,65.0293 C49.9797,65.2193 49.8677,65.4743 49.8637,65.7493 C49.8537,66.3133 50.3057,66.7813 50.8697,66.7913 C51.1477,66.7963 51.4037,66.6933 51.6007,66.5043 C51.7967,66.3133 51.9087,66.0573 51.9127,65.7843 C51.9177,65.5113 51.8157,65.2513 51.6257,65.0543 C51.4357,64.8573 51.1797,64.7463 50.9067,64.7413 L50.8877,64.7413 Z M50.8897,68.2913 L50.8447,68.2913 C49.4517,68.2663 48.3397,67.1143 48.3637,65.7223 C48.3877,64.3303 49.5427,63.2193 50.9327,63.2423 C51.6067,63.2543 52.2367,63.5273 52.7037,64.0123 C53.1727,64.4983 53.4247,65.1363 53.4127,65.8103 C53.4017,66.4843 53.1277,67.1143 52.6427,67.5833 C52.1677,68.0413 51.5467,68.2913 50.8897,68.2913 L50.8897,68.2913 Z" id="Fill-117" fill="#C72C1C" mask="url(#mask-4)"></path>
                <path d="M52.5644,71.4464 C52.5474,72.4264 51.7394,73.2074 50.7584,73.1904 C49.7784,73.1734 48.9984,72.3644 49.0144,71.3844 C49.0324,70.4044 49.8404,69.6244 50.8204,69.6404 C51.8004,69.6584 52.5824,70.4664 52.5644,71.4464" id="Fill-118" fill="#B9D96D" mask="url(#mask-4)"></path>
                <path d="M50.789,70.3907 C50.522,70.3907 50.27,70.4927 50.078,70.6777 C49.881,70.8687 49.769,71.1237 49.765,71.3977 C49.76,71.6717 49.862,71.9307 50.053,72.1277 C50.242,72.3247 50.498,72.4357 50.771,72.4407 C51.049,72.4477 51.305,72.3427 51.502,72.1537 C51.698,71.9627 51.81,71.7067 51.814,71.4337 C51.819,71.1597 51.717,70.9007 51.527,70.7027 C51.337,70.5067 51.081,70.3957 50.808,70.3907 L50.789,70.3907 Z M50.791,73.9407 L50.746,73.9407 C50.071,73.9287 49.441,73.6547 48.974,73.1697 C48.505,72.6847 48.253,72.0457 48.266,71.3707 C48.277,70.6977 48.551,70.0677 49.036,69.5997 C49.52,69.1307 50.158,68.8787 50.834,68.8907 C51.508,68.9027 52.138,69.1767 52.606,69.6617 C53.074,70.1467 53.326,70.7857 53.314,71.4597 C53.303,72.1337 53.029,72.7637 52.544,73.2317 C52.069,73.6897 51.448,73.9407 50.791,73.9407 L50.791,73.9407 Z" id="Fill-119" fill="#719911" mask="url(#mask-4)"></path>
                <path d="M32.4209,62.547 C32.0609,62.547 31.7419,62.286 31.6819,61.918 L31.2779,59.466 C31.2109,59.057 31.4869,58.671 31.8969,58.604 C32.3059,58.536 32.6919,58.814 32.7579,59.222 L33.1619,61.675 C33.2299,62.083 32.9529,62.469 32.5439,62.536 C32.5029,62.543 32.4619,62.547 32.4209,62.547" id="Fill-120" fill="#354546" mask="url(#mask-4)"></path>
                <path d="M35.3818,62.0597 C35.0208,62.0597 34.7028,61.7977 34.6428,61.4307 L34.2378,58.9787 C34.1708,58.5697 34.4478,58.1837 34.8568,58.1167 C35.2658,58.0497 35.6518,58.3267 35.7188,58.7347 L36.1218,61.1877 C36.1898,61.5957 35.9128,61.9817 35.5038,62.0487 C35.4628,62.0557 35.4218,62.0597 35.3818,62.0597" id="Fill-121" fill="#354546" mask="url(#mask-4)"></path>
                <path d="M52.7256,62.547 C52.6856,62.547 52.6436,62.543 52.6026,62.536 C52.1946,62.469 51.9166,62.083 51.9846,61.675 L52.3886,59.222 C52.4556,58.814 52.8406,58.537 53.2496,58.604 C53.6596,58.671 53.9356,59.057 53.8686,59.466 L53.4646,61.918 C53.4046,62.286 53.0856,62.547 52.7256,62.547" id="Fill-122" fill="#354546" mask="url(#mask-4)"></path>
                <path d="M49.7656,62.0597 C49.7246,62.0597 49.6836,62.0557 49.6426,62.0487 C49.2336,61.9817 48.9566,61.5957 49.0246,61.1877 L49.4286,58.7347 C49.4946,58.3267 49.8806,58.0497 50.2896,58.1167 C50.6996,58.1837 50.9756,58.5697 50.9086,58.9787 L50.5046,61.4307 C50.4446,61.7977 50.1256,62.0597 49.7656,62.0597" id="Fill-123" fill="#354546" mask="url(#mask-4)"></path>
                <polygon id="Fill-124" fill="#A5B5B6" mask="url(#mask-4)" points="29.48 107.86 34.167 107.86 34.167 98.86 29.48 98.86"></polygon>
                <polygon id="Fill-125" fill="#C5D5D6" mask="url(#mask-4)" points="29.48 102.437 34.167 102.437 34.167 98.861 29.48 98.861"></polygon>
                <path d="M30.229,107.11 L33.417,107.11 L33.417,99.61 L30.229,99.61 L30.229,107.11 Z M34.167,108.61 L29.479,108.61 C29.065,108.61 28.729,108.275 28.729,107.86 L28.729,98.86 C28.729,98.446 29.065,98.11 29.479,98.11 L34.167,98.11 C34.581,98.11 34.917,98.446 34.917,98.86 L34.917,107.86 C34.917,108.275 34.581,108.61 34.167,108.61 L34.167,108.61 Z" id="Fill-126" fill="#354546" mask="url(#mask-4)"></path>
                <polygon id="Fill-127" fill="#A5B5B6" mask="url(#mask-4)" points="26.3 106.098 29.485 106.098 29.485 90.199 26.3 90.199"></polygon>
                <path d="M27.051,105.348 L28.736,105.348 L28.736,90.949 L27.051,90.949 L27.051,105.348 Z M29.485,106.848 L26.301,106.848 C25.886,106.848 25.551,106.512 25.551,106.098 L25.551,90.198 C25.551,89.784 25.886,89.448 26.301,89.448 L29.485,89.448 C29.899,89.448 30.235,89.784 30.235,90.198 L30.235,106.098 C30.235,106.512 29.899,106.848 29.485,106.848 L29.485,106.848 Z" id="Fill-128" fill="#354546" mask="url(#mask-4)"></path>
                <path d="M27.959,84.6856 L27.827,84.6856 C26.177,84.6856 24.827,86.0356 24.827,87.6856 L24.827,94.8106 L30.959,94.8106 L30.959,87.6856 C30.959,86.0356 29.609,84.6856 27.959,84.6856" id="Fill-129" fill="#A5B5B6" mask="url(#mask-4)"></path>
                <path d="M27.959,84.6856 L27.827,84.6856 C26.177,84.6856 24.827,86.0356 24.827,87.6856 L24.827,90.4226 C24.827,88.7726 26.177,87.4226 27.827,87.4226 L27.959,87.4226 C29.609,87.4226 30.959,88.7726 30.959,90.4226 L30.959,87.6856 C30.959,86.0356 29.609,84.6856 27.959,84.6856" id="Fill-130" fill="#C5D5D6" mask="url(#mask-4)"></path>
                <path d="M25.5771,94.0607 L30.2091,94.0607 L30.2091,87.6857 C30.2091,86.4447 29.2001,85.4357 27.9591,85.4357 L27.8271,85.4357 C26.5861,85.4357 25.5771,86.4447 25.5771,87.6857 L25.5771,94.0607 Z M30.9591,95.5607 L24.8271,95.5607 C24.4121,95.5607 24.0771,95.2247 24.0771,94.8107 L24.0771,87.6857 C24.0771,85.6187 25.7591,83.9357 27.8271,83.9357 L27.9591,83.9357 C30.0271,83.9357 31.7091,85.6187 31.7091,87.6857 L31.7091,94.8107 C31.7091,95.2247 31.3731,95.5607 30.9591,95.5607 L30.9591,95.5607 Z" id="Fill-131" fill="#354546" mask="url(#mask-4)"></path>
                <polygon id="Fill-132" fill="#A5B5B6" mask="url(#mask-4)" points="50.604 107.86 55.291 107.86 55.291 98.86 50.604 98.86"></polygon>
                <polygon id="Fill-133" fill="#C5D5D6" mask="url(#mask-4)" points="50.604 102.437 55.291 102.437 55.291 98.861 50.604 98.861"></polygon>
                <path d="M51.354,107.11 L54.542,107.11 L54.542,99.61 L51.354,99.61 L51.354,107.11 Z M55.292,108.61 L50.604,108.61 C50.19,108.61 49.854,108.275 49.854,107.86 L49.854,98.86 C49.854,98.446 50.19,98.11 50.604,98.11 L55.292,98.11 C55.706,98.11 56.042,98.446 56.042,98.86 L56.042,107.86 C56.042,108.275 55.706,108.61 55.292,108.61 L55.292,108.61 Z" id="Fill-134" fill="#354546" mask="url(#mask-4)"></path>
                <polygon id="Fill-135" fill="#A5B5B6" mask="url(#mask-4)" points="55.285 106.098 58.471 106.098 58.471 90.199 55.285 90.199"></polygon>
                <path d="M56.035,105.348 L57.721,105.348 L57.721,90.949 L56.035,90.949 L56.035,105.348 Z M58.471,106.848 L55.285,106.848 C54.871,106.848 54.535,106.512 54.535,106.098 L54.535,90.198 C54.535,89.784 54.871,89.448 55.285,89.448 L58.471,89.448 C58.885,89.448 59.221,89.784 59.221,90.198 L59.221,106.098 C59.221,106.512 58.885,106.848 58.471,106.848 L58.471,106.848 Z" id="Fill-136" fill="#354546" mask="url(#mask-4)"></path>
                <path d="M56.8115,84.6856 L56.9445,84.6856 C58.5945,84.6856 59.9445,86.0356 59.9445,87.6856 L59.9445,94.8106 L53.8115,94.8106 L53.8115,87.6856 C53.8115,86.0356 55.1625,84.6856 56.8115,84.6856" id="Fill-137" fill="#A5B5B6" mask="url(#mask-4)"></path>
                <path d="M56.8115,84.6856 L56.9445,84.6856 C58.5945,84.6856 59.9445,86.0356 59.9445,87.6856 L59.9445,90.4226 C59.9445,88.7726 58.5945,87.4226 56.9445,87.4226 L56.8115,87.4226 C55.1625,87.4226 53.8115,88.7726 53.8115,90.4226 L53.8115,87.6856 C53.8115,86.0356 55.1625,84.6856 56.8115,84.6856" id="Fill-138" fill="#C5D5D6" mask="url(#mask-4)"></path>
                <path d="M54.5615,94.0607 L59.1945,94.0607 L59.1945,87.6857 C59.1945,86.4447 58.1845,85.4357 56.9445,85.4357 L56.8115,85.4357 C55.5715,85.4357 54.5615,86.4447 54.5615,87.6857 L54.5615,94.0607 Z M59.9445,95.5607 L53.8115,95.5607 C53.3975,95.5607 53.0615,95.2247 53.0615,94.8107 L53.0615,87.6857 C53.0615,85.6187 54.7445,83.9357 56.8115,83.9357 L56.9445,83.9357 C59.0115,83.9357 60.6945,85.6187 60.6945,87.6857 L60.6945,94.8107 C60.6945,95.2247 60.3585,95.5607 59.9445,95.5607 L59.9445,95.5607 Z" id="Fill-139" fill="#354546" mask="url(#mask-4)"></path>
                <path d="M50.4668,115.3605 C50.4668,117.0105 49.1158,118.3605 47.4668,118.3605 L37.1668,118.3605 C35.5168,118.3605 34.1668,117.0105 34.1668,115.3605 L34.1668,91.3605 C34.1668,89.7105 35.5168,88.3605 37.1668,88.3605 L47.4668,88.3605 C49.1158,88.3605 50.4668,89.7105 50.4668,91.3605 L50.4668,115.3605 Z" id="Fill-140" fill="#6D6D6D" mask="url(#mask-4)"></path>
                <path d="M47.4668,113.7853 L37.1668,113.7853 C35.8268,113.7853 34.5858,112.8953 34.1668,111.6773 L34.1668,115.3603 C34.1668,117.0113 35.5168,118.3603 37.1668,118.3603 L47.4668,118.3603 C49.1158,118.3603 50.4668,117.0113 50.4668,115.3603 L50.4668,111.6773 C50.0478,112.8953 48.8068,113.7853 47.4668,113.7853" id="Fill-141" fill="#5B5B5B" mask="url(#mask-4)"></path>
                <polygon id="Fill-142" fill="#929292" mask="url(#mask-4)" points="50.376 101.4112 34.167 100.0602 34.257 96.0112 50.376 96.0112"></polygon>
                <polygon id="Fill-143" fill="#929292" mask="url(#mask-4)" points="50.376 104.5607 34.257 105.6647 34.257 102.9647 50.376 102.9647"></polygon>
                <path d="M37.167,89.1104 C35.926,89.1104 34.917,90.1204 34.917,91.3604 L34.917,115.3604 C34.917,116.6014 35.926,117.6104 37.167,117.6104 L47.467,117.6104 C48.707,117.6104 49.717,116.6014 49.717,115.3604 L49.717,91.3604 C49.717,90.1204 48.707,89.1104 47.467,89.1104 L37.167,89.1104 Z M47.467,119.1104 L37.167,119.1104 C35.099,119.1104 33.417,117.4284 33.417,115.3604 L33.417,91.3604 C33.417,89.2934 35.099,87.6104 37.167,87.6104 L47.467,87.6104 C49.534,87.6104 51.217,89.2934 51.217,91.3604 L51.217,115.3604 C51.217,117.4284 49.534,119.1104 47.467,119.1104 L47.467,119.1104 Z" id="Fill-144" fill="#121212" mask="url(#mask-4)"></path>
                <path d="M50.5039,84.6856 L34.1299,84.6856 C32.3479,84.6856 30.8909,86.0356 30.8909,87.6856 L30.8909,92.0356 L53.7429,92.0356 L53.7429,87.6856 C53.7429,86.0356 52.2849,84.6856 50.5039,84.6856" id="Fill-145" fill="#A5B5B6" mask="url(#mask-4)"></path>
                <path d="M50.5039,84.6856 L34.1299,84.6856 C32.3479,84.6856 30.8909,86.0356 30.8909,87.6856 L53.7429,87.6856 C53.7429,86.0356 52.2849,84.6856 50.5039,84.6856" id="Fill-146" fill="#C5D5D6" mask="url(#mask-4)"></path>
                <path d="M31.6406,91.2853 L52.9936,91.2853 L52.9936,87.6853 C52.9936,86.4443 51.8756,85.4353 50.5036,85.4353 L34.1296,85.4353 C32.7566,85.4353 31.6406,86.4443 31.6406,87.6853 L31.6406,91.2853 Z M53.7436,92.7853 L30.8906,92.7853 C30.4756,92.7853 30.1406,92.4493 30.1406,92.0353 L30.1406,87.6853 C30.1406,85.6183 31.9296,83.9353 34.1296,83.9353 L50.5036,83.9353 C52.7026,83.9353 54.4936,85.6183 54.4936,87.6853 L54.4936,92.0353 C54.4936,92.4493 54.1576,92.7853 53.7436,92.7853 L53.7436,92.7853 Z" id="Fill-147" fill="#354546" mask="url(#mask-4)"></path>
                <path d="M37.8164,86.8663 C37.4024,86.8663 37.0664,86.5303 37.0664,86.1163 L37.0664,83.6313 C37.0664,83.2163 37.4024,82.8813 37.8164,82.8813 C38.2304,82.8813 38.5664,83.2163 38.5664,83.6313 L38.5664,86.1163 C38.5664,86.5303 38.2304,86.8663 37.8164,86.8663" id="Fill-148" fill="#354546" mask="url(#mask-4)"></path>
                <path d="M40.8164,86.8663 C40.4024,86.8663 40.0664,86.5303 40.0664,86.1163 L40.0664,83.6313 C40.0664,83.2163 40.4024,82.8813 40.8164,82.8813 C41.2304,82.8813 41.5664,83.2163 41.5664,83.6313 L41.5664,86.1163 C41.5664,86.5303 41.2304,86.8663 40.8164,86.8663" id="Fill-149" fill="#354546" mask="url(#mask-4)"></path>
                <path d="M43.8164,86.8663 C43.4024,86.8663 43.0664,86.5303 43.0664,86.1163 L43.0664,83.6313 C43.0664,83.2163 43.4024,82.8813 43.8164,82.8813 C44.2304,82.8813 44.5664,83.2163 44.5664,83.6313 L44.5664,86.1163 C44.5664,86.5303 44.2304,86.8663 43.8164,86.8663" id="Fill-150" fill="#354546" mask="url(#mask-4)"></path>
                <path d="M46.8164,86.8663 C46.4024,86.8663 46.0664,86.5303 46.0664,86.1163 L46.0664,83.6313 C46.0664,83.2163 46.4024,82.8813 46.8164,82.8813 C47.2304,82.8813 47.5664,83.2163 47.5664,83.6313 L47.5664,86.1163 C47.5664,86.5303 47.2304,86.8663 46.8164,86.8663" id="Fill-151" fill="#354546" mask="url(#mask-4)"></path>
                <path d="M64.668,21.1124 C64.657,21.1124 64.647,21.1124 64.636,21.1114 C64.222,21.0944 63.9,20.7444 63.918,20.3314 L64.348,10.2094 C64.484,6.4934 61.57,3.3554 57.851,3.2184 C57.844,3.2174 57.837,3.2174 57.83,3.2164 L31.77,1.5054 C29.981,1.4404 28.267,2.0834 26.943,3.3114 C25.618,4.5424 24.852,6.2084 24.785,8.0014 L24.356,18.8754 C24.34,19.2894 23.993,19.6134 23.577,19.5944 C23.163,19.5784 22.841,19.2294 22.857,18.8154 L23.287,7.9444 C23.367,5.7524 24.304,3.7164 25.923,2.2124 C27.542,0.7094 29.644,-0.0746 31.836,0.0064 C31.843,0.0074 31.85,0.0074 31.857,0.0074 L57.918,1.7194 C62.458,1.8934 66.014,5.7254 65.847,10.2684 L65.417,20.3944 C65.399,20.7974 65.067,21.1124 64.668,21.1124" id="Fill-152" fill="#354546" mask="url(#mask-4)"></path>
                <path d="M19.3242,19.7638 C18.0302,19.7158 16.9222,21.0268 16.8602,22.6748 L16.4862,32.8088 C16.4262,34.4578 17.4332,35.8458 18.7272,35.8938 C20.0212,35.9418 21.0802,35.9808 21.0802,35.9808 L21.6762,19.8508 C21.6762,19.8508 20.6172,19.8118 19.3242,19.7638" id="Fill-153" fill="#A5B5B6" mask="url(#mask-4)"></path>
                <path d="M16.8603,22.6749 L16.6773,27.6349 L21.3813,27.8089 L21.6753,19.8509 C21.6753,19.8509 20.6173,19.8119 19.3243,19.7639 C18.0303,19.7159 16.9223,21.0269 16.8603,22.6749" id="Fill-154" fill="#C5D5D6" mask="url(#mask-4)"></path>
                <path d="M21.081,36.7306 L21.053,36.7306 L18.7,36.6426 C17.852,36.6116 17.047,36.1566 16.492,35.3926 C15.97,34.6726 15.701,33.7456 15.737,32.7816 L16.111,22.6476 C16.146,21.6826 16.482,20.7776 17.058,20.0986 C17.667,19.3786 18.503,18.9846 19.352,19.0146 L21.704,19.1016 L21.648,20.6006 L19.296,20.5136 C18.905,20.4956 18.517,20.6956 18.202,21.0676 C17.849,21.4856 17.633,22.0816 17.61,22.7036 L17.235,32.8366 C17.213,33.4586 17.384,34.0686 17.706,34.5106 C17.992,34.9046 18.365,35.1296 18.756,35.1436 L21.107,35.2316 C21.521,35.2466 21.845,35.5946 21.829,36.0076 C21.814,36.4136 21.482,36.7306 21.081,36.7306" id="Fill-155" fill="#354546" mask="url(#mask-4)"></path>
                <polygon id="Fill-156" fill="#859596" mask="url(#mask-4)" points="25.3955 38.5392 20.9915 38.3772 21.7155 18.7752 26.1205 18.9382"></polygon>
                <polygon id="Fill-157" fill="#A5B5B6" mask="url(#mask-4)" points="25.706 30.1524 21.302 29.9904 21.716 18.7754 26.12 18.9384"></polygon>
                <path d="M21.7685,37.6554 L24.6735,37.7614 L25.3425,19.6604 L22.4375,19.5524 L21.7685,37.6554 Z M25.3955,39.2894 L25.3685,39.2894 L20.9635,39.1264 C20.5495,39.1104 20.2265,38.7624 20.2425,38.3484 L20.9655,18.7484 C20.9735,18.5494 21.0595,18.3614 21.2055,18.2254 C21.3505,18.0914 21.5455,18.0204 21.7435,18.0264 L26.1475,18.1884 C26.5615,18.2044 26.8845,18.5514 26.8695,18.9664 L26.1455,38.5674 C26.1375,38.7654 26.0515,38.9544 25.9065,39.0894 C25.7675,39.2174 25.5845,39.2894 25.3955,39.2894 L25.3955,39.2894 Z" id="Fill-158" fill="#354546" mask="url(#mask-4)"></path>
                <path d="M16.6777,28.3849 L16.6757,28.3849 L14.8747,28.3809 C14.4607,28.3809 14.1257,28.0439 14.1257,27.6299 C14.1267,27.2159 14.4627,26.8809 14.8757,26.8809 L14.8777,26.8809 L16.6787,26.8849 C17.0927,26.8859 17.4287,27.2219 17.4277,27.6369 C17.4267,28.0499 17.0907,28.3849 16.6777,28.3849" id="Fill-159" fill="#354546" mask="url(#mask-4)"></path>
                <path d="M71.7519,10.5558 C71.6659,10.5558 71.5789,10.5448 71.4919,10.5228 C70.9299,10.3798 70.5909,9.8078 70.7329,9.2458 L71.5109,6.1978 C71.6529,5.6358 72.2249,5.2958 72.7869,5.4398 C73.3489,5.5818 73.6889,6.1548 73.5449,6.7158 L72.7689,9.7648 C72.6479,10.2398 72.2209,10.5558 71.7519,10.5558" id="Fill-160" fill="#354546" mask="url(#mask-4)"></path>
                <path d="M68.6738,22.337 C68.6118,22.337 68.5498,22.33 68.4878,22.315 C68.0868,22.212 67.8438,21.804 67.9458,21.402 L71.0248,9.32 C71.1268,8.919 71.5348,8.676 71.9368,8.778 C72.3378,8.881 72.5798,9.289 72.4778,9.691 L69.3998,21.773 C69.3138,22.111 69.0088,22.337 68.6738,22.337" id="Fill-161" fill="#354546" mask="url(#mask-4)"></path>
                <path d="M68.6728,21.587 C69.9668,21.635 70.9758,23.024 70.9148,24.672 L70.5398,34.806 C70.4798,36.455 69.3708,37.765 68.0768,37.717 C66.7828,37.669 65.7248,37.63 65.7248,37.63 L66.3208,21.5 C66.3208,21.5 67.3788,21.539 68.6728,21.587" id="Fill-162" fill="#A5B5B6" mask="url(#mask-4)"></path>
                <path d="M70.915,24.672 L70.731,29.632 L66.027,29.458 L66.321,21.5 C66.321,21.5 67.379,21.539 68.673,21.587 C69.967,21.635 70.976,23.024 70.915,24.672" id="Fill-163" fill="#C5D5D6" mask="url(#mask-4)"></path>
                <path d="M68.1455,38.4679 C68.1135,38.4679 68.0825,38.4679 68.0495,38.4669 L65.6975,38.3799 L65.7525,36.8809 L68.1045,36.9679 L68.1455,36.9679 C68.9985,36.9679 69.7465,35.9779 69.7915,34.7789 L70.1655,24.6449 C70.1885,24.0229 70.0165,23.4129 69.6955,22.9699 C69.4095,22.5759 69.0365,22.3519 68.6455,22.3369 L66.2925,22.2499 L66.3485,20.7509 L68.7015,20.8379 C69.5485,20.8689 70.3535,21.3249 70.9085,22.0879 C71.4315,22.8079 71.7005,23.7359 71.6645,24.6989 L71.2905,34.8339 C71.2145,36.8619 69.8135,38.4679 68.1455,38.4679" id="Fill-164" fill="#354546" mask="url(#mask-4)"></path>
                <polygon id="Fill-165" fill="#859596" mask="url(#mask-4)" points="61.2324 39.8634 65.6364 40.0264 66.3604 20.4254 61.9564 20.2624"></polygon>
                <polygon id="Fill-166" fill="#A5B5B6" mask="url(#mask-4)" points="61.542 31.4767 65.946 31.6397 66.36 20.4247 61.956 20.2627"></polygon>
                <path d="M62.0098,39.1417 L64.9148,39.2487 L65.5828,21.1467 L62.6778,21.0387 L62.0098,39.1417 Z M65.6368,40.7767 C65.6268,40.7767 65.6178,40.7767 65.6088,40.7757 L61.2038,40.6137 C60.7908,40.5977 60.4678,40.2497 60.4828,39.8357 L61.2068,20.2347 C61.2138,20.0367 61.2998,19.8477 61.4468,19.7127 C61.5918,19.5777 61.7868,19.5077 61.9848,19.5127 L66.3888,19.6757 C66.8028,19.6907 67.1248,20.0387 67.1108,20.4537 L66.3858,40.0537 C66.3788,40.2527 66.2928,40.4407 66.1468,40.5767 C66.0078,40.7047 65.8248,40.7767 65.6368,40.7767 L65.6368,40.7767 Z" id="Fill-167" fill="#354546" mask="url(#mask-4)"></path>
                <path d="M72.5283,30.5108 C72.5103,30.5108 72.4923,30.5108 72.4733,30.5098 L70.6773,30.3798 C70.2643,30.3508 69.9533,29.9908 69.9833,29.5778 C70.0123,29.1648 70.3733,28.8548 70.7853,28.8838 L72.5823,29.0128 C72.9953,29.0428 73.3053,29.4018 73.2753,29.8158 C73.2473,30.2098 72.9183,30.5108 72.5283,30.5108" id="Fill-168" fill="#354546" mask="url(#mask-4)"></path>
                <path d="M25.3281,44.6768 C24.3011,44.6768 21.6931,45.7908 20.5871,47.0518 C19.6481,48.1208 19.4981,49.9068 20.2591,50.9508 C20.5691,51.3788 20.9791,51.6148 21.4441,51.6368 C21.9761,51.6628 22.5331,51.3868 22.9731,50.8848 C23.5061,50.2778 24.4191,48.8978 25.0631,47.5348 C25.8951,45.7748 25.8631,44.9628 25.7301,44.7808 C25.6891,44.7238 25.5601,44.6858 25.3861,44.6778 C25.3671,44.6768 25.3481,44.6768 25.3281,44.6768 M21.5091,53.1378 C21.4651,53.1378 21.4201,53.1368 21.3761,53.1348 C20.4541,53.0928 19.6271,52.6308 19.0461,51.8348 C17.8631,50.2108 18.0451,47.6748 19.4601,46.0618 C20.4811,44.8968 23.4101,43.1768 25.3171,43.1768 C25.3631,43.1768 25.4091,43.1778 25.4541,43.1798 C26.2801,43.2168 26.7201,43.5898 26.9421,43.8968 C27.5551,44.7368 27.3841,46.1368 26.4191,48.1768 C25.7091,49.6778 24.7161,51.1728 24.1001,51.8738 C23.3911,52.6828 22.4531,53.1378 21.5091,53.1378" id="Fill-169" fill="#19B5FE" mask="url(#mask-4)"></path>
                <path d="M58.7783,43.1505 C58.6533,43.2825 58.6603,43.5435 58.6873,43.7385 C58.8603,44.9765 60.2023,46.7285 60.9533,47.1725 C61.9133,47.7405 63.4733,47.4295 64.3623,46.4945 C64.7893,46.0465 64.9953,45.5195 64.9293,45.0495 C64.8783,44.6755 64.6573,44.3635 64.2923,44.1475 C62.8533,43.2965 59.4253,42.4685 58.7783,43.1505 M62.0993,48.9595 C61.4193,48.9595 60.7563,48.7985 60.1893,48.4635 C59.0253,47.7755 57.4333,45.6065 57.2023,43.9455 C57.0693,42.9995 57.3943,42.4285 57.6903,42.1175 C59.3163,40.4065 64.0043,42.2345 65.0553,42.8565 C65.8163,43.3065 66.2993,44.0115 66.4163,44.8425 C66.5453,45.7675 66.1923,46.7465 65.4503,47.5275 C64.5673,48.4565 63.3043,48.9595 62.0993,48.9595" id="Fill-170" fill="#19B5FE" mask="url(#mask-4)"></path>
                <path d="M18.959,41.7393 C18.548,41.7393 18.193,41.7713 17.933,41.8353 C16.314,42.2333 15.237,44.0843 15.532,45.9623 C15.682,46.9133 16.173,47.7283 16.882,48.2003 C17.473,48.5933 18.174,48.7173 18.857,48.5493 C19.755,48.3283 21.473,47.5823 22.889,46.6333 C24.359,45.6473 25.177,44.6733 25.075,44.0263 C25.015,43.6423 24.613,43.3033 24.287,43.0873 C22.96,42.2033 20.535,41.7393 18.959,41.7393 M18.254,50.1233 C17.479,50.1233 16.72,49.8933 16.051,49.4493 C14.994,48.7463 14.265,47.5593 14.05,46.1943 C13.638,43.5663 15.219,40.9583 17.574,40.3793 C19.334,39.9463 23.16,40.5353 25.118,41.8383 C25.957,42.3953 26.44,43.0533 26.557,43.7943 C27.023,46.7603 21.147,49.5313 19.216,50.0053 C18.896,50.0843 18.573,50.1233 18.254,50.1233" id="Fill-171" fill="#719911" mask="url(#mask-4)"></path>
                <path d="M60.8808,47.3106 C60.7288,51.4326 57.2298,54.7906 53.1048,54.7746 L31.4848,54.6846 C27.3598,54.6666 24.2468,51.2886 24.5678,47.1756 L26.9558,13.3296 C27.2768,9.2166 30.9018,6.1356 35.0128,6.4836 L54.7808,8.1546 C58.8918,8.5016 62.1298,12.1586 61.9778,16.2806 L60.8808,47.3106 Z" id="Fill-172" fill="#A5B5B6" mask="url(#mask-4)"></path>
                <path d="M57.456,41.0167 C57.344,44.0477 54.54,46.5097 51.227,46.4867 L33.855,46.3667 C30.541,46.3427 28.032,43.8507 28.279,40.8267 L30.116,16.9307 C30.363,13.9067 33.269,11.6497 36.572,11.9157 L52.46,13.1947 C55.763,13.4597 58.374,16.1577 58.262,19.1897 L57.456,41.0167 Z" id="Fill-173" fill="#C5D5D6" mask="url(#mask-4)"></path>
                <path d="M54.6777,51.4356 L31.1847,51.2766 C28.2687,51.2566 25.8157,49.8156 24.5477,47.6796 C24.5077,51.5606 27.5297,54.6676 31.4847,54.6846 L53.1047,54.7746 C56.5637,54.7886 59.5817,52.4276 60.5557,49.2356 C59.0247,50.6056 56.9397,51.4516 54.6777,51.4356" id="Fill-174" fill="#859596" mask="url(#mask-4)"></path>
                <path d="M54.7392,52.1856 L54.6732,52.1856 L31.1782,52.0266 C28.0842,52.0056 25.3632,50.5236 23.9032,48.0616 C23.6912,47.7066 23.8082,47.2456 24.1652,47.0346 C24.5212,46.8236 24.9812,46.9406 25.1932,47.2966 C26.3832,49.3016 28.6242,50.5086 31.1892,50.5266 L54.6822,50.6856 C56.6812,50.6986 58.5932,49.9856 60.0552,48.6756 C60.3652,48.4006 60.8392,48.4266 61.1152,48.7356 C61.3912,49.0436 61.3652,49.5176 61.0562,49.7936 C59.3312,51.3376 57.0902,52.1856 54.7392,52.1856" id="Fill-175" fill="#354546" mask="url(#mask-4)"></path>
                <path d="M60.8808,47.3106 L60.8828,47.3106 L60.8808,47.3106 Z M34.3768,7.2066 C32.7928,7.2066 31.2748,7.7636 30.0488,8.8056 C28.6758,9.9716 27.8428,11.5996 27.7028,13.3876 L25.3168,47.2286 C25.1768,49.0126 25.7428,50.6906 26.9108,51.9576 C28.0778,53.2246 29.7038,53.9266 31.4878,53.9346 L53.1078,54.0246 L53.1358,54.0246 C56.8598,54.0246 59.9938,51.0056 60.1318,47.2826 L61.2278,16.2536 C61.3658,12.5146 58.4448,9.2166 54.7178,8.9016 L34.9488,7.2316 C34.7578,7.2146 34.5668,7.2066 34.3768,7.2066 L34.3768,7.2066 Z M53.1358,55.5246 L53.1008,55.5246 L31.4818,55.4346 C29.2758,55.4246 27.2608,54.5516 25.8078,52.9736 C24.3548,51.3966 23.6488,49.3166 23.8198,47.1176 L26.2078,13.2766 C26.3788,11.0816 27.3978,9.0896 29.0768,7.6626 C30.7568,6.2356 32.8868,5.5526 35.0748,5.7366 L54.8438,7.4076 C59.3588,7.7886 62.8948,11.7816 62.7278,16.3086 L61.6308,47.3366 L61.6308,47.3376 C61.4638,51.8596 57.6558,55.5246 53.1358,55.5246 L53.1358,55.5246 Z" id="Fill-176" fill="#354546" mask="url(#mask-4)"></path>
                <path d="M44.3545,16.296 C40.2475,16.296 35.3505,15.035 35.3505,9.025 C35.3505,8.081 35.4715,7.455 35.7115,6.562 C35.8195,6.162 36.2315,5.926 36.6305,6.032 C37.0315,6.14 37.2685,6.552 37.1615,6.951 C36.9465,7.75 36.8505,8.239 36.8505,9.025 C36.8505,10.452 36.8505,14.796 44.3545,14.796 C51.8905,14.796 51.8905,10.452 51.8905,9.025 C51.8905,8.706 51.8755,8.386 51.8415,8.072 C51.7995,7.66 52.0995,7.291 52.5115,7.249 C52.9235,7.208 53.2925,7.506 53.3335,7.918 C53.3725,8.283 53.3905,8.655 53.3905,9.025 C53.3905,12.342 51.8235,16.296 44.3545,16.296" id="Fill-177" fill="#354546" mask="url(#mask-4)"></path>
                <path d="M39.5723,25.9435 C39.4063,30.4135 35.6483,33.9035 31.1783,33.7385 C26.7083,33.5735 23.2183,29.8155 23.3833,25.3445 C23.5483,20.8745 27.3053,17.3845 31.7763,17.5495 C36.2473,17.7145 39.7373,21.4725 39.5723,25.9435" id="Fill-178" fill="#C5D5D6" mask="url(#mask-4)"></path>
                <path d="M31.4736,18.294 C27.5446,18.294 24.2786,21.414 24.1326,25.373 C23.9826,29.423 27.1566,32.84 31.2056,32.989 C31.2976,32.992 31.3896,32.994 31.4806,32.994 C35.4106,32.994 38.6756,29.874 38.8226,25.915 C38.9716,21.865 35.7986,18.448 31.7486,18.299 C31.6576,18.296 31.5656,18.294 31.4736,18.294 M31.4816,34.494 C31.3706,34.494 31.2616,34.492 31.1506,34.488 C26.2746,34.308 22.4526,30.193 22.6336,25.317 C22.8136,20.44 26.9256,16.627 31.8036,16.8 C36.6806,16.981 40.5016,21.095 40.3216,25.971 C40.1456,30.736 36.2116,34.494 31.4816,34.494" id="Fill-179" fill="#354546" mask="url(#mask-4)"></path>
                <path d="M36.6963,25.837 C36.5903,28.72 34.1673,30.97 31.2843,30.863 C28.4023,30.757 26.1513,28.334 26.2583,25.451 C26.3643,22.568 28.7883,20.318 31.6703,20.425 C34.5523,20.531 36.8023,22.954 36.6963,25.837" id="Fill-180" fill="#9ABD45" mask="url(#mask-4)"></path>
                <path d="M34.7783,24.2354 C34.7123,26.0264 33.2063,27.4254 31.4143,27.3594 C29.6223,27.2934 28.2233,25.7874 28.2903,23.9954 C28.3553,22.2034 29.8623,20.8044 31.6533,20.8714 C33.4453,20.9374 34.8443,22.4434 34.7783,24.2354" id="Fill-181" fill="#CEEC87" mask="url(#mask-4)"></path>
                <path d="M31.4736,21.171 C30.3406,21.171 29.2676,21.592 28.4336,22.366 C27.5586,23.18 27.0516,24.285 27.0076,25.479 C26.9166,27.943 28.8476,30.023 31.3126,30.113 C32.5056,30.159 33.6456,29.734 34.5216,28.922 C35.3966,28.108 35.9036,27.003 35.9476,25.81 C36.0376,23.345 34.1076,21.266 31.6426,21.175 C31.5856,21.172 31.5296,21.171 31.4736,21.171 M31.4806,31.617 C31.4066,31.617 31.3316,31.615 31.2566,31.612 C27.9656,31.491 25.3866,28.715 25.5086,25.424 C25.6296,22.133 28.4046,19.557 31.6986,19.676 C34.9896,19.797 37.5676,22.573 37.4466,25.864 C37.3276,29.081 34.6726,31.617 31.4806,31.617" id="Fill-182" fill="#354546" mask="url(#mask-4)"></path>
                <path d="M32.8232,22.17 C33.1552,22.911 32.1182,23.545 30.7602,24.153 C29.4022,24.761 28.2382,25.112 27.9062,24.37 C27.5742,23.628 28.4062,22.534 29.7632,21.927 C31.1212,21.319 32.4912,21.428 32.8232,22.17" id="Fill-183" fill="#FFFFFF" mask="url(#mask-4)"></path>
                <path d="M31.8867,29.3507 C31.7997,29.1577 32.0697,28.9937 32.4217,28.8347 C32.7747,28.6777 33.0757,28.5867 33.1617,28.7797 C33.2487,28.9717 33.0327,29.2557 32.6807,29.4127 C32.3277,29.5707 31.9727,29.5427 31.8867,29.3507" id="Fill-184" fill="#FFFFFF" mask="url(#mask-4)"></path>
                <path d="M36.2803,25.7823 C36.2563,26.4633 35.6833,26.9943 35.0033,26.9693 C34.3223,26.9443 33.7913,26.3723 33.8163,25.6913 C33.8423,25.0113 34.4133,24.4793 35.0933,24.5053 C35.7743,24.5303 36.3053,25.1023 36.2803,25.7823" id="Fill-185" fill="#354546" mask="url(#mask-4)"></path>
                <path d="M62.4101,27.2901 C62.2701,31.0781 59.0861,32.3861 55.2981,32.2461 C51.5101,32.1061 48.5521,30.5721 48.6911,26.7831 C48.8321,22.9951 52.0161,20.0381 55.8051,20.1781 C59.5931,20.3171 62.5501,23.5021 62.4101,27.2901" id="Fill-186" fill="#C5D5D6" mask="url(#mask-4)"></path>
                <path d="M55.5478,20.9229 C52.2798,20.9229 49.5628,23.5189 49.4418,26.8119 C49.3848,28.3529 49.8828,29.4859 50.9648,30.2769 C51.9608,31.0069 53.4688,31.4279 55.3248,31.4969 C57.1958,31.5679 58.7548,31.2559 59.8318,30.6009 C61.0058,29.8869 61.6048,28.7949 61.6608,27.2629 C61.7848,23.8939 59.1458,21.0519 55.7768,20.9279 C55.6998,20.9249 55.6238,20.9229 55.5478,20.9229 M55.8238,33.0059 C55.6418,33.0059 55.4568,33.0029 55.2698,32.9949 C53.0818,32.9149 51.3348,32.4069 50.0788,31.4879 C48.6068,30.4109 47.8678,28.7749 47.9428,26.7559 C48.0978,22.5609 51.6348,19.2739 55.8318,19.4279 C60.0268,19.5829 63.3148,23.1229 63.1598,27.3189 C63.0848,29.3349 62.2038,30.9139 60.6108,31.8819 C59.3978,32.6209 57.7508,33.0059 55.8238,33.0059" id="Fill-187" fill="#354546" mask="url(#mask-4)"></path>
                <path d="M59.9736,27.2003 C59.8836,29.6423 57.8296,29.8993 55.3876,29.8093 C52.9456,29.7203 51.0376,29.3163 51.1276,26.8743 C51.2186,24.4303 53.2716,22.5243 55.7146,22.6143 C58.1576,22.7043 60.0646,24.7583 59.9736,27.2003" id="Fill-188" fill="#19B5FE" mask="url(#mask-4)"></path>
                <path d="M58.2998,25.6681 C58.2438,27.1861 57.0698,27.7501 55.5508,27.6931 C54.0318,27.6381 52.7458,26.9821 52.8018,25.4651 C52.8588,23.9461 54.1338,22.7611 55.6528,22.8171 C57.1708,22.8731 58.3568,24.1491 58.2998,25.6681" id="Fill-189" fill="#39D5FF" mask="url(#mask-4)"></path>
                <path d="M55.5478,23.3614 C54.6168,23.3614 53.7358,23.7074 53.0498,24.3434 C52.3298,25.0114 51.9138,25.9204 51.8778,26.9014 C51.8378,27.9694 52.2538,28.3404 52.6648,28.5644 C53.3538,28.9374 54.4418,29.0244 55.4148,29.0604 C58.5558,29.1784 59.1758,28.4864 59.2248,27.1734 C59.2608,26.1914 58.9118,25.2554 58.2438,24.5354 C57.5758,23.8164 56.6678,23.4004 55.6868,23.3644 C55.6408,23.3624 55.5938,23.3614 55.5478,23.3614 M56.2268,30.5794 C55.9078,30.5794 55.6128,30.5684 55.3608,30.5594 C53.7008,30.4984 50.2488,30.3704 50.3788,26.8454 C50.4298,25.4644 51.0158,24.1854 52.0278,23.2444 C53.0418,22.3034 54.3598,21.8144 55.7418,21.8654 C57.1238,21.9164 58.4018,22.5024 59.3438,23.5144 C60.2838,24.5284 60.7748,25.8464 60.7238,27.2274 C60.6118,30.2264 58.0378,30.5794 56.2268,30.5794" id="Fill-190" fill="#354546" mask="url(#mask-4)"></path>
                <path d="M56.6914,24.0929 C56.9724,24.7219 56.0934,25.2589 54.9434,25.7739 C53.7934,26.2879 52.8064,26.5859 52.5244,25.9569 C52.2434,25.3289 52.9484,24.4029 54.0984,23.8869 C55.2494,23.3719 56.4104,23.4639 56.6914,24.0929" id="Fill-191" fill="#FFFFFF" mask="url(#mask-4)"></path>
                <path d="M57.0088,28.587 C56.9358,28.424 57.1638,28.285 57.4618,28.151 C57.7608,28.018 58.0168,27.941 58.0898,28.104 C58.1628,28.267 57.9808,28.507 57.6818,28.641 C57.3828,28.774 57.0818,28.75 57.0088,28.587" id="Fill-192" fill="#FFFFFF" mask="url(#mask-4)"></path>
                <path d="M53.6338,27.005 C53.6128,27.582 53.1278,28.032 52.5518,28.011 C51.9748,27.989 51.5248,27.505 51.5458,26.928 C51.5678,26.352 52.0518,25.901 52.6288,25.922 C53.2048,25.943 53.6548,26.429 53.6338,27.005" id="Fill-193" fill="#354546" mask="url(#mask-4)"></path>
                <path d="M31.6133,40.6388 L54.3583,35.5568 C54.3583,35.5568 55.6373,42.5628 50.1053,44.6078 C40.3643,48.2078 31.6133,40.6388 31.6133,40.6388" id="Fill-194" fill="#FFFFFF" mask="url(#mask-4)"></path>
                <path d="M31.6133,40.6388 L31.6143,40.6388 L31.6133,40.6388 Z M33.3663,41.0148 C34.3193,41.6688 35.7643,42.5518 37.5413,43.3008 C41.8643,45.1208 46.0043,45.3238 49.8453,43.9048 C51.8623,43.1588 53.1123,41.5818 53.5613,39.2188 C53.7653,38.1428 53.7543,37.1318 53.7073,36.4708 L33.3663,41.0148 Z M44.6573,46.3218 C42.1303,46.3218 39.5193,45.7678 36.9143,44.6638 C33.4393,43.1928 31.2163,41.2858 31.1233,41.2048 C30.9083,41.0208 30.8163,40.7298 30.8853,40.4548 C30.9553,40.1808 31.1733,39.9678 31.4493,39.9068 L54.1953,34.8248 C54.3943,34.7808 54.6033,34.8188 54.7733,34.9308 C54.9433,35.0438 55.0593,35.2208 55.0963,35.4218 C55.1103,35.4988 55.4363,37.3328 55.0443,39.4518 C54.5073,42.3528 52.8893,44.3778 50.3663,45.3108 C48.5423,45.9858 46.6253,46.3218 44.6573,46.3218 L44.6573,46.3218 Z" id="Fill-195" fill="#354546" mask="url(#mask-4)"></path>
                <path d="M38.0381,45.0558 C37.6631,45.0558 37.3391,44.7748 37.2941,44.3938 L36.7091,39.4208 C36.6611,39.0098 36.9551,38.6368 37.3661,38.5878 C37.7771,38.5388 38.1501,38.8338 38.1991,39.2448 L38.7841,44.2178 C38.8321,44.6298 38.5381,45.0018 38.1271,45.0508 C38.0971,45.0538 38.0671,45.0558 38.0381,45.0558" id="Fill-196" fill="#354546" mask="url(#mask-4)"></path>
                <path d="M43.4883,46.0655 C43.0863,46.0655 42.7543,45.7475 42.7393,45.3415 L42.4833,38.0685 C42.4693,37.6545 42.7933,37.3065 43.2073,37.2925 C43.6173,37.2785 43.9683,37.6015 43.9823,38.0155 L44.2383,45.2895 C44.2533,45.7035 43.9283,46.0495 43.5143,46.0645 C43.5063,46.0655 43.4973,46.0655 43.4883,46.0655" id="Fill-197" fill="#354546" mask="url(#mask-4)"></path>
                <path d="M49.0556,45.3575 C48.6456,45.3575 48.3106,45.0275 48.3056,44.6155 L48.2216,36.7675 C48.2176,36.3535 48.5496,36.0145 48.9636,36.0095 L48.9726,36.0095 C49.3826,36.0095 49.7176,36.3395 49.7216,36.7525 L49.8056,44.5995 C49.8106,45.0135 49.4786,45.3525 49.0636,45.3575 L49.0556,45.3575 Z" id="Fill-198" fill="#354546" mask="url(#mask-4)"></path>
                <path d="M12.5615,79.5518 L12.4575,80.1768 L22.2885,81.4648 L22.3455,81.1168 C22.6145,79.4898 21.5015,77.9378 19.8735,77.6688 L16.0085,77.0788 C14.3805,76.8108 12.8295,77.9228 12.5615,79.5518" id="Fill-199" fill="#A5B5B6" mask="url(#mask-4)"></path>
                <path d="M22.289,82.2149 C22.249,82.2149 22.208,82.2119 22.167,82.2049 C21.758,82.1379 21.481,81.7519 21.549,81.3439 L21.606,80.9949 C21.808,79.7709 20.976,78.6109 19.752,78.4089 L15.895,77.8199 C14.662,77.6179 13.503,78.4489 13.302,79.6729 L13.198,80.2989 C13.131,80.7069 12.745,80.9829 12.336,80.9169 C11.928,80.8499 11.65,80.4639 11.718,80.0549 L11.821,79.4299 C11.983,78.4439 12.522,77.5799 13.338,76.9939 C14.154,76.4089 15.145,76.1759 16.131,76.3389 L19.986,76.9279 C20.98,77.0919 21.846,77.6299 22.431,78.4459 C23.016,79.2619 23.248,80.2539 23.086,81.2389 L23.028,81.5869 C22.968,81.9539 22.65,82.2149 22.289,82.2149" id="Fill-200" fill="#354546" mask="url(#mask-4)"></path>
                <path d="M60.8955,70.879 C55.6795,66.744 46.3605,68.097 42.3945,73.66 C38.4435,68.087 29.1265,66.712 23.9015,70.834 C18.2235,75.313 16.4985,84.252 22.7915,91.419 C26.6005,95.758 41.4545,107.265 42.3535,107.267 C43.2535,107.268 58.1355,95.796 61.9555,91.467 C68.2655,84.316 66.5625,75.372 60.8955,70.879" id="Fill-201" fill="#FF5442" mask="url(#mask-4)"></path>
                <path d="M60.8955,70.879 C60.8805,70.867 60.8655,70.857 60.8505,70.845 C59.5835,84.108 49.1545,94.446 36.4905,94.431 C30.3165,94.423 24.6805,91.955 20.3815,87.892 C20.9945,89.096 21.7915,90.279 22.7915,91.419 C26.6005,95.758 41.4545,107.265 42.3535,107.267 C43.2535,107.268 58.1355,95.796 61.9555,91.467 C68.2655,84.316 66.5625,75.372 60.8955,70.879" id="Fill-202" fill="#E74C3C" mask="url(#mask-4)"></path>
                <path d="M31.3681,69.1895 C28.6881,69.1895 26.2111,69.9675 24.3661,71.4225 C21.6531,73.5625 19.9161,76.7795 19.5981,80.2485 C19.2571,83.9845 20.5911,87.7765 23.3541,90.9235 C26.9391,95.0055 40.2511,105.3835 42.3541,106.4665 C44.4611,105.3885 57.7991,95.0445 61.3921,90.9705 C64.1641,87.8305 65.5081,84.0425 65.1761,80.3045 C64.8661,76.8355 63.1371,73.6135 60.4301,71.4665 C58.1261,69.6405 54.8291,68.8735 51.3851,69.3605 C47.8471,69.8615 44.7941,71.5865 43.0061,74.0955 C42.8651,74.2935 42.6381,74.4105 42.3941,74.4105 C42.1511,74.4105 41.9241,74.2925 41.7831,74.0935 C40.0011,71.5815 36.9511,69.8475 33.4151,69.3375 C32.7241,69.2395 32.0401,69.1895 31.3681,69.1895 L31.3681,69.1895 Z M42.3631,108.0165 L42.3521,108.0165 C42.0701,108.0155 41.7771,108.0155 39.0131,106.0065 C37.3891,104.8275 35.3231,103.2475 33.1971,101.5565 C31.2531,100.0115 24.7191,94.7515 22.2271,91.9145 C19.1891,88.4535 17.7241,84.2615 18.1041,80.1115 C18.4591,76.2345 20.4021,72.6385 23.4361,70.2455 C26.0661,68.1705 29.7811,67.2995 33.6291,67.8535 C37.1971,68.3675 40.3361,70.0215 42.3961,72.4425 C44.4631,70.0265 47.6051,68.3795 51.1751,67.8755 C55.0241,67.3305 58.7371,68.2105 61.3611,70.2925 C64.3891,72.6925 66.3241,76.2935 66.6701,80.1715 C67.0391,84.3235 65.5641,88.5105 62.5171,91.9635 C60.0191,94.7945 53.4721,100.0395 51.5241,101.5795 C49.3931,103.2635 47.3241,104.8395 45.6981,106.0145 C42.9631,107.9915 42.6431,108.0165 42.3631,108.0165 L42.3631,108.0165 Z" id="Fill-203" fill="#9E3428" mask="url(#mask-4)"></path>
                <path d="M32.6689,73.0323 C33.2279,74.5303 30.6869,74.8863 28.2439,76.0193 C25.8019,77.1523 24.3829,78.6353 23.8229,77.1363 C23.2649,75.6393 24.0729,73.4263 26.5159,72.2923 C28.9579,71.1593 32.1099,71.5353 32.6689,73.0323" id="Fill-204" fill="#FFFFFF" mask="url(#mask-4)"></path>
                <path d="M37.0381,73.8224 C36.9191,74.3614 36.1001,74.6404 35.2091,74.4454 C34.3181,74.2504 33.6931,73.6544 33.8131,73.1144 C33.9341,72.5754 34.7531,72.2964 35.6431,72.4914 C36.5331,72.6864 37.1581,73.2824 37.0381,73.8224" id="Fill-205" fill="#FFFFFF" mask="url(#mask-4)"></path>
                <path d="M50.8428,72.0489 C50.9798,72.5259 50.3798,73.1119 49.5028,73.3609 C48.6258,73.6109 47.8038,73.4269 47.6658,72.9509 C47.5298,72.4759 48.1288,71.8879 49.0058,71.6389 C49.8828,71.3899 50.7048,71.5729 50.8428,72.0489" id="Fill-206" fill="#FFFFFF" mask="url(#mask-4)"></path>
                <path d="M41.5156,96.673 C41.4346,96.673 41.3516,96.659 41.2706,96.631 C40.8786,96.495 40.6706,96.069 40.8066,95.677 L42.5216,90.727 L39.5006,82.305 C39.4506,82.162 39.4436,82.008 39.4816,81.862 L41.6686,73.471 C41.7736,73.07 42.1836,72.83 42.5836,72.935 C42.9856,73.039 43.2256,73.448 43.1206,73.85 L40.9916,82.016 L44.0226,90.47 C44.0796,90.631 44.0806,90.807 44.0256,90.968 L42.2246,96.168 C42.1176,96.478 41.8266,96.673 41.5156,96.673" id="Fill-207" fill="#9E3428" mask="url(#mask-4)"></path>
                <polygon id="Fill-208" fill="#A5B5B6" mask="url(#mask-4)" points="45.6484 78.7892 37.3424 79.9722 36.8834 76.7522 45.1904 75.5692"></polygon>
                <path d="M37.7324,77.3888 L37.9794,79.1228 L44.8004,78.1528 L44.5534,76.4178 L37.7324,77.3888 Z M37.3424,80.7218 C37.1814,80.7218 37.0224,80.6688 36.8924,80.5718 C36.7334,80.4518 36.6284,80.2748 36.5994,80.0768 L36.1414,76.8578 C36.0834,76.4478 36.3684,76.0678 36.7784,76.0088 L45.0854,74.8258 C45.4944,74.7688 45.8754,75.0538 45.9324,75.4638 L46.3914,78.6828 C46.4204,78.8798 46.3684,79.0798 46.2494,79.2398 C46.1284,79.3988 45.9514,79.5028 45.7544,79.5318 L37.4484,80.7138 C37.4134,80.7188 37.3784,80.7218 37.3424,80.7218 L37.3424,80.7218 Z" id="Fill-209" fill="#354546" mask="url(#mask-4)"></path>
                <polygon id="Fill-210" fill="#A5B5B6" mask="url(#mask-4)" points="45.6494 89.3683 37.5034 87.3593 38.2824 84.2023 46.4274 86.2113"></polygon>
                <path d="M38.4111,86.8116 L45.1001,88.4606 L45.5201,86.7596 L38.8301,85.1106 L38.4111,86.8116 Z M45.6491,90.1186 C45.5891,90.1186 45.5291,90.1116 45.4701,90.0966 L37.3231,88.0876 C36.9211,87.9896 36.6761,87.5826 36.7751,87.1806 L37.5541,84.0226 C37.6011,83.8306 37.7241,83.6636 37.8931,83.5606 C38.0641,83.4576 38.2681,83.4266 38.4611,83.4746 L46.6071,85.4826 C47.0101,85.5826 47.2551,85.9886 47.1561,86.3906 L46.3781,89.5476 C46.3301,89.7416 46.2071,89.9076 46.0371,90.0106 C45.9191,90.0826 45.7851,90.1186 45.6491,90.1186 L45.6491,90.1186 Z" id="Fill-211" fill="#354546" mask="url(#mask-4)"></path>
                <path d="M12.458,80.1768 L12.017,82.8598 L11.839,83.9358 L10.956,89.2958 C10.687,90.9238 11.8,92.4758 13.429,92.7428 L27.375,95.0038 C29.003,95.2718 30.555,94.1588 30.823,92.5318 L31.883,86.0948 C32.151,84.4668 31.039,82.9158 29.411,82.6478 L20.803,81.2628 L12.458,80.1768 Z" id="Fill-212" fill="#A5B5B6" mask="url(#mask-4)"></path>
                <path d="M31.8828,86.0948 C32.1518,84.4668 31.0388,82.9158 29.4108,82.6478 L22.3898,81.5248 L20.4018,93.8878 L27.3748,95.0038 C29.0028,95.2718 30.5548,94.1588 30.8228,92.5318 L31.8828,86.0948 Z" id="Fill-213" fill="#859596" mask="url(#mask-4)"></path>
                <path d="M27.8662,95.7941 C27.6632,95.7941 27.4582,95.7771 27.2532,95.7441 L13.3082,93.4831 C11.2662,93.1481 9.8802,91.2141 10.2162,89.1741 L11.7182,80.0551 C11.7852,79.6461 12.1712,79.3701 12.5802,79.4371 C12.9892,79.5041 13.2652,79.8901 13.1982,80.2991 L11.6962,89.4181 C11.4942,90.6421 12.3262,91.8021 13.5502,92.0031 L27.4952,94.2641 C28.0872,94.3611 28.6812,94.2211 29.1722,93.8691 C29.6622,93.5181 29.9862,92.9991 30.0832,92.4091 L31.1432,85.9741 C31.2402,85.3841 31.1002,84.7891 30.7492,84.2991 C30.3972,83.8091 29.8792,83.4841 29.2892,83.3881 L20.6832,82.0031 C20.2742,81.9381 19.9962,81.5531 20.0612,81.1441 C20.1282,80.7341 20.5122,80.4571 20.9222,80.5231 L29.5302,81.9071 C30.5172,82.0691 31.3832,82.6081 31.9682,83.4251 C32.5532,84.2401 32.7862,85.2321 32.6232,86.2171 L31.5632,92.6531 C31.4002,93.6391 30.8622,94.5031 30.0462,95.0881 C29.3992,95.5521 28.6422,95.7941 27.8662,95.7941" id="Fill-214" fill="#354546" mask="url(#mask-4)"></path>
                <path d="M20.3555,94.63 C20.3145,94.63 20.2735,94.627 20.2325,94.62 C19.8235,94.553 19.5465,94.167 19.6145,93.758 L21.6495,81.402 C21.7165,80.993 22.1025,80.718 22.5115,80.784 C22.9205,80.852 23.1975,81.237 23.1295,81.646 L21.0935,94.002 C21.0335,94.369 20.7155,94.63 20.3555,94.63" id="Fill-215" fill="#354546" mask="url(#mask-4)"></path>
                <path d="M31.7519,87.8136 C31.7079,87.8136 31.6639,87.8106 31.6189,87.8016 L21.6649,86.0266 C21.2579,85.9546 20.9859,85.5646 21.0589,85.1566 C21.1319,84.7496 21.5219,84.4766 21.9289,84.5496 L31.8829,86.3256 C32.2909,86.3986 32.5629,86.7886 32.4889,87.1956 C32.4249,87.5586 32.1079,87.8136 31.7519,87.8136" id="Fill-216" fill="#354546" mask="url(#mask-4)"></path>
                <path d="M30.9931,92.3575 C30.9571,92.3575 30.9211,92.3545 30.8841,92.3495 L20.8791,90.8865 C20.4691,90.8265 20.1841,90.4455 20.2451,90.0365 C20.3051,89.6265 20.6851,89.3415 21.0961,89.4025 L31.1001,90.8655 C31.5111,90.9245 31.7951,91.3055 31.7341,91.7155 C31.6801,92.0885 31.3591,92.3575 30.9931,92.3575" id="Fill-217" fill="#354546" mask="url(#mask-4)"></path>
                <path d="M14.9951,90.255 C14.9541,90.255 14.9131,90.252 14.8721,90.245 L10.9071,89.592 C10.4981,89.525 10.2221,89.139 10.2891,88.73 C10.3561,88.321 10.7421,88.044 11.1501,88.111 L14.3761,88.643 L15.4111,82.359 L12.1861,81.827 C11.7771,81.76 11.5011,81.374 11.5681,80.966 C11.6361,80.557 12.0211,80.281 12.4301,80.348 L16.3951,81.001 C16.5921,81.033 16.7661,81.142 16.8831,81.304 C16.9991,81.465 17.0461,81.666 17.0141,81.862 L15.7341,89.627 C15.6741,89.994 15.3551,90.255 14.9951,90.255" id="Fill-218" fill="#354546" mask="url(#mask-4)"></path>
                <path d="M20.8037,82.0128 C20.7627,82.0128 20.7227,82.0098 20.6817,82.0028 L18.4937,81.6468 C18.0857,81.5798 17.8087,81.1948 17.8747,80.7858 C17.9417,80.3768 18.3267,80.0988 18.7357,80.1658 L20.9227,80.5228 C21.3317,80.5888 21.6097,80.9748 21.5427,81.3828 C21.4827,81.7508 21.1637,82.0128 20.8037,82.0128" id="Fill-219" fill="#354546" mask="url(#mask-4)"></path>
            </g>
        </g>
    </g>
</svg>