<?xml version="1.0" encoding="UTF-8"?>
<svg width="96px" height="122px" viewBox="0 0 96 122" version="1.1" xmlns="http://www.w3.org/2000/svg" xmlns:xlink="http://www.w3.org/1999/xlink">
    <!-- Generator: Sketch 42 (36781) - http://www.bohemiancoding.com/sketch -->
    <title>14</title>
    <desc>Created with Sketch.</desc>
    <defs>
        <polygon id="path-1" points="63.7094 8 0.4424 8 0.4424 0.3776 63.7094 0.3776 63.7094 8"></polygon>
        <polygon id="path-3" points="0 122.041 95.946 122.041 95.946 0 0 0"></polygon>
    </defs>
    <g id="Page-1" stroke="none" stroke-width="1" fill="none" fill-rule="evenodd">
        <g id="1024" transform="translate(-660.000000, -123.000000)">
            <g id="14" transform="translate(660.000000, 123.000000)">
                <g id="Group-3" transform="translate(21.000000, 114.041000)">
                    <mask id="mask-2" fill="white">
                        <use xlink:href="#path-1"></use>
                    </mask>
                    <g id="Clip-2"></g>
                    <path d="M63.7094,4.1886 C63.7094,6.2936 49.5464,8.0006 32.0764,8.0006 C14.6054,8.0006 0.4424,6.2936 0.4424,4.1886 C0.4424,2.0846 14.6054,0.3776 32.0764,0.3776 C49.5464,0.3776 63.7094,2.0846 63.7094,4.1886" id="Fill-1" fill="#CCCCCC" mask="url(#mask-2)"></path>
                </g>
                <mask id="mask-4" fill="white">
                    <use xlink:href="#path-3"></use>
                </mask>
                <g id="Clip-5"></g>
                <polygon id="Fill-4" fill="#758586" mask="url(#mask-4)" points="44.693 87.555 60.812 87.555 60.812 75.949 44.693 75.949"></polygon>
                <path d="M45.443,86.805 L60.062,86.805 L60.062,76.699 L45.443,76.699 L45.443,86.805 Z M60.812,88.305 L44.693,88.305 C44.279,88.305 43.943,87.969 43.943,87.555 L43.943,75.948 C43.943,75.534 44.279,75.198 44.693,75.198 L60.812,75.198 C61.227,75.198 61.562,75.534 61.562,75.948 L61.562,87.555 C61.562,87.969 61.227,88.305 60.812,88.305 L60.812,88.305 Z" id="Fill-6" fill="#354546" mask="url(#mask-4)"></path>
                <polygon id="Fill-7" fill="#758586" mask="url(#mask-4)" points="48.354 61.398 57.696 61.398 57.696 52.895 48.354 52.895"></polygon>
                <path d="M49.104,60.649 L56.946,60.649 L56.946,53.645 L49.104,53.645 L49.104,60.649 Z M57.696,62.149 L48.354,62.149 C47.939,62.149 47.604,61.813 47.604,61.399 L47.604,52.895 C47.604,52.481 47.939,52.145 48.354,52.145 L57.696,52.145 C58.11,52.145 58.446,52.481 58.446,52.895 L58.446,61.399 C58.446,61.813 58.11,62.149 57.696,62.149 L57.696,62.149 Z" id="Fill-8" fill="#354546" mask="url(#mask-4)"></path>
                <path d="M57.6967,58.3985 C57.6827,58.3985 57.6697,58.3975 57.6557,58.3975 L48.3137,57.8955 C47.8997,57.8735 47.5827,57.5195 47.6047,57.1065 C47.6267,56.6925 47.9817,56.3745 48.3937,56.3975 L57.7367,56.8995 C58.1497,56.9205 58.4677,57.2745 58.4457,57.6885 C58.4237,58.0875 58.0927,58.3985 57.6967,58.3985" id="Fill-9" fill="#354546" mask="url(#mask-4)"></path>
                <path d="M35.8984,64.8839 C36.8944,64.7119 37.8954,64.6399 38.8914,64.6549 C39.3904,64.6619 39.8874,64.6929 40.3874,64.7449 C40.6374,64.7739 40.8874,64.8039 41.1424,64.8449 C41.2704,64.8649 41.3984,64.8869 41.5304,64.9129 L41.7324,64.9529 C41.8104,64.9699 41.8574,64.9799 41.9824,65.0109 L40.8514,69.4349 L40.6724,69.3979 C40.5934,69.3829 40.5094,69.3679 40.4244,69.3549 C40.2554,69.3269 40.0774,69.3059 39.9004,69.2849 C39.5444,69.2479 39.1824,69.2269 38.8204,69.2209 C38.0964,69.2099 37.3734,69.2629 36.6734,69.3849 L35.8984,64.8839 Z" id="Fill-10" fill="#F9BF3B" mask="url(#mask-4)"></path>
                <path d="M40.7006,70.169 L40.5216,70.133 C40.4596,70.12 40.3836,70.107 40.3066,70.096 C40.1556,70.07 40.0006,70.052 39.8146,70.03 C39.4916,69.996 39.1506,69.976 38.8086,69.97 C38.1186,69.962 37.4436,70.012 36.8026,70.123 L36.5446,68.646 C37.2776,68.518 38.0476,68.458 38.8316,68.471 C39.2186,68.477 39.6046,68.5 39.9796,68.539 C40.1506,68.56 40.3536,68.583 40.5476,68.615 C40.6356,68.629 40.7276,68.645 40.8146,68.661 L41.0016,68.7 L40.7006,70.169 Z" id="Fill-11" fill="#F1892D" mask="url(#mask-4)"></path>
                <path d="M41.8027,65.7384 C41.7117,65.7164 41.6667,65.7064 41.6147,65.6954 L41.3837,65.6484 C41.2647,65.6254 41.1447,65.6044 41.0247,65.5864 C40.7957,65.5494 40.5707,65.5204 40.3027,65.4904 C39.8387,65.4414 39.3577,65.4124 38.8797,65.4044 C37.9077,65.3924 36.9467,65.4644 36.0267,65.6234 L35.7707,64.1444 C36.7817,63.9694 37.8367,63.8884 38.9027,63.9044 C39.4267,63.9134 39.9517,63.9444 40.4657,63.9994 C40.7617,64.0324 41.0077,64.0634 41.2627,64.1044 C41.3957,64.1264 41.5317,64.1494 41.6717,64.1764 L41.9317,64.2284 C41.9957,64.2424 42.0507,64.2554 42.1627,64.2824 L41.8027,65.7384 Z" id="Fill-12" fill="#F1892D" mask="url(#mask-4)"></path>
                <polygon id="Fill-13" fill="#F1892D" mask="url(#mask-4)" points="39.5707 69.2325 38.0707 69.2095 38.1417 64.6425 39.6417 64.6665"></polygon>
                <path d="M30.2333,67.169 C31.0853,66.581 32.0043,66.091 32.9593,65.707 C33.9153,65.33 34.9033,65.052 35.8983,64.884 L36.6733,69.385 C35.9713,69.501 35.2953,69.696 34.6503,69.948 C34.0083,70.208 33.4013,70.532 32.8363,70.922 L30.2333,67.169 Z" id="Fill-14" fill="#F9BF3B" mask="url(#mask-4)"></path>
                <path d="M33.2617,71.5392 L32.4107,70.3042 C33.0127,69.8902 33.6717,69.5352 34.3687,69.2532 C35.0997,68.9682 35.8307,68.7652 36.5507,68.6442 L36.7967,70.1242 C36.1787,70.2272 35.5487,70.4022 34.9227,70.6462 C34.3357,70.8852 33.7737,71.1862 33.2617,71.5392" id="Fill-15" fill="#F1892D" mask="url(#mask-4)"></path>
                <path d="M30.6596,67.7862 L29.8066,66.5522 C30.6936,65.9392 31.6596,65.4212 32.6786,65.0112 C33.7006,64.6092 34.7396,64.3182 35.7746,64.1442 L36.0226,65.6242 C35.0906,65.7802 34.1526,66.0432 33.2336,66.4042 C32.3226,66.7712 31.4546,67.2372 30.6596,67.7862" id="Fill-16" fill="#F1892D" mask="url(#mask-4)"></path>
                <polygon id="Fill-17" fill="#F1892D" mask="url(#mask-4)" points="33.954 70.2257 32.262 65.9847 33.655 65.4287 35.347 69.6697"></polygon>
                <path d="M26.062,71.0401 C26.366,70.6931 26.687,70.3591 27.003,70.0231 C27.331,69.6961 27.653,69.3631 27.994,69.0491 C28.327,68.7271 28.676,68.4231 29.022,68.1151 C29.103,68.0401 29.212,67.9541 29.309,67.8741 L29.609,67.6291 C29.814,67.4731 30.022,67.3181 30.233,67.1691 L32.836,70.9221 C32.697,71.0211 32.559,71.1241 32.421,71.2271 L32.222,71.3911 C32.154,71.4471 32.092,71.4931 32.015,71.5641 C31.718,71.8291 31.417,72.0891 31.133,72.3661 C30.84,72.6351 30.564,72.9211 30.283,73.2011 C30.01,73.4921 29.734,73.7771 29.471,74.0791 L26.062,71.0401 Z" id="Fill-18" fill="#F9BF3B" mask="url(#mask-4)"></path>
                <path d="M30.0361,74.5724 L28.9061,73.5864 C29.1191,73.3414 29.3391,73.1084 29.5531,72.8834 L29.7541,72.6704 C29.8281,72.5964 29.9011,72.5224 29.9741,72.4494 C30.1801,72.2424 30.3931,72.0284 30.6181,71.8214 C30.8481,71.5964 31.0871,71.3844 31.3181,71.1794 L31.5151,71.0054 C31.5731,70.9514 31.6321,70.9034 31.6901,70.8564 L31.9721,70.6274 C32.1131,70.5204 32.2551,70.4154 32.3991,70.3114 L33.2731,71.5304 C33.1421,71.6244 33.0141,71.7204 32.8851,71.8174 L32.6981,71.9694 C32.6771,71.9874 32.6541,72.0074 32.6301,72.0254 C32.5971,72.0524 32.5621,72.0794 32.5231,72.1154 L32.3131,72.3014 C32.0831,72.5074 31.8651,72.7004 31.6561,72.9034 L31.6401,72.9184 C31.4371,73.1044 31.2431,73.3004 31.0371,73.5074 C30.9651,73.5804 30.8931,73.6524 30.8201,73.7244 L30.6431,73.9134 C30.4311,74.1374 30.2301,74.3494 30.0361,74.5724" id="Fill-19" fill="#F1892D" mask="url(#mask-4)"></path>
                <path d="M26.6264,71.5343 L25.4974,70.5473 C25.7594,70.2473 26.0334,69.9583 26.2974,69.6793 L26.4734,69.4933 L26.6874,69.2783 C26.9414,69.0223 27.2034,68.7593 27.4784,68.5043 C27.7644,68.2273 28.0604,67.9663 28.3464,67.7133 L28.5234,67.5553 C28.5834,67.5003 28.6684,67.4293 28.7544,67.3583 L29.1554,67.0323 C29.3854,66.8573 29.5954,66.7023 29.7994,66.5573 L30.6674,67.7813 C30.4804,67.9143 30.2864,68.0563 30.0734,68.2193 L29.7054,68.5193 C29.6434,68.5693 29.5804,68.6203 29.5314,68.6663 L29.3404,68.8353 C29.0524,69.0913 28.7794,69.3323 28.5164,69.5883 L28.5024,69.6003 C28.2494,69.8353 28.0074,70.0773 27.7514,70.3353 L27.3874,70.7093 C27.1204,70.9913 26.8694,71.2573 26.6264,71.5343" id="Fill-20" fill="#F1892D" mask="url(#mask-4)"></path>
                <polygon id="Fill-21" fill="#F1892D" mask="url(#mask-4)" points="30.5878 72.8819 27.4488 69.5649 28.5388 68.5339 31.6778 71.8509"></polygon>
                <path d="M22.7377,75.2882 C23.2397,74.5932 23.7617,73.8712 24.3127,73.1542 C24.8647,72.4382 25.4487,71.7282 26.0617,71.0402 L29.4707,74.0792 C28.9397,74.6752 28.4287,75.2952 27.9297,75.9412 C27.4317,76.5892 26.9457,77.2622 26.4397,77.9622 L22.7377,75.2882 Z" id="Fill-22" fill="#F9BF3B" mask="url(#mask-4)"></path>
                <path d="M27.0483,78.4005 L25.8323,77.5235 C26.3623,76.7865 26.8423,76.1255 27.3363,75.4845 C27.8623,74.8015 28.3773,74.1785 28.9113,73.5805 L30.0303,74.5785 C29.5213,75.1495 29.0283,75.7465 28.5243,76.3995 C28.0443,77.0225 27.5723,77.6745 27.0483,78.4005" id="Fill-23" fill="#F1892D" mask="url(#mask-4)"></path>
                <path d="M23.3461,75.7276 L22.1301,74.8496 C22.6051,74.1906 23.1441,73.4426 23.7191,72.6976 C24.3041,71.9376 24.9041,71.2116 25.5021,70.5406 L26.6221,71.5396 C26.0471,72.1836 25.4701,72.8806 24.9071,73.6126 C24.3471,74.3386 23.8151,75.0776 23.3461,75.7276" id="Fill-24" fill="#F1892D" mask="url(#mask-4)"></path>
                <polygon id="Fill-25" fill="#F1892D" mask="url(#mask-4)" points="27.4726 76.5362 23.8546 73.7492 24.7706 72.5602 28.3886 75.3482"></polygon>
                <path d="M19.9531,78.4503 C20.1541,78.3193 20.3671,78.1663 20.5901,77.9553 C20.8141,77.7403 21.0461,77.4983 21.2821,77.2123 C21.7541,76.6493 22.2361,75.9833 22.7381,75.2883 L26.4401,77.9623 C25.9341,78.6613 25.4111,79.3933 24.7771,80.1503 C24.4651,80.5273 24.1061,80.9143 23.7071,81.2923 C23.3041,81.6723 22.8301,82.0403 22.3011,82.3663 L19.9531,78.4503 Z" id="Fill-26" fill="#F9BF3B" mask="url(#mask-4)"></path>
                <path d="M22.6948,83.005 L21.9078,81.729 C22.3758,81.44 22.8078,81.109 23.1928,80.746 C23.5538,80.404 23.8928,80.043 24.1988,79.673 C24.7728,78.986 25.2558,78.319 25.7228,77.674 L25.8328,77.522 L27.0478,78.401 L26.9378,78.554 C26.4558,79.22 25.9568,79.909 25.3518,80.632 C25.0098,81.045 24.6298,81.452 24.2228,81.837 C23.7628,82.271 23.2488,82.663 22.6948,83.005" id="Fill-27" fill="#F1892D" mask="url(#mask-4)"></path>
                <path d="M20.3608,79.0792 L19.5458,77.8202 C19.6878,77.7282 19.8758,77.5992 20.0748,77.4102 C20.3038,77.1912 20.5098,76.9702 20.7018,76.7352 C21.1728,76.1752 21.6598,75.5012 22.1298,74.8502 L23.3458,75.7272 C22.8598,76.4002 22.3578,77.0982 21.8558,77.6942 C21.6298,77.9692 21.3838,78.2332 21.1098,78.4962 C20.8158,78.7742 20.5418,78.9622 20.3608,79.0792" id="Fill-28" fill="#F1892D" mask="url(#mask-4)"></path>
                <polygon id="Fill-29" fill="#F1892D" mask="url(#mask-4)" points="24.2944 80.7247 20.7994 77.7867 21.7644 76.6377 25.2594 79.5767"></polygon>
                <path d="M16.7509,78.4903 C17.4419,78.6873 18.1079,78.8063 18.6399,78.7933 C18.7049,78.7913 18.7709,78.7903 18.8369,78.7903 C18.8989,78.7843 18.9569,78.7733 19.0169,78.7683 L19.1059,78.7603 C19.1359,78.7563 19.1609,78.7473 19.1889,78.7413 C19.2429,78.7283 19.2979,78.7193 19.3529,78.7083 C19.5579,78.6443 19.7509,78.5653 19.9529,78.4503 L22.3009,82.3663 C21.7599,82.6873 21.1569,82.9453 20.5349,83.1193 C20.3789,83.1563 20.2239,83.1893 20.0669,83.2223 C19.9899,83.2373 19.9109,83.2573 19.8339,83.2673 L19.6029,83.2973 C19.4499,83.3143 19.2939,83.3353 19.1419,83.3453 L18.6939,83.3593 C17.5009,83.3743 16.4589,83.1503 15.4979,82.8823 L16.7509,78.4903 Z" id="Fill-30" fill="#F9BF3B" mask="url(#mask-4)"></path>
                <path d="M18.6015,84.1104 C17.2795,84.1104 16.1445,83.8404 15.2965,83.6044 L15.6995,82.1594 C16.5245,82.3894 17.5255,82.6294 18.6845,82.6094 L19.1025,82.5964 C19.2025,82.5894 19.3035,82.5774 19.4045,82.5654 L19.7295,82.5254 C19.7665,82.5194 19.8035,82.5104 19.8405,82.5034 L19.9225,82.4864 C20.0575,82.4584 20.2025,82.4274 20.3455,82.3924 C20.8945,82.2384 21.4385,82.0064 21.9185,81.7214 L22.6835,83.0114 C22.0795,83.3704 21.4245,83.6494 20.7365,83.8404 L20.7095,83.8474 C20.5485,83.8864 20.3855,83.9224 20.2225,83.9564 L20.1485,83.9714 C20.0805,83.9854 20.0125,84.0004 19.9455,84.0094 L19.5805,84.0544 C19.4515,84.0704 19.3225,84.0854 19.1955,84.0934 L19.1645,84.0954 L18.7175,84.1094 C18.6785,84.1094 18.6395,84.1104 18.6015,84.1104" id="Fill-31" fill="#F1892D" mask="url(#mask-4)"></path>
                <path d="M18.562,79.544 C17.996,79.544 17.321,79.433 16.546,79.212 L16.957,77.77 C17.625,77.959 18.2,78.052 18.621,78.044 C18.676,78.042 18.736,78.04 18.797,78.04 C18.808,78.038 18.819,78.037 18.83,78.035 C18.87,78.03 18.909,78.024 18.95,78.022 L18.991,78.018 C19.002,78.015 19.014,78.012 19.024,78.01 C19.072,77.998 19.121,77.988 19.169,77.98 C19.324,77.93 19.451,77.873 19.579,77.8 L20.327,79.1 C20.092,79.235 19.853,79.339 19.574,79.425 L19.468,79.449 C19.433,79.456 19.397,79.462 19.363,79.471 L19.337,79.477 C19.3,79.486 19.253,79.497 19.204,79.503 L19.087,79.515 C19.067,79.517 19.05,79.52 19.034,79.522 C18.989,79.527 18.945,79.533 18.898,79.537 L18.838,79.54 C18.781,79.54 18.724,79.541 18.666,79.543 C18.632,79.544 18.597,79.544 18.562,79.544" id="Fill-32" fill="#F1892D" mask="url(#mask-4)"></path>
                <polygon id="Fill-33" fill="#F1892D" mask="url(#mask-4)" points="17.9443 83.3683 17.8893 78.8033 19.3893 78.7843 19.4443 83.3503"></polygon>
                <path d="M69.5976,69.3321 C68.7146,69.1661 67.8146,68.9481 66.9046,68.6201 C65.9956,68.2941 65.0746,67.8491 64.2096,67.2361 L66.8626,63.5201 C67.7576,64.1611 69.0266,64.5851 70.4266,64.8411 L69.5976,69.3321 Z" id="Fill-34" fill="#F9BF3B" mask="url(#mask-4)"></path>
                <path d="M70.2915,65.5792 C68.6475,65.2782 67.3475,64.7902 66.4255,64.1292 L67.3005,62.9102 C68.0295,63.4332 69.1575,63.8472 70.5615,64.1032 L70.2915,65.5792 Z" id="Fill-35" fill="#F1892D" mask="url(#mask-4)"></path>
                <path d="M69.4589,70.0685 C68.3929,69.8695 67.5009,69.6325 66.6499,69.3265 C65.5899,68.9455 64.6239,68.4485 63.7769,67.8485 L64.6439,66.6245 C65.3789,67.1455 66.2259,67.5795 67.1579,67.9155 C67.9319,68.1935 68.7509,68.4105 69.7359,68.5945 L69.4589,70.0685 Z" id="Fill-36" fill="#F1892D" mask="url(#mask-4)"></path>
                <polygon id="Fill-37" fill="#F1892D" mask="url(#mask-4)" points="67.6098 68.8751 66.1988 68.3661 67.7498 64.0701 69.1608 64.5801"></polygon>
                <path d="M74.7055,69.8448 C73.0575,69.7658 71.3605,69.6518 69.5975,69.3318 L70.4265,64.8408 C71.8315,65.0978 73.3545,65.2098 74.9195,65.2828 L74.7055,69.8448 Z" id="Fill-38" fill="#F9BF3B" mask="url(#mask-4)"></path>
                <path d="M74.8852,66.0323 C73.4862,65.9673 71.8452,65.8623 70.2922,65.5793 L70.5612,64.1033 C72.0282,64.3703 73.6052,64.4703 74.9552,64.5343 L74.8852,66.0323 Z" id="Fill-39" fill="#F1892D" mask="url(#mask-4)"></path>
                <path d="M74.6694,70.5938 C73.0344,70.5158 71.2724,70.3978 69.4634,70.0698 L69.7314,68.5938 C71.3584,68.8888 72.9114,69.0078 74.7414,69.0958 L74.6694,70.5938 Z" id="Fill-40" fill="#F1892D" mask="url(#mask-4)"></path>
                <polygon id="Fill-41" fill="#F1892D" mask="url(#mask-4)" points="72.9414 69.7472 71.4474 69.6092 71.8664 65.0612 73.3604 65.1992"></polygon>
                <path d="M79.519,70.0362 C77.959,69.9552 76.354,69.9222 74.706,69.8452 L74.92,65.2832 C76.487,65.3572 78.101,65.3902 79.756,65.4762 L79.519,70.0362 Z" id="Fill-42" fill="#F9BF3B" mask="url(#mask-4)"></path>
                <path d="M79.7168,66.2257 C78.8178,66.1787 77.9198,66.1477 77.0508,66.1177 C76.3368,66.0917 75.5988,66.0667 74.8848,66.0327 L74.9558,64.5347 C75.6598,64.5677 76.3618,64.5917 77.1028,64.6187 C77.9788,64.6487 78.8828,64.6797 79.7948,64.7277 L79.7168,66.2257 Z" id="Fill-43" fill="#F1892D" mask="url(#mask-4)"></path>
                <path d="M79.4799,70.7852 C78.6469,70.7422 77.8139,70.7132 76.9339,70.6822 C76.1979,70.6562 75.4359,70.6302 74.6699,70.5942 L74.7409,69.0962 C75.4969,69.1312 76.2539,69.1572 76.9859,69.1832 C77.8739,69.2142 78.7109,69.2432 79.5579,69.2872 L79.4799,70.7852 Z" id="Fill-44" fill="#F1892D" mask="url(#mask-4)"></path>
                <polygon id="Fill-45" fill="#F1892D" mask="url(#mask-4)" points="77.895 69.9649 76.396 69.9129 76.556 65.3489 78.055 65.4019"></polygon>
                <path d="M84.0083,70.5118 C82.5943,70.2428 81.0763,70.1178 79.5193,70.0358 L79.7563,65.4768 C81.4103,65.5648 83.1103,65.6958 84.8613,66.0268 L84.0083,70.5118 Z" id="Fill-46" fill="#F9BF3B" mask="url(#mask-4)"></path>
                <path d="M84.7216,66.7628 C82.9676,66.4318 81.2786,66.3088 79.7156,66.2258 L79.7956,64.7278 C81.4106,64.8138 83.1596,64.9418 85.0006,65.2888 L84.7216,66.7628 Z" id="Fill-47" fill="#F1892D" mask="url(#mask-4)"></path>
                <path d="M83.8681,71.2491 C82.3671,70.9641 80.7341,70.8521 79.4791,70.7851 L79.5581,69.2871 C80.8601,69.3551 82.5591,69.4731 84.1481,69.7751 L83.8681,71.2491 Z" id="Fill-48" fill="#F1892D" mask="url(#mask-4)"></path>
                <polygon id="Fill-49" fill="#F1892D" mask="url(#mask-4)" points="82.5634 70.2794 81.0704 70.1304 81.5264 65.5864 83.0184 65.7354"></polygon>
                <path d="M87.748,71.836 C86.723,71.197 85.421,70.777 84.008,70.512 L84.861,66.026 C85.735,66.19 86.624,66.412 87.515,66.718 C88.404,67.027 89.3,67.423 90.155,67.956 L87.748,71.836 Z" id="Fill-50" fill="#F9BF3B" mask="url(#mask-4)"></path>
                <path d="M89.7583,68.5929 C89.0263,68.1369 88.2123,67.7549 87.2683,67.4259 C86.4663,67.1519 85.6333,66.9349 84.7223,66.7629 L84.9993,65.2889 C85.9823,65.4739 86.8843,65.7089 87.7583,66.0079 C88.8123,66.3749 89.7243,66.8039 90.5513,67.3199 L89.7583,68.5929 Z" id="Fill-51" fill="#F1892D" mask="url(#mask-4)"></path>
                <path d="M87.351,72.4727 C86.483,71.9317 85.312,71.5207 83.87,71.2487 L84.146,69.7757 C85.772,70.0797 87.118,70.5597 88.144,71.2007 L87.351,72.4727 Z" id="Fill-52" fill="#F1892D" mask="url(#mask-4)"></path>
                <polygon id="Fill-53" fill="#F1892D" mask="url(#mask-4)" points="86.7324 71.2784 85.3144 70.7894 86.8054 66.4724 88.2234 66.9634"></polygon>
                <path d="M90.0258,74.42 C89.5238,73.314 88.7748,72.475 87.7478,71.836 L90.1548,67.956 C90.5818,68.221 90.9998,68.515 91.3928,68.848 C91.5938,69.009 91.7808,69.19 91.9698,69.364 C92.1518,69.55 92.3378,69.732 92.5058,69.929 C93.1968,70.705 93.7558,71.592 94.1708,72.503 L90.0258,74.42 Z" id="Fill-54" fill="#F9BF3B" mask="url(#mask-4)"></path>
                <path d="M93.4882,72.8145 C93.0892,71.9385 92.5552,71.1135 91.9462,70.4275 L91.9342,70.4145 C91.8142,70.2735 91.6782,70.1355 91.5342,69.9915 L91.3472,69.8085 C91.2012,69.6725 91.0632,69.5445 90.9252,69.4335 L90.9082,69.4205 C90.5682,69.1325 90.1922,68.8615 89.7592,68.5925 L90.5502,67.3185 C91.0432,67.6245 91.4752,67.9355 91.8702,68.2685 C92.0502,68.4135 92.2122,68.5655 92.3702,68.7115 L92.6012,68.9365 C92.7562,69.0925 92.9172,69.2545 93.0712,69.4365 C93.7882,70.2425 94.3872,71.1695 94.8532,72.1925 L93.4882,72.8145 Z" id="Fill-55" fill="#F1892D" mask="url(#mask-4)"></path>
                <path d="M89.3432,74.7296 C88.9092,73.7736 88.2582,73.0366 87.3522,72.4736 L88.1432,71.1996 C89.3092,71.9226 90.1482,72.8756 90.7092,74.1096 L89.3432,74.7296 Z" id="Fill-56" fill="#F1892D" mask="url(#mask-4)"></path>
                <polygon id="Fill-57" fill="#F1892D" mask="url(#mask-4)" points="89.58 73.5147 88.587 72.3907 92.009 69.3677 93.002 70.4917"></polygon>
                <path d="M90.5849,77.8868 C90.7289,76.7118 90.5309,75.5108 90.0259,74.4198 L94.1709,72.5028 C95.0209,74.3298 95.3699,76.4238 95.1169,78.4488 L90.5849,77.8868 Z" id="Fill-58" fill="#F9BF3B" mask="url(#mask-4)"></path>
                <path d="M95.8608,78.5411 L94.3728,78.3541 C94.6038,76.5051 94.2908,74.5391 93.4908,72.8191 L94.8508,72.1871 C95.7678,74.1581 96.1268,76.4151 95.8608,78.5411" id="Fill-59" fill="#F1892D" mask="url(#mask-4)"></path>
                <path d="M91.3291,77.9776 L89.8401,77.7946 C89.9661,76.7656 89.7951,75.7066 89.3451,74.7346 L90.7061,74.1046 C91.2741,75.3316 91.4891,76.6696 91.3291,77.9776" id="Fill-60" fill="#F1892D" mask="url(#mask-4)"></path>
                <polygon id="Fill-61" fill="#F1892D" mask="url(#mask-4)" points="90.6669 76.8624 90.4299 75.3814 94.9389 74.6604 95.1759 76.1414"></polygon>
                <path d="M89.1987,81.1515 C89.9507,80.1915 90.4367,79.0605 90.5847,77.8865 L95.1167,78.4485 C94.8657,80.4735 94.0257,82.3995 92.7927,83.9685 L89.1987,81.1515 Z" id="Fill-62" fill="#F9BF3B" mask="url(#mask-4)"></path>
                <path d="M93.3818,84.4327 L92.2028,83.5057 C93.3758,82.0137 94.1458,80.1847 94.3718,78.3557 L95.8608,78.5397 C95.5978,80.6657 94.7408,82.7037 93.3818,84.4327" id="Fill-63" fill="#F1892D" mask="url(#mask-4)"></path>
                <path d="M89.789,81.6143 L88.608,80.6893 C89.285,79.8253 89.71,78.8243 89.84,77.7933 L91.329,77.9803 C91.165,79.2803 90.633,80.5373 89.789,81.6143" id="Fill-64" fill="#F1892D" mask="url(#mask-4)"></path>
                <polygon id="Fill-65" fill="#F1892D" mask="url(#mask-4)" points="94.0312 82.0704 89.8262 80.2904 90.4112 78.9084 94.6162 80.6894"></polygon>
                <path d="M86.2514,83.461 C86.8414,83.183 87.3834,82.839 87.8824,82.456 C88.0024,82.356 88.1324,82.265 88.2464,82.158 L88.5894,81.842 L88.9054,81.505 C89.0134,81.395 89.0994,81.268 89.1984,81.151 L92.7924,83.969 C92.6334,84.161 92.4844,84.363 92.3134,84.544 C92.1454,84.726 91.9764,84.907 91.8034,85.086 L91.2604,85.589 C91.0774,85.755 90.8814,85.901 90.6914,86.057 C89.9164,86.654 89.0864,87.171 88.2214,87.581 L86.2514,83.461 Z" id="Fill-66" fill="#F9BF3B" mask="url(#mask-4)"></path>
                <path d="M88.5419,88.2589 L87.8999,86.9029 C88.6959,86.5269 89.4789,86.0439 90.2249,85.4699 C90.2859,85.4199 90.3469,85.3709 90.4079,85.3219 C90.5329,85.2239 90.6499,85.1309 90.7559,85.0339 L91.2789,84.5499 C91.4189,84.4039 91.5579,84.2549 91.6959,84.1069 L91.7649,84.0319 C91.8629,83.9289 91.9569,83.8109 92.0559,83.6869 C92.1089,83.6209 92.1609,83.5559 92.2149,83.4909 L93.3699,84.4469 C93.3219,84.5049 93.2749,84.5649 93.2289,84.6229 C93.1149,84.7659 92.9969,84.9129 92.8589,85.0589 L92.7939,85.1279 C92.6449,85.2889 92.4949,85.4499 92.3419,85.6079 L92.3129,85.6359 L91.7709,86.1399 C91.6219,86.2749 91.4789,86.3879 91.3409,86.4969 C91.2819,86.5439 91.2239,86.5899 91.1659,86.6379 L91.1489,86.6519 C90.3149,87.2939 89.4379,87.8349 88.5419,88.2589" id="Fill-67" fill="#F1892D" mask="url(#mask-4)"></path>
                <path d="M86.5712,84.1388 L85.9322,82.7828 C86.4292,82.5478 86.9282,82.2418 87.4142,81.8698 C87.4642,81.8288 87.5142,81.7898 87.5642,81.7498 C87.6292,81.6998 87.6902,81.6518 87.7362,81.6088 L88.0602,81.3098 L88.3682,80.9808 C88.4062,80.9428 88.4482,80.8898 88.4962,80.8268 C88.5402,80.7728 88.5832,80.7168 88.6292,80.6628 L89.7682,81.6398 C89.7362,81.6768 89.7062,81.7148 89.6762,81.7528 C89.6122,81.8348 89.5392,81.9278 89.4472,82.0228 L89.0982,82.3928 L88.7552,82.7088 C88.6642,82.7938 88.5712,82.8678 88.4892,82.9308 C88.4472,82.9638 88.4052,82.9958 88.3652,83.0308 L88.3382,83.0518 C87.7632,83.4918 87.1692,83.8578 86.5712,84.1388" id="Fill-68" fill="#F1892D" mask="url(#mask-4)"></path>
                <polygon id="Fill-69" fill="#F1892D" mask="url(#mask-4)" points="90.0996 86.5186 87.2916 82.9166 88.4746 81.9956 91.2826 85.5956"></polygon>
                <path d="M82.3642,84.5011 C83.7502,84.3691 85.0712,84.0151 86.2512,83.4611 L88.2212,87.5811 C86.4882,88.3971 84.6482,88.8671 82.8322,89.0431 L82.3642,84.5011 Z" id="Fill-70" fill="#F9BF3B" mask="url(#mask-4)"></path>
                <path d="M82.9047,89.7901 L82.7597,88.2971 C84.5837,88.1201 86.3137,87.6511 87.9007,86.9021 L88.5407,88.2591 C86.7967,89.0821 84.9007,89.5971 82.9047,89.7901" id="Fill-71" fill="#F1892D" mask="url(#mask-4)"></path>
                <path d="M82.435,85.2472 L82.293,83.7542 C83.596,83.6312 84.821,83.3042 85.933,82.7812 L86.57,84.1402 C85.301,84.7352 83.91,85.1072 82.435,85.2472" id="Fill-72" fill="#F1892D" mask="url(#mask-4)"></path>
                <polygon id="Fill-73" fill="#F1892D" mask="url(#mask-4)" points="84.833 88.7452 83.66 84.3312 85.11 83.9462 86.283 88.3592"></polygon>
                <path d="M78.1001,84.3936 C79.5421,84.5936 80.9801,84.6406 82.3641,84.5006 L82.8321,89.0426 C81.0131,89.2276 79.2121,89.1586 77.4671,88.9156 L78.1001,84.3936 Z" id="Fill-74" fill="#F9BF3B" mask="url(#mask-4)"></path>
                <path d="M80.7324,89.8976 C79.6334,89.8976 78.5064,89.8176 77.3634,89.6586 L77.5694,88.1726 C79.3624,88.4216 81.1084,88.4636 82.7564,88.2966 L82.9084,89.7896 C82.1974,89.8616 81.4714,89.8976 80.7324,89.8976" id="Fill-75" fill="#F1892D" mask="url(#mask-4)"></path>
                <path d="M80.7304,85.3311 C79.8444,85.3311 78.9304,85.2671 77.9974,85.1371 L78.2034,83.6501 C79.6314,83.8501 81.0064,83.8851 82.2884,83.7551 L82.4394,85.2471 C81.8834,85.3031 81.3134,85.3311 80.7304,85.3311" id="Fill-76" fill="#F1892D" mask="url(#mask-4)"></path>
                <polygon id="Fill-77" fill="#F1892D" mask="url(#mask-4)" points="80.8715 89.1612 79.3715 89.1182 79.5045 84.5542 81.0035 84.5972"></polygon>
                <path d="M60.0424,75.0509 L60.0434,75.0509 L60.0424,75.0509 Z M60.9784,75.4269 C60.9544,75.4269 60.9314,75.4279 60.9084,75.4289 C60.7284,75.4369 60.6594,75.4789 60.6484,75.4919 C60.5644,75.6089 60.4954,76.3039 61.2614,77.9229 C61.8424,79.1539 62.6674,80.3999 63.1474,80.9469 C63.5334,81.3869 64.0174,81.6289 64.4804,81.6059 C64.8794,81.5879 65.2334,81.3829 65.5034,81.0129 C66.1754,80.0889 66.0414,78.5079 65.2094,77.5589 C64.5014,76.7529 62.1834,75.4269 60.9784,75.4269 L60.9784,75.4269 Z M64.4244,83.1079 C63.5474,83.1079 62.6774,82.6859 62.0204,81.9369 C61.4804,81.3219 58.0384,76.5279 59.4364,74.6099 C59.6474,74.3189 60.0634,73.9649 60.8404,73.9299 C62.5834,73.8509 65.3774,75.4769 66.3364,76.5699 C67.6414,78.0569 67.8084,80.3969 66.7154,81.8959 C66.1764,82.6359 65.4064,83.0659 64.5484,83.1049 C64.5064,83.1069 64.4654,83.1079 64.4244,83.1079 L64.4244,83.1079 Z" id="Fill-78" fill="#19B5FE" mask="url(#mask-4)"></path>
                <path d="M60.5151,74.6622 L60.5161,74.6622 L60.5151,74.6622 Z M66.7321,72.7612 C65.3161,72.7612 63.1351,73.1782 61.9411,73.9732 C61.6561,74.1622 61.3071,74.4552 61.2561,74.7782 C61.1881,75.2112 61.6661,76.0412 63.2111,77.0762 C64.4901,77.9332 66.0391,78.6062 66.8471,78.8062 C67.4491,78.9532 68.0661,78.8442 68.5861,78.4982 C69.2131,78.0812 69.6481,77.3572 69.7811,76.5142 C70.0431,74.8442 69.0891,73.1992 67.6541,72.8472 C67.4191,72.7892 67.1021,72.7612 66.7321,72.7612 L66.7321,72.7612 Z M67.3791,80.3702 C67.0831,80.3702 66.7851,80.3352 66.4891,80.2622 C64.7221,79.8272 59.3441,77.2832 59.7741,74.5462 C59.8831,73.8542 60.3321,73.2412 61.1101,72.7242 C62.9011,71.5322 66.4021,70.9932 68.0121,71.3902 C70.1841,71.9242 71.6431,74.3262 71.2631,76.7462 C71.0651,78.0042 70.3921,79.0982 69.4171,79.7472 C68.7981,80.1592 68.0961,80.3702 67.3791,80.3702 L67.3791,80.3702 Z" id="Fill-79" fill="#C72C1C" mask="url(#mask-4)"></path>
                <path d="M56.3183,60.0235 C54.6743,59.8795 51.9813,59.8335 50.3343,59.9195 L41.2633,60.3935 C39.6153,60.4795 38.2433,61.9005 38.2143,63.5495 L38.0643,72.1725 C38.0353,73.8225 39.3143,75.5275 40.9063,75.9615 L50.0953,78.4685 C51.6873,78.9035 54.3033,78.9495 55.9093,78.5705 L65.1803,76.3855 C66.7863,76.0065 68.1243,74.3475 68.1523,72.6975 L68.3033,64.0745 C68.3323,62.4245 67.0103,60.9585 65.3663,60.8145 L56.3183,60.0235 Z" id="Fill-80" fill="#A5B5B6" mask="url(#mask-4)"></path>
                <path d="M65.2221,73.9854 L55.9511,76.1714 C54.3451,76.5494 51.7291,76.5044 50.1371,76.0694 L40.9481,73.5624 C39.3561,73.1284 38.0771,71.4224 38.1061,69.7734 L38.0641,72.1734 C38.0351,73.8224 39.3141,75.5274 40.9061,75.9624 L50.0951,78.4684 C51.6871,78.9034 54.3041,78.9494 55.9091,78.5704 L65.1801,76.3854 C66.7861,76.0064 68.1241,74.3474 68.1531,72.6974 L68.1941,70.2974 C68.1661,71.9484 66.8281,73.6074 65.2221,73.9854" id="Fill-81" fill="#859596" mask="url(#mask-4)"></path>
                <path d="M52.2993,60.6261 C51.5923,60.6261 50.9243,60.6401 50.3733,60.6681 L41.3023,61.1431 C40.0573,61.2081 38.9863,62.3161 38.9653,63.5631 L38.8143,72.1861 C38.7913,73.4951 39.8403,74.8941 41.1043,75.2381 L50.2933,77.7461 C51.7613,78.1471 54.2553,78.1891 55.7373,77.8411 L65.0083,75.6551 C66.2833,75.3551 67.3803,73.9941 67.4033,72.6851 L67.5533,64.0621 C67.5753,62.8141 66.5443,61.6701 65.3013,61.5621 L56.2533,60.7721 C55.1843,60.6781 53.6713,60.6261 52.2993,60.6261 M53.2773,79.5801 C52.0683,79.5801 50.8373,79.4491 49.8983,79.1921 L40.7093,76.6861 C38.7703,76.1561 37.2793,74.1691 37.3143,72.1591 L37.4653,63.5371 C37.5003,61.4971 39.1873,59.7511 41.2243,59.6451 L50.2943,59.1701 C51.9753,59.0821 54.7063,59.1301 56.3833,59.2761 L65.4323,60.0671 C67.4643,60.2441 69.0893,62.0481 69.0533,64.0881 L68.9023,72.7111 C68.8673,74.7201 67.3083,76.6541 65.3523,77.1151 L56.0813,79.3011 C55.2873,79.4881 54.2903,79.5801 53.2773,79.5801" id="Fill-82" fill="#354546" mask="url(#mask-4)"></path>
                <polygon id="Fill-83" fill="#556566" mask="url(#mask-4)" points="56.2114 73.1017 43.1354 72.8727 43.2954 63.6747 56.3724 63.9037"></polygon>
                <path d="M51.7958,71.1632 C51.5388,71.1632 51.2968,71.0312 51.1598,70.8092 L50.1218,69.1442 L48.5048,69.1172 C48.2538,69.1122 48.0208,68.9822 47.8848,68.7702 L47.8178,68.6652 L47.3818,69.6812 C47.2838,69.9082 47.0808,70.0722 46.8388,70.1202 C46.5968,70.1702 46.3468,70.0952 46.1698,69.9232 L45.2828,69.0602 L43.2028,69.0242 C42.7888,69.0172 42.4588,68.6762 42.4658,68.2612 C42.4728,67.8472 42.8178,67.5182 43.2288,67.5242 L45.6068,67.5652 C45.7968,67.5692 45.9798,67.6452 46.1158,67.7782 L46.4338,68.0872 L46.9998,66.7702 C47.1088,66.5162 47.3508,66.3422 47.6278,66.3192 C47.9048,66.2982 48.1718,66.4292 48.3208,66.6632 L48.9338,67.6242 L50.5558,67.6522 C50.8098,67.6562 51.0448,67.7902 51.1788,68.0062 L51.5738,68.6392 L52.3858,66.0852 C52.4838,65.7772 52.7688,65.5662 53.0918,65.5622 C53.4138,65.5612 53.7038,65.7622 53.8098,66.0672 L54.3798,67.7192 L56.3048,67.7532 C56.7188,67.7602 57.0488,68.1012 57.0418,68.5162 C57.0338,68.9252 56.6998,69.2522 56.2918,69.2522 L56.2788,69.2522 L53.8288,69.2102 C53.5138,69.2042 53.2358,69.0022 53.1328,68.7042 L53.1298,68.6942 L52.5108,70.6412 C52.4218,70.9192 52.1788,71.1212 51.8888,71.1572 C51.8578,71.1612 51.8268,71.1632 51.7958,71.1632" id="Fill-84" fill="#D5E5E6" mask="url(#mask-4)"></path>
                <path d="M43.8984,72.1368 L55.4744,72.3388 L55.6084,64.6398 L44.0324,64.4388 L43.8984,72.1368 Z M56.2114,73.8518 L56.1984,73.8518 L43.1224,73.6228 C42.9234,73.6198 42.7344,73.5378 42.5964,73.3948 C42.4584,73.2518 42.3814,73.0598 42.3854,72.8608 L42.5454,63.6618 C42.5494,63.4628 42.6314,63.2738 42.7744,63.1358 C42.9184,62.9968 43.1104,62.9178 43.3094,62.9248 L56.3844,63.1538 C56.7994,63.1598 57.1284,63.5018 57.1214,63.9158 L56.9614,73.1148 C56.9544,73.5248 56.6194,73.8518 56.2114,73.8518 L56.2114,73.8518 Z" id="Fill-85" fill="#354546" mask="url(#mask-4)"></path>
                <path d="M63.1899,65.797 C63.1729,66.777 62.3639,67.559 61.3839,67.541 C60.4039,67.525 59.6239,66.716 59.6409,65.735 C59.6579,64.755 60.4659,63.975 61.4459,63.991 C62.4259,64.009 63.2069,64.818 63.1899,65.797" id="Fill-86" fill="#F85C4C" mask="url(#mask-4)"></path>
                <path d="M61.4145,64.7413 C61.1475,64.7413 60.8955,64.8433 60.7035,65.0293 C60.5065,65.2193 60.3945,65.4743 60.3905,65.7483 C60.3805,66.3133 60.8315,66.7813 61.3975,66.7913 C61.6715,66.8023 61.9305,66.6943 62.1265,66.5043 C62.3245,66.3133 62.4355,66.0573 62.4395,65.7843 C62.4495,65.2193 61.9975,64.7513 61.4335,64.7413 L61.4145,64.7413 Z M61.4165,68.2913 L61.3715,68.2913 C59.9785,68.2663 58.8665,67.1143 58.8905,65.7223 C58.9025,65.0483 59.1755,64.4193 59.6615,63.9503 C60.1465,63.4813 60.7855,63.2303 61.4595,63.2423 C62.8515,63.2653 63.9635,64.4183 63.9395,65.8103 C63.9285,66.4843 63.6545,67.1143 63.1685,67.5833 C62.6945,68.0413 62.0735,68.2913 61.4165,68.2913 L61.4165,68.2913 Z" id="Fill-87" fill="#C72C1C" mask="url(#mask-4)"></path>
                <path d="M63.0912,71.4464 C63.0742,72.4264 62.2652,73.2074 61.2852,73.1904 C60.3052,73.1734 59.5252,72.3644 59.5422,71.3844 C59.5592,70.4044 60.3672,69.6244 61.3472,69.6404 C62.3272,69.6584 63.1082,70.4664 63.0912,71.4464" id="Fill-88" fill="#B9D96D" mask="url(#mask-4)"></path>
                <path d="M63.0912,71.4464 L63.0922,71.4464 L63.0912,71.4464 Z M61.3162,70.3904 C61.0492,70.3904 60.7972,70.4924 60.6042,70.6774 C60.4072,70.8684 60.2962,71.1244 60.2922,71.3974 C60.2812,71.9634 60.7342,72.4304 61.2992,72.4404 C61.5732,72.4464 61.8312,72.3424 62.0292,72.1534 C62.2252,71.9634 62.3372,71.7074 62.3412,71.4334 C62.3462,71.1604 62.2442,70.9004 62.0532,70.7034 C61.8632,70.5074 61.6082,70.3954 61.3342,70.3904 L61.3162,70.3904 Z M61.3182,73.9404 L61.2722,73.9404 C59.8802,73.9164 58.7672,72.7634 58.7922,71.3714 C58.8032,70.6974 59.0772,70.0674 59.5622,69.5994 C60.0482,69.1314 60.6872,68.8804 61.3612,68.8904 C62.0352,68.9024 62.6642,69.1764 63.1332,69.6614 C63.6012,70.1464 63.8532,70.7854 63.8412,71.4604 C63.8292,72.1334 63.5552,72.7634 63.0702,73.2314 C62.5962,73.6894 61.9752,73.9404 61.3182,73.9404 L61.3182,73.9404 Z" id="Fill-89" fill="#719911" mask="url(#mask-4)"></path>
                <path d="M42.9477,62.547 C42.5877,62.547 42.2697,62.286 42.2087,61.918 L41.8047,59.466 C41.7377,59.057 42.0147,58.671 42.4237,58.604 C42.8317,58.537 43.2177,58.814 43.2847,59.222 L43.6887,61.675 C43.7567,62.083 43.4797,62.469 43.0707,62.536 C43.0297,62.543 42.9887,62.547 42.9477,62.547" id="Fill-90" fill="#354546" mask="url(#mask-4)"></path>
                <path d="M45.9081,62.0597 C45.5471,62.0597 45.2291,61.7977 45.1691,61.4307 L44.7651,58.9787 C44.6981,58.5697 44.9741,58.1837 45.3831,58.1167 C45.7921,58.0487 46.1781,58.3257 46.2451,58.7347 L46.6491,61.1877 C46.7161,61.5957 46.4391,61.9817 46.0311,62.0487 C45.9901,62.0557 45.9491,62.0597 45.9081,62.0597" id="Fill-91" fill="#354546" mask="url(#mask-4)"></path>
                <path d="M63.2524,62.547 C63.2114,62.547 63.1704,62.543 63.1294,62.536 C62.7204,62.469 62.4444,62.083 62.5114,61.675 L62.9154,59.222 C62.9824,58.814 63.3684,58.536 63.7764,58.604 C64.1854,58.671 64.4624,59.057 64.3954,59.466 L63.9914,61.918 C63.9314,62.286 63.6124,62.547 63.2524,62.547" id="Fill-92" fill="#354546" mask="url(#mask-4)"></path>
                <path d="M60.2919,62.0597 C60.2509,62.0597 60.2109,62.0557 60.1689,62.0487 C59.7609,61.9817 59.4839,61.5957 59.5509,61.1877 L59.9549,58.7347 C60.0219,58.3257 60.4079,58.0497 60.8169,58.1167 C61.2259,58.1837 61.5019,58.5697 61.4349,58.9787 L61.0309,61.4307 C60.9709,61.7977 60.6529,62.0597 60.2919,62.0597" id="Fill-93" fill="#354546" mask="url(#mask-4)"></path>
                <polygon id="Fill-94" fill="#A5B5B6" mask="url(#mask-4)" points="40.006 107.86 44.693 107.86 44.693 98.86 40.006 98.86"></polygon>
                <polygon id="Fill-95" fill="#C5D5D6" mask="url(#mask-4)" points="40.006 102.437 44.693 102.437 44.693 98.861 40.006 98.861"></polygon>
                <path d="M40.756,107.11 L43.944,107.11 L43.944,99.61 L40.756,99.61 L40.756,107.11 Z M44.693,108.61 L40.006,108.61 C39.592,108.61 39.256,108.275 39.256,107.86 L39.256,98.86 C39.256,98.446 39.592,98.11 40.006,98.11 L44.693,98.11 C45.108,98.11 45.443,98.446 45.443,98.86 L45.443,107.86 C45.443,108.275 45.108,108.61 44.693,108.61 L44.693,108.61 Z" id="Fill-96" fill="#354546" mask="url(#mask-4)"></path>
                <polygon id="Fill-97" fill="#A5B5B6" mask="url(#mask-4)" points="36.827 106.098 40.012 106.098 40.012 90.199 36.827 90.199"></polygon>
                <path d="M37.577,105.348 L39.262,105.348 L39.262,90.949 L37.577,90.949 L37.577,105.348 Z M40.012,106.848 L36.827,106.848 C36.413,106.848 36.077,106.512 36.077,106.098 L36.077,90.198 C36.077,89.784 36.413,89.448 36.827,89.448 L40.012,89.448 C40.427,89.448 40.762,89.784 40.762,90.198 L40.762,106.098 C40.762,106.512 40.427,106.848 40.012,106.848 L40.012,106.848 Z" id="Fill-98" fill="#354546" mask="url(#mask-4)"></path>
                <path d="M38.4858,84.6856 L38.3538,84.6856 C36.7038,84.6856 35.3538,86.0356 35.3538,87.6856 L35.3538,94.8106 L41.4858,94.8106 L41.4858,87.6856 C41.4858,86.0356 40.1358,84.6856 38.4858,84.6856" id="Fill-99" fill="#A5B5B6" mask="url(#mask-4)"></path>
                <path d="M38.4858,84.6856 L38.3538,84.6856 C36.7038,84.6856 35.3538,86.0356 35.3538,87.6856 L35.3538,90.4226 C35.3538,88.7726 36.7038,87.4226 38.3538,87.4226 L38.4858,87.4226 C40.1358,87.4226 41.4858,88.7726 41.4858,90.4226 L41.4858,87.6856 C41.4858,86.0356 40.1358,84.6856 38.4858,84.6856" id="Fill-100" fill="#C5D5D6" mask="url(#mask-4)"></path>
                <path d="M36.1035,94.0607 L40.7355,94.0607 L40.7355,87.6857 C40.7355,86.4447 39.7265,85.4357 38.4855,85.4357 L38.3535,85.4357 C37.1125,85.4357 36.1035,86.4447 36.1035,87.6857 L36.1035,94.0607 Z M41.4855,95.5607 L35.3535,95.5607 C34.9395,95.5607 34.6035,95.2247 34.6035,94.8107 L34.6035,87.6857 C34.6035,85.6187 36.2855,83.9357 38.3535,83.9357 L38.4855,83.9357 C40.5535,83.9357 42.2355,85.6187 42.2355,87.6857 L42.2355,94.8107 C42.2355,95.2247 41.9005,95.5607 41.4855,95.5607 L41.4855,95.5607 Z" id="Fill-101" fill="#354546" mask="url(#mask-4)"></path>
                <polygon id="Fill-102" fill="#A5B5B6" mask="url(#mask-4)" points="61.131 107.86 65.818 107.86 65.818 98.86 61.131 98.86"></polygon>
                <polygon id="Fill-103" fill="#C5D5D6" mask="url(#mask-4)" points="61.131 102.437 65.818 102.437 65.818 98.861 61.131 98.861"></polygon>
                <path d="M61.881,107.11 L65.069,107.11 L65.069,99.61 L61.881,99.61 L61.881,107.11 Z M65.819,108.61 L61.131,108.61 C60.717,108.61 60.381,108.275 60.381,107.86 L60.381,98.86 C60.381,98.446 60.717,98.11 61.131,98.11 L65.819,98.11 C66.233,98.11 66.569,98.446 66.569,98.86 L66.569,107.86 C66.569,108.275 66.233,108.61 65.819,108.61 L65.819,108.61 Z" id="Fill-104" fill="#354546" mask="url(#mask-4)"></path>
                <polygon id="Fill-105" fill="#A5B5B6" mask="url(#mask-4)" points="65.812 106.098 68.997 106.098 68.997 90.199 65.812 90.199"></polygon>
                <path d="M66.562,105.348 L68.247,105.348 L68.247,90.949 L66.562,90.949 L66.562,105.348 Z M68.998,106.848 L65.812,106.848 C65.398,106.848 65.062,106.512 65.062,106.098 L65.062,90.198 C65.062,89.784 65.398,89.448 65.812,89.448 L68.998,89.448 C69.412,89.448 69.748,89.784 69.748,90.198 L69.748,106.098 C69.748,106.512 69.412,106.848 68.998,106.848 L68.998,106.848 Z" id="Fill-106" fill="#354546" mask="url(#mask-4)"></path>
                <path d="M67.3388,84.6856 L67.4708,84.6856 C69.1208,84.6856 70.4708,86.0356 70.4708,87.6856 L70.4708,94.8106 L64.3388,94.8106 L64.3388,87.6856 C64.3388,86.0356 65.6888,84.6856 67.3388,84.6856" id="Fill-107" fill="#A5B5B6" mask="url(#mask-4)"></path>
                <path d="M67.3388,84.6856 L67.4708,84.6856 C69.1208,84.6856 70.4708,86.0356 70.4708,87.6856 L70.4708,90.4226 C70.4708,88.7726 69.1208,87.4226 67.4708,87.4226 L67.3388,87.4226 C65.6888,87.4226 64.3388,88.7726 64.3388,90.4226 L64.3388,87.6856 C64.3388,86.0356 65.6888,84.6856 67.3388,84.6856" id="Fill-108" fill="#C5D5D6" mask="url(#mask-4)"></path>
                <path d="M65.0888,94.0607 L69.7208,94.0607 L69.7208,87.6857 C69.7208,86.4447 68.7118,85.4357 67.4708,85.4357 L67.3388,85.4357 C66.0978,85.4357 65.0888,86.4447 65.0888,87.6857 L65.0888,94.0607 Z M70.4708,95.5607 L64.3388,95.5607 C63.9238,95.5607 63.5888,95.2247 63.5888,94.8107 L63.5888,87.6857 C63.5888,85.6187 65.2708,83.9357 67.3388,83.9357 L67.4708,83.9357 C69.5388,83.9357 71.2208,85.6187 71.2208,87.6857 L71.2208,94.8107 C71.2208,95.2247 70.8848,95.5607 70.4708,95.5607 L70.4708,95.5607 Z" id="Fill-109" fill="#354546" mask="url(#mask-4)"></path>
                <path d="M60.9936,115.3605 C60.9936,117.0105 59.6436,118.3605 57.9936,118.3605 L47.6936,118.3605 C46.0436,118.3605 44.6936,117.0105 44.6936,115.3605 L44.6936,91.3605 C44.6936,89.7105 46.0436,88.3605 47.6936,88.3605 L57.9936,88.3605 C59.6436,88.3605 60.9936,89.7105 60.9936,91.3605 L60.9936,115.3605 Z" id="Fill-110" fill="#6D6D6D" mask="url(#mask-4)"></path>
                <path d="M57.9936,113.7853 L47.6936,113.7853 C46.3536,113.7853 45.1126,112.8953 44.6936,111.6773 L44.6936,115.3603 C44.6936,117.0113 46.0436,118.3603 47.6936,118.3603 L57.9936,118.3603 C59.6436,118.3603 60.9936,117.0113 60.9936,115.3603 L60.9936,111.6773 C60.5746,112.8953 59.3336,113.7853 57.9936,113.7853" id="Fill-111" fill="#5B5B5B" mask="url(#mask-4)"></path>
                <polygon id="Fill-112" fill="#929292" mask="url(#mask-4)" points="60.9028 101.4112 44.6938 100.0602 44.7838 96.0112 60.9028 96.0112"></polygon>
                <polygon id="Fill-113" fill="#929292" mask="url(#mask-4)" points="60.9028 104.5607 44.7838 105.6647 44.7838 102.9647 60.9028 102.9647"></polygon>
                <path d="M47.6933,89.1104 C46.4523,89.1104 45.4433,90.1204 45.4433,91.3604 L45.4433,115.3604 C45.4433,116.6014 46.4523,117.6104 47.6933,117.6104 L57.9933,117.6104 C59.2343,117.6104 60.2433,116.6014 60.2433,115.3604 L60.2433,91.3604 C60.2433,90.1204 59.2343,89.1104 57.9933,89.1104 L47.6933,89.1104 Z M57.9933,119.1104 L47.6933,119.1104 C45.6253,119.1104 43.9433,117.4284 43.9433,115.3604 L43.9433,91.3604 C43.9433,89.2934 45.6253,87.6104 47.6933,87.6104 L57.9933,87.6104 C60.0613,87.6104 61.7433,89.2934 61.7433,91.3604 L61.7433,115.3604 C61.7433,117.4284 60.0613,119.1104 57.9933,119.1104 L57.9933,119.1104 Z" id="Fill-114" fill="#121212" mask="url(#mask-4)"></path>
                <path d="M61.0302,84.6856 L44.6562,84.6856 C42.8752,84.6856 41.4172,86.0356 41.4172,87.6856 L41.4172,92.0356 L64.2692,92.0356 L64.2692,87.6856 C64.2692,86.0356 62.8122,84.6856 61.0302,84.6856" id="Fill-115" fill="#A5B5B6" mask="url(#mask-4)"></path>
                <path d="M61.0302,84.6856 L44.6562,84.6856 C42.8752,84.6856 41.4172,86.0356 41.4172,87.6856 L64.2692,87.6856 C64.2692,86.0356 62.8122,84.6856 61.0302,84.6856" id="Fill-116" fill="#C5D5D6" mask="url(#mask-4)"></path>
                <path d="M42.1669,91.2853 L63.5199,91.2853 L63.5199,87.6853 C63.5199,86.4443 62.4029,85.4353 61.0299,85.4353 L44.6559,85.4353 C43.2839,85.4353 42.1669,86.4443 42.1669,87.6853 L42.1669,91.2853 Z M64.2699,92.7853 L41.4169,92.7853 C41.0029,92.7853 40.6669,92.4493 40.6669,92.0353 L40.6669,87.6853 C40.6669,85.6183 42.4569,83.9353 44.6559,83.9353 L61.0299,83.9353 C63.2299,83.9353 65.0199,85.6183 65.0199,87.6853 L65.0199,92.0353 C65.0199,92.4493 64.6839,92.7853 64.2699,92.7853 L64.2699,92.7853 Z" id="Fill-117" fill="#354546" mask="url(#mask-4)"></path>
                <path d="M48.3432,86.8663 C47.9292,86.8663 47.5932,86.5303 47.5932,86.1163 L47.5932,83.6313 C47.5932,83.2163 47.9292,82.8813 48.3432,82.8813 C48.7582,82.8813 49.0932,83.2163 49.0932,83.6313 L49.0932,86.1163 C49.0932,86.5303 48.7582,86.8663 48.3432,86.8663" id="Fill-118" fill="#354546" mask="url(#mask-4)"></path>
                <path d="M51.3432,86.8663 C50.9292,86.8663 50.5932,86.5303 50.5932,86.1163 L50.5932,83.6313 C50.5932,83.2163 50.9292,82.8813 51.3432,82.8813 C51.7582,82.8813 52.0932,83.2163 52.0932,83.6313 L52.0932,86.1163 C52.0932,86.5303 51.7582,86.8663 51.3432,86.8663" id="Fill-119" fill="#354546" mask="url(#mask-4)"></path>
                <path d="M54.3432,86.8663 C53.9292,86.8663 53.5932,86.5303 53.5932,86.1163 L53.5932,83.6313 C53.5932,83.2163 53.9292,82.8813 54.3432,82.8813 C54.7582,82.8813 55.0932,83.2163 55.0932,83.6313 L55.0932,86.1163 C55.0932,86.5303 54.7582,86.8663 54.3432,86.8663" id="Fill-120" fill="#354546" mask="url(#mask-4)"></path>
                <path d="M57.3432,86.8663 C56.9292,86.8663 56.5932,86.5303 56.5932,86.1163 L56.5932,83.6313 C56.5932,83.2163 56.9292,82.8813 57.3432,82.8813 C57.7582,82.8813 58.0932,83.2163 58.0932,83.6313 L58.0932,86.1163 C58.0932,86.5303 57.7582,86.8663 57.3432,86.8663" id="Fill-121" fill="#354546" mask="url(#mask-4)"></path>
                <path d="M75.1948,21.1124 C75.1838,21.1124 75.1738,21.1124 75.1628,21.1114 C74.7488,21.0944 74.4268,20.7444 74.4448,20.3314 L74.8748,10.2094 C75.0118,6.4934 72.0968,3.3554 68.3778,3.2184 C68.3708,3.2174 68.3638,3.2174 68.3568,3.2164 L42.2968,1.5054 C40.5068,1.4384 38.7938,2.0834 37.4708,3.3114 C36.1448,4.5424 35.3788,6.2084 35.3128,8.0014 L34.8828,18.8754 C34.8668,19.2894 34.5178,19.6154 34.1038,19.5944 C33.6898,19.5784 33.3678,19.2294 33.3838,18.8154 L33.8138,7.9444 C33.8948,5.7524 34.8308,3.7164 36.4498,2.2124 C38.0688,0.7094 40.1688,-0.0766 42.3618,0.0064 C42.3698,0.0074 42.3768,0.0074 42.3838,0.0074 L68.4448,1.7194 C72.9858,1.8934 76.5408,5.7254 76.3728,10.2684 L75.9438,20.3944 C75.9268,20.7974 75.5938,21.1124 75.1948,21.1124" id="Fill-122" fill="#354546" mask="url(#mask-4)"></path>
                <path d="M29.8505,19.7638 C28.5565,19.7158 27.4485,21.0268 27.3875,22.6748 L27.0135,32.8088 C26.9525,34.4578 27.9605,35.8458 29.2545,35.8938 C30.5485,35.9418 31.6065,35.9808 31.6065,35.9808 L32.2025,19.8508 C32.2025,19.8508 31.1445,19.8118 29.8505,19.7638" id="Fill-123" fill="#A5B5B6" mask="url(#mask-4)"></path>
                <path d="M27.3876,22.6749 L27.2046,27.6349 L31.9086,27.8089 L32.2026,19.8509 C32.2026,19.8509 31.1446,19.8119 29.8506,19.7639 C28.5566,19.7159 27.4486,21.0269 27.3876,22.6749" id="Fill-124" fill="#C5D5D6" mask="url(#mask-4)"></path>
                <path d="M31.6074,36.7306 L31.5794,36.7306 L29.2274,36.6426 C28.3784,36.6116 27.5744,36.1566 27.0194,35.3926 C26.4964,34.6726 26.2284,33.7456 26.2634,32.7816 L26.6384,22.6476 C26.6734,21.6826 27.0094,20.7776 27.5844,20.0986 C28.1934,19.3776 29.0304,18.9836 29.8784,19.0146 L32.2304,19.1016 L32.1754,20.6006 L29.8224,20.5136 C29.4324,20.4976 29.0444,20.6956 28.7294,21.0676 C28.3764,21.4856 28.1604,22.0816 28.1374,22.7036 L27.7624,32.8366 C27.7394,33.4586 27.9114,34.0686 28.2324,34.5106 C28.5194,34.9046 28.8914,35.1296 29.2824,35.1436 L31.6344,35.2316 C32.0484,35.2466 32.3714,35.5946 32.3564,36.0076 C32.3414,36.4136 32.0084,36.7306 31.6074,36.7306" id="Fill-125" fill="#354546" mask="url(#mask-4)"></path>
                <polygon id="Fill-126" fill="#859596" mask="url(#mask-4)" points="35.9223 38.5392 31.5183 38.3772 32.2423 18.7752 36.6473 18.9382"></polygon>
                <polygon id="Fill-127" fill="#A5B5B6" mask="url(#mask-4)" points="36.2324 30.1524 31.8284 29.9904 32.2424 18.7754 36.6474 18.9384"></polygon>
                <path d="M32.2953,37.6554 L35.2003,37.7614 L35.8693,19.6604 L32.9643,19.5524 L32.2953,37.6554 Z M35.9223,39.2894 L35.8953,39.2894 L31.4903,39.1264 C31.0763,39.1104 30.7533,38.7624 30.7693,38.3484 L31.4933,18.7484 C31.5003,18.5494 31.5863,18.3614 31.7323,18.2254 C31.8783,18.0914 32.0713,18.0204 32.2703,18.0264 L36.6743,18.1884 C37.0883,18.2044 37.4113,18.5514 37.3963,18.9664 L36.6713,38.5674 C36.6643,38.7654 36.5783,38.9544 36.4333,39.0894 C36.2943,39.2174 36.1113,39.2894 35.9223,39.2894 L35.9223,39.2894 Z" id="Fill-128" fill="#354546" mask="url(#mask-4)"></path>
                <path d="M27.2045,28.3849 L27.2025,28.3849 L25.4015,28.3809 C24.9875,28.3809 24.6525,28.0439 24.6535,27.6299 C24.6545,27.2159 24.9895,26.8809 25.4035,26.8809 L25.4045,26.8809 L27.2055,26.8849 C27.6205,26.8859 27.9545,27.2219 27.9545,27.6369 C27.9535,28.0499 27.6175,28.3849 27.2045,28.3849" id="Fill-129" fill="#354546" mask="url(#mask-4)"></path>
                <path d="M82.2788,10.5558 C82.1928,10.5558 82.1058,10.5448 82.0188,10.5228 C81.4568,10.3798 81.1168,9.8078 81.2598,9.2458 L82.0368,6.1978 C82.1798,5.6358 82.7518,5.2958 83.3138,5.4398 C83.8758,5.5818 84.2158,6.1548 84.0718,6.7158 L83.2958,9.7648 C83.1748,10.2398 82.7478,10.5558 82.2788,10.5558" id="Fill-130" fill="#354546" mask="url(#mask-4)"></path>
                <path d="M79.2006,22.337 C79.1386,22.337 79.0766,22.33 79.0146,22.315 C78.6136,22.212 78.3706,21.804 78.4726,21.402 L81.5516,9.32 C81.6536,8.919 82.0616,8.676 82.4636,8.778 C82.8646,8.881 83.1066,9.289 83.0046,9.691 L79.9266,21.773 C79.8406,22.111 79.5346,22.337 79.2006,22.337" id="Fill-131" fill="#354546" mask="url(#mask-4)"></path>
                <path d="M79.2001,21.587 C80.4931,21.635 81.5021,23.024 81.4411,24.672 L81.0671,34.806 C81.0061,36.455 79.8981,37.765 78.6041,37.717 C77.3101,37.669 76.2521,37.63 76.2521,37.63 L76.8471,21.5 C76.8471,21.5 77.9061,21.539 79.2001,21.587" id="Fill-132" fill="#A5B5B6" mask="url(#mask-4)"></path>
                <path d="M81.4414,24.672 L81.2584,29.632 L76.5534,29.458 L76.8474,21.5 C76.8474,21.5 77.9064,21.539 79.2004,21.587 C80.4934,21.635 81.5024,23.024 81.4414,24.672" id="Fill-133" fill="#C5D5D6" mask="url(#mask-4)"></path>
                <path d="M78.6723,38.4679 C78.6403,38.4679 78.6083,38.4679 78.5763,38.4669 L76.2243,38.3799 L76.2793,36.8809 L78.6313,36.9679 C79.4953,37.0019 80.2723,35.9969 80.3173,34.7789 L80.6923,24.6449 C80.7143,24.0229 80.5433,23.4129 80.2223,22.9699 C79.9353,22.5759 79.5633,22.3519 79.1723,22.3369 L76.8203,22.2499 L76.8753,20.7509 L79.2273,20.8379 C80.0763,20.8689 80.8803,21.3249 81.4353,22.0879 C81.9583,22.8079 82.2263,23.7359 82.1913,24.6989 L81.8163,34.8339 C81.7413,36.8619 80.3403,38.4679 78.6723,38.4679" id="Fill-134" fill="#354546" mask="url(#mask-4)"></path>
                <polygon id="Fill-135" fill="#859596" mask="url(#mask-4)" points="71.7592 39.8634 76.1632 40.0264 76.8872 20.4254 72.4832 20.2624"></polygon>
                <polygon id="Fill-136" fill="#A5B5B6" mask="url(#mask-4)" points="72.0688 31.4767 76.4728 31.6397 76.8878 20.4247 72.4838 20.2627"></polygon>
                <path d="M72.5361,39.1417 L75.4411,39.2487 L76.1101,21.1467 L73.2051,21.0387 L72.5361,39.1417 Z M76.1631,40.7767 C76.1541,40.7767 76.1441,40.7767 76.1361,40.7757 L71.7311,40.6137 C71.3171,40.5977 70.9941,40.2497 71.0101,39.8357 L71.7341,20.2347 C71.7411,20.0367 71.8271,19.8477 71.9731,19.7127 C72.1191,19.5777 72.3121,19.5077 72.5111,19.5127 L76.9151,19.6757 C77.3291,19.6907 77.6521,20.0387 77.6371,20.4537 L76.9121,40.0537 C76.9051,40.2527 76.8191,40.4407 76.6741,40.5767 C76.5351,40.7047 76.3521,40.7767 76.1631,40.7767 L76.1631,40.7767 Z" id="Fill-137" fill="#354546" mask="url(#mask-4)"></path>
                <path d="M83.0556,30.5108 C83.0376,30.5108 83.0186,30.5108 83.0006,30.5098 L81.2046,30.3798 C80.7916,30.3508 80.4806,29.9908 80.5106,29.5778 C80.5396,29.1648 80.8996,28.8548 81.3116,28.8838 L83.1086,29.0128 C83.5216,29.0428 83.8326,29.4018 83.8026,29.8158 C83.7746,30.2098 83.4456,30.5108 83.0556,30.5108" id="Fill-138" fill="#354546" mask="url(#mask-4)"></path>
                <path d="M35.8544,44.6768 C34.8284,44.6768 32.2194,45.7908 31.1144,47.0518 C30.1754,48.1208 30.0244,49.9068 30.7854,50.9508 C31.0964,51.3788 31.5064,51.6148 31.9704,51.6368 C32.5024,51.6628 33.0594,51.3858 33.5004,50.8848 C34.0324,50.2778 34.9454,48.8978 35.5894,47.5348 C36.4224,45.7748 36.3904,44.9628 36.2574,44.7808 C36.2164,44.7238 36.0874,44.6858 35.9124,44.6778 C35.8944,44.6768 35.8744,44.6768 35.8544,44.6768 M32.0354,53.1378 C31.9914,53.1378 31.9474,53.1368 31.9024,53.1348 C30.9804,53.0928 30.1534,52.6308 29.5734,51.8348 C28.3894,50.2098 28.5714,47.6748 29.9864,46.0618 C31.0084,44.8978 33.9374,43.1768 35.8444,43.1768 C35.8904,43.1768 35.9354,43.1778 35.9804,43.1798 C36.8064,43.2168 37.2464,43.5898 37.4694,43.8968 C38.0814,44.7368 37.9104,46.1368 36.9454,48.1768 C36.2364,49.6778 35.2424,51.1728 34.6274,51.8738 C33.9184,52.6828 32.9804,53.1378 32.0354,53.1378" id="Fill-139" fill="#19B5FE" mask="url(#mask-4)"></path>
                <path d="M69.3051,43.1505 C69.1801,43.2825 69.1871,43.5435 69.2141,43.7385 C69.3871,44.9765 70.7291,46.7285 71.4801,47.1725 C72.4391,47.7405 74.0001,47.4295 74.8891,46.4945 C75.3151,46.0465 75.5221,45.5195 75.4571,45.0495 C75.4051,44.6755 75.1841,44.3635 74.8181,44.1475 C73.3811,43.2965 69.9531,42.4685 69.3051,43.1505 M72.6261,48.9595 C71.9461,48.9595 71.2831,48.7985 70.7171,48.4635 C69.5531,47.7755 67.9601,45.6065 67.7281,43.9455 C67.5971,42.9995 67.9221,42.4285 68.2181,42.1175 C69.8441,40.4065 74.5311,42.2345 75.5821,42.8565 C76.3441,43.3065 76.8271,44.0115 76.9431,44.8425 C77.0711,45.7675 76.7191,46.7465 75.9771,47.5275 C75.0941,48.4565 73.8321,48.9595 72.6261,48.9595" id="Fill-140" fill="#19B5FE" mask="url(#mask-4)"></path>
                <path d="M29.4858,41.7393 C29.0738,41.7393 28.7208,41.7713 28.4598,41.8353 C26.8408,42.2333 25.7638,44.0843 26.0588,45.9623 C26.2078,46.9133 26.6998,47.7283 27.4088,48.2003 C27.9988,48.5933 28.7008,48.7173 29.3848,48.5493 C30.2818,48.3283 31.9988,47.5823 33.4148,46.6333 C34.8858,45.6473 35.7038,44.6733 35.6018,44.0263 C35.5418,43.6423 35.1408,43.3033 34.8148,43.0873 C33.4868,42.2033 31.0618,41.7393 29.4858,41.7393 M28.7808,50.1233 C28.0058,50.1233 27.2468,49.8933 26.5778,49.4493 C25.5208,48.7463 24.7918,47.5593 24.5768,46.1943 C24.1638,43.5663 25.7458,40.9583 28.1018,40.3793 C29.8608,39.9463 33.6868,40.5353 35.6458,41.8383 C36.4838,42.3953 36.9678,43.0533 37.0838,43.7943 C37.5498,46.7603 31.6728,49.5313 29.7428,50.0053 C29.4228,50.0843 29.1008,50.1233 28.7808,50.1233" id="Fill-141" fill="#719911" mask="url(#mask-4)"></path>
                <path d="M71.4082,47.3106 C71.2562,51.4326 67.7562,54.7906 63.6312,54.7746 L42.0122,54.6846 C37.8872,54.6666 34.7742,51.2886 35.0952,47.1756 L37.4822,13.3296 C37.8032,9.2166 41.4292,6.1356 45.5392,6.4836 L65.3082,8.1546 C69.4182,8.5016 72.6572,12.1586 72.5042,16.2806 L71.4082,47.3106 Z" id="Fill-142" fill="#A5B5B6" mask="url(#mask-4)"></path>
                <path d="M67.9829,41.0167 C67.8709,44.0477 65.0669,46.5097 61.7529,46.4867 L44.3819,46.3667 C41.0679,46.3427 38.5589,43.8507 38.8059,40.8267 L40.6429,16.9307 C40.8899,13.9067 43.7949,11.6497 47.0989,11.9157 L62.9869,13.1947 C66.2899,13.4597 68.9009,16.1577 68.7889,19.1897 L67.9829,41.0167 Z" id="Fill-143" fill="#C5D5D6" mask="url(#mask-4)"></path>
                <path d="M65.205,51.4356 L41.711,51.2766 C38.796,51.2566 36.342,49.8156 35.075,47.6796 C35.034,51.5606 38.056,54.6676 42.012,54.6846 L63.631,54.7746 C67.09,54.7886 70.108,52.4276 71.083,49.2356 C69.552,50.6056 67.466,51.4516 65.205,51.4356" id="Fill-144" fill="#859596" mask="url(#mask-4)"></path>
                <path d="M65.2656,52.1856 L65.1996,52.1856 L41.7056,52.0266 C38.6106,52.0056 35.8906,50.5236 34.4296,48.0616 C34.2186,47.7066 34.3356,47.2456 34.6916,47.0346 C35.0486,46.8236 35.5086,46.9406 35.7196,47.2966 C36.9096,49.3016 39.1516,50.5086 41.7166,50.5266 L65.2096,50.6856 C67.2106,50.6996 69.1196,49.9856 70.5826,48.6766 C70.8916,48.3996 71.3656,48.4266 71.6416,48.7356 C71.9176,49.0436 71.8916,49.5176 71.5826,49.7936 C69.8576,51.3376 67.6166,52.1856 65.2656,52.1856" id="Fill-145" fill="#354546" mask="url(#mask-4)"></path>
                <path d="M71.4082,47.3106 L71.4092,47.3106 L71.4082,47.3106 Z M44.9032,7.2066 C43.3202,7.2066 41.8012,7.7636 40.5752,8.8056 C39.2022,9.9716 38.3702,11.5996 38.2302,13.3876 L35.8432,47.2286 C35.7042,49.0126 36.2702,50.6906 37.4382,51.9576 C38.6052,53.2246 40.2302,53.9266 42.0142,53.9346 L63.6342,54.0246 L63.6632,54.0246 C67.3862,54.0246 70.5212,51.0056 70.6582,47.2826 L71.7552,16.2536 C71.8932,12.5146 68.9722,9.2166 65.2452,8.9016 L45.4762,7.2316 C45.2842,7.2146 45.0932,7.2066 44.9032,7.2066 L44.9032,7.2066 Z M63.6622,55.5246 L63.6282,55.5246 L42.0082,55.4346 C39.8032,55.4246 37.7872,54.5516 36.3342,52.9736 C34.8812,51.3966 34.1762,49.3166 34.3472,47.1176 L36.7342,13.2766 C36.9062,11.0816 37.9252,9.0896 39.6042,7.6626 C41.2832,6.2356 43.4142,5.5526 45.6022,5.7366 L65.3712,7.4076 C69.8852,7.7886 73.4212,11.7816 73.2542,16.3086 L72.1582,47.3366 L72.1582,47.3376 C71.9902,51.8596 68.1832,55.5246 63.6622,55.5246 L63.6622,55.5246 Z" id="Fill-146" fill="#354546" mask="url(#mask-4)"></path>
                <path d="M54.8813,16.296 C50.7733,16.296 45.8773,15.035 45.8773,9.025 C45.8773,8.081 45.9993,7.455 46.2383,6.562 C46.3463,6.162 46.7583,5.926 47.1573,6.032 C47.5583,6.14 47.7953,6.552 47.6873,6.951 C47.4723,7.75 47.3773,8.239 47.3773,9.025 C47.3773,10.452 47.3773,14.796 54.8813,14.796 C62.4183,14.796 62.4183,10.452 62.4183,9.025 C62.4183,8.706 62.4013,8.386 62.3693,8.072 C62.3263,7.66 62.6263,7.291 63.0383,7.249 C63.4503,7.208 63.8193,7.506 63.8613,7.918 C63.8993,8.283 63.9183,8.655 63.9183,9.025 C63.9183,12.342 62.3503,16.296 54.8813,16.296" id="Fill-147" fill="#354546" mask="url(#mask-4)"></path>
                <path d="M50.0405,27.6798 C48.9275,32.0118 44.5135,34.6228 40.1805,33.5098 C35.8475,32.3978 33.2375,27.9828 34.3495,23.6498 C35.4625,19.3178 39.4945,18.4648 43.8265,19.5778 C48.1595,20.6908 51.1535,23.3468 50.0405,27.6798" id="Fill-148" fill="#C5D5D6" mask="url(#mask-4)"></path>
                <path d="M40.5995,19.8946 C38.3725,19.8946 35.8905,20.6656 35.0765,23.8366 C34.5875,25.7386 34.8695,27.7156 35.8685,29.4066 C36.8685,31.0956 38.4655,32.2946 40.3675,32.7836 C44.2925,33.7906 48.3065,31.4176 49.3145,27.4936 L50.0405,27.6796 L49.3145,27.4936 C49.7755,25.6946 49.4705,24.1526 48.4065,22.9086 C47.4145,21.7506 45.7675,20.8506 43.6405,20.3046 C42.8915,20.1126 41.7815,19.8946 40.5995,19.8946 M42.1935,34.5156 C41.4675,34.5156 40.7295,34.4256 39.9945,34.2366 C37.7035,33.6486 35.7805,32.2046 34.5775,30.1686 C33.3745,28.1346 33.0355,25.7526 33.6235,23.4626 C34.7215,19.1866 38.6055,17.4616 44.0135,18.8516 C46.4405,19.4746 48.3535,20.5406 49.5455,21.9336 C50.9265,23.5466 51.3495,25.5986 50.7665,27.8666 C49.7425,31.8566 46.1365,34.5156 42.1935,34.5156" id="Fill-149" fill="#354546" mask="url(#mask-4)"></path>
                <path d="M47.2538,26.964 C46.5358,29.758 43.6898,31.441 40.8958,30.724 C38.1028,30.006 36.4188,27.159 37.1368,24.365 C37.8538,21.571 40.3168,21.648 43.1108,22.364 C45.9048,23.082 47.9708,24.17 47.2538,26.964" id="Fill-150" fill="#9ABD45" mask="url(#mask-4)"></path>
                <path d="M45.6611,25.2198 C45.1601,27.1728 43.3451,28.3958 41.6081,27.9488 C39.8721,27.5028 38.8711,25.5578 39.3721,23.6048 C39.8741,21.6518 41.3741,21.9188 43.1111,22.3648 C44.8481,22.8108 46.1631,23.2658 45.6611,25.2198" id="Fill-151" fill="#CEEC87" mask="url(#mask-4)"></path>
                <path d="M43.4555,24.3243 C43.4925,24.8973 42.6475,25.0613 41.5975,25.1283 C40.5465,25.1953 39.6885,25.1403 39.6515,24.5663 C39.6155,23.9923 40.4365,23.4723 41.4875,23.4063 C42.5385,23.3393 43.4185,23.7503 43.4555,24.3243" id="Fill-152" fill="#FFFFFF" mask="url(#mask-4)"></path>
                <path d="M40.371,22.6925 C40.052,22.6925 39.767,22.7215 39.512,22.7795 C38.635,22.9795 38.126,23.5265 37.863,24.5515 C37.566,25.7095 37.737,26.9135 38.345,27.9415 C38.954,28.9695 39.926,29.6995 41.082,29.9975 C42.24,30.2945 43.443,30.1235 44.472,29.5145 C45.5,28.9065 46.23,27.9345 46.527,26.7775 C46.868,25.4505 46.42,24.8305 45.993,24.4385 C45.413,23.9085 44.438,23.4795 42.925,23.0905 C41.883,22.8235 41.048,22.6925 40.371,22.6925 M42.205,31.6395 C41.707,31.6395 41.205,31.5775 40.709,31.4495 C39.164,31.0525 37.866,30.0785 37.054,28.7055 C36.242,27.3315 36.013,25.7245 36.41,24.1785 C36.814,22.6075 37.745,21.6445 39.179,21.3175 C40.229,21.0775 41.499,21.1765 43.298,21.6385 C45.083,22.0965 46.227,22.6195 47.006,23.3335 C48.056,24.2945 48.384,25.5795 47.98,27.1505 C47.583,28.6955 46.609,29.9935 45.235,30.8055 C44.302,31.3575 43.262,31.6395 42.205,31.6395" id="Fill-153" fill="#354546" mask="url(#mask-4)"></path>
                <path d="M41.8061,29.3731 C41.7631,29.1661 42.0611,29.0621 42.4391,28.9831 C42.8171,28.9041 43.1311,28.8801 43.1741,29.0861 C43.2181,29.2931 42.9461,29.5241 42.5681,29.6031 C42.1911,29.6831 41.8491,29.5791 41.8061,29.3731" id="Fill-154" fill="#FFFFFF" mask="url(#mask-4)"></path>
                <path d="M46.8588,26.8224 C46.6898,27.4814 46.0178,27.8794 45.3578,27.7104 C44.6978,27.5404 44.3008,26.8684 44.4698,26.2094 C44.6398,25.5494 45.3118,25.1524 45.9708,25.3214 C46.6308,25.4904 47.0278,26.1634 46.8588,26.8224" id="Fill-155" fill="#354546" mask="url(#mask-4)"></path>
                <path d="M73.021,25.7296 C73.489,29.4916 70.555,31.2916 66.792,31.7586 C63.031,32.2266 59.866,31.1856 59.398,27.4236 C58.93,23.6626 62.062,21.6306 65.824,21.1636 C69.585,20.6956 72.553,21.9676 73.021,25.7296" id="Fill-156" fill="#C5D5D6" mask="url(#mask-4)"></path>
                <path d="M67.3168,21.8155 C66.8868,21.8155 66.4208,21.8445 65.9168,21.9075 C64.0938,22.1345 62.5308,22.7445 61.5158,23.6255 C60.4168,24.5785 59.9548,25.8255 60.1418,27.3315 C60.5978,30.9935 63.9598,31.3555 66.6998,31.0145 C68.5578,30.7845 70.0468,30.2285 71.0058,29.4095 C72.0498,28.5165 72.4658,27.3425 72.2758,25.8225 C72.0418,23.9315 70.9628,21.8155 67.3168,21.8155 M65.1908,32.6135 C61.4148,32.6135 59.0638,30.8095 58.6538,27.5165 C58.4038,25.5115 59.0538,23.7745 60.5328,22.4925 C61.7888,21.4025 63.5858,20.6855 65.7308,20.4195 C67.8708,20.1535 69.6538,20.4195 71.0308,21.2105 C72.5688,22.0935 73.5148,23.6245 73.7648,25.6365 C74.0138,27.6395 73.3968,29.3385 71.9798,30.5495 C70.7968,31.5605 69.0358,32.2365 66.8848,32.5035 C66.2928,32.5775 65.7278,32.6135 65.1908,32.6135" id="Fill-157" fill="#354546" mask="url(#mask-4)"></path>
                <path d="M70.6015,26.0304 C70.9025,28.4564 68.9175,29.0384 66.4915,29.3404 C64.0665,29.6414 62.1195,29.5484 61.8175,27.1234 C61.5165,24.6974 63.6985,23.8844 66.1245,23.5834 C68.5505,23.2814 70.2995,23.6044 70.6015,26.0304" id="Fill-158" fill="#19B5FE" mask="url(#mask-4)"></path>
                <path d="M68.7041,24.7852 C68.8911,26.2932 67.8221,27.0372 66.3141,27.2242 C64.8071,27.4122 63.4321,26.9722 63.2441,25.4642 C63.0571,23.9562 64.6171,23.7702 66.1241,23.5832 C67.6321,23.3952 68.5171,23.2772 68.7041,24.7852" id="Fill-159" fill="#39D5FF" mask="url(#mask-4)"></path>
                <path d="M67.5336,24.2296 C67.1426,24.2296 66.7036,24.2666 66.2176,24.3276 C62.2866,24.8166 62.4796,26.3676 62.5616,27.0306 C62.7536,28.5716 63.6496,28.9366 66.3996,28.5956 C69.5156,28.2086 70.0186,27.4266 69.8566,26.1236 C69.6776,24.6766 68.8966,24.2296 67.5336,24.2296 M64.8726,30.2166 C63.2416,30.2166 61.3856,29.7286 61.0736,27.2146 C60.7676,24.7586 62.4356,23.2866 66.0316,22.8386 C67.3596,22.6736 70.8846,22.2356 71.3456,25.9376 C71.7806,29.4376 68.2706,29.8746 66.5846,30.0836 C66.1196,30.1416 65.5136,30.2166 64.8726,30.2166" id="Fill-160" fill="#354546" mask="url(#mask-4)"></path>
                <path d="M67.0214,25.047 C67.1164,25.446 66.5414,25.664 65.8094,25.839 C65.0774,26.014 64.4654,26.078 64.3704,25.679 C64.2754,25.278 64.7914,24.814 65.5234,24.639 C66.2554,24.464 66.9254,24.647 67.0214,25.047" id="Fill-161" fill="#FFFFFF" mask="url(#mask-4)"></path>
                <path d="M67.8964,27.8731 C67.7984,27.7251 68.0004,27.5501 68.2744,27.3701 C68.5474,27.1901 68.7884,27.0731 68.8864,27.2231 C68.9844,27.3721 68.8424,27.6391 68.5684,27.8181 C68.2954,27.9981 67.9944,28.0221 67.8964,27.8731" id="Fill-162" fill="#FFFFFF" mask="url(#mask-4)"></path>
                <path d="M64.312,26.8517 C64.383,27.4237 63.977,27.9467 63.404,28.0177 C62.832,28.0887 62.31,27.6817 62.238,27.1097 C62.167,26.5377 62.574,26.0147 63.146,25.9437 C63.719,25.8727 64.241,26.2787 64.312,26.8517" id="Fill-163" fill="#354546" mask="url(#mask-4)"></path>
                <path d="M42.1401,40.6388 L64.8861,35.5568 C64.8861,35.5568 66.1641,42.5628 60.6331,44.6078 C50.8911,48.2078 42.1401,40.6388 42.1401,40.6388" id="Fill-164" fill="#FFFFFF" mask="url(#mask-4)"></path>
                <path d="M42.1401,40.6388 L42.1411,40.6388 L42.1401,40.6388 Z M43.8931,41.0148 C44.8461,41.6688 46.2911,42.5518 48.0681,43.3008 C52.3911,45.1208 56.5311,45.3248 60.3721,43.9048 C64.2251,42.4808 64.3561,38.2328 64.2341,36.4708 L43.8931,41.0148 Z M55.1831,46.3218 C52.6571,46.3218 50.0461,45.7678 47.4411,44.6638 C43.9661,43.1928 41.7421,41.2858 41.6491,41.2048 C41.4351,41.0208 41.3441,40.7298 41.4121,40.4548 C41.4821,40.1808 41.7001,39.9678 41.9761,39.9068 L64.7221,34.8248 C64.9211,34.7808 65.1301,34.8188 65.3001,34.9308 C65.4701,35.0438 65.5871,35.2208 65.6231,35.4218 C65.6381,35.4988 65.9631,37.3328 65.5711,39.4518 C65.0341,42.3528 63.4161,44.3778 60.8921,45.3108 C59.0691,45.9858 57.1511,46.3218 55.1831,46.3218 L55.1831,46.3218 Z" id="Fill-165" fill="#354546" mask="url(#mask-4)"></path>
                <path d="M48.5649,45.0558 C48.1899,45.0558 47.8659,44.7748 47.8209,44.3938 L47.2359,39.4208 C47.1879,39.0098 47.4819,38.6368 47.8939,38.5878 C48.3049,38.5388 48.6769,38.8338 48.7259,39.2448 L49.3109,44.2178 C49.3589,44.6298 49.0649,45.0018 48.6529,45.0508 C48.6239,45.0538 48.5939,45.0558 48.5649,45.0558" id="Fill-166" fill="#354546" mask="url(#mask-4)"></path>
                <path d="M54.0151,46.0655 C53.6131,46.0655 53.2801,45.7475 53.2661,45.3415 L53.0111,38.0685 C52.9961,37.6545 53.3201,37.3065 53.7341,37.2925 C54.1481,37.2765 54.4951,37.6015 54.5101,38.0155 L54.7651,45.2895 C54.7801,45.7035 54.4561,46.0495 54.0421,46.0645 C54.0331,46.0655 54.0241,46.0655 54.0151,46.0655" id="Fill-167" fill="#354546" mask="url(#mask-4)"></path>
                <path d="M59.5825,45.3575 C59.1715,45.3575 58.8375,45.0275 58.8325,44.6155 L58.7495,36.7675 C58.7445,36.3535 59.0765,36.0135 59.4905,36.0095 C59.9015,36.0045 60.2445,36.3375 60.2495,36.7525 L60.3325,44.5995 C60.3365,45.0135 60.0045,45.3535 59.5905,45.3575 L59.5825,45.3575 Z" id="Fill-168" fill="#354546" mask="url(#mask-4)"></path>
                <path d="M18.079,73.1505 C18.879,72.9485 19.699,73.4365 19.901,74.2365 L20.083,74.9565 C20.286,75.7555 19.797,76.5765 18.997,76.7785 L11.687,78.6295 C10.888,78.8315 10.068,78.3425 9.865,77.5435 L9.683,76.8235 C9.481,76.0235 9.969,75.2045 10.769,75.0015 L18.079,73.1505 Z" id="Fill-169" fill="#A5B5B6" mask="url(#mask-4)"></path>
                <path d="M18.079,73.1505 L18.08,73.1505 L18.079,73.1505 Z M18.446,73.8545 C18.385,73.8545 18.324,73.8625 18.263,73.8785 L10.953,75.7285 C10.761,75.7775 10.598,75.8995 10.495,76.0725 C10.392,76.2455 10.362,76.4475 10.41,76.6395 L10.592,77.3585 C10.694,77.7595 11.102,78.0035 11.503,77.9025 L18.813,76.0515 C19.006,76.0035 19.169,75.8795 19.272,75.7075 C19.375,75.5345 19.405,75.3335 19.356,75.1395 L19.174,74.4215 C19.125,74.2275 19.003,74.0655 18.83,73.9625 C18.711,73.8905 18.579,73.8545 18.446,73.8545 L18.446,73.8545 Z M11.32,79.4245 C10.314,79.4245 9.396,78.7455 9.138,77.7265 L8.956,77.0075 C8.809,76.4265 8.898,75.8215 9.206,75.3045 C9.515,74.7875 10.004,74.4215 10.585,74.2745 L17.895,72.4235 C18.476,72.2765 19.081,72.3655 19.598,72.6735 C20.116,72.9815 20.481,73.4715 20.628,74.0525 L20.81,74.7715 C20.958,75.3525 20.869,75.9585 20.56,76.4745 C20.252,76.9925 19.763,77.3585 19.182,77.5045 L11.871,79.3555 C11.687,79.4025 11.502,79.4245 11.32,79.4245 L11.32,79.4245 Z" id="Fill-170" fill="#354546" mask="url(#mask-4)"></path>
                <path d="M23.5444,76.714 L23.1114,75.005 C22.7064,73.405 21.0664,72.428 19.4674,72.833 L17.7574,73.266 C16.1584,73.671 15.1814,75.311 15.5864,76.91 L16.0184,78.619 C16.4234,80.219 18.0644,81.196 19.6634,80.791 L21.3724,80.359 C22.9724,79.954 23.9494,78.314 23.5444,76.714" id="Fill-171" fill="#A5B5B6" mask="url(#mask-4)"></path>
                <path d="M17.9418,73.9933 C16.7388,74.2973 16.0088,75.5233 16.3128,76.7263 L16.7458,78.4353 C17.0498,79.6383 18.2758,80.3693 19.4798,80.0643 L21.1888,79.6323 C22.3908,79.3273 23.1218,78.1003 22.8168,76.8983 L22.3848,75.1893 C22.2378,74.6093 21.8718,74.1203 21.3538,73.8113 C20.8348,73.5033 20.2308,73.4143 19.6508,73.5603 L17.9418,73.9933 Z M18.9268,81.6343 C17.2518,81.6343 15.7208,80.5003 15.2918,78.8043 L14.8588,77.0943 C14.3518,75.0903 15.5688,73.0463 17.5738,72.5393 L19.2828,72.1063 C20.2508,71.8613 21.2588,72.0103 22.1218,72.5233 C22.9838,73.0373 23.5938,73.8533 23.8388,74.8213 L24.2718,76.5303 C24.7788,78.5343 23.5608,80.5783 21.5568,81.0863 L19.8468,81.5183 C19.5398,81.5973 19.2308,81.6343 18.9268,81.6343 L18.9268,81.6343 Z" id="Fill-172" fill="#354546" mask="url(#mask-4)"></path>
                <path d="M36.1528,80.3897 L8.8728,54.6737 L3.2888,60.5967 L30.5698,86.3137 C31.4258,87.1197 33.3698,86.4487 34.9108,84.8127 C36.4528,83.1767 37.0088,81.1977 36.1528,80.3897" id="Fill-173" fill="#E74C3C" mask="url(#mask-4)"></path>
                <path d="M36.1459,83.0411 L7.9649,56.4761 L7.1859,57.3031 L35.5499,84.0411 C35.7899,83.7081 35.9889,83.3711 36.1459,83.0411" id="Fill-174" fill="#F85C4C" mask="url(#mask-4)"></path>
                <path d="M4.3491,60.5655 L31.0841,85.7675 C31.2761,85.9485 31.7191,85.9495 32.2381,85.7705 C32.9351,85.5295 33.7111,84.9935 34.3661,84.2975 C35.7561,82.8235 36.0481,81.3225 35.6391,80.9355 L8.9041,55.7335 L4.3491,60.5655 Z M31.5361,87.4065 C30.9481,87.4065 30.4401,87.2225 30.0551,86.8595 L2.7741,61.1425 C2.6301,61.0055 2.5451,60.8175 2.5391,60.6185 C2.5341,60.4195 2.6071,60.2265 2.7431,60.0825 L8.3271,54.1595 C8.6111,53.8575 9.0851,53.8435 9.3871,54.1285 L36.6671,79.8445 C37.8621,80.9705 37.3421,83.3285 35.4571,85.3275 C34.6301,86.2055 33.6611,86.8655 32.7281,87.1875 C32.3061,87.3345 31.9051,87.4065 31.5361,87.4065 L31.5361,87.4065 Z" id="Fill-175" fill="#A13227" mask="url(#mask-4)"></path>
                <path d="M7.6308,59.0968 C6.0888,60.7318 4.1448,61.4038 3.2888,60.5968 C2.4328,59.7888 2.9888,57.8098 4.5308,56.1738 C6.0728,54.5378 8.0168,53.8668 8.8728,54.6738 C9.7288,55.4808 9.1728,57.4608 7.6308,59.0968" id="Fill-176" fill="#CF4436" mask="url(#mask-4)"></path>
                <path d="M7.895,55.0782 C7.244,55.0782 6.134,55.5662 5.077,56.6882 C3.687,58.1632 3.394,59.6652 3.804,60.0512 C4.213,60.4362 5.695,60.0572 7.085,58.5822 C7.74,57.8882 8.229,57.0822 8.429,56.3712 C8.578,55.8422 8.55,55.4002 8.358,55.2202 C8.26,55.1272 8.1,55.0782 7.895,55.0782 M4.264,61.6902 C3.683,61.6902 3.167,61.5132 2.774,61.1422 C1.58,60.0152 2.1,57.6592 3.985,55.6592 C5.87,53.6602 8.192,53.0012 9.387,54.1282 C10.014,54.7192 10.187,55.6592 9.873,56.7762 C9.606,57.7262 9.004,58.7332 8.177,59.6102 C6.912,60.9522 5.45,61.6902 4.264,61.6902" id="Fill-177" fill="#A13227" mask="url(#mask-4)"></path>
                <path d="M35.9101,85.755 L8.6301,60.038 L3.0461,65.961 L30.3271,91.678 C31.1831,92.485 33.1271,91.813 34.6681,90.177 C36.2101,88.542 36.7661,86.562 35.9101,85.755" id="Fill-178" fill="#E74C3C" mask="url(#mask-4)"></path>
                <path d="M35.9033,88.4054 L7.7223,61.8404 L6.9433,62.6674 L35.3073,89.4054 C35.5473,89.0724 35.7463,88.7354 35.9033,88.4054" id="Fill-179" fill="#F85C4C" mask="url(#mask-4)"></path>
                <path d="M4.1064,65.9298 L30.8414,91.1318 C31.2514,91.5178 32.7324,91.1368 34.1234,89.6628 C35.5134,88.1888 35.8054,86.6868 35.3964,86.3008 L8.6614,61.0978 L4.1064,65.9298 Z M31.3024,92.7718 C30.7204,92.7718 30.2054,92.5938 29.8124,92.2238 L2.5314,66.5068 C2.2304,66.2228 2.2164,65.7478 2.5004,65.4468 L8.0844,59.5238 C8.2204,59.3788 8.4084,59.2938 8.6074,59.2878 C8.8064,59.2838 8.9994,59.3558 9.1444,59.4928 L36.4244,85.2088 C37.6194,86.3348 37.0994,88.6928 35.2144,90.6918 C33.9494,92.0338 32.4874,92.7718 31.3024,92.7718 L31.3024,92.7718 Z" id="Fill-180" fill="#A13227" mask="url(#mask-4)"></path>
                <path d="M7.3881,64.461 C5.8461,66.097 3.9021,66.768 3.0461,65.961 C2.1901,65.154 2.7461,63.174 4.2881,61.538 C5.8301,59.902 7.7741,59.231 8.6301,60.038 C9.4861,60.845 8.9301,62.825 7.3881,64.461" id="Fill-181" fill="#CF4436" mask="url(#mask-4)"></path>
                <path d="M7.3881,64.461 L7.3891,64.461 L7.3881,64.461 Z M7.6521,60.442 C7.0011,60.442 5.8911,60.931 4.8341,62.053 C4.1791,62.747 3.6891,63.553 3.4901,64.263 C3.3411,64.793 3.3681,65.234 3.5601,65.415 C3.9701,65.801 5.4521,65.421 6.8421,63.946 C7.4971,63.252 7.9871,62.446 8.1861,61.735 C8.3351,61.206 8.3071,60.765 8.1151,60.584 C8.0171,60.491 7.8571,60.442 7.6521,60.442 L7.6521,60.442 Z M4.0211,67.055 C3.4401,67.055 2.9251,66.877 2.5321,66.507 C1.9051,65.916 1.7321,64.975 2.0461,63.857 C2.3121,62.908 2.9151,61.901 3.7421,61.023 C5.6271,59.024 7.9491,58.366 9.1441,59.492 C9.7711,60.083 9.9441,61.024 9.6301,62.142 C9.3641,63.091 8.7611,64.098 7.9341,64.976 C6.6691,66.316 5.2071,67.055 4.0211,67.055 L4.0211,67.055 Z" id="Fill-182" fill="#A13227" mask="url(#mask-4)"></path>
                <path d="M41.4936,79.8311 L14.2136,54.1151 L8.6296,60.0381 L35.9106,85.7551 C36.7666,86.5611 38.7106,85.8901 40.2516,84.2541 C41.7936,82.6181 42.3496,80.6391 41.4936,79.8311" id="Fill-183" fill="#E74C3C" mask="url(#mask-4)"></path>
                <path d="M41.4868,82.4825 L13.3058,55.9175 L12.5268,56.7445 L40.8908,83.4825 C41.1308,83.1495 41.3298,82.8125 41.4868,82.4825" id="Fill-184" fill="#F85C4C" mask="url(#mask-4)"></path>
                <path d="M9.6899,60.0069 L36.4249,85.2089 C36.8349,85.5949 38.3159,85.2149 39.7069,83.7399 C41.0969,82.2649 41.3889,80.7639 40.9799,80.3769 L14.2449,55.1749 L9.6899,60.0069 Z M36.8849,86.8489 C36.3039,86.8489 35.7889,86.6709 35.3959,86.3009 L8.1149,60.5839 C7.9709,60.4469 7.8859,60.2589 7.8799,60.0599 C7.8749,59.8609 7.9479,59.6679 8.0839,59.5239 L13.6679,53.6009 C13.9519,53.2989 14.4259,53.2849 14.7279,53.5699 L42.0079,79.2849 C43.2029,80.4119 42.6829,82.7699 40.7979,84.7689 C39.5329,86.1109 38.0709,86.8489 36.8849,86.8489 L36.8849,86.8489 Z" id="Fill-185" fill="#A13227" mask="url(#mask-4)"></path>
                <path d="M12.9716,58.5382 C11.4296,60.1732 9.4856,60.8452 8.6296,60.0382 C7.7736,59.2302 8.3296,57.2512 9.8716,55.6152 C11.4126,53.9792 13.3566,53.3082 14.2136,54.1152 C15.0696,54.9222 14.5136,56.9022 12.9716,58.5382" id="Fill-186" fill="#CF4436" mask="url(#mask-4)"></path>
                <path d="M13.2411,54.5235 C13.0421,54.5235 12.8031,54.5685 12.5441,54.6585 C11.8471,54.8985 11.0721,55.4355 10.4171,56.1295 C9.7621,56.8245 9.2731,57.6295 9.0731,58.3395 C8.9251,58.8695 8.9521,59.3105 9.1441,59.4925 C9.5531,59.8785 11.0351,59.4985 12.4261,58.0235 C13.0801,57.3295 13.5701,56.5235 13.7691,55.8125 C13.9181,55.2835 13.8911,54.8415 13.6991,54.6615 C13.6021,54.5695 13.4421,54.5235 13.2411,54.5235 M9.6051,61.1315 C9.0231,61.1315 8.5081,60.9545 8.1151,60.5845 C7.4881,59.9925 7.3161,59.0515 7.6291,57.9345 C7.8961,56.9845 8.4981,55.9785 9.3251,55.1005 C10.1531,54.2235 11.1221,53.5625 12.0541,53.2405 C13.1511,52.8615 14.1001,52.9785 14.7271,53.5695 C15.3551,54.1605 15.5271,55.1015 15.2141,56.2185 C14.9471,57.1685 14.3451,58.1745 13.5171,59.0515 C12.2531,60.3935 10.7911,61.1315 9.6051,61.1315" id="Fill-187" fill="#A13227" mask="url(#mask-4)"></path>
                <path d="M41.7333,85.6505 L14.4533,59.9345 L8.8693,65.8575 L36.1503,91.5735 C37.0063,92.3805 38.9503,91.7095 40.4913,90.0735 C42.0333,88.4375 42.5893,86.4585 41.7333,85.6505" id="Fill-188" fill="#E74C3C" mask="url(#mask-4)"></path>
                <path d="M41.7265,88.3018 L13.5455,61.7368 L12.7665,62.5638 L41.1305,89.3008 C41.3705,88.9688 41.5695,88.6318 41.7265,88.3018" id="Fill-189" fill="#F85C4C" mask="url(#mask-4)"></path>
                <path d="M9.9296,65.8263 L36.6646,91.0283 C36.8566,91.2093 37.2996,91.2103 37.8186,91.0303 C38.5156,90.7903 39.2916,90.2533 39.9466,89.5583 C40.6006,88.8643 41.0906,88.0583 41.2896,87.3483 C41.4386,86.8193 41.4106,86.3783 41.2196,86.1963 L14.4846,60.9943 L9.9296,65.8263 Z M37.1166,92.6673 C36.5276,92.6673 36.0206,92.4823 35.6356,92.1193 L8.3546,66.4033 C8.0536,66.1193 8.0396,65.6443 8.3236,65.3433 L13.9076,59.4203 C14.0436,59.2743 14.2316,59.1903 14.4306,59.1843 C14.6286,59.1803 14.8226,59.2523 14.9676,59.3893 L42.2476,85.1043 C42.8746,85.6963 43.0476,86.6373 42.7336,87.7543 C42.4676,88.7043 41.8646,89.7103 41.0376,90.5883 C40.2106,91.4663 39.2416,92.1263 38.3086,92.4483 C37.8866,92.5953 37.4856,92.6673 37.1166,92.6673 L37.1166,92.6673 Z" id="Fill-190" fill="#A13227" mask="url(#mask-4)"></path>
                <path d="M13.2114,64.3565 C11.6694,65.9925 9.7254,66.6645 8.8694,65.8575 C8.0134,65.0495 8.5694,63.0705 10.1114,61.4345 C11.6524,59.7985 13.5974,59.1275 14.4534,59.9345 C15.3094,60.7415 14.7534,62.7215 13.2114,64.3565" id="Fill-191" fill="#CF4436" mask="url(#mask-4)"></path>
                <path d="M13.4755,60.339 C12.8245,60.339 11.7145,60.827 10.6565,61.949 C10.0025,62.644 9.5125,63.449 9.3135,64.159 C9.1645,64.689 9.1915,65.13 9.3835,65.312 C9.7935,65.698 11.2755,65.318 12.6655,63.843 C14.0555,62.368 14.3485,60.866 13.9385,60.48 C13.8405,60.387 13.6805,60.339 13.4755,60.339 M9.8445,66.951 C9.2635,66.951 8.7475,66.774 8.3545,66.403 C7.7275,65.812 7.5555,64.871 7.8695,63.754 C8.1355,62.804 8.7385,61.798 9.5655,60.92 C11.4505,58.921 13.7725,58.262 14.9675,59.389 C16.1625,60.515 15.6425,62.872 13.7565,64.871 C12.4925,66.213 11.0305,66.951 9.8445,66.951" id="Fill-192" fill="#A13227" mask="url(#mask-4)"></path>
                <path d="M27.6313,65.4806 L21.3333,59.5436 C22.1563,60.3206 20.0383,63.9056 16.6013,67.5516 C13.1633,71.1986 9.7093,73.5246 8.8853,72.7486 L15.1843,78.6856 C16.0073,79.4616 19.4623,77.1356 22.8993,73.4896 C26.3373,69.8426 28.4553,66.2576 27.6313,65.4806" id="Fill-193" fill="#373737" mask="url(#mask-4)"></path>
                <path d="M27.1176,67.9591 L20.8196,62.0221 C20.3836,62.8261 19.7576,63.7671 18.9806,64.7741 L25.2796,70.7121 C26.0556,69.7041 26.6826,68.7641 27.1176,67.9591" id="Fill-194" fill="#494949" mask="url(#mask-4)"></path>
                <path d="M16.601,67.5518 C16.534,67.6238 16.466,67.6938 16.398,67.7648 L22.697,73.7018 C22.765,73.6308 22.832,73.5608 22.899,73.4888 C23.211,73.1578 23.512,72.8278 23.801,72.4998 L17.503,66.5628 C17.214,66.8908 16.913,67.2208 16.601,67.5518" id="Fill-195" fill="#494949" mask="url(#mask-4)"></path>
                <path d="M27.1171,66.0265 L27.1181,66.0265 L27.1171,66.0265 Z M15.6431,78.0885 C15.6511,78.0895 15.6581,78.0895 15.6661,78.0895 C16.3371,78.0895 18.9091,76.6305 22.3531,72.9755 C25.8391,69.2775 27.1341,66.6045 27.0621,65.9745 L22.0171,61.2195 C21.7731,61.9015 21.4021,62.5285 21.2101,62.8535 C20.2891,64.4125 18.8461,66.2635 17.1461,68.0665 C15.4471,69.8695 13.6841,71.4195 12.1821,72.4305 C11.5571,72.8515 11.0341,73.1385 10.5941,73.3285 L15.6431,78.0885 Z M15.5911,79.5895 C15.0481,79.5895 14.7961,79.3505 14.6691,79.2315 L8.3711,73.2945 C8.0691,73.0095 8.0551,72.5355 8.3401,72.2335 C8.6051,71.9525 9.0361,71.9215 9.3381,72.1505 C9.3471,72.1505 9.3571,72.1515 9.3671,72.1515 C10.0381,72.1515 12.6101,70.6925 16.0551,67.0385 C19.5531,63.3275 20.8451,60.6485 20.7631,60.0315 C20.5161,59.7435 20.5221,59.3105 20.7871,59.0295 C21.0711,58.7275 21.5461,58.7145 21.8471,58.9985 L21.8481,58.9995 L28.1461,64.9355 C29.2001,65.9285 27.9271,68.0835 27.5091,68.7915 C26.5881,70.3495 25.1441,72.2015 23.4451,74.0045 C21.7451,75.8065 19.9821,77.3565 18.4801,78.3685 C17.0631,79.3225 16.1651,79.5895 15.5911,79.5895 L15.5911,79.5895 Z" id="Fill-196" fill="#242424" mask="url(#mask-4)"></path>
                <path d="M38.7846,75.9952 L32.4866,70.0582 C33.3096,70.8342 31.1916,74.4202 27.7546,78.0662 C24.3166,81.7122 20.8626,84.0392 20.0386,83.2622 L26.3376,89.1992 C27.1606,89.9762 30.6156,87.6492 34.0526,84.0032 C37.4896,80.3572 39.6086,76.7712 38.7846,75.9952" id="Fill-197" fill="#373737" mask="url(#mask-4)"></path>
                <path d="M38.2709,78.4727 L31.9729,72.5357 C31.5369,73.3397 30.9109,74.2807 30.1339,75.2877 L36.4329,81.2257 C37.2089,80.2177 37.8359,79.2777 38.2709,78.4727" id="Fill-198" fill="#494949" mask="url(#mask-4)"></path>
                <path d="M27.7543,78.0665 C27.6873,78.1375 27.6193,78.2085 27.5513,78.2785 L33.8503,84.2155 C33.9183,84.1445 33.9853,84.0755 34.0523,84.0035 C34.3643,83.6715 34.6653,83.3415 34.9543,83.0135 L28.6563,77.0765 C28.3673,77.4045 28.0663,77.7355 27.7543,78.0665" id="Fill-199" fill="#494949" mask="url(#mask-4)"></path>
                <path d="M26.7964,88.6021 C27.4314,88.6361 30.0214,87.1871 33.5064,83.4891 C36.9924,79.7911 38.2874,77.1191 38.2154,76.4891 L33.1704,71.7331 C32.9264,72.4151 32.5554,73.0431 32.3634,73.3671 C31.4424,74.9261 29.9994,76.7771 28.2994,78.5801 C26.6004,80.3831 24.8374,81.9341 23.3354,82.9441 C22.7104,83.3651 22.1864,83.6521 21.7474,83.8421 L26.7964,88.6021 Z M26.7444,90.1031 C26.2014,90.1031 25.9494,89.8641 25.8224,89.7451 L19.5244,83.8081 C19.2224,83.5231 19.2084,83.0491 19.4934,82.7481 C19.7584,82.4661 20.1894,82.4361 20.4914,82.6641 C21.1134,82.7041 23.7104,81.2631 27.2084,77.5521 C30.7064,73.8411 31.9984,71.1621 31.9164,70.5451 C31.6694,70.2571 31.6754,69.8241 31.9404,69.5431 C32.2244,69.2411 32.6994,69.2281 33.0004,69.5121 L39.2994,75.4491 C40.3534,76.4421 39.0804,78.5971 38.6624,79.3051 C37.7414,80.8631 36.2974,82.7151 34.5984,84.5181 C32.8984,86.3201 31.1354,87.8701 29.6334,88.8821 C28.2164,89.8361 27.3184,90.1031 26.7444,90.1031 L26.7444,90.1031 Z" id="Fill-200" fill="#242424" mask="url(#mask-4)"></path>
                <path d="M11.6611,63.6456 C11.4861,63.6456 11.3101,63.5846 11.1671,63.4596 L1.0261,54.5946 C0.7431,54.3466 0.6861,53.9286 0.8941,53.6156 C1.1021,53.3016 1.5101,53.1916 1.8481,53.3556 C6.8521,55.7936 11.4581,56.3266 11.5041,56.3316 C11.9161,56.3766 12.2121,56.7476 12.1671,57.1596 C12.1211,57.5706 11.7511,57.8686 11.3391,57.8226 C11.1961,57.8056 8.7131,57.5196 5.3791,56.4076 L12.1551,62.3316 C12.4671,62.6036 12.4981,63.0776 12.2261,63.3896 C12.0781,63.5586 11.8701,63.6456 11.6611,63.6456" id="Fill-201" fill="#F1892D" mask="url(#mask-4)"></path>
                <path d="M5.8383,63.7491 C5.5593,63.7491 5.2913,63.5931 5.1623,63.3241 L0.8603,54.3911 C0.6453,54.0341 -0.5897,51.8101 0.5263,49.3341 C1.8203,46.4651 5.6833,44.5261 12.0093,43.5711 C12.4203,43.5101 12.8013,43.7921 12.8633,44.2011 C12.9253,44.6111 12.6433,44.9931 12.2333,45.0551 C5.0403,46.1411 2.6443,48.3071 1.9013,49.9331 C1.0373,51.8261 2.1053,53.5531 2.1503,53.6261 C2.1663,53.6501 2.1823,53.6791 2.1943,53.7041 L6.5133,62.6741 C6.6933,63.0471 6.5363,63.4951 6.1633,63.6751 C6.0583,63.7261 5.9473,63.7491 5.8383,63.7491" id="Fill-202" fill="#F1892D" mask="url(#mask-4)"></path>
                <path d="M0.7504,55.3819 C0.5314,55.3819 0.3134,55.2859 0.1654,55.1029 C-0.0936,54.7789 -0.0426,54.3069 0.2804,54.0479 L1.9254,52.7249 C2.2484,52.4649 2.7204,52.5159 2.9794,52.8389 C3.2394,53.1609 3.1884,53.6339 2.8654,53.8939 L1.2204,55.2169 C1.0814,55.3279 0.9154,55.3819 0.7504,55.3819" id="Fill-203" fill="#A13227" mask="url(#mask-4)"></path>
                <path d="M15.6557,81.8351 C15.0847,82.4311 14.1307,82.4511 13.5347,81.8801 L12.9987,81.3671 C12.4027,80.7961 12.3827,79.8421 12.9527,79.2461 L15.4117,76.5591 C15.9827,75.9631 16.9367,75.9421 17.5327,76.5131 L18.0687,77.0261 C18.6647,77.5971 18.6857,78.5521 18.1147,79.1471 L15.6557,81.8351 Z" id="Fill-204" fill="#A5B5B6" mask="url(#mask-4)"></path>
                <path d="M15.9584,77.0724 L13.5064,79.7524 C13.5024,79.7574 13.4984,79.7604 13.4944,79.7644 C13.2084,80.0634 13.2184,80.5394 13.5174,80.8254 L14.0534,81.3394 C14.1974,81.4754 14.3854,81.5484 14.5884,81.5454 C14.7874,81.5414 14.9724,81.4614 15.1084,81.3214 L17.5614,78.6404 L17.5734,78.6294 C17.8594,78.3304 17.8494,77.8544 17.5504,77.5684 L17.0144,77.0544 C16.7174,76.7704 16.2454,76.7794 15.9584,77.0724 L15.9584,77.0724 Z M15.6554,81.8354 L15.6574,81.8354 L15.6554,81.8354 Z M14.5704,83.0454 C13.9874,83.0454 13.4374,82.8254 13.0164,82.4224 L12.4794,81.9094 C11.5864,81.0524 11.5534,79.6314 12.4044,78.7344 L14.8584,76.0524 C14.8624,76.0484 14.8664,76.0444 14.8704,76.0404 C15.7294,75.1444 17.1554,75.1134 18.0514,75.9714 L18.5874,76.4844 C19.4814,77.3414 19.5144,78.7624 18.6634,79.6594 L16.2084,82.3414 C16.2054,82.3444 16.2014,82.3484 16.1974,82.3534 C15.7824,82.7864 15.2234,83.0314 14.6214,83.0454 L14.5704,83.0454 Z" id="Fill-205" fill="#354546" mask="url(#mask-4)"></path>
                <path d="M18.8408,84.6729 C18.2698,85.2689 17.3158,85.2889 16.7198,84.7179 L16.1838,84.2049 C15.5878,83.6339 15.5678,82.6799 16.1378,82.0839 L18.5968,79.3969 C19.1678,78.8009 20.1218,78.7799 20.7178,79.3509 L21.2538,79.8639 C21.8498,80.4349 21.8708,81.3899 21.2998,81.9849 L18.8408,84.6729 Z" id="Fill-206" fill="#A5B5B6" mask="url(#mask-4)"></path>
                <path d="M19.1435,79.9102 L16.6915,82.5902 C16.6875,82.5952 16.6835,82.5982 16.6795,82.6022 C16.3935,82.9012 16.4035,83.3772 16.7025,83.6632 L17.2385,84.1772 C17.3825,84.3132 17.5725,84.3882 17.7735,84.3832 C17.9725,84.3792 18.1575,84.2992 18.2945,84.1592 L20.7465,81.4782 L20.7585,81.4672 C21.0435,81.1682 21.0335,80.6922 20.7355,80.4062 L20.1995,79.8922 C20.0555,79.7552 19.8655,79.6822 19.6645,79.6862 C19.4655,79.6902 19.2805,79.7702 19.1435,79.9102 L19.1435,79.9102 Z M18.8405,84.6732 L18.8425,84.6732 L18.8405,84.6732 Z M17.7555,85.8832 C17.1725,85.8832 16.6225,85.6632 16.2015,85.2602 L15.6645,84.7472 C14.7715,83.8902 14.7385,82.4692 15.5895,81.5722 L18.0435,78.8902 C18.0475,78.8872 18.0515,78.8822 18.0555,78.8782 C18.4705,78.4452 19.0295,78.1992 19.6315,78.1862 C20.2335,78.1792 20.8045,78.3942 21.2365,78.8092 L21.7725,79.3222 C22.6665,80.1792 22.6995,81.6002 21.8485,82.4972 L19.3935,85.1792 C19.3905,85.1822 19.3865,85.1872 19.3825,85.1912 C18.9675,85.6242 18.4085,85.8692 17.8065,85.8832 L17.7555,85.8832 Z" id="Fill-207" fill="#354546" mask="url(#mask-4)"></path>
                <path d="M21.6196,87.3536 C21.0486,87.9506 20.0946,87.9706 19.4986,87.3996 L18.9626,86.8866 C18.3666,86.3156 18.3466,85.3616 18.9166,84.7656 L21.3756,82.0786 C21.9466,81.4826 22.9006,81.4616 23.4966,82.0326 L24.0326,82.5456 C24.6286,83.1166 24.6486,84.0716 24.0786,84.6666 L21.6196,87.3536 Z" id="Fill-208" fill="#A5B5B6" mask="url(#mask-4)"></path>
                <path d="M21.9223,82.5919 L19.4703,85.2719 C19.4663,85.2769 19.4623,85.2799 19.4583,85.2839 C19.1723,85.5829 19.1823,86.0589 19.4813,86.3449 L20.0173,86.8589 C20.3143,87.1429 20.7863,87.1339 21.0723,86.8399 L23.5253,84.1599 C23.5283,84.1559 23.5323,84.1529 23.5363,84.1489 C23.6743,84.0049 23.7473,83.8149 23.7433,83.6129 C23.7383,83.4119 23.6573,83.2249 23.5143,83.0879 L22.9783,82.5739 C22.6803,82.2899 22.2093,82.2979 21.9223,82.5919 L21.9223,82.5919 Z M21.6193,87.3539 L21.6213,87.3539 L21.6193,87.3539 Z M20.5353,88.5659 C19.9753,88.5659 19.4153,88.3589 18.9803,87.9419 L18.4433,87.4279 C17.5503,86.5719 17.5173,85.1509 18.3683,84.2539 L20.8223,81.5719 C20.8263,81.5689 20.8303,81.5639 20.8343,81.5599 C21.6923,80.6639 23.1193,80.6329 24.0153,81.4909 L24.5513,82.0049 C24.9843,82.4189 25.2303,82.9789 25.2423,83.5809 C25.2553,84.1799 25.0373,84.7469 24.6263,85.1789 L22.1723,87.8609 C22.1693,87.8639 22.1653,87.8689 22.1613,87.8729 C21.7193,88.3329 21.1283,88.5659 20.5353,88.5659 L20.5353,88.5659 Z" id="Fill-209" fill="#354546" mask="url(#mask-4)"></path>
                <path d="M82.0063,80.877 L81.9843,81.51 L72.0923,80.838 L72.1053,80.485 C72.1623,78.836 73.5593,77.534 75.2083,77.592 L79.1123,77.774 C80.7623,77.832 82.0643,79.228 82.0063,80.877" id="Fill-210" fill="#A5B5B6" mask="url(#mask-4)"></path>
                <path d="M81.9848,82.2599 L81.9578,82.2599 C81.5438,82.2449 81.2198,81.8979 81.2348,81.4849 L81.2568,80.8509 C81.2998,79.6109 80.3268,78.5669 79.0868,78.5239 L75.1728,78.3409 C73.9418,78.3009 72.8978,79.2719 72.8548,80.5119 L72.8418,80.8639 C72.8278,81.2789 72.4798,81.6039 72.0668,81.5869 C71.6518,81.5729 71.3288,81.2259 71.3428,80.8119 L71.3558,80.4589 C71.4268,78.3929 73.1678,76.7729 75.2338,76.8419 L79.1478,77.0249 C81.2058,77.0969 82.8278,78.8369 82.7558,80.9039 L82.7338,81.5359 C82.7198,81.9419 82.3868,82.2599 81.9848,82.2599" id="Fill-211" fill="#354546" mask="url(#mask-4)"></path>
                <path d="M74.0996,87.8341 C74.0686,88.6581 73.3696,89.3081 72.5446,89.2771 L70.4486,89.1991 C69.6236,89.1691 68.9746,88.4701 69.0046,87.6451 L69.2596,80.7721 C69.2906,79.9481 69.9896,79.2981 70.8146,79.3291 L72.9106,79.4061 C73.7356,79.4381 74.3846,80.1371 74.3536,80.9611 L74.0996,87.8341 Z" id="Fill-212" fill="#373737" mask="url(#mask-4)"></path>
                <path d="M70.7587,80.0782 C70.5707,80.0782 70.3897,80.1482 70.2497,80.2792 C70.1017,80.4172 70.0167,80.6012 70.0087,80.8002 L69.7547,87.6732 C69.7387,88.0862 70.0627,88.4342 70.4757,88.4502 L72.5727,88.5272 C72.7707,88.5342 72.9617,88.4642 73.1097,88.3262 C73.2577,88.1892 73.3427,88.0052 73.3497,87.8062 L73.6047,80.9332 C73.6197,80.5202 73.2967,80.1712 72.8827,80.1562 L70.7867,80.0782 L70.7587,80.0782 Z M72.6017,90.0282 C72.5737,90.0282 72.5457,90.0272 72.5167,90.0262 L70.4207,89.9492 C69.1807,89.9032 68.2097,88.8562 68.2557,87.6172 L68.5097,80.7442 C68.5327,80.1452 68.7877,79.5902 69.2287,79.1812 C69.6707,78.7702 70.2437,78.5542 70.8417,78.5792 L72.9387,78.6572 C74.1777,78.7032 75.1497,79.7492 75.1037,80.9892 L74.8487,87.8612 C74.8267,88.4612 74.5717,89.0162 74.1307,89.4262 C73.7097,89.8162 73.1697,90.0282 72.6017,90.0282 L72.6017,90.0282 Z" id="Fill-213" fill="#242424" mask="url(#mask-4)"></path>
                <path d="M70.8149,80.0792 C70.8059,80.0792 70.7959,80.0792 70.7869,80.0782 C70.3729,80.0632 70.0489,79.7152 70.0649,79.3012 L70.1249,77.6842 C70.1399,77.2702 70.4889,76.9452 70.9019,76.9632 C71.3159,76.9782 71.6389,77.3262 71.6239,77.7402 L71.5639,79.3562 C71.5489,79.7612 71.2159,80.0792 70.8149,80.0792" id="Fill-214" fill="#242424" mask="url(#mask-4)"></path>
                <path d="M75.0083,78.0948 C74.9803,78.8488 74.3463,79.4368 73.5933,79.4078 C72.8403,79.3808 72.2523,78.7468 72.2803,77.9938 C72.3083,77.2408 72.9413,76.6528 73.6953,76.6808 C74.4483,76.7088 75.0363,77.3418 75.0083,78.0948" id="Fill-215" fill="#494949" mask="url(#mask-4)"></path>
                <path d="M73.6435,77.4298 C73.4875,77.4298 73.3405,77.4878 73.2265,77.5938 C73.1055,77.7058 73.0355,77.8578 73.0295,78.0218 C73.0235,78.1858 73.0815,78.3428 73.1935,78.4628 C73.3055,78.5828 73.4565,78.6538 73.6215,78.6588 C73.7855,78.6648 73.9425,78.6078 74.0625,78.4948 C74.1835,78.3838 74.2525,78.2318 74.2585,78.0678 C74.2705,77.7288 74.0055,77.4428 73.6665,77.4298 L73.6435,77.4298 Z M73.6465,80.1588 L73.5655,80.1588 C73.0015,80.1368 72.4785,79.8978 72.0945,79.4838 C71.7095,79.0698 71.5095,78.5318 71.5305,77.9658 C71.5515,77.4018 71.7915,76.8788 72.2055,76.4948 C72.6195,76.1108 73.1575,75.9098 73.7225,75.9318 C74.8875,75.9748 75.8005,76.9578 75.7575,78.1228 C75.7365,78.6878 75.4975,79.2098 75.0825,79.5948 C74.6885,79.9608 74.1815,80.1588 73.6465,80.1588 L73.6465,80.1588 Z" id="Fill-216" fill="#242424" mask="url(#mask-4)"></path>
                <path d="M69.1445,75.2218 C69.1445,75.2218 67.2555,73.2608 68.0555,70.3988 C69.1515,66.4758 71.2455,62.2448 72.5235,63.6828 C73.8025,65.1198 75.2875,72.1968 73.7335,73.9698 C72.1795,75.7428 71.6395,74.6698 71.8805,71.6308 C72.0965,68.9068 70.3745,69.2428 69.1445,75.2218" id="Fill-217" fill="#FDE3A7" mask="url(#mask-4)"></path>
                <path d="M71.4077,69.2413 C71.4577,69.2413 71.5077,69.2453 71.5587,69.2533 C72.0247,69.3183 72.7837,69.7223 72.6277,71.6893 C72.5217,73.0383 72.5997,73.6783 72.6707,73.9653 C72.7827,73.8783 72.9467,73.7293 73.1697,73.4753 C73.5627,73.0263 73.8717,71.5363 73.4497,68.8153 C73.1007,66.5683 72.4207,64.6953 71.9637,64.1813 C71.9517,64.1693 71.9427,64.1593 71.9357,64.1523 C71.4017,64.3123 69.8987,66.5893 68.7777,70.6003 C68.4867,71.6423 68.6087,72.5433 68.8457,73.2323 C69.4217,71.1313 70.2587,69.2413 71.4077,69.2413 M69.1447,75.9713 C68.9437,75.9713 68.7477,75.8903 68.6047,75.7423 C68.5147,75.6493 66.4277,73.4353 67.3327,70.1963 C67.8117,68.4843 68.4667,66.7583 69.1297,65.4583 C69.9847,63.7823 70.8017,62.8753 71.6257,62.6843 C72.1677,62.5593 72.6857,62.7363 73.0847,63.1843 C73.9287,64.1343 74.6207,66.5813 74.9317,68.5853 C75.1857,70.2203 75.4407,73.1593 74.2977,74.4643 C73.9537,74.8553 73.0407,75.8973 72.0627,75.4853 C71.0057,75.0393 70.9997,73.2563 71.1327,71.5713 C71.1397,71.4773 71.1447,71.3903 71.1467,71.3103 C70.8017,71.9693 70.3227,73.2193 69.8797,75.3733 C69.8237,75.6453 69.6207,75.8643 69.3537,75.9423 C69.2847,75.9623 69.2147,75.9713 69.1447,75.9713" id="Fill-218" fill="#FFCF4B" mask="url(#mask-4)"></path>
                <path d="M81.9843,81.5099 L81.8893,84.2279 L81.8513,85.3179 L81.6613,90.7459 C81.6043,92.3959 80.2073,93.6979 78.5583,93.6399 L69.5333,93.3209 C67.8843,93.2629 66.5823,91.8659 66.6403,90.2179 L66.8683,83.6979 C66.9253,82.0499 68.3213,80.7479 69.9703,80.8059 L73.5893,80.9319 L81.9843,81.5099 Z" id="Fill-219" fill="#A5B5B6" mask="url(#mask-4)"></path>
                <path d="M66.8681,83.6983 C66.9261,82.0503 68.3221,80.7483 69.9711,80.8053 L71.9821,80.8763 L71.4961,93.3883 L69.5341,93.3203 C67.8851,93.2623 66.5821,91.8663 66.6401,90.2183 L66.8681,83.6983 Z" id="Fill-220" fill="#859596" mask="url(#mask-4)"></path>
                <path d="M78.665,94.3917 C78.621,94.3917 78.577,94.3907 78.532,94.3897 L69.507,94.0707 C68.51,94.0357 67.583,93.6117 66.898,92.8767 C66.213,92.1427 65.855,91.1887 65.891,90.1917 L66.119,83.6727 C66.153,82.6747 66.577,81.7477 67.311,81.0637 C68.045,80.3787 69,80.0187 69.997,80.0557 L73.616,80.1817 C74.03,80.1967 74.353,80.5437 74.339,80.9577 C74.325,81.3717 73.978,81.6997 73.563,81.6817 L69.945,81.5547 C69.348,81.5357 68.775,81.7487 68.334,82.1607 C67.893,82.5727 67.638,83.1277 67.618,83.7247 L67.39,90.2447 C67.369,90.8407 67.584,91.4127 67.996,91.8547 C68.407,92.2947 68.962,92.5497 69.56,92.5707 L78.585,92.8907 C79.826,92.9367 80.869,91.9597 80.912,90.7207 L81.235,81.4847 C81.249,81.0707 81.597,80.7477 82.01,80.7607 C82.424,80.7757 82.748,81.1217 82.734,81.5367 L82.411,90.7727 C82.34,92.7947 80.673,94.3917 78.665,94.3917" id="Fill-221" fill="#354546" mask="url(#mask-4)"></path>
                <path d="M71.5449,94.1407 L71.5179,94.1407 C71.1039,94.1257 70.7799,93.7787 70.7949,93.3647 L71.2329,80.8497 C71.2469,80.4357 71.5949,80.1147 72.0079,80.1257 C72.4219,80.1407 72.7459,80.4887 72.7319,80.9017 L72.2939,93.4167 C72.2799,93.8227 71.9469,94.1407 71.5449,94.1407" id="Fill-222" fill="#354546" mask="url(#mask-4)"></path>
                <path d="M71.8217,86.2081 L71.8207,86.2081 L66.8057,86.1991 C66.3907,86.1981 66.0557,85.8621 66.0567,85.4481 C66.0577,85.0341 66.3927,84.6991 66.8067,84.6991 L66.8077,84.6991 L71.8227,84.7081 C72.2377,84.7081 72.5717,85.0451 72.5717,85.4591 C72.5707,85.8731 72.2357,86.2081 71.8217,86.2081" id="Fill-223" fill="#354546" mask="url(#mask-4)"></path>
                <path d="M71.6601,90.8429 C71.6441,90.8429 71.6271,90.8419 71.6111,90.8409 L66.6071,90.5159 C66.1941,90.4889 65.8801,90.1329 65.9071,89.7189 C65.9341,89.3059 66.2901,88.9879 66.7041,89.0199 L71.7081,89.3449 C72.1211,89.3709 72.4351,89.7279 72.4081,90.1419 C72.3821,90.5379 72.0521,90.8429 71.6601,90.8429" id="Fill-224" fill="#354546" mask="url(#mask-4)"></path>
                <path d="M81.6777,91.047 L81.6507,91.047 L77.6347,90.906 C77.2207,90.892 76.8967,90.544 76.9117,90.13 L77.1867,82.267 C77.2007,81.853 77.5457,81.529 77.9617,81.543 L81.9777,81.684 C82.3917,81.698 82.7157,82.045 82.7017,82.459 C82.6867,82.873 82.3437,83.198 81.9257,83.183 L78.6587,83.068 L78.4367,89.433 L81.7037,89.547 C82.1167,89.562 82.4417,89.909 82.4267,90.323 C82.4127,90.729 82.0797,91.047 81.6777,91.047" id="Fill-225" fill="#354546" mask="url(#mask-4)"></path>
                <path d="M75.8046,81.7638 C75.7956,81.7638 75.7856,81.7628 75.7766,81.7628 L73.5616,81.6818 C73.1476,81.6658 72.8246,81.3188 72.8406,80.9048 C72.8556,80.4908 73.2046,80.1718 73.6166,80.1818 L75.8316,80.2638 C76.2456,80.2798 76.5686,80.6268 76.5536,81.0408 C76.5386,81.4458 76.2056,81.7638 75.8046,81.7638" id="Fill-226" fill="#354546" mask="url(#mask-4)"></path>
            </g>
        </g>
    </g>
</svg>