<?xml version="1.0" encoding="UTF-8"?>
<svg width="98px" height="122px" viewBox="0 0 98 122" version="1.1" xmlns="http://www.w3.org/2000/svg" xmlns:xlink="http://www.w3.org/1999/xlink">
    <!-- Generator: Sketch 42 (36781) - http://www.bohemiancoding.com/sketch -->
    <title>15</title>
    <desc>Created with Sketch.</desc>
    <defs>
        <polygon id="path-1" points="63.7468 8 0.4798 8 0.4798 0.3776 63.7468 0.3776 63.7468 8"></polygon>
        <polygon id="path-3" points="0 122.041 97.239 122.041 97.239 0 0 0"></polygon>
    </defs>
    <g id="Page-1" stroke="none" stroke-width="1" fill="none" fill-rule="evenodd">
        <g id="1024" transform="translate(-562.000000, -123.000000)">
            <g id="15" transform="translate(562.000000, 123.000000)">
                <g id="Group-3" transform="translate(27.000000, 114.041000)">
                    <mask id="mask-2" fill="white">
                        <use xlink:href="#path-1"></use>
                    </mask>
                    <g id="Clip-2"></g>
                    <path d="M63.7468,4.1886 C63.7468,6.2936 49.5838,8.0006 32.1138,8.0006 C14.6428,8.0006 0.4798,6.2936 0.4798,4.1886 C0.4798,2.0846 14.6428,0.3776 32.1138,0.3776 C49.5838,0.3776 63.7468,2.0846 63.7468,4.1886" id="Fill-1" fill="#CCCCCC" mask="url(#mask-2)"></path>
                </g>
                <mask id="mask-4" fill="white">
                    <use xlink:href="#path-3"></use>
                </mask>
                <g id="Clip-5"></g>
                <polygon id="Fill-4" fill="#758586" mask="url(#mask-4)" points="50.731 87.555 66.85 87.555 66.85 75.949 50.731 75.949"></polygon>
                <path d="M51.481,86.805 L66.1,86.805 L66.1,76.699 L51.481,76.699 L51.481,86.805 Z M66.85,88.305 L50.731,88.305 C50.317,88.305 49.981,87.969 49.981,87.555 L49.981,75.948 C49.981,75.534 50.317,75.198 50.731,75.198 L66.85,75.198 C67.264,75.198 67.6,75.534 67.6,75.948 L67.6,87.555 C67.6,87.969 67.264,88.305 66.85,88.305 L66.85,88.305 Z" id="Fill-6" fill="#354546" mask="url(#mask-4)"></path>
                <polygon id="Fill-7" fill="#758586" mask="url(#mask-4)" points="54.392 61.398 63.734 61.398 63.734 52.895 54.392 52.895"></polygon>
                <path d="M55.141,60.649 L62.983,60.649 L62.983,53.645 L55.141,53.645 L55.141,60.649 Z M63.734,62.149 L54.391,62.149 C53.977,62.149 53.641,61.813 53.641,61.399 L53.641,52.895 C53.641,52.481 53.977,52.145 54.391,52.145 L63.734,52.145 C64.148,52.145 64.484,52.481 64.484,52.895 L64.484,61.399 C64.484,61.813 64.148,62.149 63.734,62.149 L63.734,62.149 Z" id="Fill-8" fill="#354546" mask="url(#mask-4)"></path>
                <path d="M63.7341,58.3985 C63.7201,58.3985 63.7071,58.3975 63.6931,58.3975 L54.3511,57.8955 C53.9371,57.8735 53.6201,57.5195 53.6421,57.1065 C53.6641,56.6925 54.0181,56.3745 54.4311,56.3975 L63.7741,56.8995 C64.1871,56.9205 64.5051,57.2745 64.4831,57.6885 C64.4611,58.0875 64.1301,58.3985 63.7341,58.3985" id="Fill-9" fill="#354546" mask="url(#mask-4)"></path>
                <path d="M76.9401,66.5802 C75.4561,67.0462 73.9581,67.5362 72.3341,67.9552 L71.1721,63.3822 C72.5651,63.0242 74.0311,62.5492 75.5191,62.0812 L76.9401,66.5802 Z" id="Fill-10" fill="#F9BF3B" mask="url(#mask-4)"></path>
                <path d="M71.3586,64.1085 L70.9856,62.6555 C72.1806,62.3485 73.4156,61.9595 74.7216,61.5455 L75.2936,61.3655 L75.7436,62.7965 L75.1736,62.9765 C73.8466,63.3955 72.5926,63.7915 71.3586,64.1085" id="Fill-11" fill="#F1892D" mask="url(#mask-4)"></path>
                <path d="M72.5217,68.6817 L72.1467,67.2287 C73.4987,66.8807 74.7787,66.4757 76.0177,66.0847 L76.7157,65.8647 L77.1647,67.2957 L76.4697,67.5147 C75.2117,67.9117 73.9117,68.3237 72.5217,68.6817" id="Fill-12" fill="#F1892D" mask="url(#mask-4)"></path>
                <polygon id="Fill-13" fill="#F1892D" mask="url(#mask-4)" points="73.9719 67.504 72.5939 62.991 74.0279 62.554 75.4069 67.066"></polygon>
                <path d="M81.3083,65.2833 C79.8713,65.6613 78.4193,66.1123 76.9403,66.5803 L75.5183,62.0813 C77.0093,61.6103 78.5333,61.1353 80.1083,60.7203 L81.3083,65.2833 Z" id="Fill-14" fill="#F9BF3B" mask="url(#mask-4)"></path>
                <path d="M75.7448,62.796 L75.2928,61.365 C76.8328,60.879 78.3458,60.408 79.9168,59.994 L80.2988,61.444 C78.7598,61.851 77.2668,62.316 75.7448,62.796" id="Fill-15" fill="#F1892D" mask="url(#mask-4)"></path>
                <path d="M77.1662,67.295 L76.7132,65.865 C78.1342,65.416 79.6442,64.945 81.1172,64.558 L81.4992,66.008 C80.0582,66.388 78.5682,66.852 77.1662,67.295" id="Fill-16" fill="#F1892D" mask="url(#mask-4)"></path>
                <polygon id="Fill-17" fill="#F1892D" mask="url(#mask-4)" points="78.4216 66.1143 77.0636 61.5943 78.4996 61.1633 79.8586 65.6823"></polygon>
                <path d="M85.529,64.4601 C84.168,64.6001 82.743,64.9051 81.308,65.2831 L80.108,60.7201 C81.684,60.3071 83.314,59.9451 85.053,59.7661 L85.529,64.4601 Z" id="Fill-18" fill="#F9BF3B" mask="url(#mask-4)"></path>
                <path d="M80.298,61.4454 L79.918,59.9944 C81.244,59.6464 83.017,59.2214 84.975,59.0194 L85.13,60.5114 C83.273,60.7034 81.572,61.1114 80.298,61.4454" id="Fill-19" fill="#F1892D" mask="url(#mask-4)"></path>
                <path d="M81.4992,66.0079 L81.1172,64.5579 C82.8132,64.1119 84.1912,63.8429 85.4522,63.7139 L85.6052,65.2059 C84.4232,65.3269 83.1182,65.5819 81.4992,66.0079" id="Fill-20" fill="#F1892D" mask="url(#mask-4)"></path>
                <polygon id="Fill-21" fill="#F1892D" mask="url(#mask-4)" points="82.7106 64.9298 81.7836 60.3028 83.2546 60.0078 84.1816 64.6348"></polygon>
                <path d="M89.1618,64.6993 C88.1878,64.3653 86.8828,64.3193 85.5288,64.4603 L85.0528,59.7653 C85.9218,59.6773 86.8228,59.6373 87.7598,59.6903 C88.6968,59.7483 89.6758,59.8913 90.6678,60.2273 L89.1618,64.6993 Z" id="Fill-22" fill="#F9BF3B" mask="url(#mask-4)"></path>
                <path d="M90.4274,60.9376 C89.6114,60.6616 88.7484,60.5026 87.7134,60.4386 C86.9014,60.3936 86.0544,60.4166 85.1284,60.5116 L84.9764,59.0196 C85.9814,58.9166 86.9054,58.8916 87.8014,58.9416 C88.9614,59.0126 89.9764,59.2016 90.9084,59.5176 L90.4274,60.9376 Z" id="Fill-23" fill="#F1892D" mask="url(#mask-4)"></path>
                <path d="M88.9182,65.4083 C88.1182,65.1343 86.9732,65.0633 85.6062,65.2063 L85.4512,63.7143 C86.5542,63.5993 88.1352,63.5543 89.4052,63.9893 L88.9182,65.4083 Z" id="Fill-24" fill="#F1892D" mask="url(#mask-4)"></path>
                <polygon id="Fill-25" fill="#F1892D" mask="url(#mask-4)" points="88.236 64.4444 86.738 64.3574 87.011 59.6464 88.508 59.7334"></polygon>
                <path d="M91.2209,66.5079 C90.7459,65.5709 90.1379,65.0349 89.1619,64.6989 L90.6679,60.2279 C91.6559,60.5589 92.6539,61.0909 93.4919,61.8319 C94.3289,62.5699 94.9929,63.4799 95.4459,64.4069 L91.2209,66.5079 Z" id="Fill-26" fill="#F9BF3B" mask="url(#mask-4)"></path>
                <path d="M94.7717,64.7364 C94.3377,63.8444 93.7237,63.0354 92.9957,62.3944 C92.2857,61.7664 91.3987,61.2634 90.4297,60.9384 L90.9067,59.5164 C92.0647,59.9044 93.1297,60.5104 93.9887,61.2704 C94.8617,62.0404 95.5997,63.0104 96.1207,64.0784 L94.7717,64.7364 Z" id="Fill-27" fill="#F1892D" mask="url(#mask-4)"></path>
                <path d="M90.5519,66.8468 C90.1649,66.0828 89.7069,65.6798 88.9179,65.4088 L89.4059,63.9908 C90.5619,64.3878 91.3279,65.0598 91.8899,66.1688 L90.5519,66.8468 Z" id="Fill-28" fill="#F1892D" mask="url(#mask-4)"></path>
                <polygon id="Fill-29" fill="#F1892D" mask="url(#mask-4)" points="90.9426 65.8731 89.8156 64.8831 92.9276 61.3371 94.0556 62.3271"></polygon>
                <path d="M91.7165,69.6993 C91.7895,69.1223 91.7915,68.5643 91.7065,68.0353 C91.6915,67.9013 91.6555,67.7733 91.6325,67.6423 C91.5955,67.5143 91.5695,67.3843 91.5235,67.2593 C91.4865,67.1333 91.4355,67.0033 91.3855,66.8733 C91.3615,66.8073 91.3315,66.7493 91.3055,66.6873 C91.2795,66.6243 91.2515,66.5643 91.2205,66.5083 L95.4455,64.4073 C95.5065,64.5233 95.5605,64.6393 95.6105,64.7563 C95.6615,64.8733 95.7165,64.9903 95.7605,65.1063 C95.8525,65.3403 95.9415,65.5733 96.0175,65.8203 C96.1015,66.0623 96.1595,66.3123 96.2255,66.5603 C96.2775,66.8113 96.3365,67.0613 96.3695,67.3143 C96.5295,68.3243 96.5195,69.3413 96.3955,70.3063 L91.7165,69.6993 Z" id="Fill-30" fill="#F9BF3B" mask="url(#mask-4)"></path>
                <path d="M97.1398,70.4024 L95.6518,70.2114 C95.7758,69.2454 95.7678,68.3104 95.6288,67.4314 L95.6258,67.4124 C95.6038,67.2464 95.5668,67.0714 95.5278,66.8864 L95.4568,66.5844 C95.4088,66.3994 95.3638,66.2254 95.3088,66.0654 L95.3008,66.0404 C95.2318,65.8164 95.1488,65.6004 95.0628,65.3804 C95.0348,65.3064 95.0038,65.2384 94.9728,65.1704 L94.9218,65.0534 C94.8758,64.9454 94.8298,64.8474 94.7808,64.7534 L96.1118,64.0614 C96.1778,64.1884 96.2398,64.3194 96.2998,64.4614 L96.3438,64.5604 C96.3858,64.6534 96.4268,64.7474 96.4618,64.8404 C96.5518,65.0684 96.6478,65.3194 96.7308,65.5884 C96.8038,65.8004 96.8568,66.0074 96.9088,66.2084 L96.9598,66.4094 L96.9948,66.5744 C97.0378,66.7764 97.0818,66.9854 97.1118,67.2064 C97.2718,68.2234 97.2808,69.2984 97.1398,70.4024" id="Fill-31" fill="#F1892D" mask="url(#mask-4)"></path>
                <path d="M92.4606,69.7931 L90.9726,69.6061 C91.0386,69.0811 91.0366,68.5931 90.9656,68.1541 L90.9606,68.1191 C90.9556,68.0711 90.9426,68.0121 90.9286,67.9431 C90.9186,67.9001 90.9096,67.8571 90.9016,67.8141 C90.8906,67.7721 90.8786,67.7301 90.8686,67.6891 C90.8516,67.6241 90.8356,67.5621 90.8196,67.5181 L90.8036,67.4691 C90.7796,67.3891 90.7436,67.2931 90.7046,67.1921 L90.6846,67.1411 C90.6736,67.1091 90.6636,67.0911 90.6546,67.0711 C90.6406,67.0401 90.6266,67.0081 90.6126,66.9761 C90.5946,66.9321 90.5786,66.8961 90.5626,66.8671 L91.8796,66.1491 C91.9216,66.2271 91.9606,66.3101 91.9986,66.4011 C92.0046,66.4151 92.0116,66.4321 92.0196,66.4471 C92.0436,66.5021 92.0686,66.5571 92.0896,66.6151 L92.1056,66.6541 C92.1496,66.7721 92.1966,66.8951 92.2366,67.0241 C92.2736,67.1301 92.2986,67.2291 92.3216,67.3151 C92.3316,67.3541 92.3406,67.3931 92.3526,67.4321 L92.3706,67.5101 C92.3776,67.5491 92.3866,67.5891 92.3956,67.6281 C92.4146,67.7181 92.4356,67.8191 92.4496,67.9341 C92.5406,68.5081 92.5436,69.1341 92.4606,69.7931" id="Fill-32" fill="#F1892D" mask="url(#mask-4)"></path>
                <polygon id="Fill-33" fill="#F1892D" mask="url(#mask-4)" points="91.8215 68.7765 91.5925 67.2945 96.2555 66.5735 96.4845 68.0555"></polygon>
                <path d="M90.4641,73.2765 C91.1051,72.0855 91.5701,70.8565 91.7161,69.6995 L96.3961,70.3065 C96.3341,70.7915 96.2381,71.2605 96.1281,71.7215 C96.0091,72.1775 95.8761,72.6275 95.7201,73.0585 C95.4111,73.9245 95.0341,74.7415 94.6181,75.5145 L90.4641,73.2765 Z" id="Fill-34" fill="#F9BF3B" mask="url(#mask-4)"></path>
                <path d="M95.278,75.8702 L93.957,75.1592 C94.39,74.3552 94.736,73.5862 95.014,72.8072 C95.152,72.4242 95.278,72.0092 95.402,71.5332 C95.52,71.0382 95.601,70.6142 95.652,70.2122 L97.14,70.4012 C97.082,70.8572 96.992,71.3332 96.857,71.8962 C96.719,72.4302 96.579,72.8892 96.426,73.3132 C96.123,74.1632 95.747,75.0002 95.278,75.8702" id="Fill-35" fill="#F1892D" mask="url(#mask-4)"></path>
                <path d="M91.1247,73.6319 L89.8037,72.9219 C90.4547,71.7099 90.8477,70.5949 90.9727,69.6059 L92.4607,69.7929 C92.3127,70.9659 91.8637,72.2569 91.1247,73.6319" id="Fill-36" fill="#F1892D" mask="url(#mask-4)"></path>
                <polygon id="Fill-37" fill="#F1892D" mask="url(#mask-4)" points="95.4684 73.7657 91.0234 72.1817 91.5274 70.7687 95.9714 72.3527"></polygon>
                <path d="M88.0837,76.7481 C88.9987,75.6351 89.8187,74.4721 90.4637,73.2761 L94.6177,75.5151 C93.7807,77.0621 92.7907,78.4501 91.7297,79.7441 L88.0837,76.7481 Z" id="Fill-38" fill="#F9BF3B" mask="url(#mask-4)"></path>
                <path d="M92.3088,80.2198 L91.1488,79.2688 C92.3068,77.8578 93.2258,76.5128 93.9578,75.1578 L95.2778,75.8708 C94.4988,77.3118 93.5278,78.7338 92.3088,80.2198" id="Fill-39" fill="#F1892D" mask="url(#mask-4)"></path>
                <path d="M88.6633,77.2237 L87.5043,76.2717 C88.4533,75.1177 89.2263,73.9907 89.8043,72.9197 L91.1233,73.6327 C90.5003,74.7867 89.6733,75.9947 88.6633,77.2237" id="Fill-40" fill="#F1892D" mask="url(#mask-4)"></path>
                <polygon id="Fill-41" fill="#F1892D" mask="url(#mask-4)" points="92.8307 78.3419 88.9487 75.6599 89.8007 74.4259 93.6837 77.1079"></polygon>
                <path d="M85.0886,79.9435 C86.1566,78.9275 87.1676,77.8615 88.0836,76.7485 L91.7296,79.7445 C90.6656,81.0365 89.5276,82.2335 88.3386,83.3645 L85.0886,79.9435 Z" id="Fill-42" fill="#F9BF3B" mask="url(#mask-4)"></path>
                <path d="M88.8557,83.9073 L87.8227,82.8203 C89.0687,81.6353 90.1577,80.4723 91.1497,79.2673 L92.3077,80.2203 C91.2767,81.4733 90.1477,82.6793 88.8557,83.9073" id="Fill-43" fill="#F1892D" mask="url(#mask-4)"></path>
                <path d="M85.6052,80.4874 L84.5722,79.4004 C85.6622,78.3644 86.6482,77.3114 87.5042,76.2714 L88.6632,77.2244 C87.7682,78.3114 86.7392,79.4094 85.6052,80.4874" id="Fill-44" fill="#F1892D" mask="url(#mask-4)"></path>
                <polygon id="Fill-45" fill="#F1892D" mask="url(#mask-4)" points="89.5671 82.1612 86.1291 78.9292 87.1571 77.8362 90.5951 81.0682"></polygon>
                <path d="M81.7668,82.7833 L81.9588,82.6373 L82.1708,82.4723 L82.5978,82.1333 C82.8818,81.9023 83.1648,81.6673 83.4448,81.4273 C84.0048,80.9463 84.5538,80.4513 85.0888,79.9433 L88.3388,83.3643 C87.7448,83.9293 87.1368,84.4773 86.5148,85.0113 C86.2028,85.2773 85.8878,85.5403 85.5668,85.8003 L85.0798,86.1873 L84.8298,86.3823 L84.5568,86.5883 L81.7668,82.7833 Z" id="Fill-46" fill="#F9BF3B" mask="url(#mask-4)"></path>
                <path d="M85.008,87.1866 L84.105,85.9896 L84.62,85.5956 L85.099,85.2126 C85.404,84.9656 85.718,84.7056 86.027,84.4406 C86.632,83.9216 87.237,83.3766 87.823,82.8206 L88.856,83.9076 C88.251,84.4826 87.627,85.0446 87.002,85.5806 C86.683,85.8526 86.36,86.1236 86.039,86.3826 L85.29,86.9746 L85.008,87.1866 Z" id="Fill-47" fill="#F1892D" mask="url(#mask-4)"></path>
                <path d="M82.2189,83.381 L81.3139,82.185 L81.7109,81.881 L82.1299,81.547 C82.4009,81.327 82.6799,81.094 82.9569,80.858 C83.4989,80.393 84.0429,79.902 84.5729,79.4 L85.6049,80.487 C85.0569,81.008 84.4939,81.516 83.9329,81.996 C83.6459,82.242 83.3559,82.484 83.0699,82.716 L82.2189,83.381 Z" id="Fill-48" fill="#F1892D" mask="url(#mask-4)"></path>
                <polygon id="Fill-49" fill="#F1892D" mask="url(#mask-4)" points="85.9445 85.4981 82.8755 81.9151 84.0145 80.9381 87.0835 84.5221"></polygon>
                <path d="M75.8615,81.3536 L78.8805,79.3546 L78.6855,79.0596 C77.7745,77.6846 78.1545,75.8136 79.5295,74.9026 L81.4135,73.6546 C82.7895,72.7436 84.6605,73.1236 85.5715,74.4996 L87.4235,77.2936 L88.0255,78.2036 L91.0255,82.7326 C91.9365,84.1076 91.5565,85.9786 90.1805,86.8896 L82.7775,91.7936 C81.4015,92.7056 79.5305,92.3256 78.6195,90.9496 L75.0175,85.5116 C74.1065,84.1356 74.4865,82.2646 75.8615,81.3536" id="Fill-50" fill="#A5B5B6" mask="url(#mask-4)"></path>
                <path d="M75.0173,85.5118 C74.1063,84.1358 74.4863,82.2648 75.8613,81.3538 L77.5393,80.2418 L84.4143,90.7088 L82.7773,91.7938 C81.4013,92.7048 79.5303,92.3248 78.6193,90.9498 L75.0173,85.5118 Z" id="Fill-51" fill="#859596" mask="url(#mask-4)"></path>
                <path d="M75.8615,81.3536 L75.8625,81.3536 L75.8615,81.3536 Z M83.0675,73.9066 C82.6405,73.9066 82.2095,74.0276 81.8285,74.2796 L79.9445,75.5276 C79.4455,75.8576 79.1055,76.3656 78.9855,76.9566 C78.8655,77.5476 78.9805,78.1476 79.3105,78.6456 L79.5055,78.9406 C79.7345,79.2856 79.6395,79.7506 79.2945,79.9796 L76.2765,81.9786 C75.7775,82.3096 75.4375,82.8166 75.3175,83.4076 C75.1965,83.9996 75.3125,84.5986 75.6425,85.0976 L79.2445,90.5356 C79.9295,91.5696 81.3285,91.8536 82.3625,91.1686 L89.7665,86.2646 C90.8005,85.5796 91.0855,84.1806 90.4005,83.1466 L84.9465,74.9136 C84.5135,74.2596 83.7975,73.9066 83.0675,73.9066 L83.0675,73.9066 Z M81.1265,93.0416 C79.9095,93.0416 78.7155,92.4526 77.9945,91.3636 L74.3915,85.9256 C73.8405,85.0936 73.6475,84.0926 73.8465,83.1096 C74.0465,82.1246 74.6155,81.2796 75.4475,80.7286 L77.8585,79.1316 C77.4645,78.3746 77.3415,77.5096 77.5155,76.6576 C77.7155,75.6736 78.2835,74.8286 79.1155,74.2776 L80.9995,73.0296 C82.7235,71.8866 85.0555,72.3606 86.1965,74.0836 L91.6505,82.3186 C92.7925,84.0416 92.3195,86.3736 90.5945,87.5146 L83.1915,92.4186 C82.5555,92.8396 81.8375,93.0416 81.1265,93.0416 L81.1265,93.0416 Z" id="Fill-52" fill="#354546" mask="url(#mask-4)"></path>
                <path d="M84.4553,91.4327 C84.2123,91.4327 83.9743,91.3147 83.8293,91.0967 L76.9133,80.6567 C76.6853,80.3117 76.7793,79.8457 77.1253,79.6177 C77.4703,79.3887 77.9353,79.4837 78.1643,79.8277 L85.0803,90.2687 C85.3093,90.6147 85.2143,91.0787 84.8693,91.3077 C84.7413,91.3927 84.5973,91.4327 84.4553,91.4327" id="Fill-53" fill="#354546" mask="url(#mask-4)"></path>
                <path d="M75.985,87.7218 C75.751,87.7218 75.52,87.6128 75.373,87.4068 C75.133,87.0688 75.212,86.6008 75.55,86.3608 L79.636,83.4538 C79.974,83.2138 80.442,83.2928 80.682,83.6298 C80.922,83.9678 80.843,84.4358 80.506,84.6758 L76.419,87.5828 C76.287,87.6768 76.135,87.7218 75.985,87.7218" id="Fill-54" fill="#354546" mask="url(#mask-4)"></path>
                <path d="M78.3713,91.3243 C78.1213,91.3243 77.8753,91.1983 77.7333,90.9703 C77.5153,90.6173 77.6233,90.1553 77.9753,89.9363 L82.2373,87.2943 C82.5893,87.0763 83.0513,87.1843 83.2693,87.5363 C83.4883,87.8883 83.3793,88.3503 83.0273,88.5693 L78.7663,91.2123 C78.6433,91.2883 78.5063,91.3243 78.3713,91.3243" id="Fill-55" fill="#354546" mask="url(#mask-4)"></path>
                <path d="M87.4265,85.3263 C87.3765,85.3263 87.3265,85.3213 87.2775,85.3113 C87.0825,85.2713 86.9115,85.1563 86.8015,84.9903 L82.4555,78.4303 C82.2275,78.0853 82.3215,77.6193 82.6675,77.3903 L86.0175,75.1723 C86.3625,74.9423 86.8275,75.0373 87.0565,75.3833 C87.2855,75.7273 87.1915,76.1933 86.8455,76.4223 L84.1205,78.2263 L87.6375,83.5363 L90.3625,81.7313 C90.7085,81.5033 91.1735,81.5973 91.4025,81.9423 C91.6305,82.2883 91.5365,82.7533 91.1915,82.9823 L87.8405,85.2013 C87.7175,85.2833 87.5725,85.3263 87.4265,85.3263" id="Fill-56" fill="#354546" mask="url(#mask-4)"></path>
                <path d="M78.881,80.1046 C78.638,80.1046 78.4,79.9866 78.255,79.7686 C78.027,79.4226 78.121,78.9586 78.466,78.7286 L80.189,77.5876 C80.534,77.3596 81,77.4536 81.228,77.7986 C81.457,78.1446 81.362,78.6096 81.017,78.8386 L79.295,79.9796 C79.167,80.0636 79.024,80.1046 78.881,80.1046" id="Fill-57" fill="#354546" mask="url(#mask-4)"></path>
                <path d="M20.9968,64.0421 C20.9378,63.1901 20.9038,62.3401 20.8978,61.4871 C20.8938,61.0611 20.8988,60.6341 20.9088,60.2051 C20.9138,59.9901 20.9208,59.7741 20.9308,59.5571 L20.9468,59.2281 L20.9708,58.8671 L25.6738,59.2521 L25.6578,59.4931 L25.6448,59.7661 L25.6258,60.3221 C25.6168,60.6971 25.6128,61.0731 25.6168,61.4511 C25.6208,62.2051 25.6518,62.9621 25.7048,63.7131 L20.9968,64.0421 Z" id="Fill-58" fill="#F9BF3B" mask="url(#mask-4)"></path>
                <path d="M24.9557,63.7647 C24.9007,62.9717 24.8707,62.1957 24.8667,61.4547 C24.8627,61.1127 24.8657,60.7357 24.8757,60.3057 L24.9247,59.2037 L26.4217,59.2997 L26.3937,59.8027 L26.3747,60.3477 C26.3657,60.7527 26.3627,61.1137 26.3667,61.4437 C26.3707,62.1547 26.3997,62.8997 26.4527,63.6607 L24.9557,63.7647 Z" id="Fill-59" fill="#F1892D" mask="url(#mask-4)"></path>
                <path d="M20.2487,64.0938 C20.1867,63.2028 20.1527,62.3278 20.1477,61.4908 C20.1447,61.0968 20.1477,60.6688 20.1587,60.1878 C20.1647,59.9668 20.1717,59.7458 20.1817,59.5238 L20.2227,58.8188 L21.7187,58.9158 L21.6797,59.5938 C21.6707,59.8028 21.6637,60.0128 21.6587,60.2228 C21.6477,60.6878 21.6447,61.0988 21.6477,61.4798 C21.6527,62.2868 21.6857,63.1308 21.7457,63.9898 L20.2487,64.0938 Z" id="Fill-60" fill="#F1892D" mask="url(#mask-4)"></path>
                <polygon id="Fill-61" fill="#F1892D" mask="url(#mask-4)" points="20.9035 62.2374 20.8925 60.7374 25.6105 60.7014 25.6225 62.2014"></polygon>
                <path d="M21.7194,69.1602 C21.3384,67.4522 21.1184,65.7442 20.9964,64.0422 L25.7044,63.7132 C25.8114,65.2162 26.0054,66.7052 26.3254,68.1352 L21.7194,69.1602 Z" id="Fill-62" fill="#F9BF3B" mask="url(#mask-4)"></path>
                <path d="M25.5934,68.2989 C25.2874,66.9309 25.0724,65.4059 24.9554,63.7669 L26.4524,63.6599 C26.5634,65.2259 26.7674,66.6759 27.0574,67.9709 L25.5934,68.2989 Z" id="Fill-63" fill="#F1892D" mask="url(#mask-4)"></path>
                <path d="M20.9875,69.3233 C20.6265,67.7053 20.3845,65.9953 20.2485,64.0943 L21.7445,63.9883 C21.8755,65.8133 22.1065,67.4513 22.4515,68.9963 L20.9875,69.3233 Z" id="Fill-64" fill="#F1892D" mask="url(#mask-4)"></path>
                <polygon id="Fill-65" fill="#F1892D" mask="url(#mask-4)" points="21.364 67.3419 21.158 65.8559 25.832 65.2079 26.038 66.6939"></polygon>
                <path d="M23.445,74.2393 C23.036,73.4093 22.702,72.5643 22.422,71.7163 C22.141,70.8663 21.91,70.0133 21.719,69.1603 L26.325,68.1353 C26.486,68.8493 26.675,69.5503 26.899,70.2263 C27.122,70.9033 27.382,71.5553 27.684,72.1673 L23.445,74.2393 Z" id="Fill-66" fill="#F9BF3B" mask="url(#mask-4)"></path>
                <path d="M27.0119,72.5001 C26.7059,71.8811 26.4289,71.1941 26.1869,70.4601 C25.9629,69.7831 25.7629,69.0561 25.5939,68.2991 L27.0569,67.9711 C27.2159,68.6791 27.4019,69.3581 27.6119,69.9901 C27.8309,70.6591 28.0819,71.2791 28.3569,71.8351 L27.0119,72.5001 Z" id="Fill-67" fill="#F1892D" mask="url(#mask-4)"></path>
                <path d="M22.7722,74.5714 C22.3692,73.7524 22.0212,72.8944 21.7102,71.9504 C21.4352,71.1204 21.1912,70.2364 20.9872,69.3234 L22.4512,68.9964 C22.6452,69.8604 22.8742,70.6964 23.1342,71.4794 C23.4232,72.3584 23.7452,73.1524 24.1182,73.9084 L22.7722,74.5714 Z" id="Fill-68" fill="#F1892D" mask="url(#mask-4)"></path>
                <polygon id="Fill-69" fill="#F1892D" mask="url(#mask-4)" points="22.6589 72.4268 22.1849 71.0038 26.6629 69.5148 27.1359 70.9378"></polygon>
                <path d="M26.5593,78.7413 C25.9353,78.0513 25.3873,77.3523 24.8843,76.6483 L24.7873,76.5163 L24.6873,76.3713 L24.4883,76.0733 C24.3513,75.8763 24.2303,75.6743 24.1113,75.4703 L23.9303,75.1673 C23.8713,75.0653 23.8193,74.9623 23.7643,74.8593 C23.6563,74.6533 23.5403,74.4483 23.4453,74.2393 L27.6843,72.1673 C27.7543,72.3253 27.8393,72.4693 27.9173,72.6193 C27.9573,72.6933 27.9953,72.7693 28.0363,72.8423 L28.1643,73.0553 C28.2483,73.1993 28.3323,73.3423 28.4263,73.4743 L28.5623,73.6783 C28.5863,73.7123 28.6053,73.7443 28.6323,73.7813 L28.7143,73.8923 C29.1443,74.4973 29.5943,75.0603 30.0473,75.5633 L26.5593,78.7413 Z" id="Fill-70" fill="#F9BF3B" mask="url(#mask-4)"></path>
                <path d="M29.4899,76.0655 C29.0199,75.5445 28.5529,74.9595 28.1029,74.3285 L28.0279,74.2245 C27.9999,74.1875 27.9799,74.1565 27.9599,74.1265 L27.8079,73.8995 C27.6959,73.7395 27.6009,73.5785 27.5169,73.4345 L27.3929,73.2275 C27.3559,73.1635 27.3259,73.1065 27.2969,73.0505 L27.2579,72.9765 C27.2269,72.9195 27.2029,72.8745 27.1789,72.8305 C27.1219,72.7245 27.0579,72.6045 26.9989,72.4715 L28.3699,71.8635 C28.4049,71.9425 28.4509,72.0275 28.4989,72.1175 C28.5279,72.1695 28.5559,72.2215 28.5829,72.2755 C28.5929,72.2935 28.6089,72.3235 28.6259,72.3545 C28.6449,72.3925 28.6649,72.4305 28.6859,72.4665 L28.8079,72.6695 C28.8849,72.8015 28.9609,72.9305 29.0379,73.0405 L29.2149,73.3045 C29.2219,73.3165 29.2299,73.3285 29.2399,73.3405 L29.3189,73.4495 C29.7409,74.0425 30.1719,74.5825 30.6039,75.0605 L29.4899,76.0655 Z" id="Fill-71" fill="#F1892D" mask="url(#mask-4)"></path>
                <path d="M26.0026,79.2442 C25.4036,78.5812 24.8376,77.8742 24.2736,77.0852 L24.0676,76.7932 L23.8656,76.4912 C23.7186,76.2782 23.5866,76.0582 23.4646,75.8512 L23.2856,75.5502 C23.2366,75.4652 23.1966,75.3902 23.1566,75.3132 L23.1046,75.2162 C23.0706,75.1512 23.0406,75.0962 23.0106,75.0412 C22.9276,74.8852 22.8406,74.7232 22.7626,74.5512 L24.1276,73.9292 C24.1866,74.0572 24.2576,74.1912 24.3336,74.3332 C24.3656,74.3922 24.3976,74.4512 24.4286,74.5122 L24.4816,74.6112 C24.5136,74.6722 24.5456,74.7332 24.5806,74.7942 L24.7556,75.0882 C24.8646,75.2732 24.9806,75.4672 25.1046,75.6462 L25.4896,76.2062 C26.0246,76.9552 26.5556,77.6182 27.1156,78.2392 L26.0026,79.2442 Z" id="Fill-72" fill="#F1892D" mask="url(#mask-4)"></path>
                <polygon id="Fill-73" fill="#F1892D" mask="url(#mask-4)" points="25.322 77.2569 24.446 76.0399 28.276 73.2839 29.152 74.5009"></polygon>
                <path d="M33.049,81.3692 C32.394,81.5852 31.69,81.6402 31.008,81.5352 C30.324,81.4332 29.666,81.1802 29.053,80.8382 C28.754,80.6612 28.432,80.4562 28.222,80.2882 C28.107,80.1992 27.986,80.1072 27.876,80.0182 L27.589,79.7672 C27.391,79.5982 27.222,79.4282 27.049,79.2572 C26.871,79.0862 26.718,78.9142 26.559,78.7412 L30.047,75.5632 C30.16,75.6862 30.273,75.8152 30.387,75.9212 C30.5,76.0322 30.612,76.1492 30.722,76.2392 L30.887,76.3872 L31.018,76.4852 C31.121,76.5702 31.14,76.5772 31.184,76.6062 C31.268,76.6552 31.357,76.6972 31.452,76.7172 C31.547,76.7372 31.647,76.7272 31.738,76.6952 L33.049,81.3692 Z" id="Fill-74" fill="#F9BF3B" mask="url(#mask-4)"></path>
                <path d="M31.5534,75.9776 C31.5324,75.9776 31.5114,75.9806 31.4894,75.9886 L31.5114,76.0496 L31.5534,75.9776 Z M31.5554,77.4776 C31.4684,77.4776 31.3804,77.4686 31.2954,77.4506 C31.1364,77.4176 30.9744,77.3536 30.8044,77.2536 L30.7564,77.2226 C30.7044,77.1906 30.6544,77.1566 30.5544,77.0746 L30.3884,76.9466 L30.2344,76.8086 C30.1224,76.7156 30.0204,76.6156 29.9224,76.5166 L29.8664,76.4606 C29.7584,76.3596 29.6594,76.2516 29.5644,76.1476 L29.4954,76.0716 L30.5984,75.0546 L30.6734,75.1366 C30.7544,75.2256 30.8304,75.3096 30.8984,75.3726 L30.9804,75.4546 C31.0614,75.5346 31.1364,75.6096 31.1984,75.6596 L31.2214,75.6796 L31.3634,75.8056 L31.4964,75.9076 C31.5434,75.9466 31.5524,75.9516 31.5644,75.9596 L31.5754,75.9666 C31.5994,75.9806 31.6104,75.9846 31.6104,75.9846 C31.6074,75.9836 31.6024,75.9826 31.5984,75.9816 L31.5994,75.9826 L31.5264,76.0926 L31.9874,77.4036 C31.8464,77.4536 31.7004,77.4776 31.5554,77.4776 L31.5554,77.4776 Z" id="Fill-75" fill="#F1892D" mask="url(#mask-4)"></path>
                <path d="M31.6799,82.336 C31.4179,82.336 31.1559,82.316 30.8949,82.277 C30.1719,82.169 29.4289,81.905 28.6879,81.493 L28.6719,81.484 C28.4039,81.325 28.0289,81.093 27.7609,80.879 L27.7499,80.87 C27.6339,80.782 27.5139,80.69 27.4049,80.603 L27.3819,80.583 L27.0949,80.331 C26.9039,80.169 26.7379,80.005 26.5779,79.846 L26.5219,79.79 C26.3639,79.639 26.2219,79.483 26.0849,79.334 L26.0079,79.249 L27.1109,78.233 L27.1909,78.321 C27.3179,78.46 27.4379,78.59 27.5689,78.716 L27.6339,78.78 C27.7819,78.927 27.9199,79.065 28.0749,79.196 L28.3589,79.444 C28.4539,79.522 28.5569,79.6 28.6579,79.677 L28.6929,79.703 C28.8439,79.824 29.1109,80.001 29.4259,80.188 C30.0049,80.509 30.5749,80.713 31.1179,80.794 C31.6929,80.881 32.2779,80.833 32.8139,80.657 L33.2839,82.081 C32.7709,82.251 32.2269,82.336 31.6799,82.336" id="Fill-76" fill="#F1892D" mask="url(#mask-4)"></path>
                <polygon id="Fill-77" fill="#F1892D" mask="url(#mask-4)" points="29.7228 81.1759 28.3838 80.5009 30.5148 76.2699 31.8538 76.9449"></polygon>
                <path d="M37.528,76.5245 C37.332,76.9115 37.128,77.3015 36.897,77.7005 C36.674,78.0965 36.413,78.5055 36.12,78.9185 L35.888,79.2305 L35.858,79.2705 L35.819,79.3185 L35.739,79.4145 L35.578,79.6035 C35.475,79.7275 35.351,79.8565 35.226,79.9805 C35.102,80.1065 34.976,80.2285 34.84,80.3385 C34.31,80.7955 33.705,81.1585 33.049,81.3695 L31.738,76.6955 C31.83,76.6625 31.911,76.6055 31.981,76.5395 C32,76.5235 32.016,76.5055 32.033,76.4885 C32.049,76.4705 32.065,76.4555 32.09,76.4245 L32.123,76.3845 L32.14,76.3645 L32.148,76.3545 L32.163,76.3345 L32.291,76.1625 C32.634,75.6795 32.983,75.0605 33.315,74.3995 L37.528,76.5245 Z" id="Fill-78" fill="#F9BF3B" mask="url(#mask-4)"></path>
                <path d="M31.9938,77.4005 L31.4828,75.9905 C31.4648,75.9975 31.4548,76.0045 31.4548,76.0045 C31.4598,76.0005 31.4648,75.9955 31.4698,75.9915 L31.5578,75.8905 L31.6878,75.7145 C31.9688,75.3225 32.2928,74.7625 32.6448,74.0625 L33.9858,74.7365 C33.5938,75.5155 33.2388,76.1255 32.9008,76.5975 L32.6658,76.9045 C32.6338,76.9455 32.6068,76.9735 32.5798,77.0025 C32.5498,77.0345 32.5168,77.0665 32.4828,77.0975 C32.3318,77.2365 32.1668,77.3385 31.9938,77.4005" id="Fill-79" fill="#F1892D" mask="url(#mask-4)"></path>
                <path d="M33.2785,82.0831 L32.8195,80.6551 C33.3545,80.4821 33.8695,80.1861 34.3505,79.7711 L34.3665,79.7581 C34.4805,79.6641 34.5905,79.5571 34.6935,79.4531 C34.7905,79.3551 34.9105,79.2331 35.0025,79.1231 L35.2895,78.7781 L35.5135,78.4781 C35.7885,78.0881 36.0345,77.7031 36.2445,77.3321 C36.4885,76.9081 36.7015,76.4971 36.8595,76.1861 L38.1965,76.8631 C38.0305,77.1921 37.8055,77.6271 37.5465,78.0761 C37.3145,78.4871 37.0395,78.9181 36.7325,79.3521 L36.3995,79.7931 L36.1505,80.0891 C36.0235,80.2411 35.8725,80.3951 35.7565,80.5111 C35.6355,80.6331 35.4875,80.7771 35.3225,80.9141 C34.6915,81.4561 34.0035,81.8501 33.2785,82.0831" id="Fill-80" fill="#F1892D" mask="url(#mask-4)"></path>
                <polygon id="Fill-81" fill="#F1892D" mask="url(#mask-4)" points="35.6823 79.5274 31.8523 76.7704 32.7283 75.5534 36.5583 78.3094"></polygon>
                <path d="M39.5949,72.1231 C38.9239,73.5071 38.2999,74.9831 37.5279,76.5241 L33.3149,74.3991 C33.9849,73.0661 34.6159,71.5811 35.3449,70.0711 L39.5949,72.1231 Z" id="Fill-82" fill="#F9BF3B" mask="url(#mask-4)"></path>
                <path d="M33.9855,74.7364 L32.6455,74.0624 C33.0095,73.3374 33.3605,72.5684 33.7335,71.7554 C34.0315,71.1014 34.3405,70.4254 34.6705,69.7454 L36.0205,70.3984 C35.6985,71.0644 35.3925,71.7324 35.0975,72.3794 C34.7195,73.2054 34.3625,73.9854 33.9855,74.7364" id="Fill-83" fill="#F1892D" mask="url(#mask-4)"></path>
                <path d="M38.1989,76.8604 L36.8579,76.1884 C37.2899,75.3244 37.6779,74.4744 38.0539,73.6524 C38.3489,73.0084 38.6259,72.4004 38.9199,71.7964 L40.2699,72.4504 C39.9839,73.0404 39.7089,73.6394 39.4189,74.2754 C39.0369,75.1094 38.6429,75.9724 38.1989,76.8604" id="Fill-84" fill="#F1892D" mask="url(#mask-4)"></path>
                <polygon id="Fill-85" fill="#F1892D" mask="url(#mask-4)" points="38.2863 74.9474 33.9953 72.9824 34.6203 71.6194 38.9113 73.5834"></polygon>
                <path d="M41.7692,68.4425 C41.3682,68.9365 40.9892,69.5195 40.6292,70.1425 C40.2692,70.7655 39.9282,71.4315 39.5952,72.1235 L35.3452,70.0715 C35.7102,69.3155 36.1012,68.5495 36.5442,67.7815 C36.9892,67.0125 37.4822,66.2405 38.0922,65.4845 L41.7692,68.4425 Z" id="Fill-86" fill="#F9BF3B" mask="url(#mask-4)"></path>
                <path d="M36.0207,70.3985 L34.6697,69.7455 C35.1097,68.8355 35.4997,68.0915 35.8947,67.4065 C36.4457,66.4565 36.9577,65.6955 37.5087,65.0135 L38.6757,65.9555 C38.1747,66.5765 37.7037,67.2765 37.1937,68.1575 C36.8167,68.8095 36.4437,69.5215 36.0207,70.3985" id="Fill-87" fill="#F1892D" mask="url(#mask-4)"></path>
                <path d="M40.2702,72.4493 L38.9192,71.7973 C39.3072,70.9943 39.6442,70.3483 39.9802,69.7673 C40.4002,69.0403 40.7952,68.4513 41.1872,67.9693 L42.3512,68.9153 C42.0102,69.3353 41.6592,69.8593 41.2792,70.5173 C40.9622,71.0663 40.6412,71.6803 40.2702,72.4493" id="Fill-88" fill="#F1892D" mask="url(#mask-4)"></path>
                <polygon id="Fill-89" fill="#F1892D" mask="url(#mask-4)" points="40.2541 70.7921 36.1691 68.4311 36.9201 67.1321 41.0051 69.4931"></polygon>
                <path d="M44.2297,66.753 L44.0707,66.776 C44.0197,66.792 43.9687,66.806 43.9177,66.817 C43.8917,66.824 43.8657,66.828 43.8397,66.836 L43.7647,66.864 L43.6117,66.917 C43.5617,66.941 43.5117,66.965 43.4607,66.987 L43.3837,67.021 L43.3087,67.065 L43.1547,67.149 L43.0007,67.253 C42.5867,67.525 42.1697,67.949 41.7697,68.442 L38.0927,65.484 C38.2457,65.296 38.3997,65.107 38.5707,64.923 C38.7337,64.736 38.9157,64.555 39.0987,64.375 C39.2787,64.194 39.4857,64.022 39.6827,63.849 L40.0027,63.599 L40.1647,63.476 L40.3367,63.358 L40.6857,63.128 L41.0567,62.918 L41.2447,62.815 L41.4407,62.723 L41.8387,62.544 C41.9757,62.491 42.1147,62.442 42.2537,62.395 L42.4627,62.322 C42.5337,62.302 42.6047,62.284 42.6767,62.265 L43.1067,62.157 C43.2517,62.129 43.3977,62.107 43.5427,62.085 L44.2297,66.753 Z" id="Fill-90" fill="#F9BF3B" mask="url(#mask-4)"></path>
                <path d="M38.675,65.9571 L37.51,65.0121 C37.679,64.8041 37.834,64.6151 38.014,64.4211 C38.194,64.2161 38.388,64.0211 38.572,63.8401 C38.721,63.6901 38.885,63.5481 39.044,63.4101 L39.221,63.2571 L39.744,62.8541 L40.316,62.4761 L40.925,62.1371 L41.571,61.8431 C41.715,61.7881 41.861,61.7371 42.006,61.6861 L42.248,61.6031 C42.306,61.5871 42.365,61.5711 42.425,61.5561 L42.963,61.4221 C43.088,61.3971 43.214,61.3771 43.34,61.3571 L43.425,61.3441 L43.661,62.8251 L43.572,62.8401 C43.471,62.8551 43.37,62.8711 43.27,62.8901 L42.802,63.0071 C42.765,63.0181 42.727,63.0261 42.69,63.0371 L42.497,63.1031 C42.376,63.1461 42.25,63.1891 42.126,63.2371 L41.585,63.4831 L41.077,63.7691 L40.603,64.0841 L40.161,64.4261 C40.117,64.4651 40.072,64.5041 40.028,64.5421 C39.883,64.6681 39.747,64.7861 39.631,64.9031 C39.458,65.0731 39.284,65.2471 39.136,65.4161 L39.12,65.4341 C38.969,65.5971 38.829,65.7681 38.675,65.9571" id="Fill-91" fill="#F1892D" mask="url(#mask-4)"></path>
                <path d="M42.3508,68.9151 L41.1868,67.9691 C41.6818,67.3601 42.1408,66.9221 42.5888,66.6271 L42.7928,66.4921 L43.0838,66.3331 L43.1618,66.3001 C43.1988,66.2831 43.2378,66.2651 43.2768,66.2451 L43.3698,66.2071 L43.6338,66.1151 C43.6628,66.1061 43.6938,66.0991 43.7248,66.0931 L43.7458,66.0881 C43.7828,66.0781 43.8208,66.0681 43.8578,66.0581 L43.9608,66.0351 L44.1198,66.0111 L44.3398,67.4951 L44.2298,67.5121 C44.1838,67.5241 44.1368,67.5361 44.0888,67.5481 C44.0848,67.5491 44.0738,67.5521 44.0598,67.5551 L43.8988,67.6101 C43.8538,67.6331 43.8088,67.6531 43.7628,67.6741 L43.6698,67.7231 L43.5458,67.7901 L43.4208,67.8741 C43.0998,68.0861 42.7418,68.4351 42.3508,68.9151" id="Fill-92" fill="#F1892D" mask="url(#mask-4)"></path>
                <polygon id="Fill-93" fill="#F1892D" mask="url(#mask-4)" points="42.382 67.6768 39.718 63.7818 40.956 62.9358 43.62 66.8298"></polygon>
                <path d="M47.3723,67.5685 C46.7903,67.2565 46.2103,67.0095 45.6733,66.8685 L45.5723,66.8385 C45.5393,66.8305 45.5073,66.8265 45.4743,66.8195 L45.2793,66.7805 C45.2133,66.7625 45.1523,66.7585 45.0913,66.7535 L44.9063,66.7295 C44.8453,66.7235 44.7893,66.7275 44.7303,66.7245 C44.6723,66.7255 44.6113,66.7145 44.5573,66.7215 C44.4473,66.7355 44.3323,66.7275 44.2293,66.7535 L43.5433,62.0855 C43.8353,62.0315 44.1243,62.0245 44.4153,62.0065 C44.5613,61.9955 44.7013,62.0065 44.8443,62.0075 C44.9863,62.0125 45.1313,62.0135 45.2703,62.0255 L45.6843,62.0715 C45.8223,62.0885 45.9613,62.1025 46.0913,62.1315 L46.4883,62.2115 C46.5533,62.2245 46.6213,62.2375 46.6853,62.2535 L46.8733,62.3045 C47.8913,62.5755 48.7943,62.9765 49.6273,63.4235 L47.3723,67.5685 Z" id="Fill-94" fill="#F9BF3B" mask="url(#mask-4)"></path>
                <path d="M49.2731,64.0841 C48.3501,63.5891 47.5261,63.2541 46.6811,63.0291 L46.4981,62.9801 C46.4661,62.9721 46.4341,62.9651 46.4011,62.9591 L45.9301,62.8641 C45.8461,62.8461 45.7401,62.8331 45.6271,62.8201 L45.1971,62.7721 C45.1151,62.7651 45.0301,62.7641 44.9461,62.7611 L44.8301,62.7581 C44.7811,62.7571 44.7331,62.7561 44.6851,62.7541 C44.6021,62.7521 44.5291,62.7501 44.4681,62.7541 C44.4021,62.7581 44.3401,62.7621 44.2791,62.7651 C44.0651,62.7771 43.8641,62.7881 43.6781,62.8221 L43.4081,61.3471 C43.6861,61.2961 43.9441,61.2811 44.1941,61.2681 L44.3661,61.2571 C44.5001,61.2481 44.6231,61.2521 44.7311,61.2551 C44.7711,61.2561 44.8111,61.2581 44.8501,61.2581 L44.9861,61.2621 C45.0981,61.2651 45.2131,61.2681 45.3351,61.2781 L45.3531,61.2801 L45.8021,61.3301 C45.9371,61.3461 46.0901,61.3641 46.2451,61.3971 L46.7001,61.4881 C46.7551,61.5001 46.8101,61.5111 46.8621,61.5241 L47.0721,61.5811 C48.0271,61.8351 48.9531,62.2111 49.9821,62.7631 L49.2731,64.0841 Z" id="Fill-95" fill="#F1892D" mask="url(#mask-4)"></path>
                <path d="M47.0178,68.2296 C46.4558,67.9276 45.9388,67.7136 45.4818,67.5926 L45.3818,67.5646 C45.3628,67.5616 45.3428,67.5576 45.3228,67.5536 L45.0878,67.5046 C45.0838,67.5076 45.0698,67.5036 45.0548,67.5026 L44.8308,67.4766 C44.8238,67.4756 44.8128,67.4766 44.8028,67.4766 C44.7758,67.4796 44.7438,67.4766 44.7128,67.4746 C44.6798,67.4746 44.6458,67.4726 44.6118,67.4706 C44.5628,67.4756 44.5138,67.4776 44.4648,67.4806 C44.4408,67.4816 44.4168,67.4816 44.3938,67.4846 C44.4008,67.4836 44.4068,67.4826 44.4128,67.4806 L44.0468,66.0266 C44.1838,65.9916 44.3068,65.9856 44.3968,65.9816 C44.4188,65.9806 44.4418,65.9806 44.4648,65.9776 C44.5698,65.9636 44.6578,65.9706 44.7118,65.9736 L44.7308,65.9746 L44.7568,65.9746 L44.7688,65.9756 C44.7808,65.9766 44.7918,65.9766 44.8028,65.9766 C44.8598,65.9836 44.9178,65.9776 44.9778,65.9836 L45.2018,66.0096 C45.2598,66.0156 45.3458,66.0246 45.4448,66.0476 L45.6438,66.0876 C45.6788,66.0936 45.7128,66.1006 45.7488,66.1096 L45.8748,66.1456 C46.4428,66.2966 47.0658,66.5526 47.7258,66.9076 L47.0178,68.2296 Z" id="Fill-96" fill="#F1892D" mask="url(#mask-4)"></path>
                <polygon id="Fill-97" fill="#F1892D" mask="url(#mask-4)" points="46.3986 67.0587 44.9476 66.6767 46.1486 62.1137 47.5986 62.4957"></polygon>
                <path d="M66.0798,75.0509 L66.0808,75.0509 L66.0798,75.0509 Z M67.0158,75.4269 C66.9918,75.4269 66.9688,75.4279 66.9458,75.4289 C66.7658,75.4369 66.6968,75.4789 66.6858,75.4919 C66.6018,75.6089 66.5328,76.3039 67.2988,77.9229 C67.8798,79.1539 68.7048,80.3999 69.1848,80.9469 C69.5708,81.3869 70.0558,81.6289 70.5178,81.6059 C70.9168,81.5879 71.2708,81.3829 71.5408,81.0129 C72.2128,80.0889 72.0788,78.5079 71.2468,77.5589 C70.5398,76.7529 68.2208,75.4269 67.0158,75.4269 L67.0158,75.4269 Z M70.4618,83.1079 C69.5848,83.1079 68.7148,82.6859 68.0578,81.9369 C67.5178,81.3219 64.0758,76.5279 65.4738,74.6099 C65.6848,74.3189 66.1008,73.9649 66.8778,73.9299 C68.6228,73.8569 71.4148,75.4769 72.3738,76.5699 C73.6788,78.0569 73.8458,80.3969 72.7528,81.8959 C72.2138,82.6359 71.4438,83.0659 70.5858,83.1049 C70.5438,83.1069 70.5028,83.1079 70.4618,83.1079 L70.4618,83.1079 Z" id="Fill-98" fill="#19B5FE" mask="url(#mask-4)"></path>
                <path d="M67.2932,74.7784 C67.2252,75.2114 67.7032,76.0414 69.2482,77.0764 C70.5272,77.9324 72.0762,78.6064 72.8842,78.8054 C73.4862,78.9534 74.1042,78.8434 74.6232,78.4984 C75.2502,78.0814 75.6862,77.3574 75.8182,76.5134 C76.0812,74.8434 75.1262,73.1994 73.6912,72.8464 C72.5592,72.5684 69.4842,72.9704 67.9782,73.9724 C67.6932,74.1624 67.3442,74.4554 67.2932,74.7784 M73.4162,80.3704 C73.1212,80.3704 72.8222,80.3354 72.5262,80.2614 C70.7592,79.8274 65.3812,77.2834 65.8112,74.5464 C65.9202,73.8544 66.3692,73.2414 67.1472,72.7234 C68.9392,71.5324 72.4392,70.9934 74.0492,71.3894 C76.2222,71.9244 77.6802,74.3264 77.3002,76.7464 C77.1032,78.0044 76.4302,79.0974 75.4542,79.7474 C74.8352,80.1594 74.1332,80.3704 73.4162,80.3704" id="Fill-99" fill="#C72C1C" mask="url(#mask-4)"></path>
                <path d="M62.3557,60.0235 C60.7117,59.8795 58.0187,59.8335 56.3717,59.9195 L47.3007,60.3935 C45.6527,60.4795 44.2807,61.9005 44.2517,63.5495 L44.1017,72.1725 C44.0727,73.8225 45.3517,75.5275 46.9437,75.9615 L56.1327,78.4685 C57.7247,78.9035 60.3407,78.9495 61.9467,78.5705 L71.2177,76.3855 C72.8237,76.0065 74.1617,74.3475 74.1897,72.6975 L74.3407,64.0745 C74.3697,62.4245 73.0477,60.9585 71.4037,60.8145 L62.3557,60.0235 Z" id="Fill-100" fill="#A5B5B6" mask="url(#mask-4)"></path>
                <path d="M71.2595,73.9854 L61.9885,76.1714 C60.3825,76.5494 57.7665,76.5044 56.1745,76.0694 L46.9855,73.5624 C45.3935,73.1284 44.1145,71.4224 44.1435,69.7734 L44.1015,72.1734 C44.0725,73.8224 45.3515,75.5274 46.9435,75.9624 L56.1325,78.4684 C57.7245,78.9034 60.3415,78.9494 61.9465,78.5704 L71.2175,76.3854 C72.8235,76.0064 74.1615,74.3474 74.1905,72.6974 L74.2325,70.2974 C74.2035,71.9484 72.8655,73.6074 71.2595,73.9854" id="Fill-101" fill="#859596" mask="url(#mask-4)"></path>
                <path d="M58.3361,60.6261 C57.6301,60.6261 56.9611,60.6401 56.4101,60.6681 L47.3391,61.1431 C46.0941,61.2081 45.0241,62.3161 45.0021,63.5631 L44.8521,72.1861 C44.8291,73.4951 45.8771,74.8941 47.1411,75.2381 L56.3301,77.7461 C57.7991,78.1471 60.2921,78.1891 61.7741,77.8411 L71.0451,75.6551 C72.3201,75.3551 73.4171,73.9941 73.4401,72.6851 L73.5901,64.0621 C73.6121,62.8141 72.5811,61.6701 71.3391,61.5621 L62.2901,60.7721 C61.2211,60.6781 59.7081,60.6261 58.3361,60.6261 M59.3151,79.5801 C58.1061,79.5801 56.8741,79.4491 55.9351,79.1921 L46.7461,76.6861 C44.8081,76.1561 43.3171,74.1691 43.3521,72.1591 L43.5031,63.5371 C43.5381,61.4971 45.2241,59.7511 47.2611,59.6451 L56.3321,59.1701 C58.0121,59.0821 60.7441,59.1301 62.4211,59.2761 L71.4691,60.0671 C73.5021,60.2441 75.1261,62.0481 75.0901,64.0881 L74.9401,72.7111 C74.9051,74.7201 73.3451,76.6541 71.3901,77.1151 L62.1191,79.3011 C61.3241,79.4881 60.3281,79.5801 59.3151,79.5801" id="Fill-102" fill="#354546" mask="url(#mask-4)"></path>
                <polygon id="Fill-103" fill="#556566" mask="url(#mask-4)" points="62.2487 73.1017 49.1727 72.8727 49.3327 63.6747 62.4097 63.9037"></polygon>
                <path d="M57.8332,71.1632 C57.5762,71.1632 57.3342,71.0312 57.1972,70.8092 L56.1592,69.1442 L54.5422,69.1172 C54.2912,69.1122 54.0582,68.9822 53.9232,68.7702 L53.8552,68.6652 L53.4192,69.6812 C53.3212,69.9082 53.1192,70.0722 52.8762,70.1202 C52.6342,70.1702 52.3842,70.0952 52.2072,69.9232 L51.3202,69.0602 L49.2402,69.0242 C48.8262,69.0172 48.4962,68.6762 48.5032,68.2612 C48.5102,67.8472 48.8552,67.5182 49.2662,67.5242 L51.6442,67.5652 C51.8342,67.5692 52.0172,67.6452 52.1532,67.7782 L52.4712,68.0872 L53.0372,66.7702 C53.1462,66.5162 53.3882,66.3422 53.6652,66.3192 C53.9422,66.2962 54.2092,66.4292 54.3582,66.6632 L54.9712,67.6242 L56.5932,67.6522 C56.8472,67.6562 57.0822,67.7902 57.2162,68.0062 L57.6112,68.6392 L58.4232,66.0852 C58.5212,65.7772 58.8062,65.5662 59.1292,65.5622 C59.4532,65.5612 59.7412,65.7622 59.8472,66.0672 L60.4172,67.7192 L62.3422,67.7532 C62.7562,67.7602 63.0862,68.1012 63.0792,68.5162 C63.0712,68.9252 62.7372,69.2522 62.3292,69.2522 L62.3162,69.2522 L59.8662,69.2102 C59.5512,69.2042 59.2732,69.0022 59.1702,68.7042 L59.1672,68.6942 L58.5482,70.6412 C58.4592,70.9192 58.2162,71.1212 57.9262,71.1572 C57.8952,71.1612 57.8642,71.1632 57.8332,71.1632" id="Fill-104" fill="#D5E5E6" mask="url(#mask-4)"></path>
                <path d="M49.9357,72.1368 L61.5117,72.3388 L61.6457,64.6398 L50.0697,64.4388 L49.9357,72.1368 Z M62.2487,73.8518 L62.2357,73.8518 L49.1597,73.6228 C48.9607,73.6198 48.7717,73.5378 48.6337,73.3948 C48.4957,73.2518 48.4197,73.0598 48.4227,72.8608 L48.5827,63.6618 C48.5867,63.4628 48.6687,63.2738 48.8117,63.1358 C48.9557,62.9968 49.1467,62.9178 49.3467,62.9248 L62.4217,63.1538 C62.8367,63.1598 63.1657,63.5018 63.1587,63.9158 L62.9987,73.1148 C62.9917,73.5248 62.6567,73.8518 62.2487,73.8518 L62.2487,73.8518 Z" id="Fill-105" fill="#354546" mask="url(#mask-4)"></path>
                <path d="M69.2272,65.797 C69.2102,66.777 68.4012,67.559 67.4212,67.541 C66.4412,67.525 65.6612,66.716 65.6782,65.735 C65.6952,64.755 66.5032,63.975 67.4832,63.991 C68.4632,64.009 69.2442,64.818 69.2272,65.797" id="Fill-106" fill="#F85C4C" mask="url(#mask-4)"></path>
                <path d="M67.4518,64.7413 C67.1848,64.7413 66.9328,64.8433 66.7408,65.0293 C66.5438,65.2193 66.4318,65.4743 66.4278,65.7483 C66.4178,66.3133 66.8688,66.7813 67.4348,66.7913 C67.7098,66.8023 67.9678,66.6943 68.1648,66.5043 C68.3618,66.3133 68.4728,66.0573 68.4768,65.7843 C68.4818,65.5113 68.3798,65.2513 68.1898,65.0543 C67.9998,64.8573 67.7438,64.7463 67.4708,64.7413 L67.4518,64.7413 Z M67.4538,68.2913 L67.4088,68.2913 C66.0158,68.2663 64.9038,67.1143 64.9278,65.7223 C64.9398,65.0483 65.2128,64.4193 65.6988,63.9503 C66.1838,63.4813 66.8228,63.2303 67.4958,63.2423 C68.1708,63.2543 68.8008,63.5273 69.2688,64.0123 C69.7378,64.4983 69.9888,65.1363 69.9768,65.8103 C69.9658,66.4843 69.6918,67.1143 69.2068,67.5833 C68.7318,68.0413 68.1118,68.2913 67.4538,68.2913 L67.4538,68.2913 Z" id="Fill-107" fill="#C72C1C" mask="url(#mask-4)"></path>
                <path d="M69.1286,71.4464 C69.1116,72.4264 68.3026,73.2074 67.3226,73.1904 C66.3426,73.1734 65.5626,72.3644 65.5796,71.3844 C65.5966,70.4044 66.4046,69.6244 67.3846,69.6404 C68.3646,69.6584 69.1456,70.4664 69.1286,71.4464" id="Fill-108" fill="#B9D96D" mask="url(#mask-4)"></path>
                <path d="M67.3532,70.3907 C67.0862,70.3907 66.8342,70.4927 66.6422,70.6777 C66.4452,70.8687 66.3332,71.1237 66.3292,71.3977 C66.3192,71.9627 66.7702,72.4307 67.3362,72.4407 C67.6112,72.4457 67.8692,72.3427 68.0662,72.1537 C68.2632,71.9627 68.3742,71.7067 68.3782,71.4337 L69.1282,71.4467 L68.3782,71.4337 C68.3832,71.1607 68.2812,70.9007 68.0912,70.7027 C67.9012,70.5067 67.6452,70.3957 67.3722,70.3907 L67.3532,70.3907 Z M67.3552,73.9407 L67.3102,73.9407 C65.9172,73.9157 64.8052,72.7637 64.8292,71.3707 C64.8412,70.6977 65.1152,70.0677 65.6002,69.5997 C66.0852,69.1307 66.7252,68.8797 67.3982,68.8907 C68.0722,68.9027 68.7022,69.1767 69.1702,69.6617 C69.6392,70.1467 69.8902,70.7857 69.8782,71.4597 C69.8672,72.1337 69.5932,72.7637 69.1082,73.2317 C68.6332,73.6897 68.0132,73.9407 67.3552,73.9407 L67.3552,73.9407 Z" id="Fill-109" fill="#719911" mask="url(#mask-4)"></path>
                <path d="M48.9855,62.547 C48.6245,62.547 48.3065,62.286 48.2465,61.918 L47.8425,59.466 C47.7755,59.057 48.0515,58.671 48.4605,58.604 C48.8695,58.537 49.2555,58.814 49.3225,59.222 L49.7265,61.675 C49.7935,62.083 49.5165,62.469 49.1085,62.536 C49.0665,62.543 49.0255,62.547 48.9855,62.547" id="Fill-110" fill="#354546" mask="url(#mask-4)"></path>
                <path d="M51.9455,62.0597 C51.5845,62.0597 51.2665,61.7977 51.2065,61.4307 L50.8025,58.9787 C50.7355,58.5697 51.0115,58.1837 51.4205,58.1167 C51.8295,58.0487 52.2155,58.3257 52.2825,58.7347 L52.6865,61.1877 C52.7535,61.5957 52.4765,61.9817 52.0685,62.0487 C52.0275,62.0557 51.9865,62.0597 51.9455,62.0597" id="Fill-111" fill="#354546" mask="url(#mask-4)"></path>
                <path d="M69.2897,62.547 C69.2487,62.547 69.2077,62.543 69.1667,62.536 C68.7577,62.469 68.4817,62.083 68.5487,61.675 L68.9527,59.222 C69.0197,58.814 69.4057,58.536 69.8147,58.604 C70.2237,58.671 70.4997,59.057 70.4327,59.466 L70.0287,61.918 C69.9687,62.286 69.6497,62.547 69.2897,62.547" id="Fill-112" fill="#354546" mask="url(#mask-4)"></path>
                <path d="M66.3293,62.0597 C66.2883,62.0597 66.2483,62.0557 66.2063,62.0487 C65.7983,61.9817 65.5213,61.5957 65.5883,61.1877 L65.9923,58.7347 C66.0593,58.3257 66.4453,58.0497 66.8543,58.1167 C67.2633,58.1837 67.5393,58.5697 67.4723,58.9787 L67.0683,61.4307 C67.0083,61.7977 66.6903,62.0597 66.3293,62.0597" id="Fill-113" fill="#354546" mask="url(#mask-4)"></path>
                <polygon id="Fill-114" fill="#A5B5B6" mask="url(#mask-4)" points="46.044 107.86 50.731 107.86 50.731 98.86 46.044 98.86"></polygon>
                <polygon id="Fill-115" fill="#C5D5D6" mask="url(#mask-4)" points="46.044 102.437 50.731 102.437 50.731 98.861 46.044 98.861"></polygon>
                <path d="M46.793,107.11 L49.981,107.11 L49.981,99.61 L46.793,99.61 L46.793,107.11 Z M50.731,108.61 L46.043,108.61 C45.629,108.61 45.293,108.275 45.293,107.86 L45.293,98.86 C45.293,98.446 45.629,98.11 46.043,98.11 L50.731,98.11 C51.145,98.11 51.481,98.446 51.481,98.86 L51.481,107.86 C51.481,108.275 51.145,108.61 50.731,108.61 L50.731,108.61 Z" id="Fill-116" fill="#354546" mask="url(#mask-4)"></path>
                <polygon id="Fill-117" fill="#A5B5B6" mask="url(#mask-4)" points="42.864 106.098 46.049 106.098 46.049 90.199 42.864 90.199"></polygon>
                <path d="M43.614,105.348 L45.299,105.348 L45.299,90.949 L43.614,90.949 L43.614,105.348 Z M46.049,106.848 L42.864,106.848 C42.45,106.848 42.114,106.512 42.114,106.098 L42.114,90.198 C42.114,89.784 42.45,89.448 42.864,89.448 L46.049,89.448 C46.464,89.448 46.799,89.784 46.799,90.198 L46.799,106.098 C46.799,106.512 46.464,106.848 46.049,106.848 L46.049,106.848 Z" id="Fill-118" fill="#354546" mask="url(#mask-4)"></path>
                <path d="M44.5231,84.6856 L44.3911,84.6856 C42.7411,84.6856 41.3911,86.0356 41.3911,87.6856 L41.3911,94.8106 L47.5231,94.8106 L47.5231,87.6856 C47.5231,86.0356 46.1731,84.6856 44.5231,84.6856" id="Fill-119" fill="#A5B5B6" mask="url(#mask-4)"></path>
                <path d="M44.5231,84.6856 L44.3911,84.6856 C42.7411,84.6856 41.3911,86.0356 41.3911,87.6856 L41.3911,90.4226 C41.3911,88.7726 42.7411,87.4226 44.3911,87.4226 L44.5231,87.4226 C46.1731,87.4226 47.5231,88.7726 47.5231,90.4226 L47.5231,87.6856 C47.5231,86.0356 46.1731,84.6856 44.5231,84.6856" id="Fill-120" fill="#C5D5D6" mask="url(#mask-4)"></path>
                <path d="M42.1408,94.0607 L46.7728,94.0607 L46.7728,87.6857 C46.7728,86.4447 45.7638,85.4357 44.5228,85.4357 L44.3908,85.4357 C43.1498,85.4357 42.1408,86.4447 42.1408,87.6857 L42.1408,94.0607 Z M47.5228,95.5607 L41.3908,95.5607 C40.9768,95.5607 40.6408,95.2247 40.6408,94.8107 L40.6408,87.6857 C40.6408,85.6187 42.3228,83.9357 44.3908,83.9357 L44.5228,83.9357 C46.5908,83.9357 48.2728,85.6187 48.2728,87.6857 L48.2728,94.8107 C48.2728,95.2247 47.9378,95.5607 47.5228,95.5607 L47.5228,95.5607 Z" id="Fill-121" fill="#354546" mask="url(#mask-4)"></path>
                <polygon id="Fill-122" fill="#A5B5B6" mask="url(#mask-4)" points="67.169 107.86 71.856 107.86 71.856 98.86 67.169 98.86"></polygon>
                <polygon id="Fill-123" fill="#C5D5D6" mask="url(#mask-4)" points="67.169 102.437 71.856 102.437 71.856 98.861 67.169 98.861"></polygon>
                <path d="M67.919,107.11 L71.106,107.11 L71.106,99.61 L67.919,99.61 L67.919,107.11 Z M71.856,108.61 L67.169,108.61 C66.754,108.61 66.419,108.275 66.419,107.86 L66.419,98.86 C66.419,98.446 66.754,98.11 67.169,98.11 L71.856,98.11 C72.27,98.11 72.606,98.446 72.606,98.86 L72.606,107.86 C72.606,108.275 72.27,108.61 71.856,108.61 L71.856,108.61 Z" id="Fill-124" fill="#354546" mask="url(#mask-4)"></path>
                <polygon id="Fill-125" fill="#A5B5B6" mask="url(#mask-4)" points="71.85 106.098 75.035 106.098 75.035 90.199 71.85 90.199"></polygon>
                <path d="M72.6,105.348 L74.285,105.348 L74.285,90.949 L72.6,90.949 L72.6,105.348 Z M75.035,106.848 L71.85,106.848 C71.435,106.848 71.1,106.512 71.1,106.098 L71.1,90.198 C71.1,89.784 71.435,89.448 71.85,89.448 L75.035,89.448 C75.449,89.448 75.785,89.784 75.785,90.198 L75.785,106.098 C75.785,106.512 75.449,106.848 75.035,106.848 L75.035,106.848 Z" id="Fill-126" fill="#354546" mask="url(#mask-4)"></path>
                <path d="M73.3762,84.6856 L73.5082,84.6856 C75.1582,84.6856 76.5082,86.0356 76.5082,87.6856 L76.5082,94.8106 L70.3762,94.8106 L70.3762,87.6856 C70.3762,86.0356 71.7262,84.6856 73.3762,84.6856" id="Fill-127" fill="#A5B5B6" mask="url(#mask-4)"></path>
                <path d="M73.3762,84.6856 L73.5082,84.6856 C75.1582,84.6856 76.5082,86.0356 76.5082,87.6856 L76.5082,90.4226 C76.5082,88.7726 75.1582,87.4226 73.5082,87.4226 L73.3762,87.4226 C71.7262,87.4226 70.3762,88.7726 70.3762,90.4226 L70.3762,87.6856 C70.3762,86.0356 71.7262,84.6856 73.3762,84.6856" id="Fill-128" fill="#C5D5D6" mask="url(#mask-4)"></path>
                <path d="M71.1262,94.0607 L75.7582,94.0607 L75.7582,87.6857 C75.7582,86.4447 74.7492,85.4357 73.5082,85.4357 L73.3762,85.4357 C72.1352,85.4357 71.1262,86.4447 71.1262,87.6857 L71.1262,94.0607 Z M76.5082,95.5607 L70.3762,95.5607 C69.9612,95.5607 69.6262,95.2247 69.6262,94.8107 L69.6262,87.6857 C69.6262,85.6187 71.3082,83.9357 73.3762,83.9357 L73.5082,83.9357 C75.5762,83.9357 77.2582,85.6187 77.2582,87.6857 L77.2582,94.8107 C77.2582,95.2247 76.9222,95.5607 76.5082,95.5607 L76.5082,95.5607 Z" id="Fill-129" fill="#354546" mask="url(#mask-4)"></path>
                <path d="M67.0305,115.3605 C67.0305,117.0105 65.6805,118.3605 64.0305,118.3605 L53.7305,118.3605 C52.0805,118.3605 50.7305,117.0105 50.7305,115.3605 L50.7305,91.3605 C50.7305,89.7105 52.0805,88.3605 53.7305,88.3605 L64.0305,88.3605 C65.6805,88.3605 67.0305,89.7105 67.0305,91.3605 L67.0305,115.3605 Z" id="Fill-130" fill="#6D6D6D" mask="url(#mask-4)"></path>
                <path d="M64.0305,113.7853 L53.7305,113.7853 C52.3905,113.7853 51.1495,112.8953 50.7305,111.6773 L50.7305,115.3603 C50.7305,117.0113 52.0805,118.3603 53.7305,118.3603 L64.0305,118.3603 C65.6805,118.3603 67.0305,117.0113 67.0305,115.3603 L67.0305,111.6773 C66.6115,112.8953 65.3705,113.7853 64.0305,113.7853" id="Fill-131" fill="#5B5B5B" mask="url(#mask-4)"></path>
                <polygon id="Fill-132" fill="#929292" mask="url(#mask-4)" points="66.9401 101.4112 50.7311 100.0602 50.8211 96.0112 66.9401 96.0112"></polygon>
                <polygon id="Fill-133" fill="#929292" mask="url(#mask-4)" points="66.9401 104.5607 50.8211 105.6647 50.8211 102.9647 66.9401 102.9647"></polygon>
                <path d="M53.7307,89.1104 C52.4897,89.1104 51.4807,90.1204 51.4807,91.3604 L51.4807,115.3604 C51.4807,116.6014 52.4897,117.6104 53.7307,117.6104 L64.0307,117.6104 C65.2717,117.6104 66.2807,116.6014 66.2807,115.3604 L66.2807,91.3604 C66.2807,90.1204 65.2717,89.1104 64.0307,89.1104 L53.7307,89.1104 Z M64.0307,119.1104 L53.7307,119.1104 C51.6627,119.1104 49.9807,117.4284 49.9807,115.3604 L49.9807,91.3604 C49.9807,89.2934 51.6627,87.6104 53.7307,87.6104 L64.0307,87.6104 C66.0987,87.6104 67.7807,89.2934 67.7807,91.3604 L67.7807,115.3604 C67.7807,117.4284 66.0987,119.1104 64.0307,119.1104 L64.0307,119.1104 Z" id="Fill-134" fill="#121212" mask="url(#mask-4)"></path>
                <path d="M67.0676,84.6856 L50.6936,84.6856 C48.9126,84.6856 47.4546,86.0356 47.4546,87.6856 L47.4546,92.0356 L70.3076,92.0356 L70.3076,87.6856 C70.3076,86.0356 68.8496,84.6856 67.0676,84.6856" id="Fill-135" fill="#A5B5B6" mask="url(#mask-4)"></path>
                <path d="M67.0676,84.6856 L50.6936,84.6856 C48.9126,84.6856 47.4546,86.0356 47.4546,87.6856 L70.3076,87.6856 C70.3076,86.0356 68.8496,84.6856 67.0676,84.6856" id="Fill-136" fill="#C5D5D6" mask="url(#mask-4)"></path>
                <path d="M48.2043,91.2853 L69.5573,91.2853 L69.5573,87.6853 C69.5573,86.4443 68.4403,85.4353 67.0673,85.4353 L50.6943,85.4353 C49.3213,85.4353 48.2043,86.4443 48.2043,87.6853 L48.2043,91.2853 Z M70.3073,92.7853 L47.4543,92.7853 C47.0403,92.7853 46.7043,92.4493 46.7043,92.0353 L46.7043,87.6853 C46.7043,85.6183 48.4943,83.9353 50.6943,83.9353 L67.0673,83.9353 C69.2673,83.9353 71.0573,85.6183 71.0573,87.6853 L71.0573,92.0353 C71.0573,92.4493 70.7213,92.7853 70.3073,92.7853 L70.3073,92.7853 Z" id="Fill-137" fill="#354546" mask="url(#mask-4)"></path>
                <path d="M54.3806,86.8663 C53.9666,86.8663 53.6306,86.5303 53.6306,86.1163 L53.6306,83.6313 C53.6306,83.2163 53.9666,82.8813 54.3806,82.8813 C54.7956,82.8813 55.1306,83.2163 55.1306,83.6313 L55.1306,86.1163 C55.1306,86.5303 54.7956,86.8663 54.3806,86.8663" id="Fill-138" fill="#354546" mask="url(#mask-4)"></path>
                <path d="M57.3806,86.8663 C56.9666,86.8663 56.6306,86.5303 56.6306,86.1163 L56.6306,83.6313 C56.6306,83.2163 56.9666,82.8813 57.3806,82.8813 C57.7956,82.8813 58.1306,83.2163 58.1306,83.6313 L58.1306,86.1163 C58.1306,86.5303 57.7956,86.8663 57.3806,86.8663" id="Fill-139" fill="#354546" mask="url(#mask-4)"></path>
                <path d="M60.3806,86.8663 C59.9666,86.8663 59.6306,86.5303 59.6306,86.1163 L59.6306,83.6313 C59.6306,83.2163 59.9666,82.8813 60.3806,82.8813 C60.7956,82.8813 61.1306,83.2163 61.1306,83.6313 L61.1306,86.1163 C61.1306,86.5303 60.7956,86.8663 60.3806,86.8663" id="Fill-140" fill="#354546" mask="url(#mask-4)"></path>
                <path d="M63.3806,86.8663 C62.9666,86.8663 62.6306,86.5303 62.6306,86.1163 L62.6306,83.6313 C62.6306,83.2163 62.9666,82.8813 63.3806,82.8813 C63.7956,82.8813 64.1306,83.2163 64.1306,83.6313 L64.1306,86.1163 C64.1306,86.5303 63.7956,86.8663 63.3806,86.8663" id="Fill-141" fill="#354546" mask="url(#mask-4)"></path>
                <path d="M81.2321,21.1124 C81.2211,21.1124 81.2111,21.1124 81.2001,21.1114 C80.7861,21.0944 80.4641,20.7444 80.4821,20.3314 L80.9121,10.2094 C81.0491,6.4934 78.1341,3.3554 74.4151,3.2184 C74.4081,3.2174 74.4011,3.2174 74.3941,3.2164 L48.3341,1.5054 C46.5441,1.4384 44.8311,2.0834 43.5081,3.3114 C42.1821,4.5424 41.4161,6.2084 41.3501,8.0014 L40.9201,18.8754 C40.9041,19.2894 40.5551,19.6154 40.1411,19.5944 C39.7271,19.5784 39.4051,19.2294 39.4211,18.8154 L39.8511,7.9444 C39.9321,5.7524 40.8681,3.7164 42.4871,2.2124 C44.1061,0.7094 46.2061,-0.0746 48.3991,0.0064 C48.4071,0.0074 48.4141,0.0074 48.4211,0.0074 L74.4821,1.7194 C79.0231,1.8934 82.5781,5.7254 82.4101,10.2684 L81.9811,20.3944 C81.9631,20.7974 81.6311,21.1124 81.2321,21.1124" id="Fill-142" fill="#354546" mask="url(#mask-4)"></path>
                <path d="M35.8879,19.7638 C34.5949,19.7158 33.4859,21.0268 33.4249,22.6748 L33.0509,32.8088 C32.9899,34.4578 33.9979,35.8458 35.2919,35.8938 C36.5859,35.9418 37.6439,35.9808 37.6439,35.9808 L38.2409,19.8508 C38.2409,19.8508 37.1819,19.8118 35.8879,19.7638" id="Fill-143" fill="#A5B5B6" mask="url(#mask-4)"></path>
                <path d="M33.425,22.6749 L33.242,27.6349 L37.946,27.8089 L38.24,19.8509 C38.24,19.8509 37.182,19.8119 35.888,19.7639 C34.594,19.7159 33.486,21.0269 33.425,22.6749" id="Fill-144" fill="#C5D5D6" mask="url(#mask-4)"></path>
                <path d="M37.6447,36.7306 L37.6167,36.7306 L35.2647,36.6426 C34.4157,36.6116 33.6117,36.1566 33.0567,35.3926 C32.5337,34.6726 32.2657,33.7456 32.3007,32.7816 L32.6757,22.6476 C32.7107,21.6826 33.0467,20.7776 33.6217,20.0986 C34.2307,19.3776 35.0657,18.9826 35.9157,19.0146 L38.2677,19.1016 L38.2127,20.6006 L35.8607,20.5136 C35.4697,20.4976 35.0817,20.6956 34.7667,21.0676 C34.4137,21.4856 34.1977,22.0816 34.1747,22.7036 L33.7997,32.8366 C33.7767,33.4586 33.9487,34.0686 34.2697,34.5106 C34.5567,34.9046 34.9287,35.1296 35.3197,35.1436 L37.6717,35.2316 C38.0857,35.2466 38.4087,35.5946 38.3937,36.0076 C38.3787,36.4136 38.0457,36.7306 37.6447,36.7306" id="Fill-145" fill="#354546" mask="url(#mask-4)"></path>
                <polygon id="Fill-146" fill="#859596" mask="url(#mask-4)" points="41.9597 38.5392 37.5557 38.3772 38.2797 18.7752 42.6847 18.9382"></polygon>
                <polygon id="Fill-147" fill="#A5B5B6" mask="url(#mask-4)" points="42.2697 30.1524 37.8657 29.9904 38.2797 18.7754 42.6847 18.9384"></polygon>
                <path d="M38.3327,37.6554 L41.2377,37.7614 L41.9067,19.6604 L39.0017,19.5524 L38.3327,37.6554 Z M41.9597,39.2894 L41.9327,39.2894 L37.5277,39.1264 C37.1137,39.1104 36.7907,38.7624 36.8067,38.3484 L37.5307,18.7484 C37.5377,18.5494 37.6237,18.3614 37.7697,18.2254 C37.9157,18.0914 38.1097,18.0204 38.3077,18.0264 L42.7117,18.1884 C43.1257,18.2044 43.4487,18.5514 43.4337,18.9664 L42.7087,38.5674 C42.7027,38.7654 42.6157,38.9544 42.4707,39.0894 C42.3317,39.2174 42.1487,39.2894 41.9597,39.2894 L41.9597,39.2894 Z" id="Fill-148" fill="#354546" mask="url(#mask-4)"></path>
                <path d="M33.2419,28.3849 L33.2409,28.3849 L31.4389,28.3809 C31.0249,28.3809 30.6899,28.0439 30.6909,27.6299 C30.6919,27.2159 31.0269,26.8809 31.4409,26.8809 L31.4419,26.8809 L33.2429,26.8849 C33.6579,26.8859 33.9919,27.2219 33.9919,27.6369 C33.9909,28.0499 33.6559,28.3849 33.2419,28.3849" id="Fill-149" fill="#354546" mask="url(#mask-4)"></path>
                <path d="M88.3161,10.5558 C88.2301,10.5558 88.1431,10.5448 88.0561,10.5228 C87.4941,10.3798 87.1541,9.8078 87.2981,9.2458 L88.0741,6.1978 C88.2171,5.6358 88.7891,5.2968 89.3511,5.4398 C89.9131,5.5818 90.2531,6.1548 90.1091,6.7158 L89.3331,9.7648 C89.2121,10.2398 88.7851,10.5558 88.3161,10.5558" id="Fill-150" fill="#354546" mask="url(#mask-4)"></path>
                <path d="M85.238,22.337 C85.176,22.337 85.114,22.33 85.052,22.315 C84.651,22.212 84.408,21.804 84.51,21.402 L87.589,9.32 C87.691,8.919 88.099,8.677 88.501,8.778 C88.902,8.881 89.144,9.289 89.042,9.691 L85.964,21.773 C85.878,22.111 85.572,22.337 85.238,22.337" id="Fill-151" fill="#354546" mask="url(#mask-4)"></path>
                <path d="M85.2375,21.587 C86.5305,21.635 87.5395,23.024 87.4785,24.672 L87.1045,34.806 C87.0435,36.455 85.9355,37.765 84.6415,37.717 C83.3475,37.669 82.2895,37.63 82.2895,37.63 L82.8845,21.5 C82.8845,21.5 83.9435,21.539 85.2375,21.587" id="Fill-152" fill="#A5B5B6" mask="url(#mask-4)"></path>
                <path d="M87.4787,24.672 L87.2957,29.632 L82.5907,29.458 L82.8847,21.5 C82.8847,21.5 83.9437,21.539 85.2377,21.587 C86.5307,21.635 87.5397,23.024 87.4787,24.672" id="Fill-153" fill="#C5D5D6" mask="url(#mask-4)"></path>
                <path d="M84.7097,38.4679 C84.6777,38.4679 84.6457,38.4679 84.6137,38.4669 L82.2617,38.3799 C81.8477,38.3639 81.5237,38.0169 81.5397,37.6029 C81.5547,37.1889 81.9037,36.8659 82.3167,36.8809 L84.6687,36.9679 L84.7097,36.9679 C85.5617,36.9679 86.3107,35.9779 86.3547,34.7789 L86.7297,24.6449 C86.7517,24.0229 86.5807,23.4129 86.2597,22.9699 C85.9727,22.5759 85.6007,22.3519 85.2097,22.3369 L82.8577,22.2499 C82.4437,22.2349 82.1207,21.8869 82.1357,21.4729 C82.1507,21.0589 82.4997,20.7309 82.9127,20.7509 L85.2647,20.8379 C86.1137,20.8689 86.9177,21.3249 87.4727,22.0879 C87.9957,22.8079 88.2637,23.7359 88.2287,24.6989 L87.8537,34.8339 C87.7787,36.8619 86.3777,38.4679 84.7097,38.4679" id="Fill-154" fill="#354546" mask="url(#mask-4)"></path>
                <polygon id="Fill-155" fill="#859596" mask="url(#mask-4)" points="77.7966 39.8634 82.2006 40.0264 82.9246 20.4254 78.5206 20.2624"></polygon>
                <polygon id="Fill-156" fill="#A5B5B6" mask="url(#mask-4)" points="78.1061 31.4767 82.5101 31.6397 82.9251 20.4247 78.5211 20.2627"></polygon>
                <path d="M78.5734,39.1417 L81.4784,39.2487 L82.1474,21.1467 L79.2424,21.0387 L78.5734,39.1417 Z M82.2004,40.7767 C82.1914,40.7767 82.1824,40.7767 82.1734,40.7757 L77.7684,40.6137 C77.3544,40.5977 77.0314,40.2497 77.0474,39.8357 L77.7714,20.2347 C77.7784,20.0367 77.8644,19.8477 78.0104,19.7127 C78.1564,19.5777 78.3494,19.5077 78.5484,19.5127 L82.9524,19.6757 C83.3664,19.6907 83.6894,20.0387 83.6744,20.4537 L82.9494,40.0537 C82.9424,40.2527 82.8564,40.4407 82.7114,40.5767 C82.5724,40.7047 82.3894,40.7767 82.2004,40.7767 L82.2004,40.7767 Z" id="Fill-157" fill="#354546" mask="url(#mask-4)"></path>
                <path d="M89.0925,30.5108 C89.0745,30.5108 89.0565,30.5108 89.0385,30.5098 L87.2415,30.3798 C86.8285,30.3508 86.5175,29.9908 86.5475,29.5778 C86.5775,29.1648 86.9365,28.8538 87.3495,28.8838 L89.1455,29.0128 C89.5585,29.0428 89.8695,29.4018 89.8405,29.8158 C89.8115,30.2098 89.4825,30.5108 89.0925,30.5108" id="Fill-158" fill="#354546" mask="url(#mask-4)"></path>
                <path d="M41.8918,44.6768 C40.8658,44.6768 38.2568,45.7908 37.1518,47.0518 C36.2128,48.1208 36.0618,49.9068 36.8228,50.9508 C37.1338,51.3788 37.5438,51.6148 38.0088,51.6368 C38.5398,51.6628 39.0968,51.3868 39.5378,50.8848 C40.0698,50.2778 40.9828,48.8978 41.6268,47.5348 C42.4598,45.7748 42.4278,44.9628 42.2948,44.7808 C42.2538,44.7238 42.1248,44.6858 41.9498,44.6778 C41.9318,44.6768 41.9118,44.6768 41.8918,44.6768 M38.0728,53.1378 C38.0288,53.1378 37.9848,53.1368 37.9408,53.1348 C37.0178,53.0928 36.1908,52.6308 35.6108,51.8348 C34.4278,50.2098 34.6088,47.6748 36.0238,46.0618 C37.0708,44.8688 40.1168,43.0998 42.0178,43.1798 C42.8448,43.2168 43.2838,43.5898 43.5068,43.8968 C44.1188,44.7368 43.9478,46.1368 42.9828,48.1768 C42.2738,49.6778 41.2798,51.1728 40.6648,51.8738 C39.9558,52.6828 39.0168,53.1378 38.0728,53.1378" id="Fill-159" fill="#19B5FE" mask="url(#mask-4)"></path>
                <path d="M75.3425,43.1505 C75.2175,43.2825 75.2245,43.5435 75.2515,43.7385 C75.4245,44.9765 76.7665,46.7285 77.5175,47.1725 C78.4765,47.7405 80.0375,47.4295 80.9265,46.4945 C81.3525,46.0465 81.5595,45.5195 81.4945,45.0495 C81.4425,44.6755 81.2215,44.3635 80.8555,44.1475 C79.4185,43.2965 75.9905,42.4685 75.3425,43.1505 M78.6635,48.9595 C77.9835,48.9595 77.3205,48.7985 76.7545,48.4635 C75.5905,47.7755 73.9975,45.6065 73.7655,43.9455 C73.6345,42.9995 73.9595,42.4285 74.2555,42.1175 C75.8815,40.4065 80.5685,42.2345 81.6195,42.8565 C82.3815,43.3065 82.8645,44.0115 82.9805,44.8425 C83.1085,45.7675 82.7575,46.7465 82.0145,47.5275 C81.1315,48.4565 79.8695,48.9595 78.6635,48.9595" id="Fill-160" fill="#19B5FE" mask="url(#mask-4)"></path>
                <path d="M35.5236,41.7393 C35.1116,41.7393 34.7576,41.7713 34.4966,41.8353 C32.8776,42.2333 31.8006,44.0843 32.0956,45.9623 C32.2456,46.9133 32.7376,47.7283 33.4456,48.2003 C34.0366,48.5933 34.7376,48.7173 35.4216,48.5493 C36.3186,48.3283 38.0366,47.5823 39.4526,46.6333 C40.9236,45.6473 41.7406,44.6733 41.6396,44.0263 C41.5796,43.6423 41.1776,43.3033 40.8516,43.0873 C39.5236,42.2033 37.0996,41.7393 35.5236,41.7393 M34.8176,50.1233 C34.0426,50.1233 33.2836,49.8933 32.6146,49.4493 C31.5576,48.7463 30.8286,47.5593 30.6136,46.1943 C30.2016,43.5663 31.7826,40.9583 34.1386,40.3793 C35.8976,39.9463 39.7246,40.5353 41.6826,41.8383 C42.5216,42.3953 43.0046,43.0533 43.1216,43.7943 C43.5866,46.7603 37.7106,49.5313 35.7796,50.0053 C35.4606,50.0843 35.1376,50.1233 34.8176,50.1233" id="Fill-161" fill="#719911" mask="url(#mask-4)"></path>
                <path d="M77.445,47.3106 C77.293,51.4326 73.793,54.7906 69.668,54.7746 L48.049,54.6846 C43.924,54.6666 40.812,51.2886 41.132,47.1756 L43.52,13.3296 C43.841,9.2166 47.466,6.1356 51.577,6.4836 L71.345,8.1546 C75.456,8.5016 78.694,12.1586 78.542,16.2806 L77.445,47.3106 Z" id="Fill-162" fill="#A5B5B6" mask="url(#mask-4)"></path>
                <path d="M74.0202,41.0167 C73.9082,44.0477 71.1042,46.5097 67.7902,46.4867 L50.4192,46.3667 C47.1052,46.3427 44.5962,43.8507 44.8432,40.8267 L46.6802,16.9307 C46.9272,13.9067 49.8332,11.6497 53.1362,11.9157 L69.0232,13.1947 C72.3272,13.4597 74.9382,16.1577 74.8262,19.1897 L74.0202,41.0167 Z" id="Fill-163" fill="#C5D5D6" mask="url(#mask-4)"></path>
                <path d="M71.2419,51.4356 L47.7489,51.2766 C44.8329,51.2566 42.3799,49.8156 41.1119,47.6796 C41.0719,51.5606 44.0939,54.6676 48.0489,54.6846 L69.6679,54.7746 C73.1279,54.7886 76.1459,52.4276 77.1199,49.2356 C75.5889,50.6056 73.5039,51.4516 71.2419,51.4356" id="Fill-164" fill="#859596" mask="url(#mask-4)"></path>
                <path d="M71.3029,52.1856 L71.2369,52.1856 L47.7429,52.0266 C44.6479,52.0056 41.9279,50.5236 40.4669,48.0616 C40.2559,47.7066 40.3729,47.2456 40.7289,47.0346 C41.0859,46.8236 41.5459,46.9406 41.7569,47.2966 C42.9469,49.3016 45.1889,50.5086 47.7539,50.5266 L71.2469,50.6856 C73.2489,50.7006 75.1569,49.9856 76.6199,48.6756 C76.9289,48.4006 77.4029,48.4266 77.6789,48.7356 C77.9549,49.0436 77.9289,49.5176 77.6199,49.7936 C75.8949,51.3376 73.6539,52.1856 71.3029,52.1856" id="Fill-165" fill="#354546" mask="url(#mask-4)"></path>
                <path d="M77.445,47.3106 L77.446,47.3106 L77.445,47.3106 Z M50.941,7.2066 C49.357,7.2066 47.839,7.7636 46.613,8.8056 C45.24,9.9716 44.407,11.5996 44.268,13.3876 L41.881,47.2286 C41.741,49.0126 42.308,50.6906 43.475,51.9576 C44.642,53.2246 46.268,53.9266 48.052,53.9346 L69.672,54.0246 L69.7,54.0246 C73.423,54.0246 76.558,51.0056 76.696,47.2826 L77.792,16.2536 C77.93,12.5146 75.01,9.2166 71.282,8.9016 L51.513,7.2316 C51.322,7.2146 51.131,7.2066 50.941,7.2066 L50.941,7.2066 Z M69.7,55.5246 L69.665,55.5246 L48.046,55.4346 C45.84,55.4246 43.825,54.5516 42.372,52.9736 C40.919,51.3966 40.213,49.3166 40.384,47.1176 L42.772,13.2766 C42.943,11.0816 43.962,9.0896 45.642,7.6626 C47.321,6.2356 49.451,5.5516 51.64,5.7366 L71.408,7.4076 C75.922,7.7886 79.459,11.7816 79.291,16.3086 L78.195,47.3366 L78.195,47.3376 C78.028,51.8596 74.22,55.5246 69.7,55.5246 L69.7,55.5246 Z" id="Fill-166" fill="#354546" mask="url(#mask-4)"></path>
                <path d="M60.9186,16.296 C56.8106,16.296 51.9146,15.035 51.9146,9.025 C51.9146,8.081 52.0366,7.455 52.2756,6.562 C52.3836,6.162 52.7946,5.926 53.1946,6.032 C53.5956,6.14 53.8326,6.552 53.7246,6.951 C53.5096,7.75 53.4146,8.239 53.4146,9.025 C53.4146,10.452 53.4146,14.796 60.9186,14.796 C68.4556,14.796 68.4556,10.452 68.4556,9.025 C68.4556,8.706 68.4386,8.386 68.4066,8.072 C68.3636,7.66 68.6636,7.291 69.0756,7.249 C69.4876,7.206 69.8566,7.506 69.8986,7.918 C69.9366,8.283 69.9556,8.655 69.9556,9.025 C69.9556,12.342 68.3876,16.296 60.9186,16.296" id="Fill-167" fill="#354546" mask="url(#mask-4)"></path>
                <path d="M56.1359,25.9435 C55.9709,30.4135 52.2129,33.9035 47.7419,33.7385 C43.2719,33.5735 39.7819,29.8155 39.9469,25.3445 C40.1129,20.8745 43.8699,17.3845 48.3409,17.5495 C52.8109,17.7145 56.3009,21.4725 56.1359,25.9435" id="Fill-168" fill="#C5D5D6" mask="url(#mask-4)"></path>
                <path d="M48.0383,18.294 C44.1093,18.294 40.8433,21.414 40.6963,25.373 C40.5473,29.423 43.7203,32.84 47.7703,32.989 C47.8623,32.992 47.9543,32.994 48.0453,32.994 C51.9743,32.994 55.2403,29.874 55.3863,25.915 C55.5363,21.865 52.3633,18.448 48.3133,18.299 C48.2213,18.296 48.1293,18.294 48.0383,18.294 M48.0453,34.494 C47.9353,34.494 47.8253,34.492 47.7153,34.488 C42.8383,34.308 39.0173,30.193 39.1973,25.317 C39.3733,20.552 43.3073,16.794 48.0373,16.794 C48.1473,16.794 48.2573,16.796 48.3683,16.8 C53.2453,16.981 57.0653,21.095 56.8853,25.971 C56.7093,30.736 52.7763,34.494 48.0453,34.494" id="Fill-169" fill="#354546" mask="url(#mask-4)"></path>
                <path d="M53.2609,25.837 C53.1549,28.72 50.7309,30.97 47.8489,30.863 C44.9669,30.757 42.7159,28.334 42.8229,25.451 C42.9289,22.568 45.3519,20.318 48.2349,20.425 C51.1169,20.531 53.3669,22.954 53.2609,25.837" id="Fill-170" fill="#9ABD45" mask="url(#mask-4)"></path>
                <path d="M51.342,24.2354 C51.276,26.0264 49.77,27.4254 47.978,27.3594 C46.187,27.2934 44.788,25.7874 44.854,23.9954 C44.92,22.2034 46.426,20.8044 48.218,20.8714 C50.009,20.9374 51.408,22.4434 51.342,24.2354" id="Fill-171" fill="#CEEC87" mask="url(#mask-4)"></path>
                <path d="M53.2609,25.837 L53.2619,25.837 L53.2609,25.837 Z M48.0369,21.171 C46.9059,21.171 45.8319,21.592 44.9979,22.366 C44.1219,23.18 43.6159,24.285 43.5719,25.479 C43.5279,26.673 43.9509,27.813 44.7639,28.688 C45.5769,29.564 46.6819,30.069 47.8769,30.113 C50.3429,30.21 52.4199,28.274 52.5109,25.81 C52.6019,23.345 50.6709,21.266 48.2069,21.175 C48.1499,21.172 48.0939,21.171 48.0369,21.171 L48.0369,21.171 Z M48.0449,31.617 C47.9699,31.617 47.8959,31.615 47.8209,31.612 C44.5299,31.491 41.9509,28.715 42.0729,25.424 C42.1319,23.829 42.8079,22.354 43.9769,21.268 C45.1459,20.182 46.6679,19.616 48.2619,19.676 C51.5529,19.797 54.1319,22.573 54.0109,25.864 C53.8909,29.081 51.2369,31.617 48.0449,31.617 L48.0449,31.617 Z" id="Fill-172" fill="#354546" mask="url(#mask-4)"></path>
                <path d="M49.3874,22.17 C49.7194,22.911 48.6814,23.545 47.3244,24.153 C45.9664,24.761 44.8024,25.112 44.4704,24.37 C44.1384,23.628 44.9704,22.534 46.3274,21.927 C47.6854,21.319 49.0554,21.428 49.3874,22.17" id="Fill-173" fill="#FFFFFF" mask="url(#mask-4)"></path>
                <path d="M48.4504,29.3507 C48.3644,29.1577 48.6334,28.9937 48.9864,28.8347 C49.3384,28.6777 49.6404,28.5867 49.7264,28.7797 C49.8124,28.9717 49.5964,29.2557 49.2444,29.4127 C48.8924,29.5707 48.5364,29.5427 48.4504,29.3507" id="Fill-174" fill="#FFFFFF" mask="url(#mask-4)"></path>
                <path d="M52.8449,25.7823 C52.8199,26.4633 52.2469,26.9943 51.5669,26.9693 C50.8869,26.9443 50.3549,26.3723 50.3809,25.6913 C50.4059,25.0113 50.9779,24.4793 51.6579,24.5053 C52.3389,24.5303 52.8699,25.1023 52.8449,25.7823" id="Fill-175" fill="#354546" mask="url(#mask-4)"></path>
                <path d="M78.9743,27.2901 C78.8343,31.0781 75.6503,32.3861 71.8623,32.2461 C68.0733,32.1061 65.1163,30.5721 65.2563,26.7831 C65.3953,22.9951 68.5803,20.0381 72.3693,20.1781 C76.1573,20.3171 79.1143,23.5021 78.9743,27.2901" id="Fill-176" fill="#C5D5D6" mask="url(#mask-4)"></path>
                <path d="M72.1125,20.9229 C68.8445,20.9229 66.1275,23.5189 66.0055,26.8119 C65.9485,28.3529 66.4465,29.4859 67.5285,30.2769 C68.5255,31.0069 70.0325,31.4279 71.8895,31.4969 C73.7605,31.5679 75.3195,31.2559 76.3965,30.6009 C77.5705,29.8869 78.1685,28.7949 78.2245,27.2629 C78.3495,23.8939 75.7095,21.0519 72.3415,20.9279 C72.2645,20.9249 72.1885,20.9229 72.1125,20.9229 M72.3875,33.0059 C72.2055,33.0059 72.0215,33.0029 71.8345,32.9949 C69.6465,32.9149 67.8995,32.4069 66.6425,31.4879 C65.1705,30.4109 64.4315,28.7749 64.5065,26.7559 C64.6615,22.5609 68.2025,19.2769 72.3965,19.4279 C76.5915,19.5829 79.8795,23.1229 79.7235,27.3189 C79.6495,29.3349 78.7685,30.9139 77.1755,31.8819 C75.9615,32.6209 74.3145,33.0059 72.3875,33.0059" id="Fill-177" fill="#354546" mask="url(#mask-4)"></path>
                <path d="M76.5378,27.2003 C76.4478,29.6423 74.3938,29.8993 71.9518,29.8093 C69.5088,29.7203 67.6018,29.3163 67.6928,26.8743 C67.7828,24.4303 69.8358,22.5243 72.2788,22.6143 C74.7218,22.7043 76.6278,24.7583 76.5378,27.2003" id="Fill-178" fill="#19B5FE" mask="url(#mask-4)"></path>
                <path d="M74.8644,25.6681 C74.8084,27.1861 73.6334,27.7501 72.1154,27.6931 C70.5964,27.6381 69.3094,26.9821 69.3654,25.4651 C69.4224,23.9461 70.6984,22.7611 72.2174,22.8171 C73.7354,22.8731 74.9204,24.1491 74.8644,25.6681" id="Fill-179" fill="#39D5FF" mask="url(#mask-4)"></path>
                <path d="M76.5378,27.2003 L76.5388,27.2003 L76.5378,27.2003 Z M72.1118,23.3613 C71.1818,23.3613 70.2988,23.7073 69.6138,24.3443 C68.8938,25.0123 68.4778,25.9203 68.4418,26.9013 C68.4028,27.9703 68.8178,28.3413 69.2298,28.5643 C69.9178,28.9373 71.0058,29.0243 71.9798,29.0603 C75.1178,29.1783 75.7398,28.4863 75.7878,27.1733 C75.8248,26.1913 75.4768,25.2553 74.8088,24.5353 C74.1408,23.8163 73.2318,23.4003 72.2508,23.3643 C72.2048,23.3623 72.1578,23.3613 72.1118,23.3613 L72.1118,23.3613 Z M72.7898,30.5793 C72.4728,30.5793 72.1778,30.5683 71.9238,30.5593 C70.7778,30.5163 69.4758,30.4033 68.5158,29.8833 C67.4198,29.2903 66.8908,28.2673 66.9428,26.8463 C66.9948,25.4643 67.5798,24.1853 68.5928,23.2443 C69.6058,22.3043 70.9258,21.8153 72.3068,21.8653 C73.6878,21.9163 74.9668,22.5023 75.9078,23.5143 C76.8488,24.5283 77.3388,25.8463 77.2878,27.2273 C77.1768,30.2263 74.6018,30.5793 72.7898,30.5793 L72.7898,30.5793 Z" id="Fill-180" fill="#354546" mask="url(#mask-4)"></path>
                <path d="M73.2556,24.0929 C73.5366,24.7219 72.6576,25.2589 71.5076,25.7739 C70.3566,26.2879 69.3706,26.5859 69.0886,25.9569 C68.8076,25.3289 69.5126,24.4029 70.6626,23.8869 C71.8136,23.3719 72.9746,23.4639 73.2556,24.0929" id="Fill-181" fill="#FFFFFF" mask="url(#mask-4)"></path>
                <path d="M73.5729,28.587 C73.4999,28.424 73.7279,28.285 74.0269,28.151 C74.3249,28.018 74.5809,27.941 74.6539,28.104 C74.7269,28.267 74.5439,28.507 74.2459,28.641 C73.9469,28.774 73.6459,28.75 73.5729,28.587" id="Fill-182" fill="#FFFFFF" mask="url(#mask-4)"></path>
                <path d="M70.1984,27.005 C70.1774,27.582 69.6924,28.032 69.1154,28.011 C68.5384,27.989 68.0884,27.505 68.1104,26.928 C68.1314,26.352 68.6154,25.901 69.1924,25.922 C69.7694,25.943 70.2194,26.429 70.1984,27.005" id="Fill-183" fill="#354546" mask="url(#mask-4)"></path>
                <path d="M48.1774,40.6388 L70.9234,35.5568 C70.9234,35.5568 72.2014,42.5628 66.6704,44.6078 C56.9284,48.2078 48.1774,40.6388 48.1774,40.6388" id="Fill-184" fill="#FFFFFF" mask="url(#mask-4)"></path>
                <path d="M48.1774,40.6388 L48.1784,40.6388 L48.1774,40.6388 Z M49.9304,41.0148 C50.8834,41.6688 52.3284,42.5518 54.1054,43.3008 C58.4284,45.1208 62.5684,45.3248 66.4094,43.9048 C68.4274,43.1588 69.6774,41.5818 70.1254,39.2188 C70.3304,38.1428 70.3184,37.1318 70.2714,36.4708 L49.9304,41.0148 Z M61.2204,46.3218 C58.6944,46.3218 56.0834,45.7678 53.4784,44.6638 C50.0034,43.1928 47.7794,41.2858 47.6864,41.2048 C47.4724,41.0208 47.3814,40.7298 47.4494,40.4548 C47.5194,40.1808 47.7374,39.9678 48.0134,39.9068 L70.7594,34.8248 C70.9584,34.7808 71.1674,34.8188 71.3374,34.9308 C71.5074,35.0438 71.6244,35.2208 71.6604,35.4218 C71.6754,35.4988 72.0004,37.3328 71.6084,39.4518 C71.0714,42.3528 69.4534,44.3778 66.9294,45.3108 C65.1064,45.9858 63.1884,46.3218 61.2204,46.3218 L61.2204,46.3218 Z" id="Fill-185" fill="#354546" mask="url(#mask-4)"></path>
                <path d="M54.6022,45.0558 C54.2272,45.0558 53.9032,44.7748 53.8582,44.3938 L53.2732,39.4208 C53.2252,39.0098 53.5192,38.6368 53.9312,38.5878 C54.3412,38.5388 54.7152,38.8338 54.7632,39.2448 L55.3482,44.2178 C55.3962,44.6298 55.1022,45.0018 54.6902,45.0508 C54.6612,45.0538 54.6312,45.0558 54.6022,45.0558" id="Fill-186" fill="#354546" mask="url(#mask-4)"></path>
                <path d="M60.0524,46.0655 C59.6504,46.0655 59.3174,45.7475 59.3034,45.3415 L59.0484,38.0685 C59.0334,37.6545 59.3574,37.3065 59.7714,37.2925 C60.1834,37.2785 60.5324,37.6015 60.5474,38.0155 L60.8024,45.2895 C60.8174,45.7035 60.4934,46.0495 60.0794,46.0645 C60.0704,46.0655 60.0614,46.0655 60.0524,46.0655" id="Fill-187" fill="#354546" mask="url(#mask-4)"></path>
                <path d="M65.6198,45.3575 C65.2088,45.3575 64.8748,45.0275 64.8698,44.6155 L64.7868,36.7675 C64.7818,36.3535 65.1138,36.0135 65.5278,36.0095 C65.9388,36.0045 66.2818,36.3375 66.2868,36.7525 L66.3698,44.5995 C66.3738,45.0135 66.0418,45.3535 65.6278,45.3575 L65.6198,45.3575 Z" id="Fill-188" fill="#354546" mask="url(#mask-4)"></path>
                <path d="M27.6003,55.3526 C28.4083,56.7906 27.8933,58.6286 26.4543,59.4376 L21.3423,62.2816 C19.9033,63.0896 18.0653,62.5746 17.2563,61.1356 L13.9753,55.0476 C13.1673,53.6096 13.9953,52.2836 15.4333,51.4746 L20.2903,48.7886 C21.7283,47.9796 23.2543,47.9826 24.0623,49.4206 L27.6003,55.3526 Z" id="Fill-189" fill="#A5B5B6" mask="url(#mask-4)"></path>
                <path d="M22.1091,48.9913 C21.5781,48.9913 21.0361,49.2283 20.6571,49.4413 L15.7961,52.1313 C15.1951,52.4693 14.7481,52.9003 14.5421,53.3423 C14.3381,53.7763 14.3671,54.2153 14.6291,54.6803 L17.9171,60.7803 C18.5181,61.8493 19.8931,62.2353 20.9741,61.6273 L26.0901,58.7823 C26.6091,58.4913 26.9851,58.0103 27.1481,57.4293 C27.3101,56.8503 27.2401,56.2473 26.9501,55.7273 L23.4191,49.8043 C23.4151,49.7993 23.4121,49.7943 23.4091,49.7883 C23.0731,49.1903 22.5951,48.9913 22.1091,48.9913 M19.8791,63.4163 C18.5671,63.4163 17.2911,62.7263 16.6031,61.5033 L13.3151,55.4033 C12.8201,54.5233 12.7721,53.5873 13.1821,52.7083 C13.5251,51.9733 14.1761,51.3213 15.0661,50.8213 L19.9271,48.1313 C21.8941,47.0253 23.7721,47.3843 24.7121,49.0443 L28.2441,54.9683 C28.2471,54.9733 28.2511,54.9793 28.2541,54.9843 C28.7431,55.8553 28.8631,56.8673 28.5921,57.8333 C28.3211,58.8003 27.6921,59.6023 26.8221,60.0913 L21.7061,62.9363 C21.1291,63.2623 20.4991,63.4163 19.8791,63.4163" id="Fill-190" fill="#354546" mask="url(#mask-4)"></path>
                <path d="M15.3513,29.1476 C9.0583,38.0316 4.1353,47.7976 0.7503,58.1196 C4.0933,59.6946 7.4373,61.2696 10.7803,62.8446 C14.1223,52.6566 18.9813,43.0146 25.1943,34.2456 C21.9133,32.5456 18.6323,30.8466 15.3513,29.1476" id="Fill-191" fill="#1AA355" mask="url(#mask-4)"></path>
                <path d="M1.6711,57.7247 L10.3351,61.8067 C13.6011,52.1057 18.2241,42.9327 24.0871,34.5167 L15.5881,30.1157 C9.6381,38.6207 4.9591,47.9027 1.6711,57.7247 M10.7801,63.5947 C10.6711,63.5947 10.5621,63.5717 10.4611,63.5237 L0.4301,58.7977 C0.0881,58.6367 -0.0799,58.2457 0.0371,57.8857 C3.4491,47.4827 8.3961,37.6677 14.7391,28.7137 C14.9561,28.4097 15.3641,28.3097 15.6961,28.4817 L25.5391,33.5787 C25.7321,33.6797 25.8721,33.8577 25.9231,34.0687 C25.9741,34.2797 25.9321,34.5017 25.8061,34.6787 C19.6301,43.3957 14.8151,52.9517 11.4931,63.0787 C11.4261,63.2837 11.2751,63.4497 11.0771,63.5347 C10.9831,63.5747 10.8811,63.5947 10.7801,63.5947" id="Fill-192" fill="#137A3F" mask="url(#mask-4)"></path>
                <path d="M19.4045,31.2472 C13.1435,40.0832 8.2475,49.7982 4.8805,60.0652 C8.2235,61.6412 11.5675,63.2162 14.9105,64.7912 C18.2345,54.6562 23.0675,45.0662 29.2475,36.3442 L19.4045,31.2472" id="Fill-193" fill="#1EBC61" mask="url(#mask-4)"></path>
                <path d="M5.801,59.67 L14.465,63.752 C17.714,54.107 22.31,44.984 28.14,36.615 L19.641,32.214 C13.724,40.673 9.072,49.903 5.801,59.67 M14.91,65.541 C14.801,65.541 14.692,65.518 14.591,65.47 L4.56,60.743 C4.218,60.582 4.05,60.191 4.167,59.831 C7.562,49.482 12.482,39.72 18.792,30.814 C19.009,30.508 19.417,30.408 19.749,30.581 L29.592,35.678 C29.785,35.778 29.925,35.956 29.976,36.167 C30.028,36.378 29.985,36.601 29.859,36.777 C23.717,45.447 18.927,54.951 15.623,65.024 C15.556,65.229 15.405,65.395 15.207,65.48 C15.113,65.521 15.011,65.541 14.91,65.541" id="Fill-194" fill="#137A3F" mask="url(#mask-4)"></path>
                <path d="M16.4025,42.6886 C15.8885,42.6886 15.3655,42.7726 14.8505,42.9426 C13.5425,43.3746 12.4815,44.2916 11.8615,45.5236 C11.2405,46.7526 11.1385,48.1406 11.5755,49.4316 C11.9835,50.6386 12.8095,51.5946 13.9025,52.1246 C16.1745,53.2246 18.9425,52.1306 20.2035,49.6336 C21.4575,47.1406 20.6785,44.2986 18.4295,43.1666 L18.4295,43.1656 C17.8015,42.8486 17.1105,42.6886 16.4025,42.6886 M15.7685,54.0546 C14.9165,54.0546 14.0595,53.8676 13.2485,53.4746 C11.7915,52.7686 10.6925,51.5036 10.1545,49.9136 C9.5885,48.2376 9.7185,46.4386 10.5225,44.8476 C11.3215,43.2586 12.6925,42.0766 14.3805,41.5186 C15.9845,40.9896 17.6625,41.0986 19.1055,41.8266 C22.1045,43.3376 23.1755,47.0646 21.5435,50.3086 C20.3485,52.6746 18.0805,54.0536 15.7685,54.0546" id="Fill-195" fill="#137A3F" mask="url(#mask-4)"></path>
                <path d="M11.2575,63.8204 C11.1805,63.8204 11.1015,63.8074 11.0245,63.7824 C10.6305,63.6534 10.4155,63.2304 10.5445,62.8374 C11.0765,61.2114 12.1745,59.9394 13.5575,59.3484 C14.6695,58.8744 15.8585,58.8894 16.9075,59.3934 C17.2805,59.5724 17.4385,60.0204 17.2585,60.3934 C17.0795,60.7674 16.6325,60.9244 16.2585,60.7464 C15.5955,60.4274 14.8655,60.4224 14.1465,60.7284 C13.1615,61.1494 12.3675,62.0884 11.9705,63.3024 C11.8665,63.6194 11.5725,63.8204 11.2575,63.8204" id="Fill-196" fill="#137A3F" mask="url(#mask-4)"></path>
                <path d="M8.5329,62.5362 C8.4559,62.5362 8.3769,62.5242 8.2999,62.4992 C7.9059,62.3702 7.6909,61.9462 7.8199,61.5532 C8.5749,59.2452 7.8709,56.7352 6.2499,55.9582 C5.8769,55.7792 5.7189,55.3312 5.8979,54.9582 C6.0769,54.5842 6.5259,54.4272 6.8989,54.6052 C9.2119,55.7152 10.2429,58.9722 9.2459,62.0192 C9.1419,62.3362 8.8489,62.5362 8.5329,62.5362" id="Fill-197" fill="#137A3F" mask="url(#mask-4)"></path>
                <path d="M26.4421,41.256 C26.3281,41.256 26.2121,41.231 26.1031,41.175 C25.0661,40.647 24.3371,39.714 24.0491,38.548 C23.6911,37.094 24.0561,35.456 25.0511,34.054 C25.2911,33.716 25.7591,33.637 26.0971,33.876 C26.4341,34.116 26.5141,34.584 26.2741,34.922 C25.5321,35.968 25.2521,37.158 25.5051,38.189 C25.6901,38.936 26.1311,39.506 26.7831,39.838 C27.1521,40.026 27.2991,40.478 27.1111,40.847 C26.9791,41.107 26.7151,41.256 26.4421,41.256" id="Fill-198" fill="#137A3F" mask="url(#mask-4)"></path>
                <path d="M18.1945,36.5851 C17.4985,36.5851 16.8275,36.4391 16.2225,36.1311 C15.8535,35.9431 15.7065,35.4911 15.8945,35.1231 C16.0825,34.7531 16.5345,34.6061 16.9035,34.7951 C18.5095,35.6121 20.9655,34.6591 22.3775,32.6691 C22.6165,32.3311 23.0855,32.2521 23.4235,32.4911 C23.7605,32.7311 23.8405,33.1991 23.6005,33.5371 C22.2365,35.4601 20.1235,36.5851 18.1945,36.5851" id="Fill-199" fill="#137A3F" mask="url(#mask-4)"></path>
                <path d="M23.0192,32.4268 C15.6422,40.3618 9.4992,49.3468 4.7982,59.0808 L14.1072,65.0958 C18.7472,55.4868 24.8112,46.6168 32.0922,38.7848 C29.0682,36.6658 26.0432,34.5468 23.0192,32.4268" id="Fill-200" fill="#1EBC61" mask="url(#mask-4)"></path>
                <path d="M5.7639,58.8126 L13.8039,64.0066 C18.3049,54.8716 24.0709,46.4356 30.9599,38.9076 L23.1249,33.4166 C16.1389,41.0226 10.3019,49.5606 5.7639,58.8126 M14.1069,65.8456 C13.9639,65.8456 13.8229,65.8046 13.6999,65.7256 L4.3919,59.7106 C4.0739,59.5056 3.9589,59.0956 4.1229,58.7556 C8.8619,48.9436 15.0339,39.9136 22.4699,31.9166 C22.7249,31.6426 23.1429,31.5986 23.4499,31.8136 L32.5229,38.1706 C32.7009,38.2956 32.8159,38.4916 32.8389,38.7066 C32.8609,38.9216 32.7899,39.1366 32.6419,39.2956 C25.4039,47.0806 19.3949,55.8706 14.7829,65.4216 C14.6889,65.6156 14.5169,65.7596 14.3099,65.8186 C14.2429,65.8366 14.1749,65.8456 14.1069,65.8456" id="Fill-201" fill="#137A3F" mask="url(#mask-4)"></path>
                <path d="M17.8903,43.3341 C17.5823,43.3341 17.2693,43.3621 16.9553,43.4221 C15.6013,43.6761 14.4273,44.4441 13.6493,45.5851 C12.8693,46.7241 12.5843,48.0881 12.8463,49.4271 C13.0903,50.6771 13.7813,51.7331 14.7923,52.4021 C16.8973,53.7951 19.7853,53.0761 21.3663,50.7671 C22.9403,48.4601 22.5463,45.5391 20.4693,44.1171 C19.7163,43.6021 18.8243,43.3341 17.8903,43.3341 M17.1623,54.6141 C16.0523,54.6141 14.9473,54.3031 13.9643,53.6531 C12.6163,52.7621 11.6963,51.3621 11.3743,49.7151 C11.0343,47.9781 11.4023,46.2111 12.4113,44.7391 C13.4143,43.2681 14.9303,42.2761 16.6793,41.9471 C18.3373,41.6361 19.9843,41.9671 21.3163,42.8791 C24.0863,44.7751 24.6523,48.6121 22.6043,51.6131 C21.2753,53.5551 19.2113,54.6131 17.1623,54.6141" id="Fill-202" fill="#137A3F" mask="url(#mask-4)"></path>
                <path d="M10.7165,63.6554 C10.6075,63.6554 10.4965,63.6324 10.3915,63.5814 C10.0185,63.4014 9.8615,62.9534 10.0415,62.5804 C10.7855,61.0374 12.0425,59.9224 13.4915,59.5194 C14.6555,59.1974 15.8315,59.3714 16.8035,60.0094 C17.1495,60.2354 17.2465,60.7014 17.0185,61.0474 C16.7915,61.3934 16.3265,61.4904 15.9805,61.2624 C15.3665,60.8594 14.6445,60.7574 13.8925,60.9664 C12.8605,61.2524 11.9485,62.0774 11.3925,63.2314 C11.2635,63.4994 10.9955,63.6554 10.7165,63.6554" id="Fill-203" fill="#137A3F" mask="url(#mask-4)"></path>
                <path d="M8.1882,62.0226 C8.0792,62.0226 7.9682,61.9986 7.8632,61.9476 C7.4902,61.7676 7.3332,61.3196 7.5132,60.9466 C8.5682,58.7576 8.2042,56.1746 6.7022,55.1896 C6.3552,54.9626 6.2592,54.4986 6.4862,54.1516 C6.7132,53.8046 7.1782,53.7086 7.5242,53.9356 C9.6682,55.3416 10.2572,58.7076 8.8642,61.5976 C8.7352,61.8656 8.4672,62.0226 8.1882,62.0226" id="Fill-204" fill="#137A3F" mask="url(#mask-4)"></path>
                <path d="M28.7599,43.2911 C28.6139,43.2911 28.4649,43.2481 28.3349,43.1581 C27.3779,42.4981 26.7799,41.4781 26.6499,40.2831 C26.4879,38.7941 27.0669,37.2181 28.2389,35.9591 C28.5219,35.6551 28.9959,35.6391 29.2999,35.9211 C29.6019,36.2031 29.6189,36.6781 29.3369,36.9801 C28.4619,37.9211 28.0259,39.0651 28.1409,40.1211 C28.2239,40.8861 28.5859,41.5091 29.1869,41.9241 C29.5279,42.1591 29.6139,42.6261 29.3779,42.9671 C29.2329,43.1781 28.9979,43.2911 28.7599,43.2911" id="Fill-205" fill="#137A3F" mask="url(#mask-4)"></path>
                <path d="M21.8015,37.6056 C20.8555,37.6056 19.9585,37.3616 19.2175,36.8496 C18.8765,36.6146 18.7915,36.1466 19.0265,35.8056 C19.2615,35.4646 19.7295,35.3796 20.0705,35.6156 C21.5525,36.6386 24.1115,36.0176 25.7745,34.2316 C26.0565,33.9286 26.5315,33.9116 26.8345,34.1936 C27.1375,34.4766 27.1545,34.9516 26.8725,35.2536 C25.4555,36.7756 23.5445,37.6056 21.8015,37.6056" id="Fill-206" fill="#137A3F" mask="url(#mask-4)"></path>
                <path d="M2.8151,59.8419 C2.7371,59.8419 2.6591,59.8299 2.5811,59.8049 C2.1881,59.6759 1.9731,59.2519 2.1021,58.8589 C5.5051,48.4829 10.4391,38.6949 16.7661,29.7639 C17.0051,29.4259 17.4741,29.3459 17.8111,29.5849 C18.1491,29.8239 18.2291,30.2929 17.9901,30.6309 C11.7501,39.4389 6.8831,49.0929 3.5271,59.3259 C3.4241,59.6419 3.1301,59.8419 2.8151,59.8419" id="Fill-207" fill="#137A3F" mask="url(#mask-4)"></path>
                <polygon id="Fill-208" fill="#FFFFFF" mask="url(#mask-4)" points="13.1848 42.3048 10.0648 48.4958 22.1708 54.4798 25.2908 48.2888"></polygon>
                <path d="M11.0744,48.1583 L21.8364,53.4773 L24.2814,48.6263 L13.5194,43.3063 L11.0744,48.1583 Z M22.1704,55.2303 C22.0584,55.2303 21.9454,55.2053 21.8384,55.1523 L9.7324,49.1683 C9.5534,49.0793 9.4164,48.9233 9.3534,48.7333 C9.2894,48.5443 9.3044,48.3373 9.3944,48.1583 L12.5154,41.9673 C12.7004,41.5993 13.1484,41.4503 13.5174,41.6323 L25.6234,47.6163 C25.8024,47.7053 25.9394,47.8613 26.0024,48.0513 C26.0654,48.2403 26.0514,48.4473 25.9604,48.6263 L22.8404,54.8173 C22.7084,55.0793 22.4444,55.2303 22.1704,55.2303 L22.1704,55.2303 Z" id="Fill-209" fill="#A4A4A4" mask="url(#mask-4)"></path>
                <polygon id="Fill-210" fill="#DBDBDB" mask="url(#mask-4)" points="8.0314 39.7569 4.9114 45.9479 11.7114 49.3099 14.8314 43.1179"></polygon>
                <path d="M5.9211,45.6114 L11.3761,48.3074 L13.8211,43.4564 L8.3661,40.7584 L5.9211,45.6114 Z M11.7111,50.0594 C11.5991,50.0594 11.4851,50.0354 11.3791,49.9824 L4.5791,46.6204 C4.4001,46.5324 4.2631,46.3764 4.2001,46.1854 C4.1361,45.9964 4.1511,45.7894 4.2411,45.6104 L7.3611,39.4204 C7.5471,39.0514 7.9941,38.9024 8.3641,39.0854 L15.1641,42.4464 C15.3431,42.5344 15.4801,42.6914 15.5431,42.8814 C15.6061,43.0704 15.5911,43.2774 15.5011,43.4564 L12.3811,49.6474 C12.2491,49.9084 11.9851,50.0594 11.7111,50.0594 L11.7111,50.0594 Z" id="Fill-211" fill="#A4A4A4" mask="url(#mask-4)"></path>
                <path d="M25.8669,52.8985 C25.9049,53.6605 25.2639,54.3335 24.4429,54.3945 L23.7039,54.4495 C22.8829,54.5095 22.1789,53.9375 22.1409,53.1755 L21.7949,46.2155 C21.7569,45.4555 22.3979,44.7825 23.2199,44.7205 L23.9579,44.6665 C24.7799,44.6045 25.4829,45.1775 25.5199,45.9395 L25.8669,52.8985 Z" id="Fill-212" fill="#A5B5B6" mask="url(#mask-4)"></path>
                <path d="M24.0768,45.4112 C24.0558,45.4112 24.0348,45.4122 24.0138,45.4142 L23.2748,45.4692 C22.8618,45.4992 22.5268,45.8242 22.5438,46.1792 L22.8898,53.1392 C22.8998,53.3242 22.9998,53.4492 23.0828,53.5222 C23.2288,53.6522 23.4348,53.7182 23.6478,53.7012 L24.3868,53.6462 C24.8008,53.6152 25.1358,53.2902 25.1178,52.9352 L24.7708,45.9762 C24.7618,45.7912 24.6618,45.6652 24.5788,45.5922 C24.4468,45.4752 24.2668,45.4112 24.0768,45.4112 M23.5868,55.2032 C23.0338,55.2032 22.4948,55.0052 22.0898,54.6472 C21.6678,54.2742 21.4198,53.7652 21.3918,53.2132 L21.0458,46.2542 C20.9878,45.0872 21.9378,44.0642 23.1638,43.9732 L23.9028,43.9182 C24.5158,43.8732 25.1238,44.0722 25.5718,44.4682 C25.9938,44.8412 26.2418,45.3492 26.2698,45.9012 L26.6158,52.8612 C26.6738,54.0272 25.7238,55.0512 24.4978,55.1412 L23.7598,55.1972 C23.7018,55.2012 23.6448,55.2032 23.5868,55.2032" id="Fill-213" fill="#354546" mask="url(#mask-4)"></path>
                <path d="M28.1384,54.7804 L27.2594,53.2514 C26.4374,51.8204 24.5944,51.3234 23.1634,52.1454 L21.6354,53.0234 C20.2044,53.8454 19.7064,55.6894 20.5294,57.1204 L21.4084,58.6484 C22.2294,60.0794 24.0734,60.5764 25.5034,59.7554 L27.0324,58.8764 C28.4624,58.0534 28.9604,56.2114 28.1384,54.7804" id="Fill-214" fill="#A5B5B6" mask="url(#mask-4)"></path>
                <path d="M24.6491,52.4981 C24.2611,52.4981 23.8801,52.5991 23.5381,52.7961 L22.0091,53.6741 C20.9331,54.2921 20.5611,55.6701 21.1791,56.7461 L22.0581,58.2741 C22.3561,58.7931 22.8401,59.1651 23.4231,59.3221 C24.0051,59.4791 24.6111,59.4021 25.1301,59.1041 L26.6581,58.2261 C27.1761,57.9281 27.5481,57.4431 27.7061,56.8601 C27.8631,56.2781 27.7861,55.6721 27.4881,55.1531 L26.6091,53.6251 C26.3121,53.1071 25.8271,52.7351 25.2441,52.5771 C25.0471,52.5241 24.8471,52.4981 24.6491,52.4981 M24.0211,60.9021 C23.6911,60.9021 23.3591,60.8581 23.0321,60.7701 C22.0631,60.5091 21.2551,59.8881 20.7571,59.0221 L19.8791,57.4931 C18.8481,55.7011 19.4691,53.4041 21.2611,52.3731 L22.7901,51.4951 C23.6551,50.9981 24.6661,50.8681 25.6351,51.1301 C26.6051,51.3921 27.4131,52.0121 27.9101,52.8781 L28.7891,54.4061 C29.2861,55.2711 29.4161,56.2821 29.1541,57.2521 C28.8921,58.2211 28.2721,59.0281 27.4061,59.5261 L25.8781,60.4041 C25.3041,60.7341 24.6671,60.9021 24.0211,60.9021" id="Fill-215" fill="#354546" mask="url(#mask-4)"></path>
            </g>
        </g>
    </g>
</svg>