<?xml version="1.0" encoding="UTF-8"?>
<svg width="118px" height="122px" viewBox="0 0 118 122" version="1.1" xmlns="http://www.w3.org/2000/svg" xmlns:xlink="http://www.w3.org/1999/xlink">
    <!-- Generator: Sketch 42 (36781) - http://www.bohemiancoding.com/sketch -->
    <title>16</title>
    <desc>Created with Sketch.</desc>
    <defs>
        <polygon id="path-1" points="63.5504 8 0.2834 8 0.2834 0.3769 63.5504 0.3769 63.5504 8"></polygon>
        <polygon id="path-3" points="0 122.041 117.643 122.041 117.643 0 0 0"></polygon>
    </defs>
    <g id="Page-1" stroke="none" stroke-width="1" fill="none" fill-rule="evenodd">
        <g id="1024" transform="translate(-444.000000, -123.000000)">
            <g id="16" transform="translate(444.000000, 123.000000)">
                <g id="Group-3" transform="translate(27.000000, 114.041000)">
                    <mask id="mask-2" fill="white">
                        <use xlink:href="#path-1"></use>
                    </mask>
                    <g id="Clip-2"></g>
                    <path d="M63.5504,4.1889 C63.5504,6.2929 49.3884,8.0009 31.9174,8.0009 C14.4464,8.0009 0.2834,6.2929 0.2834,4.1889 C0.2834,2.0849 14.4464,0.3769 31.9174,0.3769 C49.3884,0.3769 63.5504,2.0849 63.5504,4.1889" id="Fill-1" fill="#CCCCCC" mask="url(#mask-2)"></path>
                </g>
                <mask id="mask-4" fill="white">
                    <use xlink:href="#path-3"></use>
                </mask>
                <g id="Clip-5"></g>
                <polygon id="Fill-4" fill="#758586" mask="url(#mask-4)" points="50.535 87.554 66.654 87.554 66.654 75.948 50.535 75.948"></polygon>
                <path d="M51.285,86.804 L65.904,86.804 L65.904,76.698 L51.285,76.698 L51.285,86.804 Z M66.654,88.304 L50.535,88.304 C50.121,88.304 49.785,87.968 49.785,87.554 L49.785,75.948 C49.785,75.534 50.121,75.198 50.535,75.198 L66.654,75.198 C67.068,75.198 67.404,75.534 67.404,75.948 L67.404,87.554 C67.404,87.968 67.068,88.304 66.654,88.304 L66.654,88.304 Z" id="Fill-6" fill="#354546" mask="url(#mask-4)"></path>
                <polygon id="Fill-7" fill="#758586" mask="url(#mask-4)" points="54.195 61.398 63.538 61.398 63.538 52.895 54.195 52.895"></polygon>
                <path d="M54.945,60.648 L62.788,60.648 L62.788,53.645 L54.945,53.645 L54.945,60.648 Z M63.538,62.148 L54.195,62.148 C53.781,62.148 53.445,61.812 53.445,61.398 L53.445,52.895 C53.445,52.48 53.781,52.145 54.195,52.145 L63.538,52.145 C63.952,52.145 64.288,52.48 64.288,52.895 L64.288,61.398 C64.288,61.812 63.952,62.148 63.538,62.148 L63.538,62.148 Z" id="Fill-8" fill="#354546" mask="url(#mask-4)"></path>
                <path d="M63.5387,58.3979 C63.5247,58.3979 63.5117,58.3979 63.4977,58.3969 L54.1547,57.8959 C53.7417,57.8729 53.4247,57.5199 53.4457,57.1059 C53.4687,56.6929 53.8217,56.3769 54.2347,56.3979 L63.5777,56.8989 C63.9917,56.9209 64.3097,57.2739 64.2867,57.6879 C64.2657,58.0879 63.9347,58.3979 63.5387,58.3979" id="Fill-9" fill="#354546" mask="url(#mask-4)"></path>
                <path d="M21.3678,69.7524 C21.1008,68.9744 20.8448,68.1924 20.5968,67.4084 L20.2298,66.2274 C20.1098,65.8284 19.9958,65.4444 19.8758,65.0214 L24.2738,63.7934 C24.3738,64.1454 24.4878,64.5324 24.6008,64.9044 L24.9498,66.0314 C25.1878,66.7814 25.4338,67.5304 25.6878,68.2744 L21.3678,69.7524 Z" id="Fill-10" fill="#F9BF3B" mask="url(#mask-4)"></path>
                <path d="M24.9781,68.5171 C24.7221,67.7661 24.4721,67.0051 24.2351,66.2571 L23.8841,65.1261 C23.7591,64.7131 23.6451,64.3251 23.5521,63.9971 L24.9961,63.5891 C25.0851,63.9071 25.1981,64.2871 25.3191,64.6861 L25.6661,65.8091 C25.8981,66.5421 26.1451,67.2921 26.3981,68.0331 L24.9781,68.5171 Z" id="Fill-11" fill="#F1892D" mask="url(#mask-4)"></path>
                <path d="M20.6578,69.9956 C20.3888,69.2106 20.1288,68.4156 19.8818,67.6346 L19.5138,66.4496 C19.3708,65.9756 19.2608,65.5996 19.1538,65.2256 L20.5968,64.8166 C20.7018,65.1866 20.8068,65.5436 20.9478,66.0106 L21.3118,67.1856 C21.5548,67.9526 21.8128,68.7356 22.0778,69.5106 L20.6578,69.9956 Z" id="Fill-12" fill="#F1892D" mask="url(#mask-4)"></path>
                <polygon id="Fill-13" fill="#F1892D" mask="url(#mask-4)" points="20.8219 68.123 20.3699 66.693 24.7239 65.316 25.1759 66.746"></polygon>
                <path d="M23.0943,74.3999 C22.4703,72.8599 21.9023,71.3099 21.3673,69.7529 L25.6883,68.2749 C26.1983,69.7639 26.7403,71.2399 27.3263,72.6839 L23.0943,74.3999 Z" id="Fill-14" fill="#F9BF3B" mask="url(#mask-4)"></path>
                <path d="M26.6314,72.9663 C26.0774,71.6003 25.5364,70.1453 24.9794,68.5183 L26.3984,68.0313 C26.9464,69.6323 27.4784,71.0623 28.0224,72.4023 L26.6314,72.9663 Z" id="Fill-15" fill="#F1892D" mask="url(#mask-4)"></path>
                <path d="M22.4,74.6821 C21.814,73.2371 21.244,71.7041 20.658,69.9961 L22.077,69.5091 C22.654,71.1911 23.214,72.6991 23.79,74.1181 L22.4,74.6821 Z" id="Fill-16" fill="#F1892D" mask="url(#mask-4)"></path>
                <polygon id="Fill-17" fill="#F1892D" mask="url(#mask-4)" points="22.4576 72.7856 21.9366 71.3796 26.2186 69.7936 26.7396 71.1996"></polygon>
                <path d="M25.1842,78.9917 C24.3972,77.4707 23.7202,75.9397 23.0942,74.3997 L27.3272,72.6837 C27.9122,74.1277 28.5412,75.5447 29.2362,76.8847 L25.1842,78.9917 Z" id="Fill-18" fill="#F9BF3B" mask="url(#mask-4)"></path>
                <path d="M28.5699,77.229 C27.9229,75.98 27.2889,74.585 26.6319,72.966 L28.0219,72.402 C28.6609,73.978 29.2759,75.332 29.9019,76.539 L28.5699,77.229 Z" id="Fill-19" fill="#F1892D" mask="url(#mask-4)"></path>
                <path d="M24.5191,79.3364 C23.7951,77.9404 23.1221,76.4614 22.4001,74.6824 L23.7901,74.1174 C24.4941,75.8534 25.1491,77.2924 25.8501,78.6464 L24.5191,79.3364 Z" id="Fill-20" fill="#F1892D" mask="url(#mask-4)"></path>
                <polygon id="Fill-21" fill="#F1892D" mask="url(#mask-4)" points="24.3873 77.3872 23.7703 76.0202 27.9313 74.1392 28.5493 75.5062"></polygon>
                <path d="M28.7486,84.0815 C28.5056,83.8465 28.2706,83.5915 28.0316,83.3465 C27.8046,83.0845 27.5906,82.8035 27.3696,82.5325 L27.2866,82.4305 C27.2596,82.3955 27.2456,82.3735 27.2246,82.3455 L27.1066,82.1815 L26.8746,81.8525 L26.7606,81.6865 L26.6666,81.5435 L26.4846,81.2615 C26.0076,80.5085 25.5766,79.7515 25.1846,78.9915 L29.2356,76.8845 C29.5816,77.5555 29.9506,78.1985 30.3346,78.8055 L30.4796,79.0305 L30.5506,79.1415 L30.6076,79.2235 L30.8176,79.5215 C30.8776,79.6025 30.9396,79.6795 31.0066,79.7535 L28.7486,84.0815 Z" id="Fill-22" fill="#F9BF3B" mask="url(#mask-4)"></path>
                <path d="M30.4469,80.2534 C30.3659,80.1614 30.2879,80.0664 30.2159,79.9684 L30.2039,79.9524 L29.8489,79.4374 L29.7039,79.2104 C29.3009,78.5754 28.9209,77.9094 28.5689,77.2284 L29.9029,76.5404 C30.2339,77.1834 30.5929,77.8104 30.9679,78.4034 L31.2229,78.7934 L31.4259,79.0834 C31.4689,79.1424 31.5159,79.1994 31.5659,79.2544 L30.4469,80.2534 Z" id="Fill-23" fill="#F1892D" mask="url(#mask-4)"></path>
                <path d="M28.2262,84.6196 C28.0602,84.4586 27.8992,84.2906 27.7442,84.1276 C27.6622,84.0416 27.5792,83.9556 27.4962,83.8706 L27.4652,83.8386 C27.3082,83.6566 27.1602,83.4706 27.0152,83.2896 C26.9402,83.1946 26.8652,83.0996 26.7892,83.0076 L26.7032,82.8996 C26.6732,82.8646 26.6542,82.8366 26.6342,82.8086 L26.1312,82.0966 L25.8542,81.6676 C25.3792,80.9176 24.9312,80.1346 24.5182,79.3356 L25.8512,78.6466 C26.2442,79.4076 26.6692,80.1516 27.1192,80.8596 L27.4912,81.4256 L27.8562,81.9376 C27.8602,81.9446 27.8652,81.9516 27.8722,81.9596 L27.9542,82.0626 C28.0302,82.1556 28.1102,82.2556 28.1892,82.3546 C28.3242,82.5246 28.4532,82.6856 28.5842,82.8386 C28.6652,82.9216 28.7472,83.0066 28.8282,83.0906 C28.9802,83.2506 29.1242,83.4006 29.2722,83.5446 L28.2262,84.6196 Z" id="Fill-24" fill="#F1892D" mask="url(#mask-4)"></path>
                <polygon id="Fill-25" fill="#F1892D" mask="url(#mask-4)" points="26.8883 81.893 26.0813 80.629 29.9313 78.173 30.7383 79.437"></polygon>
                <path d="M34.9644,84.1176 C34.8764,84.2446 34.7774,84.3496 34.6834,84.4676 C34.5864,84.5786 34.4834,84.6786 34.3814,84.7816 C34.1664,84.9716 33.9484,85.1516 33.6944,85.2916 C33.4434,85.4336 33.1694,85.5526 32.8724,85.6256 C32.5744,85.6906 32.2734,85.7176 31.9794,85.7016 C31.3974,85.6656 30.8474,85.4866 30.3074,85.2126 C30.1734,85.1356 30.0374,85.0716 29.9054,84.9846 L29.5114,84.7156 C29.4434,84.6736 29.3814,84.6186 29.3184,84.5646 L29.1284,84.4036 L28.7484,84.0816 L31.0064,79.7536 C31.1424,79.8956 31.2894,80.0426 31.4814,80.1046 C31.5294,80.1166 31.5804,80.1196 31.6284,80.1076 C31.6774,80.0956 31.7194,80.0656 31.7564,80.0326 C31.8274,79.9626 31.8754,79.8736 31.9164,79.7826 L34.9644,84.1176 Z" id="Fill-26" fill="#F9BF3B" mask="url(#mask-4)"></path>
                <path d="M31.565,80.8657 C31.479,80.8657 31.392,80.8547 31.304,80.8337 L31.25,80.8177 C30.897,80.7037 30.659,80.4757 30.464,80.2717 L31.253,79.5167 L31.232,79.4957 C31.217,79.5107 31.21,79.5217 31.21,79.5217 C31.211,79.5197 31.218,79.5087 31.234,79.4727 L31.25,79.4797 C31.249,79.4797 31.248,79.4807 31.247,79.4817 L31.267,79.5047 L31.279,79.4937 L31.594,79.6367 L31.658,79.3757 C31.594,79.3607 31.519,79.3617 31.447,79.3807 C31.419,79.3867 31.394,79.3947 31.372,79.4047 L31.548,79.2357 C31.585,79.2737 31.681,79.3747 31.721,79.3947 L31.633,79.6547 L32.6,80.0937 C32.538,80.2297 32.445,80.4087 32.28,80.5697 L32.265,80.5837 C32.128,80.7097 31.975,80.7947 31.808,80.8357 C31.729,80.8557 31.648,80.8657 31.565,80.8657" id="Fill-27" fill="#F1892D" mask="url(#mask-4)"></path>
                <path d="M32.1471,86.4555 C32.0781,86.4555 32.0071,86.4545 31.9391,86.4505 C31.2841,86.4095 30.6401,86.2235 29.9671,85.8805 L29.9351,85.8635 C29.8941,85.8405 29.8521,85.8175 29.8101,85.7955 C29.7151,85.7445 29.6081,85.6865 29.4961,85.6125 L29.4821,85.6035 L29.0981,85.3425 C28.9931,85.2735 28.9071,85.2005 28.8361,85.1405 L28.2641,84.6535 L29.2341,83.5105 L29.8151,84.0025 C29.8461,84.0295 29.8901,84.0675 29.9071,84.0785 L29.9341,84.0965 L30.3211,84.3605 C30.3781,84.3975 30.4441,84.4335 30.5191,84.4735 C30.5671,84.4985 30.6141,84.5235 30.6621,84.5515 C31.1431,84.7945 31.5901,84.9255 32.0261,84.9525 C32.2411,84.9645 32.4701,84.9445 32.7031,84.8935 C32.9071,84.8435 33.1161,84.7585 33.3241,84.6405 C33.5221,84.5305 33.7011,84.3815 33.8671,84.2355 L33.9321,84.1705 C33.9961,84.1055 34.0561,84.0455 34.1081,83.9855 C34.1421,83.9435 34.1771,83.9025 34.2111,83.8605 C34.2651,83.7985 34.3111,83.7435 34.3461,83.6925 L35.5831,84.5425 C35.5041,84.6555 35.4261,84.7475 35.3571,84.8295 C35.3281,84.8635 35.2991,84.8975 35.2711,84.9345 L35.2501,84.9595 C35.1631,85.0595 35.0751,85.1475 34.9971,85.2265 L34.8761,85.3465 C34.6521,85.5425 34.3851,85.7685 34.0561,85.9485 C33.7341,86.1325 33.3921,86.2695 33.0491,86.3535 L33.0341,86.3565 C32.7381,86.4235 32.4401,86.4555 32.1471,86.4555" id="Fill-28" fill="#F1892D" mask="url(#mask-4)"></path>
                <polygon id="Fill-29" fill="#F1892D" mask="url(#mask-4)" points="31.232 85.768 30.734 80.171 32.228 80.039 32.726 85.635"></polygon>
                <path d="M37.1822,78.1596 C36.9542,78.8946 36.7422,79.6526 36.5092,80.4456 L36.3732,80.8996 C36.3262,81.0636 36.2732,81.2296 36.2182,81.3976 C36.1142,81.7346 35.9942,82.0606 35.8732,82.3876 C35.6262,83.0316 35.3222,83.6236 34.9642,84.1176 L31.9162,79.7826 C31.9572,79.6926 31.9922,79.5976 32.0232,79.5046 L32.0682,79.3616 L32.1272,79.1606 C32.3482,78.4076 32.5712,77.6146 32.8202,76.8106 L37.1822,78.1596 Z" id="Fill-30" fill="#F9BF3B" mask="url(#mask-4)"></path>
                <path d="M32.6002,80.0913 L31.2332,79.4743 C31.2572,79.4203 31.2822,79.3573 31.3112,79.2683 L31.4092,78.9463 C31.4682,78.7423 31.5302,78.5313 31.5902,78.3193 C31.7532,77.7583 31.9212,77.1783 32.1032,76.5893 L33.5362,77.0323 C33.3582,77.6083 33.1922,78.1813 33.0322,78.7363 C32.9702,78.9503 32.9092,79.1613 32.8472,79.3703 L32.7382,79.7303 C32.6882,79.8803 32.6472,79.9883 32.6002,80.0913" id="Fill-31" fill="#F1892D" mask="url(#mask-4)"></path>
                <path d="M35.5719,84.5571 L34.3569,83.6771 C34.6649,83.2521 34.9399,82.7271 35.1739,82.1191 C35.2779,81.8341 35.4009,81.5011 35.5019,81.1761 C35.5589,81.0021 35.6079,80.8441 35.6539,80.6891 L35.7919,80.2301 C35.8539,80.0151 35.9169,79.7971 35.9789,79.5821 C36.1439,79.0131 36.2999,78.4751 36.4659,77.9381 L37.8989,78.3821 C37.7369,78.9061 37.5829,79.4371 37.4209,79.9991 C37.3569,80.2151 37.2949,80.4341 37.2299,80.6561 L37.0919,81.1161 C37.0429,81.2841 36.9879,81.4571 36.9289,81.6331 C36.8219,81.9831 36.6919,82.3351 36.5779,82.6461 C36.2939,83.3861 35.9569,84.0271 35.5719,84.5571" id="Fill-32" fill="#F1892D" mask="url(#mask-4)"></path>
                <polygon id="Fill-33" fill="#F1892D" mask="url(#mask-4)" points="36.2984 81.1655 31.9164 79.8805 32.3384 78.4405 36.7214 79.7265"></polygon>
                <path d="M38.8043,74.0923 C38.1443,75.3153 37.6343,76.6943 37.1823,78.1593 L32.8203,76.8113 C33.3183,75.2033 33.9143,73.5393 34.7853,71.9253 L38.8043,74.0923 Z" id="Fill-34" fill="#F9BF3B" mask="url(#mask-4)"></path>
                <path d="M33.5357,77.0327 L32.1027,76.5897 C32.5337,75.1997 33.1527,73.3727 34.1257,71.5687 L35.4457,72.2807 C34.5337,73.9707 33.9457,75.7087 33.5357,77.0327" id="Fill-35" fill="#F1892D" mask="url(#mask-4)"></path>
                <path d="M37.899,78.3813 L36.465,77.9393 C37.004,76.1933 37.538,74.8593 38.145,73.7353 L39.464,74.4493 C38.905,75.4843 38.408,76.7333 37.899,78.3813" id="Fill-36" fill="#F1892D" mask="url(#mask-4)"></path>
                <polygon id="Fill-37" fill="#F1892D" mask="url(#mask-4)" points="37.6422 76.7339 33.3892 75.0689 33.9362 73.6719 38.1882 75.3369"></polygon>
                <path d="M41.2379,71.0229 C40.2709,71.8229 39.4589,72.8659 38.8039,74.0919 L34.7859,71.9249 C35.6449,70.3129 36.8209,68.7449 38.3419,67.4919 L41.2379,71.0229 Z" id="Fill-38" fill="#F9BF3B" mask="url(#mask-4)"></path>
                <path d="M35.4478,72.2778 L34.1238,71.5718 C35.1188,69.7058 36.3778,68.1378 37.8648,66.9128 L38.8188,68.0708 C37.4838,69.1708 36.3488,70.5868 35.4478,72.2778" id="Fill-39" fill="#F1892D" mask="url(#mask-4)"></path>
                <path d="M39.4664,74.4458 L38.1434,73.7398 C38.8574,72.3998 39.7374,71.2918 40.7594,70.4448 L41.7164,71.6008 C40.8454,72.3218 40.0884,73.2788 39.4664,74.4458" id="Fill-40" fill="#F1892D" mask="url(#mask-4)"></path>
                <polygon id="Fill-41" fill="#F1892D" mask="url(#mask-4)" points="39.441 72.9878 35.852 70.1638 36.779 68.9848 40.368 71.8088"></polygon>
                <path d="M44.6295,69.3764 C43.3505,69.6834 42.2095,70.2294 41.2375,71.0224 L38.3425,67.4924 C39.1035,66.8704 39.9425,66.3344 40.8255,65.9074 C41.7095,65.4794 42.6325,65.1604 43.5595,64.9374 L44.6295,69.3764 Z" id="Fill-42" fill="#F9BF3B" mask="url(#mask-4)"></path>
                <path d="M38.817,68.0727 L37.868,66.9107 C38.675,66.2507 39.561,65.6857 40.5,65.2327 C41.398,64.7977 42.369,64.4527 43.383,64.2087 L43.734,65.6667 C42.824,65.8857 41.956,66.1937 41.153,66.5827 C40.32,66.9857 39.534,67.4867 38.817,68.0727" id="Fill-43" fill="#F1892D" mask="url(#mask-4)"></path>
                <path d="M41.7125,71.604 L40.7635,70.442 C41.8105,69.587 43.0525,68.983 44.4545,68.648 L44.8035,70.106 C43.6225,70.389 42.5825,70.893 41.7125,71.604" id="Fill-44" fill="#F1892D" mask="url(#mask-4)"></path>
                <polygon id="Fill-45" fill="#F1892D" mask="url(#mask-4)" points="42.1432 70.3442 40.1512 66.2352 41.5002 65.5802 43.4932 69.6902"></polygon>
                <path d="M48.7369,69.0942 C48.0219,69.0512 47.3149,69.0422 46.6249,69.0822 C45.9349,69.1242 45.2669,69.2242 44.6299,69.3762 L43.5589,64.9372 C44.4859,64.7152 45.4179,64.5822 46.3359,64.5252 C47.2539,64.4702 48.1589,64.4832 49.0499,64.5382 L48.7369,69.0942 Z" id="Fill-46" fill="#F9BF3B" mask="url(#mask-4)"></path>
                <path d="M43.734,65.667 L43.384,64.208 C44.324,63.983 45.301,63.837 46.29,63.776 C47.177,63.724 48.095,63.728 49.097,63.79 L49.005,65.287 C48.064,65.229 47.206,65.224 46.38,65.273 C45.481,65.329 44.589,65.461 43.734,65.667" id="Fill-47" fill="#F1892D" mask="url(#mask-4)"></path>
                <path d="M44.8033,70.1059 L44.4543,68.6469 C45.1383,68.4839 45.8533,68.3779 46.5783,68.3339 C47.2663,68.2939 47.9863,68.2969 48.7823,68.3459 L48.6923,69.8429 C47.9553,69.7979 47.2933,69.7949 46.6683,69.8319 C46.0323,69.8709 45.4043,69.9629 44.8033,70.1059" id="Fill-48" fill="#F1892D" mask="url(#mask-4)"></path>
                <polygon id="Fill-49" fill="#F1892D" mask="url(#mask-4)" points="45.8766 69.1294 45.5876 64.5724 47.0846 64.4774 47.3726 69.0344"></polygon>
                <path d="M22.8267,59.5307 C24.3637,58.9287 26.1127,59.6937 26.7147,61.2297 L28.8247,66.6857 C29.4267,68.2227 28.6627,69.9717 27.1267,70.5737 L20.6427,72.9827 C19.1067,73.5847 17.9077,72.5817 17.3057,71.0457 L15.3147,65.8637 C14.7137,64.3277 14.9277,62.8167 16.4637,62.2147 L22.8267,59.5307 Z" id="Fill-50" fill="#A5B5B6" mask="url(#mask-4)"></path>
                <path d="M16.4635,62.2148 L16.4655,62.2148 L16.4635,62.2148 Z M23.1095,60.2258 L16.7555,62.9058 C16.7485,62.9078 16.7425,62.9108 16.7365,62.9128 C16.2345,63.1098 15.9325,63.4258 15.8135,63.8808 C15.6915,64.3418 15.7625,64.9488 16.0145,65.5898 L18.0065,70.7768 C18.2575,71.4188 18.6225,71.9218 19.0315,72.1868 C19.4345,72.4478 19.8715,72.4788 20.3695,72.2848 L26.8645,69.8718 C28.0075,69.4228 28.5795,68.1148 28.1265,66.9598 L26.0155,61.4998 C25.5655,60.3508 24.2625,59.7788 23.1095,60.2258 L23.1095,60.2258 Z M19.7585,73.9128 C19.2185,73.9128 18.6965,73.7568 18.2165,73.4458 C17.5365,73.0048 16.9805,72.2688 16.6085,71.3188 L14.6155,66.1328 C14.2455,65.1888 14.1565,64.2758 14.3625,63.4978 C14.6055,62.5778 15.2345,61.8938 16.1805,61.5198 L22.5355,58.8398 L22.5535,58.8328 C24.4795,58.0778 26.6585,59.0308 27.4135,60.9558 L29.5245,66.4158 C30.2775,68.3378 29.3245,70.5178 27.4005,71.2718 L20.9045,73.6858 C20.5195,73.8378 20.1345,73.9128 19.7585,73.9128 L19.7585,73.9128 Z" id="Fill-51" fill="#354546" mask="url(#mask-4)"></path>
                <polygon id="Fill-52" fill="#6D6D6D" mask="url(#mask-4)" points="31.0377 90.4614 26.7667 92.0864 8.4077 43.8304 12.6787 42.2054"></polygon>
                <path d="M9.3756,44.2646 L27.2016,91.1186 L30.0696,90.0266 L12.2436,43.1736 L9.3756,44.2646 Z M26.7676,92.8366 C26.6626,92.8366 26.5586,92.8136 26.4606,92.7696 C26.2786,92.6886 26.1376,92.5386 26.0666,92.3526 L7.7066,44.0976 C7.5606,43.7096 7.7546,43.2766 8.1416,43.1296 L12.4116,41.5046 C12.5976,41.4336 12.8046,41.4396 12.9856,41.5206 C13.1666,41.6026 13.3096,41.7526 13.3796,41.9386 L31.7386,90.1946 C31.8866,90.5816 31.6916,91.0146 31.3046,91.1626 L27.0336,92.7876 C26.9476,92.8196 26.8576,92.8366 26.7676,92.8366 L26.7676,92.8366 Z" id="Fill-53" fill="#373737" mask="url(#mask-4)"></path>
                <polygon id="Fill-54" fill="#6D6D6D" mask="url(#mask-4)" points="24.9898 48.4111 27.5748 55.2041 5.9198 63.4441 3.3348 56.6501"></polygon>
                <polygon id="Fill-55" fill="#929292" mask="url(#mask-4)" points="8.6265 54.6367 11.2115 61.4297 8.2385 62.5617 5.6535 55.7677"></polygon>
                <polygon id="Fill-56" fill="#929292" mask="url(#mask-4)" points="10.8092 53.8061 13.3942 60.5991 12.3862 60.9831 9.8012 54.1901"></polygon>
                <polygon id="Fill-57" fill="#929292" mask="url(#mask-4)" points="22.6715 49.2934 25.2555 56.0864 24.2475 56.4704 21.6635 49.6764"></polygon>
                <polygon id="Fill-58" fill="#6D6D6D" mask="url(#mask-4)" points="22.4058 41.6176 24.9898 48.4106 3.3348 56.6496 0.7498 49.8566"></polygon>
                <polygon id="Fill-59" fill="#929292" mask="url(#mask-4)" points="6.0416 47.8432 8.6266 54.6362 5.6536 55.7682 3.0686 48.9742"></polygon>
                <polygon id="Fill-60" fill="#929292" mask="url(#mask-4)" points="8.2252 47.0127 10.8092 53.8057 9.8012 54.1897 7.2172 47.3957"></polygon>
                <polygon id="Fill-61" fill="#929292" mask="url(#mask-4)" points="20.0865 42.5 22.6715 49.293 21.6635 49.677 19.0785 42.883"></polygon>
                <polygon id="Fill-62" fill="#6D6D6D" mask="url(#mask-4)" points="36.1109 77.6411 33.5269 70.8481 11.8709 79.0871 14.4559 85.8801"></polygon>
                <polygon id="Fill-63" fill="#929292" mask="url(#mask-4)" points="19.7476 83.8676 17.1626 77.0736 14.1896 78.2046 16.7746 84.9986"></polygon>
                <polygon id="Fill-64" fill="#929292" mask="url(#mask-4)" points="21.9303 83.0366 19.3463 76.2426 18.3383 76.6266 20.9223 83.4206"></polygon>
                <polygon id="Fill-65" fill="#929292" mask="url(#mask-4)" points="33.7916 78.5239 31.2076 71.7299 30.1996 72.1139 32.7846 78.9079"></polygon>
                <polygon id="Fill-66" fill="#6D6D6D" mask="url(#mask-4)" points="38.6959 84.435 36.1109 77.641 14.4559 85.88 17.0409 92.674"></polygon>
                <polygon id="Fill-67" fill="#929292" mask="url(#mask-4)" points="22.3316 90.6606 19.7476 83.8676 16.7746 84.9986 19.3596 91.7916"></polygon>
                <polygon id="Fill-68" fill="#929292" mask="url(#mask-4)" points="24.5152 89.8305 21.9302 83.0365 20.9222 83.4205 23.5072 90.2135"></polygon>
                <polygon id="Fill-69" fill="#929292" mask="url(#mask-4)" points="36.3766 85.3169 33.7916 78.5239 32.7846 78.9079 35.3686 85.7009"></polygon>
                <path d="M4.3023,57.0844 L6.3533,62.4764 L26.6073,54.7704 L24.5563,49.3784 L4.3023,57.0844 Z M5.9193,64.1934 C5.8143,64.1934 5.7093,64.1714 5.6123,64.1274 C5.4303,64.0464 5.2883,63.8964 5.2183,63.7104 L2.6333,56.9174 C2.5633,56.7304 2.5693,56.5244 2.6503,56.3434 C2.7323,56.1614 2.8823,56.0204 3.0683,55.9494 L24.7233,47.7104 C25.1113,47.5634 25.5433,47.7574 25.6913,48.1444 L28.2763,54.9374 C28.3463,55.1234 28.3403,55.3304 28.2593,55.5114 C28.1773,55.6924 28.0283,55.8344 27.8413,55.9054 L6.1863,64.1444 C6.1003,64.1774 6.0093,64.1934 5.9193,64.1934 L5.9193,64.1934 Z" id="Fill-70" fill="#373737" mask="url(#mask-4)"></path>
                <path d="M1.7174,50.291 L3.7694,55.683 L24.0234,47.977 L21.9714,42.585 L1.7174,50.291 Z M3.3344,57.4 C3.0324,57.4 2.7474,57.216 2.6334,56.917 L0.0494,50.124 C-0.0216,49.937 -0.0156,49.731 0.0664,49.55 C0.1474,49.368 0.2974,49.227 0.4834,49.156 L22.1394,40.916 C22.5264,40.77 22.9594,40.964 23.1074,41.351 L25.6914,48.145 C25.7624,48.331 25.7564,48.537 25.6744,48.718 C25.5934,48.899 25.4434,49.041 25.2574,49.112 L3.6014,57.351 C3.5134,57.384 3.4234,57.4 3.3344,57.4 L3.3344,57.4 Z" id="Fill-71" fill="#373737" mask="url(#mask-4)"></path>
                <path d="M12.8385,79.521 L14.8905,84.913 L35.1435,77.208 L33.0925,71.816 L12.8385,79.521 Z M14.4555,86.63 C14.1535,86.63 13.8685,86.447 13.7545,86.147 L11.1695,79.354 C11.0995,79.167 11.1055,78.961 11.1875,78.78 C11.2685,78.598 11.4185,78.457 11.6045,78.386 L33.2605,70.147 C33.6475,70 34.0805,70.194 34.2275,70.582 L36.8125,77.375 C36.8825,77.561 36.8765,77.767 36.7955,77.949 C36.7145,78.13 36.5645,78.272 36.3775,78.342 L14.7225,86.582 C14.6345,86.615 14.5445,86.63 14.4555,86.63 L14.4555,86.63 Z" id="Fill-72" fill="#373737" mask="url(#mask-4)"></path>
                <path d="M15.4234,86.3149 L17.4744,91.7069 L37.7284,84.0009 L35.6774,78.6089 L15.4234,86.3149 Z M17.0404,93.4239 C16.9354,93.4239 16.8304,93.4019 16.7334,93.3579 C16.5514,93.2769 16.4094,93.1269 16.3394,92.9409 L13.7544,86.1469 C13.6844,85.9609 13.6904,85.7539 13.7714,85.5739 C13.8534,85.3919 14.0024,85.2509 14.1894,85.1789 L35.8444,76.9409 C36.2324,76.7939 36.6644,76.9879 36.8124,77.3749 L39.3974,84.1689 C39.4674,84.3539 39.4614,84.5599 39.3804,84.7419 C39.2984,84.9229 39.1484,85.0649 38.9624,85.1349 L17.3074,93.3749 C17.2214,93.4079 17.1304,93.4239 17.0404,93.4239 L17.0404,93.4239 Z" id="Fill-73" fill="#373737" mask="url(#mask-4)"></path>
                <path d="M14.8375,66.4936 C14.0815,66.8246 13.1915,66.4776 12.8605,65.7216 L12.5635,65.0416 C12.2325,64.2856 12.5795,63.3966 13.3355,63.0656 L16.6375,61.5286 C17.3935,61.1976 18.2815,61.5446 18.6135,62.3006 L18.9115,62.9806 C19.2425,63.7356 18.8955,64.6246 18.1395,64.9556 L14.8375,66.4936 Z" id="Fill-74" fill="#A5B5B6" mask="url(#mask-4)"></path>
                <path d="M16.9449,62.2129 L13.6519,63.7459 C13.6469,63.7489 13.6409,63.7509 13.6359,63.7529 C13.2569,63.9189 13.0849,64.3619 13.2509,64.7409 L13.5489,65.4209 C13.6279,65.6029 13.7749,65.7429 13.9639,65.8169 C14.1479,65.8889 14.3489,65.8859 14.5299,65.8099 L17.8229,64.2759 C17.8279,64.2739 17.8339,64.2719 17.8389,64.2689 C18.0199,64.1899 18.1609,64.0429 18.2339,63.8549 C18.3069,63.6669 18.3039,63.4629 18.2239,63.2809 L17.9259,62.6019 C17.7609,62.2249 17.3229,62.0509 16.9449,62.2129 L16.9449,62.2129 Z M14.8379,66.4939 L14.8389,66.4939 L14.8379,66.4939 Z M14.2389,67.3699 C13.9619,67.3699 13.6839,67.3179 13.4179,67.2139 C12.8559,66.9949 12.4149,66.5719 12.1739,66.0229 L11.8769,65.3429 C11.3799,64.2099 11.8949,62.8839 13.0259,62.3829 L16.3209,60.8489 C16.3259,60.8459 16.3319,60.8439 16.3369,60.8419 C17.4729,60.3439 18.8019,60.8629 19.2999,61.9999 L19.5979,62.6789 C19.8389,63.2289 19.8499,63.8399 19.6319,64.4009 C19.4139,64.9589 18.9939,65.3979 18.4489,65.6399 L15.1539,67.1729 C15.1489,67.1759 15.1429,67.1779 15.1379,67.1809 C14.8499,67.3069 14.5459,67.3699 14.2389,67.3699 L14.2389,67.3699 Z" id="Fill-75" fill="#354546" mask="url(#mask-4)"></path>
                <path d="M16.689,70.3364 C15.933,70.6674 15.043,70.3204 14.712,69.5654 L14.415,68.8854 C14.084,68.1294 14.431,67.2404 15.187,66.9094 L18.489,65.3724 C19.245,65.0404 20.134,65.3884 20.465,66.1434 L20.763,66.8234 C21.094,67.5794 20.747,68.4684 19.991,68.7994 L16.689,70.3364 Z" id="Fill-76" fill="#A5B5B6" mask="url(#mask-4)"></path>
                <path d="M18.7965,66.0561 L15.5035,67.5891 C15.4985,67.5911 15.4925,67.5941 15.4875,67.5961 C15.3065,67.6761 15.1655,67.8231 15.0925,68.0111 C15.0195,68.1991 15.0225,68.4021 15.1025,68.5841 L15.4005,69.2641 C15.5655,69.6401 16.0035,69.8141 16.3815,69.6531 L19.6745,68.1191 C19.6795,68.1171 19.6855,68.1151 19.6905,68.1121 C20.0685,67.9461 20.2415,67.5031 20.0755,67.1241 L19.7775,66.4451 C19.6975,66.2631 19.5515,66.1221 19.3625,66.0491 C19.1785,65.9761 18.9775,65.9791 18.7965,66.0561 L18.7965,66.0561 Z M16.6895,70.3361 L16.6905,70.3361 L16.6895,70.3361 Z M16.0905,71.2121 C15.2235,71.2121 14.3955,70.7091 14.0255,69.8661 L13.7285,69.1861 C13.4875,68.6371 13.4765,68.0261 13.6945,67.4651 C13.9125,66.9071 14.3325,66.4671 14.8775,66.2261 L18.1725,64.6921 C18.1775,64.6891 18.1835,64.6871 18.1885,64.6851 C18.7365,64.4441 19.3485,64.4321 19.9085,64.6511 C20.4705,64.8701 20.9115,65.2941 21.1515,65.8431 L21.4495,66.5221 C21.9465,67.6561 21.4315,68.9821 20.3005,69.4831 L17.0055,71.0171 C17.0005,71.0191 16.9945,71.0211 16.9895,71.0241 C16.6965,71.1521 16.3915,71.2121 16.0905,71.2121 L16.0905,71.2121 Z" id="Fill-77" fill="#354546" mask="url(#mask-4)"></path>
                <path d="M18.2252,73.8794 C17.4692,74.2104 16.5802,73.8634 16.2492,73.1084 L15.9522,72.4284 C15.6212,71.6724 15.9672,70.7824 16.7232,70.4514 L20.0262,68.9144 C20.7812,68.5834 21.6702,68.9314 22.0012,69.6864 L22.2992,70.3664 C22.6302,71.1214 22.2832,72.0114 21.5272,72.3424 L18.2252,73.8794 Z" id="Fill-78" fill="#A5B5B6" mask="url(#mask-4)"></path>
                <path d="M20.3326,69.5991 L17.0396,71.1321 C17.0346,71.1341 17.0296,71.1371 17.0236,71.1391 C16.8426,71.2181 16.7016,71.3661 16.6286,71.5531 C16.5556,71.7421 16.5586,71.9451 16.6386,72.1261 L16.9366,72.8061 C17.0166,72.9891 17.1636,73.1291 17.3516,73.2031 C17.5366,73.2751 17.7376,73.2721 17.9176,73.1961 L21.2106,71.6621 C21.2166,71.6601 21.2216,71.6581 21.2266,71.6551 C21.4086,71.5761 21.5496,71.4281 21.6226,71.2411 C21.6956,71.0521 21.6916,70.8491 21.6116,70.6671 L21.3136,69.9881 C21.1486,69.6111 20.7106,69.4381 20.3326,69.5991 L20.3326,69.5991 Z M18.2256,73.8791 L18.2266,73.8791 L18.2256,73.8791 Z M17.6276,74.7561 C17.3506,74.7561 17.0716,74.7031 16.8056,74.6001 C16.2436,74.3801 15.8026,73.9571 15.5616,73.4091 L15.2646,72.7291 C15.0236,72.1801 15.0126,71.5691 15.2306,71.0081 C15.4486,70.4501 15.8686,70.0101 16.4136,69.7691 L19.7086,68.2351 C19.7146,68.2321 19.7196,68.2301 19.7246,68.2271 C20.8606,67.7291 22.1896,68.2491 22.6876,69.3851 L22.9856,70.0651 C23.2276,70.6141 23.2386,71.2251 23.0196,71.7871 C22.8016,72.3441 22.3816,72.7841 21.8366,73.0251 L18.5416,74.5591 C18.5366,74.5621 18.5316,74.5641 18.5256,74.5661 C18.2376,74.6931 17.9336,74.7561 17.6276,74.7561 L17.6276,74.7561 Z" id="Fill-79" fill="#354546" mask="url(#mask-4)"></path>
                <path d="M19.0904,60.9873 C19.2424,60.2403 20.0294,59.7473 20.8414,59.8913 L21.5704,60.0213 C22.3814,60.1653 22.9204,60.8943 22.7684,61.6413 L21.3794,68.4703 C21.2284,69.2173 20.4404,69.7103 19.6294,69.5663 L18.9004,69.4363 C18.0894,69.2913 17.5504,68.5633 17.7014,67.8153 L19.0904,60.9873 Z" id="Fill-80" fill="#A5B5B6" mask="url(#mask-4)"></path>
                <path d="M19.8258,61.1367 L18.4368,67.9647 C18.3998,68.1467 18.4668,68.2937 18.5278,68.3857 C18.6388,68.5467 18.8208,68.6607 19.0318,68.6977 L19.7608,68.8277 C20.1698,68.9007 20.5738,68.6687 20.6448,68.3207 L22.0338,61.4917 C22.0708,61.3097 22.0048,61.1627 21.9428,61.0727 C21.8328,60.9107 21.6488,60.7967 21.4388,60.7597 L20.7098,60.6297 C20.3018,60.5557 19.8958,60.7887 19.8258,61.1367 M19.9118,70.3417 C19.7748,70.3417 19.6378,70.3287 19.4988,70.3037 L18.7678,70.1747 C18.1628,70.0667 17.6228,69.7217 17.2878,69.2277 C16.9718,68.7617 16.8568,68.2077 16.9678,67.6657 L18.3558,60.8377 C18.5888,59.6937 19.7628,58.9387 20.9718,59.1527 L21.7018,59.2827 C22.3068,59.3897 22.8468,59.7357 23.1828,60.2287 C23.4998,60.6947 23.6138,61.2497 23.5038,61.7907 L22.1148,68.6197 C21.9088,69.6327 20.9658,70.3417 19.9118,70.3417" id="Fill-81" fill="#354546" mask="url(#mask-4)"></path>
                <path d="M26.897,62.2153 L26.239,60.5803 C25.622,59.0493 23.865,58.3023 22.335,58.9193 L20.699,59.5773 C19.168,60.1943 18.421,61.9513 19.038,63.4813 L19.697,65.1163 C20.314,66.6473 22.071,67.3953 23.601,66.7783 L25.236,66.1193 C26.766,65.5023 27.514,63.7453 26.897,62.2153" id="Fill-82" fill="#A5B5B6" mask="url(#mask-4)"></path>
                <path d="M23.4527,59.4511 C23.1737,59.4511 22.8897,59.5031 22.6147,59.6141 L20.9797,60.2731 C19.8287,60.7371 19.2697,62.0501 19.7337,63.2011 L20.3917,64.8361 C20.6157,65.3901 21.0447,65.8261 21.5997,66.0621 C22.1547,66.2991 22.7657,66.3051 23.3207,66.0821 L24.9557,65.4231 C26.1057,64.9601 26.6657,63.6461 26.2017,62.4951 L25.5427,60.8601 C25.1897,59.9841 24.3447,59.4511 23.4527,59.4511 M22.4857,67.7461 C21.9867,67.7461 21.4867,67.6451 21.0127,67.4431 C20.0887,67.0501 19.3747,66.3231 19.0017,65.3971 L18.3427,63.7621 C17.5697,61.8441 18.5017,59.6551 20.4197,58.8821 L22.0547,58.2231 C23.9727,57.4511 26.1617,58.3821 26.9337,60.3001 L27.5937,61.9351 C28.3657,63.8531 27.4337,66.0421 25.5157,66.8151 L23.8817,67.4731 C23.4317,67.6551 22.9587,67.7461 22.4857,67.7461" id="Fill-83" fill="#354546" mask="url(#mask-4)"></path>
                <path d="M91.9547,68.2749 C92.2097,67.5299 92.4557,66.7819 92.6927,66.0309 L93.0427,64.9039 C93.1547,64.5329 93.2687,64.1449 93.3687,63.7939 L97.7667,65.0219 C97.6477,65.4439 97.5337,65.8289 97.4127,66.2279 L97.0477,67.4079 C96.7987,68.1929 96.5417,68.9739 96.2757,69.7529 L91.9547,68.2749 Z" id="Fill-84" fill="#F9BF3B" mask="url(#mask-4)"></path>
                <path d="M96.9859,69.9956 L95.5659,69.5106 C95.8309,68.7356 96.0889,67.9526 96.3319,67.1816 L96.6959,66.0056 C96.8369,65.5416 96.9419,65.1846 97.0459,64.8166 L98.4889,65.2256 C98.3819,65.6026 98.2749,65.9676 98.1309,66.4446 L97.7629,67.6296 C97.5149,68.4156 97.2539,69.2106 96.9859,69.9956" id="Fill-85" fill="#F1892D" mask="url(#mask-4)"></path>
                <path d="M92.6646,68.5171 L91.2446,68.0331 C91.4986,67.2901 91.7456,66.5401 91.9776,65.8051 L92.3256,64.6831 C92.4456,64.2871 92.5576,63.9071 92.6466,63.5891 L94.0906,63.9971 C93.9986,64.3251 93.8836,64.7131 93.7596,65.1221 L93.4096,66.2531 C93.1726,67.0031 92.9216,67.7641 92.6646,68.5171" id="Fill-86" fill="#F1892D" mask="url(#mask-4)"></path>
                <polygon id="Fill-87" fill="#F1892D" mask="url(#mask-4)" points="96.8209 68.123 92.4669 66.746 92.9199 65.316 97.2729 66.693"></polygon>
                <path d="M90.317,72.6841 C90.903,71.2401 91.444,69.7641 91.955,68.2751 L96.276,69.7521 C95.742,71.3101 95.173,72.8601 94.548,74.4001 L90.317,72.6841 Z" id="Fill-88" fill="#F9BF3B" mask="url(#mask-4)"></path>
                <path d="M95.2437,74.6821 L93.8527,74.1181 C94.4297,72.6991 94.9887,71.1911 95.5657,69.5091 L96.9847,69.9961 C96.3987,71.7041 95.8297,73.2371 95.2437,74.6821" id="Fill-89" fill="#F1892D" mask="url(#mask-4)"></path>
                <path d="M91.0113,72.9663 L89.6213,72.4023 C90.1643,71.0633 90.6963,69.6333 91.2453,68.0313 L92.6643,68.5183 C92.1063,70.1463 91.5653,71.6013 91.0113,72.9663" id="Fill-90" fill="#F1892D" mask="url(#mask-4)"></path>
                <polygon id="Fill-91" fill="#F1892D" mask="url(#mask-4)" points="95.1852 72.7856 90.9032 71.1996 91.4242 69.7936 95.7062 71.3796"></polygon>
                <path d="M88.4068,76.8842 C89.1018,75.5442 89.7308,74.1272 90.3168,72.6842 L94.5488,74.4002 C93.9238,75.9402 93.2458,77.4712 92.4588,78.9912 L88.4068,76.8842 Z" id="Fill-92" fill="#F9BF3B" mask="url(#mask-4)"></path>
                <path d="M93.1246,79.3364 L91.7926,78.6464 C92.4946,77.2914 93.1486,75.8534 93.8536,74.1174 L95.2436,74.6824 C94.5206,76.4604 93.8486,77.9404 93.1246,79.3364" id="Fill-93" fill="#F1892D" mask="url(#mask-4)"></path>
                <path d="M89.0728,77.229 L87.7418,76.539 C88.3668,75.332 88.9818,73.979 89.6218,72.402 L91.0108,72.966 C90.3538,74.586 89.7198,75.981 89.0728,77.229" id="Fill-94" fill="#F1892D" mask="url(#mask-4)"></path>
                <polygon id="Fill-95" fill="#F1892D" mask="url(#mask-4)" points="93.2555 77.3872 89.0945 75.5062 89.7115 74.1392 93.8735 76.0202"></polygon>
                <path d="M86.6363,79.7534 C86.7023,79.6794 86.7663,79.6024 86.8253,79.5224 L87.0343,79.2234 L87.0923,79.1414 L87.1633,79.0304 L87.3083,78.8054 C87.6923,78.1984 88.0613,77.5554 88.4073,76.8844 L92.4583,78.9914 C92.0663,79.7514 91.6353,80.5084 91.1573,81.2614 L90.9763,81.5434 L90.8833,81.6874 L90.7683,81.8524 L90.5363,82.1814 L90.4193,82.3454 C90.3983,82.3734 90.3833,82.3964 90.3563,82.4304 L90.2743,82.5324 C90.0523,82.8034 89.8383,83.0844 89.6113,83.3464 C89.3713,83.5914 89.1373,83.8464 88.8943,84.0814 L86.6363,79.7534 Z" id="Fill-96" fill="#F9BF3B" mask="url(#mask-4)"></path>
                <path d="M89.4176,84.6196 L88.3716,83.5446 C88.5196,83.4006 88.6636,83.2496 88.8166,83.0906 C88.8966,83.0056 88.9786,82.9216 89.0596,82.8386 C89.1906,82.6856 89.3186,82.5246 89.4546,82.3536 C89.5336,82.2556 89.6126,82.1556 89.6926,82.0576 L89.7716,81.9606 C89.7786,81.9516 89.7826,81.9446 89.7876,81.9376 L90.2606,81.2686 L90.5266,80.8546 C90.9736,80.1526 91.3986,79.4076 91.7926,78.6466 L93.1246,79.3356 C92.7126,80.1356 92.2636,80.9186 91.7916,81.6626 L91.3856,82.2796 L91.0096,82.8076 C90.9896,82.8366 90.9696,82.8636 90.9396,82.8996 L90.8576,83.0026 C90.7786,83.0996 90.7026,83.1946 90.6276,83.2896 C90.4836,83.4706 90.3346,83.6566 90.1776,83.8386 L90.1466,83.8706 C90.0636,83.9556 89.9816,84.0416 89.8996,84.1276 C89.7446,84.2896 89.5836,84.4576 89.4176,84.6196" id="Fill-97" fill="#F1892D" mask="url(#mask-4)"></path>
                <path d="M87.1959,80.2534 L86.0779,79.2544 C86.1269,79.1994 86.1739,79.1424 86.2169,79.0834 L86.5329,78.6244 L86.6769,78.3994 C87.0499,77.8104 87.4089,77.1844 87.7409,76.5404 L89.0739,77.2284 C88.7219,77.9094 88.3419,78.5754 87.9419,79.2064 L87.6499,79.6514 L87.4279,79.9684 C87.3559,80.0664 87.2779,80.1614 87.1959,80.2534" id="Fill-98" fill="#F1892D" mask="url(#mask-4)"></path>
                <polygon id="Fill-99" fill="#F1892D" mask="url(#mask-4)" points="90.7545 81.893 86.9045 79.437 87.7115 78.173 91.5615 80.629"></polygon>
                <path d="M85.7262,79.7827 C85.7672,79.8737 85.8162,79.9627 85.8872,80.0327 C85.9232,80.0657 85.9652,80.0947 86.0142,80.1077 C86.0632,80.1197 86.1142,80.1167 86.1622,80.1047 C86.3532,80.0427 86.5002,79.8957 86.6362,79.7537 L88.8942,84.0817 L88.5152,84.4037 L88.3252,84.5647 C88.2622,84.6187 88.1992,84.6737 88.1322,84.7157 L87.7382,84.9847 C87.6062,85.0717 87.4702,85.1357 87.3362,85.2127 C86.7952,85.4867 86.2472,85.6657 85.6642,85.7017 C85.3712,85.7177 85.0682,85.6907 84.7712,85.6257 C84.4742,85.5527 84.1992,85.4337 83.9482,85.2917 C83.6942,85.1517 83.4762,84.9707 83.2612,84.7817 C83.1602,84.6787 83.0562,84.5787 82.9592,84.4677 C82.8672,84.3497 82.7662,84.2447 82.6782,84.1177 L85.7262,79.7827 Z" id="Fill-100" fill="#F9BF3B" mask="url(#mask-4)"></path>
                <path d="M85.4967,86.4555 C85.2017,86.4555 84.9047,86.4225 84.6087,86.3565 L84.5937,86.3535 C84.2507,86.2695 83.9087,86.1325 83.5777,85.9435 C83.2577,85.7675 82.9907,85.5425 82.7677,85.3465 L82.7247,85.3055 L82.6457,85.2265 C82.5687,85.1475 82.4807,85.0595 82.3937,84.9605 L82.3717,84.9335 C82.3437,84.8975 82.3147,84.8635 82.2857,84.8295 C82.2167,84.7475 82.1387,84.6545 82.0597,84.5425 L83.2977,83.6925 C83.3317,83.7435 83.3777,83.7985 83.4317,83.8605 C83.4657,83.9015 83.5007,83.9435 83.5347,83.9855 C83.5877,84.0455 83.6467,84.1055 83.7107,84.1695 L83.7757,84.2355 C83.9767,84.4115 84.1387,84.5395 84.3097,84.6355 C84.5267,84.7585 84.7357,84.8435 84.9407,84.8935 C85.1727,84.9445 85.4017,84.9645 85.6227,84.9525 C86.0537,84.9255 86.4997,84.7945 86.9807,84.5515 C87.0287,84.5235 87.0767,84.4985 87.1247,84.4735 C87.1997,84.4335 87.2657,84.3975 87.3217,84.3605 L87.7367,84.0775 C87.7537,84.0665 87.7967,84.0295 87.8287,84.0025 L88.4087,83.5105 L89.3797,84.6535 L88.8097,85.1365 C88.7367,85.1995 88.6497,85.2735 88.5447,85.3425 L88.1477,85.6125 C88.0357,85.6865 87.9277,85.7445 87.8327,85.7955 C87.7907,85.8175 87.7487,85.8405 87.7077,85.8635 L87.6767,85.8805 C87.0027,86.2235 86.3597,86.4095 85.7107,86.4495 C85.6397,86.4535 85.5677,86.4555 85.4967,86.4555" id="Fill-101" fill="#F1892D" mask="url(#mask-4)"></path>
                <path d="M86.0787,80.8657 C85.9947,80.8657 85.9127,80.8547 85.8317,80.8357 C85.6687,80.7947 85.5147,80.7097 85.3777,80.5827 L85.3637,80.5697 C85.1987,80.4087 85.1057,80.2297 85.0437,80.0937 L86.0157,79.6517 L85.9307,79.3907 C85.9617,79.3747 86.0577,79.2737 86.0947,79.2357 L86.2717,79.4047 C86.2487,79.3957 86.2237,79.3867 86.1937,79.3797 C86.1247,79.3617 86.0497,79.3597 85.9857,79.3757 L86.0487,79.6367 L86.3637,79.4937 L86.3767,79.5057 L86.3967,79.4827 L86.3937,79.4797 L86.4087,79.4727 C86.4257,79.5087 86.4327,79.5197 86.4337,79.5217 C86.4337,79.5217 86.4267,79.5107 86.4107,79.4957 L86.3897,79.5167 L87.1797,80.2717 C86.9837,80.4757 86.7457,80.7037 86.3927,80.8177 L86.3387,80.8337 C86.2517,80.8547 86.1647,80.8657 86.0787,80.8657" id="Fill-102" fill="#F1892D" mask="url(#mask-4)"></path>
                <polygon id="Fill-103" fill="#F1892D" mask="url(#mask-4)" points="86.4107 85.768 84.9167 85.635 85.4147 80.039 86.9087 80.171"></polygon>
                <path d="M84.8238,76.811 C85.0728,77.615 85.2958,78.408 85.5148,79.161 L85.5758,79.362 L85.6208,79.504 C85.6518,79.598 85.6848,79.693 85.7258,79.783 L82.6778,84.118 C82.3208,83.623 82.0168,83.032 81.7688,82.387 C81.6498,82.061 81.5298,81.735 81.4258,81.398 C81.3698,81.23 81.3178,81.064 81.2698,80.9 L81.1338,80.446 C80.9018,79.653 80.6878,78.895 80.4608,78.16 L84.8238,76.811 Z" id="Fill-104" fill="#F9BF3B" mask="url(#mask-4)"></path>
                <path d="M82.0719,84.5571 C81.6869,84.0271 81.3499,83.3871 81.0689,82.6561 C80.9509,82.3341 80.8209,81.9821 80.7089,81.6191 C80.6549,81.4571 80.5999,81.2831 80.5509,81.1111 L80.4149,80.6611 C80.3489,80.4361 80.2869,80.2191 80.2249,80.0051 C80.0609,79.4411 79.9069,78.9071 79.7449,78.3821 L81.1769,77.9381 C81.3439,78.4771 81.5009,79.0171 81.6659,79.5881 C81.7269,79.8011 81.7899,80.0171 81.8529,80.2351 L81.9879,80.6851 C82.0349,80.8451 82.0849,81.0021 82.1369,81.1621 C82.2429,81.5001 82.3599,81.8191 82.4729,82.1271 C82.7039,82.7281 82.9779,83.2521 83.2859,83.6771 L82.0719,84.5571 Z" id="Fill-105" fill="#F1892D" mask="url(#mask-4)"></path>
                <path d="M85.0426,80.0913 C84.9966,79.9883 84.9546,79.8803 84.9086,79.7393 L84.7966,79.3743 C84.7346,79.1633 84.6746,78.9533 84.6126,78.7413 C84.4516,78.1853 84.2856,77.6103 84.1066,77.0323 L85.5396,76.5893 C85.7226,77.1803 85.8916,77.7623 86.0546,78.3243 C86.1146,78.5353 86.1756,78.7443 86.2346,78.9493 L86.3356,79.2793 C86.3616,79.3573 86.3856,79.4203 86.4096,79.4743 L85.0426,80.0913 Z" id="Fill-106" fill="#F1892D" mask="url(#mask-4)"></path>
                <polygon id="Fill-107" fill="#F1892D" mask="url(#mask-4)" points="81.3443 81.1655 80.9223 79.7265 85.3043 78.4405 85.7263 79.8805"></polygon>
                <path d="M82.858,71.9253 C83.728,73.5393 84.326,75.2033 84.824,76.8113 L80.461,78.1593 C80.008,76.6943 79.5,75.3153 78.838,74.0923 L82.858,71.9253 Z" id="Fill-108" fill="#F9BF3B" mask="url(#mask-4)"></path>
                <path d="M79.7437,78.3813 C79.2357,76.7333 78.7377,75.4843 78.1787,74.4493 L79.4987,73.7353 C80.1047,74.8593 80.6397,76.1933 81.1777,77.9393 L79.7437,78.3813 Z" id="Fill-109" fill="#F1892D" mask="url(#mask-4)"></path>
                <path d="M84.107,77.0327 C83.697,75.7087 83.109,73.9707 82.198,72.2807 L83.518,71.5687 C84.491,73.3727 85.11,75.1997 85.54,76.5897 L84.107,77.0327 Z" id="Fill-110" fill="#F1892D" mask="url(#mask-4)"></path>
                <polygon id="Fill-111" fill="#F1892D" mask="url(#mask-4)" points="80.0016 76.7339 79.4546 75.3369 83.7076 73.6719 84.2536 75.0689"></polygon>
                <path d="M79.3014,67.4922 C80.8224,68.7442 81.9984,70.3132 82.8584,71.9252 L78.8384,74.0922 C78.1844,72.8662 77.3714,71.8232 76.4054,71.0232 L79.3014,67.4922 Z" id="Fill-112" fill="#F9BF3B" mask="url(#mask-4)"></path>
                <path d="M78.1764,74.4458 C77.5544,73.2788 76.7974,72.3218 75.9274,71.6008 L76.8834,70.4448 C77.9054,71.2918 78.7854,72.3998 79.5004,73.7398 L78.1764,74.4458 Z" id="Fill-113" fill="#F1892D" mask="url(#mask-4)"></path>
                <path d="M82.1959,72.2778 C81.2939,70.5858 80.1599,69.1708 78.8249,68.0708 L79.7779,66.9128 C81.2649,68.1378 82.5239,69.7058 83.5189,71.5718 L82.1959,72.2778 Z" id="Fill-114" fill="#F1892D" mask="url(#mask-4)"></path>
                <polygon id="Fill-115" fill="#F1892D" mask="url(#mask-4)" points="78.2027 72.9878 77.2747 71.8088 80.8637 68.9848 81.7917 70.1638"></polygon>
                <path d="M74.0846,64.9375 C75.0116,65.1605 75.9346,65.4795 76.8166,65.9075 C77.6996,66.3345 78.5406,66.8705 79.3016,67.4925 L76.4046,71.0225 C75.4346,70.2295 74.2926,69.6835 73.0146,69.3765 L74.0846,64.9375 Z" id="Fill-116" fill="#F9BF3B" mask="url(#mask-4)"></path>
                <path d="M75.9312,71.604 C75.0602,70.893 74.0202,70.389 72.8392,70.106 L73.1892,68.648 C74.5902,68.983 75.8322,69.587 76.8792,70.442 L75.9312,71.604 Z" id="Fill-117" fill="#F1892D" mask="url(#mask-4)"></path>
                <path d="M78.8268,68.0727 C78.1088,67.4867 77.3238,66.9857 76.4908,66.5827 C75.6878,66.1937 74.8198,65.8857 73.9088,65.6667 L74.2598,64.2087 C75.2748,64.4527 76.2458,64.7977 77.1438,65.2327 C78.0818,65.6857 78.9678,66.2507 79.7758,66.9107 L78.8268,68.0727 Z" id="Fill-118" fill="#F1892D" mask="url(#mask-4)"></path>
                <polygon id="Fill-119" fill="#F1892D" mask="url(#mask-4)" points="75.5006 70.3442 74.1496 69.6902 76.1426 65.5802 77.4916 66.2352"></polygon>
                <path d="M68.5924,64.5385 C69.4854,64.4835 70.3894,64.4705 71.3074,64.5245 C72.2254,64.5815 73.1564,64.7155 74.0844,64.9375 L73.0144,69.3765 C72.3754,69.2245 71.7074,69.1245 71.0184,69.0825 C70.3284,69.0425 69.6214,69.0515 68.9054,69.0945 L68.5924,64.5385 Z" id="Fill-120" fill="#F9BF3B" mask="url(#mask-4)"></path>
                <path d="M72.8394,70.1059 C72.2394,69.9629 71.6114,69.8709 70.9724,69.8309 C70.3504,69.7939 69.6884,69.7979 68.9504,69.8429 L68.8604,68.3459 C69.6564,68.2969 70.3774,68.2939 71.0624,68.3339 C71.7894,68.3779 72.5044,68.4839 73.1894,68.6469 L72.8394,70.1059 Z" id="Fill-121" fill="#F1892D" mask="url(#mask-4)"></path>
                <path d="M73.9098,65.667 C73.0538,65.461 72.1628,65.329 71.2618,65.273 C70.4378,65.225 69.5798,65.229 68.6388,65.287 L68.5468,63.79 C69.5478,63.728 70.4658,63.724 71.3518,63.776 C72.3418,63.837 73.3188,63.983 74.2598,64.208 L73.9098,65.667 Z" id="Fill-122" fill="#F1892D" mask="url(#mask-4)"></path>
                <polygon id="Fill-123" fill="#F1892D" mask="url(#mask-4)" points="71.7672 69.1294 70.2702 69.0344 70.5592 64.4774 72.0562 64.5724"></polygon>
                <path d="M94.816,59.5307 C93.28,58.9287 91.53,59.6937 90.928,61.2297 L88.818,66.6857 C88.216,68.2227 88.981,69.9717 90.517,70.5737 L97,72.9827 C98.536,73.5847 99.735,72.5817 100.337,71.0457 L102.328,65.8637 C102.929,64.3277 102.715,62.8167 101.179,62.2147 L94.816,59.5307 Z" id="Fill-124" fill="#A5B5B6" mask="url(#mask-4)"></path>
                <path d="M93.7242,60.0742 C92.8252,60.0742 91.9742,60.6162 91.6262,61.5032 L89.5182,66.9562 C89.0642,68.1152 89.6352,69.4232 90.7902,69.8752 L97.2612,72.2802 C97.7712,72.4802 98.2082,72.4482 98.6112,72.1872 C99.0202,71.9212 99.3852,71.4182 99.6392,70.7722 L101.6272,65.5952 C101.8802,64.9492 101.9522,64.3422 101.8302,63.8802 C101.7102,63.4262 101.4082,63.1102 100.9062,62.9132 L100.8882,62.9062 L94.5342,60.2262 C94.2682,60.1232 93.9942,60.0742 93.7242,60.0742 M97.8872,73.9112 C97.5082,73.9112 97.1192,73.8342 96.7262,73.6812 L90.2552,71.2772 C88.3182,70.5182 87.3662,68.3372 88.1202,66.4122 L90.2292,60.9592 C90.9852,59.0312 93.1642,58.0782 95.0892,58.8322 L95.1072,58.8402 L101.4622,61.5202 C102.4102,61.8942 103.0372,62.5772 103.2812,63.4972 C103.4862,64.2752 103.3982,65.1882 103.0262,66.1372 L101.0372,71.3142 C100.6622,72.2692 100.1072,73.0042 99.4262,73.4462 C98.9482,73.7552 98.4282,73.9112 97.8872,73.9112" id="Fill-125" fill="#354546" mask="url(#mask-4)"></path>
                <polygon id="Fill-126" fill="#6D6D6D" mask="url(#mask-4)" points="86.6051 90.4614 90.8761 92.0864 109.2351 43.8304 104.9641 42.2054"></polygon>
                <path d="M87.5728,90.0268 L90.4418,91.1188 L108.2668,44.2648 L105.3988,43.1728 L87.5728,90.0268 Z M90.8758,92.8368 C90.7858,92.8368 90.6948,92.8198 90.6088,92.7878 L86.3388,91.1628 C85.9518,91.0148 85.7578,90.5818 85.9038,90.1948 L104.2638,41.9388 C104.3348,41.7528 104.4758,41.6028 104.6578,41.5208 C104.8398,41.4398 105.0458,41.4338 105.2308,41.5048 L109.5018,43.1298 C109.8888,43.2768 110.0838,43.7098 109.9358,44.0968 L91.5768,92.3528 C91.5068,92.5388 91.3638,92.6888 91.1828,92.7698 C91.0858,92.8138 90.9808,92.8368 90.8758,92.8368 L90.8758,92.8368 Z" id="Fill-127" fill="#373737" mask="url(#mask-4)"></path>
                <polygon id="Fill-128" fill="#6D6D6D" mask="url(#mask-4)" points="92.6529 48.4111 90.0679 55.2041 111.7239 63.4441 114.3079 56.6501"></polygon>
                <polygon id="Fill-129" fill="#929292" mask="url(#mask-4)" points="109.0172 54.6367 106.4322 61.4297 109.4052 62.5617 111.9902 55.7677"></polygon>
                <polygon id="Fill-130" fill="#929292" mask="url(#mask-4)" points="106.8336 53.8061 104.2486 60.5991 105.2566 60.9831 107.8416 54.1901"></polygon>
                <polygon id="Fill-131" fill="#929292" mask="url(#mask-4)" points="94.9723 49.2934 92.3873 56.0864 93.3953 56.4704 95.9803 49.6764"></polygon>
                <polygon id="Fill-132" fill="#6D6D6D" mask="url(#mask-4)" points="95.2379 41.6176 92.6529 48.4106 114.3079 56.6496 116.8929 49.8566"></polygon>
                <polygon id="Fill-133" fill="#929292" mask="url(#mask-4)" points="111.6012 47.8432 109.0172 54.6362 111.9902 55.7682 114.5742 48.9742"></polygon>
                <polygon id="Fill-134" fill="#929292" mask="url(#mask-4)" points="109.4185 47.0127 106.8335 53.8057 107.8415 54.1897 110.4265 47.3957"></polygon>
                <polygon id="Fill-135" fill="#929292" mask="url(#mask-4)" points="97.5572 42.5 94.9722 49.293 95.9802 49.677 98.5652 42.883"></polygon>
                <polygon id="Fill-136" fill="#6D6D6D" mask="url(#mask-4)" points="81.5318 77.6411 84.1168 70.8481 105.7718 79.0871 103.1878 85.8801"></polygon>
                <polygon id="Fill-137" fill="#929292" mask="url(#mask-4)" points="97.8961 83.8676 100.4801 77.0736 103.4531 78.2046 100.8691 84.9986"></polygon>
                <polygon id="Fill-138" fill="#929292" mask="url(#mask-4)" points="95.7125 83.0366 98.2975 76.2426 99.3055 76.6266 96.7205 83.4206"></polygon>
                <polygon id="Fill-139" fill="#929292" mask="url(#mask-4)" points="83.8512 78.5239 86.4362 71.7299 87.4442 72.1139 84.8592 78.9079"></polygon>
                <polygon id="Fill-140" fill="#6D6D6D" mask="url(#mask-4)" points="78.9469 84.435 81.5319 77.641 103.1879 85.88 100.6029 92.674"></polygon>
                <polygon id="Fill-141" fill="#929292" mask="url(#mask-4)" points="95.3111 90.6606 97.8961 83.8676 100.8691 84.9986 98.2841 91.7916"></polygon>
                <polygon id="Fill-142" fill="#929292" mask="url(#mask-4)" points="93.1275 89.8305 95.7125 83.0365 96.7205 83.4205 94.1355 90.2135"></polygon>
                <polygon id="Fill-143" fill="#929292" mask="url(#mask-4)" points="81.2662 85.3169 83.8512 78.5239 84.8592 78.9079 82.2742 85.7009"></polygon>
                <path d="M91.0357,54.77 L111.2897,62.476 L113.3407,57.084 L93.0877,49.379 L91.0357,54.77 Z M111.7237,64.194 C111.6337,64.194 111.5437,64.177 111.4577,64.145 L89.8017,55.905 C89.6157,55.834 89.4657,55.693 89.3847,55.512 C89.3027,55.33 89.2967,55.124 89.3677,54.937 L91.9517,48.145 C92.0987,47.757 92.5327,47.563 92.9197,47.71 L114.5757,55.949 C114.7617,56.02 114.9117,56.162 114.9927,56.343 C115.0737,56.524 115.0807,56.731 115.0097,56.917 L112.4257,63.71 C112.3537,63.896 112.2127,64.046 112.0307,64.128 C111.9327,64.171 111.8287,64.194 111.7237,64.194 L111.7237,64.194 Z" id="Fill-144" fill="#373737" mask="url(#mask-4)"></path>
                <path d="M93.6207,47.977 L113.8747,55.683 L115.9257,50.291 L95.6717,42.585 L93.6207,47.977 Z M114.3077,57.4 C114.2197,57.4 114.1297,57.384 114.0417,57.351 L92.3867,49.112 C92.2007,49.041 92.0507,48.899 91.9687,48.718 C91.8877,48.537 91.8817,48.331 91.9517,48.144 L94.5367,41.351 C94.6837,40.964 95.1167,40.769 95.5047,40.916 L117.1597,49.156 C117.3467,49.227 117.4957,49.368 117.5777,49.55 C117.6587,49.731 117.6647,49.937 117.5947,50.123 L115.0097,56.917 C114.8957,57.216 114.6107,57.4 114.3077,57.4 L114.3077,57.4 Z" id="Fill-145" fill="#373737" mask="url(#mask-4)"></path>
                <path d="M82.4996,77.2075 L102.7536,84.9125 L104.8046,79.5205 L84.5516,71.8155 L82.4996,77.2075 Z M103.1866,86.6305 C103.0996,86.6305 103.0086,86.6145 102.9216,86.5815 L81.2656,78.3425 C81.0796,78.2715 80.9296,78.1305 80.8476,77.9485 C80.7666,77.7675 80.7606,77.5615 80.8306,77.3745 L83.4156,70.5815 C83.5626,70.1935 83.9966,69.9995 84.3836,70.1465 L106.0386,78.3865 C106.2256,78.4565 106.3756,78.5985 106.4566,78.7795 C106.5376,78.9615 106.5436,79.1675 106.4736,79.3535 L103.8886,86.1465 C103.7746,86.4465 103.4896,86.6305 103.1866,86.6305 L103.1866,86.6305 Z" id="Fill-146" fill="#373737" mask="url(#mask-4)"></path>
                <path d="M79.9146,84.0005 L100.1686,91.7065 L102.2206,86.3145 L81.9666,78.6085 L79.9146,84.0005 Z M100.6026,93.4245 C100.5146,93.4245 100.4246,93.4085 100.3366,93.3745 L78.6806,85.1355 C78.4946,85.0645 78.3446,84.9235 78.2636,84.7415 C78.1816,84.5605 78.1756,84.3545 78.2466,84.1685 L80.8306,77.3745 C80.9776,76.9875 81.4116,76.7935 81.7986,76.9405 L103.4546,85.1795 C103.6406,85.2505 103.7906,85.3925 103.8716,85.5735 C103.9536,85.7555 103.9596,85.9615 103.8886,86.1465 L101.3046,92.9405 C101.1896,93.2395 100.9046,93.4245 100.6026,93.4245 L100.6026,93.4245 Z" id="Fill-147" fill="#373737" mask="url(#mask-4)"></path>
                <path d="M102.8062,66.4936 C103.5612,66.8246 104.4512,66.4776 104.7822,65.7216 L105.0792,65.0416 C105.4102,64.2856 105.0642,63.3966 104.3082,63.0656 L101.0052,61.5286 C100.2492,61.1976 99.3612,61.5446 99.0302,62.3006 L98.7322,62.9806 C98.4012,63.7356 98.7472,64.6246 99.5032,64.9556 L102.8062,66.4936 Z" id="Fill-148" fill="#A5B5B6" mask="url(#mask-4)"></path>
                <path d="M103.1139,65.8095 C103.2939,65.8865 103.4949,65.8895 103.6799,65.8165 C103.8679,65.7435 104.0149,65.6025 104.0949,65.4205 L104.3929,64.7405 C104.5589,64.3625 104.3849,63.9185 104.0069,63.7525 C104.0019,63.7505 103.9969,63.7485 103.9919,63.7465 L100.6979,62.2125 C100.3209,62.0525 99.8819,62.2255 99.7169,62.6015 L99.4189,63.2815 C99.2529,63.6605 99.4259,64.1035 99.8039,64.2685 C99.8099,64.2715 99.8149,64.2735 99.8199,64.2765 L103.1139,65.8095 Z M103.4039,67.3705 C103.0979,67.3705 102.7929,67.3065 102.5049,67.1805 L102.4899,67.1735 L99.1939,65.6395 C98.0639,65.1385 97.5489,63.8125 98.0449,62.6795 L98.3429,61.9995 C98.8409,60.8625 100.1709,60.3435 101.3059,60.8415 C101.3119,60.8445 101.3169,60.8465 101.3219,60.8485 L104.6179,62.3825 C105.7479,62.8835 106.2629,64.2095 105.7669,65.3425 L105.4679,66.0225 C105.2279,66.5715 104.7869,66.9945 104.2259,67.2135 C103.9599,67.3175 103.6809,67.3705 103.4039,67.3705 L103.4039,67.3705 Z" id="Fill-149" fill="#354546" mask="url(#mask-4)"></path>
                <path d="M100.9547,70.3364 C101.7097,70.6674 102.5997,70.3204 102.9307,69.5654 L103.2277,68.8854 C103.5587,68.1294 103.2117,67.2404 102.4567,66.9094 L99.1537,65.3724 C98.3977,65.0404 97.5097,65.3884 97.1787,66.1434 L96.8807,66.8234 C96.5497,67.5794 96.8957,68.4684 97.6517,68.7994 L100.9547,70.3364 Z" id="Fill-150" fill="#A5B5B6" mask="url(#mask-4)"></path>
                <path d="M101.2623,69.6528 C101.6393,69.8128 102.0783,69.6398 102.2433,69.2638 L102.5413,68.5848 C102.6203,68.4018 102.6243,68.1988 102.5513,68.0108 C102.4783,67.8228 102.3373,67.6758 102.1563,67.5958 C102.1503,67.5938 102.1453,67.5908 102.1403,67.5898 L98.8463,66.0558 C98.6663,65.9788 98.4653,65.9758 98.2803,66.0488 C98.0923,66.1218 97.9453,66.2628 97.8653,66.4448 L97.5673,67.1248 C97.4013,67.5038 97.5743,67.9458 97.9523,68.1118 C97.9583,68.1148 97.9633,68.1168 97.9683,68.1198 L101.2623,69.6528 Z M101.5533,71.2128 C101.2523,71.2128 100.9473,71.1518 100.6543,71.0238 C100.6483,71.0208 100.6433,71.0188 100.6383,71.0168 L97.3423,69.4828 C96.2123,68.9818 95.6973,67.6558 96.1933,66.5228 L96.4913,65.8428 C96.7323,65.2938 97.1733,64.8708 97.7343,64.6518 C98.2953,64.4328 98.9063,64.4448 99.4553,64.6848 C99.4603,64.6868 99.4653,64.6898 99.4703,64.6918 L102.7663,66.2258 C103.3103,66.4668 103.7303,66.9068 103.9493,67.4648 C104.1673,68.0258 104.1563,68.6368 103.9143,69.1858 L103.6173,69.8658 C103.2473,70.7098 102.4193,71.2128 101.5533,71.2128 L101.5533,71.2128 Z" id="Fill-151" fill="#354546" mask="url(#mask-4)"></path>
                <path d="M99.4176,73.8794 C100.1736,74.2104 101.0636,73.8634 101.3946,73.1084 L101.6916,72.4284 C102.0226,71.6724 101.6756,70.7824 100.9196,70.4514 L97.6176,68.9144 C96.8616,68.5834 95.9736,68.9314 95.6426,69.6864 L95.3446,70.3664 C95.0136,71.1214 95.3596,72.0114 96.1156,72.3424 L99.4176,73.8794 Z" id="Fill-152" fill="#A5B5B6" mask="url(#mask-4)"></path>
                <path d="M99.7252,73.1958 C99.9062,73.2718 100.1072,73.2748 100.2922,73.2028 C100.4802,73.1298 100.6272,72.9888 100.7062,72.8058 L101.0042,72.1268 C101.0842,71.9448 101.0882,71.7418 101.0152,71.5528 C100.9422,71.3658 100.8012,71.2178 100.6192,71.1388 C100.6142,71.1368 100.6092,71.1338 100.6032,71.1328 L97.3102,69.5988 C96.9322,69.4378 96.4942,69.6108 96.3292,69.9878 L96.0312,70.6678 C95.9512,70.8488 95.9482,71.0518 96.0212,71.2408 C96.0942,71.4278 96.2352,71.5758 96.4162,71.6548 C96.4222,71.6578 96.4272,71.6598 96.4322,71.6628 L99.7252,73.1958 Z M100.0162,74.7568 C99.7092,74.7568 99.4052,74.6928 99.1172,74.5658 C99.1122,74.5638 99.1072,74.5618 99.1012,74.5588 L95.8062,73.0248 C95.2612,72.7838 94.8412,72.3438 94.6232,71.7868 C94.4052,71.2248 94.4162,70.6138 94.6572,70.0648 L94.9542,69.3848 C95.4532,68.2498 96.7822,67.7298 97.9182,68.2278 C97.9232,68.2298 97.9292,68.2318 97.9342,68.2348 L101.2292,69.7688 C101.7742,70.0098 102.1942,70.4498 102.4122,71.0078 C102.6312,71.5688 102.6202,72.1798 102.3782,72.7288 L102.0802,73.4088 C101.8402,73.9578 101.3992,74.3808 100.8382,74.5998 C100.5712,74.7038 100.2932,74.7568 100.0162,74.7568 L100.0162,74.7568 Z" id="Fill-153" fill="#354546" mask="url(#mask-4)"></path>
                <path d="M98.5523,60.9873 C98.4013,60.2403 97.6133,59.7473 96.8023,59.8913 L96.0733,60.0213 C95.2613,60.1653 94.7223,60.8943 94.8743,61.6413 L96.2633,68.4703 C96.4153,69.2173 97.2023,69.7103 98.0143,69.5663 L98.7423,69.4363 C99.5543,69.2913 100.0933,68.5633 99.9413,67.8153 L98.5523,60.9873 Z" id="Fill-154" fill="#A5B5B6" mask="url(#mask-4)"></path>
                <path d="M97.0846,60.6162 C97.0346,60.6162 96.9836,60.6202 96.9336,60.6292 L96.2036,60.7592 C95.9936,60.7962 95.8106,60.9102 95.7006,61.0722 C95.6386,61.1632 95.5726,61.3102 95.6096,61.4922 L96.9986,68.3212 C97.0686,68.6682 97.4746,68.9002 97.8826,68.8272 L98.6116,68.6982 C98.8216,68.6602 99.0056,68.5462 99.1146,68.3852 C99.1776,68.2932 99.2426,68.1472 99.2066,67.9652 L97.8176,61.1372 C97.7556,60.8322 97.4376,60.6162 97.0846,60.6162 M97.7306,70.3412 C96.6776,70.3412 95.7336,69.6322 95.5276,68.6192 L94.1396,61.7912 C94.0296,61.2492 94.1436,60.6952 94.4606,60.2292 C94.7956,59.7352 95.3356,59.3902 95.9406,59.2822 L96.6706,59.1532 C97.8806,58.9382 99.0556,59.6932 99.2876,60.8382 L100.6766,67.6662 C100.7856,68.2072 100.6726,68.7622 100.3556,69.2282 C100.0206,69.7222 99.4806,70.0672 98.8746,70.1742 L98.1456,70.3042 C98.0066,70.3282 97.8676,70.3412 97.7306,70.3412" id="Fill-155" fill="#354546" mask="url(#mask-4)"></path>
                <path d="M96.9439,59.5776 L95.3079,58.9186 C93.7779,58.3026 92.0209,59.0496 91.4049,60.5796 L90.7459,62.2156 C90.1299,63.7456 90.8769,65.5026 92.4069,66.1196 L94.0429,66.7786 C95.5729,67.3946 97.3299,66.6476 97.9459,65.1166 L98.6049,63.4816 C99.2219,61.9516 98.4739,60.1946 96.9439,59.5776" id="Fill-156" fill="#A5B5B6" mask="url(#mask-4)"></path>
                <path d="M92.1002,60.8603 L91.4412,62.4953 C90.9782,63.6463 91.5372,64.9603 92.6872,65.4233 L94.3232,66.0823 C95.4732,66.5473 96.7872,65.9873 97.2502,64.8363 L97.9102,63.2013 C98.3732,62.0503 97.8142,60.7363 96.6632,60.2733 L95.0282,59.6143 C93.8772,59.1503 92.5642,59.7093 92.1002,60.8603 M95.1592,67.7453 C94.6932,67.7453 94.2202,67.6583 93.7622,67.4733 L92.1262,66.8153 C90.2082,66.0423 89.2772,63.8533 90.0502,61.9353 L90.7092,60.2993 C91.4822,58.3813 93.6712,57.4503 95.5882,58.2233 L97.2242,58.8813 C99.1422,59.6543 100.0742,61.8433 99.3012,63.7613 L98.6422,65.3973 C98.0532,66.8573 96.6442,67.7453 95.1592,67.7453" id="Fill-157" fill="#354546" mask="url(#mask-4)"></path>
                <path d="M66.4898,75.4926 C66.4058,75.6076 66.3368,76.3046 67.1018,77.9236 C67.6838,79.1536 68.5088,80.3996 68.9888,80.9466 C69.3748,81.3866 69.8608,81.6246 70.3218,81.6056 C70.7208,81.5876 71.0748,81.3826 71.3438,81.0126 C72.0168,80.0896 71.8828,78.5076 71.0508,77.5586 C70.3298,76.7376 67.9358,75.3796 66.7508,75.4286 C66.5698,75.4366 66.5008,75.4776 66.4898,75.4926 M70.2658,83.1066 C69.3878,83.1066 68.5178,82.6846 67.8618,81.9356 C67.3218,81.3216 63.8808,76.5276 65.2778,74.6086 C65.4888,74.3186 65.9048,73.9656 66.6818,73.9306 C68.4268,73.8466 71.2188,75.4766 72.1768,76.5696 C73.4828,78.0566 73.6488,80.3966 72.5568,81.8956 C72.0168,82.6366 71.2478,83.0646 70.3888,83.1036 C70.3478,83.1056 70.3068,83.1066 70.2658,83.1066" id="Fill-158" fill="#19B5FE" mask="url(#mask-4)"></path>
                <path d="M66.356,74.6626 L66.358,74.6626 L66.356,74.6626 Z M72.574,72.7606 C71.158,72.7606 68.977,73.1786 67.782,73.9736 C67.498,74.1616 67.148,74.4556 67.097,74.7786 C67.03,75.2106 67.507,76.0416 69.052,77.0766 C70.331,77.9336 71.88,78.6066 72.689,78.8056 C73.29,78.9536 73.908,78.8446 74.427,78.4986 C75.054,78.0816 75.49,77.3576 75.623,76.5136 C75.884,74.8446 74.93,73.1996 73.495,72.8466 C73.261,72.7886 72.943,72.7606 72.574,72.7606 L72.574,72.7606 Z M73.22,80.3706 C72.924,80.3706 72.627,80.3346 72.331,80.2626 C70.564,79.8276 65.185,77.2826 65.616,74.5466 C65.724,73.8546 66.173,73.2416 66.952,72.7246 C68.743,71.5326 72.244,70.9936 73.853,71.3906 C76.026,71.9236 77.484,74.3266 77.104,76.7456 C76.907,78.0046 76.234,79.0986 75.258,79.7476 C74.639,80.1586 73.937,80.3706 73.22,80.3706 L73.22,80.3706 Z" id="Fill-159" fill="#C72C1C" mask="url(#mask-4)"></path>
                <path d="M62.1598,60.0239 C60.5158,59.8799 57.8228,59.8339 56.1758,59.9199 L47.1048,60.3939 C45.4568,60.4799 44.0858,61.8999 44.0558,63.5499 L43.9058,72.1719 C43.8778,73.8229 45.1558,75.5279 46.7478,75.9619 L55.9368,78.4689 C57.5288,78.9039 60.1448,78.9499 61.7508,78.5709 L71.0218,76.3849 C72.6278,76.0069 73.9658,74.3469 73.9938,72.6979 L74.1438,64.0749 C74.1738,62.4249 72.8518,60.9579 71.2088,60.8149 L62.1598,60.0239 Z" id="Fill-160" fill="#A5B5B6" mask="url(#mask-4)"></path>
                <path d="M71.0641,73.9858 L61.7931,76.1718 C60.1871,76.5488 57.5711,76.5048 55.9781,76.0698 L46.7901,73.5618 C45.1981,73.1288 43.9181,71.4228 43.9481,69.7728 L43.9061,72.1728 C43.8771,73.8228 45.1561,75.5278 46.7481,75.9628 L55.9371,78.4688 C57.5291,78.9038 60.1451,78.9498 61.7511,78.5708 L71.0221,76.3848 C72.6271,76.0068 73.9651,74.3468 73.9941,72.6978 L74.0361,70.2978 C74.0071,71.9478 72.6691,73.6078 71.0641,73.9858" id="Fill-161" fill="#859596" mask="url(#mask-4)"></path>
                <path d="M58.1402,60.6259 C57.4342,60.6259 56.7662,60.6399 56.2142,60.6679 L47.1442,61.1429 C45.8982,61.2079 44.8272,62.3159 44.8062,63.5629 L44.6562,72.1859 C44.6322,73.4959 45.6812,74.8939 46.9452,75.2389 L56.1342,77.7459 C57.6032,78.1469 60.0962,78.1899 61.5782,77.8409 L70.8502,75.6559 C72.1242,75.3549 73.2212,73.9949 73.2442,72.6849 L73.3952,64.0619 C73.4162,62.8149 72.3852,61.6699 71.1432,61.5619 L62.0942,60.7709 C61.0252,60.6779 59.5122,60.6259 58.1402,60.6259 M59.1192,79.5799 C57.9102,79.5799 56.6782,79.4489 55.7392,79.1929 L46.5502,76.6849 C44.6122,76.1569 43.1202,74.1679 43.1562,72.1599 L43.3062,63.5369 C43.3422,61.4969 45.0282,59.7509 47.0652,59.6449 L56.1362,59.1699 C57.8172,59.0829 60.5482,59.1299 62.2252,59.2769 L71.2732,60.0669 C73.3052,60.2449 74.9302,62.0479 74.8942,64.0879 L74.7442,72.7099 C74.7082,74.7199 73.1492,76.6549 71.1942,77.1159 L61.9222,79.2999 C61.1282,79.4879 60.1312,79.5799 59.1192,79.5799" id="Fill-162" fill="#354546" mask="url(#mask-4)"></path>
                <polygon id="Fill-163" fill="#556566" mask="url(#mask-4)" points="62.0523 73.102 48.9773 72.873 49.1373 63.675 62.2133 63.903"></polygon>
                <path d="M57.6373,71.1635 C57.3803,71.1635 57.1393,71.0315 57.0003,70.8095 L55.9633,69.1445 L54.3463,69.1165 C54.0943,69.1125 53.8623,68.9815 53.7273,68.7695 L53.6593,68.6645 L53.2233,69.6815 C53.1253,69.9075 52.9223,70.0725 52.6803,70.1205 C52.4383,70.1695 52.1883,70.0955 52.0113,69.9225 L51.1243,69.0605 L49.0433,69.0235 C48.6293,69.0175 48.3003,68.6755 48.3073,68.2615 C48.3143,67.8475 48.6553,67.5145 49.0703,67.5245 L51.4483,67.5655 C51.6383,67.5695 51.8213,67.6445 51.9573,67.7785 L52.2753,68.0875 L52.8413,66.7705 C52.9503,66.5155 53.1933,66.3415 53.4693,66.3195 C53.7453,66.2975 54.0133,66.4295 54.1623,66.6635 L54.7753,67.6235 L56.3973,67.6525 C56.6513,67.6565 56.8863,67.7895 57.0203,68.0055 L57.4143,68.6385 L58.2273,66.0845 C58.3253,65.7775 58.6103,65.5665 58.9333,65.5625 L58.9423,65.5625 C59.2613,65.5625 59.5463,65.7655 59.6513,66.0675 L60.2213,67.7185 L62.1463,67.7525 C62.5603,67.7595 62.8903,68.1015 62.8823,68.5155 C62.8753,68.9255 62.5413,69.2525 62.1333,69.2525 L62.1193,69.2525 L59.6703,69.2095 C59.3553,69.2045 59.0773,69.0025 58.9753,68.7045 L58.9713,68.6945 L58.3523,70.6415 C58.2633,70.9195 58.0213,71.1205 57.7303,71.1575 C57.6993,71.1615 57.6673,71.1635 57.6373,71.1635" id="Fill-164" fill="#D5E5E6" mask="url(#mask-4)"></path>
                <path d="M49.7398,72.1372 L61.3158,72.3382 L61.4508,64.6402 L49.8738,64.4382 L49.7398,72.1372 Z M62.0528,73.8522 L62.0398,73.8522 L48.9638,73.6232 C48.7648,73.6202 48.5758,73.5372 48.4368,73.3952 C48.2998,73.2512 48.2228,73.0592 48.2268,72.8612 L48.3868,63.6622 C48.3948,63.2482 48.7358,62.9152 49.1498,62.9252 L62.2258,63.1532 C62.4258,63.1572 62.6148,63.2392 62.7528,63.3822 C62.8908,63.5252 62.9668,63.7172 62.9638,63.9162 L62.8028,73.1152 C62.7958,73.5252 62.4618,73.8522 62.0528,73.8522 L62.0528,73.8522 Z" id="Fill-165" fill="#354546" mask="url(#mask-4)"></path>
                <path d="M69.0309,65.7973 C69.0139,66.7773 68.2059,67.5583 67.2249,67.5413 C66.2459,67.5243 65.4649,66.7153 65.4819,65.7353 C65.4989,64.7553 66.3069,63.9743 67.2879,63.9913 C68.2669,64.0083 69.0489,64.8173 69.0309,65.7973" id="Fill-166" fill="#F85C4C" mask="url(#mask-4)"></path>
                <path d="M69.0309,65.7973 L69.0329,65.7973 L69.0309,65.7973 Z M67.2569,64.7413 C66.9889,64.7413 66.7369,64.8433 66.5449,65.0293 C66.3469,65.2193 66.2369,65.4743 66.2319,65.7483 C66.2269,66.0223 66.3289,66.2813 66.5189,66.4783 C66.7099,66.6753 66.9649,66.7863 67.2389,66.7913 C67.8029,66.7943 68.2709,66.3493 68.2819,65.7843 C68.2859,65.5103 68.1839,65.2513 67.9939,65.0543 C67.8029,64.8573 67.5489,64.7463 67.2739,64.7413 L67.2569,64.7413 Z M67.2579,68.2913 L67.2129,68.2913 C66.5379,68.2793 65.9089,68.0053 65.4399,67.5203 C64.9709,67.0353 64.7199,66.3963 64.7319,65.7223 C64.7439,65.0483 65.0169,64.4193 65.5029,63.9503 C65.9879,63.4813 66.6249,63.2283 67.3009,63.2413 C67.9749,63.2533 68.6039,63.5273 69.0729,64.0123 C69.5419,64.4973 69.7929,65.1363 69.7809,65.8103 C69.7579,67.1873 68.6299,68.2913 67.2579,68.2913 L67.2579,68.2913 Z" id="Fill-167" fill="#C72C1C" mask="url(#mask-4)"></path>
                <path d="M68.9322,71.4467 C68.9152,72.4257 68.1072,73.2077 67.1262,73.1897 C66.1472,73.1737 65.3662,72.3647 65.3832,71.3847 C65.4002,70.4047 66.2082,69.6237 67.1892,69.6407 C68.1692,69.6577 68.9502,70.4667 68.9322,71.4467" id="Fill-168" fill="#B9D96D" mask="url(#mask-4)"></path>
                <path d="M68.9322,71.4467 L68.9342,71.4467 L68.9322,71.4467 Z M67.1582,70.3897 C66.6012,70.3897 66.1432,70.8387 66.1332,71.3977 C66.1232,71.9637 66.5752,72.4297 67.1402,72.4407 L67.1582,72.4407 C67.7152,72.4407 68.1732,71.9927 68.1832,71.4327 C68.1932,70.8687 67.7412,70.4007 67.1752,70.3907 C67.1692,70.3907 67.1632,70.3897 67.1582,70.3897 L67.1582,70.3897 Z M67.1592,73.9407 C67.1432,73.9407 67.1282,73.9407 67.1142,73.9397 C65.7222,73.9157 64.6092,72.7637 64.6332,71.3717 C64.6582,69.9797 65.8052,68.8617 67.2022,68.8907 C68.5942,68.9157 69.7062,70.0677 69.6822,71.4597 C69.6592,72.8367 68.5312,73.9407 67.1592,73.9407 L67.1592,73.9407 Z" id="Fill-169" fill="#719911" mask="url(#mask-4)"></path>
                <path d="M48.7896,62.5464 C48.4296,62.5464 48.1106,62.2854 48.0506,61.9184 L47.6456,59.4654 C47.5786,59.0564 47.8556,58.6714 48.2646,58.6034 C48.6736,58.5364 49.0596,58.8134 49.1266,59.2214 L49.5296,61.6744 C49.5976,62.0834 49.3206,62.4694 48.9126,62.5364 C48.8706,62.5434 48.8296,62.5464 48.7896,62.5464" id="Fill-170" fill="#354546" mask="url(#mask-4)"></path>
                <path d="M51.7496,62.0591 C51.3896,62.0591 51.0706,61.7981 51.0106,61.4311 L50.6066,58.9781 C50.5396,58.5691 50.8156,58.1841 51.2256,58.1161 C51.6336,58.0491 52.0196,58.3261 52.0866,58.7341 L52.4906,61.1871 C52.5586,61.5961 52.2806,61.9821 51.8726,62.0491 C51.8306,62.0561 51.7896,62.0591 51.7496,62.0591" id="Fill-171" fill="#354546" mask="url(#mask-4)"></path>
                <path d="M69.0934,62.5464 C69.0534,62.5464 69.0124,62.5434 68.9714,62.5364 C68.5624,62.4694 68.2854,62.0834 68.3534,61.6744 L68.7564,59.2214 C68.8234,58.8134 69.2084,58.5364 69.6184,58.6034 C70.0274,58.6714 70.3044,59.0564 70.2374,59.4654 L69.8324,61.9184 C69.7724,62.2854 69.4544,62.5464 69.0934,62.5464" id="Fill-172" fill="#354546" mask="url(#mask-4)"></path>
                <path d="M66.1334,62.0591 C66.0934,62.0591 66.0524,62.0561 66.0104,62.0491 C65.6024,61.9821 65.3254,61.5961 65.3924,61.1871 L65.7964,58.7341 C65.8634,58.3261 66.2484,58.0501 66.6584,58.1161 C67.0674,58.1841 67.3444,58.5691 67.2774,58.9781 L66.8724,61.4311 C66.8124,61.7981 66.4934,62.0591 66.1334,62.0591" id="Fill-173" fill="#354546" mask="url(#mask-4)"></path>
                <polygon id="Fill-174" fill="#A5B5B6" mask="url(#mask-4)" points="45.848 107.861 50.535 107.861 50.535 98.861 45.848 98.861"></polygon>
                <polygon id="Fill-175" fill="#C5D5D6" mask="url(#mask-4)" points="45.848 102.437 50.535 102.437 50.535 98.861 45.848 98.861"></polygon>
                <path d="M46.597,107.111 L49.785,107.111 L49.785,99.611 L46.597,99.611 L46.597,107.111 Z M50.535,108.611 L45.847,108.611 C45.433,108.611 45.097,108.275 45.097,107.861 L45.097,98.861 C45.097,98.446 45.433,98.111 45.847,98.111 L50.535,98.111 C50.949,98.111 51.285,98.446 51.285,98.861 L51.285,107.861 C51.285,108.275 50.949,108.611 50.535,108.611 L50.535,108.611 Z" id="Fill-176" fill="#354546" mask="url(#mask-4)"></path>
                <polygon id="Fill-177" fill="#A5B5B6" mask="url(#mask-4)" points="42.668 106.098 45.854 106.098 45.854 90.198 42.668 90.198"></polygon>
                <path d="M43.419,105.348 L45.105,105.348 L45.105,90.948 L43.419,90.948 L43.419,105.348 Z M45.854,106.848 L42.669,106.848 C42.254,106.848 41.919,106.512 41.919,106.098 L41.919,90.198 C41.919,89.784 42.254,89.448 42.669,89.448 L45.854,89.448 C46.268,89.448 46.604,89.784 46.604,90.198 L46.604,106.098 C46.604,106.512 46.268,106.848 45.854,106.848 L45.854,106.848 Z" id="Fill-178" fill="#354546" mask="url(#mask-4)"></path>
                <path d="M44.3277,84.685 L44.1947,84.685 C42.5447,84.685 41.1947,86.036 41.1947,87.685 L41.1947,94.81 L47.3277,94.81 L47.3277,87.685 C47.3277,86.036 45.9767,84.685 44.3277,84.685" id="Fill-179" fill="#A5B5B6" mask="url(#mask-4)"></path>
                <path d="M44.3277,84.685 L44.1947,84.685 C42.5447,84.685 41.1947,86.036 41.1947,87.685 L41.1947,90.423 C41.1947,88.773 42.5447,87.423 44.1947,87.423 L44.3277,87.423 C45.9767,87.423 47.3277,88.773 47.3277,90.423 L47.3277,87.685 C47.3277,86.036 45.9767,84.685 44.3277,84.685" id="Fill-180" fill="#C5D5D6" mask="url(#mask-4)"></path>
                <path d="M41.9449,94.06 L46.5779,94.06 L46.5779,87.685 C46.5779,86.445 45.5679,85.435 44.3279,85.435 L44.1949,85.435 C42.9549,85.435 41.9449,86.445 41.9449,87.685 L41.9449,94.06 Z M47.3279,95.56 L41.1949,95.56 C40.7809,95.56 40.4449,95.225 40.4449,94.81 L40.4449,87.685 C40.4449,85.618 42.1279,83.935 44.1949,83.935 L44.3279,83.935 C46.3949,83.935 48.0779,85.618 48.0779,87.685 L48.0779,94.81 C48.0779,95.225 47.7419,95.56 47.3279,95.56 L47.3279,95.56 Z" id="Fill-181" fill="#354546" mask="url(#mask-4)"></path>
                <polygon id="Fill-182" fill="#A5B5B6" mask="url(#mask-4)" points="66.972 107.861 71.659 107.861 71.659 98.861 66.972 98.861"></polygon>
                <polygon id="Fill-183" fill="#C5D5D6" mask="url(#mask-4)" points="66.972 102.437 71.659 102.437 71.659 98.861 66.972 98.861"></polygon>
                <path d="M67.722,107.111 L70.91,107.111 L70.91,99.611 L67.722,99.611 L67.722,107.111 Z M71.66,108.611 L66.972,108.611 C66.558,108.611 66.222,108.275 66.222,107.861 L66.222,98.861 C66.222,98.446 66.558,98.111 66.972,98.111 L71.66,98.111 C72.074,98.111 72.41,98.446 72.41,98.861 L72.41,107.861 C72.41,108.275 72.074,108.611 71.66,108.611 L71.66,108.611 Z" id="Fill-184" fill="#354546" mask="url(#mask-4)"></path>
                <polygon id="Fill-185" fill="#A5B5B6" mask="url(#mask-4)" points="71.654 106.098 74.839 106.098 74.839 90.198 71.654 90.198"></polygon>
                <path d="M72.404,105.348 L74.089,105.348 L74.089,90.948 L72.404,90.948 L72.404,105.348 Z M74.838,106.848 L71.654,106.848 C71.24,106.848 70.904,106.512 70.904,106.098 L70.904,90.198 C70.904,89.784 71.24,89.448 71.654,89.448 L74.838,89.448 C75.253,89.448 75.588,89.784 75.588,90.198 L75.588,106.098 C75.588,106.512 75.253,106.848 74.838,106.848 L74.838,106.848 Z" id="Fill-186" fill="#354546" mask="url(#mask-4)"></path>
                <path d="M73.1803,84.685 L73.3123,84.685 C74.9623,84.685 76.3123,86.036 76.3123,87.685 L76.3123,94.81 L70.1803,94.81 L70.1803,87.685 C70.1803,86.036 71.5303,84.685 73.1803,84.685" id="Fill-187" fill="#A5B5B6" mask="url(#mask-4)"></path>
                <path d="M73.1803,84.685 L73.3123,84.685 C74.9623,84.685 76.3123,86.036 76.3123,87.685 L76.3123,90.423 C76.3123,88.773 74.9623,87.423 73.3123,87.423 L73.1803,87.423 C71.5303,87.423 70.1803,88.773 70.1803,90.423 L70.1803,87.685 C70.1803,86.036 71.5303,84.685 73.1803,84.685" id="Fill-188" fill="#C5D5D6" mask="url(#mask-4)"></path>
                <path d="M70.9303,94.06 L75.5623,94.06 L75.5623,87.685 C75.5623,86.445 74.5533,85.435 73.3123,85.435 L73.1803,85.435 C71.9393,85.435 70.9303,86.445 70.9303,87.685 L70.9303,94.06 Z M76.3123,95.56 L70.1803,95.56 C69.7663,95.56 69.4303,95.225 69.4303,94.81 L69.4303,87.685 C69.4303,85.618 71.1123,83.935 73.1803,83.935 L73.3123,83.935 C75.3803,83.935 77.0623,85.618 77.0623,87.685 L77.0623,94.81 C77.0623,95.225 76.7273,95.56 76.3123,95.56 L76.3123,95.56 Z" id="Fill-189" fill="#354546" mask="url(#mask-4)"></path>
                <path d="M66.8346,115.3608 C66.8346,117.0098 65.4846,118.3608 63.8346,118.3608 L53.5346,118.3608 C51.8846,118.3608 50.5346,117.0098 50.5346,115.3608 L50.5346,91.3608 C50.5346,89.7108 51.8846,88.3608 53.5346,88.3608 L63.8346,88.3608 C65.4846,88.3608 66.8346,89.7108 66.8346,91.3608 L66.8346,115.3608 Z" id="Fill-190" fill="#6D6D6D" mask="url(#mask-4)"></path>
                <path d="M63.8346,113.7856 L53.5346,113.7856 C52.1946,113.7856 50.9536,112.8946 50.5346,111.6776 L50.5346,115.3606 C50.5346,117.0106 51.8846,118.3606 53.5346,118.3606 L63.8346,118.3606 C65.4846,118.3606 66.8346,117.0106 66.8346,115.3606 L66.8346,111.6776 C66.4156,112.8946 65.1746,113.7856 63.8346,113.7856" id="Fill-191" fill="#5B5B5B" mask="url(#mask-4)"></path>
                <polygon id="Fill-192" fill="#929292" mask="url(#mask-4)" points="66.7437 101.4106 50.5347 100.0596 50.6257 96.0106 66.7437 96.0106"></polygon>
                <polygon id="Fill-193" fill="#929292" mask="url(#mask-4)" points="66.7437 104.56 50.6257 105.665 50.6257 102.964 66.7437 102.964"></polygon>
                <path d="M53.5348,89.1108 C52.2948,89.1108 51.2848,90.1198 51.2848,91.3608 L51.2848,115.3608 C51.2848,116.6008 52.2948,117.6108 53.5348,117.6108 L63.8348,117.6108 C65.0758,117.6108 66.0848,116.6008 66.0848,115.3608 L66.0848,91.3608 C66.0848,90.1198 65.0758,89.1108 63.8348,89.1108 L53.5348,89.1108 Z M63.8348,119.1108 L53.5348,119.1108 C51.4678,119.1108 49.7848,117.4278 49.7848,115.3608 L49.7848,91.3608 C49.7848,89.2928 51.4678,87.6108 53.5348,87.6108 L63.8348,87.6108 C65.9028,87.6108 67.5848,89.2928 67.5848,91.3608 L67.5848,115.3608 C67.5848,117.4278 65.9028,119.1108 63.8348,119.1108 L63.8348,119.1108 Z" id="Fill-194" fill="#121212" mask="url(#mask-4)"></path>
                <path d="M66.8717,84.685 L50.4977,84.685 C48.7167,84.685 47.2587,86.036 47.2587,87.685 L47.2587,92.036 L70.1107,92.036 L70.1107,87.685 C70.1107,86.036 68.6537,84.685 66.8717,84.685" id="Fill-195" fill="#A5B5B6" mask="url(#mask-4)"></path>
                <path d="M66.8717,84.685 L50.4977,84.685 C48.7167,84.685 47.2587,86.036 47.2587,87.685 L70.1107,87.685 C70.1107,86.036 68.6537,84.685 66.8717,84.685" id="Fill-196" fill="#C5D5D6" mask="url(#mask-4)"></path>
                <path d="M48.0084,91.2856 L69.3614,91.2856 L69.3614,87.6846 C69.3614,86.4446 68.2444,85.4346 66.8714,85.4346 L50.4974,85.4346 C49.1254,85.4346 48.0084,86.4446 48.0084,87.6846 L48.0084,91.2856 Z M70.1114,92.7856 L47.2584,92.7856 C46.8444,92.7856 46.5084,92.4496 46.5084,92.0356 L46.5084,87.6846 C46.5084,85.6176 48.2984,83.9346 50.4974,83.9346 L66.8714,83.9346 C69.0714,83.9346 70.8614,85.6176 70.8614,87.6846 L70.8614,92.0356 C70.8614,92.4496 70.5254,92.7856 70.1114,92.7856 L70.1114,92.7856 Z" id="Fill-197" fill="#354546" mask="url(#mask-4)"></path>
                <path d="M54.1852,86.8667 C53.7712,86.8667 53.4352,86.5307 53.4352,86.1167 L53.4352,83.6307 C53.4352,83.2167 53.7712,82.8807 54.1852,82.8807 C54.5992,82.8807 54.9352,83.2167 54.9352,83.6307 L54.9352,86.1167 C54.9352,86.5307 54.5992,86.8667 54.1852,86.8667" id="Fill-198" fill="#354546" mask="url(#mask-4)"></path>
                <path d="M57.1852,86.8667 C56.7712,86.8667 56.4352,86.5307 56.4352,86.1167 L56.4352,83.6307 C56.4352,83.2167 56.7712,82.8807 57.1852,82.8807 C57.5992,82.8807 57.9352,83.2167 57.9352,83.6307 L57.9352,86.1167 C57.9352,86.5307 57.5992,86.8667 57.1852,86.8667" id="Fill-199" fill="#354546" mask="url(#mask-4)"></path>
                <path d="M60.1852,86.8667 C59.7712,86.8667 59.4352,86.5307 59.4352,86.1167 L59.4352,83.6307 C59.4352,83.2167 59.7712,82.8807 60.1852,82.8807 C60.5992,82.8807 60.9352,83.2167 60.9352,83.6307 L60.9352,86.1167 C60.9352,86.5307 60.5992,86.8667 60.1852,86.8667" id="Fill-200" fill="#354546" mask="url(#mask-4)"></path>
                <path d="M63.1852,86.8667 C62.7712,86.8667 62.4352,86.5307 62.4352,86.1167 L62.4352,83.6307 C62.4352,83.2167 62.7712,82.8807 63.1852,82.8807 C63.5992,82.8807 63.9352,83.2167 63.9352,83.6307 L63.9352,86.1167 C63.9352,86.5307 63.5992,86.8667 63.1852,86.8667" id="Fill-201" fill="#354546" mask="url(#mask-4)"></path>
                <path d="M81.0357,21.1128 C81.0257,21.1128 81.0147,21.1128 81.0037,21.1118 C80.5907,21.0938 80.2687,20.7448 80.2867,20.3308 L80.7157,10.2088 C80.8527,6.4938 77.9387,3.3558 74.2197,3.2188 C74.2127,3.2178 74.2047,3.2178 74.1977,3.2168 L48.1387,1.5048 C46.3477,1.4418 44.6347,2.0828 43.3117,3.3118 C41.9867,4.5418 41.2207,6.2078 41.1537,8.0018 L40.7237,18.8748 C40.7077,19.2888 40.3567,19.6128 39.9447,19.5948 C39.5317,19.5788 39.2097,19.2298 39.2247,18.8158 L39.6547,7.9448 C39.7357,5.7528 40.6727,3.7158 42.2907,2.2128 C43.9097,0.7088 46.0097,-0.0782 48.2037,0.0068 C48.2107,0.0068 48.2187,0.0068 48.2247,0.0078 L74.2857,1.7198 C78.8267,1.8938 82.3827,5.7258 82.2147,10.2688 L81.7847,20.3948 C81.7677,20.7978 81.4357,21.1128 81.0357,21.1128" id="Fill-202" fill="#354546" mask="url(#mask-4)"></path>
                <path d="M35.692,19.7641 C34.398,19.7161 33.29,21.0261 33.229,22.6751 L32.855,32.8091 C32.794,34.4581 33.802,35.8461 35.096,35.8931 C36.39,35.9411 37.448,35.9801 37.448,35.9801 L38.045,19.8511 C38.045,19.8511 36.986,19.8121 35.692,19.7641" id="Fill-203" fill="#A5B5B6" mask="url(#mask-4)"></path>
                <path d="M33.2291,22.6753 L33.0451,27.6343 L37.7501,27.8083 L38.0441,19.8513 C38.0441,19.8513 36.9861,19.8123 35.6921,19.7643 C34.3981,19.7163 33.2901,21.0263 33.2291,22.6753" id="Fill-204" fill="#C5D5D6" mask="url(#mask-4)"></path>
                <path d="M37.4488,36.7304 L37.4208,36.7304 L35.0678,36.6434 C34.2198,36.6114 33.4158,36.1564 32.8608,35.3924 C32.3378,34.6734 32.0698,33.7454 32.1048,32.7814 L32.4788,22.6474 C32.5558,20.5814 34.0128,18.9524 35.7198,19.0144 L38.0718,19.1014 C38.4858,19.1164 38.8088,19.4644 38.7938,19.8784 C38.7788,20.2924 38.4288,20.6104 38.0158,20.6004 L35.6648,20.5134 C35.6508,20.5134 35.6368,20.5124 35.6238,20.5124 C34.7718,20.5124 34.0228,21.5024 33.9778,22.7024 L33.6038,32.8364 C33.5808,33.4584 33.7528,34.0684 34.0738,34.5104 C34.3598,34.9044 34.7328,35.1294 35.1238,35.1444 L37.4758,35.2304 C37.8898,35.2464 38.2138,35.5944 38.1978,36.0084 C38.1828,36.4124 37.8498,36.7304 37.4488,36.7304" id="Fill-205" fill="#354546" mask="url(#mask-4)"></path>
                <polygon id="Fill-206" fill="#859596" mask="url(#mask-4)" points="41.7643 38.5395 37.3603 38.3765 38.0833 18.7755 42.4883 18.9385"></polygon>
                <polygon id="Fill-207" fill="#A5B5B6" mask="url(#mask-4)" points="42.0738 30.1528 37.6698 29.9898 38.0838 18.7758 42.4878 18.9388"></polygon>
                <path d="M38.1373,37.6548 L41.0423,37.7618 L41.7103,19.6598 L38.8063,19.5528 L38.1373,37.6548 Z M41.7643,39.2898 C41.7553,39.2898 41.7453,39.2888 41.7363,39.2888 L37.3313,39.1268 C37.1333,39.1188 36.9463,39.0328 36.8103,38.8868 C36.6753,38.7408 36.6033,38.5478 36.6103,38.3488 L37.3343,18.7478 C37.3413,18.5498 37.4283,18.3618 37.5743,18.2258 C37.7193,18.0908 37.9143,18.0198 38.1123,18.0268 L42.5163,18.1888 C42.9303,18.2038 43.2523,18.5518 43.2383,18.9668 L42.5133,38.5668 C42.4983,38.9718 42.1653,39.2898 41.7643,39.2898 L41.7643,39.2898 Z" id="Fill-208" fill="#354546" mask="url(#mask-4)"></path>
                <path d="M33.0455,28.3847 L33.0445,28.3847 L31.2425,28.3817 C30.8285,28.3807 30.4935,28.0447 30.4945,27.6297 C30.4955,27.2167 30.8305,26.8817 31.2445,26.8817 L31.2455,26.8817 L33.0475,26.8847 C33.4615,26.8857 33.7965,27.2217 33.7955,27.6357 C33.7945,28.0507 33.4595,28.3847 33.0455,28.3847" id="Fill-209" fill="#354546" mask="url(#mask-4)"></path>
                <path d="M88.1197,10.5556 C88.0347,10.5556 87.9467,10.5446 87.8597,10.5226 C87.2987,10.3796 86.9587,9.8076 87.1017,9.2456 L87.8787,6.1976 C88.0217,5.6356 88.5937,5.2966 89.1547,5.4396 C89.7177,5.5826 90.0567,6.1546 89.9137,6.7166 L89.1367,9.7646 C89.0157,10.2396 88.5887,10.5556 88.1197,10.5556" id="Fill-210" fill="#354546" mask="url(#mask-4)"></path>
                <path d="M85.0416,22.3374 C84.9796,22.3374 84.9186,22.3304 84.8556,22.3144 C84.4546,22.2124 84.2126,21.8034 84.3136,21.4024 L87.3926,9.3204 C87.4946,8.9194 87.9026,8.6764 88.3046,8.7784 C88.7056,8.8804 88.9486,9.2894 88.8466,9.6904 L85.7686,21.7724 C85.6816,22.1114 85.3766,22.3374 85.0416,22.3374" id="Fill-211" fill="#354546" mask="url(#mask-4)"></path>
                <path d="M85.0416,21.5874 C86.3356,21.6354 87.3436,23.0234 87.2826,24.6724 L86.9086,34.8064 C86.8476,36.4544 85.7386,37.7644 84.4456,37.7164 C83.1516,37.6694 82.0936,37.6294 82.0936,37.6294 L82.6886,21.5004 C82.6886,21.5004 83.7476,21.5394 85.0416,21.5874" id="Fill-212" fill="#A5B5B6" mask="url(#mask-4)"></path>
                <path d="M87.2828,24.6723 L87.0988,29.6313 L82.3948,29.4583 L82.6888,21.5003 C82.6888,21.5003 83.7478,21.5393 85.0418,21.5873 C86.3358,21.6353 87.3438,23.0233 87.2828,24.6723" id="Fill-213" fill="#C5D5D6" mask="url(#mask-4)"></path>
                <path d="M84.5143,38.4682 C84.4823,38.4682 84.4503,38.4682 84.4173,38.4672 L82.0653,38.3792 C81.6523,38.3642 81.3283,38.0162 81.3433,37.6022 C81.3593,37.1882 81.7073,36.8672 82.1203,36.8802 L84.4733,36.9672 C85.3373,37.0032 86.1143,35.9972 86.1593,34.7782 L86.5343,24.6442 C86.5563,24.0232 86.3853,23.4122 86.0633,22.9702 C85.7773,22.5762 85.4043,22.3512 85.0133,22.3372 L82.6613,22.2502 L82.7163,20.7512 L85.0693,20.8382 C85.9173,20.8692 86.7223,21.3252 87.2773,22.0882 C87.7993,22.8082 88.0683,23.7352 88.0323,24.6992 L87.6583,34.8332 C87.5823,36.8612 86.1823,38.4682 84.5143,38.4682" id="Fill-214" fill="#354546" mask="url(#mask-4)"></path>
                <polygon id="Fill-215" fill="#859596" mask="url(#mask-4)" points="77.6002 39.8633 82.0042 40.0263 82.7292 20.4253 78.3252 20.2623"></polygon>
                <polygon id="Fill-216" fill="#A5B5B6" mask="url(#mask-4)" points="77.9107 31.477 82.3137 31.64 82.7287 20.425 78.3247 20.262"></polygon>
                <path d="M78.3775,39.1416 L81.2825,39.2486 L81.9515,21.1466 L79.0465,21.0396 L78.3775,39.1416 Z M82.0045,40.7766 C81.9955,40.7766 81.9855,40.7756 81.9775,40.7756 L77.5725,40.6126 C77.1585,40.5976 76.8355,40.2496 76.8515,39.8356 L77.5745,20.2346 C77.5825,20.0366 77.6685,19.8486 77.8145,19.7126 C77.9595,19.5776 78.1535,19.5076 78.3525,19.5126 L82.7565,19.6756 C83.1705,19.6906 83.4935,20.0386 83.4785,20.4526 L82.7545,40.0536 C82.7465,40.2526 82.6605,40.4406 82.5155,40.5756 C82.3765,40.7046 82.1935,40.7766 82.0045,40.7766 L82.0045,40.7766 Z" id="Fill-217" fill="#354546" mask="url(#mask-4)"></path>
                <path d="M88.8971,30.5112 C88.8781,30.5112 88.8611,30.5112 88.8421,30.5092 L87.0451,30.3802 C86.6321,30.3502 86.3221,29.9912 86.3511,29.5782 C86.3811,29.1652 86.7421,28.8562 87.1541,28.8842 L88.9501,29.0132 C89.3631,29.0432 89.6731,29.4022 89.6441,29.8152 C89.6161,30.2102 89.2871,30.5112 88.8971,30.5112" id="Fill-218" fill="#354546" mask="url(#mask-4)"></path>
                <path d="M41.6959,44.6767 C40.6699,44.6767 38.0609,45.7907 36.9559,47.0517 C36.0169,48.1207 35.8669,49.9067 36.6269,50.9517 C36.9379,51.3787 37.3479,51.6147 37.8119,51.6357 C38.3439,51.6587 38.9009,51.3867 39.3419,50.8847 C39.8739,50.2777 40.7879,48.8977 41.4309,47.5357 C42.2639,45.7737 42.2319,44.9627 42.0979,44.7797 C42.0579,44.7237 41.9289,44.6857 41.7539,44.6777 C41.7349,44.6767 41.7159,44.6767 41.6959,44.6767 M37.8769,53.1377 C37.8329,53.1377 37.7889,53.1367 37.7449,53.1347 C36.8219,53.0937 35.9949,52.6317 35.4149,51.8347 C34.2309,50.2107 34.4129,47.6747 35.8279,46.0617 C36.8749,44.8687 39.9249,43.0927 41.8219,43.1797 C42.6479,43.2177 43.0879,43.5907 43.3109,43.8967 C43.9239,44.7367 43.7519,46.1367 42.7879,48.1767 C42.0779,49.6777 41.0839,51.1737 40.4679,51.8737 C39.7589,52.6817 38.8219,53.1377 37.8769,53.1377" id="Fill-219" fill="#19B5FE" mask="url(#mask-4)"></path>
                <path d="M76.1256,42.8989 C75.6676,42.8989 75.3136,42.9739 75.1466,43.1509 C75.0216,43.2819 75.0276,43.5429 75.0556,43.7379 C75.2286,44.9759 76.5696,46.7289 77.3216,47.1729 C78.2806,47.7409 79.8426,47.4299 80.7306,46.4939 C81.1566,46.0459 81.3636,45.5199 81.2986,45.0499 C81.2466,44.6749 81.0256,44.3629 80.6596,44.1479 C79.5946,43.5169 77.4356,42.8989 76.1256,42.8989 M78.4676,48.9599 C77.7866,48.9599 77.1246,48.7989 76.5586,48.4639 C75.3946,47.7749 73.8016,45.6069 73.5696,43.9449 C73.4376,42.9989 73.7636,42.4289 74.0596,42.1179 C75.6856,40.4059 80.3726,42.2339 81.4236,42.8559 C82.1856,43.3069 82.6686,44.0119 82.7836,44.8429 C82.9126,45.7669 82.5616,46.7459 81.8176,47.5269 C80.9366,48.4559 79.6736,48.9599 78.4676,48.9599" id="Fill-220" fill="#19B5FE" mask="url(#mask-4)"></path>
                <path d="M35.3277,41.7397 C34.9157,41.7397 34.5617,41.7707 34.3017,41.8357 C32.6817,42.2327 31.6047,44.0837 31.8997,45.9617 C32.0497,46.9127 32.5417,47.7287 33.2497,48.1997 C33.8407,48.5927 34.5427,48.7167 35.2257,48.5487 C36.1227,48.3277 37.8407,47.5817 39.2567,46.6337 C40.7267,45.6477 41.5457,44.6737 41.4437,44.0267 C41.3837,43.6427 40.9817,43.3037 40.6557,43.0867 C39.3277,42.2037 36.9027,41.7397 35.3277,41.7397 M34.6227,50.1227 C33.8477,50.1227 33.0877,49.8937 32.4187,49.4487 C31.3617,48.7457 30.6327,47.5597 30.4187,46.1947 C30.0057,43.5667 31.5867,40.9577 33.9427,40.3787 C35.7017,39.9467 39.5277,40.5347 41.4867,41.8377 C42.3247,42.3957 42.8087,43.0537 42.9257,43.7947 C43.3907,46.7607 37.5147,49.5317 35.5837,50.0057 C35.2647,50.0837 34.9417,50.1227 34.6227,50.1227" id="Fill-221" fill="#719911" mask="url(#mask-4)"></path>
                <path d="M77.2496,47.3105 C77.0976,51.4325 73.5976,54.7915 69.4726,54.7745 L47.8536,54.6845 C43.7286,54.6675 40.6156,51.2885 40.9366,47.1765 L43.3236,13.3295 C43.6456,9.2165 47.2706,6.1365 51.3806,6.4835 L71.1486,8.1545 C75.2596,8.5015 78.4976,12.1585 78.3466,16.2805 L77.2496,47.3105 Z" id="Fill-222" fill="#A5B5B6" mask="url(#mask-4)"></path>
                <path d="M73.8238,41.0166 C73.7118,44.0476 70.9088,46.5096 67.5948,46.4866 L50.2228,46.3666 C46.9098,46.3436 44.3998,43.8496 44.6478,40.8266 L46.4838,16.9306 C46.7318,13.9066 49.6368,11.6496 52.9398,11.9156 L68.8278,13.1946 C72.1318,13.4596 74.7428,16.1576 74.6308,19.1896 L73.8238,41.0166 Z" id="Fill-223" fill="#C5D5D6" mask="url(#mask-4)"></path>
                <path d="M71.0465,51.4355 L47.5525,51.2765 C44.6375,51.2565 42.1845,49.8155 40.9165,47.6795 C40.8755,51.5605 43.8985,54.6675 47.8535,54.6845 L69.4725,54.7745 C72.9315,54.7885 75.9495,52.4285 76.9245,49.2355 C75.3935,50.6055 73.3085,51.4505 71.0465,51.4355" id="Fill-224" fill="#859596" mask="url(#mask-4)"></path>
                <path d="M71.107,52.1855 L71.041,52.1855 L47.547,52.0265 C44.452,52.0055 41.732,50.5235 40.271,48.0615 C40.06,47.7065 40.177,47.2455 40.534,47.0345 C40.889,46.8235 41.35,46.9405 41.561,47.2965 C42.751,49.3015 44.993,50.5085 47.557,50.5265 L71.051,50.6855 C73.053,50.6985 74.961,49.9855 76.424,48.6765 C76.733,48.3995 77.207,48.4265 77.483,48.7345 C77.759,49.0435 77.733,49.5185 77.424,49.7935 C75.699,51.3375 73.458,52.1855 71.107,52.1855" id="Fill-225" fill="#354546" mask="url(#mask-4)"></path>
                <path d="M77.2496,47.3105 L77.2506,47.3105 L77.2496,47.3105 Z M50.7446,7.2065 C49.1616,7.2065 47.6436,7.7645 46.4166,8.8055 C45.0446,9.9725 44.2116,11.5995 44.0716,13.3875 L41.6846,47.2285 C41.5456,49.0135 42.1116,50.6905 43.2786,51.9575 C44.4466,53.2255 46.0716,53.9275 47.8556,53.9345 L69.4756,54.0245 L69.5046,54.0245 C73.2276,54.0245 76.3616,51.0065 76.4996,47.2835 L77.5966,16.2535 C77.7346,12.5145 74.8136,9.2165 71.0866,8.9015 L51.3176,7.2305 C51.1266,7.2145 50.9356,7.2065 50.7446,7.2065 L50.7446,7.2065 Z M69.5046,55.5245 L69.4696,55.5245 L47.8506,55.4345 C45.6446,55.4255 43.6296,54.5515 42.1766,52.9745 C40.7236,51.3965 40.0176,49.3165 40.1886,47.1175 L42.5756,13.2765 C42.7466,11.0815 43.7666,9.0895 45.4456,7.6625 C47.1256,6.2355 49.2556,5.5525 51.4436,5.7365 L71.2126,7.4065 C75.7266,7.7885 79.2626,11.7815 79.0956,16.3085 L77.9986,47.3365 L77.9986,47.3375 C77.8316,51.8595 74.0246,55.5245 69.5046,55.5245 L69.5046,55.5245 Z" id="Fill-226" fill="#354546" mask="url(#mask-4)"></path>
                <path d="M60.7223,16.2964 C56.6153,16.2964 51.7183,15.0344 51.7183,9.0244 C51.7183,8.0814 51.8403,7.4554 52.0803,6.5624 C52.1883,6.1624 52.5993,5.9254 52.9993,6.0324 C53.3993,6.1394 53.6363,6.5514 53.5293,6.9514 C53.3143,7.7504 53.2183,8.2394 53.2183,9.0244 C53.2183,10.4524 53.2183,14.7964 60.7223,14.7964 C68.2593,14.7964 68.2593,10.4524 68.2593,9.0244 C68.2593,8.7064 68.2433,8.3854 68.2103,8.0724 C68.1683,7.6604 68.4673,7.2914 68.8793,7.2494 C69.2923,7.2074 69.6603,7.5064 69.7023,7.9184 C69.7403,8.2834 69.7593,8.6554 69.7593,9.0244 C69.7593,12.3414 68.1923,16.2964 60.7223,16.2964" id="Fill-227" fill="#354546" mask="url(#mask-4)"></path>
                <path d="M55.94,25.9433 C55.775,30.4133 52.017,33.9033 47.546,33.7383 C43.076,33.5733 39.586,29.8153 39.752,25.3453 C39.917,20.8743 43.674,17.3843 48.145,17.5493 C52.615,17.7143 56.105,21.4723 55.94,25.9433" id="Fill-228" fill="#C5D5D6" mask="url(#mask-4)"></path>
                <path d="M47.8385,18.2939 C45.9785,18.2939 44.2145,18.9859 42.8435,20.2579 C41.4045,21.5949 40.5725,23.4109 40.5005,25.3729 C40.3515,29.4229 43.5245,32.8389 47.5735,32.9889 C51.6245,33.1379 55.0405,29.9659 55.1915,25.9159 L55.9405,25.9429 L55.1915,25.9159 C55.2635,23.9539 54.5675,22.0809 53.2315,20.6419 C51.8955,19.2039 50.0785,18.3719 48.1165,18.2989 C48.0245,18.2959 47.9315,18.2939 47.8385,18.2939 M47.8505,34.4939 C47.7395,34.4939 47.6295,34.4919 47.5195,34.4879 C42.6425,34.3079 38.8215,30.1939 39.0015,25.3169 C39.0895,22.9549 40.0915,20.7679 41.8225,19.1589 C43.5555,17.5509 45.8105,16.7139 48.1725,16.7999 C50.5345,16.8869 52.7215,17.8889 54.3305,19.6219 C55.9395,21.3539 56.7765,23.6079 56.6905,25.9709 C56.5135,30.7369 52.5795,34.4939 47.8505,34.4939" id="Fill-229" fill="#354546" mask="url(#mask-4)"></path>
                <path d="M53.065,25.8369 C52.959,28.7189 50.536,30.9699 47.653,30.8629 C44.77,30.7569 42.52,28.3339 42.627,25.4509 C42.733,22.5689 45.156,20.3179 48.039,20.4249 C50.92,20.5309 53.171,22.9549 53.065,25.8369" id="Fill-230" fill="#9ABD45" mask="url(#mask-4)"></path>
                <path d="M51.1461,24.2353 C51.0801,26.0273 49.5741,27.4253 47.7821,27.3593 C45.9911,27.2933 44.5911,25.7873 44.6581,23.9953 C44.7241,22.2033 46.2301,20.8043 48.0221,20.8713 C49.8141,20.9373 51.2121,22.4433 51.1461,24.2353" id="Fill-231" fill="#CEEC87" mask="url(#mask-4)"></path>
                <path d="M47.8414,21.1714 C46.7094,21.1714 45.6354,21.5924 44.8014,22.3664 C43.9264,23.1794 43.4194,24.2854 43.3754,25.4794 C43.2844,27.9434 45.2154,30.0234 47.6804,30.1134 C48.8744,30.1604 50.0144,29.7344 50.8894,28.9214 C51.7654,28.1084 52.2714,27.0034 52.3154,25.8094 C52.3604,24.6154 51.9364,23.4754 51.1224,22.6004 C50.3104,21.7254 49.2044,21.2184 48.0104,21.1744 C47.9544,21.1724 47.8984,21.1714 47.8414,21.1714 M47.8514,31.6164 C47.7764,31.6164 47.7004,31.6154 47.6254,31.6124 C44.3334,31.4914 41.7554,28.7144 41.8764,25.4234 C41.9984,22.1324 44.7714,19.5554 48.0664,19.6754 C49.6604,19.7344 51.1364,20.4104 52.2224,21.5794 C53.3074,22.7484 53.8734,24.2704 53.8144,25.8644 C53.7554,27.4594 53.0794,28.9354 51.9094,30.0204 C50.7964,31.0544 49.3624,31.6164 47.8514,31.6164" id="Fill-232" fill="#354546" mask="url(#mask-4)"></path>
                <path d="M49.192,22.1694 C49.523,22.9114 48.486,23.5454 47.129,24.1524 C45.77,24.7604 44.607,25.1114 44.275,24.3704 C43.943,23.6284 44.774,22.5344 46.131,21.9264 C47.49,21.3194 48.86,21.4274 49.192,22.1694" id="Fill-233" fill="#FFFFFF" mask="url(#mask-4)"></path>
                <path d="M48.2545,29.3501 C48.1685,29.1581 48.4385,28.9931 48.7895,28.8351 C49.1425,28.6781 49.4445,28.5861 49.5305,28.7791 C49.6165,28.9721 49.4005,29.2551 49.0485,29.4131 C48.6955,29.5711 48.3405,29.5431 48.2545,29.3501" id="Fill-234" fill="#FFFFFF" mask="url(#mask-4)"></path>
                <path d="M52.649,25.7827 C52.624,26.4637 52.051,26.9947 51.371,26.9697 C50.691,26.9447 50.16,26.3717 50.184,25.6917 C50.21,25.0117 50.782,24.4797 51.462,24.5057 C52.142,24.5307 52.673,25.1027 52.649,25.7827" id="Fill-235" fill="#354546" mask="url(#mask-4)"></path>
                <path d="M78.7789,27.2905 C78.6379,31.0785 75.4539,32.3865 71.6659,32.2465 C67.8779,32.1065 64.9209,30.5715 65.0599,26.7835 C65.1999,22.9955 68.3839,20.0385 72.1729,20.1775 C75.9609,20.3175 78.9189,23.5025 78.7789,27.2905" id="Fill-236" fill="#C5D5D6" mask="url(#mask-4)"></path>
                <path d="M71.9166,20.9233 C68.6476,20.9233 65.9316,23.5193 65.8096,26.8113 C65.7526,28.3523 66.2506,29.4863 67.3326,30.2773 C68.3286,31.0063 69.8366,31.4283 71.6936,31.4963 C73.5636,31.5663 75.1226,31.2563 76.2006,30.6003 C77.3746,29.8863 77.9726,28.7953 78.0286,27.2623 C78.1536,23.8943 75.5146,21.0513 72.1456,20.9273 C72.0686,20.9243 71.9916,20.9233 71.9166,20.9233 M72.1916,33.0063 C72.0096,33.0063 71.8256,33.0033 71.6386,32.9953 C69.4496,32.9153 67.7036,32.4073 66.4466,31.4883 C64.9756,30.4113 64.2356,28.7753 64.3106,26.7563 C64.4656,22.5603 68.0056,19.2723 72.2006,19.4283 C76.3956,19.5833 79.6836,23.1233 79.5276,27.3183 C79.4536,29.3353 78.5716,30.9133 76.9796,31.8823 C75.7656,32.6213 74.1186,33.0063 72.1916,33.0063" id="Fill-237" fill="#354546" mask="url(#mask-4)"></path>
                <path d="M76.3424,27.2007 C76.2514,29.6427 74.1984,29.8997 71.7554,29.8097 C69.3134,29.7197 67.4054,29.3167 67.4964,26.8737 C67.5864,24.4307 69.6404,22.5237 72.0824,22.6147 C74.5254,22.7047 76.4324,24.7577 76.3424,27.2007" id="Fill-238" fill="#19B5FE" mask="url(#mask-4)"></path>
                <path d="M74.6685,25.6679 C74.6115,27.1859 73.4375,27.7499 71.9195,27.6939 C70.4005,27.6379 69.1135,26.9829 69.1705,25.4649 C69.2265,23.9459 70.5025,22.7609 72.0215,22.8169 C73.5385,22.8729 74.7245,24.1489 74.6685,25.6679" id="Fill-239" fill="#39D5FF" mask="url(#mask-4)"></path>
                <path d="M71.9176,23.3613 C69.9526,23.3613 68.3186,24.9223 68.2456,26.9013 C68.1886,28.4533 69.0156,28.9583 71.7836,29.0603 C74.9236,29.1783 75.5436,28.4863 75.5926,27.1733 C75.6676,25.1473 74.0806,23.4383 72.0556,23.3633 C72.0096,23.3623 71.9636,23.3613 71.9176,23.3613 M72.5946,30.5793 C72.2756,30.5793 71.9816,30.5693 71.7286,30.5593 C70.0686,30.4983 66.6166,30.3703 66.7466,26.8463 C66.8526,23.9943 69.2556,21.7633 72.1096,21.8643 C74.9626,21.9703 77.1966,24.3763 77.0916,27.2283 C76.9806,30.2263 74.4056,30.5793 72.5946,30.5793" id="Fill-240" fill="#354546" mask="url(#mask-4)"></path>
                <path d="M73.0602,24.0927 C73.3412,24.7207 72.4612,25.2587 71.3112,25.7737 C70.1612,26.2887 69.1742,26.5867 68.8932,25.9577 C68.6122,25.3287 69.3172,24.4017 70.4672,23.8867 C71.6182,23.3717 72.7792,23.4647 73.0602,24.0927" id="Fill-241" fill="#FFFFFF" mask="url(#mask-4)"></path>
                <path d="M73.3766,28.5874 C73.3046,28.4244 73.5316,28.2854 73.8306,28.1514 C74.1296,28.0174 74.3856,27.9404 74.4586,28.1034 C74.5306,28.2664 74.3486,28.5074 74.0496,28.6404 C73.7516,28.7744 73.4496,28.7504 73.3766,28.5874" id="Fill-242" fill="#FFFFFF" mask="url(#mask-4)"></path>
                <path d="M70.0025,27.0049 C69.9815,27.5819 69.4965,28.0319 68.9195,28.0109 C68.3435,27.9889 67.8935,27.5049 67.9145,26.9279 C67.9355,26.3509 68.4205,25.9009 68.9965,25.9219 C69.5735,25.9439 70.0235,26.4279 70.0025,27.0049" id="Fill-243" fill="#354546" mask="url(#mask-4)"></path>
                <path d="M72.1852,41.999 C72.1852,47.616 66.2492,47.134 59.1252,47.134 C52.0002,47.134 46.3842,47.616 46.3842,41.999 C46.3842,36.382 52.1612,37.206 59.2852,37.206 C66.4092,37.206 72.1852,36.382 72.1852,41.999" id="Fill-244" fill="#FFFFFF" mask="url(#mask-4)"></path>
                <path d="M59.1256,46.3847 C59.6566,46.3847 60.1816,46.3867 60.6966,46.3897 C65.0586,46.4107 68.8246,46.4307 70.4716,44.7937 C71.1196,44.1477 71.4356,43.2337 71.4356,41.9987 C71.4356,40.7807 71.1366,39.8937 70.5226,39.2887 C69.0466,37.8327 65.6576,37.8797 61.7326,37.9337 C60.9406,37.9447 60.1236,37.9557 59.2846,37.9557 C58.4456,37.9557 57.6286,37.9447 56.8366,37.9337 C52.9116,37.8797 49.5226,37.8327 48.0466,39.2887 C47.4336,39.8937 47.1346,40.7807 47.1346,41.9987 C47.1346,43.2727 47.4506,44.2057 48.1016,44.8527 C49.6866,46.4297 53.3326,46.4117 57.5546,46.3897 C58.0686,46.3867 58.5926,46.3847 59.1256,46.3847 M56.0756,47.8947 C52.0356,47.8947 48.8546,47.7177 47.0426,45.9157 C46.0956,44.9737 45.6346,43.6927 45.6346,41.9987 C45.6346,40.3587 46.0786,39.1227 46.9926,38.2207 C48.9156,36.3237 52.4206,36.3727 56.8576,36.4337 C57.6446,36.4447 58.4566,36.4557 59.2846,36.4557 C60.1126,36.4557 60.9256,36.4447 61.7116,36.4337 C66.1486,36.3727 69.6536,36.3237 71.5766,38.2207 C72.4906,39.1227 72.9356,40.3587 72.9356,41.9987 C72.9356,43.6307 72.4616,44.9287 71.5286,45.8567 C69.4406,47.9347 65.3856,47.9137 60.6886,47.8897 C59.6606,47.8847 58.5836,47.8847 57.5626,47.8897 C57.0556,47.8927 56.5596,47.8947 56.0756,47.8947" id="Fill-245" fill="#354546" mask="url(#mask-4)"></path>
                <path d="M51.149,47.6357 L51.128,47.6357 C50.713,47.6237 50.387,47.2787 50.399,46.8647 L50.667,37.2807 C50.678,36.8657 51.026,36.5417 51.438,36.5517 C51.851,36.5637 52.178,36.9077 52.167,37.3227 L51.898,46.9067 C51.887,47.3137 51.553,47.6357 51.149,47.6357" id="Fill-246" fill="#354546" mask="url(#mask-4)"></path>
                <path d="M58.6754,47.8847 L58.6634,47.8847 C58.2494,47.8777 57.9184,47.5367 57.9254,47.1227 L58.0844,37.1947 C58.0914,36.7837 58.4264,36.4557 58.8344,36.4557 C58.8384,36.4557 58.8424,36.4557 58.8474,36.4567 C59.2614,36.4627 59.5914,36.8037 59.5844,37.2177 L59.4254,47.1467 C59.4184,47.5567 59.0844,47.8847 58.6754,47.8847" id="Fill-247" fill="#354546" mask="url(#mask-4)"></path>
                <path d="M66.1334,47.7646 L66.1154,47.7646 C65.7004,47.7546 65.3734,47.4116 65.3824,46.9976 L65.6094,37.1886 C65.6184,36.7746 65.9604,36.4476 66.3754,36.4566 C66.7894,36.4656 67.1174,36.8096 67.1094,37.2236 L66.8824,47.0326 C66.8724,47.4406 66.5384,47.7646 66.1334,47.7646" id="Fill-248" fill="#354546" mask="url(#mask-4)"></path>
            </g>
        </g>
    </g>
</svg>