<?xml version="1.0" encoding="UTF-8"?>
<svg width="120px" height="122px" viewBox="0 0 120 122" version="1.1" xmlns="http://www.w3.org/2000/svg" xmlns:xlink="http://www.w3.org/1999/xlink">
    <!-- Generator: Sketch 42 (36781) - http://www.bohemiancoding.com/sketch -->
    <title>17</title>
    <desc>Created with Sketch.</desc>
    <defs>
        <polygon id="path-1" points="63.3738 8 0.1068 8 0.1068 0.3769 63.3738 0.3769 63.3738 8"></polygon>
        <polygon id="path-3" points="0 122.041 119.886 122.041 119.886 0 0 0"></polygon>
    </defs>
    <g id="Page-1" stroke="none" stroke-width="1" fill="none" fill-rule="evenodd">
        <g id="1024" transform="translate(-323.000000, -123.000000)">
            <g id="17" transform="translate(323.000000, 123.000000)">
                <g id="Group-3" transform="translate(28.000000, 114.041000)">
                    <mask id="mask-2" fill="white">
                        <use xlink:href="#path-1"></use>
                    </mask>
                    <g id="Clip-2"></g>
                    <path d="M63.3738,4.1889 C63.3738,6.2929 49.2108,8.0009 31.7398,8.0009 C14.2698,8.0009 0.1068,6.2929 0.1068,4.1889 C0.1068,2.0849 14.2698,0.3769 31.7398,0.3769 C49.2108,0.3769 63.3738,2.0849 63.3738,4.1889" id="Fill-1" fill="#CCCCCC" mask="url(#mask-2)"></path>
                </g>
                <mask id="mask-4" fill="white">
                    <use xlink:href="#path-3"></use>
                </mask>
                <g id="Clip-5"></g>
                <polygon id="Fill-4" fill="#758586" mask="url(#mask-4)" points="51.358 87.554 67.476 87.554 67.476 75.948 51.358 75.948"></polygon>
                <path d="M52.108,86.804 L66.726,86.804 L66.726,76.698 L52.108,76.698 L52.108,86.804 Z M67.476,88.304 L51.358,88.304 C50.943,88.304 50.608,87.968 50.608,87.554 L50.608,75.948 C50.608,75.534 50.943,75.198 51.358,75.198 L67.476,75.198 C67.89,75.198 68.226,75.534 68.226,75.948 L68.226,87.554 C68.226,87.968 67.89,88.304 67.476,88.304 L67.476,88.304 Z" id="Fill-6" fill="#354546" mask="url(#mask-4)"></path>
                <polygon id="Fill-7" fill="#758586" mask="url(#mask-4)" points="55.018 61.398 64.36 61.398 64.36 52.895 55.018 52.895"></polygon>
                <path d="M55.768,60.648 L63.61,60.648 L63.61,53.645 L55.768,53.645 L55.768,60.648 Z M64.36,62.148 L55.018,62.148 C54.604,62.148 54.268,61.812 54.268,61.398 L54.268,52.895 C54.268,52.48 54.604,52.145 55.018,52.145 L64.36,52.145 C64.775,52.145 65.11,52.48 65.11,52.895 L65.11,61.398 C65.11,61.812 64.775,62.148 64.36,62.148 L64.36,62.148 Z" id="Fill-8" fill="#354546" mask="url(#mask-4)"></path>
                <path d="M64.3611,58.3979 C64.3471,58.3979 64.3341,58.3979 64.3201,58.3969 L54.9771,57.8959 C54.5641,57.8729 54.2471,57.5199 54.2691,57.1059 C54.2911,56.6929 54.6451,56.3769 55.0581,56.3979 L64.4011,56.8989 C64.8141,56.9209 65.1321,57.2739 65.1091,57.6879 C65.0881,58.0879 64.7571,58.3979 64.3611,58.3979" id="Fill-9" fill="#354546" mask="url(#mask-4)"></path>
                <path d="M39.1228,76.893 C39.5958,78.609 39.8048,80.406 39.7578,82.175 L35.1918,82.049 C35.2268,80.708 35.0708,79.383 34.7188,78.099 L39.1228,76.893 Z" id="Fill-10" fill="#F9BF3B" mask="url(#mask-4)"></path>
                <path d="M35.9421,82.0678 L34.4421,82.0308 C34.4741,80.7508 34.3241,79.4948 33.9961,78.2978 L35.4421,77.9008 C35.8091,79.2388 35.9781,80.6408 35.9421,82.0678" id="Fill-11" fill="#F1892D" mask="url(#mask-4)"></path>
                <path d="M40.5066,82.1948 L39.0076,82.1548 C39.0536,80.4248 38.8496,78.7218 38.4006,77.0908 L39.8466,76.6938 C40.3346,78.4658 40.5566,80.3178 40.5066,82.1948" id="Fill-12" fill="#F1892D" mask="url(#mask-4)"></path>
                <polygon id="Fill-13" fill="#F1892D" mask="url(#mask-4)" points="35.1892 80.7973 35.0122 79.3083 39.5462 78.7693 39.7232 80.2593"></polygon>
                <path d="M37.0476,72.06 C37.9296,73.547 38.6536,75.174 39.1226,76.893 L34.7186,78.099 C34.3676,76.815 33.8206,75.573 33.1176,74.385 L37.0476,72.06 Z" id="Fill-14" fill="#F9BF3B" mask="url(#mask-4)"></path>
                <path d="M33.9949,78.2973 C33.6729,77.1163 33.1609,75.9293 32.4729,74.7673 L33.7639,74.0023 C34.5189,75.2793 35.0849,76.5923 35.4419,77.9013 L33.9949,78.2973 Z" id="Fill-15" fill="#F1892D" mask="url(#mask-4)"></path>
                <path d="M38.3992,77.0903 C37.9702,75.5173 37.2982,73.9523 36.4022,72.4423 L37.6932,71.6773 C38.6572,73.3033 39.3812,74.9913 39.8462,76.6943 L38.3992,77.0903 Z" id="Fill-16" fill="#F1892D" mask="url(#mask-4)"></path>
                <polygon id="Fill-17" fill="#F1892D" mask="url(#mask-4)" points="34.3484 76.894 33.7524 75.518 37.9424 73.702 38.5384 75.078"></polygon>
                <path d="M34.0339,67.9633 C35.1319,69.2133 36.1659,70.5683 37.0479,72.0603 L33.1179,74.3853 C32.4149,73.1963 31.5579,72.0653 30.6039,70.9793 L34.0339,67.9633 Z" id="Fill-18" fill="#F9BF3B" mask="url(#mask-4)"></path>
                <path d="M32.4724,74.7671 C31.8304,73.6831 31.0354,72.6061 30.0404,71.4741 L31.1674,70.4841 C32.2244,71.6861 33.0744,72.8371 33.7634,74.0031 L32.4724,74.7671 Z" id="Fill-19" fill="#F1892D" mask="url(#mask-4)"></path>
                <path d="M36.4021,72.4419 C35.6141,71.1099 34.6551,69.8059 33.4701,68.4589 L34.5971,67.4679 C35.8441,68.8869 36.8571,70.2639 37.6931,71.6779 L36.4021,72.4419 Z" id="Fill-20" fill="#F1892D" mask="url(#mask-4)"></path>
                <polygon id="Fill-21" fill="#F1892D" mask="url(#mask-4)" points="32.4021 73.2456 31.5081 72.0416 35.1741 69.3186 36.0691 70.5226"></polygon>
                <path d="M30.6062,64.4804 C31.7682,65.5684 32.9352,66.7114 34.0342,67.9634 L30.6042,70.9794 C29.6502,69.8914 28.5942,68.8524 27.4852,67.8144 L30.6062,64.4804 Z" id="Fill-22" fill="#F9BF3B" mask="url(#mask-4)"></path>
                <path d="M30.0398,71.4731 C29.2258,70.5441 28.2788,69.5841 26.9738,68.3621 L27.9978,67.2661 C29.3418,68.5241 30.3188,69.5161 31.1678,70.4841 L30.0398,71.4731 Z" id="Fill-23" fill="#F1892D" mask="url(#mask-4)"></path>
                <path d="M33.4695,68.4585 C32.2965,67.1215 31.0495,65.9225 30.0935,65.0275 L31.1185,63.9335 C32.0995,64.8515 33.3805,66.0835 34.5975,67.4685 L33.4695,68.4585 Z" id="Fill-24" fill="#F1892D" mask="url(#mask-4)"></path>
                <polygon id="Fill-25" fill="#F1892D" mask="url(#mask-4)" points="29.6306 69.9096 28.5736 68.8456 31.8156 65.6286 32.8716 66.6936"></polygon>
                <path d="M27.2771,61.3506 C27.7731,61.8536 28.3191,62.3666 28.8821,62.8866 L30.6061,64.4806 L27.4851,67.8146 L25.7831,66.2396 C25.2041,65.7046 24.6141,65.1536 24.0181,64.5496 L27.2771,61.3506 Z" id="Fill-26" fill="#F9BF3B" mask="url(#mask-4)"></path>
                <path d="M26.9763,68.3647 L25.2733,66.7907 C24.7063,66.2657 24.1013,65.7017 23.4843,65.0757 L24.5523,64.0227 C25.1463,64.6257 25.7383,65.1767 26.2913,65.6897 L27.9953,67.2627 L26.9763,68.3647 Z" id="Fill-27" fill="#F1892D" mask="url(#mask-4)"></path>
                <path d="M30.0974,65.0312 L28.3734,63.4372 C27.8354,62.9402 27.2654,62.4072 26.7434,61.8772 L27.8104,60.8232 C28.3124,61.3322 28.8674,61.8512 29.3914,62.3362 L31.1164,63.9292 L30.0974,65.0312 Z" id="Fill-28" fill="#F1892D" mask="url(#mask-4)"></path>
                <polygon id="Fill-29" fill="#F1892D" mask="url(#mask-4)" points="26.3337 66.749 25.2317 65.731 28.3317 62.377 29.4337 63.396"></polygon>
                <path d="M26.363,59.8813 C26.284,60.0643 26.359,60.2693 26.461,60.4263 C26.511,60.5083 26.571,60.5843 26.634,60.6573 L26.757,60.7963 C26.806,60.8543 26.86,60.9133 26.921,60.9763 C27.033,61.1003 27.155,61.2253 27.277,61.3503 L24.018,64.5493 C23.869,64.3963 23.719,64.2423 23.569,64.0793 C23.496,64.0013 23.419,63.9163 23.342,63.8283 L23.225,63.6973 C23.204,63.6733 23.192,63.6603 23.163,63.6253 L23.082,63.5273 C22.974,63.3943 22.862,63.2653 22.76,63.1313 L22.457,62.7223 L22.183,62.3003 L21.94,61.8663 C21.635,61.2813 21.44,60.6663 21.378,60.0423 C21.337,59.7293 21.352,59.4143 21.384,59.1023 C21.434,58.7923 21.492,58.4793 21.615,58.1873 L26.363,59.8813 Z" id="Fill-30" fill="#F9BF3B" mask="url(#mask-4)"></path>
                <path d="M23.4802,65.0722 L23.4542,65.0452 C23.3082,64.8952 23.1632,64.7452 23.0172,64.5862 C22.9442,64.5102 22.8622,64.4192 22.7782,64.3232 L22.6472,64.1752 C22.6282,64.1552 22.6112,64.1352 22.5822,64.0992 L22.5022,64.0032 C22.4622,63.9542 22.4262,63.9102 22.3902,63.8662 C22.3122,63.7732 22.2352,63.6792 22.1622,63.5832 L21.8282,63.1312 L21.5292,62.6672 L21.2752,62.2132 C20.9202,61.5342 20.7052,60.8332 20.6322,60.1282 C20.5802,59.7162 20.6072,59.3222 20.6372,59.0252 L20.6442,58.9802 C20.7012,58.6332 20.7692,58.2642 20.9222,57.8972 L22.3062,58.4772 C22.2172,58.6872 22.1702,58.9392 22.1272,59.2002 C22.1062,59.4162 22.0872,59.6902 22.1212,59.9432 L22.1242,59.9672 C22.1752,60.4812 22.3352,61.0002 22.6002,61.5092 L22.8262,61.9122 L23.0742,62.2942 L23.3622,62.6832 C23.4172,62.7562 23.4802,62.8322 23.5432,62.9072 C23.5842,62.9562 23.6252,63.0062 23.6652,63.0552 L23.9022,63.3302 C23.9762,63.4142 24.0462,63.4922 24.1152,63.5642 C24.2582,63.7202 24.3942,63.8612 24.5302,64.0002 L24.5562,64.0272 L23.4802,65.0722 Z" id="Fill-31" fill="#F1892D" mask="url(#mask-4)"></path>
                <path d="M26.7371,61.872 L26.6891,61.822 C26.5791,61.708 26.4691,61.595 26.3671,61.483 C26.3081,61.422 26.2481,61.354 26.1911,61.289 L26.0721,61.155 C25.9681,61.034 25.8901,60.929 25.8251,60.826 C25.5611,60.415 25.5071,59.972 25.6751,59.583 L27.0511,60.18 C27.0911,60.086 27.0801,60.007 27.0731,59.987 C27.0731,59.987 27.0771,59.999 27.0911,60.021 C27.1211,60.068 27.1561,60.115 27.2031,60.17 L27.3171,60.299 C27.3651,60.353 27.4121,60.406 27.4651,60.46 C27.5671,60.572 27.6671,60.675 27.7671,60.779 L27.8161,60.829 L26.7371,61.872 Z" id="Fill-32" fill="#F1892D" mask="url(#mask-4)"></path>
                <polygon id="Fill-33" fill="#F1892D" mask="url(#mask-4)" points="22.1677 62.581 21.7127 61.152 26.2317 59.712 26.6887 61.142"></polygon>
                <path d="M27.3386,59.4448 C27.1486,59.4058 26.9476,59.4108 26.7716,59.4918 C26.6006,59.5738 26.4396,59.7038 26.3626,59.8818 L21.6146,58.1878 C22.0646,57.0058 23.0336,56.0618 24.1776,55.4468 C24.7536,55.1428 25.3926,54.9428 26.0546,54.8598 C26.7156,54.7758 27.4016,54.8098 28.0676,54.9348 L27.3386,59.4448 Z" id="Fill-34" fill="#F9BF3B" mask="url(#mask-4)"></path>
                <path d="M22.3152,58.4541 L20.9142,57.9201 C21.3982,56.6471 22.4312,55.5341 23.8222,54.7861 C24.4912,54.4341 25.2092,54.2091 25.9612,54.1161 C26.6742,54.0251 27.4302,54.0521 28.2072,54.1971 L27.9302,55.6721 C27.3082,55.5561 26.7092,55.5331 26.1492,55.6041 C25.5742,55.6761 25.0292,55.8461 24.5272,56.1101 C23.4602,56.6841 22.6712,57.5181 22.3152,58.4541" id="Fill-35" fill="#F1892D" mask="url(#mask-4)"></path>
                <path d="M27.0349,60.2065 C27.0349,60.2065 27.0439,60.1965 27.0529,60.1765 L25.6739,59.5865 C25.8129,59.2605 26.0889,58.9865 26.4489,58.8145 C26.7659,58.6695 27.1219,58.6355 27.4889,58.7105 L27.1879,60.1795 C27.1259,60.1665 27.0899,60.1715 27.0819,60.1745 C27.0579,60.1855 27.0399,60.2015 27.0349,60.2065" id="Fill-36" fill="#F1892D" mask="url(#mask-4)"></path>
                <polygon id="Fill-37" fill="#F1892D" mask="url(#mask-4)" points="26.1404 59.8969 23.5454 55.8519 24.8084 55.0419 27.4034 59.0869"></polygon>
                <path d="M30.6794,61.0874 C30.0614,60.6954 29.4494,60.3304 28.8614,60.0334 C28.5674,59.8874 28.2804,59.7574 28.0074,59.6524 L27.8064,59.5794 L27.6134,59.5174 L27.4294,59.4664 L27.4074,59.4604 L27.3954,59.4574 L27.3764,59.4534 L27.3384,59.4444 L28.0684,54.9344 L28.3164,54.9854 L28.4394,55.0124 L28.4984,55.0264 L28.5464,55.0394 L28.9244,55.1434 L29.2864,55.2594 L29.6334,55.3854 C30.0874,55.5594 30.5084,55.7524 30.9104,55.9534 C31.7114,56.3574 32.4354,56.7944 33.1304,57.2344 L30.6794,61.0874 Z" id="Fill-38" fill="#F9BF3B" mask="url(#mask-4)"></path>
                <path d="M32.7292,57.8686 C32.1262,57.4866 31.3982,57.0396 30.5732,56.6226 C30.1452,56.4096 29.7502,56.2326 29.3652,56.0856 L29.0432,55.9696 L28.7102,55.8616 L28.1552,55.7176 L27.9172,55.6696 L28.2192,54.1996 L28.7392,54.3136 L29.1542,54.4286 L29.5432,54.5546 L29.8902,54.6806 C30.3332,54.8496 30.7722,55.0456 31.2472,55.2826 C32.1312,55.7296 32.8992,56.1996 33.5322,56.6016 L32.7292,57.8686 Z" id="Fill-39" fill="#F1892D" mask="url(#mask-4)"></path>
                <path d="M30.2771,61.7207 C29.5831,61.2797 29.0251,60.9567 28.5231,60.7037 C28.2401,60.5617 27.9751,60.4437 27.7391,60.3527 L27.3991,60.2357 L27.1781,60.1777 L27.4981,58.7127 L27.6331,58.7447 L27.8421,58.8037 L28.0651,58.8747 L28.2661,58.9487 C28.5571,59.0607 28.8671,59.1987 29.1961,59.3627 C29.7461,59.6397 30.3431,59.9867 31.0811,60.4537 L30.2771,61.7207 Z" id="Fill-40" fill="#F1892D" mask="url(#mask-4)"></path>
                <polygon id="Fill-41" fill="#F1892D" mask="url(#mask-4)" points="29.531 60.3706 28.19 59.6976 30.241 55.6166 31.582 56.2896"></polygon>
                <path d="M34.5017,63.6611 C33.1847,62.7761 31.9187,61.8781 30.6797,61.0871 L33.1307,57.2351 C34.5147,58.1191 35.7857,59.0231 37.0507,59.8721 L34.5017,63.6611 Z" id="Fill-42" fill="#F9BF3B" mask="url(#mask-4)"></path>
                <path d="M36.6326,60.4951 C36.1926,60.1991 35.7506,59.8971 35.3046,59.5911 C34.4766,59.0241 33.6206,58.4381 32.7276,57.8671 L33.5346,56.6031 C34.4486,57.1871 35.3156,57.7801 36.1526,58.3541 C36.5946,58.6571 37.0316,58.9561 37.4686,59.2491 L36.6326,60.4951 Z" id="Fill-43" fill="#F1892D" mask="url(#mask-4)"></path>
                <path d="M34.0837,64.2837 C33.6177,63.9717 33.1597,63.6577 32.7057,63.3467 C31.8637,62.7697 31.0687,62.2257 30.2747,61.7197 L31.0827,60.4547 C31.8957,60.9737 32.7007,61.5257 33.5537,62.1087 C34.0037,62.4167 34.4587,62.7287 34.9197,63.0387 L34.0837,64.2837 Z" id="Fill-44" fill="#F1892D" mask="url(#mask-4)"></path>
                <polygon id="Fill-45" fill="#F1892D" mask="url(#mask-4)" points="33.1804 62.7617 31.9424 61.9167 34.5154 58.1437 35.7544 58.9897"></polygon>
                <path d="M38.6667,66.2241 C37.1927,65.4301 35.8187,64.5481 34.5017,63.6611 L37.0507,59.8721 C38.3127,60.7221 39.5627,61.5201 40.8287,62.2021 L38.6667,66.2241 Z" id="Fill-46" fill="#F9BF3B" mask="url(#mask-4)"></path>
                <path d="M40.4734,62.8623 C39.3504,62.2573 38.1654,61.5273 36.6314,60.4943 L37.4694,59.2503 C38.9604,60.2543 40.1064,60.9613 41.1844,61.5413 L40.4734,62.8623 Z" id="Fill-47" fill="#F1892D" mask="url(#mask-4)"></path>
                <path d="M38.3113,66.8842 C36.6983,66.0152 35.2043,65.0382 34.0823,64.2832 L34.9203,63.0392 C36.0133,63.7742 37.4673,64.7262 39.0223,65.5642 L38.3113,66.8842 Z" id="Fill-48" fill="#F1892D" mask="url(#mask-4)"></path>
                <polygon id="Fill-49" fill="#F1892D" mask="url(#mask-4)" points="37.1619 65.3735 35.8889 64.5815 38.3019 60.7045 39.5749 61.4965"></polygon>
                <path d="M43.4431,68.1963 C41.7211,67.7243 40.1421,67.0133 38.6671,66.2243 L40.8291,62.2013 C42.0931,62.8793 43.3751,63.4443 44.6561,63.7943 L43.4431,68.1963 Z" id="Fill-50" fill="#F9BF3B" mask="url(#mask-4)"></path>
                <path d="M44.4587,64.5175 C43.2317,64.1835 41.9297,63.6425 40.4747,62.8625 L41.1837,61.5405 C42.5367,62.2655 43.7367,62.7665 44.8537,63.0705 L44.4587,64.5175 Z" id="Fill-51" fill="#F1892D" mask="url(#mask-4)"></path>
                <path d="M43.2449,68.9194 C41.6659,68.4864 40.0989,67.8404 38.3129,66.8854 L39.0199,65.5634 C40.7049,66.4634 42.1739,67.0704 43.6409,67.4734 L43.2449,68.9194 Z" id="Fill-52" fill="#F1892D" mask="url(#mask-4)"></path>
                <polygon id="Fill-53" fill="#F1892D" mask="url(#mask-4)" points="41.6541 67.6196 40.2721 67.0366 42.0451 62.8286 43.4271 63.4116"></polygon>
                <path d="M48.8826,68.7192 C47.0236,68.8932 45.1556,68.6752 43.4436,68.1962 L44.6556,63.7942 C45.9386,64.1522 47.2136,64.2852 48.4546,64.1732 L48.8826,68.7192 Z" id="Fill-54" fill="#F9BF3B" mask="url(#mask-4)"></path>
                <path d="M47.5925,64.9619 C46.5685,64.9619 45.5175,64.8129 44.4545,64.5169 L44.8585,63.0709 C46.0685,63.4089 47.2555,63.5279 48.3875,63.4259 L48.5225,64.9199 C48.2155,64.9479 47.9045,64.9619 47.5925,64.9619" id="Fill-55" fill="#F1892D" mask="url(#mask-4)"></path>
                <path d="M47.6091,69.5278 C46.1701,69.5278 44.6821,69.3218 43.2411,68.9188 L43.6451,67.4738 C45.3651,67.9548 47.1511,68.1278 48.8121,67.9728 L48.9521,69.4658 C48.5111,69.5068 48.0621,69.5278 47.6091,69.5278" id="Fill-56" fill="#F1892D" mask="url(#mask-4)"></path>
                <polygon id="Fill-57" fill="#F1892D" mask="url(#mask-4)" points="46.8533 68.7788 45.3613 68.6278 45.8253 64.0838 47.3173 64.2368"></polygon>
                <path d="M84.99,78.0991 C84.637,79.3831 84.483,80.7081 84.516,82.0491 L79.952,82.1751 C79.905,80.4061 80.113,78.6091 80.586,76.8931 L84.99,78.0991 Z" id="Fill-58" fill="#F9BF3B" mask="url(#mask-4)"></path>
                <path d="M79.2019,82.1948 C79.1519,80.3178 79.3749,78.4658 79.8629,76.6938 L81.3089,77.0908 C80.8599,78.7218 80.6559,80.4248 80.7009,82.1558 L79.2019,82.1948 Z" id="Fill-59" fill="#F1892D" mask="url(#mask-4)"></path>
                <path d="M83.7664,82.0678 C83.7314,80.6408 83.8994,79.2388 84.2664,77.9008 L85.7134,78.2978 C85.3844,79.4948 85.2344,80.7508 85.2664,82.0308 L83.7664,82.0678 Z" id="Fill-60" fill="#F1892D" mask="url(#mask-4)"></path>
                <polygon id="Fill-61" fill="#F1892D" mask="url(#mask-4)" points="84.5203 80.7973 79.9853 80.2593 80.1623 78.7693 84.6973 79.3083"></polygon>
                <path d="M86.5916,74.3852 C85.8886,75.5722 85.3406,76.8152 84.9896,78.0992 L80.5856,76.8932 C81.0546,75.1742 81.7796,73.5472 82.6606,72.0602 L86.5916,74.3852 Z" id="Fill-62" fill="#F9BF3B" mask="url(#mask-4)"></path>
                <path d="M81.3093,77.0903 L79.8623,76.6943 C80.3273,74.9923 81.0513,73.3043 82.0153,71.6773 L83.3063,72.4423 C82.4113,73.9533 81.7393,75.5173 81.3093,77.0903" id="Fill-63" fill="#F1892D" mask="url(#mask-4)"></path>
                <path d="M85.7136,78.2973 L84.2666,77.9013 C84.6246,76.5923 85.1896,75.2793 85.9456,74.0023 L87.2356,74.7673 C86.5486,75.9293 86.0356,77.1163 85.7136,78.2973" id="Fill-64" fill="#F1892D" mask="url(#mask-4)"></path>
                <polygon id="Fill-65" fill="#F1892D" mask="url(#mask-4)" points="85.3601 76.894 81.1711 75.078 81.7661 73.702 85.9571 75.518"></polygon>
                <path d="M89.1042,70.979 C88.1502,72.065 87.2932,73.197 86.5912,74.385 L82.6612,72.06 C83.5422,70.569 84.5772,69.213 85.6752,67.963 L89.1042,70.979 Z" id="Fill-66" fill="#F9BF3B" mask="url(#mask-4)"></path>
                <path d="M83.3064,72.4419 L82.0154,71.6769 C82.8524,70.2639 83.8654,68.8869 85.1124,67.4679 L86.2394,68.4589 C85.0534,69.8059 84.0944,71.1099 83.3064,72.4419" id="Fill-67" fill="#F1892D" mask="url(#mask-4)"></path>
                <path d="M87.2371,74.7671 L85.9461,74.0031 C86.6351,72.8371 87.4841,71.6871 88.5421,70.4841 L89.6681,71.4741 C88.6741,72.6061 87.8781,73.6831 87.2371,74.7671" id="Fill-68" fill="#F1892D" mask="url(#mask-4)"></path>
                <polygon id="Fill-69" fill="#F1892D" mask="url(#mask-4)" points="87.3064 73.2456 83.6404 70.5226 84.5344 69.3186 88.2014 72.0416"></polygon>
                <path d="M92.2234,67.8144 C91.1154,68.8524 90.0594,69.8914 89.1044,70.9794 L85.6754,67.9634 C86.7734,66.7114 87.9404,65.5684 89.1024,64.4804 L92.2234,67.8144 Z" id="Fill-70" fill="#F9BF3B" mask="url(#mask-4)"></path>
                <path d="M86.239,68.4585 L85.112,67.4685 C86.328,66.0835 87.609,64.8515 88.59,63.9335 L89.615,65.0275 C88.66,65.9225 87.412,67.1215 86.239,68.4585" id="Fill-71" fill="#F1892D" mask="url(#mask-4)"></path>
                <path d="M89.6687,71.4731 L88.5407,70.4841 C89.3897,69.5161 90.3667,68.5241 91.7107,67.2661 L92.7357,68.3621 C91.4297,69.5841 90.4837,70.5441 89.6687,71.4731" id="Fill-72" fill="#F1892D" mask="url(#mask-4)"></path>
                <polygon id="Fill-73" fill="#F1892D" mask="url(#mask-4)" points="90.0779 69.9096 86.8369 66.6936 87.8929 65.6286 91.1349 68.8456"></polygon>
                <path d="M95.6912,64.5498 C95.0942,65.1538 94.5042,65.7048 93.9262,66.2398 L92.2232,67.8148 L89.1022,64.4808 L90.8262,62.8868 C91.3892,62.3658 91.9362,61.8538 92.4322,61.3508 L95.6912,64.5498 Z" id="Fill-74" fill="#F9BF3B" mask="url(#mask-4)"></path>
                <path d="M89.6121,65.0312 L88.5931,63.9292 L90.3171,62.3362 C90.8411,61.8512 91.3971,61.3322 91.8981,60.8232 L92.9661,61.8772 C92.4431,62.4072 91.8731,62.9402 91.3351,63.4382 L89.6121,65.0312 Z" id="Fill-75" fill="#F1892D" mask="url(#mask-4)"></path>
                <path d="M92.7322,68.3647 L91.7142,67.2627 L93.4172,65.6897 C93.9702,65.1767 94.5612,64.6267 95.1572,64.0227 L96.2242,65.0757 C95.6072,65.7027 95.0022,66.2667 94.4352,66.7907 L92.7322,68.3647 Z" id="Fill-76" fill="#F1892D" mask="url(#mask-4)"></path>
                <polygon id="Fill-77" fill="#F1892D" mask="url(#mask-4)" points="93.3757 66.749 90.2747 63.396 91.3767 62.377 94.4767 65.731"></polygon>
                <path d="M98.0945,58.1875 C98.2165,58.4795 98.2745,58.7915 98.3245,59.1025 C98.3575,59.4145 98.3725,59.7295 98.3305,60.0415 C98.2685,60.6665 98.0735,61.2815 97.7685,61.8665 L97.5255,62.3005 L97.2515,62.7225 L96.9485,63.1305 C96.8465,63.2655 96.7345,63.3945 96.6265,63.5265 L96.5455,63.6255 C96.5175,63.6605 96.5045,63.6725 96.4835,63.6975 L96.3675,63.8285 C96.2895,63.9165 96.2135,64.0005 96.1395,64.0795 C95.9895,64.2425 95.8405,64.3955 95.6915,64.5495 L92.4325,61.3505 C92.5535,61.2255 92.6755,61.1005 92.7885,60.9765 C92.8485,60.9135 92.9025,60.8545 92.9525,60.7965 L93.0755,60.6575 C93.1385,60.5845 93.1975,60.5085 93.2485,60.4265 C93.3495,60.2695 93.4245,60.0645 93.3455,59.8815 L98.0945,58.1875 Z" id="Fill-78" fill="#F9BF3B" mask="url(#mask-4)"></path>
                <path d="M92.9714,61.872 L91.8934,60.829 L91.9444,60.776 C92.0434,60.674 92.1434,60.571 92.2354,60.47 C92.2964,60.406 92.3434,60.353 92.3874,60.303 L92.5144,60.16 C92.5524,60.115 92.5874,60.068 92.6144,60.028 C92.6314,59.999 92.6364,59.987 92.6364,59.987 C92.6284,60.007 92.6174,60.086 92.6574,60.179 L94.0334,59.583 C94.2014,59.972 94.1474,60.415 93.8794,60.832 C93.8184,60.93 93.7404,61.034 93.6454,61.145 L93.5134,61.294 C93.4604,61.354 93.4004,61.422 93.3324,61.493 C93.2404,61.594 93.1304,61.707 93.0214,61.82 L92.9714,61.872 Z" id="Fill-79" fill="#F1892D" mask="url(#mask-4)"></path>
                <path d="M96.2292,65.0722 L95.1522,64.0272 L95.1752,64.0042 C95.3122,63.8632 95.4492,63.7222 95.5862,63.5722 C95.6632,63.4912 95.7332,63.4142 95.8042,63.3322 L96.0472,63.0502 C96.0832,63.0062 96.1252,62.9562 96.1652,62.9072 C96.2282,62.8322 96.2912,62.7562 96.3512,62.6772 L96.6352,62.2942 L96.8832,61.9122 L97.1092,61.5092 C97.3732,61.0002 97.5332,60.4812 97.5842,59.9672 L97.5872,59.9432 C97.6212,59.6902 97.6022,59.4162 97.5812,59.2002 C97.5382,58.9392 97.4912,58.6882 97.4032,58.4772 L98.7862,57.8972 C98.9402,58.2642 99.0082,58.6332 99.0652,58.9802 L99.0712,59.0262 C99.1012,59.3232 99.1282,59.7162 99.0762,60.1282 C99.0032,60.8322 98.7882,61.5342 98.4332,62.2132 L98.4222,62.2332 L98.1552,62.7082 L97.8542,63.1692 L97.5502,63.5772 C97.4732,63.6792 97.3962,63.7732 97.3192,63.8662 C97.2822,63.9102 97.2462,63.9542 97.2102,63.9982 L97.1252,64.1022 C97.0982,64.1342 97.0812,64.1552 97.0622,64.1752 L96.9292,64.3252 C96.8462,64.4192 96.7642,64.5102 96.6842,64.5942 C96.5442,64.7462 96.3982,64.8972 96.2512,65.0482 L96.2292,65.0722 Z" id="Fill-80" fill="#F1892D" mask="url(#mask-4)"></path>
                <polygon id="Fill-81" fill="#F1892D" mask="url(#mask-4)" points="97.5408 62.581 93.0208 61.142 93.4768 59.712 97.9958 61.152"></polygon>
                <path d="M91.6404,54.9345 C92.3074,54.8095 92.9934,54.7755 93.6544,54.8595 C94.3164,54.9425 94.9544,55.1425 95.5314,55.4465 C96.6754,56.0615 97.6444,57.0055 98.0944,58.1875 L93.3454,59.8815 C93.2694,59.7035 93.1084,59.5735 92.9374,59.4915 C92.7604,59.4115 92.5604,59.4065 92.3704,59.4445 L91.6404,54.9345 Z" id="Fill-82" fill="#F9BF3B" mask="url(#mask-4)"></path>
                <path d="M92.6736,60.2065 C92.6696,60.2015 92.6506,60.1855 92.6146,60.1685 C92.6186,60.1715 92.5826,60.1665 92.5216,60.1795 L92.2206,58.7105 C92.5866,58.6355 92.9426,58.6695 93.2486,58.8095 C93.6196,58.9865 93.8966,59.2605 94.0346,59.5865 L92.6556,60.1765 C92.6646,60.1965 92.6736,60.2065 92.6736,60.2065" id="Fill-83" fill="#F1892D" mask="url(#mask-4)"></path>
                <path d="M97.3933,58.4541 C97.0373,57.5181 96.2493,56.6841 95.1763,56.1071 C94.6793,55.8461 94.1343,55.6761 93.5623,55.6041 C92.9993,55.5321 92.4003,55.5561 91.7783,55.6721 L91.5023,54.1971 C92.2793,54.0521 93.0353,54.0251 93.7493,54.1161 C94.4993,54.2091 95.2173,54.4341 95.8803,54.7831 C97.2773,55.5341 98.3103,56.6471 98.7953,57.9201 L97.3933,58.4541 Z" id="Fill-84" fill="#F1892D" mask="url(#mask-4)"></path>
                <polygon id="Fill-85" fill="#F1892D" mask="url(#mask-4)" points="93.5681 59.8969 92.3051 59.0869 94.9001 55.0419 96.1631 55.8519"></polygon>
                <path d="M86.5779,57.2348 C87.2729,56.7948 87.9969,56.3578 88.7979,55.9538 C89.1999,55.7528 89.6209,55.5598 90.0749,55.3858 L90.4219,55.2588 L90.7839,55.1428 L91.1619,55.0388 L91.2099,55.0268 L91.2699,55.0118 L91.3929,54.9848 L91.6399,54.9348 L92.3709,59.4448 L92.3329,59.4538 L92.3129,59.4578 L92.3029,59.4598 L92.2789,59.4668 L92.0959,59.5168 L91.9019,59.5788 L91.7009,59.6528 C91.4289,59.7568 91.1409,59.8868 90.8489,60.0338 C90.2599,60.3298 89.6469,60.6948 89.0299,61.0878 L86.5779,57.2348 Z" id="Fill-86" fill="#F9BF3B" mask="url(#mask-4)"></path>
                <path d="M89.4314,61.7207 L88.6274,60.4537 C89.3654,59.9857 89.9634,59.6397 90.5104,59.3637 C90.8414,59.1987 91.1504,59.0607 91.4324,58.9527 L91.6724,58.8657 L91.8974,58.7937 L92.2104,58.7127 L92.5314,60.1777 L92.4834,60.1887 L92.1464,60.2887 L91.9584,60.3577 C91.7334,60.4437 91.4684,60.5627 91.1834,60.7047 C90.6834,60.9567 90.1264,61.2797 89.4314,61.7207" id="Fill-87" fill="#F1892D" mask="url(#mask-4)"></path>
                <path d="M86.9792,57.8686 L86.1762,56.6016 C86.8102,56.2006 87.5772,55.7296 88.4592,55.2836 C88.9372,55.0456 89.3762,54.8496 89.8062,54.6856 L90.1922,54.5446 L90.5842,54.4196 L91.2322,54.2526 L91.4902,54.1996 L91.7912,55.6696 L91.3542,55.7636 L90.9982,55.8616 L90.6652,55.9696 L90.3322,56.0906 C89.9592,56.2326 89.5632,56.4096 89.1322,56.6246 C88.3102,57.0396 87.5822,57.4866 86.9792,57.8686" id="Fill-88" fill="#F1892D" mask="url(#mask-4)"></path>
                <polygon id="Fill-89" fill="#F1892D" mask="url(#mask-4)" points="90.1775 60.3706 88.1275 56.2896 89.4675 55.6166 91.5185 59.6976"></polygon>
                <path d="M82.658,59.872 C83.924,59.023 85.195,58.119 86.578,57.235 L89.03,61.087 C87.791,61.878 86.524,62.776 85.207,63.661 L82.658,59.872 Z" id="Fill-90" fill="#F9BF3B" mask="url(#mask-4)"></path>
                <path d="M85.6248,64.2837 L84.7888,63.0387 C85.2508,62.7277 85.7068,62.4157 86.1568,62.1077 C87.0088,61.5247 87.8128,60.9737 88.6258,60.4547 L89.4338,61.7197 C88.6408,62.2257 87.8458,62.7697 87.0048,63.3457 C86.5508,63.6567 86.0908,63.9707 85.6248,64.2837" id="Fill-91" fill="#F1892D" mask="url(#mask-4)"></path>
                <path d="M83.0759,60.4951 L82.2399,59.2491 C82.6779,58.9561 83.1139,58.6571 83.5569,58.3531 C84.3939,57.7801 85.2609,57.1871 86.1739,56.6031 L86.9819,57.8671 C86.0889,58.4381 85.2319,59.0241 84.4049,59.5911 C83.9579,59.8971 83.5159,60.1991 83.0759,60.4951" id="Fill-92" fill="#F1892D" mask="url(#mask-4)"></path>
                <polygon id="Fill-93" fill="#F1892D" mask="url(#mask-4)" points="86.5281 62.7617 83.9551 58.9897 85.1941 58.1437 87.7671 61.9167"></polygon>
                <path d="M78.8796,62.2016 C80.1466,61.5206 81.3966,60.7226 82.6576,59.8716 L85.2066,63.6606 C83.8896,64.5476 82.5166,65.4306 81.0416,66.2236 L78.8796,62.2016 Z" id="Fill-94" fill="#F9BF3B" mask="url(#mask-4)"></path>
                <path d="M81.3982,66.8847 L80.6862,65.5637 C82.2422,64.7257 83.6952,63.7747 84.7882,63.0387 L85.6262,64.2827 C84.5042,65.0377 83.0102,66.0157 81.3982,66.8847" id="Fill-95" fill="#F1892D" mask="url(#mask-4)"></path>
                <path d="M79.2351,62.8623 L78.5241,61.5413 C79.6021,60.9613 80.7481,60.2543 82.2391,59.2503 L83.0771,60.4943 C81.5441,61.5273 80.3581,62.2573 79.2351,62.8623" id="Fill-96" fill="#F1892D" mask="url(#mask-4)"></path>
                <polygon id="Fill-97" fill="#F1892D" mask="url(#mask-4)" points="82.5466 65.3735 80.1336 61.4965 81.4066 60.7045 83.8196 64.5815"></polygon>
                <path d="M75.0525,63.7939 C76.3345,63.4439 77.6155,62.8789 78.8795,62.2019 L81.0415,66.2239 C79.5665,67.0129 77.9875,67.7239 76.2655,68.1959 L75.0525,63.7939 Z" id="Fill-98" fill="#F9BF3B" mask="url(#mask-4)"></path>
                <path d="M76.4636,68.9194 L76.0676,67.4734 C77.5356,67.0704 79.0036,66.4634 80.6886,65.5634 L81.3956,66.8854 C79.6096,67.8404 78.0426,68.4864 76.4636,68.9194" id="Fill-99" fill="#F1892D" mask="url(#mask-4)"></path>
                <path d="M75.2498,64.5175 L74.8548,63.0705 C75.9718,62.7665 77.1718,62.2655 78.5248,61.5405 L79.2338,62.8625 C77.7788,63.6425 76.4768,64.1835 75.2498,64.5175" id="Fill-100" fill="#F1892D" mask="url(#mask-4)"></path>
                <polygon id="Fill-101" fill="#F1892D" mask="url(#mask-4)" points="78.0544 67.6196 76.2824 63.4116 77.6634 62.8286 79.4374 67.0366"></polygon>
                <path d="M71.2537,64.1733 C72.4957,64.2853 73.7717,64.1523 75.0527,63.7943 L76.2657,68.1963 C74.5527,68.6753 72.6867,68.8933 70.8267,68.7193 L71.2537,64.1733 Z" id="Fill-102" fill="#F9BF3B" mask="url(#mask-4)"></path>
                <path d="M72.0994,69.5278 C71.6464,69.5278 71.1984,69.5068 70.7564,69.4658 L70.8964,67.9728 C72.5574,68.1278 74.3444,67.9548 76.0634,67.4738 L76.4674,68.9188 C75.0274,69.3218 73.5394,69.5278 72.0994,69.5278" id="Fill-103" fill="#F1892D" mask="url(#mask-4)"></path>
                <path d="M72.116,64.9619 C71.804,64.9619 71.493,64.9479 71.186,64.9199 L71.322,63.4259 C72.453,63.5289 73.64,63.4099 74.851,63.0709 L75.254,64.5169 C74.192,64.8129 73.14,64.9619 72.116,64.9619" id="Fill-104" fill="#F1892D" mask="url(#mask-4)"></path>
                <polygon id="Fill-105" fill="#F1892D" mask="url(#mask-4)" points="72.8552 68.7788 72.3922 64.2368 73.8842 64.0838 74.3472 68.6278"></polygon>
                <path d="M67.3132,75.4926 C67.2282,75.6076 67.1602,76.3046 67.9252,77.9236 C68.5072,79.1536 69.3322,80.3996 69.8122,80.9466 C70.1982,81.3866 70.6832,81.6246 71.1442,81.6056 C71.5442,81.5876 71.8982,81.3826 72.1672,81.0126 C72.8402,80.0896 72.7062,78.5076 71.8732,77.5586 C71.1522,76.7376 68.7602,75.3796 67.5732,75.4286 C67.3932,75.4366 67.3232,75.4776 67.3132,75.4926 M71.0882,83.1066 C70.2112,83.1066 69.3412,82.6846 68.6842,81.9356 C68.1452,81.3216 64.7032,76.5276 66.1002,74.6086 C66.3122,74.3186 66.7272,73.9656 67.5052,73.9306 C69.2502,73.8466 72.0422,75.4766 73.0002,76.5696 C74.3052,78.0566 74.4722,80.3956 73.3792,81.8956 C72.8402,82.6366 72.0712,83.0646 71.2122,83.1036 C71.1712,83.1056 71.1302,83.1066 71.0882,83.1066" id="Fill-106" fill="#19B5FE" mask="url(#mask-4)"></path>
                <path d="M73.3972,72.7602 C71.9802,72.7602 69.7992,73.1782 68.6052,73.9732 C68.3212,74.1612 67.9702,74.4552 67.9192,74.7792 C67.8522,75.2102 68.3302,76.0412 69.8752,77.0762 C71.1542,77.9332 72.7032,78.6072 73.5112,78.8052 C74.1132,78.9532 74.7302,78.8442 75.2512,78.4982 C75.8762,78.0812 76.3122,77.3582 76.4452,76.5132 C76.7082,74.8442 75.7532,73.1992 74.3182,72.8462 C74.0842,72.7882 73.7662,72.7602 73.3972,72.7602 M74.0432,80.3702 C73.7482,80.3702 73.4502,80.3342 73.1532,80.2622 C71.3862,79.8272 66.0082,77.2822 66.4382,74.5462 C66.5462,73.8542 66.9962,73.2412 67.7742,72.7242 C69.5652,71.5322 73.0662,70.9932 74.6762,71.3902 C76.8482,71.9232 78.3072,74.3262 77.9272,76.7452 C77.7292,78.0042 77.0562,79.0982 76.0812,79.7472 C75.4622,80.1582 74.7602,80.3702 74.0432,80.3702" id="Fill-107" fill="#C72C1C" mask="url(#mask-4)"></path>
                <path d="M62.9822,60.0239 C61.3382,59.8799 58.6462,59.8339 56.9982,59.9199 L47.9272,60.3939 C46.2802,60.4799 44.9082,61.8999 44.8792,63.5499 L44.7292,72.1719 C44.7002,73.8229 45.9792,75.5279 47.5712,75.9619 L56.7592,78.4689 C58.3512,78.9039 60.9672,78.9499 62.5742,78.5709 L71.8442,76.3849 C73.4512,76.0069 74.7882,74.3469 74.8172,72.6979 L74.9672,64.0749 C74.9962,62.4249 73.6742,60.9579 72.0312,60.8149 L62.9822,60.0239 Z" id="Fill-108" fill="#A5B5B6" mask="url(#mask-4)"></path>
                <path d="M71.8865,73.9858 L62.6155,76.1718 C61.0095,76.5488 58.3935,76.5048 56.8015,76.0698 L47.6125,73.5618 C46.0205,73.1288 44.7415,71.4228 44.7705,69.7728 L44.7295,72.1728 C44.6995,73.8228 45.9795,75.5278 47.5715,75.9628 L56.7595,78.4688 C58.3515,78.9038 60.9675,78.9498 62.5735,78.5708 L71.8445,76.3848 C73.4505,76.0068 74.7875,74.3468 74.8175,72.6978 L74.8595,70.2978 C74.8295,71.9478 73.4925,73.6078 71.8865,73.9858" id="Fill-109" fill="#859596" mask="url(#mask-4)"></path>
                <path d="M58.9636,60.6259 C58.2576,60.6259 57.5886,60.6399 57.0366,60.6679 L47.9666,61.1429 C46.7216,61.2079 45.6506,62.3159 45.6286,63.5629 L45.4786,72.1859 C45.4556,73.4959 46.5046,74.8939 47.7686,75.2389 L56.9566,77.7459 C58.4266,78.1469 60.9196,78.1899 62.4016,77.8409 L71.6726,75.6559 C72.9476,75.3549 74.0446,73.9949 74.0676,72.6849 L74.2176,64.0619 C74.2386,62.8149 73.2076,61.6699 71.9656,61.5619 L62.9176,60.7709 C61.8486,60.6779 60.3346,60.6259 58.9636,60.6259 M59.9416,79.5799 C58.7336,79.5799 57.5006,79.4489 56.5626,79.1929 L47.3726,76.6849 C45.4356,76.1569 43.9436,74.1679 43.9796,72.1599 L44.1296,63.5369 C44.1646,61.4969 45.8516,59.7509 47.8886,59.6449 L56.9586,59.1699 C58.6406,59.0829 61.3706,59.1299 63.0476,59.2769 L72.0966,60.0669 C74.1286,60.2449 75.7526,62.0479 75.7176,64.0879 L75.5676,72.7099 C75.5316,74.7199 73.9726,76.6549 72.0166,77.1159 L62.7456,79.2999 C61.9516,79.4879 60.9546,79.5799 59.9416,79.5799" id="Fill-110" fill="#354546" mask="url(#mask-4)"></path>
                <polygon id="Fill-111" fill="#556566" mask="url(#mask-4)" points="62.8757 73.102 49.7997 72.873 49.9607 63.675 63.0357 63.903"></polygon>
                <path d="M58.4597,71.1635 C58.2037,71.1635 57.9617,71.0315 57.8237,70.8095 L56.7857,69.1445 L55.1687,69.1165 C54.9177,69.1125 54.6857,68.9815 54.5497,68.7695 L54.4817,68.6645 L54.0457,69.6815 C53.9477,69.9075 53.7457,70.0725 53.5037,70.1205 C53.2617,70.1695 53.0107,70.0955 52.8337,69.9225 L51.9477,69.0605 L49.8667,69.0235 C49.4527,69.0175 49.1227,68.6755 49.1307,68.2615 C49.1377,67.8475 49.4737,67.5145 49.8937,67.5245 L52.2707,67.5655 C52.4617,67.5695 52.6437,67.6445 52.7807,67.7785 L53.0987,68.0875 L53.6637,66.7705 C53.7727,66.5155 54.0157,66.3415 54.2927,66.3195 C54.5677,66.2975 54.8357,66.4295 54.9847,66.6635 L55.5987,67.6235 L57.2197,67.6525 C57.4747,67.6565 57.7087,67.7895 57.8437,68.0055 L58.2377,68.6385 L59.0507,66.0845 C59.1477,65.7775 59.4327,65.5665 59.7557,65.5625 L59.7657,65.5625 C60.0847,65.5625 60.3697,65.7655 60.4747,66.0675 L61.0447,67.7185 L62.9697,67.7525 C63.3837,67.7595 63.7127,68.1015 63.7057,68.5155 C63.6987,68.9255 63.3637,69.2525 62.9557,69.2525 L62.9427,69.2525 L60.4937,69.2095 C60.1787,69.2045 59.8997,69.0025 59.7977,68.7045 L59.7947,68.6945 L59.1747,70.6415 C59.0867,70.9195 58.8437,71.1205 58.5537,71.1575 C58.5217,71.1615 58.4907,71.1635 58.4597,71.1635" id="Fill-112" fill="#D5E5E6" mask="url(#mask-4)"></path>
                <path d="M50.5623,72.1372 L62.1383,72.3382 L62.2733,64.6402 L50.6973,64.4382 L50.5623,72.1372 Z M62.8753,73.8522 L62.8633,73.8522 L49.7873,73.6232 C49.5873,73.6202 49.3983,73.5372 49.2603,73.3952 C49.1223,73.2512 49.0463,73.0592 49.0493,72.8612 L49.2103,63.6622 C49.2173,63.2482 49.5613,62.9152 49.9733,62.9252 L63.0493,63.1532 C63.2483,63.1572 63.4373,63.2392 63.5763,63.3822 C63.7133,63.5252 63.7903,63.7172 63.7863,63.9162 L63.6253,73.1152 C63.6193,73.5252 63.2843,73.8522 62.8753,73.8522 L62.8753,73.8522 Z" id="Fill-113" fill="#354546" mask="url(#mask-4)"></path>
                <path d="M69.8542,65.7973 C69.8362,66.7773 69.0292,67.5583 68.0482,67.5413 C67.0682,67.5243 66.2882,66.7153 66.3042,65.7353 C66.3222,64.7553 67.1302,63.9743 68.1102,63.9913 C69.0902,64.0083 69.8712,64.8173 69.8542,65.7973" id="Fill-114" fill="#F85C4C" mask="url(#mask-4)"></path>
                <path d="M68.0789,64.7417 C67.8119,64.7417 67.5599,64.8437 67.3679,65.0297 C67.1709,65.2197 67.0589,65.4747 67.0549,65.7487 C67.0449,66.3137 67.4969,66.7817 68.0609,66.7917 L68.0799,66.7917 C68.6369,66.7917 69.0949,66.3437 69.1039,65.7847 C69.1089,65.5107 69.0069,65.2517 68.8169,65.0537 C68.6269,64.8577 68.3709,64.7467 68.0979,64.7417 L68.0789,64.7417 Z M68.0799,68.2917 L68.0359,68.2917 C66.6429,68.2667 65.5309,67.1147 65.5549,65.7227 C65.5789,64.3307 66.7339,63.2177 68.1239,63.2417 C68.7979,63.2537 69.4279,63.5277 69.8949,64.0127 C70.3639,64.4977 70.6159,65.1367 70.6039,65.8107 C70.5799,67.1877 69.4519,68.2917 68.0799,68.2917 L68.0799,68.2917 Z" id="Fill-115" fill="#C72C1C" mask="url(#mask-4)"></path>
                <path d="M69.7556,71.4467 C69.7386,72.4257 68.9306,73.2077 67.9496,73.1897 C66.9696,73.1737 66.1896,72.3647 66.2056,71.3847 C66.2236,70.4047 67.0316,69.6237 68.0116,69.6407 C68.9916,69.6577 69.7736,70.4667 69.7556,71.4467" id="Fill-116" fill="#B9D96D" mask="url(#mask-4)"></path>
                <path d="M67.9802,70.3901 C67.4232,70.3901 66.9652,70.8381 66.9562,71.3981 C66.9512,71.6711 67.0532,71.9311 67.2442,72.1271 C67.4332,72.3251 67.6892,72.4361 67.9622,72.4411 L67.9812,72.4411 C68.5382,72.4411 68.9962,71.9931 69.0052,71.4331 C69.0102,71.1601 68.9082,70.9011 68.7182,70.7031 C68.5282,70.5061 68.2722,70.3961 67.9992,70.3911 C67.9932,70.3911 67.9872,70.3901 67.9802,70.3901 M67.9812,73.9411 C67.9662,73.9411 67.9522,73.9411 67.9372,73.9401 C67.2622,73.9281 66.6322,73.6551 66.1652,73.1691 C65.6962,72.6841 65.4442,72.0461 65.4572,71.3711 C65.4802,69.9941 66.6082,68.8901 67.9802,68.8901 C67.9952,68.8901 68.0092,68.8911 68.0252,68.8911 C68.6992,68.9031 69.3292,69.1761 69.7972,69.6611 C70.2652,70.1471 70.5172,70.7861 70.5052,71.4591 C70.4812,72.8361 69.3532,73.9411 67.9812,73.9411" id="Fill-117" fill="#719911" mask="url(#mask-4)"></path>
                <path d="M49.6121,62.5464 C49.2521,62.5464 48.9331,62.2854 48.8731,61.9184 L48.4691,59.4654 C48.4021,59.0564 48.6781,58.6714 49.0881,58.6034 C49.4971,58.5364 49.8831,58.8134 49.9491,59.2214 L50.3531,61.6744 C50.4211,62.0834 50.1441,62.4694 49.7351,62.5364 C49.6941,62.5434 49.6531,62.5464 49.6121,62.5464" id="Fill-118" fill="#354546" mask="url(#mask-4)"></path>
                <path d="M52.573,62.0591 C52.212,62.0591 51.894,61.7981 51.834,61.4311 L51.429,58.9781 C51.362,58.5691 51.639,58.1841 52.048,58.1161 C52.457,58.0491 52.843,58.3261 52.91,58.7341 L53.313,61.1871 C53.381,61.5961 53.104,61.9821 52.695,62.0491 C52.654,62.0561 52.613,62.0591 52.573,62.0591" id="Fill-119" fill="#354546" mask="url(#mask-4)"></path>
                <path d="M69.9167,62.5464 C69.8767,62.5464 69.8347,62.5434 69.7937,62.5364 C69.3857,62.4694 69.1077,62.0834 69.1757,61.6744 L69.5797,59.2214 C69.6467,58.8134 70.0317,58.5364 70.4407,58.6034 C70.8507,58.6714 71.1267,59.0564 71.0597,59.4654 L70.6557,61.9184 C70.5957,62.2854 70.2767,62.5464 69.9167,62.5464" id="Fill-120" fill="#354546" mask="url(#mask-4)"></path>
                <path d="M66.9568,62.0591 C66.9158,62.0591 66.8748,62.0561 66.8338,62.0491 C66.4248,61.9821 66.1478,61.5961 66.2158,61.1871 L66.6198,58.7341 C66.6858,58.3261 67.0718,58.0501 67.4808,58.1161 C67.8908,58.1841 68.1668,58.5691 68.0998,58.9781 L67.6958,61.4311 C67.6358,61.7981 67.3168,62.0591 66.9568,62.0591" id="Fill-121" fill="#354546" mask="url(#mask-4)"></path>
                <polygon id="Fill-122" fill="#A5B5B6" mask="url(#mask-4)" points="46.671 107.861 51.358 107.861 51.358 98.861 46.671 98.861"></polygon>
                <polygon id="Fill-123" fill="#C5D5D6" mask="url(#mask-4)" points="46.671 102.437 51.358 102.437 51.358 98.861 46.671 98.861"></polygon>
                <path d="M47.421,107.111 L50.609,107.111 L50.609,99.611 L47.421,99.611 L47.421,107.111 Z M51.358,108.611 L46.671,108.611 C46.257,108.611 45.921,108.275 45.921,107.861 L45.921,98.861 C45.921,98.446 46.257,98.111 46.671,98.111 L51.358,98.111 C51.772,98.111 52.108,98.446 52.108,98.861 L52.108,107.861 C52.108,108.275 51.772,108.611 51.358,108.611 L51.358,108.611 Z" id="Fill-124" fill="#354546" mask="url(#mask-4)"></path>
                <polygon id="Fill-125" fill="#A5B5B6" mask="url(#mask-4)" points="43.492 106.098 46.677 106.098 46.677 90.198 43.492 90.198"></polygon>
                <path d="M44.242,105.348 L45.927,105.348 L45.927,90.948 L44.242,90.948 L44.242,105.348 Z M46.677,106.848 L43.492,106.848 C43.077,106.848 42.742,106.512 42.742,106.098 L42.742,90.198 C42.742,89.784 43.077,89.448 43.492,89.448 L46.677,89.448 C47.091,89.448 47.427,89.784 47.427,90.198 L47.427,106.098 C47.427,106.512 47.091,106.848 46.677,106.848 L46.677,106.848 Z" id="Fill-126" fill="#354546" mask="url(#mask-4)"></path>
                <path d="M45.1501,84.685 L45.0181,84.685 C43.3681,84.685 42.0181,86.036 42.0181,87.685 L42.0181,94.81 L48.1501,94.81 L48.1501,87.685 C48.1501,86.036 46.8001,84.685 45.1501,84.685" id="Fill-127" fill="#A5B5B6" mask="url(#mask-4)"></path>
                <path d="M45.1501,84.685 L45.0181,84.685 C43.3681,84.685 42.0181,86.036 42.0181,87.685 L42.0181,90.423 C42.0181,88.773 43.3681,87.423 45.0181,87.423 L45.1501,87.423 C46.8001,87.423 48.1501,88.773 48.1501,90.423 L48.1501,87.685 C48.1501,86.036 46.8001,84.685 45.1501,84.685" id="Fill-128" fill="#C5D5D6" mask="url(#mask-4)"></path>
                <path d="M42.7683,94.06 L47.4003,94.06 L47.4003,87.685 C47.4003,86.445 46.3913,85.435 45.1503,85.435 L45.0183,85.435 C43.7773,85.435 42.7683,86.445 42.7683,87.685 L42.7683,94.06 Z M48.1503,95.56 L42.0183,95.56 C41.6033,95.56 41.2683,95.225 41.2683,94.81 L41.2683,87.685 C41.2683,85.618 42.9503,83.935 45.0183,83.935 L45.1503,83.935 C47.2183,83.935 48.9003,85.618 48.9003,87.685 L48.9003,94.81 C48.9003,95.225 48.5643,95.56 48.1503,95.56 L48.1503,95.56 Z" id="Fill-129" fill="#354546" mask="url(#mask-4)"></path>
                <polygon id="Fill-130" fill="#A5B5B6" mask="url(#mask-4)" points="67.796 107.861 72.483 107.861 72.483 98.861 67.796 98.861"></polygon>
                <polygon id="Fill-131" fill="#C5D5D6" mask="url(#mask-4)" points="67.796 102.437 72.483 102.437 72.483 98.861 67.796 98.861"></polygon>
                <path d="M68.546,107.111 L71.734,107.111 L71.734,99.611 L68.546,99.611 L68.546,107.111 Z M72.483,108.611 L67.796,108.611 C67.382,108.611 67.046,108.275 67.046,107.861 L67.046,98.861 C67.046,98.446 67.382,98.111 67.796,98.111 L72.483,98.111 C72.897,98.111 73.233,98.446 73.233,98.861 L73.233,107.861 C73.233,108.275 72.897,108.611 72.483,108.611 L72.483,108.611 Z" id="Fill-132" fill="#354546" mask="url(#mask-4)"></path>
                <polygon id="Fill-133" fill="#A5B5B6" mask="url(#mask-4)" points="72.476 106.098 75.662 106.098 75.662 90.198 72.476 90.198"></polygon>
                <path d="M73.226,105.348 L74.912,105.348 L74.912,90.948 L73.226,90.948 L73.226,105.348 Z M75.662,106.848 L72.476,106.848 C72.062,106.848 71.726,106.512 71.726,106.098 L71.726,90.198 C71.726,89.784 72.062,89.448 72.476,89.448 L75.662,89.448 C76.076,89.448 76.412,89.784 76.412,90.198 L76.412,106.098 C76.412,106.512 76.076,106.848 75.662,106.848 L75.662,106.848 Z" id="Fill-134" fill="#354546" mask="url(#mask-4)"></path>
                <path d="M74.0027,84.685 L74.1357,84.685 C75.7857,84.685 77.1357,86.036 77.1357,87.685 L77.1357,94.81 L71.0027,94.81 L71.0027,87.685 C71.0027,86.036 72.3537,84.685 74.0027,84.685" id="Fill-135" fill="#A5B5B6" mask="url(#mask-4)"></path>
                <path d="M74.0027,84.685 L74.1357,84.685 C75.7857,84.685 77.1357,86.036 77.1357,87.685 L77.1357,90.423 C77.1357,88.773 75.7857,87.423 74.1357,87.423 L74.0027,87.423 C72.3537,87.423 71.0027,88.773 71.0027,90.423 L71.0027,87.685 C71.0027,86.036 72.3537,84.685 74.0027,84.685" id="Fill-136" fill="#C5D5D6" mask="url(#mask-4)"></path>
                <path d="M71.7527,94.06 L76.3857,94.06 L76.3857,87.685 C76.3857,86.445 75.3757,85.435 74.1357,85.435 L74.0027,85.435 C72.7627,85.435 71.7527,86.445 71.7527,87.685 L71.7527,94.06 Z M77.1357,95.56 L71.0027,95.56 C70.5887,95.56 70.2527,95.225 70.2527,94.81 L70.2527,87.685 C70.2527,85.618 71.9357,83.935 74.0027,83.935 L74.1357,83.935 C76.2027,83.935 77.8857,85.618 77.8857,87.685 L77.8857,94.81 C77.8857,95.225 77.5497,95.56 77.1357,95.56 L77.1357,95.56 Z" id="Fill-137" fill="#354546" mask="url(#mask-4)"></path>
                <path d="M67.658,115.3608 C67.658,117.0098 66.307,118.3608 64.658,118.3608 L54.358,118.3608 C52.708,118.3608 51.358,117.0098 51.358,115.3608 L51.358,91.3608 C51.358,89.7108 52.708,88.3608 54.358,88.3608 L64.658,88.3608 C66.307,88.3608 67.658,89.7108 67.658,91.3608 L67.658,115.3608 Z" id="Fill-138" fill="#6D6D6D" mask="url(#mask-4)"></path>
                <path d="M64.658,113.7856 L54.358,113.7856 C53.018,113.7856 51.777,112.8946 51.358,111.6776 L51.358,115.3606 C51.358,117.0106 52.708,118.3606 54.358,118.3606 L64.658,118.3606 C66.307,118.3606 67.658,117.0106 67.658,115.3606 L67.658,111.6776 C67.239,112.8946 65.998,113.7856 64.658,113.7856" id="Fill-139" fill="#5B5B5B" mask="url(#mask-4)"></path>
                <polygon id="Fill-140" fill="#929292" mask="url(#mask-4)" points="67.5671 101.4106 51.3581 100.0596 51.4481 96.0106 67.5671 96.0106"></polygon>
                <polygon id="Fill-141" fill="#929292" mask="url(#mask-4)" points="67.5671 104.56 51.4481 105.665 51.4481 102.964 67.5671 102.964"></polygon>
                <path d="M54.3582,89.1108 C53.1172,89.1108 52.1082,90.1198 52.1082,91.3608 L52.1082,115.3608 C52.1082,116.6008 53.1172,117.6108 54.3582,117.6108 L64.6582,117.6108 C65.8982,117.6108 66.9082,116.6008 66.9082,115.3608 L66.9082,91.3608 C66.9082,90.1198 65.8982,89.1108 64.6582,89.1108 L54.3582,89.1108 Z M64.6582,119.1108 L54.3582,119.1108 C52.2902,119.1108 50.6082,117.4278 50.6082,115.3608 L50.6082,91.3608 C50.6082,89.2928 52.2902,87.6108 54.3582,87.6108 L64.6582,87.6108 C66.7252,87.6108 68.4082,89.2928 68.4082,91.3608 L68.4082,115.3608 C68.4082,117.4278 66.7252,119.1108 64.6582,119.1108 L64.6582,119.1108 Z" id="Fill-142" fill="#121212" mask="url(#mask-4)"></path>
                <path d="M67.6951,84.685 L51.3211,84.685 C49.5391,84.685 48.0821,86.036 48.0821,87.685 L48.0821,92.036 L70.9341,92.036 L70.9341,87.685 C70.9341,86.036 69.4761,84.685 67.6951,84.685" id="Fill-143" fill="#A5B5B6" mask="url(#mask-4)"></path>
                <path d="M67.6951,84.685 L51.3211,84.685 C49.5391,84.685 48.0821,86.036 48.0821,87.685 L70.9341,87.685 C70.9341,86.036 69.4761,84.685 67.6951,84.685" id="Fill-144" fill="#C5D5D6" mask="url(#mask-4)"></path>
                <path d="M48.8318,91.2856 L70.1848,91.2856 L70.1848,87.6846 C70.1848,86.4446 69.0668,85.4346 67.6948,85.4346 L51.3208,85.4346 C49.9478,85.4346 48.8318,86.4446 48.8318,87.6846 L48.8318,91.2856 Z M70.9348,92.7856 L48.0818,92.7856 C47.6668,92.7856 47.3318,92.4496 47.3318,92.0356 L47.3318,87.6846 C47.3318,85.6176 49.1208,83.9346 51.3208,83.9346 L67.6948,83.9346 C69.8938,83.9346 71.6848,85.6176 71.6848,87.6846 L71.6848,92.0356 C71.6848,92.4496 71.3488,92.7856 70.9348,92.7856 L70.9348,92.7856 Z" id="Fill-145" fill="#354546" mask="url(#mask-4)"></path>
                <path d="M55.0076,86.8667 C54.5936,86.8667 54.2576,86.5307 54.2576,86.1167 L54.2576,83.6307 C54.2576,83.2167 54.5936,82.8807 55.0076,82.8807 C55.4216,82.8807 55.7576,83.2167 55.7576,83.6307 L55.7576,86.1167 C55.7576,86.5307 55.4216,86.8667 55.0076,86.8667" id="Fill-146" fill="#354546" mask="url(#mask-4)"></path>
                <path d="M58.0076,86.8667 C57.5936,86.8667 57.2576,86.5307 57.2576,86.1167 L57.2576,83.6307 C57.2576,83.2167 57.5936,82.8807 58.0076,82.8807 C58.4216,82.8807 58.7576,83.2167 58.7576,83.6307 L58.7576,86.1167 C58.7576,86.5307 58.4216,86.8667 58.0076,86.8667" id="Fill-147" fill="#354546" mask="url(#mask-4)"></path>
                <path d="M61.0076,86.8667 C60.5936,86.8667 60.2576,86.5307 60.2576,86.1167 L60.2576,83.6307 C60.2576,83.2167 60.5936,82.8807 61.0076,82.8807 C61.4216,82.8807 61.7576,83.2167 61.7576,83.6307 L61.7576,86.1167 C61.7576,86.5307 61.4216,86.8667 61.0076,86.8667" id="Fill-148" fill="#354546" mask="url(#mask-4)"></path>
                <path d="M64.0076,86.8667 C63.5936,86.8667 63.2576,86.5307 63.2576,86.1167 L63.2576,83.6307 C63.2576,83.2167 63.5936,82.8807 64.0076,82.8807 C64.4216,82.8807 64.7576,83.2167 64.7576,83.6307 L64.7576,86.1167 C64.7576,86.5307 64.4216,86.8667 64.0076,86.8667" id="Fill-149" fill="#354546" mask="url(#mask-4)"></path>
                <path d="M43.0779,75.5034 L42.4439,75.4854 L42.4959,85.3994 L42.8489,85.4094 C44.4979,85.4554 45.8859,84.1444 45.9309,82.4944 L45.9939,78.5854 C46.0389,76.9364 44.7269,75.5494 43.0779,75.5034" id="Fill-150" fill="#A5B5B6" mask="url(#mask-4)"></path>
                <path d="M42.9333,86.1616 C42.8983,86.1616 42.8633,86.1606 42.8283,86.1596 L42.4753,86.1496 C42.0613,86.1386 41.7353,85.7936 41.7463,85.3796 C41.7573,84.9656 42.0953,84.6386 42.5173,84.6506 L42.8703,84.6606 C43.4673,84.6776 44.0373,84.4576 44.4763,84.0436 C44.9133,83.6286 45.1643,83.0706 45.1813,82.4736 L45.2443,78.5736 C45.2603,77.9676 45.0403,77.3966 44.6263,76.9586 C44.2113,76.5196 43.6543,76.2696 43.0573,76.2536 L42.4233,76.2356 C42.0093,76.2236 41.6833,75.8796 41.6953,75.4656 C41.7053,75.0516 42.0483,74.7246 42.4653,74.7356 L43.0983,74.7536 C44.0963,74.7816 45.0263,75.1986 45.7163,75.9276 C46.4063,76.6566 46.7713,77.6076 46.7433,78.6056 L46.6803,82.5066 C46.6533,83.5136 46.2363,84.4426 45.5063,85.1326 C44.8033,85.7986 43.8933,86.1616 42.9333,86.1616" id="Fill-151" fill="#354546" mask="url(#mask-4)"></path>
                <path d="M76.6306,76.104 L77.2646,76.085 L77.2126,86.451 L76.8596,86.46 C75.2106,86.505 73.8236,85.194 73.7776,83.544 L73.7156,79.185 C73.6696,77.536 74.9826,76.149 76.6306,76.104" id="Fill-152" fill="#A5B5B6" mask="url(#mask-4)"></path>
                <path d="M76.7751,87.2114 C74.7551,87.2114 73.0851,85.5974 73.0281,83.5654 L72.9651,79.1954 C72.9381,78.2084 73.3021,77.2574 73.9931,76.5274 C74.6821,75.7984 75.6121,75.3814 76.6101,75.3544 L77.2441,75.3364 C77.6621,75.3244 78.0031,75.6504 78.0141,76.0654 C78.0251,76.4794 77.6991,76.8244 77.2851,76.8354 L76.6521,76.8534 C76.0541,76.8694 75.4971,77.1204 75.0831,77.5594 C74.6681,77.9964 74.4481,78.5664 74.4641,79.1644 L74.5281,83.5334 C74.5621,84.7644 75.5971,85.7444 76.8391,85.7104 L77.1921,85.7004 C77.6061,85.6914 77.9511,86.0154 77.9621,86.4294 C77.9741,86.8434 77.6471,87.1884 77.2331,87.1994 L76.8801,87.2094 C76.8451,87.2104 76.8101,87.2114 76.7751,87.2114" id="Fill-153" fill="#354546" mask="url(#mask-4)"></path>
                <path d="M1.031,90.1899 C0.937,88.6689 0.844,87.1499 0.75,85.6289 C40.26,83.1799 79.841,82.0019 119.135,85.6719 C118.994,87.1889 118.851,88.7059 118.71,90.2219 C79.65,86.5749 40.306,87.7539 1.031,90.1899" id="Fill-154" fill="#6D6D6D" mask="url(#mask-4)"></path>
                <path d="M65.1394,87.1489 C82.3844,87.1489 100.1754,87.7669 118.0334,89.4059 L118.3194,86.3499 C77.0554,82.5619 36.1924,84.1959 1.5444,86.3319 L1.7334,89.3949 C21.2464,88.1919 42.7324,87.1489 65.1394,87.1489 M118.7104,90.9719 C118.6874,90.9719 118.6634,90.9709 118.6404,90.9679 C77.1324,87.0919 35.9184,88.7779 1.0774,90.9379 C0.8794,90.9519 0.6834,90.8829 0.5354,90.7519 C0.3854,90.6209 0.2944,90.4339 0.2834,90.2359 L0.0014,85.6749 C-0.0236,85.2619 0.2904,84.9069 0.7034,84.8809 C35.7784,82.7069 77.2854,81.0099 119.2054,84.9259 C119.4044,84.9439 119.5864,85.0409 119.7134,85.1939 C119.8404,85.3469 119.9014,85.5449 119.8824,85.7429 L119.4564,90.2919 C119.4204,90.6799 119.0934,90.9719 118.7104,90.9719" id="Fill-155" fill="#373737" mask="url(#mask-4)"></path>
                <polygon id="Fill-156" fill="#6D6D6D" mask="url(#mask-4)" points="99.6863 102.3159 92.4453 101.6819 95.2543 69.5999 102.4953 70.2349"></polygon>
                <polygon id="Fill-157" fill="#929292" mask="url(#mask-4)" points="101.8083 78.0737 94.5683 77.4397 94.9533 73.0357 102.1943 73.6707"></polygon>
                <polygon id="Fill-158" fill="#929292" mask="url(#mask-4)" points="101.5251 81.3081 94.2851 80.6741 94.4161 79.1811 101.6561 79.8151"></polygon>
                <polygon id="Fill-159" fill="#929292" mask="url(#mask-4)" points="99.9871 98.8803 92.7461 98.2463 92.8771 96.7533 100.1181 97.3873"></polygon>
                <path d="M93.2576,101.0005 L99.0036,101.5035 L101.6826,70.9165 L95.9366,70.4125 L93.2576,101.0005 Z M99.6866,103.0655 C99.6646,103.0655 99.6426,103.0645 99.6206,103.0635 L92.3796,102.4295 C92.1816,102.4115 91.9976,102.3165 91.8696,102.1645 C91.7426,102.0125 91.6806,101.8145 91.6976,101.6165 L94.5076,69.5345 C94.5436,69.1225 94.9076,68.8185 95.3206,68.8535 L102.5606,69.4875 C102.7586,69.5045 102.9426,69.6005 103.0706,69.7525 C103.1966,69.9045 103.2596,70.1025 103.2416,70.3005 L100.4336,102.3815 C100.3996,102.7715 100.0706,103.0655 99.6866,103.0655 L99.6866,103.0655 Z" id="Fill-160" fill="#373737" mask="url(#mask-4)"></path>
                <polygon id="Fill-161" fill="#6D6D6D" mask="url(#mask-4)" points="106.9265 102.9497 99.6865 102.3157 102.4945 70.2347 109.7365 70.8687"></polygon>
                <polygon id="Fill-162" fill="#929292" mask="url(#mask-4)" points="109.0496 78.7075 101.8086 78.0735 102.1946 73.6705 109.4356 74.3045"></polygon>
                <polygon id="Fill-163" fill="#929292" mask="url(#mask-4)" points="108.7664 81.9419 101.5254 81.3079 101.6564 79.8149 108.8974 80.4489"></polygon>
                <polygon id="Fill-164" fill="#929292" mask="url(#mask-4)" points="107.2273 99.5141 99.9873 98.8801 100.1183 97.3871 107.3583 98.0211"></polygon>
                <path d="M100.4988,101.6342 L106.2448,102.1372 L108.9238,71.5502 L103.1768,71.0472 L100.4988,101.6342 Z M106.9278,103.6992 C106.9058,103.6992 106.8838,103.6982 106.8608,103.6972 L99.6208,103.0632 C99.4228,103.0452 99.2388,102.9502 99.1108,102.7982 C98.9828,102.6462 98.9218,102.4482 98.9388,102.2502 L101.7478,70.1682 C101.7658,69.9712 101.8608,69.7872 102.0138,69.6592 C102.1658,69.5312 102.3628,69.4692 102.5608,69.4882 L109.8018,70.1212 C110.2138,70.1572 110.5198,70.5212 110.4828,70.9342 L107.6738,103.0152 C107.6398,103.4052 107.3118,103.6992 106.9278,103.6992 L106.9278,103.6992 Z" id="Fill-165" fill="#373737" mask="url(#mask-4)"></path>
                <polygon id="Fill-166" fill="#6D6D6D" mask="url(#mask-4)" points="114.657 99.1411 107.417 98.5071 109.472 75.0291 116.714 75.6621"></polygon>
                <polygon id="Fill-167" fill="#929292" mask="url(#mask-4)" points="116.2107 81.3999 108.9707 80.7659 109.2527 77.5439 116.4927 78.1769"></polygon>
                <polygon id="Fill-168" fill="#929292" mask="url(#mask-4)" points="116.0037 83.7671 108.7627 83.1331 108.8577 82.0401 116.0997 82.6741"></polygon>
                <polygon id="Fill-169" fill="#929292" mask="url(#mask-4)" points="114.8777 96.6274 107.6367 95.9924 107.7317 94.9004 114.9737 95.5344"></polygon>
                <path d="M108.2292,97.8257 L113.9752,98.3287 L115.9012,76.3457 L110.1542,75.8417 L108.2292,97.8257 Z M114.6582,99.8907 C114.6362,99.8907 114.6142,99.8897 114.5912,99.8887 L107.3512,99.2547 C107.1532,99.2367 106.9692,99.1417 106.8412,98.9897 C106.7142,98.8377 106.6522,98.6397 106.6692,98.4417 L108.7252,74.9637 C108.7432,74.7647 108.8372,74.5827 108.9902,74.4547 C109.1432,74.3267 109.3392,74.2637 109.5382,74.2817 L116.7792,74.9167 C117.1912,74.9517 117.4972,75.3157 117.4602,75.7287 L115.4042,99.2067 C115.3702,99.5967 115.0422,99.8907 114.6582,99.8907 L114.6582,99.8907 Z" id="Fill-170" fill="#373737" mask="url(#mask-4)"></path>
                <polygon id="Fill-171" fill="#6D6D6D" mask="url(#mask-4)" points="20.2 102.3159 27.441 101.6819 24.632 69.5999 17.39 70.2349"></polygon>
                <polygon id="Fill-172" fill="#929292" mask="url(#mask-4)" points="18.0769 78.0737 25.3179 77.4397 24.9319 73.0357 17.6909 73.6707"></polygon>
                <polygon id="Fill-173" fill="#929292" mask="url(#mask-4)" points="18.3601 81.3081 25.6011 80.6741 25.4701 79.1811 18.2291 79.8151"></polygon>
                <polygon id="Fill-174" fill="#929292" mask="url(#mask-4)" points="19.8992 98.8803 27.1402 98.2463 27.0092 96.7533 19.7682 97.3873"></polygon>
                <path d="M18.2029,70.9165 L20.8819,101.5035 L26.6289,101.0005 L23.9499,70.4125 L18.2029,70.9165 Z M20.1989,103.0655 C19.8139,103.0655 19.4869,102.7715 19.4529,102.3815 L16.6429,70.3005 C16.6269,70.1025 16.6879,69.9045 16.8159,69.7525 C16.9439,69.6005 17.1269,69.5045 17.3249,69.4875 L24.5659,68.8535 C24.9769,68.8185 25.3429,69.1225 25.3789,69.5345 L28.1879,101.6165 C28.2059,101.8145 28.1429,102.0125 28.0159,102.1645 C27.8879,102.3165 27.7049,102.4115 27.5069,102.4295 L20.2659,103.0625 C20.2429,103.0645 20.2219,103.0655 20.1989,103.0655 L20.1989,103.0655 Z" id="Fill-175" fill="#373737" mask="url(#mask-4)"></path>
                <polygon id="Fill-176" fill="#6D6D6D" mask="url(#mask-4)" points="12.9587 102.9497 20.1997 102.3157 17.3907 70.2347 10.1497 70.8687"></polygon>
                <polygon id="Fill-177" fill="#929292" mask="url(#mask-4)" points="10.8367 78.7075 18.0767 78.0735 17.6907 73.6705 10.4507 74.3045"></polygon>
                <polygon id="Fill-178" fill="#929292" mask="url(#mask-4)" points="11.1199 81.9419 18.3599 81.3079 18.2289 79.8149 10.9889 80.4489"></polygon>
                <polygon id="Fill-179" fill="#929292" mask="url(#mask-4)" points="12.658 99.5141 19.899 98.8801 19.768 97.3871 12.528 98.0211"></polygon>
                <path d="M10.9626,71.5503 L13.6416,102.1373 L19.3876,101.6343 L16.7086,71.0473 L10.9626,71.5503 Z M12.9586,103.6993 C12.5736,103.6993 12.2456,103.4053 12.2116,103.0153 L9.4026,70.9343 C9.3666,70.5213 9.6716,70.1573 10.0846,70.1213 L17.3246,69.4873 C17.5246,69.4693 17.7206,69.5313 17.8726,69.6593 C18.0246,69.7873 18.1206,69.9713 18.1386,70.1683 L20.9466,102.2503 C20.9646,102.4483 20.9016,102.6463 20.7746,102.7983 C20.6476,102.9503 20.4636,103.0453 20.2656,103.0633 L13.0246,103.6963 C13.0026,103.6983 12.9806,103.6993 12.9586,103.6993 L12.9586,103.6993 Z" id="Fill-180" fill="#373737" mask="url(#mask-4)"></path>
                <polygon id="Fill-181" fill="#6D6D6D" mask="url(#mask-4)" points="5.2283 99.1411 12.4693 98.5071 10.4143 75.0291 3.1723 75.6621"></polygon>
                <polygon id="Fill-182" fill="#929292" mask="url(#mask-4)" points="3.6746 81.3999 10.9156 80.7659 10.6336 77.5439 3.3926 78.1769"></polygon>
                <polygon id="Fill-183" fill="#929292" mask="url(#mask-4)" points="3.8826 83.7671 11.1226 83.1331 11.0276 82.0401 3.7866 82.6741"></polygon>
                <polygon id="Fill-184" fill="#929292" mask="url(#mask-4)" points="5.0085 96.6274 12.2485 95.9924 12.1535 94.9004 4.9125 95.5344"></polygon>
                <path d="M3.9851,76.3452 L5.9101,98.3282 L11.6571,97.8252 L9.7321,75.8412 L3.9851,76.3452 Z M5.2271,99.8912 C4.8431,99.8912 4.5151,99.5972 4.4811,99.2062 L2.4251,75.7292 C2.3891,75.3162 2.6941,74.9512 3.1071,74.9162 L10.3481,74.2822 C10.5461,74.2632 10.7431,74.3262 10.8951,74.4542 C11.0471,74.5822 11.1431,74.7652 11.1611,74.9632 L13.2161,98.4422 C13.2341,98.6402 13.1721,98.8372 13.0441,98.9902 C12.9161,99.1422 12.7331,99.2372 12.5351,99.2542 L5.2941,99.8882 C5.2711,99.8902 5.2501,99.8912 5.2271,99.8912 L5.2271,99.8912 Z" id="Fill-185" fill="#373737" mask="url(#mask-4)"></path>
                <path d="M42.4441,75.4858 L39.7261,75.4108 L38.6361,75.3808 L33.2061,75.2298 C31.5561,75.1838 30.1701,76.4968 30.1241,78.1458 L29.8781,87.1728 C29.8321,88.8218 31.1441,90.2098 32.7941,90.2548 L39.3141,90.4358 C40.9631,90.4808 42.3501,89.1698 42.3961,87.5198 L42.4961,83.8998 L42.4441,75.4858 Z" id="Fill-186" fill="#A5B5B6" mask="url(#mask-4)"></path>
                <path d="M39.3142,90.436 C40.9632,90.481 42.3502,89.169 42.3962,87.52 L42.4522,85.508 L29.9322,85.209 L29.8772,87.172 C29.8322,88.822 31.1442,90.209 32.7932,90.254 L39.3142,90.436 Z" id="Fill-187" fill="#859596" mask="url(#mask-4)"></path>
                <path d="M39.3982,91.187 C39.3642,91.187 39.3292,91.186 39.2932,91.185 L32.7732,91.004 C31.7752,90.977 30.8452,90.56 30.1552,89.831 C29.4652,89.101 29.1002,88.15 29.1272,87.152 L29.3742,78.125 C29.4022,77.126 29.8192,76.197 30.5472,75.507 C31.2772,74.817 32.2262,74.451 33.2262,74.48 L42.4652,74.736 C42.8792,74.748 43.2062,75.092 43.1942,75.506 C43.1822,75.921 42.8412,76.243 42.4232,76.236 L33.1852,75.979 C32.5862,75.96 32.0172,76.182 31.5792,76.597 C31.1402,77.011 30.8902,77.569 30.8742,78.166 L30.6272,87.194 C30.6112,87.791 30.8302,88.362 31.2452,88.8 C31.6602,89.238 32.2162,89.489 32.8142,89.505 L39.3352,89.686 C39.9312,89.7 40.5022,89.483 40.9412,89.069 C41.3782,88.654 41.6292,88.096 41.6462,87.499 L41.7472,83.879 C41.7572,83.465 42.1002,83.146 42.5172,83.151 C42.9312,83.162 43.2572,83.507 43.2462,83.921 L43.1452,87.541 C43.1182,88.539 42.7012,89.468 41.9712,90.158 C41.2682,90.824 40.3582,91.187 39.3982,91.187" id="Fill-188" fill="#354546" mask="url(#mask-4)"></path>
                <path d="M42.4519,86.2583 L42.4309,86.2583 L29.9129,85.9113 C29.4989,85.9003 29.1729,85.5553 29.1829,85.1413 C29.1949,84.7273 29.5409,84.4063 29.9539,84.4113 L42.4729,84.7593 C42.8869,84.7703 43.2129,85.1143 43.2009,85.5293 C43.1899,85.9363 42.8559,86.2583 42.4519,86.2583" id="Fill-189" fill="#354546" mask="url(#mask-4)"></path>
                <path d="M37.5642,91.1372 C37.5482,91.1372 37.5332,91.1362 37.5172,91.1352 C37.1042,91.1112 36.7892,90.7552 36.8142,90.3412 L37.1202,85.3352 C37.1452,84.9222 37.5022,84.6062 37.9142,84.6332 C38.3282,84.6582 38.6422,85.0132 38.6172,85.4272 L38.3112,90.4332 C38.2872,90.8302 37.9572,91.1372 37.5642,91.1372" id="Fill-190" fill="#354546" mask="url(#mask-4)"></path>
                <path d="M33.2429,91.0171 C32.8299,91.0171 32.4939,90.6821 32.4929,90.2691 L32.4819,85.2541 C32.4809,84.8401 32.8159,84.5031 33.2299,84.5021 L33.2319,84.5021 C33.6449,84.5021 33.9809,84.8371 33.9819,85.2511 L33.9929,90.2661 C33.9939,90.6801 33.6589,91.0161 33.2449,91.0171 L33.2429,91.0171 Z" id="Fill-191" fill="#354546" mask="url(#mask-4)"></path>
                <path d="M41.4109,80.227 L41.3899,80.227 L33.5229,80.009 C33.3249,80.003 33.1369,79.919 32.9999,79.775 C32.8629,79.63 32.7889,79.437 32.7949,79.239 L32.9059,75.221 C32.9179,74.808 33.2639,74.485 33.6769,74.493 C34.0909,74.504 34.4169,74.849 34.4049,75.263 L34.3149,78.531 L40.6819,78.706 L40.7719,75.44 C40.7829,75.026 41.1269,74.7 41.5419,74.71 C41.9559,74.722 42.2829,75.067 42.2709,75.481 L42.1599,79.498 C42.1479,79.905 41.8149,80.227 41.4109,80.227" id="Fill-192" fill="#354546" mask="url(#mask-4)"></path>
                <path d="M42.4968,84.6499 L42.4758,84.6499 C42.0618,84.6389 41.7358,84.2959 41.7458,83.8809 L41.8038,81.6659 C41.8138,81.2519 42.1558,80.9309 42.5728,80.9349 C42.9868,80.9459 43.3138,81.2909 43.3038,81.7049 L43.2458,83.9199 C43.2348,84.3279 42.9018,84.6499 42.4968,84.6499" id="Fill-193" fill="#354546" mask="url(#mask-4)"></path>
                <path d="M77.2644,76.0854 L79.9824,76.0104 L81.0734,75.9804 L86.5024,75.8294 C88.1524,75.7834 89.5384,77.0964 89.5844,78.7454 L89.8304,87.7734 C89.8764,89.4224 88.5644,90.8094 86.9144,90.8554 L80.3954,91.0354 C78.7454,91.0814 77.3594,89.7694 77.3134,88.1194 L77.2124,84.0504 L77.2644,76.0854 Z" id="Fill-194" fill="#A5B5B6" mask="url(#mask-4)"></path>
                <path d="M80.3953,91.0356 C78.7463,91.0816 77.3593,89.7686 77.3133,88.1196 L77.2573,86.1086 L89.7763,85.8086 L89.8313,87.7726 C89.8763,89.4226 88.5643,90.8086 86.9153,90.8546 L80.3953,91.0356 Z" id="Fill-195" fill="#859596" mask="url(#mask-4)"></path>
                <path d="M80.3103,91.7866 C78.2903,91.7866 76.6203,90.1726 76.5633,88.1406 L76.4623,84.0686 C76.4533,83.6546 76.7803,83.3106 77.1943,83.3006 L77.2123,83.3006 C77.6193,83.3006 77.9533,83.6246 77.9623,84.0316 L78.0623,88.1006 C78.0973,89.3396 79.1353,90.3226 80.3733,90.2856 L86.8943,90.1046 C87.4923,90.0886 88.0493,89.8386 88.4633,89.3996 C88.8783,88.9616 89.0973,88.3906 89.0813,87.7936 L88.8353,78.7656 C88.8003,77.5256 87.7623,76.5496 86.5243,76.5796 L77.2853,76.8356 C76.8693,76.8426 76.5263,76.5206 76.5143,76.1066 C76.5033,75.6926 76.8303,75.3486 77.2443,75.3366 L86.4823,75.0796 C88.5493,75.0226 90.2773,76.6576 90.3343,78.7246 L90.5813,87.7526 C90.6083,88.7506 90.2443,89.7016 89.5533,90.4306 C88.8643,91.1596 87.9343,91.5766 86.9363,91.6046 L80.4153,91.7856 C80.3803,91.7866 80.3453,91.7866 80.3103,91.7866" id="Fill-196" fill="#354546" mask="url(#mask-4)"></path>
                <path d="M77.2566,86.8589 C76.8526,86.8589 76.5196,86.5369 76.5076,86.1299 C76.4956,85.7149 76.8216,85.3709 77.2356,85.3589 L89.7546,85.0119 C90.1686,85.0059 90.5136,85.3269 90.5256,85.7409 C90.5366,86.1549 90.2096,86.4999 89.7956,86.5109 L77.2776,86.8579 C77.2716,86.8589 77.2646,86.8589 77.2566,86.8589" id="Fill-197" fill="#354546" mask="url(#mask-4)"></path>
                <path d="M82.1453,91.7368 C81.7513,91.7368 81.4213,91.4298 81.3973,91.0328 L81.0913,86.0268 C81.0663,85.6138 81.3813,85.2578 81.7943,85.2328 C82.2083,85.2058 82.5643,85.5218 82.5883,85.9358 L82.8943,90.9418 C82.9193,91.3548 82.6053,91.7108 82.1913,91.7358 C82.1753,91.7368 82.1613,91.7368 82.1453,91.7368" id="Fill-198" fill="#354546" mask="url(#mask-4)"></path>
                <path d="M86.4656,91.6176 L86.4636,91.6176 C86.0496,91.6166 85.7146,91.2796 85.7156,90.8656 L85.7266,85.8506 C85.7276,85.4376 86.0636,85.1026 86.4766,85.1026 L86.4776,85.1026 C86.8926,85.1036 87.2276,85.4396 87.2266,85.8546 L87.2156,90.8686 C87.2146,91.2826 86.8786,91.6176 86.4656,91.6176" id="Fill-199" fill="#354546" mask="url(#mask-4)"></path>
                <path d="M78.2986,80.8276 C77.8936,80.8276 77.5606,80.5056 77.5486,80.0986 L77.4376,76.0816 C77.4266,75.6676 77.7526,75.3216 78.1666,75.3106 C78.5836,75.2986 78.9256,75.6256 78.9376,76.0396 L79.0276,79.3066 L85.3946,79.1306 L85.3036,75.8626 C85.2916,75.4486 85.6176,75.1036 86.0316,75.0926 C86.4466,75.0846 86.7916,75.4076 86.8026,75.8216 L86.9136,79.8386 C86.9196,80.0376 86.8456,80.2296 86.7096,80.3746 C86.5726,80.5186 86.3836,80.6036 86.1856,80.6086 L78.3196,80.8266 C78.3126,80.8276 78.3056,80.8276 78.2986,80.8276" id="Fill-200" fill="#354546" mask="url(#mask-4)"></path>
                <path d="M77.2126,84.8003 C76.8096,84.8003 76.4766,84.4803 76.4626,84.0743 L76.4056,82.3093 C76.3926,81.8953 76.7176,81.5483 77.1316,81.5353 C77.5466,81.5203 77.8916,81.8463 77.9046,82.2603 L77.9626,84.0263 C77.9756,84.4403 77.6506,84.7863 77.2366,84.8003 L77.2126,84.8003 Z" id="Fill-201" fill="#354546" mask="url(#mask-4)"></path>
                <path d="M81.8591,21.1128 C81.8481,21.1128 81.8381,21.1128 81.8271,21.1118 C81.4131,21.0938 81.0911,20.7448 81.1091,20.3308 L81.5391,10.2088 C81.6751,6.4938 78.7611,3.3558 75.0421,3.2188 L75.0211,3.2168 L48.9611,1.5048 C45.2501,1.3658 42.1141,4.2848 41.9761,8.0018 L41.5471,18.8748 C41.5311,19.2888 41.1841,19.6128 40.7681,19.5948 C40.3541,19.5788 40.0321,19.2298 40.0481,18.8158 L40.4781,7.9448 C40.6451,3.3998 44.4771,-0.1682 49.0271,0.0068 C49.0341,0.0068 49.0411,0.0068 49.0481,0.0078 L75.1091,1.7198 C79.6491,1.8938 83.2051,5.7258 83.0381,10.2688 L82.6081,20.3948 C82.5901,20.7978 82.2581,21.1128 81.8591,21.1128" id="Fill-202" fill="#354546" mask="url(#mask-4)"></path>
                <path d="M36.5154,19.7641 C35.2214,19.7161 34.1134,21.0261 34.0514,22.6751 L33.6774,32.8091 C33.6174,34.4581 34.6244,35.8461 35.9184,35.8931 C37.2124,35.9411 38.2714,35.9801 38.2714,35.9801 L38.8674,19.8511 C38.8674,19.8511 37.8084,19.8121 36.5154,19.7641" id="Fill-203" fill="#A5B5B6" mask="url(#mask-4)"></path>
                <path d="M34.0515,22.6753 L33.8685,27.6343 L38.5725,27.8083 L38.8665,19.8513 C38.8665,19.8513 37.8085,19.8123 36.5155,19.7643 C35.2215,19.7163 34.1135,21.0263 34.0515,22.6753" id="Fill-204" fill="#C5D5D6" mask="url(#mask-4)"></path>
                <path d="M38.2722,36.7304 L38.2442,36.7304 L35.8912,36.6434 C35.0432,36.6114 34.2382,36.1564 33.6832,35.3924 C33.1612,34.6734 32.8922,33.7454 32.9282,32.7814 L33.3022,22.6474 C33.3782,20.5814 34.8332,18.9524 36.5432,19.0144 L38.8952,19.1014 C39.3082,19.1164 39.6312,19.4644 39.6172,19.8784 C39.6012,20.2924 39.2532,20.6104 38.8392,20.6004 L36.4872,20.5134 C36.4732,20.5134 36.4602,20.5124 36.4472,20.5124 C35.5942,20.5124 34.8452,21.5024 34.8012,22.7024 L34.4262,32.8364 C34.4042,33.4584 34.5752,34.0684 34.8972,34.5104 C35.1832,34.9044 35.5562,35.1294 35.9472,35.1444 L38.2982,35.2304 C38.7122,35.2464 39.0362,35.5944 39.0202,36.0084 C39.0052,36.4124 38.6732,36.7304 38.2722,36.7304" id="Fill-205" fill="#354546" mask="url(#mask-4)"></path>
                <polygon id="Fill-206" fill="#859596" mask="url(#mask-4)" points="42.5867 38.5395 38.1827 38.3765 38.9067 18.7755 43.3117 18.9385"></polygon>
                <polygon id="Fill-207" fill="#A5B5B6" mask="url(#mask-4)" points="42.8972 30.1528 38.4932 29.9898 38.9072 18.7758 43.3112 18.9388"></polygon>
                <path d="M38.9597,37.6548 L41.8647,37.7618 L42.5337,19.6598 L39.6287,19.5528 L38.9597,37.6548 Z M42.5877,39.2898 C42.5777,39.2898 42.5687,39.2888 42.5597,39.2888 L38.1547,39.1268 C37.9557,39.1188 37.7687,39.0328 37.6337,38.8868 C37.4977,38.7408 37.4257,38.5478 37.4337,38.3488 L38.1567,18.7478 C38.1647,18.5498 38.2507,18.3618 38.3967,18.2258 C38.5417,18.0908 38.7367,18.0198 38.9347,18.0268 L43.3387,18.1888 C43.7527,18.2038 44.0757,18.5518 44.0607,18.9668 L43.3367,38.5668 C43.3207,38.9718 42.9887,39.2898 42.5877,39.2898 L42.5877,39.2898 Z" id="Fill-208" fill="#354546" mask="url(#mask-4)"></path>
                <path d="M33.8689,28.3847 L33.8669,28.3847 L32.0659,28.3817 C31.6519,28.3807 31.3169,28.0447 31.3169,27.6297 C31.3179,27.2167 31.6539,26.8817 32.0669,26.8817 L32.0689,26.8817 L33.8699,26.8847 C34.2839,26.8857 34.6199,27.2217 34.6189,27.6357 C34.6179,28.0507 34.2819,28.3847 33.8689,28.3847" id="Fill-209" fill="#354546" mask="url(#mask-4)"></path>
                <path d="M88.9431,10.5556 C88.8571,10.5556 88.7701,10.5446 88.6831,10.5226 C88.1211,10.3796 87.7821,9.8076 87.9241,9.2456 L88.7021,6.1976 C88.8441,5.6356 89.4161,5.2966 89.9781,5.4396 C90.5401,5.5826 90.8801,6.1546 90.7361,6.7166 L89.9601,9.7646 C89.8391,10.2396 89.4121,10.5556 88.9431,10.5556" id="Fill-210" fill="#354546" mask="url(#mask-4)"></path>
                <path d="M85.865,22.3374 C85.803,22.3374 85.741,22.3304 85.679,22.3144 C85.278,22.2124 85.035,21.8034 85.137,21.4024 L88.216,9.3204 C88.318,8.9194 88.726,8.6764 89.128,8.7784 C89.529,8.8804 89.771,9.2894 89.669,9.6904 L86.591,21.7724 C86.505,22.1114 86.2,22.3374 85.865,22.3374" id="Fill-211" fill="#354546" mask="url(#mask-4)"></path>
                <path d="M85.864,21.5874 C87.158,21.6354 88.167,23.0234 88.106,24.6724 L87.731,34.8064 C87.671,36.4544 86.562,37.7644 85.268,37.7164 C83.974,37.6694 82.916,37.6294 82.916,37.6294 L83.512,21.5004 C83.512,21.5004 84.57,21.5394 85.864,21.5874" id="Fill-212" fill="#A5B5B6" mask="url(#mask-4)"></path>
                <path d="M88.1062,24.6723 L87.9222,29.6313 L83.2182,29.4583 L83.5122,21.5003 C83.5122,21.5003 84.5702,21.5393 85.8642,21.5873 C87.1582,21.6353 88.1672,23.0233 88.1062,24.6723" id="Fill-213" fill="#C5D5D6" mask="url(#mask-4)"></path>
                <path d="M85.3367,38.4682 C85.3047,38.4682 85.2737,38.4682 85.2407,38.4672 L82.8887,38.3792 C82.4747,38.3642 82.1507,38.0162 82.1667,37.6022 C82.1827,37.1882 82.5297,36.8672 82.9437,36.8802 L85.2957,36.9672 C86.1587,37.0032 86.9377,35.9972 86.9827,34.7782 L87.3567,24.6442 C87.3797,24.0232 87.2077,23.4122 86.8867,22.9702 C86.6007,22.5762 86.2277,22.3512 85.8367,22.3372 L83.4837,22.2502 L83.5397,20.7512 L85.8927,20.8382 C86.7397,20.8692 87.5447,21.3252 88.0997,22.0882 C88.6227,22.8082 88.8917,23.7352 88.8557,24.6992 L88.4817,34.8332 C88.4057,36.8612 87.0047,38.4682 85.3367,38.4682" id="Fill-214" fill="#354546" mask="url(#mask-4)"></path>
                <polygon id="Fill-215" fill="#859596" mask="url(#mask-4)" points="78.4236 39.8633 82.8276 40.0263 83.5516 20.4253 79.1476 20.2623"></polygon>
                <polygon id="Fill-216" fill="#A5B5B6" mask="url(#mask-4)" points="78.7332 31.477 83.1372 31.64 83.5512 20.425 79.1472 20.262"></polygon>
                <path d="M79.2009,39.1416 L82.1059,39.2486 L82.7739,21.1466 L79.8689,21.0396 L79.2009,39.1416 Z M82.8279,40.7766 C82.8179,40.7766 82.8089,40.7756 82.7999,40.7756 L78.3949,40.6126 C77.9819,40.5976 77.6589,40.2496 77.6739,39.8356 L78.3979,20.2346 C78.4049,20.0366 78.4909,19.8486 78.6379,19.7126 C78.7829,19.5776 78.9779,19.5076 79.1759,19.5126 L83.5799,19.6756 C83.9939,19.6906 84.3159,20.0386 84.3019,20.4526 L83.5769,40.0536 C83.5699,40.2526 83.4839,40.4406 83.3379,40.5756 C83.1989,40.7046 83.0159,40.7766 82.8279,40.7766 L82.8279,40.7766 Z" id="Fill-217" fill="#354546" mask="url(#mask-4)"></path>
                <path d="M89.7195,30.5112 C89.7015,30.5112 89.6835,30.5112 89.6645,30.5092 L87.8685,30.3802 C87.4555,30.3502 87.1445,29.9912 87.1745,29.5782 C87.2035,29.1652 87.5645,28.8562 87.9765,28.8842 L89.7735,29.0132 C90.1865,29.0432 90.4965,29.4022 90.4665,29.8152 C90.4385,30.2102 90.1095,30.5112 89.7195,30.5112" id="Fill-218" fill="#354546" mask="url(#mask-4)"></path>
                <path d="M42.5183,44.6767 C41.4923,44.6767 38.8843,45.7907 37.7783,47.0517 C36.8393,48.1207 36.6893,49.9067 37.4503,50.9517 C37.7603,51.3787 38.1703,51.6147 38.6353,51.6357 C39.1663,51.6557 39.7233,51.3857 40.1643,50.8847 C40.6973,50.2777 41.6103,48.8977 42.2543,47.5357 C43.0863,45.7737 43.0543,44.9627 42.9213,44.7797 C42.8803,44.7237 42.7513,44.6857 42.5773,44.6777 C42.5583,44.6767 42.5393,44.6767 42.5183,44.6767 M38.7003,53.1377 C38.6563,53.1377 38.6113,53.1367 38.5673,53.1347 C37.6453,53.0937 36.8183,52.6317 36.2373,51.8347 C35.0543,50.2107 35.2363,47.6747 36.6513,46.0617 C37.6983,44.8687 40.7473,43.0927 42.6443,43.1797 C43.4713,43.2177 43.9113,43.5907 44.1333,43.8967 C44.7463,44.7367 44.5753,46.1367 43.6103,48.1767 C42.9003,49.6777 41.9073,51.1737 41.2913,51.8737 C40.5823,52.6817 39.6443,53.1377 38.7003,53.1377" id="Fill-219" fill="#19B5FE" mask="url(#mask-4)"></path>
                <path d="M76.948,42.8989 C76.491,42.8989 76.137,42.9739 75.969,43.1509 C75.844,43.2819 75.851,43.5429 75.879,43.7379 C76.051,44.9759 77.393,46.7289 78.144,47.1729 C79.104,47.7409 80.665,47.4299 81.553,46.4939 C81.98,46.0459 82.186,45.5199 82.121,45.0499 C82.069,44.6749 81.848,44.3629 81.483,44.1479 C80.417,43.5169 78.259,42.8989 76.948,42.8989 M79.291,48.9599 C78.61,48.9599 77.947,48.7989 77.381,48.4639 C76.217,47.7749 74.624,45.6069 74.393,43.9449 C74.26,42.9989 74.586,42.4289 74.882,42.1179 C76.509,40.4059 81.195,42.2349 82.247,42.8559 C83.008,43.3069 83.491,44.0119 83.607,44.8429 C83.736,45.7669 83.384,46.7459 82.641,47.5269 C81.759,48.4559 80.496,48.9599 79.291,48.9599" id="Fill-220" fill="#19B5FE" mask="url(#mask-4)"></path>
                <path d="M36.1501,41.7397 C35.7391,41.7397 35.3841,41.7707 35.1241,41.8357 C33.5051,42.2327 32.4281,44.0837 32.7231,45.9617 C32.8731,46.9127 33.3641,47.7287 34.0731,48.1997 C34.6631,48.5927 35.3651,48.7167 36.0481,48.5487 C36.9461,48.3277 38.6641,47.5817 40.0801,46.6337 C41.5501,45.6477 42.3681,44.6737 42.2661,44.0267 C42.2061,43.6427 41.8041,43.3037 41.4781,43.0867 C40.1511,42.2037 37.7261,41.7397 36.1501,41.7397 M35.4451,50.1227 C34.6701,50.1227 33.9111,49.8937 33.2421,49.4487 C32.1841,48.7457 31.4561,47.5597 31.2411,46.1947 C30.8291,43.5667 32.4101,40.9577 34.7661,40.3787 C36.5241,39.9467 40.3511,40.5347 42.3091,41.8377 C43.1481,42.3957 43.6311,43.0537 43.7481,43.7947 C44.2141,46.7607 38.3381,49.5317 36.4071,50.0057 C36.0871,50.0837 35.7641,50.1227 35.4451,50.1227" id="Fill-221" fill="#719911" mask="url(#mask-4)"></path>
                <path d="M78.072,47.3105 C77.92,51.4325 74.421,54.7915 70.296,54.7745 L48.676,54.6845 C44.551,54.6675 41.438,51.2885 41.759,47.1765 L44.147,13.3295 C44.468,9.2165 48.093,6.1365 52.204,6.4835 L71.972,8.1545 C76.083,8.5015 79.321,12.1585 79.169,16.2805 L78.072,47.3105 Z" id="Fill-222" fill="#A5B5B6" mask="url(#mask-4)"></path>
                <path d="M74.6472,41.0166 C74.5352,44.0476 71.7312,46.5096 68.4182,46.4866 L51.0462,46.3666 C47.7322,46.3436 45.2232,43.8496 45.4702,40.8266 L47.3072,16.9306 C47.5542,13.9066 50.4602,11.6496 53.7632,11.9156 L69.6512,13.1946 C72.9542,13.4596 75.5652,16.1576 75.4532,19.1896 L74.6472,41.0166 Z" id="Fill-223" fill="#C5D5D6" mask="url(#mask-4)"></path>
                <path d="M71.8689,51.4355 L48.3759,51.2765 C45.4599,51.2565 43.0069,49.8155 41.7389,47.6795 C41.6989,51.5605 44.7209,54.6675 48.6759,54.6845 L70.2959,54.7745 C73.7549,54.7885 76.7729,52.4285 77.7469,49.2355 C76.2159,50.6055 74.1309,51.4505 71.8689,51.4355" id="Fill-224" fill="#859596" mask="url(#mask-4)"></path>
                <path d="M71.9304,52.1855 L71.8644,52.1855 L48.3694,52.0265 C45.2754,52.0055 42.5544,50.5235 41.0944,48.0615 C40.8824,47.7065 40.9994,47.2455 41.3564,47.0345 C41.7124,46.8235 42.1724,46.9405 42.3844,47.2965 C43.5744,49.3015 45.8154,50.5085 48.3804,50.5265 L71.8734,50.6855 C73.8734,50.6985 75.7844,49.9855 77.2464,48.6765 C77.5564,48.3995 78.0304,48.4265 78.3064,48.7345 C78.5824,49.0435 78.5564,49.5185 78.2474,49.7935 C76.5224,51.3375 74.2814,52.1855 71.9304,52.1855" id="Fill-225" fill="#354546" mask="url(#mask-4)"></path>
                <path d="M78.072,47.3105 L78.074,47.3105 L78.072,47.3105 Z M51.568,7.2065 C49.984,7.2065 48.466,7.7645 47.24,8.8055 C45.867,9.9725 45.034,11.5995 44.894,13.3875 L42.508,47.2285 C42.368,49.0135 42.934,50.6905 44.102,51.9575 C45.269,53.2255 46.895,53.9275 48.679,53.9345 L70.299,54.0245 L70.327,54.0245 C74.051,54.0245 77.185,51.0065 77.323,47.2825 L78.419,16.2535 C78.557,12.5145 75.636,9.2165 71.909,8.9015 L52.14,7.2305 C51.949,7.2145 51.758,7.2065 51.568,7.2065 L51.568,7.2065 Z M70.327,55.5245 L70.292,55.5245 L48.673,55.4345 C46.467,55.4255 44.452,54.5515 42.999,52.9745 C41.546,51.3965 40.84,49.3165 41.011,47.1175 L43.399,13.2765 C43.57,11.0815 44.589,9.0895 46.268,7.6625 C47.948,6.2355 50.079,5.5525 52.266,5.7365 L72.035,7.4065 C76.55,7.7885 80.086,11.7815 79.919,16.3085 L78.822,47.3365 L78.822,47.3375 C78.655,51.8595 74.847,55.5245 70.327,55.5245 L70.327,55.5245 Z" id="Fill-226" fill="#354546" mask="url(#mask-4)"></path>
                <path d="M61.5457,16.2964 C57.4387,16.2964 52.5417,15.0344 52.5417,9.0244 C52.5417,8.0814 52.6627,7.4554 52.9027,6.5624 C53.0107,6.1624 53.4217,5.9254 53.8217,6.0324 C54.2227,6.1394 54.4597,6.5514 54.3527,6.9514 C54.1377,7.7504 54.0417,8.2394 54.0417,9.0244 C54.0417,10.4524 54.0417,14.7964 61.5457,14.7964 C69.0817,14.7964 69.0817,10.4524 69.0817,9.0244 C69.0817,8.7064 69.0667,8.3854 69.0327,8.0724 C68.9907,7.6604 69.2907,7.2914 69.7027,7.2494 C70.1157,7.2074 70.4837,7.5064 70.5247,7.9184 C70.5637,8.2834 70.5817,8.6554 70.5817,9.0244 C70.5817,12.3414 69.0147,16.2964 61.5457,16.2964" id="Fill-227" fill="#354546" mask="url(#mask-4)"></path>
                <path d="M56.7634,25.9433 C56.5974,30.4133 52.8394,33.9033 48.3694,33.7383 C43.8994,33.5733 40.4094,29.8153 40.5744,25.3453 C40.7394,20.8743 44.4964,17.3843 48.9674,17.5493 C53.4384,17.7143 56.9284,21.4723 56.7634,25.9433" id="Fill-228" fill="#C5D5D6" mask="url(#mask-4)"></path>
                <path d="M48.6619,18.2939 C46.8019,18.2939 45.0369,18.9859 43.6669,20.2579 C42.2279,21.5949 41.3959,23.4109 41.3239,25.3729 C41.1739,29.4229 44.3479,32.8389 48.3969,32.9889 C52.4479,33.1379 55.8639,29.9659 56.0139,25.9159 L56.7639,25.9429 L56.0139,25.9159 C56.0859,23.9539 55.3909,22.0809 54.0549,20.6419 C52.7189,19.2039 50.9019,18.3719 48.9399,18.2989 C48.8479,18.2959 48.7539,18.2939 48.6619,18.2939 M48.6729,34.4939 C48.5619,34.4939 48.4529,34.4919 48.3419,34.4879 C43.4659,34.3079 39.6439,30.1939 39.8249,25.3169 C39.9119,22.9549 40.9139,20.7679 42.6459,19.1589 C44.3779,17.5509 46.6329,16.7139 48.9949,16.7999 C51.3569,16.8869 53.5449,17.8889 55.1529,19.6219 C56.7619,21.3539 57.5999,23.6079 57.5129,25.9709 C57.3369,30.7369 53.4029,34.4939 48.6729,34.4939" id="Fill-229" fill="#354546" mask="url(#mask-4)"></path>
                <path d="M53.8875,25.8369 C53.7815,28.7189 51.3585,30.9699 48.4755,30.8629 C45.5935,30.7569 43.3425,28.3339 43.4495,25.4509 C43.5555,22.5689 45.9795,20.3179 48.8615,20.4249 C51.7435,20.5309 53.9935,22.9549 53.8875,25.8369" id="Fill-230" fill="#9ABD45" mask="url(#mask-4)"></path>
                <path d="M51.9695,24.2353 C51.9035,26.0273 50.3975,27.4253 48.6055,27.3593 C46.8135,27.2933 45.4145,25.7873 45.4815,23.9953 C45.5465,22.2033 47.0535,20.8043 48.8445,20.8713 C50.6365,20.9373 52.0355,22.4433 51.9695,24.2353" id="Fill-231" fill="#CEEC87" mask="url(#mask-4)"></path>
                <path d="M53.8875,25.8369 L53.8895,25.8369 L53.8875,25.8369 Z M48.6645,21.1709 C47.5325,21.1709 46.4585,21.5919 45.6245,22.3669 C44.7495,23.1799 44.2425,24.2849 44.1995,25.4789 C44.1085,27.9439 46.0385,30.0229 48.5035,30.1139 C48.5595,30.1159 48.6155,30.1169 48.6705,30.1169 C51.0615,30.1169 53.0495,28.2179 53.1385,25.8099 C53.1825,24.6149 52.7585,23.4759 51.9465,22.5999 C51.1325,21.7249 50.0285,21.2189 48.8335,21.1739 C48.7775,21.1719 48.7205,21.1709 48.6645,21.1709 L48.6645,21.1709 Z M48.6715,31.6169 C48.5975,31.6169 48.5235,31.6159 48.4485,31.6129 C45.1575,31.4909 42.5775,28.7149 42.6995,25.4239 C42.8215,22.1319 45.5955,19.5559 48.8895,19.6749 C50.4835,19.7339 51.9595,20.4109 53.0445,21.5799 C54.1305,22.7489 54.6965,24.2709 54.6375,25.8649 C54.5185,29.0809 51.8645,31.6169 48.6715,31.6169 L48.6715,31.6169 Z" id="Fill-232" fill="#354546" mask="url(#mask-4)"></path>
                <path d="M50.0144,22.1694 C50.3464,22.9114 49.3094,23.5454 47.9514,24.1524 C46.5934,24.7604 45.4294,25.1114 45.0974,24.3704 C44.7654,23.6284 45.5974,22.5344 46.9544,21.9264 C48.3124,21.3194 49.6824,21.4274 50.0144,22.1694" id="Fill-233" fill="#FFFFFF" mask="url(#mask-4)"></path>
                <path d="M49.0779,29.3501 C48.9909,29.1581 49.2609,28.9931 49.6129,28.8351 C49.9659,28.6781 50.2669,28.5861 50.3529,28.7791 C50.4399,28.9721 50.2239,29.2551 49.8719,29.4131 C49.5189,29.5711 49.1639,29.5431 49.0779,29.3501" id="Fill-234" fill="#FFFFFF" mask="url(#mask-4)"></path>
                <path d="M53.4714,25.7827 C53.4474,26.4637 52.8744,26.9947 52.1944,26.9697 C51.5134,26.9447 50.9824,26.3717 51.0074,25.6917 C51.0334,25.0117 51.6044,24.4797 52.2844,24.5057 C52.9654,24.5307 53.4964,25.1027 53.4714,25.7827" id="Fill-235" fill="#354546" mask="url(#mask-4)"></path>
                <path d="M79.6013,27.2905 C79.4613,31.0785 76.2773,32.3865 72.4893,32.2465 C68.7013,32.1065 65.7433,30.5715 65.8823,26.7835 C66.0233,22.9955 69.2073,20.0385 72.9963,20.1775 C76.7843,20.3175 79.7413,23.5025 79.6013,27.2905" id="Fill-236" fill="#C5D5D6" mask="url(#mask-4)"></path>
                <path d="M72.739,20.9233 C69.471,20.9233 66.754,23.5193 66.633,26.8113 C66.576,28.3523 67.074,29.4863 68.156,30.2773 C69.152,31.0063 70.66,31.4283 72.516,31.4963 C74.387,31.5663 75.946,31.2563 77.023,30.6003 C78.197,29.8863 78.796,28.7953 78.852,27.2623 C78.976,23.8943 76.337,21.0513 72.968,20.9273 C72.891,20.9243 72.815,20.9233 72.739,20.9233 M73.015,33.0063 C72.833,33.0063 72.648,33.0033 72.461,32.9953 C70.273,32.9153 68.526,32.4073 67.27,31.4883 C65.798,30.4113 65.059,28.7753 65.134,26.7563 C65.289,22.5603 68.826,19.2723 73.023,19.4283 C77.218,19.5833 80.506,23.1233 80.351,27.3183 C80.276,29.3353 79.395,30.9133 77.802,31.8823 C76.589,32.6213 74.942,33.0063 73.015,33.0063" id="Fill-237" fill="#354546" mask="url(#mask-4)"></path>
                <path d="M77.1648,27.2007 C77.0748,29.6427 75.0208,29.8997 72.5788,29.8097 C70.1368,29.7197 68.2288,29.3167 68.3188,26.8737 C68.4098,24.4307 70.4628,22.5237 72.9058,22.6147 C75.3488,22.7047 77.2558,24.7577 77.1648,27.2007" id="Fill-238" fill="#19B5FE" mask="url(#mask-4)"></path>
                <path d="M75.491,25.6679 C75.435,27.1859 74.261,27.7499 72.742,27.6939 C71.224,27.6379 69.937,26.9829 69.993,25.4649 C70.05,23.9459 71.325,22.7609 72.844,22.8169 C74.362,22.8729 75.548,24.1489 75.491,25.6679" id="Fill-239" fill="#39D5FF" mask="url(#mask-4)"></path>
                <path d="M72.739,23.3613 C71.808,23.3613 70.927,23.7073 70.241,24.3433 C69.521,25.0113 69.105,25.9203 69.069,26.9013 C69.011,28.4533 69.838,28.9583 72.606,29.0603 C75.747,29.1783 76.367,28.4863 76.416,27.1733 C76.49,25.1473 74.903,23.4383 72.878,23.3633 C72.832,23.3623 72.785,23.3613 72.739,23.3613 M73.418,30.5793 C73.099,30.5793 72.804,30.5693 72.552,30.5593 C70.892,30.4983 67.44,30.3703 67.57,26.8463 C67.676,23.9943 70.081,21.7623 72.933,21.8643 C75.785,21.9703 78.019,24.3763 77.915,27.2283 C77.803,30.2263 75.229,30.5793 73.418,30.5793" id="Fill-240" fill="#354546" mask="url(#mask-4)"></path>
                <path d="M73.8826,24.0927 C74.1636,24.7207 73.2846,25.2587 72.1346,25.7737 C70.9846,26.2887 69.9976,26.5867 69.7166,25.9577 C69.4346,25.3287 70.1396,24.4017 71.2896,23.8867 C72.4406,23.3717 73.6016,23.4647 73.8826,24.0927" id="Fill-241" fill="#FFFFFF" mask="url(#mask-4)"></path>
                <path d="M74.2,28.5874 C74.127,28.4244 74.355,28.2854 74.653,28.1514 C74.952,28.0174 75.208,27.9404 75.281,28.1034 C75.354,28.2664 75.172,28.5074 74.873,28.6404 C74.574,28.7744 74.273,28.7504 74.2,28.5874" id="Fill-242" fill="#FFFFFF" mask="url(#mask-4)"></path>
                <path d="M70.825,27.0049 C70.804,27.5819 70.319,28.0319 69.743,28.0109 C69.166,27.9889 68.716,27.5049 68.737,26.9279 C68.759,26.3509 69.243,25.9009 69.82,25.9219 C70.396,25.9439 70.846,26.4279 70.825,27.0049" id="Fill-243" fill="#354546" mask="url(#mask-4)"></path>
                <path d="M73.0076,41.999 C73.0076,47.616 67.0726,47.134 59.9476,47.134 C52.8236,47.134 47.2076,47.616 47.2076,41.999 C47.2076,36.382 52.9836,37.206 60.1086,37.206 C67.2326,37.206 73.0076,36.382 73.0076,41.999" id="Fill-244" fill="#FFFFFF" mask="url(#mask-4)"></path>
                <path d="M59.948,46.3847 C60.479,46.3847 61.004,46.3867 61.519,46.3897 C65.881,46.4107 69.648,46.4307 71.294,44.7937 C71.942,44.1477 72.258,43.2337 72.258,41.9987 C72.258,40.7807 71.96,39.8937 71.346,39.2887 C69.87,37.8327 66.48,37.8797 62.555,37.9337 C61.764,37.9447 60.946,37.9557 60.108,37.9557 C59.269,37.9557 58.451,37.9447 57.66,37.9337 C53.735,37.8797 50.345,37.8327 48.869,39.2887 C48.256,39.8937 47.958,40.7807 47.958,41.9987 C47.958,43.2727 48.274,44.2057 48.924,44.8527 C50.51,46.4297 54.156,46.4117 58.378,46.3897 C58.891,46.3867 59.416,46.3847 59.948,46.3847 M56.899,47.8947 C52.859,47.8947 49.677,47.7177 47.866,45.9157 C46.919,44.9737 46.458,43.6927 46.458,41.9987 C46.458,40.3587 46.902,39.1227 47.816,38.2207 C49.739,36.3237 53.244,36.3727 57.68,36.4337 C58.467,36.4447 59.28,36.4557 60.108,36.4557 C60.936,36.4557 61.749,36.4447 62.535,36.4337 C66.971,36.3727 70.476,36.3237 72.399,38.2207 C73.313,39.1227 73.758,40.3587 73.758,41.9987 C73.758,43.6307 73.285,44.9287 72.351,45.8567 C70.263,47.9347 66.208,47.9137 61.511,47.8897 C60.484,47.8847 59.407,47.8847 58.386,47.8897 C57.879,47.8927 57.383,47.8947 56.899,47.8947" id="Fill-245" fill="#354546" mask="url(#mask-4)"></path>
                <path d="M51.9714,47.6357 L51.9504,47.6357 C51.5364,47.6237 51.2104,47.2787 51.2214,46.8647 L51.4904,37.2807 C51.5014,36.8657 51.8464,36.5417 52.2604,36.5517 C52.6744,36.5637 53.0004,36.9077 52.9894,37.3227 L52.7214,46.9067 C52.7094,47.3137 52.3764,47.6357 51.9714,47.6357" id="Fill-246" fill="#354546" mask="url(#mask-4)"></path>
                <path d="M59.4988,47.8847 L59.4858,47.8847 C59.0718,47.8777 58.7418,47.5367 58.7488,47.1227 L58.9078,37.1947 C58.9148,36.7837 59.2488,36.4557 59.6578,36.4557 C59.6618,36.4557 59.6658,36.4557 59.6698,36.4567 C60.0838,36.4627 60.4148,36.8037 60.4078,37.2177 L60.2478,47.1467 C60.2418,47.5567 59.9068,47.8847 59.4988,47.8847" id="Fill-247" fill="#354546" mask="url(#mask-4)"></path>
                <path d="M66.9558,47.7646 L66.9378,47.7646 C66.5238,47.7546 66.1958,47.4116 66.2058,46.9976 L66.4328,37.1886 C66.4408,36.7746 66.7868,36.4476 67.1988,36.4566 C67.6128,36.4656 67.9408,36.8096 67.9318,37.2236 L67.7058,47.0326 C67.6958,47.4406 67.3618,47.7646 66.9558,47.7646" id="Fill-248" fill="#354546" mask="url(#mask-4)"></path>
            </g>
        </g>
    </g>
</svg>