<?xml version="1.0" encoding="UTF-8"?>
<svg width="104px" height="122px" viewBox="0 0 104 122" version="1.1" xmlns="http://www.w3.org/2000/svg" xmlns:xlink="http://www.w3.org/1999/xlink">
    <!-- Generator: Sketch 42 (36781) - http://www.bohemiancoding.com/sketch -->
    <title>19</title>
    <desc>Created with Sketch.</desc>
    <defs>
        <polygon id="path-1" points="63.9742 8 0.7072 8 0.7072 0.3769 63.9742 0.3769 63.9742 8"></polygon>
        <polygon id="path-3" points="0 122.041 103.334 122.041 103.334 0 0 0"></polygon>
    </defs>
    <g id="Page-1" stroke="none" stroke-width="1" fill="none" fill-rule="evenodd">
        <g id="1024" transform="translate(-97.000000, -123.000000)">
            <g id="19" transform="translate(97.000000, 123.000000)">
                <g id="Group-3" transform="translate(23.000000, 114.041000)">
                    <mask id="mask-2" fill="white">
                        <use xlink:href="#path-1"></use>
                    </mask>
                    <g id="Clip-2"></g>
                    <path d="M63.9742,4.1889 C63.9742,6.2929 49.8112,8.0009 32.3412,8.0009 C14.8702,8.0009 0.7072,6.2929 0.7072,4.1889 C0.7072,2.0849 14.8702,0.3769 32.3412,0.3769 C49.8112,0.3769 63.9742,2.0849 63.9742,4.1889" id="Fill-1" fill="#CCCCCC" mask="url(#mask-2)"></path>
                </g>
                <mask id="mask-4" fill="white">
                    <use xlink:href="#path-3"></use>
                </mask>
                <g id="Clip-5"></g>
                <polygon id="Fill-4" fill="#758586" mask="url(#mask-4)" points="46.958 87.554 63.077 87.554 63.077 75.948 46.958 75.948"></polygon>
                <path d="M47.708,86.804 L62.327,86.804 L62.327,76.698 L47.708,76.698 L47.708,86.804 Z M63.077,88.304 L46.958,88.304 C46.544,88.304 46.208,87.968 46.208,87.554 L46.208,75.948 C46.208,75.534 46.544,75.198 46.958,75.198 L63.077,75.198 C63.491,75.198 63.827,75.534 63.827,75.948 L63.827,87.554 C63.827,87.968 63.491,88.304 63.077,88.304 L63.077,88.304 Z" id="Fill-6" fill="#354546" mask="url(#mask-4)"></path>
                <polygon id="Fill-7" fill="#758586" mask="url(#mask-4)" points="50.619 61.398 59.961 61.398 59.961 52.895 50.619 52.895"></polygon>
                <path d="M51.369,60.648 L59.211,60.648 L59.211,53.645 L51.369,53.645 L51.369,60.648 Z M59.961,62.148 L50.619,62.148 C50.204,62.148 49.869,61.812 49.869,61.398 L49.869,52.895 C49.869,52.48 50.204,52.145 50.619,52.145 L59.961,52.145 C60.375,52.145 60.711,52.48 60.711,52.895 L60.711,61.398 C60.711,61.812 60.375,62.148 59.961,62.148 L59.961,62.148 Z" id="Fill-8" fill="#354546" mask="url(#mask-4)"></path>
                <path d="M59.9615,58.3979 C59.9475,58.3979 59.9345,58.3979 59.9205,58.3969 L50.5785,57.8959 C50.1645,57.8729 49.8475,57.5199 49.8695,57.1059 C49.8915,56.6919 50.2465,56.3739 50.6585,56.3979 L60.0015,56.8989 C60.4145,56.9209 60.7325,57.2739 60.7105,57.6879 C60.6885,58.0879 60.3575,58.3979 59.9615,58.3979" id="Fill-9" fill="#354546" mask="url(#mask-4)"></path>
                <path d="M16.0997,57.7534 C15.9287,56.9124 15.7787,56.0684 15.6417,55.2204 C15.5727,54.7974 15.5097,54.3714 15.4497,53.9444 L15.3637,53.2984 L15.3237,52.9714 L15.2847,52.6234 L19.9797,52.1524 L20.0457,52.7104 L20.1227,53.2944 C20.1787,53.6864 20.2367,54.0794 20.3007,54.4724 C20.4277,55.2574 20.5677,56.0434 20.7257,56.8244 L16.0997,57.7534 Z" id="Fill-10" fill="#F9BF3B" mask="url(#mask-4)"></path>
                <path d="M19.9908,56.9736 C19.8398,56.2296 19.6988,55.4516 19.5598,54.5916 C19.5018,54.2336 19.4448,53.8546 19.3808,53.3996 L19.3028,52.8076 L19.2348,52.2406 L20.7248,52.0646 L20.7908,52.6216 L20.8658,53.1956 C20.9278,53.6346 20.9838,54.0036 21.0408,54.3516 C21.1768,55.1916 21.3138,55.9516 21.4608,56.6756 L19.9908,56.9736 Z" id="Fill-11" fill="#F1892D" mask="url(#mask-4)"></path>
                <path d="M15.3648,57.9023 C15.2008,57.0983 15.0498,56.2593 14.9008,55.3403 C14.8388,54.9543 14.7748,54.5323 14.7068,54.0483 L14.5398,52.7073 L16.0308,52.5403 L16.1088,53.2073 L16.1928,53.8453 C16.2588,54.3123 16.3208,54.7253 16.3818,55.1003 C16.5278,56.0003 16.6758,56.8193 16.8348,57.6043 L15.3648,57.9023 Z" id="Fill-12" fill="#F1892D" mask="url(#mask-4)"></path>
                <polygon id="Fill-13" fill="#F1892D" mask="url(#mask-4)" points="15.7603 55.9614 15.5223 54.4804 20.1813 53.7324 20.4193 55.2124"></polygon>
                <path d="M17.3267,62.7729 C16.8407,61.1089 16.4387,59.4359 16.0997,57.7529 L20.7257,56.8239 C21.0407,58.3859 21.4127,59.9339 21.8547,61.4469 L17.3267,62.7729 Z" id="Fill-14" fill="#F9BF3B" mask="url(#mask-4)"></path>
                <path d="M21.1353,61.6572 C20.7063,60.1912 20.3213,58.6152 19.9903,56.9722 L21.4613,56.6762 C21.7833,58.2772 22.1583,59.8112 22.5743,61.2362 L21.1353,61.6572 Z" id="Fill-15" fill="#F1892D" mask="url(#mask-4)"></path>
                <path d="M16.6065,62.9829 C16.1335,61.3639 15.7275,59.7019 15.3645,57.9009 L16.8355,57.6059 C17.1895,59.3629 17.5855,60.9849 18.0465,62.5619 L16.6065,62.9829 Z" id="Fill-16" fill="#F1892D" mask="url(#mask-4)"></path>
                <polygon id="Fill-17" fill="#F1892D" mask="url(#mask-4)" points="16.836 60.999 16.481 59.541 21.065 58.425 21.42 59.883"></polygon>
                <path d="M19.0884,67.7212 C18.3864,66.0892 17.8174,64.4352 17.3264,62.7732 L21.8554,61.4472 C22.3004,62.9582 22.8124,64.4382 23.4194,65.8472 L19.0884,67.7212 Z" id="Fill-18" fill="#F9BF3B" mask="url(#mask-4)"></path>
                <path d="M22.73,66.144 C22.15,64.796 21.628,63.329 21.136,61.659 L22.574,61.235 C23.05,62.847 23.552,64.259 24.108,65.55 L22.73,66.144 Z" id="Fill-19" fill="#F1892D" mask="url(#mask-4)"></path>
                <path d="M18.3995,68.0175 C17.7425,66.4915 17.1565,64.8455 16.6075,62.9845 L18.0455,62.5605 C18.5775,64.3625 19.1445,65.9535 19.7775,67.4245 L18.3995,68.0175 Z" id="Fill-20" fill="#F1892D" mask="url(#mask-4)"></path>
                <polygon id="Fill-21" fill="#F1892D" mask="url(#mask-4)" points="18.3785 65.9653 17.8785 64.5513 22.3265 62.9783 22.8275 64.3923"></polygon>
                <path d="M21.729,72.4975 C20.639,70.9625 19.802,69.3495 19.088,67.7215 L23.419,65.8475 C24.032,67.2485 24.737,68.5845 25.564,69.7485 L21.729,72.4975 Z" id="Fill-22" fill="#F9BF3B" mask="url(#mask-4)"></path>
                <path d="M24.9527,70.1831 C24.1537,69.0581 23.4277,67.7391 22.7317,66.1471 L24.1067,65.5471 C24.7607,67.0421 25.4367,68.2751 26.1757,69.3141 L24.9527,70.1831 Z" id="Fill-23" fill="#F1892D" mask="url(#mask-4)"></path>
                <path d="M21.1177,72.9321 C20.1107,71.5131 19.2467,69.9531 18.4017,68.0221 L19.7757,67.4201 C20.5787,69.2551 21.3947,70.7311 22.3407,72.0641 L21.1177,72.9321 Z" id="Fill-24" fill="#F1892D" mask="url(#mask-4)"></path>
                <polygon id="Fill-25" fill="#F1892D" mask="url(#mask-4)" points="20.6265 70.8022 19.9085 69.4852 24.0525 67.2272 24.7705 68.5452"></polygon>
                <path d="M26.0997,76.5766 L25.7347,76.3646 C25.6137,76.2936 25.4877,76.2226 25.3887,76.1466 L24.7567,75.6936 C24.6487,75.6196 24.5527,75.5386 24.4567,75.4556 L24.1687,75.2086 C23.9777,75.0426 23.7817,74.8796 23.6137,74.7006 L23.0917,74.1736 C22.9257,73.9936 22.7727,73.8076 22.6137,73.6256 L22.3767,73.3486 C22.2997,73.2566 22.2317,73.1606 22.1587,73.0666 L21.7287,72.4976 L25.5637,69.7486 L25.8837,70.1696 C25.9367,70.2386 25.9877,70.3126 26.0437,70.3786 L26.2117,70.5726 C26.3247,70.7016 26.4337,70.8376 26.5487,70.9606 L26.8997,71.3146 C27.0137,71.4396 27.1387,71.5386 27.2607,71.6426 L27.4427,71.8016 C27.5027,71.8556 27.5627,71.9076 27.6277,71.9486 L28.0047,72.2206 C28.0677,72.2716 28.1247,72.2976 28.1827,72.3306 L28.3557,72.4296 L26.0997,76.5766 Z" id="Fill-26" fill="#F9BF3B" mask="url(#mask-4)"></path>
                <path d="M27.983,73.0805 L27.788,72.9695 C27.731,72.9385 27.647,72.8935 27.551,72.8175 L27.204,72.5675 C27.105,72.5035 27.022,72.4315 26.945,72.3625 L26.696,72.1465 C26.592,72.0595 26.475,71.9605 26.357,71.8325 L25.998,71.4705 C25.921,71.3875 25.846,71.2995 25.772,71.2115 C25.731,71.1635 25.69,71.1155 25.649,71.0685 L25.477,70.8695 C25.426,70.8095 25.382,70.7515 25.339,70.6925 C25.323,70.6715 25.307,70.6495 25.291,70.6295 L24.966,70.2015 L26.162,69.2955 L26.481,69.7165 C26.499,69.7395 26.522,69.7705 26.545,69.8015 C26.567,69.8325 26.59,69.8635 26.615,69.8925 L26.779,70.0815 C26.822,70.1315 26.869,70.1865 26.916,70.2415 C26.973,70.3095 27.031,70.3775 27.09,70.4415 L27.456,70.8115 C27.511,70.8725 27.582,70.9335 27.665,71.0025 L27.945,71.2445 C27.988,71.2835 28.017,71.3085 28.03,71.3155 L28.066,71.3405 L28.472,71.6345 C28.481,71.6395 28.49,71.6435 28.499,71.6475 L28.729,71.7785 L27.983,73.0805 Z" id="Fill-27" fill="#F1892D" mask="url(#mask-4)"></path>
                <path d="M25.7242,77.2251 L25.3012,76.9801 C25.1882,76.9141 25.0612,76.8391 24.9432,76.7501 L24.3192,76.3031 C24.1902,76.2141 24.0712,76.1141 23.9642,76.0211 L23.5992,75.7071 C23.4252,75.5571 23.2442,75.4011 23.0742,75.2221 L22.5412,74.6831 C22.4172,74.5481 22.3022,74.4131 22.1912,74.2841 C22.1432,74.2281 22.0962,74.1721 22.0472,74.1181 L21.8072,73.8361 C21.7432,73.7601 21.6882,73.6881 21.6342,73.6161 C21.6112,73.5851 21.5892,73.5561 21.5662,73.5271 L21.1312,72.9501 L22.3282,72.0461 L22.7572,72.6151 C22.7792,72.6421 22.8062,72.6781 22.8322,72.7131 C22.8712,72.7651 22.9102,72.8171 22.9522,72.8681 L23.1832,73.1371 C23.2302,73.1911 23.2802,73.2501 23.3302,73.3091 C23.4302,73.4251 23.5292,73.5411 23.6342,73.6551 L24.1592,74.1871 C24.2772,74.3121 24.4232,74.4381 24.5782,74.5711 L24.9452,74.8861 C25.0362,74.9641 25.1082,75.0251 25.1822,75.0771 L25.8432,75.5511 C25.8912,75.5871 25.9762,75.6371 26.0582,75.6861 L26.4752,75.9271 L25.7242,77.2251 Z" id="Fill-28" fill="#F1892D" mask="url(#mask-4)"></path>
                <polygon id="Fill-29" fill="#F1892D" mask="url(#mask-4)" points="24.1514 75.2231 23.0754 74.1781 26.3614 70.7921 27.4384 71.8371"></polygon>
                <path d="M33.2256,75.4956 C32.8476,75.8036 32.4336,76.1136 31.9526,76.4086 C31.7066,76.5566 31.4566,76.6956 31.1566,76.8326 C31.0796,76.8666 31.0086,76.8996 30.9256,76.9326 L30.6706,77.0306 C30.4996,77.0926 30.3266,77.1466 30.1506,77.1926 C29.4486,77.3766 28.7096,77.4176 27.9956,77.2966 C27.6386,77.2326 27.2886,77.1356 26.9506,77.0016 C26.8656,76.9716 26.7836,76.9316 26.7006,76.8936 L26.5766,76.8376 L26.5156,76.8086 L26.4676,76.7826 L26.0996,76.5766 L28.3556,72.4296 L28.5256,72.5326 L28.5456,72.5446 L28.5536,72.5486 L28.5706,72.5576 C28.5816,72.5616 28.5926,72.5676 28.6046,72.5716 C28.6506,72.5926 28.6996,72.6036 28.7476,72.6136 C28.8466,72.6286 28.9486,72.6256 29.0446,72.5986 C29.0676,72.5896 29.0916,72.5826 29.1156,72.5736 C29.1266,72.5686 29.1386,72.5636 29.1506,72.5606 C29.1636,72.5566 29.1856,72.5436 29.2036,72.5366 C29.2796,72.5036 29.3926,72.4416 29.5016,72.3766 C29.7256,72.2386 29.9776,72.0566 30.2416,71.8406 L33.2256,75.4956 Z" id="Fill-30" fill="#F9BF3B" mask="url(#mask-4)"></path>
                <path d="M28.9082,71.8872 L28.9102,71.8882 C28.9102,71.8872 28.9092,71.8872 28.9082,71.8872 M28.8642,73.3722 C28.7892,73.3722 28.7132,73.3672 28.6372,73.3562 L28.5922,73.3472 C28.5132,73.3302 28.4212,73.3082 28.3222,73.2672 C28.2992,73.2572 28.2762,73.2472 28.2532,73.2362 L28.1282,73.1682 L27.9662,73.0712 L28.7452,71.7882 L28.8702,71.8652 C28.8702,71.8642 28.8712,71.8642 28.8722,71.8642 C28.8842,71.8582 28.8962,71.8522 28.9072,71.8472 C28.9362,71.8342 29.0132,71.7952 29.1122,71.7352 C29.3022,71.6182 29.5302,71.4532 29.7662,71.2602 L30.7162,72.4212 C30.4232,72.6602 30.1462,72.8612 29.8932,73.0162 C29.8062,73.0682 29.6462,73.1622 29.5042,73.2242 C29.4662,73.2422 29.4312,73.2562 29.4042,73.2672 L29.3842,73.2742 L29.3062,73.3012 L29.2532,73.3192 C29.1272,73.3552 28.9972,73.3722 28.8642,73.3722" id="Fill-31" fill="#F1892D" mask="url(#mask-4)"></path>
                <path d="M28.8208,78.1147 C28.4998,78.1147 28.1808,78.0887 27.8698,78.0357 C27.4608,77.9637 27.0638,77.8517 26.6848,77.7037 C26.6098,77.6757 26.5358,77.6427 26.4628,77.6097 L26.1098,77.4417 L25.7328,77.2297 L26.4668,75.9227 L26.8948,76.1587 L27.0808,76.2437 C27.1218,76.2617 27.1628,76.2807 27.2048,76.2967 L27.2258,76.3037 C27.5138,76.4187 27.8168,76.5037 28.1258,76.5577 C28.7158,76.6577 29.3518,76.6267 29.9608,76.4677 C30.1068,76.4287 30.2568,76.3827 30.4098,76.3277 L30.6568,76.2327 C30.6968,76.2177 30.7428,76.1957 30.7888,76.1757 L30.8508,76.1467 C31.0818,76.0427 31.2968,75.9277 31.5648,75.7657 C31.9508,75.5297 32.3298,75.2587 32.7518,74.9147 L33.6988,76.0777 C33.2228,76.4657 32.7928,76.7727 32.3438,77.0487 C32.1258,77.1787 31.8338,77.3477 31.4658,77.5147 L31.4068,77.5427 C31.3418,77.5717 31.2778,77.5997 31.2058,77.6297 L30.9248,77.7367 C30.7268,77.8077 30.5288,77.8697 30.3398,77.9187 C29.8418,78.0497 29.3288,78.1147 28.8208,78.1147" id="Fill-32" fill="#F1892D" mask="url(#mask-4)"></path>
                <polygon id="Fill-33" fill="#F1892D" mask="url(#mask-4)" points="29.4214 77.3686 28.3154 72.7736 29.7734 72.4226 30.8794 77.0166"></polygon>
                <path d="M36.9454,72.0258 C36.3774,72.5418 35.8074,73.0998 35.2064,73.6838 C34.6034,74.2668 33.9764,74.8798 33.2254,75.4958 L30.2414,71.8398 C30.7704,71.4078 31.3344,70.8668 31.9194,70.2988 C32.5054,69.7298 33.1164,69.1288 33.7734,68.5328 L36.9454,72.0258 Z" id="Fill-34" fill="#F9BF3B" mask="url(#mask-4)"></path>
                <path d="M30.7164,72.4214 L29.7664,71.2604 C30.2744,70.8454 30.8274,70.3144 31.3964,69.7614 L31.6124,69.5514 C32.1394,69.0384 32.6834,68.5094 33.2684,67.9774 L34.2774,69.0874 C33.7114,69.6024 33.1754,70.1224 32.6584,70.6264 L32.4414,70.8374 C31.8484,71.4134 31.2694,71.9684 30.7164,72.4214" id="Fill-35" fill="#F1892D" mask="url(#mask-4)"></path>
                <path d="M33.7022,76.0747 L32.7492,74.9167 C33.4472,74.3437 34.0392,73.7687 34.6132,73.2147 L34.8622,72.9717 C35.4062,72.4427 35.9202,71.9437 36.4412,71.4707 L37.4492,72.5807 C36.9472,73.0367 36.4422,73.5277 35.9082,74.0477 L35.6562,74.2927 C35.0612,74.8677 34.4462,75.4637 33.7022,76.0747" id="Fill-36" fill="#F1892D" mask="url(#mask-4)"></path>
                <polygon id="Fill-37" fill="#F1892D" mask="url(#mask-4)" points="34.6685 74.2065 31.3805 70.8215 32.4575 69.7765 35.7445 73.1615"></polygon>
                <path d="M40.3824,69.6186 C39.2154,70.1336 38.0784,70.9956 36.9454,72.0256 L33.7734,68.5326 C34.4304,67.9356 35.1344,67.3426 35.9094,66.7886 C36.6824,66.2356 37.5314,65.7226 38.4624,65.3086 L40.3824,69.6186 Z" id="Fill-38" fill="#F9BF3B" mask="url(#mask-4)"></path>
                <path d="M34.2774,69.0874 L33.2694,67.9764 C34.0594,67.2604 34.7594,66.6894 35.4734,66.1784 C36.3564,65.5464 37.2594,65.0234 38.1574,64.6234 L38.7674,65.9944 C37.9624,66.3524 37.1474,66.8244 36.3454,67.3984 C35.6804,67.8744 35.0234,68.4104 34.2774,69.0874" id="Fill-39" fill="#F1892D" mask="url(#mask-4)"></path>
                <path d="M37.4498,72.5805 L36.4408,71.4705 C37.8018,70.2335 38.9578,69.4275 40.0798,68.9335 L40.6848,70.3055 C39.7148,70.7325 38.6868,71.4555 37.4498,72.5805" id="Fill-40" fill="#F1892D" mask="url(#mask-4)"></path>
                <polygon id="Fill-41" fill="#F1892D" mask="url(#mask-4)" points="38.0406 71.0649 35.2986 67.2249 36.5196 66.3529 39.2616 70.1929"></polygon>
                <path d="M43.9703,69.0805 C42.7223,68.9235 41.5463,69.0965 40.3823,69.6185 L38.4623,65.3085 C39.3903,64.8935 40.4023,64.5815 41.4453,64.4285 C42.4873,64.2685 43.5493,64.2725 44.5683,64.3995 L43.9703,69.0805 Z" id="Fill-42" fill="#F9BF3B" mask="url(#mask-4)"></path>
                <path d="M38.7686,65.9931 L38.1566,64.6241 C39.1976,64.1591 40.2676,63.8431 41.3356,63.6861 C42.3956,63.5231 43.5166,63.5131 44.6606,63.6551 L44.4756,65.1441 C43.4686,65.0181 42.4876,65.0271 41.5586,65.1701 C40.6206,65.3071 39.6836,65.5841 38.7686,65.9931" id="Fill-43" fill="#F1892D" mask="url(#mask-4)"></path>
                <path d="M40.6895,70.3032 L40.0755,68.9352 C41.3645,68.3562 42.6695,68.1602 44.0645,68.3362 L43.8765,69.8242 C42.7625,69.6842 41.7205,69.8402 40.6895,70.3032" id="Fill-44" fill="#F1892D" mask="url(#mask-4)"></path>
                <polygon id="Fill-45" fill="#F1892D" mask="url(#mask-4)" points="41.4034 69.2065 40.7034 64.5395 42.1864 64.3175 42.8864 68.9835"></polygon>
                <path d="M93.981,67.2905 C94.089,66.4435 94.173,65.5965 94.227,64.7455 C94.256,64.3205 94.276,63.8945 94.291,63.4645 C94.298,63.2495 94.303,63.0355 94.306,62.8165 L94.309,62.4865 L94.306,62.1265 L89.589,62.2385 L89.59,62.4805 L89.588,62.7535 L89.575,63.3105 C89.562,63.6845 89.544,64.0615 89.519,64.4375 C89.471,65.1905 89.396,65.9435 89.301,66.6905 L93.981,67.2905 Z" id="Fill-46" fill="#F9BF3B" mask="url(#mask-4)"></path>
                <path d="M90.0445,66.7856 L88.5565,66.5956 C88.6535,65.8386 88.7255,65.0966 88.7705,64.3896 C88.7935,64.0566 88.8115,63.6966 88.8255,63.2846 L88.8405,62.4746 L88.8385,62.2436 L90.3385,62.2346 L90.3405,62.4766 L90.3375,62.7606 L90.3245,63.3276 C90.3095,63.7656 90.2905,64.1416 90.2675,64.4886 C90.2205,65.2236 90.1455,65.9966 90.0445,66.7856" id="Fill-47" fill="#F1892D" mask="url(#mask-4)"></path>
                <path d="M94.7251,67.3857 L93.2371,67.1957 C93.3461,66.3417 93.4271,65.5007 93.4781,64.6977 C93.5051,64.3147 93.5251,63.9037 93.5411,63.4387 C93.5481,63.2307 93.5531,63.0197 93.5561,62.8067 L93.5581,62.4807 L93.5561,62.1327 L95.0561,62.1207 L95.0581,62.4807 L95.0561,62.8227 C95.0531,63.0497 95.0481,63.2697 95.0401,63.4897 C95.0231,63.9727 95.0021,64.3997 94.9751,64.7967 C94.9221,65.6277 94.8381,66.4997 94.7251,67.3857" id="Fill-48" fill="#F1892D" mask="url(#mask-4)"></path>
                <polygon id="Fill-49" fill="#F1892D" mask="url(#mask-4)" points="94.1783 65.4941 89.4703 65.1851 89.5683 63.6891 94.2763 63.9971"></polygon>
                <path d="M92.9644,72.3579 C93.4434,70.6749 93.7614,68.9839 93.9814,67.2909 L89.3004,66.6909 C89.1074,68.1849 88.8274,69.6609 88.4254,71.0689 L92.9644,72.3579 Z" id="Fill-50" fill="#F9BF3B" mask="url(#mask-4)"></path>
                <path d="M89.1465,71.2749 L87.7045,70.8639 C88.0685,69.5879 88.3545,68.1509 88.5575,66.5939 L90.0445,66.7869 C89.8335,68.4179 89.5315,69.9269 89.1465,71.2749" id="Fill-51" fill="#F1892D" mask="url(#mask-4)"></path>
                <path d="M93.6856,72.5639 L92.2436,72.1529 C92.6766,70.6299 93.0016,69.0079 93.2376,67.1939 L94.7246,67.3869 C94.4796,69.2759 94.1396,70.9689 93.6856,72.5639" id="Fill-52" fill="#F1892D" mask="url(#mask-4)"></path>
                <polygon id="Fill-53" fill="#F1892D" mask="url(#mask-4)" points="93.4239 70.5639 88.7959 69.6469 89.0869 68.1759 93.7159 69.0919"></polygon>
                <path d="M90.9483,77.3305 C91.4043,76.5245 91.7863,75.7005 92.1153,74.8695 C92.4453,74.0375 92.7243,73.1995 92.9643,72.3575 L88.4253,71.0685 C88.2243,71.7735 87.9943,72.4615 87.7313,73.1235 C87.4693,73.7875 87.1733,74.4235 86.8363,75.0175 L90.9483,77.3305 Z" id="Fill-54" fill="#F9BF3B" mask="url(#mask-4)"></path>
                <path d="M87.4878,75.3872 L86.1838,74.6462 C86.4898,74.1082 86.7758,73.5022 87.0338,72.8492 C87.2798,72.2282 87.5048,71.5612 87.7038,70.8642 L89.1468,71.2752 C88.9338,72.0202 88.6928,72.7352 88.4288,73.4002 C88.1458,74.1182 87.8288,74.7872 87.4878,75.3872" id="Fill-55" fill="#F1892D" mask="url(#mask-4)"></path>
                <path d="M91.6011,77.6997 L90.2961,76.9607 C90.7111,76.2267 91.0781,75.4537 91.4181,74.5937 C91.7231,73.8257 92.0001,73.0047 92.2431,72.1527 L93.6851,72.5637 C93.4291,73.4637 93.1351,74.3327 92.8121,75.1457 C92.4471,76.0697 92.0511,76.9057 91.6011,77.6997" id="Fill-56" fill="#F1892D" mask="url(#mask-4)"></path>
                <polygon id="Fill-57" fill="#F1892D" mask="url(#mask-4)" points="91.8379 75.5659 87.4539 73.8209 88.0089 72.4269 92.3929 74.1719"></polygon>
                <path d="M87.5791,81.645 C88.2421,80.992 88.8301,80.326 89.3731,79.652 L89.4761,79.526 L89.5841,79.386 L89.8011,79.1 C89.9491,78.912 90.0811,78.716 90.2121,78.521 L90.4101,78.228 C90.4751,78.129 90.5331,78.03 90.5941,77.93 C90.7141,77.731 90.8411,77.533 90.9481,77.331 L86.8361,75.017 C86.7571,75.17 86.6631,75.309 86.5771,75.455 C86.5331,75.526 86.4911,75.6 86.4451,75.669 L86.3051,75.875 C86.2131,76.014 86.1201,76.152 86.0191,76.279 L85.8711,76.474 C85.8461,76.507 85.8251,76.538 85.7961,76.573 L85.7081,76.679 C85.2441,77.257 84.7621,77.795 84.2811,78.27 L87.5791,81.645 Z" id="Fill-58" fill="#F9BF3B" mask="url(#mask-4)"></path>
                <path d="M84.8082,78.8042 L83.7542,77.7372 C84.2132,77.2832 84.6742,76.7692 85.1232,76.2092 L85.2182,76.0952 C85.2252,76.0862 85.2332,76.0752 85.2422,76.0642 L85.4332,75.8102 C85.5172,75.7052 85.6042,75.5752 85.6812,75.4592 L85.8252,75.2472 C85.8412,75.2232 85.8632,75.1862 85.8852,75.1502 C85.9032,75.1192 85.9212,75.0892 85.9392,75.0602 C85.9622,75.0212 85.9942,74.9702 86.0252,74.9192 C86.0782,74.8322 86.1292,74.7502 86.1692,74.6732 L87.5022,75.3602 C87.4362,75.4902 87.3642,75.6062 87.3012,75.7082 C87.2742,75.7502 87.2482,75.7932 87.2232,75.8362 L87.1722,75.9202 C87.1392,75.9752 87.1062,76.0292 87.0722,76.0812 L86.9252,76.2972 C86.8422,76.4222 86.7332,76.5852 86.6122,76.7392 L86.4482,76.9562 C86.4262,76.9862 86.4032,77.0152 86.3772,77.0472 L86.2862,77.1582 C85.8082,77.7532 85.3082,78.3102 84.8082,78.8042" id="Fill-59" fill="#F1892D" mask="url(#mask-4)"></path>
                <path d="M88.106,82.1792 L87.053,81.1112 C87.648,80.5232 88.216,79.8922 88.789,79.1812 L88.99,78.9282 L89.203,78.6482 C89.345,78.4662 89.471,78.2802 89.589,78.1042 L89.789,77.8082 C89.82,77.7592 89.856,77.7002 89.891,77.6422 L89.957,77.5352 C89.985,77.4872 90.021,77.4292 90.056,77.3712 C90.14,77.2352 90.219,77.1052 90.285,76.9812 L91.612,77.6802 C91.523,77.8472 91.428,78.0032 91.335,78.1552 L91.237,78.3162 L91.174,78.4202 C91.129,78.4922 91.085,78.5662 91.038,78.6382 L90.834,78.9412 C90.702,79.1372 90.558,79.3502 90.392,79.5632 L89.952,80.1282 C89.348,80.8782 88.743,81.5502 88.106,82.1792" id="Fill-60" fill="#F1892D" mask="url(#mask-4)"></path>
                <polygon id="Fill-61" fill="#F1892D" mask="url(#mask-4)" points="88.9004 80.2348 85.2354 77.2618 86.1804 76.0968 89.8454 79.0698"></polygon>
                <path d="M80.9488,83.893 C81.5898,84.147 82.2898,84.242 82.9768,84.177 C83.6648,84.115 84.3368,83.899 84.9688,83.593 C85.2778,83.435 85.6108,83.248 85.8298,83.092 C85.9508,83.011 86.0768,82.926 86.1908,82.844 L86.4928,82.609 C86.6998,82.453 86.8778,82.291 87.0598,82.131 C87.2478,81.971 87.4108,81.808 87.5788,81.645 L84.2818,78.27 C84.1608,78.387 84.0408,78.509 83.9208,78.608 C83.8018,78.712 83.6828,78.823 83.5678,78.907 L83.3948,79.043 L83.2578,79.134 C83.1508,79.213 83.1318,79.22 83.0858,79.247 C82.9988,79.29 82.9078,79.327 82.8118,79.341 C82.7158,79.356 82.6158,79.34 82.5268,79.303 L80.9488,83.893 Z" id="Fill-62" fill="#F9BF3B" mask="url(#mask-4)"></path>
                <path d="M82.754,78.5971 L82.792,78.6711 L82.817,78.6121 C82.796,78.6031 82.774,78.5981 82.754,78.5971 M82.737,80.0971 C82.57,80.0971 82.399,80.0631 82.237,79.9951 L82.775,78.7121 L82.708,78.5981 L82.709,78.5981 C82.705,78.5981 82.701,78.5991 82.697,78.6001 C82.7,78.5991 82.711,78.5951 82.733,78.5841 L82.743,78.5781 C82.755,78.5721 82.764,78.5671 82.814,78.5301 L83.127,78.3001 C83.191,78.2531 83.271,78.1821 83.356,78.1071 L83.442,78.0311 C83.512,77.9731 83.592,77.8941 83.678,77.8111 L83.76,77.7311 L84.802,78.8101 L84.726,78.8841 C84.626,78.9821 84.523,79.0821 84.41,79.1771 L84.351,79.2301 C84.247,79.3221 84.139,79.4161 84.022,79.5031 L83.811,79.6671 L83.688,79.7491 C83.582,79.8261 83.529,79.8581 83.476,79.8871 L83.426,79.9141 C83.251,80.0041 83.084,80.0591 82.918,80.0831 C82.858,80.0921 82.798,80.0971 82.737,80.0971" id="Fill-63" fill="#F1892D" mask="url(#mask-4)"></path>
                <path d="M82.5611,84.9467 C81.9141,84.9467 81.2691,84.8257 80.6731,84.5917 L81.2251,83.1957 C81.7491,83.4027 82.3321,83.4847 82.9071,83.4297 C83.4571,83.3817 84.0371,83.2107 84.6341,82.9227 C84.9591,82.7547 85.2361,82.5937 85.3941,82.4817 L85.4381,82.4517 C85.5401,82.3837 85.6451,82.3117 85.7431,82.2427 L86.0311,82.0177 C86.2011,81.8887 86.3471,81.7597 86.5011,81.6237 L86.5641,81.5687 C86.7111,81.4427 86.8371,81.3197 86.9721,81.1897 L87.0581,81.1057 L88.1011,82.1837 L88.0181,82.2647 C87.8721,82.4067 87.7221,82.5517 87.5471,82.7017 L87.4951,82.7477 C87.3261,82.8967 87.1511,83.0507 86.9451,83.2077 L86.6281,83.4537 C86.5161,83.5337 86.3941,83.6157 86.2761,83.6957 L86.2561,83.7097 C85.9771,83.9077 85.5891,84.1177 85.3111,84.2597 L85.2951,84.2687 C84.5321,84.6377 83.7751,84.8577 83.0441,84.9247 C82.8841,84.9387 82.7221,84.9467 82.5611,84.9467" id="Fill-64" fill="#F1892D" mask="url(#mask-4)"></path>
                <polygon id="Fill-65" fill="#F1892D" mask="url(#mask-4)" points="84.2803 83.8921 82.3973 79.5441 83.7733 78.9491 85.6563 83.2951"></polygon>
                <path d="M76.7569,78.7983 C76.9299,79.1953 77.1109,79.5973 77.3189,80.0093 C77.5189,80.4173 77.7559,80.8403 78.0239,81.2693 L78.2379,81.5943 L78.2659,81.6353 L78.3019,81.6863 L78.3759,81.7863 L78.5259,81.9853 C78.6219,82.1143 78.7379,82.2493 78.8559,82.3813 C78.9719,82.5143 79.0909,82.6433 79.2199,82.7613 C79.7229,83.2483 80.3059,83.6443 80.9489,83.8933 L82.5269,79.3033 C82.4379,79.2653 82.3609,79.2033 82.2939,79.1333 C82.2759,79.1163 82.2599,79.0983 82.2449,79.0793 C82.2299,79.0613 82.2149,79.0443 82.1919,79.0133 L82.1609,78.9703 L82.1459,78.9493 L82.1379,78.9393 L82.1239,78.9173 L82.0069,78.7383 C81.6909,78.2373 81.3789,77.5993 81.0859,76.9193 L76.7569,78.7983 Z" id="Fill-66" fill="#F9BF3B" mask="url(#mask-4)"></path>
                <path d="M82.231,79.9926 C82.062,79.9196 81.903,79.8076 81.761,79.6616 C81.729,79.6296 81.699,79.5966 81.67,79.5616 C81.645,79.5306 81.619,79.5016 81.582,79.4476 L81.494,79.3236 L81.379,79.1506 C81.062,78.6466 80.743,78.0176 80.397,77.2176 L81.773,76.6216 C82.085,77.3416 82.377,77.9186 82.641,78.3396 L82.795,78.5676 L82.207,79.0326 L82.805,78.5806 L82.835,78.6146 C82.84,78.6196 82.845,78.6246 82.85,78.6296 C82.85,78.6286 82.841,78.6216 82.823,78.6146 L82.231,79.9926 Z" id="Fill-67" fill="#F1892D" mask="url(#mask-4)"></path>
                <path d="M80.6783,84.5923 C79.9683,84.3183 79.3043,83.8853 78.7053,83.3073 C78.5483,83.1623 78.4083,83.0093 78.2933,82.8773 C78.1863,82.7573 78.0443,82.5953 77.9233,82.4323 L77.6153,82.0123 L77.3873,81.6663 C77.1063,81.2163 76.8563,80.7693 76.6453,80.3393 C76.4163,79.8843 76.2173,79.4363 76.0693,79.0983 L77.4443,78.4983 C77.5933,78.8383 77.7733,79.2443 77.9893,79.6713 C78.1793,80.0613 78.4033,80.4593 78.6553,80.8643 L78.9803,81.3423 L79.1243,81.5333 C79.2133,81.6543 79.3263,81.7823 79.4153,81.8833 C79.5143,81.9943 79.6183,82.1093 79.7263,82.2083 L79.7413,82.2233 C80.1983,82.6643 80.6953,82.9903 81.2193,83.1943 L80.6783,84.5923 Z" id="Fill-68" fill="#F1892D" mask="url(#mask-4)"></path>
                <polygon id="Fill-69" fill="#F1892D" mask="url(#mask-4)" points="78.4263 81.9028 77.6213 80.6358 81.6043 78.1058 82.4083 79.3718"></polygon>
                <path d="M74.9478,74.2846 C75.5378,75.7046 76.0758,77.2156 76.7568,78.7986 L81.0858,76.9196 C80.4938,75.5506 79.9498,74.0306 79.3088,72.4816 L74.9478,74.2846 Z" id="Fill-70" fill="#F9BF3B" mask="url(#mask-4)"></path>
                <path d="M80.3965,77.2173 C80.0635,76.4463 79.7525,75.6473 79.4225,74.8003 C79.1655,74.1373 78.8985,73.4523 78.6155,72.7693 L80.0015,72.1963 C80.2905,72.8943 80.5605,73.5863 80.8205,74.2553 C81.1455,75.0893 81.4515,75.8763 81.7735,76.6223 L80.3965,77.2173 Z" id="Fill-71" fill="#F1892D" mask="url(#mask-4)"></path>
                <path d="M76.0679,79.0942 C75.6749,78.1832 75.3319,77.2992 74.9999,76.4452 C74.7459,75.7932 74.5069,75.1772 74.2559,74.5732 L75.6399,73.9962 C75.8989,74.6172 76.1409,75.2402 76.3979,75.9012 C76.7249,76.7422 77.0639,77.6142 77.4449,78.5012 L76.0679,79.0942 Z" id="Fill-72" fill="#F1892D" mask="url(#mask-4)"></path>
                <polygon id="Fill-73" fill="#F1892D" mask="url(#mask-4)" points="76.0909 77.1792 75.5469 75.7822 79.9429 74.0692 80.4869 75.4662"></polygon>
                <path d="M72.9893,70.4848 C73.3623,71.0018 73.7063,71.6048 74.0293,72.2478 C74.3523,72.8908 74.6543,73.5758 74.9473,74.2848 L79.3083,72.4818 C78.9873,71.7068 78.6423,70.9188 78.2433,70.1268 C77.8433,69.3338 77.3963,68.5338 76.8303,67.7438 L72.9893,70.4848 Z" id="Fill-74" fill="#F9BF3B" mask="url(#mask-4)"></path>
                <path d="M78.6153,72.769 C78.2433,71.87 77.9123,71.137 77.5733,70.462 C77.1153,69.554 76.6853,68.83 76.2203,68.181 L77.4403,67.307 C77.9503,68.02 78.4193,68.808 78.9133,69.789 C79.2693,70.497 79.6153,71.261 80.0013,72.196 L78.6153,72.769 Z" id="Fill-75" fill="#F1892D" mask="url(#mask-4)"></path>
                <path d="M74.2549,74.5717 C73.9289,73.7837 73.6439,73.1517 73.3589,72.5847 C73.0169,71.9057 72.6969,71.3617 72.3809,70.9227 L73.5979,70.0467 C73.9609,70.5507 74.3209,71.1597 74.6989,71.9107 C75.0019,72.5117 75.2999,73.1757 75.6409,73.9977 L74.2549,74.5717 Z" id="Fill-76" fill="#F1892D" mask="url(#mask-4)"></path>
                <polygon id="Fill-77" fill="#F1892D" mask="url(#mask-4)" points="74.3663 72.9174 73.6913 71.5774 77.9063 69.4564 78.5813 70.7954"></polygon>
                <path d="M70.6304,68.6567 L70.7874,68.6887 C70.8374,68.7067 70.8874,68.7227 70.9384,68.7387 C70.9634,68.7467 70.9894,68.7527 71.0154,68.7607 L71.0884,68.7947 L71.2374,68.8547 C71.2864,68.8837 71.3354,68.9087 71.3844,68.9337 L71.4594,68.9717 L71.5324,69.0207 L71.6814,69.1137 L71.8284,69.2267 C72.2254,69.5217 72.6184,69.9697 72.9894,70.4847 L76.8304,67.7437 C76.6884,67.5467 76.5464,67.3497 76.3854,67.1557 C76.2344,66.9607 76.0624,66.7687 75.8904,66.5787 C75.7214,66.3867 75.5244,66.2037 75.3384,66.0187 L75.0324,65.7517 L74.8784,65.6187 L74.7124,65.4917 L74.3784,65.2417 L74.0194,65.0107 L73.8384,64.8967 L73.6474,64.7937 L73.2604,64.5917 C73.1264,64.5317 72.9904,64.4747 72.8544,64.4187 L72.6504,64.3347 C72.5814,64.3097 72.5104,64.2877 72.4404,64.2647 L72.0164,64.1337 C71.8734,64.0967 71.7294,64.0667 71.5854,64.0347 L70.6304,68.6567 Z" id="Fill-78" fill="#F9BF3B" mask="url(#mask-4)"></path>
                <path d="M76.2222,68.1821 C76.0732,67.9751 75.9482,67.8041 75.8072,67.6341 L75.7922,67.6151 C75.6552,67.4381 75.4912,67.2541 75.3342,67.0821 C75.2192,66.9521 75.0892,66.8251 74.9512,66.6911 L74.8282,66.5691 L74.4062,66.2021 L73.9502,65.8581 L73.4602,65.5451 L72.9332,65.2671 C72.8132,65.2141 72.6902,65.1621 72.5682,65.1121 L72.3812,65.0361 C72.3442,65.0221 72.3062,65.0101 72.2682,64.9981 L71.8122,64.8551 C71.7132,64.8301 71.6132,64.8081 71.5132,64.7871 L71.4252,64.7681 L71.7452,63.3031 L71.8292,63.3211 C71.9542,63.3481 72.0792,63.3751 72.2032,63.4071 L72.2392,63.4171 L72.7272,63.5701 C72.7872,63.5891 72.8472,63.6091 72.9072,63.6301 L72.9342,63.6401 L73.1382,63.7241 C73.2862,63.7861 73.4282,63.8451 73.5672,63.9081 L73.6072,63.9271 L74.2372,64.2621 L74.8272,64.6411 L75.3672,65.0501 L75.8662,65.4861 L75.9992,65.6171 C76.1502,65.7651 76.3062,65.9161 76.4522,66.0811 C76.6192,66.2661 76.8032,66.4711 76.9712,66.6871 C77.1382,66.8901 77.2822,67.0871 77.4392,67.3061 L76.2222,68.1821 Z" id="Fill-79" fill="#F1892D" mask="url(#mask-4)"></path>
                <path d="M72.3814,70.9233 C72.0184,70.4203 71.6824,70.0523 71.3814,69.8283 L71.2534,69.7313 L71.0464,69.6043 C70.9994,69.5793 70.9554,69.5563 70.9114,69.5313 L70.7524,69.4653 C70.7394,69.4623 70.7254,69.4573 70.7114,69.4533 C70.6744,69.4433 70.6314,69.4293 70.5864,69.4133 L70.4774,69.3903 L70.7834,67.9223 L71.0404,67.9833 C71.0774,67.9963 71.1144,68.0083 71.1524,68.0193 L71.1724,68.0253 C71.2024,68.0343 71.2334,68.0433 71.2624,68.0533 L71.3834,68.1043 L71.6094,68.2033 C71.6484,68.2253 71.6874,68.2463 71.7264,68.2673 L71.8744,68.3473 L72.1364,68.5183 L72.2844,68.6313 C72.7064,68.9443 73.1384,69.4093 73.5974,70.0453 L72.3814,70.9233 Z" id="Fill-80" fill="#F1892D" mask="url(#mask-4)"></path>
                <polygon id="Fill-81" fill="#F1892D" mask="url(#mask-4)" points="72.4219 69.685 71.2349 68.768 74.1189 65.034 75.3059 65.95"></polygon>
                <path d="M67.4463,69.2885 C68.0453,69.0105 68.6373,68.7985 69.1823,68.6875 L69.2853,68.6635 C69.3193,68.6575 69.3513,68.6545 69.3843,68.6495 L69.5803,68.6225 C69.6473,68.6085 69.7083,68.6085 69.7703,68.6055 L69.9563,68.5945 C70.0173,68.5915 70.0733,68.5995 70.1323,68.5995 C70.1903,68.6025 70.2513,68.5955 70.3053,68.6055 C70.4143,68.6255 70.5293,68.6245 70.6303,68.6565 L71.5853,64.0355 C71.2973,63.9655 71.0093,63.9415 70.7193,63.9065 C70.5743,63.8875 70.4343,63.8905 70.2903,63.8835 C70.1493,63.8805 70.0043,63.8725 69.8643,63.8765 L69.4483,63.8985 C69.3103,63.9065 69.1703,63.9135 69.0383,63.9345 L68.6383,63.9915 C68.5713,64.0015 68.5043,64.0095 68.4393,64.0215 L68.2473,64.0625 C67.2173,64.2735 66.2913,64.6225 65.4343,65.0205 L67.4463,69.2885 Z" id="Fill-82" fill="#F9BF3B" mask="url(#mask-4)"></path>
                <path d="M65.7496,65.7007 L65.1186,64.3407 C66.1776,63.8487 67.1236,63.5277 68.0976,63.3277 L68.3026,63.2837 C68.3566,63.2737 68.4126,63.2657 68.4686,63.2577 L68.9276,63.1937 C69.0826,63.1687 69.2356,63.1597 69.3716,63.1517 L69.8436,63.1267 C69.9656,63.1227 70.0816,63.1267 70.1926,63.1307 L70.3286,63.1347 C70.3686,63.1367 70.4076,63.1377 70.4476,63.1377 C70.5566,63.1407 70.6796,63.1447 70.8166,63.1627 L70.9796,63.1817 C71.2286,63.2097 71.4866,63.2397 71.7626,63.3067 L71.4086,64.7637 C71.2236,64.7197 71.0216,64.6967 70.8096,64.6717 L70.6286,64.6507 C70.5616,64.6417 70.4906,64.6397 70.4076,64.6377 C70.3586,64.6367 70.3106,64.6357 70.2616,64.6327 L70.1456,64.6297 C70.0616,64.6267 69.9776,64.6237 69.8946,64.6257 L69.4606,64.6487 C69.3476,64.6557 69.2416,64.6617 69.1576,64.6757 L69.1426,64.6777 L68.6816,64.7427 C68.6486,64.7477 68.6166,64.7517 68.5846,64.7577 L68.4046,64.7957 C67.5416,64.9727 66.7006,65.2597 65.7496,65.7007" id="Fill-83" fill="#F1892D" mask="url(#mask-4)"></path>
                <path d="M67.7623,69.9692 L67.1303,68.6092 C67.8103,68.2922 68.4473,68.0732 69.0233,67.9542 L69.1473,67.9272 C69.1853,67.9192 69.2213,67.9142 69.2583,67.9102 L69.4583,67.8822 C69.5613,67.8642 69.6483,67.8602 69.7073,67.8582 L69.9283,67.8442 C69.9873,67.8422 70.0433,67.8442 70.0993,67.8472 C70.1113,67.8482 70.1233,67.8492 70.1343,67.8492 L70.1883,67.8512 L70.1953,67.8502 C70.2483,67.8492 70.3373,67.8492 70.4413,67.8682 C70.4633,67.8722 70.4863,67.8742 70.5083,67.8762 C70.5973,67.8862 70.7203,67.8982 70.8543,67.9402 L70.4063,69.3712 C70.4123,69.3732 70.4183,69.3752 70.4243,69.3762 C70.4023,69.3722 70.3783,69.3712 70.3543,69.3682 C70.3053,69.3642 70.2563,69.3582 70.2073,69.3502 C70.1733,69.3512 70.1403,69.3502 70.1073,69.3492 C70.0763,69.3482 70.0473,69.3472 70.0173,69.3452 C70.0073,69.3442 69.9973,69.3442 69.9873,69.3432 L69.7653,69.3572 C69.7493,69.3582 69.7343,69.3582 69.7193,69.3602 L69.6863,69.3652 L69.4903,69.3932 C69.4733,69.3952 69.4533,69.3982 69.4343,69.4002 L69.4273,69.4012 L69.3323,69.4222 C68.8683,69.5172 68.3403,69.7002 67.7623,69.9692" id="Fill-84" fill="#F1892D" mask="url(#mask-4)"></path>
                <polygon id="Fill-85" fill="#F1892D" mask="url(#mask-4)" points="68.4478 68.8364 67.5128 64.2114 68.9828 63.9144 69.9178 68.5384"></polygon>
                <path d="M91.0474,53.6513 C89.3974,53.6143 88.0184,54.9343 87.9814,56.5843 L87.8794,62.4333 C87.8424,64.0833 89.1624,65.4633 90.8124,65.4993 L97.7284,65.5293 C99.3774,65.5653 100.1584,64.2113 100.1944,62.5613 L100.2794,57.0113 C100.3164,55.3613 99.5954,54.0173 97.9454,53.9803 L91.0474,53.6513 Z" id="Fill-86" fill="#A5B5B6" mask="url(#mask-4)"></path>
                <path d="M90.9805,54.4004 C90.4015,54.4004 89.8515,54.6224 89.4275,55.0274 C88.9925,55.4444 88.7445,56.0034 88.7315,56.6004 L88.6285,62.4464 C88.6015,63.6914 89.5885,64.7224 90.8285,64.7494 L97.7315,64.7794 C98.2765,64.7944 98.6785,64.6104 98.9665,64.2274 C99.2595,63.8374 99.4295,63.2394 99.4445,62.5454 L99.5295,57.0004 C99.5485,56.1624 99.3645,54.7614 97.9295,54.7304 C97.9225,54.7304 97.9165,54.7304 97.9105,54.7294 L91.0215,54.4004 L90.9805,54.4004 M97.7935,66.2794 C97.7665,66.2794 97.7395,66.2794 97.7115,66.2784 L90.8095,66.2494 C88.7285,66.2034 87.0835,64.4844 87.1295,62.4174 L87.2315,56.5704 C87.2535,55.5694 87.6655,54.6374 88.3915,53.9434 C89.1165,53.2494 90.0655,52.8834 91.0635,52.9014 L91.0835,52.9014 L97.9725,53.2314 C99.8795,53.2784 101.0795,54.7674 101.0295,57.0274 L100.9445,62.5734 C100.9215,63.5984 100.6525,64.4804 100.1665,65.1284 C99.5995,65.8824 98.7795,66.2794 97.7935,66.2794" id="Fill-87" fill="#354546" mask="url(#mask-4)"></path>
                <path d="M95.2896,48.0893 L97.5136,48.2633 L98.3916,55.4303 L97.3476,68.5553 C97.2486,69.8283 96.1256,70.7883 94.8526,70.6893 L94.3996,70.6533 C93.1266,70.5543 92.1666,69.4313 92.2656,68.1583 L93.3096,55.0333 L95.2896,48.0893 Z" id="Fill-88" fill="#F85C4C" mask="url(#mask-4)"></path>
                <path d="M94.0508,55.1674 L93.0128,68.2184 C92.9808,68.6334 93.1138,69.0384 93.3878,69.3584 C93.6618,69.6794 94.0418,69.8734 94.4578,69.9054 L94.9108,69.9414 C95.3268,69.9744 95.7328,69.8414 96.0528,69.5664 C96.3738,69.2924 96.5678,68.9134 96.5998,68.4964 L97.6378,55.4464 L96.8438,48.9624 L95.8428,48.8854 L94.0508,55.1674 Z M95.0368,71.4454 C94.9558,71.4454 94.8758,71.4424 94.7948,71.4374 L94.3408,71.4004 C93.5258,71.3374 92.7818,70.9584 92.2478,70.3334 C91.7138,69.7084 91.4538,68.9154 91.5178,68.1004 L92.5618,54.9744 C92.5658,54.9244 92.5738,54.8754 92.5878,54.8284 L94.5688,47.8834 C94.6658,47.5404 94.9908,47.3144 95.3478,47.3414 L97.5718,47.5154 C97.9278,47.5434 98.2148,47.8174 98.2578,48.1714 L99.1358,55.3394 C99.1418,55.3894 99.1428,55.4394 99.1388,55.4904 L98.0958,68.6144 C98.0318,69.4294 97.6528,70.1724 97.0278,70.7064 C96.4648,71.1884 95.7658,71.4454 95.0368,71.4454 L95.0368,71.4454 Z" id="Fill-89" fill="#C72C1C" mask="url(#mask-4)"></path>
                <path d="M96.3516,49.5747 C96.3326,49.5747 96.3146,49.5737 96.2956,49.5727 C95.8826,49.5417 95.5726,49.1817 95.6026,48.7697 L96.9306,30.7767 C96.9616,30.3637 97.3206,30.0537 97.7336,30.0837 C98.1466,30.1147 98.4566,30.4737 98.4266,30.8877 L97.0986,48.8797 C97.0696,49.2737 96.7406,49.5747 96.3516,49.5747" id="Fill-90" fill="#373737" mask="url(#mask-4)"></path>
                <polygon id="Fill-91" fill="#F85C4C" mask="url(#mask-4)" points="93.315 49.5332 99.24 49.9962 99.387 48.1162 93.462 47.6532"></polygon>
                <path d="M94.1211,48.8437 L98.5501,49.1897 L98.5801,48.8047 L94.1511,48.4587 L94.1211,48.8437 Z M99.2411,50.7457 C99.2211,50.7457 99.2011,50.7447 99.1811,50.7437 L93.2571,50.2807 C93.0591,50.2657 92.8741,50.1717 92.7451,50.0207 C92.6161,49.8687 92.5521,49.6737 92.5671,49.4747 L92.7141,47.5937 C92.7461,47.1817 93.1071,46.8717 93.5201,46.9057 L99.4451,47.3677 C99.8581,47.4007 100.1661,47.7607 100.1341,48.1747 L99.9871,50.0537 C99.9561,50.4477 99.6281,50.7457 99.2411,50.7457 L99.2411,50.7457 Z" id="Fill-92" fill="#C72C1C" mask="url(#mask-4)"></path>
                <polygon id="Fill-93" fill="#373737" mask="url(#mask-4)" points="96.8916 31.268 98.3976 31.367 99.6696 29.101 98.9796 24.616 97.1946 24.499 95.9256 28.856"></polygon>
                <path d="M94.8536,71.4389 C94.8366,71.4389 94.8196,71.4379 94.8016,71.4369 C94.3886,71.4089 94.0766,71.0509 94.1046,70.6379 L95.5336,49.7139 C95.5616,49.3009 95.9176,48.9869 96.3326,49.0169 C96.7456,49.0449 97.0586,49.4029 97.0296,49.8159 L95.6016,70.7399 C95.5746,71.1359 95.2446,71.4389 94.8536,71.4389" id="Fill-94" fill="#C72C1C" mask="url(#mask-4)"></path>
                <path d="M100.9458,57.438 C101.7688,57.489 102.4848,56.856 102.5348,56.033 L102.5808,55.292 C102.6318,54.469 101.9998,53.753 101.1758,53.703 L97.5468,53.396 C96.7228,53.345 96.0078,53.978 95.9568,54.801 L95.9108,55.542 C95.8608,56.365 96.4928,57.081 97.3158,57.131 L100.9458,57.438 Z" id="Fill-95" fill="#A5B5B6" mask="url(#mask-4)"></path>
                <path d="M100.9986,56.6899 C101.4096,56.7119 101.7616,56.3979 101.7866,55.9869 L101.8316,55.2459 C101.8446,55.0479 101.7776,54.8559 101.6446,54.7049 C101.5106,54.5539 101.3286,54.4639 101.1296,54.4519 C101.1236,54.4509 101.1186,54.4509 101.1126,54.4499 L97.4936,54.1449 C97.0826,54.1229 96.7306,54.4369 96.7056,54.8469 L96.6596,55.5879 C96.6476,55.7859 96.7146,55.9789 96.8476,56.1289 C96.9806,56.2809 97.1636,56.3699 97.3616,56.3829 C97.3676,56.3829 97.3736,56.3829 97.3786,56.3839 L100.9986,56.6899 Z M101.0396,58.1909 C100.9936,58.1909 100.9466,58.1899 100.8996,58.1869 C100.8946,58.1859 100.8886,58.1859 100.8826,58.1859 L97.2606,57.8789 C96.6656,57.8399 96.1206,57.5719 95.7236,57.1229 C95.3246,56.6719 95.1256,56.0939 95.1626,55.4959 L95.2076,54.7549 C95.2846,53.5169 96.3526,52.5679 97.5926,52.6479 C97.5986,52.6479 97.6036,52.6479 97.6096,52.6489 L101.2316,52.9549 C101.8256,52.9939 102.3716,53.2619 102.7686,53.7109 C103.1666,54.1619 103.3666,54.7399 103.3296,55.3379 L103.2836,56.0789 C103.2096,57.2709 102.2176,58.1909 101.0396,58.1909 L101.0396,58.1909 Z" id="Fill-96" fill="#354546" mask="url(#mask-4)"></path>
                <path d="M100.5303,61.6836 C101.3533,61.7346 102.0693,61.1016 102.1193,60.2786 L102.1653,59.5376 C102.2163,58.7146 101.5843,57.9986 100.7603,57.9486 L97.1313,57.6416 C96.3073,57.5906 95.5923,58.2236 95.5413,59.0466 L95.4953,59.7876 C95.4453,60.6106 96.0773,61.3266 96.9003,61.3766 L100.5303,61.6836 Z" id="Fill-97" fill="#A5B5B6" mask="url(#mask-4)"></path>
                <path d="M100.5835,60.935 C100.9935,60.961 101.3455,60.643 101.3715,60.232 L101.4165,59.492 C101.4415,59.079 101.1265,58.723 100.7145,58.697 C100.7085,58.697 100.7025,58.696 100.6975,58.696 L97.0775,58.39 C96.8815,58.38 96.6915,58.446 96.5425,58.578 C96.3925,58.712 96.3025,58.894 96.2905,59.093 L96.2445,59.833 C96.2185,60.246 96.5335,60.603 96.9465,60.628 C96.9525,60.628 96.9585,60.629 96.9635,60.629 L100.5835,60.935 Z M100.6245,62.436 C100.5775,62.436 100.5305,62.435 100.4835,62.432 C100.4785,62.432 100.4725,62.431 100.4665,62.431 L96.8455,62.125 C95.6115,62.044 94.6705,60.977 94.7475,59.741 L94.7925,59 C94.8295,58.402 95.0985,57.853 95.5495,57.455 C96.0005,57.056 96.5775,56.856 97.1765,56.893 C97.1825,56.893 97.1875,56.894 97.1935,56.894 L100.8155,57.201 C102.0495,57.282 102.9895,58.349 102.9145,59.584 L102.8685,60.325 C102.7945,61.516 101.8015,62.436 100.6245,62.436 L100.6245,62.436 Z" id="Fill-98" fill="#354546" mask="url(#mask-4)"></path>
                <path d="M100.3072,65.5385 C101.1312,65.5895 101.8462,64.9565 101.8962,64.1335 L101.9422,63.3925 C101.9932,62.5695 101.3612,61.8545 100.5372,61.8035 L96.9082,61.4965 C96.0842,61.4465 95.3692,62.0785 95.3182,62.9015 L95.2732,63.6425 C95.2222,64.4655 95.8542,65.1815 96.6782,65.2315 L100.3072,65.5385 Z" id="Fill-99" fill="#A5B5B6" mask="url(#mask-4)"></path>
                <path d="M100.3604,64.7905 C100.5564,64.8005 100.7454,64.7335 100.8954,64.6025 C101.0464,64.4685 101.1354,64.2865 101.1484,64.0875 L101.1934,63.3475 C101.2194,62.9345 100.9034,62.5775 100.4914,62.5525 C100.4854,62.5515 100.4804,62.5515 100.4744,62.5505 L96.8544,62.2455 C96.4434,62.2215 96.0924,62.5375 96.0674,62.9475 L96.0214,63.6885 C95.9954,64.1015 96.3114,64.4575 96.7234,64.4835 C96.7294,64.4835 96.7354,64.4845 96.7404,64.4845 L100.3604,64.7905 Z M100.4024,66.2915 C100.3554,66.2915 100.3084,66.2905 100.2614,66.2875 C100.2554,66.2875 100.2494,66.2865 100.2444,66.2865 L96.6224,65.9795 C95.3884,65.8985 94.4474,64.8315 94.5244,63.5965 L94.5694,62.8555 C94.6464,61.6175 95.7134,60.6705 96.9544,60.7485 C96.9594,60.7485 96.9654,60.7485 96.9704,60.7495 L100.5934,61.0555 C101.8264,61.1365 102.7674,62.2045 102.6914,63.4395 L102.6454,64.1805 C102.6084,64.7785 102.3394,65.3275 101.8884,65.7265 C101.4724,66.0935 100.9494,66.2915 100.4024,66.2915 L100.4024,66.2915 Z" id="Fill-100" fill="#354546" mask="url(#mask-4)"></path>
                <path d="M95.0567,53.7324 C94.6567,53.0834 93.7477,52.8914 93.0357,53.3054 L92.3957,53.6784 C91.6837,54.0934 91.4287,54.9634 91.8287,55.6124 L95.4827,61.5454 C95.8827,62.1944 96.7917,62.3864 97.5037,61.9724 L98.1437,61.5994 C98.8557,61.1844 99.1107,60.3144 98.7107,59.6654 L95.0567,53.7324 Z" id="Fill-101" fill="#A5B5B6" mask="url(#mask-4)"></path>
                <path d="M93.8448,53.8369 C93.6998,53.8369 93.5498,53.8749 93.4128,53.9539 L92.7738,54.3269 C92.5888,54.4339 92.4558,54.6049 92.4078,54.7939 C92.3818,54.8999 92.3698,55.0609 92.4678,55.2189 L96.1218,61.1519 C96.3078,61.4539 96.7678,61.5329 97.1268,61.3239 L97.7668,60.9509 C97.9508,60.8439 98.0838,60.6729 98.1318,60.4839 C98.1578,60.3769 98.1698,60.2169 98.0728,60.0589 L94.4178,54.1259 C94.3028,53.9379 94.0818,53.8369 93.8448,53.8369 M96.6998,62.9399 C95.9568,62.9399 95.2418,62.5849 94.8448,61.9389 L91.1898,56.0059 C90.9008,55.5359 90.8168,54.9759 90.9528,54.4289 C91.0988,53.8499 91.4868,53.3399 92.0178,53.0309 L92.6578,52.6579 C93.7208,52.0389 95.0828,52.3449 95.6958,53.3389 L99.3498,59.2719 C99.6388,59.7419 99.7228,60.3019 99.5868,60.8489 C99.4418,61.4279 99.0528,61.9379 98.5218,62.2469 L97.8818,62.6199 C97.5098,62.8369 97.0998,62.9399 96.6998,62.9399" id="Fill-102" fill="#354546" mask="url(#mask-4)"></path>
                <path d="M93.0611,52.9624 L91.2991,52.9064 C89.6491,52.8544 88.2581,54.1614 88.2061,55.8104 L88.1501,57.5724 C88.0981,59.2224 89.4041,60.6134 91.0531,60.6664 L92.8151,60.7214 C94.4651,60.7744 95.8571,59.4674 95.9091,57.8184 L95.9651,56.0564 C96.0171,54.4064 94.7101,53.0144 93.0611,52.9624" id="Fill-103" fill="#A5B5B6" mask="url(#mask-4)"></path>
                <path d="M88.2056,55.8105 L88.2066,55.8105 L88.2056,55.8105 Z M91.2036,53.6555 C89.9956,53.6555 88.9936,54.6185 88.9556,55.8335 L88.8996,57.5965 C88.8606,58.8365 89.8366,59.8775 91.0776,59.9165 L92.8396,59.9725 C94.0816,60.0085 95.1206,59.0345 95.1596,57.7945 L95.2146,56.0325 C95.2546,54.7915 94.2776,53.7515 93.0376,53.7125 L91.2746,53.6565 C91.2506,53.6555 91.2266,53.6555 91.2036,53.6555 L91.2036,53.6555 Z M92.9126,61.4735 C92.8726,61.4735 92.8316,61.4725 92.7916,61.4715 L91.0296,61.4155 C88.9626,61.3505 87.3346,59.6155 87.3996,57.5485 L87.4556,55.7865 C87.5206,53.7205 89.2526,52.0875 91.3226,52.1575 L93.0846,52.2125 C95.1516,52.2785 96.7796,54.0135 96.7146,56.0795 L96.6586,57.8415 C96.5946,59.8685 94.9256,61.4735 92.9126,61.4735 L92.9126,61.4735 Z" id="Fill-104" fill="#354546" mask="url(#mask-4)"></path>
                <path d="M23.5552,46.9668 C23.6292,47.7878 23.0172,48.5218 22.1962,48.5958 L21.4572,48.6618 C20.6352,48.7368 19.9022,48.1248 19.8282,47.3028 L19.1492,39.7938 C19.0752,38.9718 19.6862,38.2388 20.5082,38.1648 L21.2472,38.0978 C22.0692,38.0238 22.8022,38.6348 22.8762,39.4568 L23.5552,46.9668 Z" id="Fill-105" fill="#A5B5B6" mask="url(#mask-4)"></path>
                <path d="M21.3824,38.8418 C21.3604,38.8418 21.3374,38.8428 21.3154,38.8448 L20.5754,38.9118 C20.1644,38.9488 19.8594,39.3138 19.8964,39.7258 L20.5754,47.2358 C20.5924,47.4338 20.6884,47.6138 20.8424,47.7428 C20.9974,47.8718 21.1924,47.9328 21.3894,47.9158 L22.1284,47.8488 C22.5404,47.8118 22.8454,47.4458 22.8084,47.0338 L22.1294,39.5248 C22.1114,39.3258 22.0164,39.1458 21.8614,39.0168 C21.7244,38.9028 21.5564,38.8418 21.3824,38.8418 M21.3194,49.4188 C20.7954,49.4188 20.2914,49.2368 19.8824,48.8948 C19.4194,48.5088 19.1354,47.9678 19.0814,47.3708 L18.4024,39.8608 C18.2914,38.6258 19.2054,37.5298 20.4414,37.4178 L21.1804,37.3508 C21.7774,37.2968 22.3604,37.4798 22.8224,37.8648 C23.2854,38.2508 23.5694,38.7918 23.6234,39.3888 L24.3024,46.8988 C24.4134,48.1348 23.4994,49.2308 22.2634,49.3418 L21.5244,49.4088 C21.4564,49.4158 21.3874,49.4188 21.3194,49.4188" id="Fill-106" fill="#354546" mask="url(#mask-4)"></path>
                <path d="M23.6504,48.3872 L23.4914,46.6312 C23.3434,44.9882 21.8774,43.7652 20.2334,43.9132 L18.4784,44.0722 C16.8344,44.2202 15.6114,45.6862 15.7604,47.3302 L15.9194,49.0862 C16.0674,50.7292 17.5334,51.9522 19.1764,51.8042 L20.9324,51.6452 C22.5754,51.4962 23.7984,50.0312 23.6504,48.3872" id="Fill-107" fill="#A5B5B6" mask="url(#mask-4)"></path>
                <path d="M20.5049,44.6513 C20.4379,44.6513 20.3699,44.6543 20.3009,44.6603 L18.5459,44.8183 C17.3099,44.9303 16.3959,46.0263 16.5069,47.2623 L16.6659,49.0183 C16.7199,49.6133 17.0049,50.1543 17.4679,50.5413 C17.9309,50.9273 18.5139,51.1093 19.1089,51.0563 L20.8649,50.8983 C22.1009,50.7863 23.0149,49.6903 22.9029,48.4543 L22.7449,46.6983 C22.6909,46.1033 22.4059,45.5633 21.9429,45.1763 C21.5329,44.8343 21.0279,44.6513 20.5049,44.6513 M18.9029,52.5663 C18.0289,52.5663 17.1889,52.2613 16.5069,51.6933 C15.7359,51.0493 15.2619,50.1483 15.1719,49.1533 L15.0129,47.3973 C14.8269,45.3383 16.3509,43.5113 18.4109,43.3253 L20.1669,43.1663 C21.1609,43.0753 22.1329,43.3813 22.9039,44.0243 C23.6749,44.6683 24.1489,45.5693 24.2389,46.5643 L24.3979,48.3193 C24.5839,50.3793 23.0599,52.2063 20.9999,52.3923 L19.2439,52.5503 C19.1299,52.5613 19.0159,52.5663 18.9029,52.5663" id="Fill-108" fill="#354546" mask="url(#mask-4)"></path>
                <path d="M14.2442,65.2724 C15.0032,66.5634 16.4962,67.1054 17.5612,66.4794 L26.7612,61.0664 C27.8262,60.4394 28.0762,58.8714 27.3172,57.5804 L14.2622,35.3944 C13.5032,34.1034 12.0102,33.5604 10.9452,34.1874 L1.7452,39.6004 C0.6812,40.2264 0.4302,41.7954 1.1892,43.0854 L14.2442,65.2724 Z" id="Fill-109" fill="#5B5B5B" mask="url(#mask-4)"></path>
                <path d="M11.9224,34.6772 C11.7094,34.6772 11.5054,34.7272 11.3254,34.8332 L2.1264,40.2462 C1.8074,40.4332 1.5934,40.7772 1.5244,41.2122 C1.4474,41.6942 1.5614,42.2382 1.8364,42.7052 L14.8904,64.8922 C15.1654,65.3602 15.5864,65.7232 16.0444,65.8902 C16.4584,66.0402 16.8624,66.0202 17.1814,65.8332 L26.3804,60.4202 C27.0794,60.0092 27.2124,58.8822 26.6704,57.9612 L13.6154,35.7742 C13.2134,35.0912 12.5324,34.6772 11.9224,34.6772 M16.5864,67.4912 C16.2394,67.4912 15.8844,67.4282 15.5314,67.3002 C14.7394,67.0112 14.0534,66.4272 13.5974,65.6532 L0.5434,43.4662 C0.0884,42.6922 -0.0896,41.8072 0.0434,40.9752 C0.1844,40.0902 0.6534,39.3722 1.3654,38.9532 L10.5644,33.5402 C11.9884,32.7032 13.9374,33.3642 14.9084,35.0132 L27.9634,57.2002 C28.9344,58.8502 28.5654,60.8752 27.1404,61.7132 L17.9424,67.1252 C17.5284,67.3692 17.0664,67.4912 16.5864,67.4912" id="Fill-110" fill="#373737" mask="url(#mask-4)"></path>
                <path d="M16.1299,64.1626 C16.8899,65.4536 18.3819,65.9956 19.4479,65.3696 L28.6469,59.9566 C29.7119,59.3296 29.9619,57.7616 29.2029,56.4706 L16.1479,34.2846 C15.3889,32.9936 13.8959,32.4506 12.8309,33.0776 L3.6319,38.4906 C2.5669,39.1166 2.3169,40.6856 3.0759,41.9756 L16.1299,64.1626 Z" id="Fill-111" fill="#6D6D6D" mask="url(#mask-4)"></path>
                <path d="M16.1299,64.1626 C16.8899,65.4536 18.3819,65.9956 19.4479,65.3696 L28.6469,59.9566 C29.7119,59.3296 29.9619,57.7616 29.2029,56.4706 L16.1479,34.2846 C15.3889,32.9936 13.8959,32.4506 12.8309,33.0776 L3.6319,38.4906 C2.5669,39.1166 2.3169,40.6856 3.0759,41.9756 L16.1299,64.1626 Z" id="Fill-112" fill="#808080" mask="url(#mask-4)"></path>
                <polygon id="Fill-113" fill="#19B5FE" mask="url(#mask-4)" points="13.7364 60.0942 26.8094 52.4032 17.4904 36.5652 4.4184 44.2572"></polygon>
                <path d="M25.5918,50.334 C20.6078,47.751 13.8318,43.901 9.6728,41.165 L11.9888,39.802 C15.0888,41.143 18.8948,42.98 22.2478,44.651 L25.5918,50.334 Z" id="Fill-114" fill="#39D5FF" mask="url(#mask-4)"></path>
                <path d="M21.3619,55.6079 C15.5079,52.3729 9.0639,48.5339 5.3929,45.9139 L4.4179,44.2569 L5.6949,43.5059 C10.6829,45.2419 20.1179,49.9189 25.9629,52.9009 L21.3619,55.6079 Z" id="Fill-115" fill="#39D5FF" mask="url(#mask-4)"></path>
                <path d="M5.4449,44.5234 L14.0029,59.0674 L25.7819,52.1364 L17.2249,37.5924 L5.4449,44.5234 Z M13.7369,60.8444 C13.4799,60.8444 13.2299,60.7124 13.0899,60.4744 L3.7719,44.6374 C3.5619,44.2804 3.6809,43.8204 4.0379,43.6104 L17.1109,35.9194 C17.2819,35.8184 17.4859,35.7894 17.6789,35.8394 C17.8709,35.8894 18.0359,36.0134 18.1369,36.1854 L27.4559,52.0224 C27.5559,52.1934 27.5849,52.3984 27.5349,52.5904 C27.4849,52.7834 27.3609,52.9484 27.1899,53.0494 L14.1169,60.7404 C13.9969,60.8114 13.8659,60.8444 13.7369,60.8444 L13.7369,60.8444 Z" id="Fill-116" fill="#373737" mask="url(#mask-4)"></path>
                <path d="M13.8106,33.5669 C13.5926,33.5669 13.3886,33.6199 13.2106,33.7239 L4.0126,39.1369 C3.6936,39.3239 3.4796,39.6669 3.4106,40.1029 C3.3326,40.5839 3.4466,41.1289 3.7226,41.5959 L16.7766,63.7819 C17.0516,64.2499 17.4726,64.6139 17.9306,64.7799 C18.3446,64.9309 18.7486,64.9109 19.0666,64.7229 L28.2666,59.3109 C28.5846,59.1229 28.7986,58.7799 28.8686,58.3449 C28.9446,57.8629 28.8316,57.3189 28.5566,56.8519 L15.5016,34.6649 C15.2266,34.1969 14.8066,33.8339 14.3476,33.6669 C14.1646,33.5999 13.9826,33.5669 13.8106,33.5669 M18.4716,66.3819 C18.1256,66.3819 17.7706,66.3179 17.4176,66.1899 C16.6256,65.9019 15.9386,65.3169 15.4836,64.5429 L2.4296,42.3569 C1.9736,41.5829 1.7956,40.6979 1.9286,39.8659 C2.0706,38.9809 2.5396,38.2629 3.2516,37.8439 L12.4506,32.4309 C13.1626,32.0119 14.0186,31.9509 14.8606,32.2569 C15.6526,32.5449 16.3396,33.1299 16.7946,33.9039 L29.8496,56.0909 C30.3046,56.8649 30.4826,57.7489 30.3496,58.5809 C30.2076,59.4659 29.7386,60.1849 29.0266,60.6039 L19.8276,66.0159 C19.4146,66.2589 18.9526,66.3819 18.4716,66.3819" id="Fill-117" fill="#373737" mask="url(#mask-4)"></path>
                <path d="M7.3106,40.1528 C7.0536,40.1528 6.8036,40.0208 6.6636,39.7828 C6.4536,39.4258 6.5726,38.9658 6.9296,38.7558 L11.4616,36.0898 C11.8186,35.8798 12.2786,35.9988 12.4886,36.3558 C12.6986,36.7128 12.5796,37.1728 12.2226,37.3818 L7.6906,40.0488 C7.5706,40.1188 7.4396,40.1528 7.3106,40.1528" id="Fill-118" fill="#373737" mask="url(#mask-4)"></path>
                <path d="M14.855,41.0791 C15.1,41.5831 15.937,41.5241 16.745,41.1321 C17.552,40.7401 17.909,40.4771 17.665,39.9731 C17.419,39.4691 16.683,39.0641 15.875,39.4561 C15.067,39.8491 14.61,40.5751 14.855,41.0791" id="Fill-119" fill="#FFFFFF" mask="url(#mask-4)"></path>
                <path d="M21.1934,60.9258 C20.9334,60.9258 20.6814,60.7908 20.5424,60.5498 C20.3364,60.1908 20.4594,59.7318 20.8184,59.5258 L23.8414,57.7868 C24.2014,57.5798 24.6594,57.7038 24.8664,58.0628 C25.0724,58.4218 24.9484,58.8798 24.5894,59.0868 L21.5664,60.8258 C21.4484,60.8938 21.3204,60.9258 21.1934,60.9258" id="Fill-120" fill="#373737" mask="url(#mask-4)"></path>
                <path d="M10.1348,54.7475 C10.7558,54.4595 11.5818,54.8165 11.9708,55.5405 L12.3208,56.1925 C12.7088,56.9165 12.5188,57.7455 11.8978,58.0325 L9.3448,59.9765 C8.7238,60.2635 7.8978,59.9065 7.5098,59.1825 L7.1598,58.5305 C6.7708,57.8065 6.9618,56.9785 7.5828,56.6905 L10.1348,54.7475 Z" id="Fill-121" fill="#A5B5B6" mask="url(#mask-4)"></path>
                <path d="M7.5826,56.6909 L7.5836,56.6909 L7.5826,56.6909 Z M10.5046,55.4089 L8.0366,57.2879 C7.9936,57.3199 7.9466,57.3489 7.8976,57.3709 C7.8226,57.4059 7.7686,57.4719 7.7366,57.5669 C7.6786,57.7419 7.7096,57.9699 7.8206,58.1759 L8.1696,58.8279 C8.3676,59.1949 8.7386,59.3759 8.9756,59.3149 L11.4436,57.4359 C11.4866,57.4029 11.5326,57.3749 11.5826,57.3529 C11.6576,57.3179 11.7116,57.2519 11.7436,57.1559 C11.8016,56.9819 11.7696,56.7539 11.6596,56.5469 L11.3106,55.8959 C11.1126,55.5279 10.7416,55.3479 10.5046,55.4089 L10.5046,55.4089 Z M8.8906,60.8229 C8.0966,60.8229 7.2786,60.3399 6.8486,59.5369 L6.4986,58.8849 C6.1916,58.3139 6.1246,57.6599 6.3136,57.0919 C6.4666,56.6339 6.7736,56.2679 7.1846,56.0509 L9.6806,54.1509 C9.7236,54.1179 9.7706,54.0899 9.8196,54.0669 C10.7956,53.6139 12.0576,54.1169 12.6316,55.1869 L12.9806,55.8379 C13.2886,56.4099 13.3556,57.0639 13.1656,57.6309 C13.0126,58.0889 12.7056,58.4559 12.2956,58.6719 L9.7996,60.5729 C9.7556,60.6059 9.7096,60.6339 9.6606,60.6569 C9.4166,60.7699 9.1546,60.8229 8.8906,60.8229 L8.8906,60.8229 Z" id="Fill-122" fill="#354546" mask="url(#mask-4)"></path>
                <path d="M8.0118,51.0586 C8.6328,50.7706 9.4588,51.1276 9.8468,51.8516 L10.1968,52.5036 C10.5858,53.2276 10.3948,54.0566 9.7738,54.3436 L7.2218,56.2876 C6.6008,56.5746 5.7748,56.2176 5.3858,55.4936 L5.0358,54.8416 C4.6478,54.1176 4.8378,53.2896 5.4588,53.0016 L8.0118,51.0586 Z" id="Fill-123" fill="#A5B5B6" mask="url(#mask-4)"></path>
                <path d="M5.459,53.0014 L5.46,53.0014 L5.459,53.0014 Z M8.381,51.7204 L5.913,53.5984 C5.87,53.6314 5.824,53.6594 5.774,53.6824 C5.699,53.7164 5.645,53.7824 5.613,53.8784 C5.555,54.0524 5.586,54.2804 5.697,54.4874 L6.046,55.1384 C6.244,55.5064 6.616,55.6844 6.852,55.6254 L9.32,53.7474 C9.363,53.7144 9.41,53.6864 9.459,53.6634 C9.534,53.6284 9.588,53.5624 9.62,53.4674 C9.678,53.2924 9.647,53.0644 9.536,52.8584 L9.187,52.2064 C8.989,51.8394 8.618,51.6604 8.381,51.7204 L8.381,51.7204 Z M6.768,57.1334 C5.973,57.1334 5.156,56.6504 4.725,55.8474 L4.376,55.1964 C4.068,54.6244 4.001,53.9704 4.19,53.4034 C4.344,52.9454 4.651,52.5784 5.061,52.3624 L7.558,50.4614 C7.601,50.4284 7.647,50.4004 7.696,50.3774 C8.673,49.9254 9.935,50.4274 10.508,51.4974 L10.858,52.1494 C11.165,52.7214 11.232,53.3744 11.042,53.9424 C10.89,54.4004 10.583,54.7674 10.172,54.9834 L7.676,56.8834 C7.633,56.9164 7.586,56.9444 7.537,56.9674 C7.293,57.0804 7.031,57.1334 6.768,57.1334 L6.768,57.1334 Z" id="Fill-124" fill="#354546" mask="url(#mask-4)"></path>
                <path d="M6.2041,47.6631 C6.8251,47.3751 7.6511,47.7321 8.0401,48.4571 L8.3891,49.1081 C8.7781,49.8331 8.5871,50.6611 7.9661,50.9491 L5.4141,52.8921 C4.7931,53.1801 3.9671,52.8221 3.5781,52.0981 L3.2281,51.4471 C2.8401,50.7221 3.0301,49.8941 3.6511,49.6061 L6.2041,47.6631 Z" id="Fill-125" fill="#A5B5B6" mask="url(#mask-4)"></path>
                <path d="M3.6514,49.6064 L3.6524,49.6064 L3.6514,49.6064 Z M6.5734,48.3244 L4.1064,50.2034 C4.0624,50.2354 4.0164,50.2644 3.9664,50.2864 C3.8914,50.3214 3.8374,50.3874 3.8054,50.4824 C3.7474,50.6574 3.7784,50.8854 3.8894,51.0914 L4.2394,51.7434 C4.4364,52.1104 4.8074,52.2894 5.0454,52.2304 L7.5124,50.3524 C7.5554,50.3194 7.6024,50.2914 7.6514,50.2684 C7.7264,50.2334 7.7804,50.1674 7.8124,50.0724 C7.8704,49.8974 7.8394,49.6694 7.7284,49.4624 L7.3794,48.8114 C7.1814,48.4434 6.8104,48.2654 6.5734,48.3244 L6.5734,48.3244 Z M4.9604,53.7384 C4.1654,53.7384 3.3484,53.2554 2.9174,52.4524 L2.5684,51.8014 C2.2604,51.2294 2.1934,50.5754 2.3824,50.0084 C2.5364,49.5494 2.8434,49.1834 3.2534,48.9664 L5.7504,47.0664 C5.7934,47.0334 5.8394,47.0054 5.8884,46.9824 C6.8654,46.5304 8.1274,47.0324 8.7004,48.1024 L9.0504,48.7534 C9.3574,49.3264 9.4244,49.9794 9.2344,50.5464 C9.0824,51.0054 8.7754,51.3714 8.3644,51.5874 L5.8684,53.4884 C5.8254,53.5214 5.7784,53.5494 5.7294,53.5724 C5.4854,53.6854 5.2244,53.7384 4.9604,53.7384 L4.9604,53.7384 Z" id="Fill-126" fill="#354546" mask="url(#mask-4)"></path>
                <path d="M62.9136,75.4926 C62.8296,75.6086 62.7606,76.3046 63.5256,77.9236 C64.1076,79.1536 64.9326,80.3996 65.4126,80.9466 C65.7976,81.3866 66.2836,81.6256 66.7456,81.6056 C67.1446,81.5876 67.4986,81.3826 67.7676,81.0126 C68.4406,80.0896 68.3056,78.5076 67.4736,77.5586 C66.7526,76.7376 64.3546,75.3746 63.1736,75.4286 C62.9936,75.4366 62.9236,75.4786 62.9136,75.4926 M66.6896,83.1066 C65.8116,83.1066 64.9416,82.6846 64.2846,81.9356 C63.7456,81.3216 60.3036,76.5276 61.7016,74.6086 C61.9126,74.3186 62.3286,73.9656 63.1056,73.9306 C64.8486,73.8466 67.6426,75.4766 68.6006,76.5696 C69.9056,78.0566 70.0726,80.3956 68.9806,81.8956 C68.4406,82.6366 67.6706,83.0646 66.8126,83.1036 C66.7716,83.1056 66.7306,83.1066 66.6896,83.1066" id="Fill-127" fill="#19B5FE" mask="url(#mask-4)"></path>
                <path d="M68.9971,72.7602 C67.5811,72.7602 65.4001,73.1782 64.2051,73.9732 C63.9211,74.1612 63.5711,74.4552 63.5201,74.7792 C63.4531,75.2102 63.9311,76.0412 65.4761,77.0762 C66.7541,77.9332 68.3041,78.6072 69.1121,78.8052 C69.7131,78.9532 70.3311,78.8442 70.8511,78.4982 C71.4771,78.0812 71.9131,77.3582 72.0461,76.5132 C72.3081,74.8442 71.3531,73.1992 69.9181,72.8462 C69.6841,72.7882 69.3671,72.7602 68.9971,72.7602 M69.6431,80.3702 C69.3481,80.3702 69.0501,80.3342 68.7541,80.2622 C66.9871,79.8272 61.6091,77.2822 62.0391,74.5462 C62.1471,73.8542 62.5971,73.2412 63.3741,72.7242 C65.1661,71.5322 68.6671,70.9932 70.2761,71.3902 C72.4491,71.9232 73.9081,74.3262 73.5281,76.7452 C73.3301,78.0042 72.6571,79.0982 71.6821,79.7472 C71.0631,80.1582 70.3611,80.3702 69.6431,80.3702" id="Fill-128" fill="#C72C1C" mask="url(#mask-4)"></path>
                <path d="M58.5831,60.0239 C56.9391,59.8799 54.2461,59.8339 52.5991,59.9199 L43.5281,60.3939 C41.8801,60.4799 40.5081,61.8999 40.4791,63.5499 L40.3291,72.1719 C40.3001,73.8229 41.5791,75.5279 43.1711,75.9619 L52.3601,78.4689 C53.9521,78.9039 56.5681,78.9499 58.1741,78.5709 L67.4451,76.3849 C69.0511,76.0069 70.3891,74.3469 70.4171,72.6979 L70.5681,64.0749 C70.5971,62.4249 69.2751,60.9579 67.6311,60.8149 L58.5831,60.0239 Z" id="Fill-129" fill="#A5B5B6" mask="url(#mask-4)"></path>
                <path d="M67.4869,73.9858 L58.2159,76.1718 C56.6099,76.5488 53.9939,76.5048 52.4019,76.0698 L43.2129,73.5618 C41.6209,73.1288 40.3419,71.4228 40.3709,69.7728 L40.3289,72.1728 C40.2999,73.8228 41.5789,75.5278 43.1709,75.9628 L52.3599,78.4688 C53.9519,78.9038 56.5689,78.9498 58.1739,78.5708 L67.4449,76.3848 C69.0509,76.0068 70.3889,74.3468 70.4179,72.6978 L70.4589,70.2978 C70.4309,71.9478 69.0929,73.6078 67.4869,73.9858" id="Fill-130" fill="#859596" mask="url(#mask-4)"></path>
                <path d="M54.564,60.6259 C53.857,60.6259 53.189,60.6399 52.638,60.6679 L43.567,61.1429 C42.322,61.2079 41.251,62.3159 41.23,63.5629 L41.079,72.1859 C41.056,73.4959 42.105,74.8939 43.369,75.2389 L52.558,77.7459 C54.026,78.1469 56.52,78.1899 58.002,77.8409 L67.273,75.6559 C68.548,75.3549 69.645,73.9949 69.668,72.6849 L69.818,64.0619 C69.84,62.8149 68.809,61.6699 67.566,61.5619 L58.518,60.7709 C57.449,60.6779 55.936,60.6259 54.564,60.6259 M55.542,79.5799 C54.333,79.5799 53.102,79.4489 52.163,79.1929 L42.974,76.6849 C41.035,76.1569 39.544,74.1679 39.579,72.1599 L39.73,63.5369 C39.765,61.4969 41.452,59.7509 43.489,59.6449 L52.559,59.1699 C54.24,59.0829 56.971,59.1299 58.648,59.2769 L67.697,60.0669 C69.729,60.2449 71.354,62.0479 71.318,64.0879 L71.167,72.7099 C71.132,74.7199 69.573,76.6549 67.617,77.1159 L58.346,79.2999 C57.552,79.4879 56.555,79.5799 55.542,79.5799" id="Fill-131" fill="#354546" mask="url(#mask-4)"></path>
                <polygon id="Fill-132" fill="#556566" mask="url(#mask-4)" points="58.4761 73.102 45.4001 72.873 45.5601 63.675 58.6371 63.903"></polygon>
                <path d="M54.0606,71.1635 C53.8036,71.1635 53.5616,71.0315 53.4246,70.8095 L52.3866,69.1445 L50.7696,69.1165 C50.5186,69.1125 50.2856,68.9815 50.1496,68.7695 L50.0826,68.6645 L49.6466,69.6815 C49.5486,69.9075 49.3456,70.0725 49.1036,70.1205 C48.8616,70.1695 48.6116,70.0955 48.4346,69.9225 L47.5476,69.0605 L45.4676,69.0235 C45.0536,69.0175 44.7236,68.6755 44.7306,68.2615 C44.7376,67.8475 45.0826,67.5175 45.4936,67.5245 L47.8716,67.5655 C48.0616,67.5695 48.2446,67.6445 48.3806,67.7785 L48.6986,68.0875 L49.2646,66.7705 C49.3736,66.5155 49.6156,66.3415 49.8926,66.3195 C50.1696,66.2975 50.4366,66.4295 50.5856,66.6635 L51.1986,67.6235 L52.8206,67.6525 C53.0746,67.6565 53.3096,67.7895 53.4436,68.0055 L53.8386,68.6385 L54.6506,66.0845 C54.7486,65.7775 55.0336,65.5665 55.3566,65.5625 C55.6816,65.5655 55.9696,65.7625 56.0746,66.0675 L56.6446,67.7195 L58.5696,67.7525 C58.9836,67.7595 59.3136,68.1015 59.3066,68.5155 C59.2986,68.9305 58.9566,69.2665 58.5436,69.2525 L56.0936,69.2095 C55.7786,69.2045 55.5006,69.0025 55.3976,68.7045 L55.3946,68.6945 L54.7756,70.6415 C54.6866,70.9195 54.4436,71.1205 54.1536,71.1575 C54.1226,71.1615 54.0916,71.1635 54.0606,71.1635" id="Fill-133" fill="#D5E5E6" mask="url(#mask-4)"></path>
                <path d="M46.1631,72.1372 L57.7391,72.3382 L57.8731,64.6402 L46.2971,64.4382 L46.1631,72.1372 Z M58.4761,73.8522 L58.4631,73.8522 L45.3871,73.6232 C45.1881,73.6202 44.9991,73.5372 44.8611,73.3952 C44.7231,73.2512 44.6461,73.0592 44.6501,72.8612 L44.8101,63.6622 C44.8181,63.2482 45.1611,62.9182 45.5741,62.9252 L58.6491,63.1532 C58.8491,63.1572 59.0381,63.2392 59.1761,63.3822 C59.3141,63.5252 59.3901,63.7172 59.3861,63.9162 L59.2261,73.1152 C59.2191,73.5252 58.8841,73.8522 58.4761,73.8522 L58.4761,73.8522 Z" id="Fill-134" fill="#354546" mask="url(#mask-4)"></path>
                <path d="M65.4546,65.7973 C65.4376,66.7773 64.6286,67.5583 63.6486,67.5413 C62.6686,67.5243 61.8886,66.7153 61.9056,65.7353 C61.9226,64.7553 62.7306,63.9743 63.7106,63.9913 C64.6906,64.0083 65.4716,64.8173 65.4546,65.7973" id="Fill-135" fill="#F85C4C" mask="url(#mask-4)"></path>
                <path d="M65.4546,65.7973 L65.4556,65.7973 L65.4546,65.7973 Z M63.6796,64.7413 C63.4126,64.7413 63.1606,64.8433 62.9676,65.0293 C62.7706,65.2193 62.6596,65.4753 62.6546,65.7483 C62.6446,66.3143 63.0966,66.7813 63.6626,66.7913 L63.6806,66.7913 C64.2366,66.7913 64.6946,66.3433 64.7046,65.7843 C64.7096,65.5103 64.6076,65.2513 64.4166,65.0543 C64.2266,64.8573 63.9716,64.7463 63.6976,64.7413 L63.6796,64.7413 Z M63.6806,68.2913 L63.6356,68.2913 C62.2436,68.2673 61.1306,67.1143 61.1556,65.7223 C61.1666,65.0483 61.4406,64.4183 61.9256,63.9503 C62.4116,63.4823 63.0496,63.2313 63.7246,63.2413 C64.3976,63.2533 65.0276,63.5273 65.4966,64.0123 C65.9646,64.4973 66.2166,65.1363 66.2046,65.8103 C66.1806,67.1873 65.0526,68.2913 63.6806,68.2913 L63.6806,68.2913 Z" id="Fill-136" fill="#C72C1C" mask="url(#mask-4)"></path>
                <path d="M65.356,71.4467 C65.339,72.4257 64.53,73.2077 63.55,73.1897 C62.57,73.1737 61.79,72.3647 61.807,71.3847 C61.824,70.4047 62.632,69.6237 63.612,69.6407 C64.592,69.6577 65.373,70.4667 65.356,71.4467" id="Fill-137" fill="#B9D96D" mask="url(#mask-4)"></path>
                <path d="M65.356,71.4467 L65.357,71.4467 L65.356,71.4467 Z M63.581,70.3897 C63.024,70.3897 62.566,70.8387 62.557,71.3977 C62.546,71.9637 62.999,72.4297 63.564,72.4407 L63.582,72.4407 C64.138,72.4407 64.596,71.9927 64.606,71.4327 C64.616,70.8687 64.164,70.4007 63.599,70.3907 C63.593,70.3907 63.587,70.3897 63.581,70.3897 L63.581,70.3897 Z M63.582,73.9407 C63.567,73.9407 63.552,73.9407 63.537,73.9397 C62.145,73.9157 61.032,72.7637 61.057,71.3717 C61.081,69.9797 62.235,68.8607 63.625,68.8907 C65.017,68.9157 66.13,70.0677 66.106,71.4597 C66.082,72.8367 64.954,73.9407 63.582,73.9407 L63.582,73.9407 Z" id="Fill-138" fill="#719911" mask="url(#mask-4)"></path>
                <path d="M45.2124,62.5464 C44.8524,62.5464 44.5344,62.2854 44.4734,61.9184 L44.0694,59.4654 C44.0024,59.0564 44.2794,58.6714 44.6884,58.6034 C45.0964,58.5364 45.4824,58.8134 45.5494,59.2214 L45.9534,61.6744 C46.0214,62.0834 45.7444,62.4694 45.3354,62.5364 C45.2944,62.5434 45.2534,62.5464 45.2124,62.5464" id="Fill-139" fill="#354546" mask="url(#mask-4)"></path>
                <path d="M48.1729,62.0591 C47.8119,62.0591 47.4939,61.7981 47.4339,61.4311 L47.0299,58.9781 C46.9629,58.5691 47.2389,58.1841 47.6479,58.1161 C48.0569,58.0501 48.4429,58.3261 48.5099,58.7341 L48.9139,61.1871 C48.9809,61.5961 48.7039,61.9821 48.2959,62.0491 C48.2549,62.0561 48.2139,62.0591 48.1729,62.0591" id="Fill-140" fill="#354546" mask="url(#mask-4)"></path>
                <path d="M65.5171,62.5464 C65.4761,62.5464 65.4351,62.5434 65.3941,62.5364 C64.9851,62.4694 64.7091,62.0834 64.7761,61.6744 L65.1801,59.2214 C65.2471,58.8134 65.6331,58.5374 66.0411,58.6034 C66.4511,58.6714 66.7271,59.0564 66.6601,59.4654 L66.2561,61.9184 C66.1961,62.2854 65.8771,62.5464 65.5171,62.5464" id="Fill-141" fill="#354546" mask="url(#mask-4)"></path>
                <path d="M62.5567,62.0591 C62.5157,62.0591 62.4747,62.0561 62.4337,62.0491 C62.0257,61.9821 61.7487,61.5961 61.8157,61.1871 L62.2197,58.7341 C62.2867,58.3261 62.6727,58.0501 63.0817,58.1161 C63.4907,58.1841 63.7667,58.5691 63.6997,58.9781 L63.2957,61.4311 C63.2357,61.7981 62.9177,62.0591 62.5567,62.0591" id="Fill-142" fill="#354546" mask="url(#mask-4)"></path>
                <polygon id="Fill-143" fill="#A5B5B6" mask="url(#mask-4)" points="42.271 107.861 46.958 107.861 46.958 98.861 42.271 98.861"></polygon>
                <polygon id="Fill-144" fill="#C5D5D6" mask="url(#mask-4)" points="42.271 102.437 46.958 102.437 46.958 98.861 42.271 98.861"></polygon>
                <path d="M43.021,107.111 L46.209,107.111 L46.209,99.611 L43.021,99.611 L43.021,107.111 Z M46.958,108.611 L42.271,108.611 C41.856,108.611 41.521,108.275 41.521,107.861 L41.521,98.861 C41.521,98.446 41.856,98.111 42.271,98.111 L46.958,98.111 C47.373,98.111 47.708,98.446 47.708,98.861 L47.708,107.861 C47.708,108.275 47.373,108.611 46.958,108.611 L46.958,108.611 Z" id="Fill-145" fill="#354546" mask="url(#mask-4)"></path>
                <polygon id="Fill-146" fill="#A5B5B6" mask="url(#mask-4)" points="39.092 106.098 42.277 106.098 42.277 90.198 39.092 90.198"></polygon>
                <path d="M39.842,105.348 L41.527,105.348 L41.527,90.948 L39.842,90.948 L39.842,105.348 Z M42.277,106.848 L39.092,106.848 C38.678,106.848 38.342,106.512 38.342,106.098 L38.342,90.198 C38.342,89.784 38.678,89.448 39.092,89.448 L42.277,89.448 C42.691,89.448 43.027,89.784 43.027,90.198 L43.027,106.098 C43.027,106.512 42.691,106.848 42.277,106.848 L42.277,106.848 Z" id="Fill-147" fill="#354546" mask="url(#mask-4)"></path>
                <path d="M40.7505,84.685 L40.6185,84.685 C38.9685,84.685 37.6185,86.036 37.6185,87.685 L37.6185,94.81 L43.7505,94.81 L43.7505,87.685 C43.7505,86.036 42.4005,84.685 40.7505,84.685" id="Fill-148" fill="#A5B5B6" mask="url(#mask-4)"></path>
                <path d="M40.7505,84.685 L40.6185,84.685 C38.9685,84.685 37.6185,86.036 37.6185,87.685 L37.6185,90.423 C37.6185,88.773 38.9685,87.423 40.6185,87.423 L40.7505,87.423 C42.4005,87.423 43.7505,88.773 43.7505,90.423 L43.7505,87.685 C43.7505,86.036 42.4005,84.685 40.7505,84.685" id="Fill-149" fill="#C5D5D6" mask="url(#mask-4)"></path>
                <path d="M38.3682,94.06 L43.0002,94.06 L43.0002,87.685 C43.0002,86.445 41.9912,85.435 40.7502,85.435 L40.6182,85.435 C39.3772,85.435 38.3682,86.445 38.3682,87.685 L38.3682,94.06 Z M43.7502,95.56 L37.6182,95.56 C37.2042,95.56 36.8682,95.225 36.8682,94.81 L36.8682,87.685 C36.8682,85.618 38.5502,83.935 40.6182,83.935 L40.7502,83.935 C42.8182,83.935 44.5002,85.618 44.5002,87.685 L44.5002,94.81 C44.5002,95.225 44.1652,95.56 43.7502,95.56 L43.7502,95.56 Z" id="Fill-150" fill="#354546" mask="url(#mask-4)"></path>
                <polygon id="Fill-151" fill="#A5B5B6" mask="url(#mask-4)" points="63.396 107.861 68.083 107.861 68.083 98.861 63.396 98.861"></polygon>
                <polygon id="Fill-152" fill="#C5D5D6" mask="url(#mask-4)" points="63.396 102.437 68.083 102.437 68.083 98.861 63.396 98.861"></polygon>
                <path d="M64.146,107.111 L67.334,107.111 L67.334,99.611 L64.146,99.611 L64.146,107.111 Z M68.084,108.611 L63.396,108.611 C62.982,108.611 62.646,108.275 62.646,107.861 L62.646,98.861 C62.646,98.446 62.982,98.111 63.396,98.111 L68.084,98.111 C68.498,98.111 68.834,98.446 68.834,98.861 L68.834,107.861 C68.834,108.275 68.498,108.611 68.084,108.611 L68.084,108.611 Z" id="Fill-153" fill="#354546" mask="url(#mask-4)"></path>
                <polygon id="Fill-154" fill="#A5B5B6" mask="url(#mask-4)" points="68.077 106.098 71.262 106.098 71.262 90.198 68.077 90.198"></polygon>
                <path d="M68.827,105.348 L70.512,105.348 L70.512,90.948 L68.827,90.948 L68.827,105.348 Z M71.262,106.848 L68.077,106.848 C67.663,106.848 67.327,106.512 67.327,106.098 L67.327,90.198 C67.327,89.784 67.663,89.448 68.077,89.448 L71.262,89.448 C71.676,89.448 72.012,89.784 72.012,90.198 L72.012,106.098 C72.012,106.512 71.676,106.848 71.262,106.848 L71.262,106.848 Z" id="Fill-155" fill="#354546" mask="url(#mask-4)"></path>
                <path d="M69.6036,84.685 L69.7356,84.685 C71.3856,84.685 72.7356,86.036 72.7356,87.685 L72.7356,94.81 L66.6036,94.81 L66.6036,87.685 C66.6036,86.036 67.9536,84.685 69.6036,84.685" id="Fill-156" fill="#A5B5B6" mask="url(#mask-4)"></path>
                <path d="M69.6036,84.685 L69.7356,84.685 C71.3856,84.685 72.7356,86.036 72.7356,87.685 L72.7356,90.423 C72.7356,88.773 71.3856,87.423 69.7356,87.423 L69.6036,87.423 C67.9536,87.423 66.6036,88.773 66.6036,90.423 L66.6036,87.685 C66.6036,86.036 67.9536,84.685 69.6036,84.685" id="Fill-157" fill="#C5D5D6" mask="url(#mask-4)"></path>
                <path d="M67.3536,94.06 L71.9856,94.06 L71.9856,87.685 C71.9856,86.445 70.9766,85.435 69.7356,85.435 L69.6036,85.435 C68.3626,85.435 67.3536,86.445 67.3536,87.685 L67.3536,94.06 Z M72.7356,95.56 L66.6036,95.56 C66.1886,95.56 65.8536,95.225 65.8536,94.81 L65.8536,87.685 C65.8536,85.618 67.5356,83.935 69.6036,83.935 L69.7356,83.935 C71.8036,83.935 73.4856,85.618 73.4856,87.685 L73.4856,94.81 C73.4856,95.225 73.1496,95.56 72.7356,95.56 L72.7356,95.56 Z" id="Fill-158" fill="#354546" mask="url(#mask-4)"></path>
                <path d="M63.2583,115.3608 C63.2583,117.0098 61.9083,118.3608 60.2583,118.3608 L49.9583,118.3608 C48.3083,118.3608 46.9583,117.0098 46.9583,115.3608 L46.9583,91.3608 C46.9583,89.7108 48.3083,88.3608 49.9583,88.3608 L60.2583,88.3608 C61.9083,88.3608 63.2583,89.7108 63.2583,91.3608 L63.2583,115.3608 Z" id="Fill-159" fill="#6D6D6D" mask="url(#mask-4)"></path>
                <path d="M60.2583,113.7856 L49.9583,113.7856 C48.6183,113.7856 47.3773,112.8946 46.9583,111.6776 L46.9583,115.3606 C46.9583,117.0106 48.3083,118.3606 49.9583,118.3606 L60.2583,118.3606 C61.9083,118.3606 63.2583,117.0106 63.2583,115.3606 L63.2583,111.6776 C62.8393,112.8946 61.5983,113.7856 60.2583,113.7856" id="Fill-160" fill="#5B5B5B" mask="url(#mask-4)"></path>
                <polygon id="Fill-161" fill="#929292" mask="url(#mask-4)" points="63.1675 101.4106 46.9585 100.0596 47.0485 96.0106 63.1675 96.0106"></polygon>
                <polygon id="Fill-162" fill="#929292" mask="url(#mask-4)" points="63.1675 104.56 47.0485 105.665 47.0485 102.964 63.1675 102.964"></polygon>
                <path d="M49.9581,89.1108 C48.7171,89.1108 47.7081,90.1198 47.7081,91.3608 L47.7081,115.3608 C47.7081,116.6008 48.7171,117.6108 49.9581,117.6108 L60.2581,117.6108 C61.4991,117.6108 62.5081,116.6008 62.5081,115.3608 L62.5081,91.3608 C62.5081,90.1198 61.4991,89.1108 60.2581,89.1108 L49.9581,89.1108 Z M60.2581,119.1108 L49.9581,119.1108 C47.8901,119.1108 46.2081,117.4278 46.2081,115.3608 L46.2081,91.3608 C46.2081,89.2928 47.8901,87.6108 49.9581,87.6108 L60.2581,87.6108 C62.3261,87.6108 64.0081,89.2928 64.0081,91.3608 L64.0081,115.3608 C64.0081,117.4278 62.3261,119.1108 60.2581,119.1108 L60.2581,119.1108 Z" id="Fill-163" fill="#121212" mask="url(#mask-4)"></path>
                <path d="M63.295,84.685 L46.921,84.685 C45.14,84.685 43.682,86.036 43.682,87.685 L43.682,92.036 L66.534,92.036 L66.534,87.685 C66.534,86.036 65.077,84.685 63.295,84.685" id="Fill-164" fill="#A5B5B6" mask="url(#mask-4)"></path>
                <path d="M63.295,84.685 L46.921,84.685 C45.14,84.685 43.682,86.036 43.682,87.685 L66.534,87.685 C66.534,86.036 65.077,84.685 63.295,84.685" id="Fill-165" fill="#C5D5D6" mask="url(#mask-4)"></path>
                <path d="M44.4317,91.2856 L65.7847,91.2856 L65.7847,87.6846 C65.7847,86.4446 64.6677,85.4346 63.2947,85.4346 L46.9207,85.4346 C45.5487,85.4346 44.4317,86.4446 44.4317,87.6846 L44.4317,91.2856 Z M66.5347,92.7856 L43.6817,92.7856 C43.2677,92.7856 42.9317,92.4496 42.9317,92.0356 L42.9317,87.6846 C42.9317,85.6176 44.7217,83.9346 46.9207,83.9346 L63.2947,83.9346 C65.4947,83.9346 67.2847,85.6176 67.2847,87.6846 L67.2847,92.0356 C67.2847,92.4496 66.9487,92.7856 66.5347,92.7856 L66.5347,92.7856 Z" id="Fill-166" fill="#354546" mask="url(#mask-4)"></path>
                <path d="M50.608,86.8667 C50.194,86.8667 49.858,86.5307 49.858,86.1167 L49.858,83.6307 C49.858,83.2167 50.194,82.8807 50.608,82.8807 C51.023,82.8807 51.358,83.2167 51.358,83.6307 L51.358,86.1167 C51.358,86.5307 51.023,86.8667 50.608,86.8667" id="Fill-167" fill="#354546" mask="url(#mask-4)"></path>
                <path d="M53.608,86.8667 C53.194,86.8667 52.858,86.5307 52.858,86.1167 L52.858,83.6307 C52.858,83.2167 53.194,82.8807 53.608,82.8807 C54.023,82.8807 54.358,83.2167 54.358,83.6307 L54.358,86.1167 C54.358,86.5307 54.023,86.8667 53.608,86.8667" id="Fill-168" fill="#354546" mask="url(#mask-4)"></path>
                <path d="M56.608,86.8667 C56.194,86.8667 55.858,86.5307 55.858,86.1167 L55.858,83.6307 C55.858,83.2167 56.194,82.8807 56.608,82.8807 C57.023,82.8807 57.358,83.2167 57.358,83.6307 L57.358,86.1167 C57.358,86.5307 57.023,86.8667 56.608,86.8667" id="Fill-169" fill="#354546" mask="url(#mask-4)"></path>
                <path d="M59.608,86.8667 C59.194,86.8667 58.858,86.5307 58.858,86.1167 L58.858,83.6307 C58.858,83.2167 59.194,82.8807 59.608,82.8807 C60.023,82.8807 60.358,83.2167 60.358,83.6307 L60.358,86.1167 C60.358,86.5307 60.023,86.8667 59.608,86.8667" id="Fill-170" fill="#354546" mask="url(#mask-4)"></path>
                <path d="M77.4595,21.1128 C77.4485,21.1128 77.4385,21.1128 77.4275,21.1118 C77.0135,21.0938 76.6915,20.7448 76.7095,20.3308 L77.1395,10.2088 C77.2765,6.4938 74.3615,3.3558 70.6425,3.2188 C70.6355,3.2178 70.6285,3.2178 70.6215,3.2168 L44.5615,1.5048 C42.7725,1.4418 41.0585,2.0828 39.7355,3.3118 C38.4095,4.5418 37.6435,6.2078 37.5775,8.0018 L37.1475,18.8748 C37.1315,19.2888 36.7825,19.6118 36.3685,19.5948 C35.9545,19.5788 35.6325,19.2298 35.6485,18.8158 L36.0785,7.9448 C36.1595,5.7518 37.0955,3.7158 38.7145,2.2128 C40.3335,0.7088 42.4355,-0.0772 44.6265,0.0068 C44.6345,0.0068 44.6415,0.0068 44.6485,0.0078 L70.7095,1.7198 C75.2505,1.8938 78.8055,5.7258 78.6375,10.2688 L78.2085,20.3948 C78.1915,20.7978 77.8585,21.1128 77.4595,21.1128" id="Fill-171" fill="#354546" mask="url(#mask-4)"></path>
                <path d="M32.1153,19.7641 C30.8213,19.7161 29.7133,21.0261 29.6523,22.6751 L29.2783,32.8091 C29.2173,34.4581 30.2253,35.8461 31.5193,35.8931 C32.8133,35.9411 33.8713,35.9801 33.8713,35.9801 L34.4673,19.8511 C34.4673,19.8511 33.4093,19.8121 32.1153,19.7641" id="Fill-172" fill="#A5B5B6" mask="url(#mask-4)"></path>
                <path d="M29.6524,22.6753 L29.4694,27.6343 L34.1734,27.8083 L34.4674,19.8513 C34.4674,19.8513 33.4094,19.8123 32.1154,19.7643 C30.8214,19.7163 29.7134,21.0263 29.6524,22.6753" id="Fill-173" fill="#C5D5D6" mask="url(#mask-4)"></path>
                <path d="M33.8721,36.7304 L33.8441,36.7304 L31.4921,36.6434 C30.6431,36.6114 29.8391,36.1564 29.2841,35.3924 C28.7611,34.6734 28.4931,33.7454 28.5281,32.7814 L28.9031,22.6474 C28.9791,20.5814 30.4351,18.9564 32.1431,19.0144 L34.4951,19.1014 C34.9091,19.1164 35.2321,19.4644 35.2171,19.8784 C35.2021,20.2934 34.8541,20.6134 34.4401,20.6004 L32.0871,20.5134 C31.2181,20.4814 30.4471,21.4834 30.4021,22.7024 L30.0271,32.8364 C30.0041,33.4584 30.1761,34.0684 30.4971,34.5104 C30.7841,34.9044 31.1561,35.1294 31.5471,35.1444 L33.8991,35.2304 C34.3131,35.2464 34.6361,35.5944 34.6211,36.0084 C34.6061,36.4124 34.2731,36.7304 33.8721,36.7304" id="Fill-174" fill="#354546" mask="url(#mask-4)"></path>
                <polygon id="Fill-175" fill="#859596" mask="url(#mask-4)" points="38.1875 38.5395 33.7835 38.3765 34.5075 18.7755 38.9115 18.9385"></polygon>
                <polygon id="Fill-176" fill="#A5B5B6" mask="url(#mask-4)" points="38.4971 30.1528 34.0931 29.9898 34.5071 18.7758 38.9121 18.9388"></polygon>
                <path d="M34.5601,37.6548 L37.4651,37.7618 L38.1341,19.6598 L35.2291,19.5528 L34.5601,37.6548 Z M38.1881,39.2898 C38.1781,39.2898 38.1691,39.2888 38.1601,39.2888 L33.7551,39.1268 C33.5571,39.1188 33.3691,39.0328 33.2331,38.8868 C33.0981,38.7408 33.0261,38.5478 33.0341,38.3488 L33.7581,18.7478 C33.7651,18.5498 33.8511,18.3618 33.9971,18.2258 C34.1431,18.0908 34.3371,18.0198 34.5351,18.0268 L38.9391,18.1888 C39.3531,18.2038 39.6761,18.5518 39.6611,18.9668 L38.9361,38.5668 C38.9221,38.9718 38.5891,39.2898 38.1881,39.2898 L38.1881,39.2898 Z" id="Fill-177" fill="#354546" mask="url(#mask-4)"></path>
                <path d="M29.4693,28.3847 L29.4683,28.3847 L27.6663,28.3817 C27.2523,28.3807 26.9173,28.0447 26.9183,27.6297 C26.9193,27.2167 27.2543,26.8817 27.6683,26.8817 L27.6693,26.8817 L29.4703,26.8847 C29.8853,26.8857 30.2193,27.2217 30.2193,27.6357 C30.2183,28.0507 29.8833,28.3847 29.4693,28.3847" id="Fill-178" fill="#354546" mask="url(#mask-4)"></path>
                <path d="M84.5435,10.5556 C84.4575,10.5556 84.3705,10.5446 84.2835,10.5226 C83.7215,10.3796 83.3815,9.8076 83.5255,9.2456 L84.3015,6.1976 C84.4445,5.6356 85.0155,5.2966 85.5785,5.4396 C86.1405,5.5826 86.4805,6.1546 86.3365,6.7166 L85.5605,9.7646 C85.4395,10.2396 85.0125,10.5556 84.5435,10.5556" id="Fill-179" fill="#354546" mask="url(#mask-4)"></path>
                <path d="M81.4654,22.3374 C81.4034,22.3374 81.3414,22.3304 81.2794,22.3144 C80.8784,22.2124 80.6354,21.8034 80.7374,21.4024 L83.8164,9.3204 C83.9184,8.9194 84.3264,8.6764 84.7284,8.7784 C85.1294,8.8804 85.3714,9.2894 85.2694,9.6904 L82.1914,21.7724 C82.1054,22.1114 81.7994,22.3374 81.4654,22.3374" id="Fill-180" fill="#354546" mask="url(#mask-4)"></path>
                <path d="M81.4649,21.5874 C82.7579,21.6354 83.7669,23.0234 83.7059,24.6724 L83.3319,34.8064 C83.2709,36.4544 82.1629,37.7644 80.8689,37.7164 C79.5749,37.6694 78.5169,37.6294 78.5169,37.6294 L79.1119,21.5004 C79.1119,21.5004 80.1709,21.5394 81.4649,21.5874" id="Fill-181" fill="#A5B5B6" mask="url(#mask-4)"></path>
                <path d="M83.7061,24.6723 L83.5231,29.6313 L78.8181,29.4583 L79.1121,21.5003 C79.1121,21.5003 80.1711,21.5393 81.4651,21.5873 C82.7581,21.6353 83.7671,23.0233 83.7061,24.6723" id="Fill-182" fill="#C5D5D6" mask="url(#mask-4)"></path>
                <path d="M80.9371,38.4682 C80.9051,38.4682 80.8731,38.4682 80.8411,38.4672 L78.4891,38.3792 C78.0751,38.3642 77.7521,38.0162 77.7671,37.6022 C77.7821,37.1882 78.1301,36.8652 78.5441,36.8802 L80.8961,36.9672 C81.7621,37.0002 82.5371,35.9972 82.5821,34.7782 L82.9571,24.6442 C82.9791,24.0232 82.8081,23.4122 82.4871,22.9702 C82.2001,22.5762 81.8281,22.3512 81.4371,22.3372 L79.0851,22.2502 L79.1401,20.7512 L81.4921,20.8382 C82.3411,20.8692 83.1451,21.3252 83.7001,22.0882 C84.2231,22.8082 84.4911,23.7352 84.4561,24.6992 L84.0811,34.8332 C84.0061,36.8612 82.6051,38.4682 80.9371,38.4682" id="Fill-183" fill="#354546" mask="url(#mask-4)"></path>
                <polygon id="Fill-184" fill="#859596" mask="url(#mask-4)" points="74.024 39.8633 78.428 40.0263 79.152 20.4253 74.748 20.2623"></polygon>
                <polygon id="Fill-185" fill="#A5B5B6" mask="url(#mask-4)" points="74.3335 31.477 78.7375 31.64 79.1525 20.425 74.7485 20.262"></polygon>
                <path d="M74.8008,39.1416 L77.7058,39.2486 L78.3748,21.1466 L75.4698,21.0396 L74.8008,39.1416 Z M78.4278,40.7766 C78.4188,40.7766 78.4098,40.7756 78.4008,40.7756 L73.9958,40.6126 C73.5818,40.5976 73.2588,40.2496 73.2748,39.8356 L73.9988,20.2346 C74.0058,20.0366 74.0918,19.8486 74.2378,19.7126 C74.3838,19.5776 74.5768,19.5076 74.7758,19.5126 L79.1798,19.6756 C79.5938,19.6906 79.9168,20.0386 79.9018,20.4526 L79.1778,40.0536 C79.1698,40.2526 79.0838,40.4406 78.9388,40.5756 C78.7998,40.7046 78.6168,40.7766 78.4278,40.7766 L78.4278,40.7766 Z" id="Fill-186" fill="#354546" mask="url(#mask-4)"></path>
                <path d="M85.3204,30.5112 C85.3024,30.5112 85.2834,30.5112 85.2654,30.5092 L83.4694,30.3802 C83.0564,30.3502 82.7454,29.9912 82.7754,29.5782 C82.8044,29.1652 83.1644,28.8562 83.5764,28.8842 L85.3734,29.0132 C85.7864,29.0432 86.0974,29.4022 86.0674,29.8152 C86.0394,30.2102 85.7104,30.5112 85.3204,30.5112" id="Fill-187" fill="#354546" mask="url(#mask-4)"></path>
                <path d="M38.1192,44.6767 C37.0922,44.6767 34.4842,45.7907 33.3792,47.0517 C32.4402,48.1207 32.2892,49.9067 33.0502,50.9517 C33.3612,51.3787 33.7712,51.6147 34.2352,51.6357 C34.7662,51.6587 35.3242,51.3867 35.7652,50.8847 C36.2972,50.2777 37.2102,48.8977 37.8542,47.5357 C38.6872,45.7737 38.6552,44.9627 38.5222,44.7797 C38.4812,44.7237 38.3522,44.6857 38.1772,44.6777 C38.1582,44.6767 38.1392,44.6767 38.1192,44.6767 M34.3002,53.1377 C34.2562,53.1377 34.2122,53.1367 34.1672,53.1347 C33.2452,53.0937 32.4182,52.6317 31.8382,51.8347 C30.6542,50.2107 30.8362,47.6747 32.2512,46.0617 C33.2982,44.8687 36.3442,43.0937 38.2452,43.1797 C39.0712,43.2177 39.5112,43.5907 39.7342,43.8967 C40.3462,44.7367 40.1752,46.1367 39.2112,48.1767 C38.5012,49.6777 37.5072,51.1737 36.8922,51.8737 C36.1822,52.6817 35.2442,53.1377 34.3002,53.1377" id="Fill-188" fill="#19B5FE" mask="url(#mask-4)"></path>
                <path d="M72.5489,42.8989 C72.0909,42.8989 71.7369,42.9739 71.5699,43.1509 C71.4449,43.2819 71.4519,43.5429 71.4789,43.7379 C71.6519,44.9759 72.9939,46.7289 73.7449,47.1729 C74.7039,47.7409 76.2659,47.4299 77.1539,46.4939 C77.5799,46.0459 77.7869,45.5199 77.7219,45.0499 C77.6699,44.6749 77.4489,44.3629 77.0829,44.1479 C76.0179,43.5169 73.8589,42.8989 72.5489,42.8989 M74.8909,48.9599 C74.2109,48.9599 73.5479,48.7989 72.9819,48.4639 C71.8169,47.7749 70.2249,45.6069 69.9929,43.9449 C69.8609,42.9989 70.1869,42.4289 70.4829,42.1179 C72.1089,40.4059 76.7959,42.2339 77.8469,42.8559 C78.6089,43.3069 79.0919,44.0119 79.2079,44.8429 C79.3359,45.7669 78.9839,46.7459 78.2419,47.5269 C77.3589,48.4559 76.0969,48.9599 74.8909,48.9599" id="Fill-189" fill="#19B5FE" mask="url(#mask-4)"></path>
                <path d="M31.7505,41.7397 C31.3385,41.7397 30.9855,41.7707 30.7245,41.8357 C29.1055,42.2327 28.0285,44.0837 28.3235,45.9617 C28.4725,46.9127 28.9645,47.7287 29.6725,48.1997 C30.2635,48.5927 30.9655,48.7167 31.6495,48.5487 C32.5465,48.3277 34.2635,47.5817 35.6795,46.6337 C37.1505,45.6477 37.9685,44.6737 37.8665,44.0267 C37.8065,43.6427 37.4055,43.3037 37.0795,43.0867 C35.7515,42.2037 33.3265,41.7397 31.7505,41.7397 M31.0455,50.1227 C30.2705,50.1227 29.5115,49.8937 28.8425,49.4487 C27.7855,48.7457 27.0565,47.5597 26.8415,46.1947 C26.4285,43.5667 28.0105,40.9577 30.3665,40.3787 C32.1255,39.9467 35.9515,40.5347 37.9105,41.8377 C38.7485,42.3957 39.2325,43.0537 39.3485,43.7947 C39.8145,46.7607 33.9375,49.5317 32.0075,50.0057 C31.6875,50.0837 31.3655,50.1227 31.0455,50.1227" id="Fill-190" fill="#719911" mask="url(#mask-4)"></path>
                <path d="M73.6729,47.3105 C73.5209,51.4325 70.0209,54.7915 65.8959,54.7745 L44.2769,54.6845 C40.1519,54.6675 37.0389,51.2885 37.3599,47.1765 L39.7479,13.3295 C40.0689,9.2165 43.6939,6.1365 47.8039,6.4835 L67.5729,8.1545 C71.6829,8.5015 74.9219,12.1585 74.7689,16.2805 L73.6729,47.3105 Z" id="Fill-191" fill="#A5B5B6" mask="url(#mask-4)"></path>
                <path d="M70.2476,41.0166 C70.1356,44.0476 67.3316,46.5096 64.0176,46.4866 L46.6466,46.3666 C43.3326,46.3436 40.8236,43.8496 41.0706,40.8266 L42.9076,16.9306 C43.1546,13.9066 46.0606,11.6496 49.3636,11.9156 L65.2516,13.1946 C68.5546,13.4596 71.1656,16.1576 71.0536,19.1896 L70.2476,41.0166 Z" id="Fill-192" fill="#C5D5D6" mask="url(#mask-4)"></path>
                <path d="M67.4698,51.4355 L43.9758,51.2765 C41.0608,51.2565 38.6068,49.8155 37.3398,47.6795 C37.2988,51.5605 40.3218,54.6675 44.2768,54.6845 L65.8958,54.7745 C69.3548,54.7885 72.3728,52.4285 73.3478,49.2355 C71.8168,50.6055 69.7308,51.4505 67.4698,51.4355" id="Fill-193" fill="#859596" mask="url(#mask-4)"></path>
                <path d="M67.5308,52.1855 L67.4648,52.1855 L43.9708,52.0265 C40.8748,52.0055 38.1558,50.5235 36.6948,48.0615 C36.4828,47.7065 36.6008,47.2455 36.9568,47.0345 C37.3128,46.8235 37.7728,46.9405 37.9848,47.2965 C39.1748,49.3015 41.4158,50.5085 43.9808,50.5265 L67.4748,50.6855 C69.4738,50.6945 71.3848,49.9855 72.8478,48.6765 C73.1558,48.3995 73.6308,48.4265 73.9068,48.7345 C74.1828,49.0435 74.1558,49.5185 73.8478,49.7935 C72.1228,51.3375 69.8818,52.1855 67.5308,52.1855" id="Fill-194" fill="#354546" mask="url(#mask-4)"></path>
                <path d="M73.6729,47.3105 L73.6739,47.3105 L73.6729,47.3105 Z M47.1689,7.2065 C45.5849,7.2065 44.0659,7.7645 42.8399,8.8055 C41.4669,9.9725 40.6349,11.5995 40.4949,13.3875 L38.1079,47.2285 C37.9689,49.0135 38.5349,50.6905 39.7029,51.9575 C40.8699,53.2255 42.4949,53.9275 44.2789,53.9345 L65.8989,54.0245 L65.9279,54.0245 C69.6499,54.0245 72.7849,51.0065 72.9229,47.2835 L74.0199,16.2535 C74.1579,12.5145 71.2369,9.2165 67.5099,8.9015 L47.7409,7.2305 C47.5489,7.2145 47.3589,7.2065 47.1689,7.2065 L47.1689,7.2065 Z M65.9269,55.5245 L65.8929,55.5245 L44.2729,55.4345 C42.0679,55.4255 40.0519,54.5515 38.5989,52.9745 C37.1459,51.3965 36.4409,49.3165 36.6119,47.1175 L38.9989,13.2765 C39.1709,11.0815 40.1899,9.0895 41.8689,7.6625 C43.5479,6.2355 45.6789,5.5525 47.8669,5.7365 L67.6359,7.4065 C72.1499,7.7885 75.6859,11.7815 75.5189,16.3085 L74.4229,47.3365 L74.4229,47.3375 C74.2549,51.8595 70.4479,55.5245 65.9269,55.5245 L65.9269,55.5245 Z" id="Fill-195" fill="#354546" mask="url(#mask-4)"></path>
                <path d="M57.146,16.2964 C53.038,16.2964 48.142,15.0344 48.142,9.0244 C48.142,8.0814 48.264,7.4554 48.503,6.5624 C48.611,6.1624 49.023,5.9254 49.422,6.0324 C49.823,6.1394 50.06,6.5514 49.952,6.9514 C49.737,7.7504 49.642,8.2394 49.642,9.0244 C49.642,10.4524 49.642,14.7964 57.146,14.7964 C64.683,14.7964 64.683,10.4524 64.683,9.0244 C64.683,8.7064 64.666,8.3864 64.634,8.0724 C64.591,7.6604 64.891,7.2914 65.303,7.2494 C65.715,7.2084 66.084,7.5064 66.126,7.9184 C66.164,8.2834 66.183,8.6554 66.183,9.0244 C66.183,12.3414 64.615,16.2964 57.146,16.2964" id="Fill-196" fill="#354546" mask="url(#mask-4)"></path>
                <path d="M52.3633,25.9433 C52.1983,30.4133 48.4403,33.9033 43.9693,33.7383 C39.4993,33.5733 36.0093,29.8153 36.1743,25.3453 C36.3403,20.8743 40.0973,17.3843 44.5683,17.5493 C49.0383,17.7143 52.5283,21.4723 52.3633,25.9433" id="Fill-197" fill="#C5D5D6" mask="url(#mask-4)"></path>
                <path d="M44.2623,18.2939 C42.4023,18.2939 40.6373,18.9859 39.2673,20.2579 C37.8283,21.5949 36.9963,23.4109 36.9243,25.3729 C36.7743,29.4229 39.9483,32.8389 43.9973,32.9889 C44.0893,32.9929 44.1813,32.9939 44.2723,32.9939 C48.2013,32.9949 51.4683,29.8739 51.6143,25.9159 C51.6863,23.9539 50.9913,22.0809 49.6543,20.6419 C48.3183,19.2039 46.5023,18.3719 44.5403,18.2989 C44.4473,18.2959 44.3543,18.2939 44.2623,18.2939 M44.2733,34.4939 C44.1633,34.4939 44.0533,34.4919 43.9423,34.4879 C39.0653,34.3079 35.2443,30.1939 35.4253,25.3169 C35.5123,22.9549 36.5143,20.7679 38.2463,19.1589 C39.9783,17.5509 42.2333,16.7119 44.5953,16.7999 C46.9583,16.8869 49.1453,17.8889 50.7533,19.6219 C52.3623,21.3539 53.2003,23.6079 53.1133,25.9709 C52.9373,30.7369 49.0033,34.4939 44.2733,34.4939" id="Fill-198" fill="#354546" mask="url(#mask-4)"></path>
                <path d="M49.4883,25.8369 C49.3823,28.7189 46.9583,30.9699 44.0763,30.8629 C41.1943,30.7569 38.9433,28.3339 39.0503,25.4509 C39.1563,22.5689 41.5793,20.3179 44.4623,20.4249 C47.3443,20.5309 49.5943,22.9549 49.4883,25.8369" id="Fill-199" fill="#9ABD45" mask="url(#mask-4)"></path>
                <path d="M47.5699,24.2353 C47.5039,26.0273 45.9969,27.4253 44.2059,27.3593 C42.4139,27.2933 41.0149,25.7873 41.0809,23.9953 C41.1479,22.2033 42.6529,20.8043 44.4449,20.8713 C46.2369,20.9373 47.6359,22.4433 47.5699,24.2353" id="Fill-200" fill="#CEEC87" mask="url(#mask-4)"></path>
                <path d="M49.4883,25.8369 L49.4893,25.8369 L49.4883,25.8369 Z M44.2643,21.1709 C43.1333,21.1709 42.0593,21.5919 41.2253,22.3669 C40.3493,23.1799 39.8433,24.2849 39.7993,25.4789 C39.7083,27.9439 41.6393,30.0229 44.1043,30.1139 C46.5683,30.2079 48.6473,28.2739 48.7383,25.8099 C48.8293,23.3449 46.8983,21.2659 44.4343,21.1739 C44.3773,21.1719 44.3213,21.1709 44.2643,21.1709 L44.2643,21.1709 Z M44.2713,31.6169 C44.1973,31.6169 44.1233,31.6159 44.0483,31.6129 C40.7573,31.4909 38.1783,28.7149 38.3003,25.4239 C38.3593,23.8289 39.0353,22.3539 40.2043,21.2679 C41.3733,20.1819 42.8963,19.6159 44.4893,19.6749 C47.7803,19.7969 50.3593,22.5739 50.2383,25.8649 C50.1183,29.0809 47.4643,31.6169 44.2713,31.6169 L44.2713,31.6169 Z" id="Fill-201" fill="#354546" mask="url(#mask-4)"></path>
                <path d="M45.6148,22.1694 C45.9468,22.9114 44.9088,23.5454 43.5518,24.1524 C42.1938,24.7604 41.0298,25.1114 40.6978,24.3704 C40.3658,23.6284 41.1978,22.5344 42.5548,21.9264 C43.9128,21.3194 45.2828,21.4274 45.6148,22.1694" id="Fill-202" fill="#FFFFFF" mask="url(#mask-4)"></path>
                <path d="M44.6778,29.3501 C44.5918,29.1581 44.8608,28.9931 45.2138,28.8351 C45.5658,28.6781 45.8678,28.5861 45.9538,28.7791 C46.0398,28.9721 45.8238,29.2551 45.4718,29.4131 C45.1198,29.5711 44.7638,29.5431 44.6778,29.3501" id="Fill-203" fill="#FFFFFF" mask="url(#mask-4)"></path>
                <path d="M49.0723,25.7827 C49.0473,26.4637 48.4743,26.9947 47.7943,26.9697 C47.1143,26.9447 46.5823,26.3717 46.6083,25.6917 C46.6333,25.0117 47.2053,24.4797 47.8853,24.5057 C48.5663,24.5307 49.0973,25.1027 49.0723,25.7827" id="Fill-204" fill="#354546" mask="url(#mask-4)"></path>
                <path d="M75.2017,27.2905 C75.0617,31.0785 71.8777,32.3865 68.0897,32.2465 C64.3007,32.1065 61.3437,30.5715 61.4837,26.7835 C61.6237,22.9955 64.8077,20.0385 68.5957,20.1775 C72.3847,20.3175 75.3417,23.5025 75.2017,27.2905" id="Fill-205" fill="#C5D5D6" mask="url(#mask-4)"></path>
                <path d="M75.2017,27.2905 L75.2027,27.2905 L75.2017,27.2905 Z M68.3397,20.9235 C65.0717,20.9235 62.3547,23.5195 62.2327,26.8115 C62.1757,28.3525 62.6747,29.4865 63.7557,30.2775 C64.7527,31.0065 66.2607,31.4285 68.1167,31.4965 C69.9887,31.5665 71.5467,31.2565 72.6237,30.6005 C73.7977,29.8865 74.3957,28.7945 74.4517,27.2625 C74.5767,23.8945 71.9367,21.0515 68.5687,20.9275 C68.4917,20.9245 68.4157,20.9235 68.3397,20.9235 L68.3397,20.9235 Z M68.6157,33.0065 C68.4327,33.0065 68.2487,33.0025 68.0617,32.9955 C65.8737,32.9155 64.1267,32.4075 62.8697,31.4885 C61.3977,30.4115 60.6597,28.7745 60.7337,26.7555 C60.8887,22.5605 64.4297,19.2785 68.6237,19.4285 C72.8197,19.5835 76.1067,23.1235 75.9517,27.3185 C75.8767,29.3355 74.9957,30.9135 73.4037,31.8825 C72.1887,32.6215 70.5417,33.0065 68.6157,33.0065 L68.6157,33.0065 Z" id="Fill-206" fill="#354546" mask="url(#mask-4)"></path>
                <path d="M72.7652,27.2007 C72.6752,29.6427 70.6212,29.8997 68.1792,29.8097 C65.7362,29.7197 63.8292,29.3167 63.9202,26.8737 C64.0102,24.4307 66.0632,22.5237 68.5062,22.6147 C70.9492,22.7047 72.8552,24.7577 72.7652,27.2007" id="Fill-207" fill="#19B5FE" mask="url(#mask-4)"></path>
                <path d="M71.0918,25.6679 C71.0358,27.1859 69.8608,27.7499 68.3418,27.6939 C66.8238,27.6379 65.5368,26.9829 65.5928,25.4649 C65.6498,23.9459 66.9258,22.7609 68.4448,22.8169 C69.9628,22.8729 71.1478,24.1489 71.0918,25.6679" id="Fill-208" fill="#39D5FF" mask="url(#mask-4)"></path>
                <path d="M68.3394,23.3613 C67.4084,23.3613 66.5264,23.7073 65.8414,24.3433 C65.1214,25.0113 64.7054,25.9203 64.6694,26.9013 C64.6114,28.4533 65.4384,28.9583 68.2074,29.0603 C69.1374,29.0943 70.3024,29.0923 71.0574,28.7663 C71.5094,28.5713 71.9764,28.2293 72.0154,27.1733 C72.0904,25.1473 70.5034,23.4383 68.4784,23.3633 C68.4314,23.3623 68.3854,23.3613 68.3394,23.3613 M68.9214,30.5753 C68.6594,30.5753 68.4014,30.5693 68.1514,30.5593 C66.4924,30.4983 63.0404,30.3703 63.1704,26.8463 C63.2214,25.4643 63.8074,24.1853 64.8204,23.2443 C65.8334,22.3033 67.1524,21.8153 68.5334,21.8643 C71.3854,21.9703 73.6204,24.3763 73.5144,27.2283 C73.4624,28.6523 72.8354,29.6323 71.6524,30.1433 C70.8484,30.4903 69.8654,30.5753 68.9214,30.5753" id="Fill-209" fill="#354546" mask="url(#mask-4)"></path>
                <path d="M69.483,24.0927 C69.764,24.7207 68.885,25.2587 67.735,25.7737 C66.584,26.2887 65.598,26.5867 65.316,25.9577 C65.035,25.3287 65.74,24.4017 66.89,23.8867 C68.041,23.3717 69.202,23.4647 69.483,24.0927" id="Fill-210" fill="#FFFFFF" mask="url(#mask-4)"></path>
                <path d="M69.8003,28.5874 C69.7273,28.4244 69.9553,28.2854 70.2543,28.1514 C70.5523,28.0174 70.8083,27.9404 70.8813,28.1034 C70.9543,28.2664 70.7713,28.5074 70.4733,28.6404 C70.1743,28.7744 69.8733,28.7504 69.8003,28.5874" id="Fill-211" fill="#FFFFFF" mask="url(#mask-4)"></path>
                <path d="M66.4258,27.0049 C66.4048,27.5819 65.9198,28.0319 65.3428,28.0109 C64.7658,27.9889 64.3158,27.5049 64.3378,26.9279 C64.3588,26.3509 64.8438,25.9009 65.4198,25.9219 C65.9968,25.9439 66.4468,26.4279 66.4258,27.0049" id="Fill-212" fill="#354546" mask="url(#mask-4)"></path>
                <path d="M44.4048,40.6382 L67.1508,35.5562 C67.1508,35.5562 68.4288,42.5632 62.8978,44.6072 C53.1558,48.2082 44.4048,40.6382 44.4048,40.6382" id="Fill-213" fill="#FFFFFF" mask="url(#mask-4)"></path>
                <path d="M44.4048,40.6382 L44.4058,40.6382 L44.4048,40.6382 Z M46.1578,41.0152 C47.1108,41.6692 48.5558,42.5522 50.3328,43.3012 C54.6558,45.1202 58.7958,45.3242 62.6368,43.9042 C66.4898,42.4802 66.6208,38.2332 66.4988,36.4702 L46.1578,41.0152 Z M57.4478,46.3212 C54.9218,46.3212 52.3108,45.7672 49.7058,44.6632 C46.2308,43.1922 44.0068,41.2862 43.9138,41.2052 C43.6998,41.0202 43.6088,40.7302 43.6768,40.4552 C43.7468,40.1802 43.9648,39.9682 44.2408,39.9062 L66.9868,34.8242 C67.1858,34.7802 67.3948,34.8182 67.5648,34.9312 C67.7348,35.0442 67.8518,35.2212 67.8878,35.4222 C67.9028,35.4992 68.2278,37.3332 67.8358,39.4512 C67.2988,42.3522 65.6808,44.3782 63.1568,45.3112 C61.3338,45.9852 59.4158,46.3212 57.4478,46.3212 L57.4478,46.3212 Z" id="Fill-214" fill="#354546" mask="url(#mask-4)"></path>
                <path d="M50.8296,45.0561 C50.4546,45.0561 50.1306,44.7751 50.0856,44.3931 L49.5006,39.4211 C49.4526,39.0101 49.7466,38.6371 50.1586,38.5881 C50.5696,38.5401 50.9416,38.8341 50.9906,39.2451 L51.5756,44.2181 C51.6236,44.6291 51.3296,45.0021 50.9176,45.0511 C50.8886,45.0541 50.8586,45.0561 50.8296,45.0561" id="Fill-215" fill="#354546" mask="url(#mask-4)"></path>
                <path d="M56.2798,46.0654 C55.8778,46.0654 55.5448,45.7464 55.5308,45.3414 L55.2758,38.0684 C55.2608,37.6544 55.5848,37.3074 55.9988,37.2924 C56.4128,37.2774 56.7598,37.6014 56.7748,38.0154 L57.0298,45.2894 C57.0448,45.7034 56.7208,46.0504 56.3068,46.0654 L56.2798,46.0654" id="Fill-216" fill="#354546" mask="url(#mask-4)"></path>
                <path d="M61.8472,45.3574 C61.4362,45.3574 61.1022,45.0264 61.0972,44.6154 L61.0142,36.7684 C61.0092,36.3534 61.3412,36.0144 61.7552,36.0094 C62.1662,36.0034 62.5092,36.3374 62.5142,36.7524 L62.5972,44.5994 C62.6012,45.0134 62.2692,45.3534 61.8552,45.3574 L61.8472,45.3574 Z" id="Fill-217" fill="#354546" mask="url(#mask-4)"></path>
            </g>
        </g>
    </g>
</svg>