<?xml version="1.0" encoding="UTF-8"?>
<svg width="88px" height="123px" viewBox="0 0 88 123" version="1.1" xmlns="http://www.w3.org/2000/svg" xmlns:xlink="http://www.w3.org/1999/xlink">
    <!-- Generator: Sketch 42 (36781) - http://www.bohemiancoding.com/sketch -->
    <title>21</title>
    <desc>Created with Sketch.</desc>
    <defs>
        <polygon id="path-1" points="0 122.041 87.268 122.041 87.268 0 0 0"></polygon>
    </defs>
    <g id="Page-1" stroke="none" stroke-width="1" fill="none" fill-rule="evenodd">
        <g id="1024" transform="translate(-780.000000, 0.000000)">
            <g id="21" transform="translate(780.000000, 0.000000)">
                <path d="M80.7748,118.2298 C80.7748,120.3348 66.6128,122.0408 49.1418,122.0408 C31.6708,122.0408 17.5078,120.3348 17.5078,118.2298 C17.5078,116.1248 31.6708,114.4188 49.1418,114.4188 C66.6128,114.4188 80.7748,116.1248 80.7748,118.2298 Z" id="Fill-1" fill="#CCCCCC"></path>
                <mask id="mask-2" fill="white">
                    <use xlink:href="#path-1"></use>
                </mask>
                <g id="Clip-4"></g>
                <polygon id="Fill-3" fill="#758586" mask="url(#mask-2)" points="40.759 87.555 56.878 87.555 56.878 75.949 40.759 75.949"></polygon>
                <path d="M41.509,86.804 L56.128,86.804 L56.128,76.698 L41.509,76.698 L41.509,86.804 Z M56.878,88.304 L40.759,88.304 C40.345,88.304 40.009,87.969 40.009,87.554 L40.009,75.948 C40.009,75.534 40.345,75.198 40.759,75.198 L56.878,75.198 C57.292,75.198 57.628,75.534 57.628,75.948 L57.628,87.554 C57.628,87.969 57.292,88.304 56.878,88.304 L56.878,88.304 Z" id="Fill-5" fill="#354546" mask="url(#mask-2)"></path>
                <polygon id="Fill-6" fill="#758586" mask="url(#mask-2)" points="44.419 61.398 53.762 61.398 53.762 52.895 44.419 52.895"></polygon>
                <path d="M45.169,60.648 L53.012,60.648 L53.012,53.645 L45.169,53.645 L45.169,60.648 Z M53.762,62.148 L44.419,62.148 C44.005,62.148 43.669,61.812 43.669,61.398 L43.669,52.895 C43.669,52.481 44.005,52.145 44.419,52.145 L53.762,52.145 C54.176,52.145 54.512,52.481 54.512,52.895 L54.512,61.398 C54.512,61.812 54.176,62.148 53.762,62.148 L53.762,62.148 Z" id="Fill-7" fill="#354546" mask="url(#mask-2)"></path>
                <path d="M53.7631,58.3978 C53.7491,58.3978 53.7361,58.3978 53.7221,58.3968 L44.3791,57.8958 C43.9661,57.8728 43.6491,57.5198 43.6701,57.1058 C43.6931,56.6928 44.0461,56.3758 44.4591,56.3978 L53.8021,56.8988 C54.2161,56.9208 54.5341,57.2748 54.5111,57.6888 C54.4901,58.0878 54.1591,58.3978 53.7631,58.3978" id="Fill-8" fill="#354546" mask="url(#mask-2)"></path>
                <path d="M66.9682,66.5804 C65.4852,67.0454 63.9872,67.5364 62.3632,67.9554 L61.2002,63.3814 C62.5942,63.0244 64.0602,62.5494 65.5472,62.0804 L66.9682,66.5804 Z" id="Fill-9" fill="#F9BF3B" mask="url(#mask-2)"></path>
                <path d="M61.3871,64.1082 L61.0141,62.6552 C62.2101,62.3482 63.4471,61.9582 64.7551,61.5442 L65.3231,61.3652 L65.7731,62.7962 L65.2061,62.9752 C63.8781,63.3942 62.6231,63.7912 61.3871,64.1082" id="Fill-10" fill="#F1892D" mask="url(#mask-2)"></path>
                <path d="M62.5502,68.6815 L62.1762,67.2285 C63.5292,66.8805 64.8132,66.4745 66.0542,66.0825 L66.7432,65.8645 L67.1932,67.2955 L66.5052,67.5125 C65.2452,67.9105 63.9432,68.3225 62.5502,68.6815" id="Fill-11" fill="#F1892D" mask="url(#mask-2)"></path>
                <polygon id="Fill-12" fill="#F1892D" mask="url(#mask-2)" points="64.0004 67.5042 62.6214 62.9912 64.0564 62.5532 65.4354 67.0662"></polygon>
                <path d="M71.3373,65.2831 C69.9003,65.6611 68.4473,66.1131 66.9683,66.5801 L65.5473,62.0811 C67.0373,61.6101 68.5613,61.1351 70.1363,60.7201 L71.3373,65.2831 Z" id="Fill-13" fill="#F9BF3B" mask="url(#mask-2)"></path>
                <path d="M65.7728,62.7962 L65.3218,61.3652 C66.8588,60.8802 68.3688,60.4092 69.9458,59.9942 L70.3278,61.4442 C68.7838,61.8512 67.2928,62.3162 65.7728,62.7962" id="Fill-14" fill="#F1892D" mask="url(#mask-2)"></path>
                <path d="M67.1947,67.2953 L66.7427,65.8653 C68.1637,65.4163 69.6737,64.9453 71.1457,64.5573 L71.5277,66.0083 C70.0887,66.3873 68.5977,66.8523 67.1947,67.2953" id="Fill-15" fill="#F1892D" mask="url(#mask-2)"></path>
                <polygon id="Fill-16" fill="#F1892D" mask="url(#mask-2)" points="68.4506 66.1141 67.0926 61.5951 68.5286 61.1631 69.8876 65.6821"></polygon>
                <path d="M75.557,64.4598 C74.196,64.5988 72.772,64.9048 71.337,65.2828 L70.136,60.7198 C71.713,60.3068 73.342,59.9448 75.081,59.7658 L75.557,64.4598 Z" id="Fill-17" fill="#F9BF3B" mask="url(#mask-2)"></path>
                <path d="M70.3266,61.4452 L69.9466,59.9942 C71.2716,59.6472 73.0446,59.2222 75.0046,59.0192 L75.1586,60.5112 C73.3006,60.7042 71.5996,61.1122 70.3266,61.4452" id="Fill-18" fill="#F1892D" mask="url(#mask-2)"></path>
                <path d="M71.5277,66.0081 L71.1457,64.5571 C72.8427,64.1111 74.2197,63.8421 75.4807,63.7141 L75.6327,65.2061 C74.4527,65.3271 73.1477,65.5821 71.5277,66.0081" id="Fill-19" fill="#F1892D" mask="url(#mask-2)"></path>
                <polygon id="Fill-20" fill="#F1892D" mask="url(#mask-2)" points="72.7387 64.9295 71.8127 60.3025 73.2837 60.0085 74.2097 64.6355"></polygon>
                <path d="M79.1898,64.6991 C78.2158,64.3651 76.9118,64.3191 75.5568,64.4601 L75.0818,59.7651 C75.9508,59.6771 76.8508,59.6381 77.7888,59.6901 C78.7248,59.7481 79.7048,59.8911 80.6968,60.2271 L79.1898,64.6991 Z" id="Fill-21" fill="#F9BF3B" mask="url(#mask-2)"></path>
                <path d="M80.4564,60.9378 C79.6494,60.6648 78.7624,60.5008 77.7424,60.4388 C76.9294,60.3938 76.0814,60.4168 75.1564,60.5118 L75.0054,59.0198 C76.0094,58.9168 76.9334,58.8918 77.8294,58.9408 C78.9884,59.0128 80.0034,59.2008 80.9374,59.5178 L80.4564,60.9378 Z" id="Fill-22" fill="#F1892D" mask="url(#mask-2)"></path>
                <path d="M78.9467,65.4085 C78.1467,65.1345 77.0017,65.0635 75.6347,65.2055 L75.4797,63.7135 C76.5827,63.5995 78.1647,63.5545 79.4337,63.9895 L78.9467,65.4085 Z" id="Fill-23" fill="#F1892D" mask="url(#mask-2)"></path>
                <polygon id="Fill-24" fill="#F1892D" mask="url(#mask-2)" points="78.265 64.4442 76.767 64.3582 77.039 59.6472 78.536 59.7342"></polygon>
                <path d="M81.2494,66.5081 C80.7744,65.5711 80.1664,65.0351 79.1894,64.6991 L80.6964,60.2271 C81.6844,60.5581 82.6824,61.0911 83.5204,61.8321 C84.3574,62.5701 85.0214,63.4791 85.4744,64.4071 L81.2494,66.5081 Z" id="Fill-25" fill="#F9BF3B" mask="url(#mask-2)"></path>
                <path d="M84.8002,64.7357 C84.3652,63.8447 83.7512,63.0357 83.0252,62.3947 C82.3152,61.7667 81.4272,61.2637 80.4582,60.9387 L80.9352,59.5167 C82.0932,59.9047 83.1592,60.5107 84.0172,61.2707 C84.8902,62.0397 85.6282,63.0107 86.1492,64.0787 L84.8002,64.7357 Z" id="Fill-26" fill="#F1892D" mask="url(#mask-2)"></path>
                <path d="M80.5805,66.847 C80.1935,66.083 79.7345,65.68 78.9455,65.409 L79.4345,63.99 C80.5905,64.388 81.3565,65.06 81.9185,66.169 L80.5805,66.847 Z" id="Fill-27" fill="#F1892D" mask="url(#mask-2)"></path>
                <polygon id="Fill-28" fill="#F1892D" mask="url(#mask-2)" points="80.9711 65.8729 79.8431 64.8829 82.9561 61.3369 84.0831 62.3269"></polygon>
                <path d="M81.7445,69.6996 C81.8175,69.1216 81.8195,68.5646 81.7345,68.0356 C81.7205,67.9016 81.6845,67.7736 81.6605,67.6426 C81.6235,67.5146 81.5985,67.3836 81.5525,67.2586 C81.5155,67.1326 81.4635,67.0036 81.4145,66.8726 C81.3905,66.8076 81.3595,66.7496 81.3335,66.6866 C81.3075,66.6246 81.2795,66.5646 81.2495,66.5086 L85.4735,64.4076 C85.5345,64.5236 85.5895,64.6396 85.6395,64.7566 C85.6895,64.8726 85.7455,64.9906 85.7895,65.1066 C85.8805,65.3396 85.9705,65.5736 86.0465,65.8206 C86.1295,66.0626 86.1875,66.3126 86.2545,66.5606 C86.3065,66.8116 86.3645,67.0616 86.3975,67.3146 C86.5575,68.3246 86.5485,69.3406 86.4245,70.3066 L81.7445,69.6996 Z" id="Fill-29" fill="#F9BF3B" mask="url(#mask-2)"></path>
                <path d="M87.1684,70.4017 L85.6804,70.2117 C85.8044,69.2457 85.7964,68.3107 85.6574,67.4317 L85.6544,67.4127 C85.6334,67.2457 85.5954,67.0707 85.5564,66.8857 L85.4854,66.5857 C85.4384,66.4007 85.3934,66.2257 85.3374,66.0647 L85.3284,66.0407 C85.2604,65.8167 85.1774,65.6007 85.0914,65.3807 C85.0634,65.3067 85.0324,65.2387 85.0024,65.1717 L84.9504,65.0537 C84.9044,64.9457 84.8574,64.8477 84.8094,64.7537 L86.1404,64.0617 C86.2064,64.1897 86.2684,64.3197 86.3284,64.4607 L86.3724,64.5607 C86.4134,64.6537 86.4554,64.7467 86.4904,64.8397 C86.5794,65.0687 86.6764,65.3197 86.7594,65.5887 C86.8324,65.8017 86.8864,66.0087 86.9384,66.2097 L86.9884,66.4097 L87.0224,66.5737 C87.0654,66.7757 87.1104,66.9847 87.1404,67.2067 C87.3004,68.2237 87.3104,69.2977 87.1684,70.4017" id="Fill-30" fill="#F1892D" mask="url(#mask-2)"></path>
                <path d="M82.4887,69.7938 L81.0007,69.6058 C81.0667,69.0808 81.0647,68.5928 80.9947,68.1548 L80.9897,68.1188 C80.9847,68.0708 80.9717,68.0118 80.9567,67.9428 L80.9297,67.8148 C80.9187,67.7728 80.9077,67.7308 80.8967,67.6878 C80.8807,67.6228 80.8647,67.5618 80.8477,67.5178 L80.8327,67.4688 C80.8077,67.3878 80.7707,67.2908 80.7307,67.1878 L80.7137,67.1418 C80.7017,67.1088 80.6927,67.0898 80.6837,67.0708 C80.6697,67.0398 80.6547,67.0078 80.6407,66.9748 C80.6237,66.9318 80.6067,66.8968 80.5907,66.8668 L81.9087,66.1498 C81.9507,66.2278 81.9897,66.3098 82.0267,66.4008 C82.0337,66.4158 82.0407,66.4318 82.0487,66.4478 C82.0727,66.5018 82.0967,66.5578 82.1187,66.6168 L82.1317,66.6488 C82.1767,66.7688 82.2247,66.8928 82.2647,67.0238 C82.3017,67.1298 82.3277,67.2278 82.3497,67.3148 C82.3597,67.3538 82.3697,67.3928 82.3807,67.4308 L82.3987,67.5098 C82.4067,67.5488 82.4147,67.5888 82.4237,67.6278 C82.4427,67.7178 82.4647,67.8188 82.4777,67.9338 C82.5687,68.5078 82.5717,69.1338 82.4887,69.7938" id="Fill-31" fill="#F1892D" mask="url(#mask-2)"></path>
                <polygon id="Fill-32" fill="#F1892D" mask="url(#mask-2)" points="81.85 68.7772 81.621 67.2952 86.284 66.5732 86.513 68.0552"></polygon>
                <path d="M80.4926,73.2767 C81.1336,72.0847 81.5986,70.8567 81.7446,69.6997 L86.4246,70.3067 C86.3626,70.7907 86.2666,71.2597 86.1556,71.7217 C86.0376,72.1777 85.9046,72.6267 85.7486,73.0587 C85.4396,73.9247 85.0626,74.7407 84.6456,75.5147 L80.4926,73.2767 Z" id="Fill-33" fill="#F9BF3B" mask="url(#mask-2)"></path>
                <path d="M85.307,75.8705 L83.986,75.1595 C84.418,74.3555 84.764,73.5865 85.042,72.8075 C85.18,72.4245 85.307,72.0085 85.43,71.5335 C85.548,71.0375 85.629,70.6135 85.68,70.2125 L87.168,70.4005 C87.11,70.8585 87.02,71.3335 86.885,71.8965 C86.747,72.4305 86.607,72.8895 86.454,73.3135 C86.151,74.1625 85.776,74.9995 85.307,75.8705" id="Fill-34" fill="#F1892D" mask="url(#mask-2)"></path>
                <path d="M81.1527,73.6317 L79.8317,72.9217 C80.4827,71.7107 80.8767,70.5947 81.0007,69.6067 L82.4887,69.7937 C82.3407,70.9657 81.8917,72.2567 81.1527,73.6317" id="Fill-35" fill="#F1892D" mask="url(#mask-2)"></path>
                <polygon id="Fill-36" fill="#F1892D" mask="url(#mask-2)" points="85.4975 73.7655 81.0525 72.1815 81.5565 70.7685 86.0005 72.3525"></polygon>
                <path d="M78.1127,76.7479 C79.0267,75.6349 79.8477,74.4709 80.4927,73.2769 L84.6457,75.5149 C83.8097,77.0619 82.8187,78.4509 81.7577,79.7439 L78.1127,76.7479 Z" id="Fill-37" fill="#F9BF3B" mask="url(#mask-2)"></path>
                <path d="M82.3373,80.2196 L81.1773,79.2686 C82.3353,77.8576 83.2543,76.5126 83.9863,75.1586 L85.3063,75.8716 C84.5273,77.3116 83.5563,78.7346 82.3373,80.2196" id="Fill-38" fill="#F1892D" mask="url(#mask-2)"></path>
                <path d="M78.6918,77.224 L77.5328,76.272 C78.4818,75.118 79.2548,73.99 79.8328,72.92 L81.1528,73.633 C80.5298,74.787 79.7018,75.995 78.6918,77.224" id="Fill-39" fill="#F1892D" mask="url(#mask-2)"></path>
                <polygon id="Fill-40" fill="#F1892D" mask="url(#mask-2)" points="82.8598 78.3416 78.9768 75.6596 79.8298 74.4256 83.7128 77.1076"></polygon>
                <path d="M75.1166,79.9437 C76.1856,78.9277 77.1956,77.8607 78.1126,76.7477 L81.7576,79.7437 C80.6936,81.0357 79.5556,82.2337 78.3676,83.3637 L75.1166,79.9437 Z" id="Fill-41" fill="#F9BF3B" mask="url(#mask-2)"></path>
                <path d="M78.8842,83.9071 L77.8512,82.8201 C79.0982,81.6351 80.1872,80.4721 81.1782,79.2671 L82.3362,80.2211 C81.3052,81.4731 80.1762,82.6791 78.8842,83.9071" id="Fill-42" fill="#F1892D" mask="url(#mask-2)"></path>
                <path d="M75.6342,80.4872 L74.6002,79.4002 C75.6902,78.3642 76.6772,77.3122 77.5332,76.2712 L78.6922,77.2242 C77.7962,78.3122 76.7672,79.4092 75.6342,80.4872" id="Fill-43" fill="#F1892D" mask="url(#mask-2)"></path>
                <polygon id="Fill-44" fill="#F1892D" mask="url(#mask-2)" points="79.5961 82.161 76.1581 78.929 77.1851 77.836 80.6231 81.068"></polygon>
                <path d="M71.7953,82.7826 L71.9873,82.6376 L72.1993,82.4726 L72.6253,82.1336 C72.9103,81.9026 73.1923,81.6666 73.4733,81.4266 C74.0333,80.9466 74.5823,80.4506 75.1163,79.9436 L78.3673,83.3646 C77.7733,83.9286 77.1653,84.4776 76.5423,85.0106 C76.2313,85.2776 75.9163,85.5396 75.5953,85.8006 L75.1083,86.1876 L74.8583,86.3816 L74.5853,86.5886 L71.7953,82.7826 Z" id="Fill-45" fill="#F9BF3B" mask="url(#mask-2)"></path>
                <path d="M75.0365,87.1869 L74.1335,85.9889 L74.6485,85.5949 L75.1285,85.2129 C75.4345,84.9639 75.7485,84.7029 76.0555,84.4409 C76.6615,83.9209 77.2655,83.3759 77.8505,82.8199 L78.8845,83.9079 C78.2805,84.4809 77.6565,85.0439 77.0305,85.5799 C76.7145,85.8509 76.3905,86.1209 76.0675,86.3829 L75.3185,86.9749 L75.0365,87.1869 Z" id="Fill-46" fill="#F1892D" mask="url(#mask-2)"></path>
                <path d="M72.2475,83.3812 L71.3435,82.1842 L71.7395,81.8812 L72.1585,81.5472 C72.4335,81.3242 72.7125,81.0902 72.9845,80.8572 C73.5285,80.3922 74.0715,79.9012 74.6015,79.4002 L75.6335,80.4872 C75.0865,81.0062 74.5235,81.5142 73.9615,81.9962 C73.6785,82.2382 73.3885,82.4812 73.0985,82.7152 L72.2475,83.3812 Z" id="Fill-47" fill="#F1892D" mask="url(#mask-2)"></path>
                <polygon id="Fill-48" fill="#F1892D" mask="url(#mask-2)" points="75.973 85.4984 72.904 81.9154 74.042 80.9384 77.113 84.5224"></polygon>
                <path d="M65.89,81.3539 L68.909,79.3539 L68.714,79.0599 C67.803,77.6849 68.183,75.8129 69.559,74.9019 L71.443,73.6549 C72.818,72.7429 74.689,73.1239 75.6,74.4989 L77.452,77.2939 L78.054,78.2029 L81.054,82.7319 C81.965,84.1079 81.585,85.9789 80.209,86.8899 L72.806,91.7939 C71.43,92.7049 69.559,92.3249 68.648,90.9499 L65.046,85.5119 C64.134,84.1359 64.515,82.2649 65.89,81.3539" id="Fill-49" fill="#A5B5B6" mask="url(#mask-2)"></path>
                <path d="M65.0463,85.5116 C64.1343,84.1366 64.5153,82.2646 65.8903,81.3536 L67.5673,80.2426 L74.4423,90.7096 L72.8063,91.7936 C71.4303,92.7046 69.5593,92.3246 68.6483,90.9496 L65.0463,85.5116 Z" id="Fill-50" fill="#859596" mask="url(#mask-2)"></path>
                <path d="M65.89,81.3539 L65.892,81.3539 L65.89,81.3539 Z M73.089,73.9079 C72.653,73.9079 72.227,74.0349 71.857,74.2799 L69.973,75.5269 C68.939,76.2129 68.655,77.6119 69.339,78.6459 L69.535,78.9399 C69.644,79.1059 69.684,79.3089 69.644,79.5029 C69.605,79.6979 69.489,79.8699 69.323,79.9789 L66.304,81.9789 L66.304,81.9789 C65.806,82.3099 65.465,82.8169 65.345,83.4079 C65.225,83.9989 65.341,84.5989 65.671,85.0979 L69.273,90.5359 C69.958,91.5699 71.357,91.8539 72.391,91.1689 L79.795,86.2649 C80.293,85.9349 80.634,85.4269 80.754,84.8359 C80.874,84.2449 80.758,83.6449 80.428,83.1459 L74.975,74.9129 C74.645,74.4149 74.137,74.0739 73.546,73.9539 C73.394,73.9229 73.241,73.9079 73.089,73.9079 L73.089,73.9079 Z M71.155,93.0419 C69.938,93.0419 68.744,92.4519 68.023,91.3639 L64.42,85.9259 C63.869,85.0929 63.675,84.0929 63.875,83.1089 C64.076,82.1249 64.644,81.2799 65.476,80.7289 L67.887,79.1319 C67.014,77.4529 67.533,75.3449 69.144,74.2769 L71.029,73.0289 C71.861,72.4779 72.861,72.2839 73.845,72.4839 C74.828,72.6839 75.674,73.2519 76.226,74.0849 L81.679,82.3179 C82.231,83.1499 82.424,84.1499 82.224,85.1339 C82.025,86.1179 81.455,86.9639 80.623,87.5149 L73.22,92.4189 C72.584,92.8399 71.866,93.0419 71.155,93.0419 L71.155,93.0419 Z" id="Fill-51" fill="#354546" mask="url(#mask-2)"></path>
                <path d="M74.4838,91.433 C74.2408,91.433 74.0028,91.315 73.8578,91.097 L66.9428,80.657 C66.7128,80.311 66.8078,79.846 67.1538,79.618 C67.4988,79.389 67.9638,79.483 68.1928,79.829 L75.1088,90.269 C75.3378,90.614 75.2428,91.079 74.8968,91.308 C74.7698,91.392 74.6268,91.433 74.4838,91.433" id="Fill-52" fill="#354546" mask="url(#mask-2)"></path>
                <path d="M66.0141,87.722 C65.7791,87.722 65.5481,87.612 65.4021,87.407 C65.1611,87.069 65.2411,86.601 65.5781,86.361 L69.6641,83.454 C70.0021,83.214 70.4711,83.293 70.7101,83.63 C70.9511,83.968 70.8711,84.436 70.5351,84.676 L66.4481,87.583 C66.3161,87.677 66.1641,87.722 66.0141,87.722" id="Fill-53" fill="#354546" mask="url(#mask-2)"></path>
                <path d="M68.3998,91.3246 C68.1488,91.3246 67.9038,91.1986 67.7618,90.9696 C67.5438,90.6176 67.6518,90.1556 68.0038,89.9366 L72.2648,87.2946 C72.6178,87.0756 73.0798,87.1846 73.2978,87.5366 C73.5158,87.8886 73.4078,88.3506 73.0558,88.5686 L68.7948,91.2116 C68.6708,91.2876 68.5348,91.3246 68.3998,91.3246" id="Fill-54" fill="#354546" mask="url(#mask-2)"></path>
                <path d="M77.4555,85.326 C77.4055,85.326 77.3545,85.321 77.3065,85.311 C77.1105,85.271 76.9395,85.156 76.8295,84.99 L72.4845,78.43 C72.3745,78.264 72.3355,78.061 72.3745,77.867 C72.4145,77.672 72.5295,77.5 72.6955,77.39 L76.0465,75.172 C76.3915,74.943 76.8565,75.037 77.0855,75.383 C77.3135,75.728 77.2195,76.193 76.8745,76.422 L74.1485,78.227 L77.6665,83.536 L80.3915,81.732 C80.7365,81.503 81.2015,81.597 81.4315,81.943 C81.6595,82.288 81.5645,82.753 81.2195,82.982 L77.8695,85.201 C77.7455,85.284 77.6015,85.326 77.4555,85.326" id="Fill-55" fill="#354546" mask="url(#mask-2)"></path>
                <path d="M68.9096,80.1043 C68.6666,80.1043 68.4286,79.9863 68.2836,79.7683 C68.0556,79.4233 68.1496,78.9573 68.4946,78.7293 L70.2176,77.5873 C70.5626,77.3593 71.0276,77.4533 71.2576,77.7993 C71.4856,78.1443 71.3906,78.6093 71.0456,78.8383 L69.3226,79.9793 C69.1956,80.0633 69.0526,80.1043 68.9096,80.1043" id="Fill-56" fill="#354546" mask="url(#mask-2)"></path>
                <path d="M11.8558,66.8705 C11.7478,66.0235 11.6648,65.1765 11.6098,64.3255 C11.5808,63.9005 11.5608,63.4745 11.5458,63.0445 C11.5388,62.8295 11.5338,62.6145 11.5308,62.3965 L11.5278,62.0665 L11.5308,61.7065 L16.2488,61.8185 L16.2468,62.0605 L16.2488,62.3335 L16.2618,62.8905 C16.2748,63.2645 16.2928,63.6405 16.3178,64.0175 C16.3658,64.7705 16.4408,65.5235 16.5368,66.2705 L11.8558,66.8705 Z" id="Fill-57" fill="#F9BF3B" mask="url(#mask-2)"></path>
                <path d="M15.7924,66.3656 C15.6914,65.5766 15.6164,64.8036 15.5694,64.0646 C15.5464,63.7226 15.5274,63.3466 15.5124,62.9166 L15.4964,62.0676 L15.4974,61.8146 L16.9974,61.8236 L16.9964,62.0656 L16.9984,62.3276 L17.0124,62.8726 C17.0254,63.2776 17.0444,63.6376 17.0654,63.9666 C17.1114,64.6766 17.1834,65.4186 17.2794,66.1756 L15.7924,66.3656 Z" id="Fill-58" fill="#F1892D" mask="url(#mask-2)"></path>
                <path d="M11.1117,66.9652 C10.9987,66.0802 10.9147,65.2082 10.8607,64.3742 C10.8347,63.9812 10.8127,63.5532 10.7967,63.0702 C10.7897,62.8502 10.7837,62.6302 10.7807,62.4062 L10.7777,62.0722 L10.7807,61.7002 L12.2807,61.7122 L12.2777,62.0722 L12.2807,62.3902 C12.2837,62.6002 12.2887,62.8102 12.2957,63.0202 C12.3117,63.4852 12.3327,63.8962 12.3577,64.2752 C12.4097,65.0812 12.4907,65.9222 12.5997,66.7762 L11.1117,66.9652 Z" id="Fill-59" fill="#F1892D" mask="url(#mask-2)"></path>
                <polygon id="Fill-60" fill="#F1892D" mask="url(#mask-2)" points="11.6586 65.0741 11.5596 63.5771 16.2686 63.2691 16.3666 64.7651"></polygon>
                <path d="M12.8724,71.9383 C12.3934,70.2553 12.0754,68.5633 11.8554,66.8703 L16.5364,66.2713 C16.7294,67.7643 17.0094,69.2403 17.4114,70.6493 L12.8724,71.9383 Z" id="Fill-61" fill="#F9BF3B" mask="url(#mask-2)"></path>
                <path d="M16.6898,70.8548 C16.3048,69.5068 16.0028,67.9968 15.7928,66.3668 L17.2798,66.1738 C17.4818,67.7308 17.7678,69.1678 18.1328,70.4428 L16.6898,70.8548 Z" id="Fill-62" fill="#F1892D" mask="url(#mask-2)"></path>
                <path d="M12.1508,72.1434 C11.6968,70.5494 11.3568,68.8554 11.1118,66.9674 L12.5998,66.7734 C12.8358,68.5884 13.1608,70.2104 13.5928,71.7324 L12.1508,72.1434 Z" id="Fill-63" fill="#F1892D" mask="url(#mask-2)"></path>
                <polygon id="Fill-64" fill="#F1892D" mask="url(#mask-2)" points="12.4125 70.1439 12.1215 68.6719 16.7505 67.7559 17.0415 69.2269"></polygon>
                <path d="M14.8881,76.91 C14.4321,76.105 14.0501,75.281 13.7211,74.449 C13.3921,73.618 13.1131,72.779 12.8721,71.938 L17.4111,70.649 C17.6131,71.353 17.8421,72.041 18.1051,72.704 C18.3671,73.367 18.6631,74.003 19.0011,74.597 L14.8881,76.91 Z" id="Fill-65" fill="#F9BF3B" mask="url(#mask-2)"></path>
                <path d="M18.349,74.9671 C18.008,74.3671 17.692,73.6981 17.408,72.9791 C17.145,72.3151 16.903,71.6001 16.69,70.8551 L18.133,70.4431 C18.331,71.1411 18.557,71.8081 18.802,72.4271 C19.061,73.0831 19.347,73.6881 19.653,74.2261 L18.349,74.9671 Z" id="Fill-66" fill="#F1892D" mask="url(#mask-2)"></path>
                <path d="M14.2357,77.2796 C13.7857,76.4856 13.3887,75.6496 13.0237,74.7246 C12.7017,73.9126 12.4077,73.0446 12.1507,72.1436 L13.5927,71.7326 C13.8377,72.5856 14.1147,73.4056 14.4187,74.1726 C14.7577,75.0326 15.1257,75.8066 15.5417,76.5406 L14.2357,77.2796 Z" id="Fill-67" fill="#F1892D" mask="url(#mask-2)"></path>
                <polygon id="Fill-68" fill="#F1892D" mask="url(#mask-2)" points="13.9984 75.1458 13.4434 73.7518 17.8274 72.0068 18.3834 73.4008"></polygon>
                <path d="M18.2572,81.2249 C17.5952,80.5709 17.0072,79.9059 16.4642,79.2319 L16.3602,79.1059 L16.2522,78.9659 L16.0352,78.6809 C15.8882,78.4919 15.7552,78.2969 15.6242,78.1009 L15.4262,77.8079 C15.3622,77.7089 15.3042,77.6089 15.2422,77.5099 C15.1232,77.3099 14.9952,77.1129 14.8882,76.9099 L19.0012,74.5969 C19.0802,74.7499 19.1732,74.8889 19.2592,75.0349 C19.3042,75.1059 19.3462,75.1799 19.3922,75.2489 L19.5312,75.4549 C19.6242,75.5939 19.7162,75.7319 19.8182,75.8589 L19.9652,76.0539 C19.9902,76.0869 20.0122,76.1179 20.0402,76.1529 L20.1282,76.2589 C20.5932,76.8379 21.0742,77.3749 21.5562,77.8499 L18.2572,81.2249 Z" id="Fill-69" fill="#F9BF3B" mask="url(#mask-2)"></path>
                <path d="M21.0287,78.3841 C20.5287,77.8901 20.0287,77.3331 19.5437,76.7291 L19.4627,76.6311 C19.4337,76.5951 19.4117,76.5661 19.3897,76.5371 L19.2247,76.3181 C19.1037,76.1661 18.9997,76.0091 18.9077,75.8711 L18.7717,75.6721 C18.7307,75.6101 18.6977,75.5551 18.6657,75.5011 L18.6227,75.4291 C18.5887,75.3731 18.5617,75.3311 18.5357,75.2881 C18.4727,75.1861 18.4007,75.0701 18.3347,74.9401 L19.6677,74.2531 C19.7077,74.3311 19.7577,74.4131 19.8117,74.5001 C19.8427,74.5511 19.8747,74.6011 19.9047,74.6521 C19.9157,74.6691 19.9337,74.7001 19.9527,74.7301 C19.9737,74.7661 19.9957,74.8021 20.0177,74.8381 L20.1517,75.0331 C20.2367,75.1601 20.3197,75.2851 20.4037,75.3901 L20.5947,75.6441 C20.6037,75.6551 20.6117,75.6661 20.6217,75.6781 L20.7067,75.7811 C21.1627,76.3491 21.6237,76.8631 22.0837,77.3171 L21.0287,78.3841 Z" id="Fill-70" fill="#F1892D" mask="url(#mask-2)"></path>
                <path d="M17.7308,81.7586 C17.0938,81.1306 16.4888,80.4586 15.8798,79.7026 L15.6588,79.4236 L15.4378,79.1336 C15.2798,78.9306 15.1348,78.7176 15.0018,78.5186 L14.8048,78.2276 C14.7518,78.1456 14.7078,78.0726 14.6628,78.0006 L14.6048,77.9046 C14.5668,77.8416 14.5338,77.7876 14.5008,77.7336 C14.4088,77.5826 14.3128,77.4266 14.2248,77.2596 L15.5518,76.5606 C15.6178,76.6846 15.6968,76.8136 15.7798,76.9506 C15.8158,77.0086 15.8508,77.0666 15.8858,77.1246 L15.9458,77.2216 C15.9808,77.2806 16.0168,77.3396 16.0538,77.3976 L16.2468,77.6816 C16.3658,77.8606 16.4928,78.0476 16.6268,78.2186 L17.0428,78.7556 C17.6208,79.4716 18.1888,80.1036 18.7848,80.6906 L17.7308,81.7586 Z" id="Fill-71" fill="#F1892D" mask="url(#mask-2)"></path>
                <polygon id="Fill-72" fill="#F1892D" mask="url(#mask-2)" points="16.9359 79.8143 15.9919 78.6493 19.6559 75.6763 20.6009 76.8413"></polygon>
                <path d="M24.8881,83.473 C24.2461,83.726 23.5461,83.822 22.8601,83.757 C22.1711,83.695 21.5001,83.479 20.8681,83.174 C20.5591,83.015 20.2261,82.828 20.0071,82.672 C19.8861,82.591 19.7601,82.506 19.6461,82.424 L19.3441,82.189 C19.1371,82.032 18.9591,81.872 18.7771,81.711 C18.5891,81.551 18.4261,81.388 18.2571,81.225 L21.5561,77.85 C21.6761,77.967 21.7961,78.089 21.9151,78.188 C22.0341,78.293 22.1551,78.403 22.2691,78.487 L22.4431,78.623 L22.5781,78.714 C22.6861,78.793 22.7051,78.8 22.7511,78.827 C22.8371,78.87 22.9291,78.907 23.0251,78.921 C23.1211,78.936 23.2201,78.921 23.3101,78.883 L24.8881,83.473 Z" id="Fill-73" fill="#F9BF3B" mask="url(#mask-2)"></path>
                <path d="M23.0824,78.1771 C23.0624,78.1781 23.0414,78.1821 23.0204,78.1911 L23.0454,78.2511 L23.0824,78.1771 Z M23.1004,79.6771 C23.0364,79.6771 22.9734,79.6721 22.9094,79.6621 C22.7524,79.6391 22.5864,79.5841 22.4104,79.4941 L22.3604,79.4681 C22.3084,79.4371 22.2544,79.4061 22.1494,79.3291 L21.9774,79.2111 L21.8144,79.0831 C21.6974,78.9971 21.5904,78.9021 21.4864,78.8101 L21.4274,78.7571 C21.3134,78.6621 21.2104,78.5611 21.1094,78.4631 L21.0344,78.3901 L22.0764,77.3111 L22.1584,77.3901 C22.2434,77.4741 22.3244,77.5531 22.3944,77.6111 L22.4814,77.6871 C22.5664,77.7621 22.6464,77.8331 22.7104,77.8801 L22.7344,77.8991 L22.8844,78.0161 L23.0224,78.1101 C23.0724,78.1471 23.0814,78.1521 23.0934,78.1581 L23.1044,78.1641 C23.1304,78.1771 23.1414,78.1801 23.1424,78.1801 C23.1374,78.1791 23.1334,78.1791 23.1284,78.1781 L23.0624,78.2921 L23.5994,79.5751 C23.4384,79.6421 23.2694,79.6771 23.1004,79.6771 L23.1004,79.6771 Z" id="Fill-74" fill="#F1892D" mask="url(#mask-2)"></path>
                <path d="M23.2748,84.5267 C23.1138,84.5267 22.9518,84.5187 22.7898,84.5047 C22.0618,84.4387 21.3048,84.2177 20.5418,83.8487 L20.5248,83.8407 C20.2478,83.6977 19.8598,83.4867 19.5808,83.2887 L19.5578,83.2737 C19.4408,83.1947 19.3198,83.1127 19.2088,83.0337 L19.1848,83.0157 L18.8828,82.7807 C18.6848,82.6307 18.5098,82.4767 18.3408,82.3267 L18.2808,82.2737 C18.1148,82.1317 17.9638,81.9857 17.8178,81.8437 L17.7358,81.7637 L18.7788,80.6857 L18.8648,80.7687 C18.9988,80.8997 19.1258,81.0227 19.2628,81.1407 L19.3348,81.2027 C19.4888,81.3397 19.6348,81.4687 19.7958,81.5907 L20.0938,81.8227 C20.1908,81.8917 20.2958,81.9617 20.3968,82.0297 L20.4428,82.0617 C20.6008,82.1737 20.8778,82.3347 21.2028,82.5027 C21.7988,82.7897 22.3798,82.9607 22.9268,83.0097 C23.5038,83.0647 24.0868,82.9837 24.6128,82.7757 L25.1638,84.1707 C24.5688,84.4057 23.9228,84.5267 23.2748,84.5267" id="Fill-75" fill="#F1892D" mask="url(#mask-2)"></path>
                <polygon id="Fill-76" fill="#F1892D" mask="url(#mask-2)" points="21.556 83.4715 20.18 82.8755 22.063 78.5285 23.44 79.1245"></polygon>
                <path d="M29.0804,78.3778 C28.9064,78.7748 28.7254,79.1768 28.5184,79.5888 C28.3174,79.9978 28.0804,80.4208 27.8124,80.8498 L27.5994,81.1738 L27.5704,81.2158 L27.5344,81.2658 L27.4614,81.3658 L27.3104,81.5648 C27.2144,81.6948 27.0984,81.8298 26.9804,81.9618 C26.8644,82.0938 26.7454,82.2228 26.6164,82.3418 C26.1134,82.8288 25.5304,83.2248 24.8884,83.4728 L23.3094,78.8828 C23.3984,78.8448 23.4764,78.7828 23.5434,78.7128 C23.5604,78.6968 23.5764,78.6778 23.5924,78.6598 C23.6064,78.6408 23.6214,78.6248 23.6444,78.5928 L23.6764,78.5508 L23.6904,78.5288 L23.6984,78.5188 L23.7134,78.4968 L23.8304,78.3188 C24.1454,77.8178 24.4574,77.1788 24.7514,76.4998 L29.0804,78.3778 Z" id="Fill-77" fill="#F9BF3B" mask="url(#mask-2)"></path>
                <path d="M23.6058,79.5721 L23.0128,78.1941 C22.9958,78.2021 22.9868,78.2091 22.9868,78.2091 C22.9868,78.2091 22.9918,78.2051 23.0018,78.1951 L23.0848,78.0891 L23.2038,77.9071 C23.4598,77.4991 23.7518,76.9211 24.0628,76.2021 L25.4398,76.7971 C25.0938,77.5981 24.7748,78.2261 24.4648,78.7181 L24.2488,79.0381 C24.2168,79.0811 24.1918,79.1111 24.1668,79.1411 C24.1388,79.1751 24.1088,79.2091 24.0768,79.2411 C23.9338,79.3881 23.7758,79.4991 23.6058,79.5721" id="Fill-78" fill="#F1892D" mask="url(#mask-2)"></path>
                <path d="M25.1586,84.1727 L24.6176,82.7737 C25.1416,82.5707 25.6386,82.2437 26.0956,81.8027 L26.1096,81.7887 C26.2186,81.6897 26.3226,81.5747 26.4186,81.4647 C26.5106,81.3627 26.6236,81.2337 26.7086,81.1177 L26.9756,80.7567 L27.1806,80.4437 C27.4336,80.0397 27.6566,79.6407 27.8446,79.2587 C28.0626,78.8257 28.2436,78.4197 28.3926,78.0777 L29.7666,78.6777 C29.6196,79.0167 29.4206,79.4647 29.1876,79.9257 C28.9796,80.3497 28.7296,80.7967 28.4486,81.2467 L28.4386,81.2617 L28.0656,81.8097 L27.9096,82.0167 C27.7926,82.1747 27.6506,82.3377 27.5416,82.4607 C27.4276,82.5897 27.2886,82.7427 27.1316,82.8867 C26.5326,83.4657 25.8686,83.8987 25.1586,84.1727" id="Fill-79" fill="#F1892D" mask="url(#mask-2)"></path>
                <polygon id="Fill-80" fill="#F1892D" mask="url(#mask-2)" points="27.4105 81.4823 23.4285 78.9513 24.2325 77.6863 28.2155 80.2163"></polygon>
                <path d="M30.889,73.8646 C30.298,75.2846 29.761,76.7956 29.08,78.3776 L24.751,76.4996 C25.343,75.1306 25.887,73.6106 26.529,72.0616 L30.889,73.8646 Z" id="Fill-81" fill="#F9BF3B" mask="url(#mask-2)"></path>
                <path d="M25.4398,76.7972 L24.0628,76.2022 C24.3848,75.4562 24.6918,74.6692 25.0158,73.8352 C25.2768,73.1662 25.5458,72.4732 25.8358,71.7752 L27.2208,72.3492 C26.9378,73.0322 26.6718,73.7172 26.4148,74.3792 C26.0848,75.2262 25.7728,76.0262 25.4398,76.7972" id="Fill-82" fill="#F1892D" mask="url(#mask-2)"></path>
                <path d="M29.7689,78.6747 L28.3909,78.0817 C28.7729,77.1947 29.1119,76.3227 29.4389,75.4817 C29.6959,74.8207 29.9379,74.1977 30.1969,73.5767 L31.5809,74.1527 C31.3309,74.7577 31.0899,75.3737 30.8369,76.0247 C30.5049,76.8797 30.1619,77.7627 29.7689,78.6747" id="Fill-83" fill="#F1892D" mask="url(#mask-2)"></path>
                <polygon id="Fill-84" fill="#F1892D" mask="url(#mask-2)" points="29.7465 76.7596 25.3495 75.0466 25.8935 73.6486 30.2905 75.3616"></polygon>
                <path d="M32.847,70.0643 C32.475,70.5813 32.131,71.1853 31.808,71.8273 C31.485,72.4703 31.182,73.1553 30.889,73.8643 L26.529,72.0623 C26.849,71.2863 27.195,70.4993 27.593,69.7063 C27.993,68.9133 28.441,68.1133 29.006,67.3233 L32.847,70.0643 Z" id="Fill-85" fill="#F9BF3B" mask="url(#mask-2)"></path>
                <path d="M27.2211,72.349 L25.8351,71.775 C26.2221,70.84 26.5681,70.076 26.9231,69.369 C27.4171,68.389 27.8851,67.6 28.3961,66.887 L29.6161,67.761 C29.1511,68.41 28.7211,69.135 28.2631,70.044 C27.9251,70.716 27.5941,71.449 27.2211,72.349" id="Fill-86" fill="#F1892D" mask="url(#mask-2)"></path>
                <path d="M31.5824,74.1512 L30.1954,73.5782 C30.5364,72.7552 30.8354,72.0922 31.1384,71.4902 C31.5154,70.7392 31.8754,70.1302 32.2384,69.6262 L33.4554,70.5032 C33.1394,70.9422 32.8194,71.4852 32.4784,72.1642 C32.1924,72.7322 31.9074,73.3632 31.5824,74.1512" id="Fill-87" fill="#F1892D" mask="url(#mask-2)"></path>
                <polygon id="Fill-88" fill="#F1892D" mask="url(#mask-2)" points="31.4711 72.4974 27.2561 70.3754 27.9301 69.0364 32.1451 71.1574"></polygon>
                <path d="M35.2064,68.2362 L35.0494,68.2692 C34.9994,68.2872 34.9484,68.3032 34.8974,68.3192 C34.8724,68.3262 34.8474,68.3322 34.8214,68.3412 L34.7484,68.3742 L34.5994,68.4352 C34.5504,68.4632 34.5014,68.4892 34.4514,68.5142 L34.3774,68.5522 L34.3044,68.6002 L34.1554,68.6942 L34.0084,68.8062 C33.6104,69.1022 33.2194,69.5492 32.8474,70.0642 L29.0064,67.3232 C29.1474,67.1272 29.2904,66.9302 29.4514,66.7362 C29.6024,66.5402 29.7734,66.3482 29.9464,66.1582 C30.1154,65.9672 30.3124,65.7832 30.4984,65.5992 L30.8044,65.3312 L30.9584,65.1982 L31.1244,65.0722 L31.4584,64.8222 L31.8174,64.5902 L31.9984,64.4772 L32.1894,64.3732 L32.5764,64.1722 C32.7104,64.1112 32.8464,64.0552 32.9814,63.9982 L33.1854,63.9152 C33.2554,63.8902 33.3264,63.8682 33.3964,63.8452 L33.8204,63.7132 C33.9634,63.6762 34.1074,63.6472 34.2514,63.6152 L35.2064,68.2362 Z" id="Fill-89" fill="#F9BF3B" mask="url(#mask-2)"></path>
                <path d="M29.6146,67.7625 L28.3976,66.8855 C28.5546,66.6665 28.6996,66.4685 28.8666,66.2665 C29.0346,66.0505 29.2176,65.8455 29.3896,65.6545 C29.5306,65.4965 29.6856,65.3445 29.8376,65.1975 L30.0046,65.0345 L30.5036,64.6025 L31.0516,64.1915 L31.6406,63.8175 L32.2686,63.4875 C32.4096,63.4245 32.5516,63.3655 32.6926,63.3065 L32.9296,63.2105 C32.9896,63.1885 33.0496,63.1695 33.1096,63.1495 L33.6336,62.9865 C33.7576,62.9545 33.8826,62.9275 34.0076,62.9005 L34.0916,62.8825 L34.4116,64.3475 L34.3246,64.3665 C34.2236,64.3885 34.1246,64.4095 34.0246,64.4345 L33.5686,64.5775 C33.5306,64.5905 33.4926,64.6015 33.4556,64.6155 L33.2656,64.6925 C33.1466,64.7425 33.0236,64.7935 32.9026,64.8465 L32.3776,65.1245 L31.8866,65.4385 L31.4306,65.7815 L31.0096,66.1495 L30.8846,66.2715 C30.7476,66.4055 30.6176,66.5315 30.5086,66.6555 C30.3456,66.8335 30.1816,67.0175 30.0446,67.1955 L30.0296,67.2135 C29.8886,67.3835 29.7636,67.5555 29.6146,67.7625" id="Fill-90" fill="#F1892D" mask="url(#mask-2)"></path>
                <path d="M33.4554,70.5033 L32.2394,69.6253 C32.6974,68.9893 33.1304,68.5243 33.5604,68.2053 L33.7564,68.0593 L34.0384,67.8833 L34.1124,67.8453 C34.1494,67.8263 34.1884,67.8053 34.2274,67.7833 L34.3154,67.7403 L34.5744,67.6333 C34.6034,67.6233 34.6344,67.6143 34.6644,67.6053 L34.6844,67.5993 C34.7224,67.5883 34.7594,67.5763 34.7974,67.5633 L34.8954,67.5353 L35.0534,67.5023 L35.3594,68.9703 L35.2504,68.9933 C35.2044,69.0093 35.1584,69.0243 35.1114,69.0373 C35.1074,69.0393 35.0964,69.0423 35.0834,69.0453 L34.9254,69.1123 C34.8814,69.1363 34.8384,69.1593 34.7934,69.1823 L34.7034,69.2353 L34.5834,69.3103 L34.4644,69.4023 C34.1544,69.6323 33.8174,70.0013 33.4554,70.5033" id="Fill-91" fill="#F1892D" mask="url(#mask-2)"></path>
                <polygon id="Fill-92" fill="#F1892D" mask="url(#mask-2)" points="33.4144 69.265 30.5304 65.53 31.7184 64.614 34.6014 68.348"></polygon>
                <path d="M38.39,68.8685 C37.791,68.5905 37.199,68.3785 36.654,68.2675 L36.551,68.2435 C36.518,68.2375 36.486,68.2355 36.453,68.2305 L36.256,68.2025 C36.189,68.1885 36.128,68.1885 36.066,68.1855 L35.88,68.1735 C35.82,68.1715 35.763,68.1785 35.704,68.1795 C35.647,68.1835 35.585,68.1755 35.532,68.1865 C35.423,68.2055 35.308,68.2045 35.206,68.2365 L34.251,63.6155 C34.539,63.5455 34.827,63.5215 35.118,63.4855 C35.262,63.4675 35.403,63.4705 35.546,63.4635 C35.688,63.4595 35.832,63.4525 35.972,63.4565 L36.388,63.4785 C36.527,63.4865 36.666,63.4935 36.798,63.5145 L37.199,63.5715 C37.265,63.5805 37.332,63.5895 37.398,63.6015 L37.589,63.6425 C38.619,63.8535 39.545,64.2025 40.403,64.6005 L38.39,68.8685 Z" id="Fill-93" fill="#F9BF3B" mask="url(#mask-2)"></path>
                <path d="M40.0873,65.2806 C39.1373,64.8396 38.2953,64.5526 37.4393,64.3776 L37.2523,64.3376 C37.2203,64.3316 37.1883,64.3276 37.1553,64.3226 L36.6793,64.2556 C36.5953,64.2416 36.4883,64.2356 36.3763,64.2286 L35.9423,64.2056 C35.8593,64.2036 35.7753,64.2066 35.6913,64.2096 L35.5753,64.2126 C35.5263,64.2146 35.4783,64.2166 35.4303,64.2176 C35.3473,64.2196 35.2753,64.2216 35.2143,64.2296 L35.0273,64.2516 C34.8153,64.2766 34.6133,64.2996 34.4293,64.3436 L34.0743,62.8866 C34.3503,62.8196 34.6083,62.7896 34.8573,62.7606 L35.0253,62.7416 C35.1573,62.7246 35.2803,62.7206 35.3893,62.7176 C35.4293,62.7176 35.4683,62.7166 35.5083,62.7146 L35.6443,62.7096 C35.7563,62.7066 35.8713,62.7026 35.9933,62.7066 L36.0123,62.7076 L36.4653,62.7316 C36.6013,62.7396 36.7533,62.7486 36.9083,62.7736 L37.3683,62.8376 C37.4243,62.8456 37.4803,62.8536 37.5333,62.8636 L37.7453,62.9086 C38.7133,63.1066 39.6593,63.4286 40.7183,63.9206 L40.0873,65.2806 Z" id="Fill-94" fill="#F1892D" mask="url(#mask-2)"></path>
                <path d="M38.0746,69.5487 C37.4966,69.2807 36.9686,69.0967 36.5056,69.0027 L36.4026,68.9797 C36.3836,68.9777 36.3636,68.9757 36.3446,68.9717 L36.1056,68.9377 C36.1016,68.9377 36.0876,68.9377 36.0726,68.9367 L35.8486,68.9237 C35.8416,68.9237 35.8306,68.9247 35.8196,68.9247 C35.7896,68.9267 35.7606,68.9277 35.7296,68.9287 C35.6966,68.9297 35.6636,68.9307 35.6296,68.9297 C35.5806,68.9377 35.5316,68.9437 35.4816,68.9487 C35.4586,68.9507 35.4346,68.9527 35.4126,68.9567 C35.4186,68.9557 35.4246,68.9537 35.4306,68.9517 L34.9816,67.5207 C35.1166,67.4787 35.2386,67.4657 35.3286,67.4567 C35.3506,67.4537 35.3736,67.4527 35.3956,67.4487 C35.5006,67.4287 35.5886,67.4297 35.6416,67.4307 L35.7026,67.4287 C35.7146,67.4287 35.7246,67.4277 35.7366,67.4277 C35.7936,67.4237 35.8496,67.4217 35.9096,67.4247 L36.1296,67.4377 C36.1886,67.4407 36.2756,67.4437 36.3796,67.4627 L36.5786,67.4897 C36.6156,67.4947 36.6516,67.4997 36.6896,67.5067 L36.8136,67.5347 C37.3896,67.6527 38.0266,67.8727 38.7066,68.1887 L38.0746,69.5487 Z" id="Fill-95" fill="#F1892D" mask="url(#mask-2)"></path>
                <polygon id="Fill-96" fill="#F1892D" mask="url(#mask-2)" points="37.389 68.4159 35.919 68.1189 36.854 63.4939 38.325 63.7909"></polygon>
                <path d="M14.7894,53.2308 C16.4384,53.1948 17.8184,54.5148 17.8544,56.1638 L17.9574,62.0138 C17.9934,63.6638 16.6744,65.0428 15.0244,65.0798 L8.1084,65.1088 C6.4594,65.1458 5.6784,63.7908 5.6424,62.1418 L5.5574,56.5908 C5.5204,54.9418 6.2414,53.5968 7.8914,53.5608 L14.7894,53.2308 Z" id="Fill-97" fill="#A5B5B6" mask="url(#mask-2)"></path>
                <path d="M7.891,53.5604 L7.893,53.5604 L7.891,53.5604 Z M14.815,53.9804 L7.927,54.3094 C7.92,54.3104 7.914,54.3104 7.908,54.3104 C7.291,54.3234 6.264,54.6364 6.307,56.5744 L6.392,62.1294 C6.408,62.8194 6.577,63.4164 6.87,63.8074 C7.159,64.1904 7.556,64.3724 8.092,64.3594 L15.021,64.3294 C16.248,64.3024 17.235,63.2704 17.207,62.0304 L17.105,56.1774 C17.092,55.5834 16.844,55.0244 16.409,54.6074 C15.975,54.1924 15.408,53.9704 14.815,53.9804 L14.815,53.9804 Z M8.032,65.8594 C7.057,65.8594 6.238,65.4624 5.671,64.7074 C5.184,64.0604 4.914,63.1784 4.892,62.1584 L4.807,56.6024 C4.757,54.3474 5.956,52.8584 7.865,52.8104 L14.754,52.4814 L14.773,52.4814 C16.834,52.4384 18.559,54.0804 18.605,56.1474 L18.707,62.0004 C18.753,64.0644 17.108,65.7834 15.041,65.8294 L8.112,65.8594 L8.032,65.8594 L8.032,65.8594 Z" id="Fill-98" fill="#354546" mask="url(#mask-2)"></path>
                <path d="M14.306,67.8153 L14.248,67.8173 C14.255,64.6873 14.141,61.1853 13.891,57.4933 C13.665,54.1423 13.349,50.9583 12.972,48.0723 L12.973,48.0723 C12.645,45.3433 15.422,43.0173 15.422,43.0173 L9.595,43.2683 L9.296,43.2813 L3.468,43.5313 C3.468,43.5313 6.542,45.6063 6.584,48.3473 C6.599,51.2493 6.714,54.4413 6.94,57.7923 C7.19,61.4843 7.547,64.9753 7.976,68.0873 L7.917,68.0903 C8.245,70.8193 5.468,73.1453 5.468,73.1453 L11.296,72.8943 L11.595,72.8813 L17.422,72.6303 C17.422,72.6303 14.348,70.5563 14.306,67.8153" id="Fill-99" fill="#A4A4A4" mask="url(#mask-2)"></path>
                <path d="M8.6888,68.3192 C8.7668,69.9142 7.9958,71.3342 7.2508,72.3182 L15.5148,71.9622 C14.6518,71.0532 13.7078,69.7202 13.5728,68.1432 C13.5238,68.0422 13.4988,67.9302 13.4988,67.8162 C13.5048,64.5902 13.3848,61.1342 13.1428,57.5432 C12.9228,54.2882 12.6158,51.1332 12.2288,48.1692 C12.0218,46.4402 12.8468,44.8942 13.6408,43.8442 L5.3758,44.2002 C6.2918,45.1642 7.2978,46.6052 7.3338,48.3092 C7.3348,48.3202 7.3348,48.3322 7.3348,48.3432 C7.3498,51.3222 7.4678,54.4852 7.6888,57.7412 C7.9308,61.3312 8.2778,64.7782 8.7188,67.9862 C8.7348,68.0992 8.7238,68.2132 8.6888,68.3192 M5.4678,73.8952 C5.1598,73.8952 4.8808,73.7052 4.7688,73.4162 C4.6528,73.1162 4.7408,72.7762 4.9868,72.5692 C5.0098,72.5502 7.4478,70.4652 7.1728,68.1792 C7.1618,68.0842 7.1678,67.9882 7.1928,67.8972 C6.7658,64.7392 6.4288,61.3582 6.1918,57.8422 C5.9698,54.5632 5.8498,51.3782 5.8348,48.3742 L5.8348,48.3582 C5.7988,46.0482 3.0758,44.1712 3.0478,44.1522 C2.7808,43.9712 2.6588,43.6382 2.7478,43.3272 C2.8348,43.0162 3.1128,42.7962 3.4358,42.7822 L15.3898,42.2682 C15.7098,42.2542 16.0048,42.4462 16.1218,42.7462 C16.2378,43.0462 16.1498,43.3862 15.9038,43.5922 C15.8798,43.6122 13.4428,45.6972 13.7168,47.9832 C14.1068,50.9722 14.4178,54.1572 14.6398,57.4422 C14.8768,60.9602 14.9978,64.3502 14.9988,67.5272 C15.0348,67.6132 15.0548,67.7082 15.0558,67.8042 C15.0908,70.1142 17.8148,71.9912 17.8428,72.0092 C18.1108,72.1912 18.2318,72.5242 18.1428,72.8352 C18.0548,73.1462 17.7778,73.3662 17.4548,73.3802 L5.5008,73.8942 C5.4898,73.8942 5.4788,73.8952 5.4678,73.8952" id="Fill-100" fill="#373737" mask="url(#mask-2)"></path>
                <path d="M10.3832,31.432 L12.2032,36.969 C12.3972,37.555 12.0732,38.179 11.4872,38.356 L7.5712,39.536 C6.9852,39.713 6.3462,39.379 6.1542,38.793 L4.1482,32.696 C1.9562,34.048 0.5982,36.274 0.7642,38.733 C1.0262,42.609 4.9772,45.591 9.5882,45.393 C14.2002,45.194 17.7272,41.891 17.4652,38.014 C17.2372,34.637 14.2082,31.94 10.3832,31.432" id="Fill-101" fill="#C8C8C8" mask="url(#mask-2)"></path>
                <path d="M3.7533,33.8939 C2.2163,35.1439 1.3903,36.8779 1.5123,38.6819 C1.7463,42.1499 5.3543,44.8219 9.5563,44.6439 C11.8253,44.5459 13.9013,43.6239 15.2523,42.1159 C16.2943,40.9519 16.8143,39.5129 16.7163,38.0649 C16.5413,35.4689 14.4173,33.2359 11.4983,32.4229 L12.9163,36.7339 C13.0733,37.2119 13.0323,37.7199 12.8013,38.1649 C12.5713,38.6069 12.1813,38.9299 11.7033,39.0739 L7.7883,40.2539 C6.8133,40.5479 5.7603,39.9979 5.4413,39.0279 L3.7533,33.8939 Z M9.1563,46.1519 C4.3493,46.1519 0.2953,42.9239 0.0153,38.7839 C-0.1637,36.1259 1.2333,33.6119 3.7543,32.0579 C3.9493,31.9369 4.1903,31.9129 4.4053,31.9919 C4.6213,32.0699 4.7893,32.2439 4.8603,32.4619 L6.8663,38.5589 C6.9323,38.7599 7.1563,38.8779 7.3553,38.8179 L11.2703,37.6379 C11.3883,37.6019 11.4463,37.5189 11.4713,37.4719 C11.4963,37.4239 11.5313,37.3259 11.4913,37.2029 L9.6703,31.6659 C9.5893,31.4209 9.6413,31.1519 9.8053,30.9529 C9.9703,30.7549 10.2263,30.6549 10.4823,30.6879 C14.7143,31.2499 17.9663,34.3099 18.2133,37.9639 C18.3383,39.8189 17.6843,41.6479 16.3693,43.1159 C14.7513,44.9239 12.2913,46.0269 9.6203,46.1419 C9.4653,46.1489 9.3113,46.1519 9.1563,46.1519 L9.1563,46.1519 Z" id="Fill-102" fill="#373737" mask="url(#mask-2)"></path>
                <path d="M10.5756,82.6092 L8.9756,77.7452 C8.8066,77.2312 9.0906,76.6822 9.6056,76.5272 L13.0456,75.4892 C13.5606,75.3342 14.1216,75.6282 14.2906,76.1432 L16.0526,81.4992 C17.9776,80.3112 19.1716,78.3552 19.0256,76.1952 C18.7966,72.7902 15.3256,70.1712 11.2736,70.3452 C7.2216,70.5192 4.1246,73.4212 4.3546,76.8272 C4.5546,79.7942 7.2156,82.1632 10.5756,82.6092" id="Fill-103" fill="#C8C8C8" mask="url(#mask-2)"></path>
                <path d="M11.6556,71.0868 C11.5396,71.0868 11.4236,71.0898 11.3056,71.0948 C9.3376,71.1798 7.5366,71.9778 6.3666,73.2848 C5.4676,74.2888 5.0186,75.5288 5.1026,76.7768 C5.2506,78.9688 7.0126,80.8628 9.4556,81.6028 L8.2636,77.9798 C8.1176,77.5368 8.1556,77.0648 8.3706,76.6528 C8.5846,76.2428 8.9456,75.9428 9.3896,75.8088 L12.8286,74.7718 C13.7316,74.4998 14.7076,75.0088 15.0036,75.9088 L16.4446,80.2908 C17.7066,79.2188 18.3806,77.7598 18.2776,76.2468 C18.0816,73.3458 15.1456,71.0868 11.6556,71.0868 M10.5756,83.3588 C10.5436,83.3588 10.5096,83.3578 10.4766,83.3528 C6.7156,82.8538 3.8256,80.1298 3.6056,76.8778 C3.4946,75.2238 4.0776,73.5918 5.2486,72.2848 C6.6866,70.6778 8.8716,69.6978 11.2416,69.5958 C15.6856,69.4028 19.5166,72.3428 19.7736,76.1458 C19.9336,78.5138 18.6896,80.7538 16.4466,82.1378 C16.2506,82.2578 16.0106,82.2818 15.7956,82.2038 C15.5796,82.1248 15.4116,81.9518 15.3406,81.7328 L13.5786,76.3768 C13.5366,76.2488 13.3876,76.1698 13.2616,76.2078 L9.8226,77.2448 C9.7546,77.2658 9.7186,77.3108 9.7006,77.3458 C9.6816,77.3808 9.6646,77.4388 9.6886,77.5108 L11.2886,82.3748 C11.3686,82.6198 11.3176,82.8898 11.1526,83.0878 C11.0096,83.2608 10.7976,83.3588 10.5756,83.3588" id="Fill-104" fill="#373737" mask="url(#mask-2)"></path>
                <path d="M4.891,57.0179 C4.068,57.0689 3.352,56.4359 3.302,55.6129 L3.256,54.8719 C3.205,54.0489 3.837,53.3329 4.661,53.2829 L8.29,52.9759 C9.114,52.9249 9.829,53.5579 9.88,54.3809 L9.925,55.1219 C9.976,55.9449 9.344,56.6609 8.521,56.7109 L4.891,57.0179 Z" id="Fill-105" fill="#A5B5B6" mask="url(#mask-2)"></path>
                <path d="M8.3441,53.724 L4.7241,54.03 C4.7181,54.031 4.7121,54.031 4.7061,54.031 C4.5091,54.044 4.3251,54.134 4.1931,54.285 C4.0591,54.435 3.9921,54.628 4.0041,54.826 L4.0501,55.567 C4.0751,55.977 4.4281,56.293 4.8381,56.269 L8.4571,55.964 C8.4631,55.963 8.4691,55.963 8.4751,55.963 C8.6731,55.95 8.8561,55.86 8.9891,55.709 C9.1221,55.558 9.1891,55.366 9.1771,55.168 L9.1311,54.427 C9.1191,54.229 9.0301,54.046 8.8781,53.912 C8.7291,53.781 8.5391,53.712 8.3441,53.724 L8.3441,53.724 Z M4.8911,57.018 L4.8931,57.018 L4.8911,57.018 Z M4.7971,57.771 C3.6191,57.771 2.6261,56.85 2.5531,55.659 L2.5071,54.918 C2.4701,54.32 2.6701,53.742 3.0691,53.291 C3.4651,52.842 4.0111,52.574 4.6061,52.535 L8.2271,52.228 C8.2331,52.228 8.2391,52.228 8.2441,52.227 C8.8431,52.19 9.4201,52.39 9.8711,52.788 C10.3231,53.187 10.5911,53.737 10.6281,54.335 L10.6741,55.076 C10.7111,55.674 10.5121,56.252 10.1131,56.703 C9.7161,57.152 9.1711,57.42 8.5761,57.459 L4.9541,57.765 L4.9371,57.766 C4.8901,57.769 4.8441,57.771 4.7971,57.771 L4.7971,57.771 Z" id="Fill-106" fill="#354546" mask="url(#mask-2)"></path>
                <path d="M5.307,61.2635 C4.483,61.3145 3.768,60.6815 3.717,59.8585 L3.671,59.1175 C3.62,58.2945 4.253,57.5785 5.077,57.5285 L8.706,57.2215 C9.53,57.1705 10.244,57.8035 10.295,58.6265 L10.341,59.3675 C10.392,60.1905 9.76,60.9065 8.936,60.9565 L5.307,61.2635 Z" id="Fill-107" fill="#A5B5B6" mask="url(#mask-2)"></path>
                <path d="M8.7592,57.9701 L5.1392,58.2761 C5.1342,58.2761 5.1282,58.2771 5.1222,58.2771 C4.7092,58.3021 4.3952,58.6591 4.4202,59.0721 L4.4662,59.8121 C4.4782,60.0111 4.5682,60.1931 4.7192,60.3271 C4.8682,60.4591 5.0582,60.5271 5.2532,60.5151 L8.8732,60.2091 C8.8782,60.2091 8.8842,60.2081 8.8902,60.2081 C9.3032,60.1821 9.6172,59.8261 9.5922,59.4131 L9.5472,58.6731 C9.5342,58.4741 9.4452,58.2921 9.2932,58.1581 C9.1452,58.0261 8.9552,57.9591 8.7592,57.9701 L8.7592,57.9701 Z M5.3072,61.2631 L5.3082,61.2631 L5.3072,61.2631 Z M5.2122,62.0161 C4.6642,62.0161 4.1412,61.8181 3.7252,61.4501 C3.2752,61.0521 3.0052,60.5031 2.9682,59.9051 L2.9232,59.1641 C2.8472,57.9281 3.7872,56.8621 5.0212,56.7801 L8.6432,56.4741 C8.6492,56.4741 8.6542,56.4731 8.6592,56.4731 C9.2582,56.4371 9.8362,56.6361 10.2872,57.0341 C10.7382,57.4331 11.0072,57.9821 11.0442,58.5801 L11.0892,59.3211 C11.1652,60.5561 10.2262,61.6231 8.9912,61.7051 L5.3692,62.0111 C5.3632,62.0111 5.3592,62.0121 5.3532,62.0121 C5.3062,62.0151 5.2592,62.0161 5.2122,62.0161 L5.2122,62.0161 Z" id="Fill-108" fill="#354546" mask="url(#mask-2)"></path>
                <path d="M5.5297,65.1185 C4.7067,65.1695 3.9907,64.5365 3.9397,63.7135 L3.8937,62.9725 C3.8427,62.1495 4.4757,61.4345 5.2997,61.3835 L8.9287,61.0765 C9.7527,61.0265 10.4667,61.6585 10.5177,62.4815 L10.5637,63.2225 C10.6147,64.0455 9.9827,64.7615 9.1597,64.8115 L5.5297,65.1185 Z" id="Fill-109" fill="#A5B5B6" mask="url(#mask-2)"></path>
                <path d="M8.9818,61.825 L5.3628,62.131 L5.3448,62.132 C5.1468,62.144 4.9638,62.234 4.8318,62.385 C4.6978,62.536 4.6308,62.728 4.6428,62.927 L4.6888,63.668 C4.7138,64.078 5.0648,64.393 5.4758,64.37 L9.0958,64.065 C9.1018,64.064 9.1068,64.064 9.1128,64.063 C9.5258,64.038 9.8408,63.681 9.8158,63.268 L9.7698,62.528 C9.7448,62.117 9.3928,61.803 8.9818,61.825 L8.9818,61.825 Z M5.5298,65.118 L5.5308,65.118 L5.5298,65.118 Z M5.4358,65.871 C4.2578,65.871 3.2648,64.951 3.1918,63.76 L3.1458,63.019 C3.1088,62.421 3.3078,61.843 3.7078,61.392 C4.1038,60.943 4.6488,60.675 5.2438,60.636 L8.8658,60.329 L8.8828,60.328 C10.1228,60.252 11.1908,61.197 11.2668,62.435 L11.3128,63.176 C11.3888,64.411 10.4488,65.479 9.2138,65.56 L5.5928,65.866 C5.5868,65.866 5.5818,65.867 5.5758,65.867 C5.5288,65.87 5.4818,65.871 5.4358,65.871 L5.4358,65.871 Z" id="Fill-110" fill="#354546" mask="url(#mask-2)"></path>
                <path d="M10.7797,53.3119 C11.1797,52.6629 12.0897,52.4709 12.8007,52.8859 L13.4407,53.2589 C14.1527,53.6729 14.4077,54.5429 14.0087,55.1929 L10.3537,61.1249 C9.9537,61.7749 9.0447,61.9669 8.3337,61.5519 L7.6927,61.1789 C6.9807,60.7649 6.7257,59.8949 7.1257,59.2449 L10.7797,53.3119 Z" id="Fill-111" fill="#A5B5B6" mask="url(#mask-2)"></path>
                <path d="M11.4183,53.7054 L7.7643,59.6384 C7.6673,59.7964 7.6783,59.9564 7.7053,60.0634 C7.7533,60.2534 7.8863,60.4234 8.0703,60.5314 L8.7103,60.9044 C9.0683,61.1134 9.5283,61.0344 9.7153,60.7324 L13.3693,54.7994 C13.4673,54.6414 13.4553,54.4804 13.4283,54.3734 C13.3813,54.1844 13.2473,54.0144 13.0643,53.9064 L12.4233,53.5334 C12.0643,53.3244 11.6053,53.4034 11.4183,53.7054 M9.1373,62.5194 C8.7363,62.5194 8.3273,62.4164 7.9553,62.2004 L7.3143,61.8274 C6.7833,61.5174 6.3963,61.0074 6.2503,60.4284 C6.1133,59.8824 6.1973,59.3224 6.4873,58.8514 L10.1423,52.9184 C10.7543,51.9244 12.1163,51.6194 13.1783,52.2374 L13.8183,52.6104 C14.3503,52.9204 14.7383,53.4304 14.8833,54.0094 C15.0203,54.5554 14.9363,55.1154 14.6473,55.5854 L10.9923,61.5184 C10.5943,62.1644 9.8803,62.5194 9.1373,62.5194" id="Fill-112" fill="#354546" mask="url(#mask-2)"></path>
                <path d="M17.6312,55.3905 C17.5792,53.7415 16.1872,52.4345 14.5372,52.4865 L12.7762,52.5425 C11.1262,52.5945 9.8192,53.9865 9.8722,55.6355 L9.9282,57.3985 C9.9802,59.0475 11.3722,60.3535 13.0212,60.3015 L14.7832,60.2455 C16.4332,60.1935 17.7392,58.8015 17.6872,57.1525 L17.6312,55.3905 Z" id="Fill-113" fill="#A5B5B6" mask="url(#mask-2)"></path>
                <path d="M14.6342,53.2352 C14.6102,53.2352 14.5852,53.2352 14.5622,53.2362 L12.7992,53.2922 C12.2012,53.3112 11.6462,53.5642 11.2332,54.0042 C10.8202,54.4432 10.6032,55.0152 10.6212,55.6122 L10.6772,57.3742 C10.7172,58.6142 11.7622,59.5882 12.9972,59.5522 L14.7602,59.4962 C15.9992,59.4572 16.9772,58.4162 16.9372,57.1762 L16.8812,55.4142 C16.8432,54.1982 15.8412,53.2352 14.6342,53.2352 M12.9252,61.0532 C10.9112,61.0532 9.2422,59.4482 9.1782,57.4222 L9.1222,55.6592 C9.0912,54.6612 9.4512,53.7092 10.1392,52.9772 C10.8262,52.2452 11.7542,51.8242 12.7522,51.7932 L14.5142,51.7372 C16.5822,51.6722 18.3162,53.3002 18.3812,55.3662 L18.4372,57.1292 C18.5022,59.1952 16.8732,60.9302 14.8072,60.9952 L13.0452,61.0512 C13.0042,61.0522 12.9642,61.0532 12.9252,61.0532" id="Fill-114" fill="#354546" mask="url(#mask-2)"></path>
                <path d="M56.1088,75.0506 L56.1098,75.0506 L56.1088,75.0506 Z M57.0448,75.4266 C57.0198,75.4266 56.9978,75.4276 56.9748,75.4286 C56.7948,75.4366 56.7248,75.4786 56.7138,75.4926 C56.6298,75.6086 56.5608,76.3036 57.3268,77.9236 C57.9088,79.1536 58.7328,80.3996 59.2128,80.9466 C59.5988,81.3866 60.0858,81.6296 60.5458,81.6056 C60.9458,81.5876 61.2988,81.3826 61.5688,81.0126 C62.2418,80.0896 62.1068,78.5076 61.2748,77.5586 C60.5678,76.7536 58.2488,75.4266 57.0448,75.4266 L57.0448,75.4266 Z M60.4908,83.1066 C59.6128,83.1066 58.7428,82.6846 58.0868,81.9366 C57.5458,81.3216 54.1038,76.5276 55.5028,74.6096 C55.7128,74.3186 56.1298,73.9656 56.9068,73.9296 C58.6528,73.8476 61.4438,75.4766 62.4018,76.5696 C63.7078,78.0566 63.8738,80.3966 62.7818,81.8956 C62.2418,82.6356 61.4718,83.0656 60.6138,83.1046 C60.5728,83.1066 60.5318,83.1066 60.4908,83.1066 L60.4908,83.1066 Z" id="Fill-115" fill="#19B5FE" mask="url(#mask-2)"></path>
                <path d="M56.5804,74.6624 L56.5824,74.6624 L56.5804,74.6624 Z M62.7984,72.7604 C61.3824,72.7604 59.2014,73.1784 58.0064,73.9734 C57.7224,74.1624 57.3724,74.4554 57.3214,74.7794 C57.2544,75.2104 57.7314,76.0414 59.2764,77.0764 C60.5554,77.9334 62.1044,78.6064 62.9134,78.8054 C63.5144,78.9534 64.1324,78.8444 64.6514,78.4984 C65.2784,78.0814 65.7144,77.3574 65.8474,76.5134 C66.1084,74.8444 65.1544,73.1994 63.7194,72.8464 C63.4854,72.7884 63.1674,72.7604 62.7984,72.7604 L62.7984,72.7604 Z M63.4444,80.3704 C63.1484,80.3704 62.8514,80.3344 62.5554,80.2624 C60.7884,79.8284 55.4094,77.2834 55.8404,74.5464 C55.9484,73.8544 56.3974,73.2414 57.1764,72.7244 C58.9674,71.5324 62.4684,70.9944 64.0774,71.3904 C66.2504,71.9234 67.7084,74.3264 67.3284,76.7454 C67.1314,78.0044 66.4584,79.0984 65.4824,79.7474 C64.8634,80.1594 64.1614,80.3704 63.4444,80.3704 L63.4444,80.3704 Z" id="Fill-116" fill="#C72C1C" mask="url(#mask-2)"></path>
                <path d="M52.3842,60.0238 C50.7402,59.8798 48.0472,59.8338 46.4002,59.9198 L37.3292,60.3938 C35.6812,60.4798 34.3102,61.8998 34.2802,63.5498 L34.1302,72.1728 C34.1022,73.8228 35.3802,75.5278 36.9722,75.9618 L46.1612,78.4688 C47.7532,78.9038 50.3692,78.9488 51.9752,78.5708 L61.2462,76.3858 C62.8522,76.0068 64.1902,74.3478 64.2182,72.6978 L64.3682,64.0748 C64.3982,62.4248 63.0762,60.9578 61.4332,60.8148 L52.3842,60.0238 Z" id="Fill-117" fill="#A5B5B6" mask="url(#mask-2)"></path>
                <path d="M61.2885,73.9857 L52.0175,76.1717 C50.4115,76.5497 47.7955,76.5047 46.2025,76.0697 L37.0145,73.5627 C35.4225,73.1277 34.1425,71.4227 34.1725,69.7737 L34.1305,72.1727 C34.1015,73.8227 35.3805,75.5277 36.9725,75.9617 L46.1615,78.4687 C47.7535,78.9037 50.3695,78.9487 51.9755,78.5707 L61.2465,76.3857 C62.8515,76.0067 64.1895,74.3477 64.2185,72.6977 L64.2605,70.2977 C64.2315,71.9477 62.8935,73.6077 61.2885,73.9857" id="Fill-118" fill="#859596" mask="url(#mask-2)"></path>
                <path d="M48.3646,60.6258 C47.6586,60.6258 46.9906,60.6398 46.4386,60.6678 L37.3686,61.1428 C36.1226,61.2078 35.0516,62.3158 35.0306,63.5628 L34.8806,72.1858 C34.8566,73.4958 35.9056,74.8938 37.1696,75.2388 L46.3586,77.7458 C47.8276,78.1468 50.3206,78.1898 51.8026,77.8408 L61.0746,75.6558 C62.3486,75.3548 63.4456,73.9948 63.4686,72.6848 L63.6196,64.0618 C63.6406,62.8148 62.6096,61.6698 61.3676,61.5618 L52.3186,60.7718 C51.2496,60.6778 49.7366,60.6258 48.3646,60.6258 M49.3436,79.5798 C48.1356,79.5798 46.9026,79.4488 45.9636,79.1928 L36.7746,76.6858 C34.8366,76.1568 33.3446,74.1688 33.3806,72.1598 L33.5306,63.5368 C33.5666,61.4978 35.2526,59.7508 37.2896,59.6448 L46.3606,59.1708 C48.0416,59.0828 50.7726,59.1298 52.4496,59.2768 L61.4976,60.0668 C63.5296,60.2448 65.1546,62.0478 65.1186,64.0878 L64.9686,72.7108 C64.9326,74.7198 63.3736,76.6548 61.4186,77.1158 L52.1466,79.3008 C51.3526,79.4878 50.3566,79.5798 49.3436,79.5798" id="Fill-119" fill="#354546" mask="url(#mask-2)"></path>
                <polygon id="Fill-120" fill="#556566" mask="url(#mask-2)" points="52.2767 73.1019 39.2017 72.8729 39.3617 63.6749 52.4377 63.9029"></polygon>
                <path d="M47.8617,71.1634 C47.6047,71.1634 47.3637,71.0314 47.2247,70.8094 L46.1877,69.1444 L44.5707,69.1164 C44.3187,69.1124 44.0867,68.9824 43.9517,68.7694 L43.8837,68.6644 L43.4477,69.6814 C43.3497,69.9084 43.1467,70.0724 42.9047,70.1214 C42.6627,70.1694 42.4127,70.0954 42.2357,69.9224 L41.3487,69.0604 L39.2677,69.0244 C38.8537,69.0174 38.5247,68.6754 38.5317,68.2614 C38.5387,67.8514 38.8737,67.5244 39.2817,67.5244 L39.2947,67.5244 L41.6727,67.5654 C41.8627,67.5694 42.0457,67.6454 42.1817,67.7784 L42.4997,68.0874 L43.0657,66.7704 C43.1747,66.5154 43.4177,66.3414 43.6937,66.3194 C43.9697,66.2964 44.2377,66.4294 44.3867,66.6634 L44.9997,67.6234 L46.6217,67.6524 C46.8757,67.6564 47.1107,67.7894 47.2447,68.0054 L47.6387,68.6384 L48.4517,66.0844 C48.5497,65.7774 48.8347,65.5664 49.1577,65.5624 C49.4787,65.5584 49.7697,65.7624 49.8757,66.0674 L50.4457,67.7194 L52.3707,67.7524 C52.7847,67.7594 53.1147,68.1014 53.1067,68.5154 C53.0997,68.9254 52.7657,69.2524 52.3577,69.2524 L52.3437,69.2524 L49.8947,69.2094 C49.5797,69.2044 49.3017,69.0024 49.1997,68.7044 L49.1957,68.6944 L48.5767,70.6404 C48.4877,70.9194 48.2457,71.1214 47.9547,71.1574 C47.9237,71.1614 47.8917,71.1634 47.8617,71.1634" id="Fill-121" fill="#D5E5E6" mask="url(#mask-2)"></path>
                <path d="M39.9642,72.1366 L51.5402,72.3386 L51.6752,64.6396 L40.0982,64.4386 L39.9642,72.1366 Z M52.2772,73.8516 L52.2642,73.8516 L39.1882,73.6236 C38.7742,73.6156 38.4432,73.2746 38.4512,72.8606 L38.6112,63.6616 C38.6192,63.2476 38.9602,62.9126 39.3742,62.9256 L52.4502,63.1536 C52.6502,63.1566 52.8392,63.2396 52.9772,63.3826 C53.1152,63.5256 53.1912,63.7176 53.1882,63.9166 L53.0272,73.1146 C53.0242,73.3136 52.9412,73.5036 52.7982,73.6416 C52.6582,73.7766 52.4712,73.8516 52.2772,73.8516 L52.2772,73.8516 Z" id="Fill-122" fill="#354546" mask="url(#mask-2)"></path>
                <path d="M59.2552,65.7972 C59.2382,66.7772 58.4302,67.5582 57.4492,67.5412 C56.4702,67.5242 55.6892,66.7152 55.7062,65.7352 C55.7232,64.7552 56.5312,63.9742 57.5122,63.9912 C58.4912,64.0082 59.2732,64.8172 59.2552,65.7972" id="Fill-123" fill="#F85C4C" mask="url(#mask-2)"></path>
                <path d="M59.2552,65.7972 L59.2572,65.7972 L59.2552,65.7972 Z M57.4812,64.7412 C56.9242,64.7412 56.4662,65.1892 56.4562,65.7482 C56.4512,66.0222 56.5532,66.2812 56.7432,66.4782 C56.9342,66.6752 57.1892,66.7862 57.4632,66.7912 C57.7382,66.7912 57.9962,66.6932 58.1932,66.5042 C58.3902,66.3132 58.5012,66.0582 58.5062,65.7842 C58.5162,65.2192 58.0642,64.7512 57.4982,64.7412 L57.4812,64.7412 L57.4812,64.7412 Z M57.4822,68.2912 L57.4372,68.2912 C56.7632,68.2792 56.1332,68.0052 55.6642,67.5202 C55.1952,67.0352 54.9442,66.3972 54.9562,65.7222 C54.9812,64.3302 56.1322,63.2172 57.5252,63.2422 C58.9172,63.2662 60.0292,64.4182 60.0052,65.8102 C59.9932,66.4842 59.7202,67.1142 59.2342,67.5832 C58.7602,68.0412 58.1402,68.2912 57.4822,68.2912 L57.4822,68.2912 Z" id="Fill-124" fill="#C72C1C" mask="url(#mask-2)"></path>
                <path d="M59.1566,71.4466 C59.1396,72.4266 58.3316,73.2076 57.3506,73.1906 C56.3716,73.1736 55.5906,72.3646 55.6076,71.3846 C55.6246,70.4046 56.4326,69.6236 57.4136,69.6406 C58.3936,69.6576 59.1746,70.4666 59.1566,71.4466" id="Fill-125" fill="#B9D96D" mask="url(#mask-2)"></path>
                <path d="M59.1566,71.4466 L59.1586,71.4466 L59.1566,71.4466 Z M57.3826,70.3906 C57.1146,70.3906 56.8626,70.4926 56.6706,70.6776 C56.4726,70.8686 56.3626,71.1236 56.3576,71.3976 C56.3526,71.6716 56.4546,71.9306 56.6446,72.1276 C56.8356,72.3246 57.0906,72.4356 57.3646,72.4406 C57.6366,72.4506 57.8976,72.3426 58.0946,72.1526 C58.2916,71.9626 58.4026,71.7066 58.4076,71.4336 C58.4176,70.8686 57.9656,70.4006 57.3996,70.3906 L57.3826,70.3906 Z M57.3836,73.9406 L57.3386,73.9406 C56.6646,73.9286 56.0346,73.6546 55.5656,73.1696 C55.0966,72.6846 54.8456,72.0456 54.8576,71.3716 C54.8696,70.6966 55.1426,70.0676 55.6286,69.5986 C56.1136,69.1306 56.7516,68.8766 57.4266,68.8906 C58.8186,68.9156 59.9306,70.0676 59.9066,71.4596 C59.8836,72.8366 58.7556,73.9406 57.3836,73.9406 L57.3836,73.9406 Z" id="Fill-126" fill="#719911" mask="url(#mask-2)"></path>
                <path d="M39.014,62.5467 C38.654,62.5467 38.335,62.2857 38.275,61.9187 L37.87,59.4657 C37.803,59.0567 38.08,58.6707 38.489,58.6037 C38.898,58.5367 39.284,58.8137 39.351,59.2217 L39.754,61.6747 C39.822,62.0837 39.545,62.4687 39.137,62.5367 C39.095,62.5437 39.054,62.5467 39.014,62.5467" id="Fill-127" fill="#354546" mask="url(#mask-2)"></path>
                <path d="M41.974,62.0594 C41.614,62.0594 41.295,61.7984 41.235,61.4314 L40.831,58.9784 C40.764,58.5694 41.04,58.1834 41.45,58.1164 C41.858,58.0494 42.244,58.3264 42.311,58.7344 L42.715,61.1874 C42.783,61.5964 42.505,61.9814 42.097,62.0494 C42.055,62.0564 42.014,62.0594 41.974,62.0594" id="Fill-128" fill="#354546" mask="url(#mask-2)"></path>
                <path d="M59.3177,62.5467 C59.2777,62.5467 59.2367,62.5437 59.1957,62.5367 C58.7867,62.4687 58.5097,62.0837 58.5777,61.6747 L58.9807,59.2217 C59.0477,58.8137 59.4327,58.5367 59.8427,58.6037 C60.2517,58.6707 60.5287,59.0567 60.4617,59.4657 L60.0567,61.9187 C59.9967,62.2857 59.6787,62.5467 59.3177,62.5467" id="Fill-129" fill="#354546" mask="url(#mask-2)"></path>
                <path d="M56.3578,62.0594 C56.3178,62.0594 56.2768,62.0564 56.2348,62.0494 C55.8268,61.9814 55.5498,61.5964 55.6168,61.1874 L56.0208,58.7344 C56.0878,58.3264 56.4728,58.0494 56.8828,58.1164 C57.2918,58.1834 57.5688,58.5694 57.5018,58.9784 L57.0968,61.4314 C57.0368,61.7984 56.7178,62.0594 56.3578,62.0594" id="Fill-130" fill="#354546" mask="url(#mask-2)"></path>
                <polygon id="Fill-131" fill="#A5B5B6" mask="url(#mask-2)" points="36.072 107.861 40.759 107.861 40.759 98.861 36.072 98.861"></polygon>
                <polygon id="Fill-132" fill="#C5D5D6" mask="url(#mask-2)" points="36.072 102.436 40.759 102.436 40.759 98.86 36.072 98.86"></polygon>
                <path d="M36.822,107.111 L40.01,107.111 L40.01,99.611 L36.822,99.611 L36.822,107.111 Z M40.759,108.611 L36.072,108.611 C35.658,108.611 35.322,108.275 35.322,107.861 L35.322,98.861 C35.322,98.446 35.658,98.111 36.072,98.111 L40.759,98.111 C41.173,98.111 41.509,98.446 41.509,98.861 L41.509,107.861 C41.509,108.275 41.173,108.611 40.759,108.611 L40.759,108.611 Z" id="Fill-133" fill="#354546" mask="url(#mask-2)"></path>
                <polygon id="Fill-134" fill="#A5B5B6" mask="url(#mask-2)" points="32.892 106.098 36.078 106.098 36.078 90.198 32.892 90.198"></polygon>
                <path d="M33.643,105.348 L35.329,105.348 L35.329,90.948 L33.643,90.948 L33.643,105.348 Z M36.078,106.848 L32.893,106.848 C32.479,106.848 32.143,106.512 32.143,106.098 L32.143,90.198 C32.143,89.784 32.479,89.448 32.893,89.448 L36.078,89.448 C36.493,89.448 36.828,89.784 36.828,90.198 L36.828,106.098 C36.828,106.512 36.493,106.848 36.078,106.848 L36.078,106.848 Z" id="Fill-135" fill="#354546" mask="url(#mask-2)"></path>
                <path d="M34.5521,84.6854 L34.4191,84.6854 C32.7691,84.6854 31.4191,86.0354 31.4191,87.6854 L31.4191,94.8104 L37.5521,94.8104 L37.5521,87.6854 C37.5521,86.0354 36.2011,84.6854 34.5521,84.6854" id="Fill-136" fill="#A5B5B6" mask="url(#mask-2)"></path>
                <path d="M34.5521,84.6854 L34.4191,84.6854 C32.7691,84.6854 31.4191,86.0354 31.4191,87.6854 L31.4191,90.4234 C31.4191,88.7724 32.7691,87.4234 34.4191,87.4234 L34.5521,87.4234 C36.2011,87.4234 37.5521,88.7724 37.5521,90.4234 L37.5521,87.6854 C37.5521,86.0354 36.2011,84.6854 34.5521,84.6854" id="Fill-137" fill="#C5D5D6" mask="url(#mask-2)"></path>
                <path d="M32.1693,94.0604 L36.8023,94.0604 L36.8023,87.6854 C36.8023,86.4444 35.7923,85.4354 34.5523,85.4354 L34.4193,85.4354 C33.1793,85.4354 32.1693,86.4444 32.1693,87.6854 L32.1693,94.0604 Z M37.5523,95.5604 L31.4193,95.5604 C31.0053,95.5604 30.6693,95.2254 30.6693,94.8104 L30.6693,87.6854 C30.6693,85.6174 32.3523,83.9354 34.4193,83.9354 L34.5523,83.9354 C36.6193,83.9354 38.3023,85.6174 38.3023,87.6854 L38.3023,94.8104 C38.3023,95.2254 37.9663,95.5604 37.5523,95.5604 L37.5523,95.5604 Z" id="Fill-138" fill="#354546" mask="url(#mask-2)"></path>
                <polygon id="Fill-139" fill="#A5B5B6" mask="url(#mask-2)" points="57.197 107.861 61.884 107.861 61.884 98.861 57.197 98.861"></polygon>
                <polygon id="Fill-140" fill="#C5D5D6" mask="url(#mask-2)" points="57.197 102.436 61.884 102.436 61.884 98.86 57.197 98.86"></polygon>
                <path d="M57.947,107.111 L61.135,107.111 L61.135,99.611 L57.947,99.611 L57.947,107.111 Z M61.884,108.611 L57.197,108.611 C56.783,108.611 56.447,108.275 56.447,107.861 L56.447,98.861 C56.447,98.446 56.783,98.111 57.197,98.111 L61.884,98.111 C62.298,98.111 62.634,98.446 62.634,98.861 L62.634,107.861 C62.634,108.275 62.298,108.611 61.884,108.611 L61.884,108.611 Z" id="Fill-141" fill="#354546" mask="url(#mask-2)"></path>
                <polygon id="Fill-142" fill="#A5B5B6" mask="url(#mask-2)" points="61.878 106.098 65.063 106.098 65.063 90.198 61.878 90.198"></polygon>
                <path d="M62.628,105.348 L64.313,105.348 L64.313,90.948 L62.628,90.948 L62.628,105.348 Z M65.063,106.848 L61.878,106.848 C61.464,106.848 61.128,106.512 61.128,106.098 L61.128,90.198 C61.128,89.784 61.464,89.448 61.878,89.448 L65.063,89.448 C65.477,89.448 65.813,89.784 65.813,90.198 L65.813,106.098 C65.813,106.512 65.477,106.848 65.063,106.848 L65.063,106.848 Z" id="Fill-143" fill="#354546" mask="url(#mask-2)"></path>
                <path d="M63.4047,84.6854 L63.5367,84.6854 C65.1867,84.6854 66.5367,86.0354 66.5367,87.6854 L66.5367,94.8104 L60.4047,94.8104 L60.4047,87.6854 C60.4047,86.0354 61.7547,84.6854 63.4047,84.6854" id="Fill-144" fill="#A5B5B6" mask="url(#mask-2)"></path>
                <path d="M63.4047,84.6854 L63.5367,84.6854 C65.1867,84.6854 66.5367,86.0354 66.5367,87.6854 L66.5367,90.4234 C66.5367,88.7724 65.1867,87.4234 63.5367,87.4234 L63.4047,87.4234 C61.7547,87.4234 60.4047,88.7724 60.4047,90.4234 L60.4047,87.6854 C60.4047,86.0354 61.7547,84.6854 63.4047,84.6854" id="Fill-145" fill="#C5D5D6" mask="url(#mask-2)"></path>
                <path d="M61.1547,94.0604 L65.7867,94.0604 L65.7867,87.6854 C65.7867,86.4444 64.7777,85.4354 63.5367,85.4354 L63.4047,85.4354 C62.1637,85.4354 61.1547,86.4444 61.1547,87.6854 L61.1547,94.0604 Z M66.5367,95.5604 L60.4047,95.5604 C59.9907,95.5604 59.6547,95.2254 59.6547,94.8104 L59.6547,87.6854 C59.6547,85.6174 61.3367,83.9354 63.4047,83.9354 L63.5367,83.9354 C65.6047,83.9354 67.2867,85.6174 67.2867,87.6854 L67.2867,94.8104 C67.2867,95.2254 66.9517,95.5604 66.5367,95.5604 L66.5367,95.5604 Z" id="Fill-146" fill="#354546" mask="url(#mask-2)"></path>
                <path d="M57.059,115.3607 C57.059,117.0107 55.709,118.3607 54.059,118.3607 L43.759,118.3607 C42.109,118.3607 40.759,117.0107 40.759,115.3607 L40.759,91.3607 C40.759,89.7107 42.109,88.3607 43.759,88.3607 L54.059,88.3607 C55.709,88.3607 57.059,89.7107 57.059,91.3607 L57.059,115.3607 Z" id="Fill-147" fill="#6D6D6D" mask="url(#mask-2)"></path>
                <path d="M54.059,113.7855 L43.759,113.7855 C42.419,113.7855 41.178,112.8955 40.759,111.6775 L40.759,115.3605 C40.759,117.0105 42.109,118.3605 43.759,118.3605 L54.059,118.3605 C55.709,118.3605 57.059,117.0105 57.059,115.3605 L57.059,111.6775 C56.64,112.8955 55.399,113.7855 54.059,113.7855" id="Fill-148" fill="#5B5B5B" mask="url(#mask-2)"></path>
                <polygon id="Fill-149" fill="#929292" mask="url(#mask-2)" points="56.9681 101.411 40.7591 100.06 40.8501 96.011 56.9681 96.011"></polygon>
                <polygon id="Fill-150" fill="#929292" mask="url(#mask-2)" points="56.9681 104.5604 40.8501 105.6644 40.8501 102.9644 56.9681 102.9644"></polygon>
                <path d="M43.7592,89.1107 C42.5192,89.1107 41.5092,90.1197 41.5092,91.3607 L41.5092,115.3607 C41.5092,116.6017 42.5192,117.6107 43.7592,117.6107 L54.0592,117.6107 C55.3002,117.6107 56.3092,116.6017 56.3092,115.3607 L56.3092,91.3607 C56.3092,90.1197 55.3002,89.1107 54.0592,89.1107 L43.7592,89.1107 Z M54.0592,119.1107 L43.7592,119.1107 C41.6922,119.1107 40.0092,117.4277 40.0092,115.3607 L40.0092,91.3607 C40.0092,89.2927 41.6922,87.6107 43.7592,87.6107 L54.0592,87.6107 C56.1272,87.6107 57.8092,89.2927 57.8092,91.3607 L57.8092,115.3607 C57.8092,117.4277 56.1272,119.1107 54.0592,119.1107 L54.0592,119.1107 Z" id="Fill-151" fill="#121212" mask="url(#mask-2)"></path>
                <path d="M57.0961,84.6854 L40.7221,84.6854 C38.9411,84.6854 37.4831,86.0354 37.4831,87.6854 L37.4831,92.0354 L60.3351,92.0354 L60.3351,87.6854 C60.3351,86.0354 58.8781,84.6854 57.0961,84.6854" id="Fill-152" fill="#A5B5B6" mask="url(#mask-2)"></path>
                <path d="M57.0961,84.6854 L40.7221,84.6854 C38.9411,84.6854 37.4831,86.0354 37.4831,87.6854 L60.3351,87.6854 C60.3351,86.0354 58.8781,84.6854 57.0961,84.6854" id="Fill-153" fill="#C5D5D6" mask="url(#mask-2)"></path>
                <path d="M38.2328,91.2855 L59.5858,91.2855 L59.5858,87.6855 C59.5858,86.4445 58.4688,85.4355 57.0958,85.4355 L40.7218,85.4355 C39.3498,85.4355 38.2328,86.4445 38.2328,87.6855 L38.2328,91.2855 Z M60.3358,92.7855 L37.4828,92.7855 C37.0688,92.7855 36.7328,92.4495 36.7328,92.0355 L36.7328,87.6855 C36.7328,85.6175 38.5228,83.9355 40.7218,83.9355 L57.0958,83.9355 C59.2958,83.9355 61.0858,85.6175 61.0858,87.6855 L61.0858,92.0355 C61.0858,92.4495 60.7498,92.7855 60.3358,92.7855 L60.3358,92.7855 Z" id="Fill-154" fill="#354546" mask="url(#mask-2)"></path>
                <path d="M44.4095,86.8661 C43.9955,86.8661 43.6595,86.5311 43.6595,86.1161 L43.6595,83.6311 C43.6595,83.2161 43.9955,82.8811 44.4095,82.8811 C44.8235,82.8811 45.1595,83.2161 45.1595,83.6311 L45.1595,86.1161 C45.1595,86.5311 44.8235,86.8661 44.4095,86.8661" id="Fill-155" fill="#354546" mask="url(#mask-2)"></path>
                <path d="M47.4095,86.8661 C46.9955,86.8661 46.6595,86.5311 46.6595,86.1161 L46.6595,83.6311 C46.6595,83.2161 46.9955,82.8811 47.4095,82.8811 C47.8235,82.8811 48.1595,83.2161 48.1595,83.6311 L48.1595,86.1161 C48.1595,86.5311 47.8235,86.8661 47.4095,86.8661" id="Fill-156" fill="#354546" mask="url(#mask-2)"></path>
                <path d="M50.4095,86.8661 C49.9955,86.8661 49.6595,86.5311 49.6595,86.1161 L49.6595,83.6311 C49.6595,83.2161 49.9955,82.8811 50.4095,82.8811 C50.8235,82.8811 51.1595,83.2161 51.1595,83.6311 L51.1595,86.1161 C51.1595,86.5311 50.8235,86.8661 50.4095,86.8661" id="Fill-157" fill="#354546" mask="url(#mask-2)"></path>
                <path d="M53.4095,86.8661 C52.9955,86.8661 52.6595,86.5311 52.6595,86.1161 L52.6595,83.6311 C52.6595,83.2161 52.9955,82.8811 53.4095,82.8811 C53.8235,82.8811 54.1595,83.2161 54.1595,83.6311 L54.1595,86.1161 C54.1595,86.5311 53.8235,86.8661 53.4095,86.8661" id="Fill-158" fill="#354546" mask="url(#mask-2)"></path>
                <path d="M71.2601,21.1126 C71.2501,21.1126 71.2391,21.1126 71.2281,21.1116 C70.8151,21.0936 70.4931,20.7446 70.5111,20.3306 L70.9401,10.2086 C71.0061,8.4196 70.3641,6.7016 69.1341,5.3766 C67.9031,4.0506 66.2381,3.2846 64.4441,3.2186 C64.4371,3.2176 64.4291,3.2176 64.4221,3.2166 L38.3631,1.5046 C34.6471,1.3726 31.5151,4.2856 31.3781,8.0016 L30.9481,18.8756 C30.9321,19.2886 30.5781,19.6116 30.1691,19.5946 C29.7561,19.5786 29.4341,19.2296 29.4491,18.8156 L29.8791,7.9446 C30.0471,3.4006 33.8851,-0.1604 38.4281,0.0066 C38.4351,0.0066 38.4431,0.0066 38.4491,0.0076 L64.5101,1.7196 C66.6991,1.8036 68.7321,2.7396 70.2331,4.3556 C71.7371,5.9746 72.5201,8.0746 72.4391,10.2686 L72.0091,20.3946 C71.9921,20.7976 71.6601,21.1126 71.2601,21.1126" id="Fill-159" fill="#354546" mask="url(#mask-2)"></path>
                <path d="M25.9164,19.764 C24.6224,19.716 23.5144,21.026 23.4534,22.675 L23.0794,32.809 C23.0184,34.458 24.0264,35.846 25.3204,35.894 C26.6144,35.942 27.6724,35.981 27.6724,35.981 L28.2694,19.851 C28.2694,19.851 27.2104,19.812 25.9164,19.764" id="Fill-160" fill="#A5B5B6" mask="url(#mask-2)"></path>
                <path d="M23.4535,22.6751 L23.2695,27.6351 L27.9745,27.8091 L28.2685,19.8511 C28.2685,19.8511 27.2105,19.8121 25.9165,19.7641 C24.6225,19.7161 23.5145,21.0261 23.4535,22.6751" id="Fill-161" fill="#C5D5D6" mask="url(#mask-2)"></path>
                <path d="M27.6449,36.7298 L25.2919,36.6438 C24.4449,36.6118 23.6399,36.1558 23.0849,35.3928 C22.5619,34.6728 22.2939,33.7458 22.3299,32.7808 L22.7039,22.6468 C22.7809,20.5808 24.2379,18.9488 25.9439,19.0148 L28.2959,19.1018 L28.2409,20.6008 L25.8889,20.5138 C25.0199,20.4738 24.2479,21.4838 24.2029,22.7028 L23.8289,32.8368 C23.8049,33.4578 23.9769,34.0678 24.2979,34.5108 C24.5839,34.9048 24.9569,35.1298 25.3479,35.1448 L27.7009,35.2308 L27.6449,36.7298 Z" id="Fill-162" fill="#354546" mask="url(#mask-2)"></path>
                <polygon id="Fill-163" fill="#859596" mask="url(#mask-2)" points="31.9886 38.5394 27.5846 38.3764 28.3076 18.7754 32.7126 18.9384"></polygon>
                <polygon id="Fill-164" fill="#A5B5B6" mask="url(#mask-2)" points="32.2982 30.1527 27.8942 29.9897 28.3082 18.7757 32.7122 18.9387"></polygon>
                <path d="M28.3617,37.6551 L31.2667,37.7621 L31.9347,19.6601 L29.0307,19.5521 L28.3617,37.6551 Z M31.9887,39.2891 L31.9607,39.2891 L27.5557,39.1261 C27.1427,39.1111 26.8197,38.7631 26.8347,38.3491 L27.5587,18.7481 C27.5747,18.3341 27.9217,18.0101 28.3367,18.0261 L32.7407,18.1891 C32.9387,18.1961 33.1267,18.2821 33.2617,18.4281 C33.3977,18.5731 33.4687,18.7671 33.4627,18.9661 L32.7377,38.5671 C32.7307,38.7661 32.6437,38.9531 32.4987,39.0891 C32.3597,39.2181 32.1767,39.2891 31.9887,39.2891 L31.9887,39.2891 Z" id="Fill-165" fill="#354546" mask="url(#mask-2)"></path>
                <path d="M23.2699,28.3851 L23.2689,28.3851 L21.4669,28.3811 C21.0529,28.3801 20.7179,28.0441 20.7189,27.6301 C20.7199,27.2161 21.0549,26.8811 21.4689,26.8811 L21.4699,26.8811 L23.2719,26.8851 C23.6859,26.8851 24.0209,27.2221 24.0199,27.6361 C24.0189,28.0501 23.6839,28.3851 23.2699,28.3851" id="Fill-166" fill="#354546" mask="url(#mask-2)"></path>
                <path d="M78.3441,10.5555 C78.2591,10.5555 78.1711,10.5445 78.0841,10.5225 C77.5231,10.3795 77.1831,9.8085 77.3261,9.2465 L78.1031,6.1975 C78.2461,5.6365 78.8181,5.2965 79.3791,5.4395 C79.9421,5.5825 80.2811,6.1545 80.1381,6.7165 L79.3611,9.7645 C79.2401,10.2395 78.8131,10.5555 78.3441,10.5555" id="Fill-167" fill="#354546" mask="url(#mask-2)"></path>
                <path d="M75.266,22.3377 C75.204,22.3377 75.143,22.3297 75.08,22.3147 C74.679,22.2117 74.437,21.8037 74.538,21.4017 L77.617,9.3197 C77.719,8.9187 78.127,8.6757 78.529,8.7787 C78.93,8.8807 79.173,9.2897 79.071,9.6907 L75.993,21.7727 C75.906,22.1117 75.601,22.3377 75.266,22.3377" id="Fill-168" fill="#354546" mask="url(#mask-2)"></path>
                <path d="M75.266,21.5872 C76.56,21.6352 77.568,23.0232 77.507,24.6722 L77.133,34.8062 C77.072,36.4552 75.963,37.7642 74.67,37.7172 C73.376,37.6692 72.318,37.6302 72.318,37.6302 L72.913,21.5002 C72.913,21.5002 73.972,21.5392 75.266,21.5872" id="Fill-169" fill="#A5B5B6" mask="url(#mask-2)"></path>
                <path d="M77.5072,24.6722 L77.3232,29.6312 L72.6192,29.4582 L72.9132,21.5002 C72.9132,21.5002 73.9722,21.5392 75.2662,21.5872 C76.5602,21.6352 77.5682,23.0232 77.5072,24.6722" id="Fill-170" fill="#C5D5D6" mask="url(#mask-2)"></path>
                <path d="M74.7357,38.4681 C74.7047,38.4681 74.6737,38.4681 74.6417,38.4661 L72.2897,38.3801 L72.3447,36.8801 L74.6977,36.9671 C75.0877,36.9851 75.4757,36.7851 75.7917,36.4131 C76.1447,35.9951 76.3607,35.4001 76.3827,34.7781 L76.7577,24.6441 C76.7807,24.0231 76.6097,23.4131 76.2877,22.9701 C76.0017,22.5761 75.6287,22.3511 75.2377,22.3371 L72.8857,22.2501 C72.4717,22.2351 72.1487,21.8861 72.1647,21.4721 C72.1787,21.0591 72.5257,20.7381 72.9407,20.7511 L75.2937,20.8381 C76.1417,20.8691 76.9467,21.3251 77.5017,22.0891 C78.0237,22.8081 78.2927,23.7351 78.2567,24.7001 L77.8817,34.8341 C77.8467,35.7981 77.5097,36.7031 76.9357,37.3821 C76.3487,38.0761 75.5517,38.4681 74.7357,38.4681" id="Fill-171" fill="#354546" mask="url(#mask-2)"></path>
                <polygon id="Fill-172" fill="#859596" mask="url(#mask-2)" points="67.8246 39.8636 72.2286 40.0266 72.9536 20.4256 68.5496 20.2626"></polygon>
                <polygon id="Fill-173" fill="#A5B5B6" mask="url(#mask-2)" points="68.1351 31.4769 72.5381 31.6399 72.9531 20.4249 68.5491 20.2629"></polygon>
                <path d="M68.6019,39.1414 L71.5069,39.2484 L72.1759,21.1464 L69.2709,21.0394 L68.6019,39.1414 Z M72.2299,40.7764 C72.2199,40.7764 72.2099,40.7754 72.2019,40.7754 L67.7969,40.6134 C67.5979,40.6054 67.4109,40.5194 67.2759,40.3734 C67.1399,40.2274 67.0679,40.0344 67.0759,39.8354 L67.7989,20.2344 C67.8069,20.0364 67.8929,19.8484 68.0389,19.7124 C68.1839,19.5774 68.3779,19.5074 68.5769,19.5134 L72.9809,19.6754 C73.3949,19.6904 73.7179,20.0384 73.7029,20.4534 L72.9789,40.0534 C72.9629,40.4584 72.6309,40.7764 72.2299,40.7764 L72.2299,40.7764 Z" id="Fill-174" fill="#354546" mask="url(#mask-2)"></path>
                <path d="M79.1215,30.5111 C79.1025,30.5111 79.0855,30.5111 79.0665,30.5101 L77.2695,30.3801 C76.8565,30.3501 76.5465,29.9911 76.5755,29.5781 C76.6055,29.1651 76.9665,28.8551 77.3785,28.8841 L79.1745,29.0131 C79.5875,29.0431 79.8975,29.4021 79.8685,29.8151 C79.8405,30.2101 79.5115,30.5111 79.1215,30.5111" id="Fill-175" fill="#354546" mask="url(#mask-2)"></path>
                <path d="M31.9203,44.6766 C30.8943,44.6766 28.2853,45.7906 27.1803,47.0516 C26.2413,48.1216 26.0913,49.9066 26.8513,50.9516 C27.1623,51.3786 27.5723,51.6146 28.0363,51.6366 C28.5683,51.6566 29.1253,51.3866 29.5663,50.8846 C30.0983,50.2776 31.0123,48.8976 31.6553,47.5356 C32.4883,45.7746 32.4563,44.9626 32.3223,44.7796 C32.2823,44.7236 32.1533,44.6856 31.9793,44.6776 C31.9593,44.6766 31.9403,44.6766 31.9203,44.6766 M28.1013,53.1376 C28.0573,53.1376 28.0133,53.1366 27.9693,53.1346 C27.0463,53.0936 26.2193,52.6316 25.6393,51.8346 C24.4553,50.2106 24.6373,47.6746 26.0523,46.0616 C27.0993,44.8686 30.1413,43.0956 32.0463,43.1796 C32.8723,43.2176 33.3123,43.5906 33.5353,43.8966 C34.1483,44.7366 33.9763,46.1366 33.0123,48.1766 C32.3023,49.6776 31.3083,51.1736 30.6923,51.8736 C29.9833,52.6826 29.0463,53.1376 28.1013,53.1376" id="Fill-176" fill="#19B5FE" mask="url(#mask-2)"></path>
                <path d="M64.8275,42.6341 L64.8285,42.6341 L64.8275,42.6341 Z M66.3495,42.8991 C65.8915,42.8991 65.5385,42.9741 65.3715,43.1511 L65.3705,43.1511 C65.2465,43.2821 65.2525,43.5431 65.2795,43.7381 C65.4525,44.9761 66.7945,46.7281 67.5465,47.1731 C68.5055,47.7401 70.0665,47.4291 70.9555,46.4941 C71.3815,46.0461 71.5885,45.5191 71.5225,45.0501 C71.4715,44.6761 71.2495,44.3631 70.8845,44.1471 C69.8185,43.5171 67.6595,42.8991 66.3495,42.8991 L66.3495,42.8991 Z M68.6915,48.9601 C68.0115,48.9601 67.3485,48.7991 66.7825,48.4641 C65.6185,47.7761 64.0255,45.6061 63.7945,43.9451 C63.6625,42.9991 63.9875,42.4291 64.2835,42.1171 C65.9095,40.4061 70.5975,42.2341 71.6475,42.8561 C72.4095,43.3061 72.8925,44.0121 73.0085,44.8431 C73.1375,45.7671 72.7855,46.7461 72.0425,47.5281 C71.1605,48.4561 69.8975,48.9591 68.6915,48.9601 L68.6915,48.9601 Z" id="Fill-177" fill="#19B5FE" mask="url(#mask-2)"></path>
                <path d="M25.5521,41.7396 C25.1401,41.7396 24.7861,41.7716 24.5261,41.8356 C22.9061,42.2336 21.8291,44.0846 22.1241,45.9616 C22.2741,46.9126 22.7661,47.7286 23.4741,48.1996 C24.0651,48.5936 24.7671,48.7166 25.4501,48.5486 C26.3471,48.3286 28.0651,47.5826 29.4811,46.6336 C30.9511,45.6476 31.7701,44.6736 31.6681,44.0266 C31.6081,43.6426 31.2061,43.3036 30.8801,43.0866 C29.5521,42.2036 27.1271,41.7396 25.5521,41.7396 M24.8471,50.1226 C24.0721,50.1226 23.3121,49.8936 22.6431,49.4486 C21.5861,48.7456 20.8571,47.5596 20.6431,46.1946 C20.2301,43.5666 21.8111,40.9576 24.1671,40.3786 C25.9261,39.9466 29.7521,40.5346 31.7111,41.8386 C32.5491,42.3956 33.0331,43.0536 33.1501,43.7946 C33.6151,46.7606 27.7391,49.5316 25.8081,50.0056 C25.4891,50.0846 25.1661,50.1226 24.8471,50.1226" id="Fill-178" fill="#719911" mask="url(#mask-2)"></path>
                <path d="M67.474,47.3104 C67.322,51.4324 63.822,54.7914 59.697,54.7744 L38.078,54.6844 C33.953,54.6674 30.84,51.2884 31.161,47.1764 L33.548,13.3294 C33.869,9.2174 37.494,6.1364 41.605,6.4834 L61.373,8.1544 C65.484,8.5014 68.722,12.1584 68.571,16.2804 L67.474,47.3104 Z" id="Fill-179" fill="#A5B5B6" mask="url(#mask-2)"></path>
                <path d="M64.0482,41.0164 C63.9362,44.0474 61.1332,46.5094 57.8182,46.4864 L40.4472,46.3664 C37.1342,46.3434 34.6242,43.8504 34.8722,40.8264 L36.7082,16.9304 C36.9562,13.9064 39.8612,11.6494 43.1642,11.9154 L59.0522,13.1944 C62.3562,13.4594 64.9672,16.1574 64.8552,19.1894 L64.0482,41.0164 Z" id="Fill-180" fill="#C5D5D6" mask="url(#mask-2)"></path>
                <path d="M61.2709,51.4354 L37.7769,51.2764 C34.8619,51.2564 32.4089,49.8154 31.1409,47.6794 C31.0999,51.5604 34.1229,54.6674 38.0779,54.6844 L59.6969,54.7744 C63.1559,54.7884 66.1739,52.4284 67.1489,49.2354 C65.6179,50.6054 63.5329,51.4514 61.2709,51.4354" id="Fill-181" fill="#859596" mask="url(#mask-2)"></path>
                <path d="M61.3314,52.1854 L61.2654,52.1854 L37.7714,52.0264 C34.6764,52.0054 31.9564,50.5234 30.4954,48.0614 C30.2844,47.7064 30.4014,47.2464 30.7584,47.0344 C31.1134,46.8234 31.5744,46.9404 31.7854,47.2964 C32.9754,49.3014 35.2174,50.5094 37.7814,50.5264 L61.2754,50.6854 L61.3314,50.6854 C63.3124,50.6854 65.1984,49.9734 66.6484,48.6764 C66.9574,48.4004 67.4314,48.4264 67.7074,48.7354 C67.9834,49.0434 67.9574,49.5184 67.6484,49.7944 C65.9234,51.3374 63.6824,52.1854 61.3314,52.1854" id="Fill-182" fill="#354546" mask="url(#mask-2)"></path>
                <path d="M67.474,47.3104 L67.475,47.3104 L67.474,47.3104 Z M40.969,7.2064 C39.386,7.2064 37.868,7.7644 36.641,8.8054 C35.269,9.9724 34.436,11.5994 34.296,13.3874 L31.909,47.2284 C31.77,49.0134 32.336,50.6904 33.503,51.9574 C34.671,53.2254 36.296,53.9264 38.08,53.9344 L59.7,54.0244 L59.729,54.0244 C63.452,54.0244 66.586,51.0064 66.724,47.2844 L67.821,16.2544 C67.958,12.5144 65.038,9.2164 61.311,8.9014 L41.542,7.2304 C41.351,7.2144 41.16,7.2064 40.969,7.2064 L40.969,7.2064 Z M59.729,55.5244 L59.694,55.5244 L38.075,55.4344 C35.869,55.4254 33.853,54.5514 32.401,52.9744 C30.948,51.3964 30.242,49.3164 30.413,47.1174 L32.8,13.2764 C32.971,11.0814 33.991,9.0894 35.67,7.6624 C37.35,6.2354 39.48,5.5524 41.668,5.7364 L61.437,7.4074 C65.951,7.7884 69.487,11.7814 69.32,16.3084 L68.223,47.3364 L68.223,47.3384 C68.056,51.8594 64.249,55.5244 59.729,55.5244 L59.729,55.5244 Z" id="Fill-183" fill="#354546" mask="url(#mask-2)"></path>
                <path d="M50.9467,16.2962 C46.8397,16.2962 41.9427,15.0342 41.9427,9.0242 C41.9427,8.0812 42.0647,7.4552 42.3047,6.5622 C42.4127,6.1622 42.8237,5.9252 43.2237,6.0322 C43.6237,6.1402 43.8607,6.5512 43.7537,6.9512 C43.5387,7.7502 43.4427,8.2392 43.4427,9.0242 C43.4427,10.4522 43.4427,14.7962 50.9467,14.7962 C58.4837,14.7962 58.4837,10.4522 58.4837,9.0242 C58.4837,8.7062 58.4677,8.3862 58.4347,8.0722 C58.3927,7.6602 58.6917,7.2922 59.1037,7.2492 C59.5167,7.2082 59.8847,7.5062 59.9267,7.9182 C59.9647,8.2832 59.9837,8.6552 59.9837,9.0242 C59.9837,12.3412 58.4167,16.2962 50.9467,16.2962" id="Fill-184" fill="#354546" mask="url(#mask-2)"></path>
                <path d="M46.1644,25.9432 C45.9994,30.4132 42.2414,33.9032 37.7704,33.7382 C33.3004,33.5732 29.8104,29.8152 29.9764,25.3452 C30.1414,20.8742 33.8984,17.3842 38.3694,17.5492 C42.8394,17.7142 46.3294,21.4722 46.1644,25.9432" id="Fill-185" fill="#C5D5D6" mask="url(#mask-2)"></path>
                <path d="M38.0629,18.2938 C36.2029,18.2938 34.4389,18.9858 33.0679,20.2588 C31.6289,21.5948 30.7969,23.4108 30.7249,25.3728 C30.6529,27.3348 31.3479,29.2078 32.6849,30.6458 C34.0209,32.0848 35.8369,32.9168 37.7979,32.9888 C39.7609,33.0628 41.6329,32.3658 43.0719,31.0298 C44.5099,29.6938 45.3419,27.8768 45.4159,25.9158 C45.4879,23.9538 44.7919,22.0808 43.4559,20.6428 C42.1199,19.2038 40.3029,18.3718 38.3409,18.2988 C38.2489,18.2958 38.1559,18.2938 38.0629,18.2938 M38.0789,34.4938 C37.9669,34.4938 37.8549,34.4918 37.7439,34.4878 C35.3809,34.4008 33.1939,33.3988 31.5849,31.6668 C29.9769,29.9348 29.1389,27.6798 29.2259,25.3168 C29.3139,22.9548 30.3159,20.7678 32.0469,19.1598 C33.7799,17.5508 36.0349,16.7118 38.3969,16.7998 C40.7589,16.8878 42.9459,17.8898 44.5549,19.6218 C46.1639,21.3538 47.0009,23.6078 46.9149,25.9708 L46.1649,25.9428 L46.9149,25.9708 C46.8269,28.3338 45.8249,30.5198 44.0919,32.1288 C42.4429,33.6608 40.3179,34.4938 38.0789,34.4938" id="Fill-186" fill="#354546" mask="url(#mask-2)"></path>
                <path d="M43.2894,25.8368 C43.1834,28.7198 40.7604,30.9698 37.8774,30.8628 C34.9944,30.7568 32.7444,28.3338 32.8514,25.4508 C32.9574,22.5688 35.3804,20.3178 38.2634,20.4248 C41.1444,20.5318 43.3954,22.9548 43.2894,25.8368" id="Fill-187" fill="#9ABD45" mask="url(#mask-2)"></path>
                <path d="M41.3705,24.2352 C41.3045,26.0272 39.7985,27.4252 38.0065,27.3592 C36.2155,27.2932 34.8155,25.7872 34.8825,23.9952 C34.9485,22.2032 36.4545,20.8052 38.2465,20.8712 C40.0385,20.9372 41.4365,22.4432 41.3705,24.2352" id="Fill-188" fill="#CEEC87" mask="url(#mask-2)"></path>
                <path d="M38.0658,21.1712 C36.9338,21.1712 35.8598,21.5922 35.0258,22.3672 C34.1508,23.1802 33.6438,24.2852 33.5998,25.4792 C33.5558,26.6722 33.9798,27.8122 34.7928,28.6882 C35.6058,29.5632 36.7118,30.0692 37.9048,30.1132 C39.0988,30.1612 40.2388,29.7342 41.1138,28.9212 C41.9898,28.1082 42.4958,27.0032 42.5398,25.8092 C42.5848,24.6152 42.1608,23.4762 41.3468,22.6002 C40.5348,21.7252 39.4288,21.2182 38.2348,21.1742 C38.1788,21.1722 38.1228,21.1712 38.0658,21.1712 M38.0758,31.6172 C38.0008,31.6172 37.9248,31.6152 37.8498,31.6132 C36.2548,31.5532 34.7798,30.8782 33.6938,29.7092 C32.6078,28.5392 32.0428,27.0182 32.1008,25.4232 C32.2228,22.1322 34.9958,19.5612 38.2908,19.6752 C39.8848,19.7342 41.3608,20.4102 42.4468,21.5792 C43.5318,22.7482 44.0978,24.2702 44.0388,25.8642 C43.9798,27.4592 43.3038,28.9352 42.1338,30.0202 C41.0208,31.0552 39.5868,31.6172 38.0758,31.6172" id="Fill-189" fill="#354546" mask="url(#mask-2)"></path>
                <path d="M39.4164,22.1698 C39.7474,22.9118 38.7104,23.5448 37.3534,24.1528 C35.9944,24.7608 34.8314,25.1118 34.4994,24.3698 C34.1674,23.6278 34.9984,22.5348 36.3554,21.9268 C37.7144,21.3188 39.0844,21.4278 39.4164,22.1698" id="Fill-190" fill="#FFFFFF" mask="url(#mask-2)"></path>
                <path d="M38.4789,29.3499 C38.3929,29.1579 38.6629,28.9929 39.0139,28.8349 C39.3669,28.6779 39.6689,28.5859 39.7549,28.7789 C39.8409,28.9719 39.6249,29.2549 39.2729,29.4129 C38.9199,29.5709 38.5649,29.5429 38.4789,29.3499" id="Fill-191" fill="#FFFFFF" mask="url(#mask-2)"></path>
                <path d="M42.8734,25.7826 C42.8484,26.4636 42.2754,26.9946 41.5954,26.9696 C40.9154,26.9446 40.3844,26.3726 40.4084,25.6916 C40.4344,25.0116 41.0064,24.4796 41.6864,24.5056 C42.3664,24.5306 42.8974,25.1026 42.8734,25.7826" id="Fill-192" fill="#354546" mask="url(#mask-2)"></path>
                <path d="M69.0033,27.2904 C68.8623,31.0784 65.6783,32.3864 61.8903,32.2464 C58.1023,32.1064 55.1453,30.5724 55.2843,26.7834 C55.4243,22.9954 58.6083,20.0384 62.3973,20.1774 C66.1853,20.3174 69.1433,23.5024 69.0033,27.2904" id="Fill-193" fill="#C5D5D6" mask="url(#mask-2)"></path>
                <path d="M62.1381,20.9232 C60.5901,20.9232 59.1231,21.4982 57.9831,22.5572 C56.7861,23.6682 56.0941,25.1792 56.0341,26.8112 C55.9771,28.3522 56.4751,29.4862 57.5571,30.2772 C58.5531,31.0062 60.0611,31.4282 61.9181,31.4972 C67.0171,31.6882 68.1781,29.2982 68.2531,27.2622 C68.3141,25.6312 67.7351,24.0732 66.6231,22.8762 C65.5121,21.6802 64.0011,20.9872 62.3691,20.9272 C62.2921,20.9242 62.2151,20.9232 62.1381,20.9232 M62.4411,33.0062 C62.2511,33.0062 62.0591,33.0032 61.8631,32.9962 C59.6741,32.9152 57.9281,32.4072 56.6711,31.4882 C55.2001,30.4112 54.4601,28.7752 54.5341,26.7562 C54.6101,24.7232 55.4721,22.8422 56.9621,21.4582 C58.4521,20.0742 60.3941,19.3532 62.4251,19.4282 C64.4571,19.5032 66.3381,20.3652 67.7221,21.8552 C69.1071,23.3452 69.8271,25.2862 69.7521,27.3182 C69.6181,30.9542 66.9631,33.0062 62.4411,33.0062" id="Fill-194" fill="#354546" mask="url(#mask-2)"></path>
                <path d="M66.5668,27.2005 C66.4758,29.6425 64.4228,29.9005 61.9798,29.8095 C59.5378,29.7195 57.6298,29.3165 57.7208,26.8735 C57.8108,24.4305 59.8648,22.5245 62.3068,22.6145 C64.7498,22.7045 66.6568,24.7575 66.5668,27.2005" id="Fill-195" fill="#19B5FE" mask="url(#mask-2)"></path>
                <path d="M64.893,25.6678 C64.836,27.1858 63.662,27.7498 62.144,27.6938 C60.625,27.6378 59.338,26.9828 59.395,25.4648 C59.451,23.9458 60.727,22.7608 62.246,22.8168 C63.763,22.8728 64.949,24.1488 64.893,25.6678" id="Fill-196" fill="#39D5FF" mask="url(#mask-2)"></path>
                <path d="M62.142,23.3612 C60.177,23.3612 58.543,24.9222 58.47,26.9012 C58.413,28.4532 59.24,28.9582 62.008,29.0602 C65.148,29.1772 65.768,28.4862 65.817,27.1732 C65.892,25.1472 64.305,23.4392 62.28,23.3642 C62.234,23.3622 62.188,23.3612 62.142,23.3612 M62.819,30.5792 C62.5,30.5792 62.206,30.5692 61.953,30.5592 C60.293,30.4982 56.841,30.3702 56.971,26.8462 C57.077,23.9942 59.48,21.7612 62.334,21.8642 C65.187,21.9702 67.421,24.3762 67.316,27.2282 C67.205,30.2262 64.631,30.5792 62.819,30.5792" id="Fill-197" fill="#354546" mask="url(#mask-2)"></path>
                <path d="M63.2845,24.0926 C63.5655,24.7216 62.6855,25.2586 61.5355,25.7736 C60.3855,26.2886 59.3985,26.5866 59.1175,25.9576 C58.8365,25.3286 59.5415,24.4026 60.6915,23.8866 C61.8425,23.3716 63.0035,23.4646 63.2845,24.0926" id="Fill-198" fill="#FFFFFF" mask="url(#mask-2)"></path>
                <path d="M63.601,28.5872 C63.529,28.4242 63.756,28.2852 64.055,28.1512 C64.354,28.0172 64.61,27.9402 64.683,28.1032 C64.755,28.2662 64.573,28.5072 64.274,28.6412 C63.976,28.7742 63.674,28.7502 63.601,28.5872" id="Fill-199" fill="#FFFFFF" mask="url(#mask-2)"></path>
                <path d="M60.2269,27.0052 C60.2059,27.5822 59.7209,28.0322 59.1439,28.0102 C58.5679,27.9892 58.1179,27.5052 58.1389,26.9282 C58.1599,26.3512 58.6449,25.9012 59.2209,25.9222 C59.7979,25.9432 60.2479,26.4282 60.2269,27.0052" id="Fill-200" fill="#354546" mask="url(#mask-2)"></path>
                <path d="M38.2054,40.6385 L60.9514,35.5565 C60.9514,35.5565 62.2294,42.5625 56.6984,44.6075 C46.9564,48.2085 38.2054,40.6385 38.2054,40.6385" id="Fill-201" fill="#FFFFFF" mask="url(#mask-2)"></path>
                <path d="M38.2054,40.6385 L38.2074,40.6385 L38.2054,40.6385 Z M39.9594,41.0145 C40.9114,41.6685 42.3574,42.5525 44.1344,43.3005 C48.4564,45.1205 52.5974,45.3235 56.4384,43.9045 C60.2904,42.4805 60.4224,38.2325 60.3004,36.4705 L39.9594,41.0145 Z M51.2494,46.3215 C48.7224,46.3215 46.1114,45.7675 43.5064,44.6635 C40.0324,43.1925 37.8084,41.2855 37.7154,41.2055 C37.5004,41.0205 37.4094,40.7295 37.4784,40.4555 C37.5474,40.1805 37.7664,39.9685 38.0424,39.9065 L60.7874,34.8245 C60.9864,34.7805 61.1954,34.8185 61.3654,34.9305 C61.5354,35.0435 61.6524,35.2215 61.6884,35.4215 C61.7034,35.4985 62.0284,37.3335 61.6374,39.4515 C61.1004,42.3525 59.4814,44.3785 56.9584,45.3105 C55.1354,45.9855 53.2174,46.3215 51.2494,46.3215 L51.2494,46.3215 Z" id="Fill-202" fill="#354546" mask="url(#mask-2)"></path>
                <path d="M44.6302,45.056 C44.2552,45.056 43.9322,44.775 43.8872,44.393 L43.3022,39.421 C43.2532,39.01 43.5472,38.637 43.9592,38.589 C44.3702,38.54 44.7432,38.834 44.7912,39.246 L45.3762,44.218 C45.4252,44.63 45.1302,45.002 44.7192,45.051 C44.6902,45.055 44.6592,45.056 44.6302,45.056" id="Fill-203" fill="#354546" mask="url(#mask-2)"></path>
                <path d="M50.0804,46.0653 C49.6794,46.0653 49.3464,45.7463 49.3314,45.3413 L49.0764,38.0683 C49.0614,37.6543 49.3864,37.3073 49.8004,37.2923 C50.2154,37.2813 50.5604,37.6023 50.5754,38.0153 L50.8314,45.2893 C50.8454,45.7033 50.5214,46.0503 50.1074,46.0653 L50.0804,46.0653" id="Fill-204" fill="#354546" mask="url(#mask-2)"></path>
                <path d="M55.6488,45.3573 C55.2378,45.3573 54.9028,45.0273 54.8988,44.6153 L54.8148,36.7683 C54.8098,36.3543 55.1418,36.0143 55.5568,36.0103 C55.9658,36.0083 56.3098,36.3373 56.3148,36.7523 L56.3988,44.5993 C56.4028,45.0133 56.0708,45.3533 55.6568,45.3573 L55.6488,45.3573 Z" id="Fill-205" fill="#354546" mask="url(#mask-2)"></path>
            </g>
        </g>
    </g>
</svg>