<?xml version="1.0" encoding="UTF-8"?>
<svg width="104px" height="123px" viewBox="0 0 104 123" version="1.1" xmlns="http://www.w3.org/2000/svg" xmlns:xlink="http://www.w3.org/1999/xlink">
    <!-- Generator: Sketch 42 (36781) - http://www.bohemiancoding.com/sketch -->
    <title>22</title>
    <desc>Created with Sketch.</desc>
    <defs>
        <polygon id="path-1" points="5.922 8.7019 5.922 0.525730547 0.37171412 0.525730547 0.37171412 8.7019 5.922 8.7019"></polygon>
        <polygon id="path-3" points="0 122.041 103.922 122.041 103.922 0 0 0"></polygon>
    </defs>
    <g id="Page-1" stroke="none" stroke-width="1" fill="none" fill-rule="evenodd">
        <g id="1024" transform="translate(-676.000000, 0.000000)">
            <g id="22" transform="translate(676.000000, 0.000000)">
                <path d="M91.3116,118.2298 C91.3116,120.3348 77.1486,122.0408 59.6776,122.0408 C42.2076,122.0408 28.0446,120.3348 28.0446,118.2298 C28.0446,116.1248 42.2076,114.4188 59.6776,114.4188 C77.1486,114.4188 91.3116,116.1248 91.3116,118.2298 Z" id="Fill-1" fill="#CCCCCC"></path>
                <path d="M48.132,65.9212 C48.928,66.0152 49.72,66.1312 50.51,66.2712 C50.905,66.3392 51.3,66.4182 51.696,66.5012 C51.895,66.5432 52.093,66.5862 52.294,66.6332 L52.598,66.7062 L52.931,66.7902 L51.688,71.3422 L51.472,71.2882 L51.226,71.2292 C51.061,71.1902 50.889,71.1532 50.72,71.1172 C50.377,71.0462 50.032,70.9772 49.685,70.9172 C48.989,70.7942 48.288,70.6922 47.587,70.6082 L48.132,65.9212 Z" id="Fill-3" fill="#F9BF3B"></path>
                <path d="M51.504,72.0697 L51.053,71.9597 C50.894,71.9217 50.728,71.8857 50.563,71.8507 C50.291,71.7947 49.929,71.7197 49.557,71.6557 C48.891,71.5387 48.199,71.4367 47.498,71.3527 L47.675,69.8637 C48.404,69.9497 49.125,70.0557 49.816,70.1787 C50.206,70.2457 50.586,70.3227 50.872,70.3827 C51.052,70.4217 51.228,70.4597 51.398,70.4997 L51.871,70.6147 L51.504,72.0697 Z" id="Fill-5" fill="#F1892D"></path>
                <path d="M52.7462,67.5174 L52.1202,67.3634 C51.9262,67.3174 51.7332,67.2754 51.5392,67.2344 C51.0862,67.1404 50.7172,67.0684 50.3822,67.0104 C49.6232,66.8754 48.8372,66.7604 48.0432,66.6654 L48.2202,65.1764 C49.0422,65.2734 49.8562,65.3934 50.6412,65.5324 C50.9902,65.5934 51.3752,65.6674 51.8502,65.7674 C52.0572,65.8104 52.2592,65.8544 52.4662,65.9034 L53.1162,66.0634 L52.7462,67.5174 Z" id="Fill-7" fill="#F1892D"></path>
                <polygon id="Fill-9" fill="#F1892D" points="50.423 71.0482 48.946 70.7862 49.772 66.1402 51.248 66.4022"></polygon>
                <path d="M43.299,65.6766 C44.929,65.6436 46.538,65.7406 48.132,65.9216 L47.587,70.6086 C46.183,70.4486 44.775,70.3656 43.387,70.3946 L43.299,65.6766 Z" id="Fill-11" fill="#F9BF3B"></path>
                <path d="M47.5021,71.3534 C46.0241,71.1864 44.6841,71.1174 43.4031,71.1444 L43.3711,69.6454 C44.7201,69.6174 46.1261,69.6874 47.6711,69.8634 L47.5021,71.3534 Z" id="Fill-13" fill="#F1892D"></path>
                <path d="M48.047,66.6664 C46.357,66.4744 44.808,66.3954 43.315,66.4264 L43.284,64.9274 C44.846,64.8954 46.459,64.9764 48.216,65.1764 L48.047,66.6664 Z" id="Fill-15" fill="#F1892D"></path>
                <polygon id="Fill-17" fill="#F1892D" points="46.2296 70.4696 44.7316 70.3906 44.9806 65.6786 46.4786 65.7576"></polygon>
                <path d="M38.3722,66.2015 C40.0222,65.8595 41.6722,65.7035 43.2992,65.6765 L43.3872,70.3945 C42.6922,70.4025 42.0062,70.4515 41.3262,70.5135 L40.8202,70.5745 L40.5662,70.6045 L40.3172,70.6445 L39.8192,70.7235 C39.6532,70.7515 39.4922,70.7895 39.3282,70.8225 L38.3722,66.2015 Z" id="Fill-19" fill="#F9BF3B"></path>
                <path d="M39.4718,71.558 L39.1848,70.086 C39.2428,70.075 39.2998,70.062 39.3578,70.051 C39.4698,70.027 39.5808,70.003 39.6948,69.985 L40.4788,69.86 L41.2568,69.767 C42.0828,69.691 42.7568,69.652 43.3788,69.644 L43.3958,71.144 C42.8178,71.151 42.1858,71.188 41.4058,71.26 L40.6708,71.348 L39.9368,71.465 C39.8498,71.479 39.7588,71.499 39.6668,71.518 C39.6028,71.532 39.5368,71.545 39.4718,71.558" id="Fill-21" fill="#F1892D"></path>
                <path d="M38.5245,66.9359 L38.2195,65.4669 C39.8315,65.1329 41.4885,64.9569 43.2875,64.9269 L43.3115,66.4269 C41.6085,66.4549 40.0425,66.6209 38.5245,66.9359" id="Fill-23" fill="#F1892D"></path>
                <polygon id="Fill-25" fill="#F1892D" points="40.5802 70.5907 40.0992 65.8967 41.5912 65.7437 42.0722 70.4377"></polygon>
                <path d="M33.4982,67.8944 C33.8872,67.6764 34.2902,67.5104 34.6902,67.3304 C34.8902,67.2354 35.0942,67.1664 35.2962,67.0884 L35.9062,66.8634 C36.7242,66.5984 37.5472,66.3624 38.3722,66.2014 L39.3282,70.8224 C38.6722,70.9484 38.0442,71.1334 37.4262,71.3304 L36.9762,71.4984 C36.8262,71.5564 36.6722,71.6054 36.5312,71.6744 C36.2442,71.8064 35.9472,71.9234 35.6802,72.0784 L33.4982,67.8944 Z" id="Fill-27" fill="#F9BF3B"></path>
                <path d="M36.0538,72.7279 L35.3048,71.4289 C35.5328,71.2969 35.7648,71.1949 35.9878,71.0959 C36.0618,71.0629 36.1358,71.0309 36.2098,70.9969 C36.3418,70.9329 36.4718,70.8849 36.5868,70.8429 C36.6258,70.8289 36.6658,70.8139 36.7058,70.7989 L37.1998,70.6149 C37.8078,70.4219 38.4698,70.2239 39.1868,70.0859 L39.4698,71.5589 C38.8368,71.6809 38.2318,71.8609 37.6708,72.0389 L37.2388,72.2009 C37.1988,72.2169 37.1498,72.2339 37.1018,72.2519 C37.0108,72.2849 36.9258,72.3159 36.8618,72.3479 L36.8448,72.3559 C36.7618,72.3939 36.6778,72.4309 36.5938,72.4679 C36.3978,72.5549 36.2128,72.6359 36.0538,72.7279" id="Fill-29" fill="#F1892D"></path>
                <path d="M33.8644,68.5487 L33.1324,67.2397 C33.4714,67.0497 33.8124,66.8987 34.1414,66.7527 C34.2214,66.7177 34.3014,66.6817 34.3824,66.6457 C34.5454,66.5687 34.7124,66.5067 34.8734,66.4467 C34.9254,66.4277 34.9754,66.4087 35.0264,66.3887 L35.6754,66.1497 C36.6624,65.8307 37.4724,65.6127 38.2284,65.4657 L38.5154,66.9377 C37.8244,67.0727 37.0734,67.2747 36.1514,67.5717 L35.5564,67.7917 C35.5104,67.8107 35.4534,67.8317 35.3974,67.8527 C35.2594,67.9037 35.1284,67.9527 35.0104,68.0077 C34.9154,68.0507 34.8324,68.0877 34.7494,68.1247 C34.4374,68.2627 34.1434,68.3927 33.8644,68.5487" id="Fill-31" fill="#F1892D"></path>
                <polygon id="Fill-33" fill="#F1892D" points="36.7159 71.5716 35.1959 67.1046 36.6159 66.6216 38.1359 71.0886"></polygon>
                <path d="M29.2599,71.2069 C30.4429,69.8139 31.9339,68.7119 33.4979,67.8939 L35.6799,72.0789 C34.5779,72.6579 33.5969,73.3839 32.8259,74.2969 L29.2599,71.2069 Z" id="Fill-35" fill="#F9BF3B"></path>
                <path d="M33.3995,74.7801 L32.2535,73.8131 C33.0375,72.8841 34.0725,72.0761 35.3305,71.4141 L36.0285,72.7421 C34.9425,73.3131 34.0575,73.9991 33.3995,74.7801" id="Fill-37" fill="#F1892D"></path>
                <path d="M29.8322,71.6922 L28.6882,70.7212 C29.8622,69.3382 31.3632,68.1642 33.1502,67.2302 L33.8462,68.5592 C32.2302,69.4032 30.8802,70.4572 29.8322,71.6922" id="Fill-39" fill="#F1892D"></path>
                <polygon id="Fill-41" fill="#F1892D" points="33.5363 73.5228 30.6433 69.7938 31.8293 68.8748 34.7223 72.6028"></polygon>
                <path d="M26.5626,75.9032 C26.8506,75.0322 27.2336,74.1952 27.6886,73.4112 C28.1436,72.6252 28.6616,71.9022 29.2596,71.2072 L32.8266,74.2972 C32.4406,74.7442 32.0756,75.2502 31.7756,75.7702 C31.4726,76.2902 31.2246,76.8322 31.0396,77.3942 L26.5626,75.9032 Z" id="Fill-43" fill="#F9BF3B"></path>
                <path d="M31.7511,77.6297 L30.3271,77.1587 C30.5241,76.5607 30.7941,75.9667 31.1261,75.3937 C31.4391,74.8507 31.8311,74.3017 32.2591,73.8067 L33.3941,74.7867 C33.0271,75.2117 32.6921,75.6807 32.4251,76.1447 C32.1431,76.6297 31.9171,77.1297 31.7511,77.6297" id="Fill-45" fill="#F1892D"></path>
                <path d="M27.2745,76.139 L25.8505,75.667 C26.1485,74.768 26.5475,73.883 27.0395,73.035 C27.5145,72.215 28.0545,71.457 28.6915,70.717 L29.8285,71.696 C29.2535,72.364 28.7655,73.048 28.3365,73.787 C27.8975,74.546 27.5405,75.337 27.2745,76.139" id="Fill-47" fill="#F1892D"></path>
                <polygon id="Fill-49" fill="#F1892D" points="31.4005 76.4193 27.3135 74.0613 28.0625 72.7623 32.1495 75.1203"></polygon>
                <path d="M25.921,81.2953 C25.782,79.5043 25.977,77.6453 26.563,75.9033 L31.039,77.3943 C30.662,78.5153 30.534,79.7143 30.625,80.9293 L25.921,81.2953 Z" id="Fill-51" fill="#F9BF3B"></path>
                <path d="M29.8771,80.9857 C29.7751,79.6357 29.9281,78.3477 30.3281,77.1547 L31.7501,77.6327 C31.4131,78.6337 31.2871,79.7247 31.3731,80.8737 L29.8771,80.9857 Z" id="Fill-53" fill="#F1892D"></path>
                <path d="M25.173,81.3529 C25.023,79.3999 25.257,77.4329 25.852,75.6639 L27.274,76.1419 C26.742,77.7209 26.533,79.4829 26.668,81.2379 L25.173,81.3529 Z" id="Fill-55" fill="#F1892D"></path>
                <polygon id="Fill-57" fill="#F1892D" points="30.5695 79.8714 25.8825 79.3264 26.0555 77.8364 30.7435 78.3814"></polygon>
                <path d="M27.339,86.5716 L27.277,86.4476 L27.232,86.3566 L27.152,86.1846 C27.102,86.0746 27.054,85.9656 27.01,85.8586 C26.919,85.6436 26.839,85.4316 26.762,85.2186 C26.61,84.7946 26.479,84.3676 26.366,83.9366 C26.141,83.0746 25.991,82.1926 25.921,81.2956 L30.625,80.9296 C30.673,81.5366 30.776,82.1476 30.932,82.7446 C31.01,83.0426 31.1,83.3386 31.202,83.6236 C31.254,83.7646 31.308,83.9056 31.363,84.0386 C31.391,84.1066 31.419,84.1696 31.446,84.2306 L31.486,84.3156 L31.503,84.3516 L31.509,84.3636 C31.51,84.3636 31.513,84.3696 31.511,84.3656 L31.504,84.3546 L27.339,86.5716 Z" id="Fill-59" fill="#F9BF3B"></path>
                <path d="M32.1906,84.0497 L32.2066,84.0847 C32.2046,84.0807 32.1976,84.0647 32.1906,84.0497 L32.1906,84.0497 Z M31.1746,85.3717 L30.8396,84.7017 L31.3556,84.4437 L30.8376,84.6987 L30.7546,84.5217 C30.7266,84.4577 30.6976,84.3917 30.6696,84.3207 C30.6096,84.1817 30.5516,84.0267 30.4986,83.8817 C30.3886,83.5787 30.2916,83.2607 30.2066,82.9337 C30.0406,82.2997 29.9286,81.6447 29.8776,80.9887 L31.3736,80.8707 C31.4176,81.4387 31.5136,82.0047 31.6576,82.5547 C31.7316,82.8397 31.8156,83.1127 31.9086,83.3697 C31.9536,83.4917 32.0036,83.6267 32.0536,83.7467 C32.0806,83.8097 32.1026,83.8607 32.1256,83.9097 L32.1816,84.0307 L32.1896,84.0477 C32.1876,84.0427 32.1856,84.0387 32.1836,84.0347 L32.5136,84.7057 L31.1746,85.3717 Z" id="Fill-61" fill="#F1892D"></path>
                <path d="M26.672,86.9129 L26.473,86.5019 C26.414,86.3739 26.363,86.2579 26.317,86.1429 C26.215,85.9029 26.128,85.6709 26.058,85.4759 C25.899,85.0359 25.763,84.5949 25.641,84.1249 C25.404,83.2209 25.246,82.2879 25.173,81.3539 L26.668,81.2369 C26.735,82.0819 26.877,82.9269 27.092,83.7459 C27.203,84.1729 27.326,84.5709 27.468,84.9649 C27.531,85.1399 27.609,85.3509 27.701,85.5669 C27.744,85.6729 27.789,85.7739 27.836,85.8779 L28.007,86.2299 L26.672,86.9129 Z" id="Fill-63" fill="#F1892D"></path>
                <polygon id="Fill-65" fill="#F1892D" points="26.5558 84.662 26.1768 83.211 30.7428 82.019 31.1208 83.47"></polygon>
                <path d="M94.1339,68.0575 C94.1649,67.2535 94.1899,66.4495 94.2069,65.6465 L94.2289,64.4445 L94.2359,63.2625 L98.9539,63.2345 C98.9559,63.6765 98.9509,64.0815 98.9459,64.5025 L98.9249,65.7505 C98.9059,66.5805 98.8819,67.4105 98.8489,68.2385 L94.1339,68.0575 Z" id="Fill-67" fill="#F9BF3B"></path>
                <path d="M99.5988,68.2679 L98.0998,68.2089 C98.1298,67.4199 98.1558,66.6109 98.1748,65.7339 L98.1978,64.4009 C98.2018,64.0169 98.2048,63.6429 98.2038,63.2369 L99.7038,63.2309 C99.7048,63.6439 99.7018,64.0249 99.6978,64.4159 L99.6968,64.5099 L99.6748,65.7639 C99.6548,66.6529 99.6298,67.4709 99.5988,68.2679" id="Fill-69" fill="#F1892D"></path>
                <path d="M94.8829,68.0868 L93.3839,68.0278 C93.4139,67.2688 93.4389,66.4838 93.4569,65.6298 L93.4789,64.4308 L93.4859,63.2578 L94.9859,63.2668 L94.9789,64.4488 L94.9569,65.6598 C94.9379,66.5268 94.9129,67.3188 94.8829,68.0868" id="Fill-71" fill="#F1892D"></path>
                <polygon id="Fill-73" fill="#F1892D" points="98.9083 66.5003 94.1903 66.3963 94.2233 64.8963 98.9413 65.0003"></polygon>
                <path d="M93.8722,72.8758 C93.9842,71.2718 94.0712,69.6658 94.1342,68.0578 L98.8492,68.2388 C98.7852,69.8958 98.6952,71.5518 98.5792,73.2078 L93.8722,72.8758 Z" id="Fill-75" fill="#F9BF3B"></path>
                <path d="M99.3273,73.2596 L97.8313,73.1546 C97.9443,71.5326 98.0353,69.8686 98.0993,68.2096 L99.5983,68.2676 C99.5333,69.9426 99.4423,71.6226 99.3273,73.2596" id="Fill-77" fill="#F1892D"></path>
                <path d="M94.6202,72.9286 L93.1242,72.8236 C93.2342,71.2506 93.3222,69.6366 93.3842,68.0286 L94.8832,68.0866 C94.8202,69.7106 94.7312,71.3396 94.6202,72.9286" id="Fill-79" fill="#F1892D"></path>
                <polygon id="Fill-81" fill="#F1892D" points="98.6935 71.4725 93.9815 71.2175 94.0625 69.7195 98.7745 69.9745"></polygon>
                <path d="M93.4484,77.6712 C93.6224,76.0792 93.7594,74.4792 93.8724,72.8762 L98.5794,73.2072 C98.4624,74.8632 98.3204,76.5192 98.1404,78.1752 L93.4484,77.6712 Z" id="Fill-83" fill="#F9BF3B"></path>
                <path d="M98.8859,78.2567 L97.3949,78.0937 C97.5609,76.5687 97.7029,74.9527 97.8309,73.1547 L99.3269,73.2597 C99.1979,75.0777 99.0539,76.7127 98.8859,78.2567" id="Fill-85" fill="#F1892D"></path>
                <path d="M94.1945,77.7523 L92.7035,77.5893 C92.8635,76.1223 93.0015,74.5633 93.1245,72.8233 L94.6205,72.9283 C94.4965,74.6883 94.3565,76.2653 94.1945,77.7523" id="Fill-87" fill="#F1892D"></path>
                <polygon id="Fill-89" fill="#F1892D" points="98.3175 76.4383 93.6175 76.0243 93.7495 74.5303 98.4495 74.9443"></polygon>
                <path d="M92.6398,80.7762 C92.6748,80.7402 92.7018,80.6992 92.7288,80.6582 C92.7418,80.6422 92.7598,80.6052 92.7758,80.5762 C92.7928,80.5432 92.8078,80.5202 92.8268,80.4792 L92.8988,80.3012 C92.9218,80.2392 92.9528,80.1912 92.9728,80.1172 C93.0138,79.9762 93.0668,79.8502 93.1048,79.6992 C93.1408,79.5462 93.1828,79.3982 93.2188,79.2412 L93.3108,78.7512 C93.3398,78.5842 93.3588,78.4072 93.3828,78.2362 C93.3948,78.1472 93.4078,78.0722 93.4168,77.9702 L93.4488,77.6712 L98.1408,78.1752 L98.1078,78.4862 C98.0978,78.5872 98.0788,78.7142 98.0648,78.8272 C98.0318,79.0602 98.0058,79.2902 97.9658,79.5262 L97.8298,80.2392 C97.7768,80.4812 97.7098,80.7272 97.6488,80.9702 C97.5848,81.2142 97.4918,81.4712 97.4108,81.7202 C97.3728,81.8432 97.3098,81.9772 97.2588,82.1052 L97.0938,82.4922 C97.0248,82.6352 96.9398,82.7902 96.8588,82.9372 C96.7738,83.0852 96.6998,83.2302 96.5918,83.3792 C96.4908,83.5262 96.3858,83.6722 96.2788,83.8142 C96.1708,83.9572 96.0448,84.0832 95.9248,84.2142 L92.6398,80.7762 Z" id="Fill-91" fill="#F9BF3B"></path>
                <path d="M96.4786,84.7201 L95.3716,83.7091 C95.4026,83.6741 95.4356,83.6391 95.4676,83.6041 C95.5466,83.5201 95.6216,83.4401 95.6756,83.3671 C95.7796,83.2291 95.8786,83.0911 95.9746,82.9531 L95.9856,82.9381 C96.0436,82.8571 96.0936,82.7671 96.1516,82.6631 L96.2076,82.5651 C96.2826,82.4291 96.3526,82.2991 96.4116,82.1801 L96.5656,81.8191 C96.5826,81.7771 96.5996,81.7361 96.6176,81.6941 C96.6476,81.6231 96.6776,81.5511 96.6926,81.5041 L96.6976,81.4891 C96.7206,81.4151 96.7466,81.3411 96.7706,81.2661 C96.8296,81.0931 96.8836,80.9291 96.9236,80.7801 L96.9696,80.5971 C97.0136,80.4271 97.0576,80.2561 97.0956,80.0871 L97.2286,79.3861 C97.2516,79.2501 97.2706,79.1011 97.2906,78.9531 C97.3006,78.8761 97.3106,78.8001 97.3216,78.7221 L97.3366,78.6091 C97.3456,78.5401 97.3556,78.4711 97.3616,78.4131 L97.3946,78.0971 L98.8856,78.2531 L98.8536,78.5641 C98.8466,78.6341 98.8346,78.7221 98.8236,78.8111 L98.8086,78.9221 C98.7966,79.0041 98.7876,79.0761 98.7776,79.1491 C98.7556,79.3151 98.7336,79.4821 98.7056,79.6511 L98.5626,80.4031 C98.5206,80.5901 98.4716,80.7811 98.4226,80.9701 L98.3756,81.1541 C98.3226,81.3601 98.2556,81.5551 98.1926,81.7431 C98.1696,81.8111 98.1476,81.8781 98.1256,81.9451 C98.0886,82.0661 98.0406,82.1781 97.9996,82.2781 C97.9846,82.3141 97.9686,82.3491 97.9556,82.3841 L97.9486,82.4001 L97.7686,82.8201 C97.6936,82.9741 97.6066,83.1341 97.5156,83.2981 L97.4616,83.3951 C97.3916,83.5191 97.3126,83.6611 97.2046,83.8121 C97.0986,83.9651 96.9886,84.1171 96.8766,84.2651 C96.7746,84.4031 96.6626,84.5231 96.5626,84.6301 C96.5346,84.6591 96.5056,84.6901 96.4786,84.7201" id="Fill-93" fill="#F1892D"></path>
                <path d="M93.1808,81.2962 L92.0998,80.2552 C92.0978,80.2582 92.0948,80.2612 92.0928,80.2632 C92.0918,80.2642 92.0908,80.2662 92.0908,80.2672 L92.0918,80.2642 C92.0888,80.2682 92.0848,80.2722 92.0818,80.2762 C92.0878,80.2682 92.0928,80.2602 92.0988,80.2522 L92.1418,80.1712 L92.2018,80.0242 C92.2158,79.9882 92.2308,79.9562 92.2448,79.9232 L92.2528,79.9062 C92.2738,79.8362 92.2958,79.7692 92.3188,79.7022 C92.3418,79.6332 92.3628,79.5732 92.3778,79.5152 C92.3918,79.4532 92.4108,79.3802 92.4298,79.3072 C92.4488,79.2352 92.4668,79.1632 92.4848,79.0882 L92.5748,78.6112 C92.5878,78.5322 92.5998,78.4362 92.6128,78.3392 C92.6208,78.2692 92.6308,78.1982 92.6408,78.1292 C92.6438,78.1062 92.6488,78.0702 92.6538,78.0352 C92.6598,77.9922 92.6658,77.9492 92.6708,77.8972 L92.7028,77.5932 L94.1948,77.7492 L94.1628,78.0482 C94.1568,78.1202 94.1478,78.1842 94.1388,78.2482 L94.1268,78.3302 C94.1168,78.4062 94.1078,78.4692 94.0998,78.5312 C94.0848,78.6482 94.0698,78.7652 94.0498,78.8772 L93.9498,79.4072 C93.9288,79.5012 93.9058,79.5912 93.8818,79.6812 C93.8668,79.7452 93.8498,79.8082 93.8338,79.8722 C93.8018,80.0012 93.7678,80.1002 93.7388,80.1872 C93.7228,80.2312 93.7078,80.2752 93.6948,80.3212 C93.6658,80.4242 93.6298,80.5022 93.6088,80.5492 L93.5988,80.5712 L93.5068,80.7932 C93.4868,80.8382 93.4688,80.8702 93.4518,80.9032 L93.4258,80.9512 C93.4078,80.9852 93.3818,81.0342 93.3438,81.0882 C93.3078,81.1422 93.2548,81.2182 93.1808,81.2962" id="Fill-95" fill="#F1892D"></path>
                <polygon id="Fill-97" fill="#F1892D" points="97.4464 81.6927 92.9024 80.4217 93.3064 78.9777 97.8504 80.2477"></polygon>
                <path d="M91.0968,80.5389 C91.2198,80.6059 91.3448,80.6949 91.4608,80.7469 C91.5198,80.7749 91.5798,80.8099 91.6358,80.8359 C91.6908,80.8569 91.7438,80.8799 91.7978,80.9029 C91.8648,80.9349 91.8698,80.9329 91.8978,80.9429 C91.9208,80.9499 91.9438,80.9589 91.9678,80.9639 C92.0158,80.9759 92.0648,80.9839 92.1138,80.9889 C92.3098,81.0059 92.5128,80.9279 92.6398,80.7759 L95.9248,84.2149 C95.4338,84.7259 94.8488,85.1529 94.1888,85.4109 C93.5318,85.6709 92.8198,85.7799 92.1098,85.7499 C91.9318,85.7379 91.7538,85.7219 91.5768,85.7029 C91.4018,85.6739 91.2258,85.6389 91.0508,85.6009 C90.8748,85.5669 90.7038,85.5109 90.5328,85.4579 C90.3658,85.4049 90.1758,85.3439 90.0568,85.2889 L89.6548,85.1179 C89.5258,85.0579 89.4068,84.9949 89.2828,84.9319 C89.0288,84.8089 88.8148,84.6669 88.5828,84.5319 L91.0968,80.5389 Z" id="Fill-99" fill="#F9BF3B"></path>
                <path d="M92.3312,86.5047 C92.2472,86.5047 92.1622,86.5027 92.0782,86.4997 L92.0582,86.4987 C91.8672,86.4847 91.6782,86.4677 91.4952,86.4477 L91.4562,86.4427 C91.2922,86.4157 91.1202,86.3827 90.9002,86.3357 C90.7102,86.2977 90.5322,86.2437 90.3762,86.1947 L90.3112,86.1747 C90.0922,86.1047 89.9042,86.0427 89.7562,85.9757 L89.3382,85.7977 C89.2352,85.7507 89.1382,85.7007 89.0402,85.6507 L88.9432,85.6007 C88.7402,85.5017 88.5602,85.3927 88.3862,85.2877 C88.3252,85.2517 88.2662,85.2147 88.2042,85.1797 L88.9612,83.8847 C89.0282,83.9237 89.0952,83.9637 89.1612,84.0037 C89.3132,84.0957 89.4582,84.1827 89.6102,84.2567 L89.7252,84.3157 C89.8032,84.3557 89.8792,84.3947 89.9602,84.4327 L90.3682,84.6067 C90.4492,84.6437 90.6442,84.7067 90.7612,84.7437 L90.8212,84.7627 C90.9542,84.8037 91.0802,84.8427 91.1922,84.8637 L91.2082,84.8677 C91.3972,84.9087 91.5442,84.9367 91.6792,84.9597 C91.8322,84.9757 91.9902,84.9897 92.1502,85.0007 C92.7672,85.0257 93.3762,84.9257 93.9122,84.7127 C94.4372,84.5087 94.9322,84.1667 95.3832,83.6947 L96.4662,84.7337 C95.8612,85.3637 95.1862,85.8267 94.4612,86.1087 C93.8072,86.3687 93.0742,86.5047 92.3312,86.5047" id="Fill-101" fill="#F1892D"></path>
                <path d="M92.1173,80.2523 C92.1003,80.2603 92.0833,80.2733 92.0653,80.2943 L92.0963,80.3193 L92.1173,80.2523 Z M92.1713,81.7413 C92.1293,81.7413 92.0883,81.7393 92.0463,81.7353 C91.9623,81.7283 91.8773,81.7143 91.7973,81.6943 C91.7423,81.6823 91.7003,81.6673 91.6753,81.6593 L91.6453,81.6483 C91.6053,81.6373 91.5583,81.6203 91.4793,81.5823 C91.4483,81.5693 91.4043,81.5503 91.3593,81.5333 L91.3183,81.5153 C91.2763,81.4953 91.2333,81.4733 91.1903,81.4503 C91.1743,81.4413 91.1573,81.4333 91.1393,81.4243 C91.0303,81.3743 90.9333,81.3143 90.8473,81.2623 C90.8103,81.2403 90.7723,81.2163 90.7353,81.1963 L91.4583,79.8813 C91.5143,79.9133 91.5713,79.9473 91.6283,79.9813 C91.6783,80.0113 91.7383,80.0493 91.7653,80.0613 L91.7923,80.0733 C91.8243,80.0893 91.8563,80.1063 91.8883,80.1233 C91.9053,80.1313 91.9223,80.1413 91.9383,80.1483 C91.9933,80.1713 92.0483,80.1943 92.1023,80.2183 L92.1213,80.2263 C92.1273,80.2293 92.1343,80.2313 92.1403,80.2333 L92.1803,80.2413 C92.1743,80.2413 92.1623,80.2403 92.1473,80.2423 L92.1143,80.3353 L93.2153,81.2573 C92.9573,81.5653 92.5733,81.7413 92.1713,81.7413 L92.1713,81.7413 Z" id="Fill-103" fill="#F1892D"></path>
                <polygon id="Fill-105" fill="#F1892D" points="92.8595 85.7508 91.3595 85.7498 91.3635 80.9878 92.8635 80.9888"></polygon>
                <path d="M88.1945,77.7254 C88.6305,78.2934 89.0985,78.8314 89.5905,79.3134 C90.0805,79.7934 90.5975,80.2224 91.0965,80.5384 L88.5835,84.5324 C87.7025,83.9724 86.9645,83.3424 86.2865,82.6814 C85.6115,82.0194 85.0055,81.3214 84.4475,80.5934 L88.1945,77.7254 Z" id="Fill-107" fill="#F9BF3B"></path>
                <path d="M88.1808,85.1649 C87.3538,84.6389 86.5848,84.0209 85.7628,83.2189 C85.0888,82.5579 84.4648,81.8489 83.8518,81.0489 L85.0418,80.1369 C85.6128,80.8799 86.1908,81.5369 86.8118,82.1459 C87.5568,82.8729 88.2478,83.4309 88.9858,83.8989 L88.1808,85.1649 Z" id="Fill-109" fill="#F1892D"></path>
                <path d="M90.6954,81.1722 C90.1714,80.8402 89.6234,80.3952 89.0654,79.8492 C88.5614,79.3552 88.0684,78.7942 87.5984,78.1812 L88.7904,77.2692 C89.2164,77.8252 89.6624,78.3332 90.1154,78.7772 C90.5914,79.2432 91.0694,79.6332 91.4984,79.9052 L90.6954,81.1722 Z" id="Fill-111" fill="#F1892D"></path>
                <polygon id="Fill-113" fill="#F1892D" points="86.8214 83.2069 85.7504 82.1569 89.0544 78.7879 90.1264 79.8379"></polygon>
                <path d="M85.9191,73.9134 C86.2711,74.6214 86.6211,75.2984 86.9921,75.9314 C87.3601,76.5624 87.7571,77.1544 88.1941,77.7254 L84.4471,80.5934 C83.8911,79.8674 83.3771,79.0984 82.9221,78.3184 C82.4671,77.5414 82.0661,76.7664 81.6921,76.0114 L85.9191,73.9134 Z" id="Fill-115" fill="#F9BF3B"></path>
                <path d="M83.8517,81.0492 C83.2857,80.3112 82.7547,79.5202 82.2747,78.6962 C81.7737,77.8412 81.3407,76.9902 81.0207,76.3442 L82.3647,75.6782 C82.6737,76.3022 83.0907,77.1232 83.5697,77.9392 C84.0187,78.7092 84.5137,79.4482 85.0417,80.1362 L83.8517,81.0492 Z" id="Fill-117" fill="#F1892D"></path>
                <path d="M87.5988,78.1815 C87.1428,77.5865 86.7328,76.9735 86.3448,76.3095 C86.0098,75.7395 85.6718,75.1025 85.2468,74.2465 L86.5908,73.5805 C86.9988,74.4035 87.3228,75.0125 87.6398,75.5525 C87.9958,76.1625 88.3718,76.7235 88.7898,77.2695 L87.5988,78.1815 Z" id="Fill-119" fill="#F1892D"></path>
                <polygon id="Fill-121" fill="#F1892D" points="83.3019 78.9657 82.5419 77.6717 86.6139 75.2847 87.3709 76.5787"></polygon>
                <path d="M83.4855,69.3319 C84.0205,70.1389 84.4365,70.9319 84.8285,71.6979 C85.2155,72.4639 85.5675,73.2049 85.9195,73.9139 L81.6925,76.0109 C81.3175,75.2569 80.9685,74.5209 80.6185,73.8299 C80.2685,73.1419 79.9195,72.4869 79.5485,71.9329 L83.4855,69.3319 Z" id="Fill-123" fill="#F9BF3B"></path>
                <path d="M81.0206,76.3446 C80.8646,76.0316 80.7126,75.7206 80.5646,75.4156 C80.3526,74.9806 80.1526,74.5696 79.9496,74.1686 C79.6486,73.5776 79.2916,72.8986 78.9246,72.3496 L80.1716,71.5166 C80.5826,72.1306 80.9656,72.8586 81.2876,73.4906 C81.4956,73.9016 81.6986,74.3176 81.9136,74.7576 C82.0606,75.0596 82.2096,75.3676 82.3646,75.6776 L81.0206,76.3446 Z" id="Fill-125" fill="#F1892D"></path>
                <path d="M85.2472,74.2474 C85.1042,73.9594 84.9622,73.6674 84.8162,73.3704 C84.6052,72.9364 84.3882,72.4884 84.1582,72.0364 C83.7872,71.3084 83.3792,70.5284 82.8602,69.7464 L84.1102,68.9174 C84.6732,69.7654 85.1032,70.5874 85.4962,71.3564 C85.7302,71.8214 85.9512,72.2744 86.1652,72.7124 C86.3092,73.0064 86.4492,73.2954 86.5912,73.5804 L85.2472,74.2474 Z" id="Fill-127" fill="#F1892D"></path>
                <polygon id="Fill-129" fill="#F1892D" points="80.9572 74.4989 80.2792 73.1609 84.4892 71.0289 85.1672 72.3669"></polygon>
                <path d="M78.4025,65.3695 L78.6095,65.4245 L78.8155,65.4945 L79.2265,65.6405 C79.3625,65.6925 79.4955,65.7575 79.6285,65.8165 C79.7595,65.8795 79.8965,65.9345 80.0215,66.0095 C80.2765,66.1515 80.5335,66.2935 80.7655,66.4615 C80.8825,66.5445 81.0065,66.6225 81.1165,66.7105 L81.4465,66.9765 C81.5585,67.0645 81.6565,67.1605 81.7575,67.2535 C81.8565,67.3485 81.9605,67.4415 82.0545,67.5375 C82.2345,67.7325 82.4295,67.9265 82.5895,68.1265 L82.8365,68.4265 L83.0625,68.7275 C83.2175,68.9295 83.3475,69.1305 83.4855,69.3315 L79.5485,71.9325 C79.1785,71.3795 78.7975,70.9075 78.4045,70.5845 C78.0095,70.2605 77.6245,70.0405 77.1535,69.9195 L78.4025,65.3695 Z" id="Fill-131" fill="#F9BF3B"></path>
                <path d="M78.9249,72.3495 C78.5649,71.8095 78.2289,71.4115 77.9279,71.1635 C77.5919,70.8885 77.3039,70.7335 76.9659,70.6465 L77.3399,69.1935 C77.8879,69.3345 78.3769,69.5925 78.8799,70.0045 C79.3019,70.3505 79.7239,70.8455 80.1719,71.5165 L78.9249,72.3495 Z" id="Fill-133" fill="#F1892D"></path>
                <path d="M82.8663,69.7547 L82.7753,69.6217 C82.6733,69.4687 82.5753,69.3247 82.4683,69.1847 L82.2473,68.8907 L82.0113,68.6047 C81.9073,68.4747 81.7883,68.3487 81.6633,68.2157 C81.6123,68.1627 81.5613,68.1087 81.5123,68.0557 C81.4543,67.9967 81.3913,67.9397 81.3303,67.8807 L81.1893,67.7497 C81.1143,67.6797 81.0503,67.6187 80.9843,67.5677 L80.6453,67.2947 C80.5933,67.2527 80.5253,67.2067 80.4543,67.1577 C80.4143,67.1297 80.3733,67.1027 80.3343,67.0747 C80.1383,66.9337 79.9183,66.8107 79.6843,66.6807 L79.6383,66.6537 C79.5833,66.6217 79.5093,66.5867 79.4283,66.5507 C79.3903,66.5337 79.3523,66.5157 79.3143,66.4977 C79.2763,66.4807 79.2383,66.4627 79.1993,66.4457 C79.1143,66.4067 79.0343,66.3697 78.9613,66.3427 L78.3923,66.1427 L78.2103,66.0947 L78.5943,64.6447 L78.8513,64.7147 L79.4773,64.9347 C79.6123,64.9847 79.7243,65.0367 79.8243,65.0827 L79.9503,65.1397 C79.9843,65.1557 80.0173,65.1707 80.0523,65.1857 C80.1563,65.2337 80.2733,65.2877 80.3953,65.3587 L80.4163,65.3707 C80.6773,65.5157 80.9453,65.6667 81.2053,65.8537 C81.2313,65.8717 81.2643,65.8947 81.2993,65.9177 C81.3873,65.9787 81.4893,66.0477 81.5893,66.1287 L81.9173,66.3937 C82.0263,66.4787 82.1263,66.5717 82.2143,66.6537 L82.3543,66.7857 C82.4343,66.8607 82.5143,66.9357 82.5903,67.0127 L82.6063,67.0287 C82.6543,67.0817 82.7033,67.1337 82.7533,67.1857 C82.8943,67.3357 83.0423,67.4907 83.1773,67.6607 L83.4353,67.9757 L83.6623,68.2767 C83.7933,68.4467 83.9083,68.6177 84.0183,68.7817 L84.1053,68.9097 L82.8663,69.7547 Z" id="Fill-135" fill="#F1892D"></path>
                <polygon id="Fill-137" fill="#F1892D" points="78.9777 71.0677 77.8317 70.1007 80.8737 66.4937 82.0197 67.4607"></polygon>
                <path d="M72.3195,65.597 C73.2215,65.359 74.1645,65.165 75.1785,65.09 C76.1905,65.016 77.2905,65.067 78.4025,65.369 L77.1535,69.92 C76.6865,69.793 76.1325,69.75 75.5165,69.797 C74.9025,69.842 74.2375,69.972 73.5595,70.15 L72.3195,65.597 Z" id="Fill-139" fill="#F9BF3B"></path>
                <path d="M73.7501,70.8748 L73.3691,69.4238 C74.1571,69.2168 74.8421,69.0938 75.4621,69.0488 C76.1591,68.9958 76.7951,69.0458 77.3491,69.1958 L76.9571,70.6438 C76.5671,70.5388 76.1021,70.5048 75.5731,70.5448 C75.0521,70.5828 74.4391,70.6938 73.7501,70.8748" id="Fill-141" fill="#F1892D"></path>
                <path d="M72.5109,66.3221 L72.1289,64.8711 C73.2339,64.5801 74.1859,64.4111 75.1239,64.3421 C76.3579,64.2521 77.5269,64.3541 78.5989,64.6461 L78.2049,66.0931 C77.2969,65.8461 76.2969,65.7601 75.2349,65.8381 C74.3909,65.9011 73.5259,66.0541 72.5109,66.3221" id="Fill-143" fill="#F1892D"></path>
                <polygon id="Fill-145" fill="#F1892D" points="74.7687 69.8504 74.4307 65.1434 75.9277 65.0364 76.2647 69.7434"></polygon>
                <path d="M90.9376,63.055 C90.8996,64.704 92.2176,66.085 93.8676,66.123 L99.7166,66.23 C101.3666,66.268 102.7476,64.949 102.7856,63.3 L102.8206,56.384 C102.8586,54.734 101.5046,53.952 99.8546,53.915 L94.3046,53.825 C92.6556,53.787 91.3096,54.507 91.2726,56.157 L90.9376,63.055 Z" id="Fill-147" fill="#A5B5B6"></path>
                <path d="M91.6866,63.0809 C91.6756,63.6749 91.8976,64.2409 92.3116,64.6749 C92.7286,65.1109 93.2876,65.3589 93.8846,65.3729 L99.7306,65.4799 C100.9736,65.5119 102.0066,64.5229 102.0356,63.2829 L102.0706,56.3799 C102.0826,55.8319 101.9026,55.4329 101.5196,55.1439 C101.1296,54.8509 100.5326,54.6809 99.8376,54.6649 L94.2926,54.5749 C93.4556,54.5559 92.0546,54.7379 92.0216,56.1739 L92.0216,56.1929 L91.6866,63.0809 Z M99.7876,66.9809 C99.7576,66.9809 99.7296,66.9799 99.7006,66.9799 L93.8536,66.8729 C91.7836,66.8249 90.1396,65.1049 90.1876,63.0379 L90.1876,63.0189 L90.5226,56.1289 C90.5716,54.2219 92.0606,53.0299 94.3226,53.0749 L99.8676,53.1649 C100.8926,53.1879 101.7746,53.4579 102.4216,53.9459 C103.1966,54.5289 103.5936,55.3779 103.5706,56.4009 L103.5356,63.3039 C103.4886,65.3549 101.8156,66.9809 99.7876,66.9809 L99.7876,66.9809 Z" id="Fill-149" fill="#354546"></path>
                <path d="M95.5558,43.6693 C95.6078,42.8463 94.9758,42.1303 94.1528,42.0783 L93.4108,42.0323 C92.5878,41.9813 91.8718,42.6123 91.8208,43.4363 L90.7558,59.9253 C90.7038,60.7493 91.3358,61.4643 92.1598,61.5163 L92.8998,61.5633 C93.7228,61.6143 94.4388,60.9823 94.4908,60.1593 L95.5558,43.6693 Z" id="Fill-151" fill="#A5B5B6"></path>
                <path d="M95.5558,43.6693 L95.5578,43.6693 L95.5558,43.6693 Z M93.3188,42.7793 C93.1358,42.7793 92.9618,42.8453 92.8238,42.9683 C92.6718,43.1023 92.5818,43.2843 92.5698,43.4823 L91.5038,59.9743 C91.4918,60.1703 91.5588,60.3633 91.6918,60.5143 C91.8258,60.6653 92.0078,60.7553 92.2058,60.7683 L92.9468,60.8143 C93.3598,60.8403 93.7158,60.5243 93.7428,60.1123 L94.8078,43.6223 C94.8198,43.4243 94.7528,43.2323 94.6188,43.0813 C94.4868,42.9293 94.3038,42.8393 94.1058,42.8273 L93.3648,42.7813 C93.3488,42.7803 93.3328,42.7793 93.3188,42.7793 L93.3188,42.7793 Z M92.9948,62.3153 C92.9478,62.3153 92.9008,62.3143 92.8528,62.3113 L92.1128,62.2653 C91.5138,62.2273 90.9648,61.9583 90.5668,61.5063 C90.1678,61.0553 89.9698,60.4773 90.0068,59.8783 L91.0728,43.3873 C91.1098,42.7913 91.3788,42.2423 91.8298,41.8433 C92.2828,41.4453 92.8598,41.2473 93.4578,41.2843 L94.1998,41.3303 C94.7968,41.3673 95.3458,41.6363 95.7438,42.0883 C96.1428,42.5403 96.3418,43.1183 96.3048,43.7163 L96.3038,43.7173 L95.2398,60.2073 C95.1638,61.3963 94.1718,62.3153 92.9948,62.3153 L92.9948,62.3153 Z" id="Fill-153" fill="#354546"></path>
                <path d="M99.3146,52.7308 C99.3656,51.9068 98.7346,51.1908 97.9106,51.1398 L97.1696,51.0938 C96.3466,51.0428 95.6306,51.6738 95.5796,52.4978 L95.2696,56.1268 C95.2176,56.9498 95.8496,57.6658 96.6726,57.7168 L97.4146,57.7638 C98.2376,57.8148 98.9536,57.1838 99.0046,56.3598 L99.3146,52.7308 Z" id="Fill-155" fill="#A5B5B6"></path>
                <path d="M99.3146,52.7308 L99.3156,52.7308 L99.3146,52.7308 Z M96.0176,56.1808 C95.9966,56.5898 96.3096,56.9428 96.7196,56.9688 L97.4606,57.0148 C97.8736,57.0428 98.2306,56.7258 98.2556,56.3138 C98.2556,56.3078 98.2566,56.3018 98.2566,56.2958 L98.5666,52.6768 C98.5766,52.4808 98.5096,52.2918 98.3776,52.1418 C98.2456,51.9908 98.0626,51.9008 97.8646,51.8888 L97.1236,51.8418 C96.9246,51.8298 96.7326,51.8968 96.5816,52.0298 C96.4306,52.1628 96.3396,52.3458 96.3286,52.5438 C96.3276,52.5498 96.3276,52.5558 96.3266,52.5608 L96.0176,56.1808 Z M97.5086,58.5168 C97.4616,58.5168 97.4156,58.5148 97.3676,58.5118 L96.6266,58.4658 C95.3876,58.3888 94.4436,57.3178 94.5206,56.0798 C94.5216,56.0738 94.5216,56.0678 94.5226,56.0628 L94.8316,52.4408 C94.8716,51.8468 95.1396,51.3008 95.5886,50.9048 C96.0406,50.5068 96.6186,50.3098 97.2166,50.3448 L97.9576,50.3918 C98.5556,50.4288 99.1046,50.6978 99.5026,51.1498 C99.9016,51.6008 100.0996,52.1798 100.0626,52.7768 C100.0626,52.7828 100.0616,52.7888 100.0616,52.7938 L99.7516,56.4168 C99.6736,57.6028 98.6826,58.5168 97.5086,58.5168 L97.5086,58.5168 Z" id="Fill-157" fill="#354546"></path>
                <path d="M103.1691,52.9569 C103.2211,52.1329 102.5891,51.4169 101.7661,51.3659 L101.0241,51.3199 C100.2011,51.2689 99.4851,51.8999 99.4351,52.7239 L99.1241,56.3529 C99.0731,57.1759 99.7051,57.8919 100.5281,57.9429 L101.2691,57.9899 C102.0921,58.0409 102.8081,57.4099 102.8591,56.5859 L103.1691,52.9569 Z" id="Fill-159" fill="#A5B5B6"></path>
                <g id="Group-163" transform="translate(98.000000, 50.041000)">
                    <mask id="mask-2" fill="white">
                        <use xlink:href="#path-1"></use>
                    </mask>
                    <g id="Clip-162"></g>
                    <path d="M5.1691,2.9159 L5.1711,2.9159 L5.1691,2.9159 Z M1.8731,6.3659 C1.8621,6.5619 1.9291,6.7509 2.0611,6.8999 C2.1941,7.0519 2.3771,7.1419 2.5751,7.1539 L3.3151,7.1999 C3.5141,7.2119 3.7061,7.1459 3.8571,7.0129 C4.0091,6.8789 4.0991,6.6969 4.1111,6.4989 C4.1111,6.4929 4.1111,6.4869 4.1121,6.4809 L4.4211,2.8619 C4.4321,2.6659 4.3651,2.4769 4.2331,2.3269 C4.1001,2.1759 3.9171,2.0859 3.7191,2.0739 L2.9781,2.0269 C2.7791,2.0139 2.5871,2.0819 2.4371,2.2149 C2.2851,2.3479 2.1951,2.5309 2.1831,2.7289 C2.1831,2.7349 2.1821,2.7409 2.1821,2.7459 L1.8731,6.3659 Z M3.3641,8.7019 C3.3171,8.7019 3.2701,8.6999 3.2221,8.6969 L2.4811,8.6509 C1.8831,8.6139 1.3341,8.3439 0.9361,7.8929 C0.5371,7.4409 0.3391,6.8629 0.3761,6.2649 C0.3761,6.2589 0.3771,6.2539 0.3771,6.2479 L0.6871,2.6259 C0.7261,2.0319 0.9951,1.4859 1.4431,1.0899 C1.8961,0.6919 2.4731,0.4939 3.0711,0.5299 L3.8131,0.5769 C4.4101,0.6139 4.9591,0.8829 5.3571,1.3349 C5.7561,1.7859 5.9551,2.3639 5.9181,2.9619 C5.9171,2.9679 5.9171,2.9739 5.9161,2.9789 L5.6071,6.6019 C5.5671,7.1959 5.2991,7.7409 4.8501,8.1379 C4.4351,8.5039 3.9111,8.7019 3.3641,8.7019 L3.3641,8.7019 Z" id="Fill-161" fill="#354546" mask="url(#mask-2)"></path>
                </g>
                <path d="M98.2999,55.9867 C98.8109,55.3387 98.6979,54.3907 98.0499,53.8797 L97.4669,53.4207 C96.8199,52.9097 95.8709,53.0227 95.3609,53.6707 L90.6939,59.5927 C90.1829,60.2407 90.2949,61.1887 90.9439,61.6987 L91.5259,62.1587 C92.1739,62.6697 93.1219,62.5567 93.6329,61.9087 L98.2999,55.9867 Z" id="Fill-164" fill="#A5B5B6"></path>
                <path d="M98.2999,55.9867 L98.3019,55.9867 L98.2999,55.9867 Z M96.5399,53.8487 C96.3179,53.8487 96.0979,53.9467 95.9489,54.1347 L91.2819,60.0567 C91.1589,60.2127 91.1049,60.4087 91.1279,60.6097 C91.1529,60.8097 91.2509,60.9867 91.4069,61.1107 L91.9899,61.5697 C92.3149,61.8257 92.7869,61.7697 93.0429,61.4447 L97.7109,55.5227 C97.9669,55.1977 97.9109,54.7247 97.5859,54.4687 L97.0029,54.0097 C96.8649,53.9017 96.7019,53.8487 96.5399,53.8487 L96.5399,53.8487 Z M92.4519,63.2297 C91.9639,63.2297 91.4739,63.0717 91.0619,62.7477 L90.4789,62.2887 C90.0079,61.9177 89.7099,61.3837 89.6389,60.7857 C89.5689,60.1877 89.7339,59.5987 90.1049,59.1287 L94.7719,53.2057 C95.5399,52.2317 96.9569,52.0637 97.9319,52.8317 L98.5149,53.2907 C99.4889,54.0587 99.6569,55.4767 98.8889,56.4507 L94.2219,62.3737 C93.7789,62.9357 93.1179,63.2297 92.4519,63.2297 L92.4519,63.2297 Z" id="Fill-166" fill="#354546"></path>
                <path d="M95.1085,58.1966 L93.3455,58.1396 C91.6975,58.0856 90.3035,59.3906 90.2505,61.0406 L90.1935,62.8026 C90.1395,64.4516 91.4455,65.8446 93.0935,65.8986 L94.8565,65.9556 C96.5055,66.0086 97.8985,64.7036 97.9525,63.0546 L98.0085,61.2926 C98.0625,59.6436 96.7565,58.2506 95.1085,58.1966" id="Fill-168" fill="#A5B5B6"></path>
                <path d="M93.2482,58.8875 C92.0402,58.8875 91.0392,59.8495 91.0002,61.0645 L90.9422,62.8265 C90.9232,63.4245 91.1402,63.9955 91.5532,64.4355 C91.9652,64.8765 92.5212,65.1295 93.1182,65.1485 L94.8812,65.2055 C96.1232,65.2395 97.1622,64.2695 97.2022,63.0305 L97.2602,61.2675 C97.2792,60.6705 97.0622,60.0985 96.6502,59.6585 C96.2372,59.2185 95.6822,58.9655 95.0842,58.9465 L93.3212,58.8885 C93.2972,58.8875 93.2722,58.8875 93.2482,58.8875 M94.9552,66.7075 C94.9142,66.7075 94.8732,66.7065 94.8322,66.7045 L93.0692,66.6475 C92.0722,66.6155 91.1442,66.1945 90.4582,65.4615 C89.7712,64.7285 89.4112,63.7765 89.4432,62.7785 L89.5012,61.0155 C89.5672,58.9495 91.3042,57.3225 93.3702,57.3895 L95.1332,57.4475 C96.1302,57.4795 97.0582,57.9005 97.7442,58.6335 C98.4312,59.3655 98.7912,60.3185 98.7592,61.3165 L98.7012,63.0785 C98.6362,65.1045 96.9672,66.7065 94.9552,66.7075" id="Fill-170" fill="#354546"></path>
                <mask id="mask-4" fill="white">
                    <use xlink:href="#path-3"></use>
                </mask>
                <g id="Clip-173"></g>
                <polygon id="Fill-172" fill="#758586" mask="url(#mask-4)" points="51.296 87.555 67.414 87.555 67.414 75.949 51.296 75.949"></polygon>
                <path d="M52.046,86.804 L66.664,86.804 L66.664,76.698 L52.046,76.698 L52.046,86.804 Z M67.414,88.304 L51.296,88.304 C50.881,88.304 50.546,87.969 50.546,87.554 L50.546,75.948 C50.546,75.534 50.881,75.198 51.296,75.198 L67.414,75.198 C67.828,75.198 68.164,75.534 68.164,75.948 L68.164,87.554 C68.164,87.969 67.828,88.304 67.414,88.304 L67.414,88.304 Z" id="Fill-174" fill="#354546" mask="url(#mask-4)"></path>
                <polygon id="Fill-175" fill="#758586" mask="url(#mask-4)" points="54.956 61.398 64.298 61.398 64.298 52.895 54.956 52.895"></polygon>
                <path d="M55.706,60.648 L63.548,60.648 L63.548,53.645 L55.706,53.645 L55.706,60.648 Z M64.298,62.148 L54.956,62.148 C54.542,62.148 54.206,61.812 54.206,61.398 L54.206,52.895 C54.206,52.481 54.542,52.145 54.956,52.145 L64.298,52.145 C64.713,52.145 65.048,52.481 65.048,52.895 L65.048,61.398 C65.048,61.812 64.713,62.148 64.298,62.148 L64.298,62.148 Z" id="Fill-176" fill="#354546" mask="url(#mask-4)"></path>
                <path d="M64.299,58.3978 C64.285,58.3978 64.272,58.3978 64.258,58.3968 L54.915,57.8958 C54.502,57.8728 54.185,57.5198 54.207,57.1058 C54.229,56.6928 54.583,56.3758 54.996,56.3978 L64.339,56.8988 C64.752,56.9208 65.07,57.2748 65.047,57.6888 C65.026,58.0878 64.695,58.3978 64.299,58.3978" id="Fill-177" fill="#354546" mask="url(#mask-4)"></path>
                <path d="M66.6447,75.0506 L66.6467,75.0506 L66.6447,75.0506 Z M67.5807,75.4266 C67.5567,75.4266 67.5337,75.4276 67.5107,75.4286 C67.3317,75.4366 67.2607,75.4786 67.2507,75.4926 C67.1657,75.6086 67.0977,76.3036 67.8637,77.9236 C68.4457,79.1536 69.2697,80.3996 69.7497,80.9466 C70.1357,81.3866 70.6217,81.6296 71.0817,81.6056 C71.4827,81.5876 71.8357,81.3826 72.1057,81.0126 C72.7787,80.0896 72.6437,78.5076 71.8107,77.5586 C71.1047,76.7536 68.7857,75.4266 67.5807,75.4266 L67.5807,75.4266 Z M71.0267,83.1066 C70.1497,83.1066 69.2797,82.6846 68.6227,81.9366 C68.0827,81.3216 64.6407,76.5276 66.0387,74.6096 C66.2497,74.3186 66.6657,73.9656 67.4437,73.9296 C69.1887,73.8476 71.9797,75.4766 72.9387,76.5696 C74.2437,78.0566 74.4107,80.3966 73.3177,81.8956 C72.7787,82.6356 72.0087,83.0656 71.1507,83.1046 C71.1097,83.1066 71.0687,83.1066 71.0267,83.1066 L71.0267,83.1066 Z" id="Fill-178" fill="#19B5FE" mask="url(#mask-4)"></path>
                <path d="M73.3351,72.7606 C71.9181,72.7606 69.7371,73.1776 68.5431,73.9726 C68.2591,74.1616 67.9081,74.4556 67.8571,74.7796 C67.7901,75.2106 68.2681,76.0416 69.8131,77.0766 C71.0921,77.9336 72.6411,78.6066 73.4491,78.8056 C74.0511,78.9536 74.6681,78.8436 75.1891,78.4986 C75.8141,78.0816 76.2501,77.3576 76.3831,76.5136 C76.6461,74.8436 75.6911,73.1986 74.2561,72.8466 C74.0221,72.7886 73.7041,72.7606 73.3351,72.7606 M73.9811,80.3706 C73.6861,80.3706 73.3881,80.3346 73.0911,80.2616 C71.3241,79.8276 65.9461,77.2826 66.3761,74.5466 C66.4841,73.8546 66.9341,73.2416 67.7121,72.7236 C69.5031,71.5316 73.0041,70.9936 74.6141,71.3896 C76.7861,71.9236 78.2451,74.3266 77.8651,76.7456 C77.6671,78.0046 76.9941,79.0986 76.0191,79.7476 C75.4001,80.1586 74.6981,80.3706 73.9811,80.3706" id="Fill-179" fill="#C72C1C" mask="url(#mask-4)"></path>
                <path d="M62.92,60.0238 C61.276,59.8798 58.584,59.8338 56.936,59.9198 L47.865,60.3938 C46.218,60.4798 44.846,61.8998 44.817,63.5498 L44.667,72.1728 C44.638,73.8228 45.917,75.5278 47.509,75.9618 L56.697,78.4688 C58.289,78.9038 60.905,78.9488 62.512,78.5708 L71.782,76.3858 C73.389,76.0068 74.726,74.3478 74.755,72.6978 L74.905,64.0748 C74.934,62.4248 73.612,60.9578 71.969,60.8148 L62.92,60.0238 Z" id="Fill-180" fill="#A5B5B6" mask="url(#mask-4)"></path>
                <path d="M71.8243,73.9857 L62.5533,76.1717 C60.9473,76.5497 58.3313,76.5047 56.7393,76.0697 L47.5503,73.5627 C45.9583,73.1277 44.6793,71.4227 44.7083,69.7737 L44.6673,72.1727 C44.6373,73.8227 45.9173,75.5277 47.5093,75.9617 L56.6973,78.4687 C58.2893,78.9037 60.9053,78.9487 62.5113,78.5707 L71.7823,76.3857 C73.3883,76.0067 74.7253,74.3477 74.7553,72.6977 L74.7973,70.2977 C74.7673,71.9477 73.4303,73.6077 71.8243,73.9857" id="Fill-181" fill="#859596" mask="url(#mask-4)"></path>
                <path d="M58.9015,60.6258 C58.1955,60.6258 57.5265,60.6398 56.9745,60.6678 L47.9045,61.1428 C46.6595,61.2078 45.5885,62.3158 45.5665,63.5628 L45.4165,72.1858 C45.3935,73.4958 46.4425,74.8938 47.7065,75.2388 L56.8945,77.7458 C58.3645,78.1468 60.8575,78.1898 62.3395,77.8408 L71.6105,75.6558 C72.8855,75.3548 73.9825,73.9948 74.0055,72.6848 L74.1555,64.0618 C74.1765,62.8148 73.1455,61.6698 71.9035,61.5618 L62.8555,60.7718 C61.7865,60.6778 60.2725,60.6258 58.9015,60.6258 M59.8805,79.5798 C58.6715,79.5798 57.4395,79.4488 56.5005,79.1928 L47.3105,76.6858 C45.3735,76.1568 43.8815,74.1688 43.9175,72.1598 L44.0675,63.5368 C44.1025,61.4978 45.7895,59.7508 47.8265,59.6448 L56.8965,59.1708 C58.5785,59.0828 61.3085,59.1298 62.9855,59.2768 L72.0345,60.0668 C74.0665,60.2448 75.6905,62.0478 75.6555,64.0878 L75.5055,72.7108 C75.4695,74.7198 73.9105,76.6548 71.9545,77.1158 L62.6835,79.3008 C61.8895,79.4878 60.8925,79.5798 59.8805,79.5798" id="Fill-182" fill="#354546" mask="url(#mask-4)"></path>
                <polygon id="Fill-183" fill="#556566" mask="url(#mask-4)" points="62.8136 73.1019 49.7376 72.8729 49.8986 63.6749 62.9736 63.9029"></polygon>
                <path d="M58.3976,71.1634 C58.1416,71.1634 57.8996,71.0314 57.7616,70.8094 L56.7236,69.1444 L55.1066,69.1164 C54.8556,69.1124 54.6236,68.9824 54.4876,68.7694 L54.4196,68.6644 L53.9836,69.6814 C53.8856,69.9084 53.6836,70.0724 53.4416,70.1214 C53.1996,70.1694 52.9486,70.0954 52.7716,69.9224 L51.8846,69.0604 L49.8046,69.0244 C49.3906,69.0174 49.0606,68.6754 49.0686,68.2614 C49.0756,67.8474 49.4186,67.5114 49.8316,67.5244 L52.2086,67.5654 C52.3996,67.5694 52.5816,67.6454 52.7186,67.7784 L53.0366,68.0874 L53.6016,66.7704 C53.7106,66.5154 53.9536,66.3414 54.2306,66.3194 C54.5056,66.2974 54.7736,66.4294 54.9226,66.6634 L55.5366,67.6234 L57.1576,67.6524 C57.4126,67.6564 57.6466,67.7894 57.7816,68.0054 L58.1756,68.6384 L58.9886,66.0844 C59.0856,65.7774 59.3706,65.5664 59.6936,65.5624 C60.0166,65.5584 60.3066,65.7624 60.4126,66.0674 L60.9826,67.7194 L62.9076,67.7524 C63.3216,67.7594 63.6506,68.1014 63.6436,68.5154 C63.6366,68.9254 63.3016,69.2524 62.8936,69.2524 L62.8806,69.2524 L60.4316,69.2094 C60.1166,69.2044 59.8376,69.0024 59.7356,68.7044 L59.7326,68.6944 L59.1126,70.6404 C59.0246,70.9194 58.7816,71.1214 58.4916,71.1574 C58.4596,71.1614 58.4286,71.1634 58.3976,71.1634" id="Fill-184" fill="#D5E5E6" mask="url(#mask-4)"></path>
                <path d="M50.5001,72.1366 L62.0761,72.3386 L62.2111,64.6396 L50.6351,64.4386 L50.5001,72.1366 Z M62.8131,73.8516 L62.8011,73.8516 L49.7251,73.6236 C49.3111,73.6156 48.9801,73.2746 48.9871,72.8606 L49.1481,63.6616 C49.1551,63.2476 49.4991,62.9126 49.9111,62.9256 L62.9871,63.1536 C63.1861,63.1566 63.3751,63.2396 63.5141,63.3826 C63.6511,63.5256 63.7281,63.7176 63.7241,63.9166 L63.5631,73.1146 C63.5601,73.3136 63.4781,73.5036 63.3341,73.6416 C63.1941,73.7766 63.0081,73.8516 62.8131,73.8516 L62.8131,73.8516 Z" id="Fill-185" fill="#354546" mask="url(#mask-4)"></path>
                <path d="M69.7921,65.7972 C69.7741,66.7772 68.9671,67.5582 67.9861,67.5412 C67.0061,67.5242 66.2261,66.7152 66.2421,65.7352 C66.2601,64.7552 67.0681,63.9742 68.0481,63.9912 C69.0281,64.0082 69.8091,64.8172 69.7921,65.7972" id="Fill-186" fill="#F85C4C" mask="url(#mask-4)"></path>
                <path d="M68.0167,64.7411 C67.4597,64.7411 67.0017,65.1901 66.9927,65.7491 C66.9877,66.0221 67.0897,66.2821 67.2797,66.4781 C67.4697,66.6761 67.7257,66.7861 67.9987,66.7911 C68.2707,66.7911 68.5327,66.6941 68.7297,66.5041 C68.9257,66.3131 69.0377,66.0581 69.0417,65.7841 L69.0417,65.7841 C69.0517,65.2191 68.6007,64.7511 68.0357,64.7411 L68.0167,64.7411 M68.0187,68.2911 L67.9737,68.2911 C67.2987,68.2791 66.6697,68.0061 66.2017,67.5201 C65.7327,67.0351 65.4807,66.3971 65.4927,65.7221 C65.5167,64.3301 66.6637,63.2161 68.0617,63.2421 C69.4537,63.2661 70.5667,64.4181 70.5417,65.8101 C70.5307,66.4851 70.2567,67.1141 69.7717,67.5831 C69.2967,68.0411 68.6757,68.2911 68.0187,68.2911" id="Fill-187" fill="#C72C1C" mask="url(#mask-4)"></path>
                <path d="M69.6935,71.4466 C69.6765,72.4266 68.8685,73.2076 67.8875,73.1906 C66.9075,73.1736 66.1275,72.3646 66.1435,71.3846 C66.1615,70.4046 66.9695,69.6236 67.9495,69.6406 C68.9295,69.6576 69.7115,70.4666 69.6935,71.4466" id="Fill-188" fill="#B9D96D" mask="url(#mask-4)"></path>
                <path d="M67.9181,70.3905 C67.6511,70.3905 67.3991,70.4925 67.2071,70.6785 C67.0101,70.8685 66.8981,71.1235 66.8941,71.3975 C66.8891,71.6715 66.9911,71.9305 67.1821,72.1275 C67.3711,72.3245 67.6271,72.4355 67.9001,72.4405 C68.1701,72.4505 68.4341,72.3435 68.6311,72.1525 C68.8271,71.9625 68.9391,71.7075 68.9431,71.4335 C68.9481,71.1595 68.8461,70.9005 68.6561,70.7035 C68.4661,70.5065 68.2101,70.3955 67.9371,70.3905 L67.9181,70.3905 Z M67.9201,73.9405 L67.8751,73.9405 C67.2001,73.9285 66.5711,73.6545 66.1031,73.1695 C65.6341,72.6845 65.3821,72.0455 65.3951,71.3715 C65.4061,70.6975 65.6801,70.0675 66.1651,69.5985 C66.6491,69.1305 67.2871,68.8765 67.9631,68.8905 C68.6371,68.9025 69.2671,69.1765 69.7351,69.6615 C70.2031,70.1465 70.4551,70.7855 70.4431,71.4595 C70.4321,72.1345 70.1581,72.7635 69.6731,73.2315 C69.1981,73.6895 68.5771,73.9405 67.9201,73.9405 L67.9201,73.9405 Z" id="Fill-189" fill="#719911" mask="url(#mask-4)"></path>
                <path d="M49.5499,62.5467 C49.1899,62.5467 48.8709,62.2857 48.8109,61.9187 L48.4069,59.4657 C48.3399,59.0567 48.6159,58.6707 49.0259,58.6037 C49.4349,58.5367 49.8209,58.8137 49.8869,59.2217 L50.2909,61.6747 C50.3589,62.0837 50.0819,62.4687 49.6729,62.5367 C49.6319,62.5437 49.5909,62.5467 49.5499,62.5467" id="Fill-190" fill="#354546" mask="url(#mask-4)"></path>
                <path d="M52.5109,62.0594 C52.1499,62.0594 51.8319,61.7984 51.7719,61.4314 L51.3669,58.9784 C51.2999,58.5694 51.5769,58.1834 51.9859,58.1164 C52.3949,58.0494 52.7809,58.3264 52.8479,58.7344 L53.2509,61.1874 C53.3189,61.5964 53.0419,61.9814 52.6329,62.0494 C52.5919,62.0564 52.5509,62.0594 52.5109,62.0594" id="Fill-191" fill="#354546" mask="url(#mask-4)"></path>
                <path d="M69.8546,62.5467 C69.8146,62.5467 69.7726,62.5437 69.7316,62.5367 C69.3236,62.4687 69.0456,62.0837 69.1136,61.6747 L69.5176,59.2217 C69.5846,58.8137 69.9696,58.5367 70.3786,58.6037 C70.7886,58.6707 71.0646,59.0567 70.9976,59.4657 L70.5936,61.9187 C70.5336,62.2857 70.2146,62.5467 69.8546,62.5467" id="Fill-192" fill="#354546" mask="url(#mask-4)"></path>
                <path d="M66.8947,62.0594 C66.8537,62.0594 66.8127,62.0564 66.7717,62.0494 C66.3627,61.9814 66.0857,61.5964 66.1537,61.1874 L66.5577,58.7344 C66.6237,58.3264 67.0097,58.0494 67.4187,58.1164 C67.8287,58.1834 68.1047,58.5694 68.0377,58.9784 L67.6337,61.4314 C67.5737,61.7984 67.2547,62.0594 66.8947,62.0594" id="Fill-193" fill="#354546" mask="url(#mask-4)"></path>
                <polygon id="Fill-194" fill="#A5B5B6" mask="url(#mask-4)" points="46.609 107.861 51.296 107.861 51.296 98.861 46.609 98.861"></polygon>
                <polygon id="Fill-195" fill="#C5D5D6" mask="url(#mask-4)" points="46.609 102.436 51.296 102.436 51.296 98.86 46.609 98.86"></polygon>
                <path d="M47.359,107.111 L50.547,107.111 L50.547,99.611 L47.359,99.611 L47.359,107.111 Z M51.296,108.611 L46.609,108.611 C46.194,108.611 45.859,108.275 45.859,107.861 L45.859,98.861 C45.859,98.446 46.194,98.111 46.609,98.111 L51.296,98.111 C51.71,98.111 52.046,98.446 52.046,98.861 L52.046,107.861 C52.046,108.275 51.71,108.611 51.296,108.611 L51.296,108.611 Z" id="Fill-196" fill="#354546" mask="url(#mask-4)"></path>
                <polygon id="Fill-197" fill="#A5B5B6" mask="url(#mask-4)" points="43.429 106.098 46.614 106.098 46.614 90.198 43.429 90.198"></polygon>
                <path d="M44.18,105.348 L45.865,105.348 L45.865,90.948 L44.18,90.948 L44.18,105.348 Z M46.614,106.848 L43.43,106.848 C43.015,106.848 42.68,106.512 42.68,106.098 L42.68,90.198 C42.68,89.784 43.015,89.448 43.43,89.448 L46.614,89.448 C47.028,89.448 47.364,89.784 47.364,90.198 L47.364,106.098 C47.364,106.512 47.028,106.848 46.614,106.848 L46.614,106.848 Z" id="Fill-198" fill="#354546" mask="url(#mask-4)"></path>
                <path d="M45.088,84.6854 L44.956,84.6854 C43.306,84.6854 41.956,86.0354 41.956,87.6854 L41.956,94.8104 L48.088,94.8104 L48.088,87.6854 C48.088,86.0354 46.738,84.6854 45.088,84.6854" id="Fill-199" fill="#A5B5B6" mask="url(#mask-4)"></path>
                <path d="M45.088,84.6854 L44.956,84.6854 C43.306,84.6854 41.956,86.0354 41.956,87.6854 L41.956,90.4234 C41.956,88.7724 43.306,87.4234 44.956,87.4234 L45.088,87.4234 C46.738,87.4234 48.088,88.7724 48.088,90.4234 L48.088,87.6854 C48.088,86.0354 46.738,84.6854 45.088,84.6854" id="Fill-200" fill="#C5D5D6" mask="url(#mask-4)"></path>
                <path d="M42.7062,94.0604 L47.3382,94.0604 L47.3382,87.6854 C47.3382,86.4444 46.3292,85.4354 45.0882,85.4354 L44.9562,85.4354 C43.7152,85.4354 42.7062,86.4444 42.7062,87.6854 L42.7062,94.0604 Z M48.0882,95.5604 L41.9562,95.5604 C41.5412,95.5604 41.2062,95.2254 41.2062,94.8104 L41.2062,87.6854 C41.2062,85.6174 42.8882,83.9354 44.9562,83.9354 L45.0882,83.9354 C47.1562,83.9354 48.8382,85.6174 48.8382,87.6854 L48.8382,94.8104 C48.8382,95.2254 48.5022,95.5604 48.0882,95.5604 L48.0882,95.5604 Z" id="Fill-201" fill="#354546" mask="url(#mask-4)"></path>
                <polygon id="Fill-202" fill="#A5B5B6" mask="url(#mask-4)" points="67.734 107.861 72.421 107.861 72.421 98.861 67.734 98.861"></polygon>
                <polygon id="Fill-203" fill="#C5D5D6" mask="url(#mask-4)" points="67.734 102.436 72.421 102.436 72.421 98.86 67.734 98.86"></polygon>
                <path d="M68.484,107.111 L71.672,107.111 L71.672,99.611 L68.484,99.611 L68.484,107.111 Z M72.421,108.611 L67.734,108.611 C67.319,108.611 66.984,108.275 66.984,107.861 L66.984,98.861 C66.984,98.446 67.319,98.111 67.734,98.111 L72.421,98.111 C72.835,98.111 73.171,98.446 73.171,98.861 L73.171,107.861 C73.171,108.275 72.835,108.611 72.421,108.611 L72.421,108.611 Z" id="Fill-204" fill="#354546" mask="url(#mask-4)"></path>
                <polygon id="Fill-205" fill="#A5B5B6" mask="url(#mask-4)" points="72.414 106.098 75.6 106.098 75.6 90.198 72.414 90.198"></polygon>
                <path d="M73.164,105.348 L74.85,105.348 L74.85,90.948 L73.164,90.948 L73.164,105.348 Z M75.6,106.848 L72.414,106.848 C72,106.848 71.664,106.512 71.664,106.098 L71.664,90.198 C71.664,89.784 72,89.448 72.414,89.448 L75.6,89.448 C76.014,89.448 76.35,89.784 76.35,90.198 L76.35,106.098 C76.35,106.512 76.014,106.848 75.6,106.848 L75.6,106.848 Z" id="Fill-206" fill="#354546" mask="url(#mask-4)"></path>
                <path d="M73.9406,84.6854 L74.0736,84.6854 C75.7236,84.6854 77.0736,86.0354 77.0736,87.6854 L77.0736,94.8104 L70.9406,94.8104 L70.9406,87.6854 C70.9406,86.0354 72.2916,84.6854 73.9406,84.6854" id="Fill-207" fill="#A5B5B6" mask="url(#mask-4)"></path>
                <path d="M73.9406,84.6854 L74.0736,84.6854 C75.7236,84.6854 77.0736,86.0354 77.0736,87.6854 L77.0736,90.4234 C77.0736,88.7724 75.7236,87.4234 74.0736,87.4234 L73.9406,87.4234 C72.2916,87.4234 70.9406,88.7724 70.9406,90.4234 L70.9406,87.6854 C70.9406,86.0354 72.2916,84.6854 73.9406,84.6854" id="Fill-208" fill="#C5D5D6" mask="url(#mask-4)"></path>
                <path d="M71.6906,94.0604 L76.3236,94.0604 L76.3236,87.6854 C76.3236,86.4444 75.3136,85.4354 74.0736,85.4354 L73.9406,85.4354 C72.7006,85.4354 71.6906,86.4444 71.6906,87.6854 L71.6906,94.0604 Z M77.0736,95.5604 L70.9406,95.5604 C70.5266,95.5604 70.1906,95.2254 70.1906,94.8104 L70.1906,87.6854 C70.1906,85.6174 71.8736,83.9354 73.9406,83.9354 L74.0736,83.9354 C76.1406,83.9354 77.8236,85.6174 77.8236,87.6854 L77.8236,94.8104 C77.8236,95.2254 77.4876,95.5604 77.0736,95.5604 L77.0736,95.5604 Z" id="Fill-209" fill="#354546" mask="url(#mask-4)"></path>
                <path d="M67.5958,115.3607 C67.5958,117.0107 66.2448,118.3607 64.5958,118.3607 L54.2958,118.3607 C52.6458,118.3607 51.2958,117.0107 51.2958,115.3607 L51.2958,91.3607 C51.2958,89.7107 52.6458,88.3607 54.2958,88.3607 L64.5958,88.3607 C66.2448,88.3607 67.5958,89.7107 67.5958,91.3607 L67.5958,115.3607 Z" id="Fill-210" fill="#6D6D6D" mask="url(#mask-4)"></path>
                <path d="M64.5958,113.7855 L54.2958,113.7855 C52.9558,113.7855 51.7148,112.8955 51.2958,111.6775 L51.2958,115.3605 C51.2958,117.0105 52.6458,118.3605 54.2958,118.3605 L64.5958,118.3605 C66.2448,118.3605 67.5958,117.0105 67.5958,115.3605 L67.5958,111.6775 C67.1768,112.8955 65.9358,113.7855 64.5958,113.7855" id="Fill-211" fill="#5B5B5B" mask="url(#mask-4)"></path>
                <polygon id="Fill-212" fill="#929292" mask="url(#mask-4)" points="67.505 101.411 51.296 100.06 51.386 96.011 67.505 96.011"></polygon>
                <polygon id="Fill-213" fill="#929292" mask="url(#mask-4)" points="67.505 104.5604 51.386 105.6644 51.386 102.9644 67.505 102.9644"></polygon>
                <path d="M54.296,89.1107 C53.055,89.1107 52.046,90.1197 52.046,91.3607 L52.046,115.3607 C52.046,116.6017 53.055,117.6107 54.296,117.6107 L64.596,117.6107 C65.836,117.6107 66.846,116.6017 66.846,115.3607 L66.846,91.3607 C66.846,90.1197 65.836,89.1107 64.596,89.1107 L54.296,89.1107 Z M64.596,119.1107 L54.296,119.1107 C52.228,119.1107 50.546,117.4277 50.546,115.3607 L50.546,91.3607 C50.546,89.2927 52.228,87.6107 54.296,87.6107 L64.596,87.6107 C66.663,87.6107 68.346,89.2927 68.346,91.3607 L68.346,115.3607 C68.346,117.4277 66.663,119.1107 64.596,119.1107 L64.596,119.1107 Z" id="Fill-214" fill="#121212" mask="url(#mask-4)"></path>
                <path d="M67.6329,84.6854 L51.2589,84.6854 C49.4769,84.6854 48.0199,86.0354 48.0199,87.6854 L48.0199,92.0354 L70.8719,92.0354 L70.8719,87.6854 C70.8719,86.0354 69.4139,84.6854 67.6329,84.6854" id="Fill-215" fill="#A5B5B6" mask="url(#mask-4)"></path>
                <path d="M67.6329,84.6854 L51.2589,84.6854 C49.4769,84.6854 48.0199,86.0354 48.0199,87.6854 L70.8719,87.6854 C70.8719,86.0354 69.4139,84.6854 67.6329,84.6854" id="Fill-216" fill="#C5D5D6" mask="url(#mask-4)"></path>
                <path d="M48.7697,91.2855 L70.1227,91.2855 L70.1227,87.6855 C70.1227,86.4445 69.0047,85.4355 67.6327,85.4355 L51.2587,85.4355 C49.8857,85.4355 48.7697,86.4445 48.7697,87.6855 L48.7697,91.2855 Z M70.8727,92.7855 L48.0197,92.7855 C47.6047,92.7855 47.2697,92.4495 47.2697,92.0355 L47.2697,87.6855 C47.2697,85.6175 49.0587,83.9355 51.2587,83.9355 L67.6327,83.9355 C69.8317,83.9355 71.6227,85.6175 71.6227,87.6855 L71.6227,92.0355 C71.6227,92.4495 71.2867,92.7855 70.8727,92.7855 L70.8727,92.7855 Z" id="Fill-217" fill="#354546" mask="url(#mask-4)"></path>
                <path d="M54.9454,86.8661 C54.5314,86.8661 54.1954,86.5311 54.1954,86.1161 L54.1954,83.6311 C54.1954,83.2161 54.5314,82.8811 54.9454,82.8811 C55.3594,82.8811 55.6954,83.2161 55.6954,83.6311 L55.6954,86.1161 C55.6954,86.5311 55.3594,86.8661 54.9454,86.8661" id="Fill-218" fill="#354546" mask="url(#mask-4)"></path>
                <path d="M57.9454,86.8661 C57.5314,86.8661 57.1954,86.5311 57.1954,86.1161 L57.1954,83.6311 C57.1954,83.2161 57.5314,82.8811 57.9454,82.8811 C58.3594,82.8811 58.6954,83.2161 58.6954,83.6311 L58.6954,86.1161 C58.6954,86.5311 58.3594,86.8661 57.9454,86.8661" id="Fill-219" fill="#354546" mask="url(#mask-4)"></path>
                <path d="M60.9454,86.8661 C60.5314,86.8661 60.1954,86.5311 60.1954,86.1161 L60.1954,83.6311 C60.1954,83.2161 60.5314,82.8811 60.9454,82.8811 C61.3594,82.8811 61.6954,83.2161 61.6954,83.6311 L61.6954,86.1161 C61.6954,86.5311 61.3594,86.8661 60.9454,86.8661" id="Fill-220" fill="#354546" mask="url(#mask-4)"></path>
                <path d="M63.9454,86.8661 C63.5314,86.8661 63.1954,86.5311 63.1954,86.1161 L63.1954,83.6311 C63.1954,83.2161 63.5314,82.8811 63.9454,82.8811 C64.3594,82.8811 64.6954,83.2161 64.6954,83.6311 L64.6954,86.1161 C64.6954,86.5311 64.3594,86.8661 63.9454,86.8661" id="Fill-221" fill="#354546" mask="url(#mask-4)"></path>
                <path d="M81.797,21.1126 C81.786,21.1126 81.776,21.1126 81.765,21.1116 C81.351,21.0936 81.029,20.7446 81.047,20.3306 L81.477,10.2086 C81.542,8.4196 80.901,6.7016 79.67,5.3766 C78.44,4.0506 76.774,3.2846 74.98,3.2186 L74.959,3.2166 L48.899,1.5046 C45.183,1.3736 42.052,4.2856 41.914,8.0016 L41.485,18.8756 C41.469,19.2886 41.122,19.6116 40.706,19.5946 C40.292,19.5786 39.97,19.2296 39.986,18.8156 L40.416,7.9446 C40.583,3.4006 44.421,-0.1624 48.965,0.0066 C48.972,0.0066 48.979,0.0066 48.986,0.0076 L75.047,1.7196 C77.236,1.8036 79.269,2.7396 80.77,4.3556 C82.273,5.9746 83.057,8.0746 82.976,10.2686 L82.546,20.3946 C82.528,20.7976 82.196,21.1126 81.797,21.1126" id="Fill-222" fill="#354546" mask="url(#mask-4)"></path>
                <path d="M36.4532,19.764 C35.1592,19.716 34.0512,21.026 33.9892,22.675 L33.6152,32.809 C33.5552,34.458 34.5622,35.846 35.8562,35.894 C37.1502,35.942 38.2092,35.981 38.2092,35.981 L38.8052,19.851 C38.8052,19.851 37.7462,19.812 36.4532,19.764" id="Fill-223" fill="#A5B5B6" mask="url(#mask-4)"></path>
                <path d="M33.9894,22.6751 L33.8064,27.6351 L38.5104,27.8091 L38.8044,19.8511 C38.8044,19.8511 37.7464,19.8121 36.4534,19.7641 C35.1594,19.7161 34.0514,21.0261 33.9894,22.6751" id="Fill-224" fill="#C5D5D6" mask="url(#mask-4)"></path>
                <path d="M38.1818,36.7298 L35.8288,36.6438 C34.9808,36.6118 34.1758,36.1558 33.6208,35.3928 C33.0988,34.6728 32.8298,33.7458 32.8668,32.7808 L33.2408,22.6468 C33.3168,20.5808 34.7708,18.9488 36.4808,19.0148 L38.8328,19.1018 L38.7778,20.6008 L36.4248,20.5138 C36.4108,20.5128 36.3978,20.5128 36.3848,20.5128 C35.5328,20.5128 34.7838,21.5028 34.7398,22.7028 L34.3648,32.8368 C34.3418,33.4578 34.5128,34.0678 34.8348,34.5108 C35.1208,34.9048 35.4938,35.1298 35.8848,35.1448 L38.2368,35.2308 L38.1818,36.7298 Z" id="Fill-225" fill="#354546" mask="url(#mask-4)"></path>
                <polygon id="Fill-226" fill="#859596" mask="url(#mask-4)" points="42.5245 38.5394 38.1205 38.3764 38.8445 18.7754 43.2495 18.9384"></polygon>
                <polygon id="Fill-227" fill="#A5B5B6" mask="url(#mask-4)" points="42.8351 30.1527 38.4311 29.9897 38.8451 18.7757 43.2491 18.9387"></polygon>
                <path d="M38.8976,37.6551 L41.8026,37.7621 L42.4716,19.6601 L39.5666,19.5521 L38.8976,37.6551 Z M42.5246,39.2891 L42.4976,39.2891 L38.0926,39.1261 C37.6786,39.1111 37.3556,38.7631 37.3716,38.3491 L38.0946,18.7481 C38.1106,18.3341 38.4576,18.0101 38.8726,18.0261 L43.2766,18.1891 C43.4756,18.1961 43.6636,18.2821 43.7976,18.4281 C43.9336,18.5731 44.0056,18.7671 43.9986,18.9661 L43.2746,38.5671 C43.2666,38.7661 43.1806,38.9531 43.0356,39.0891 C42.8966,39.2181 42.7136,39.2891 42.5246,39.2891 L42.5246,39.2891 Z" id="Fill-228" fill="#354546" mask="url(#mask-4)"></path>
                <path d="M33.8068,28.3851 L33.8048,28.3851 L32.0038,28.3811 C31.5898,28.3801 31.2548,28.0441 31.2548,27.6301 C31.2558,27.2161 31.5918,26.8811 32.0048,26.8811 L32.0068,26.8811 L33.8078,26.8851 C34.2218,26.8851 34.5578,27.2221 34.5568,27.6361 C34.5558,28.0501 34.2198,28.3851 33.8068,28.3851" id="Fill-229" fill="#354546" mask="url(#mask-4)"></path>
                <path d="M88.881,10.5555 C88.795,10.5555 88.708,10.5445 88.621,10.5225 C88.059,10.3795 87.72,9.8085 87.862,9.2465 L88.64,6.1975 C88.782,5.6365 89.354,5.2965 89.916,5.4395 C90.478,5.5825 90.818,6.1545 90.674,6.7165 L89.898,9.7645 C89.777,10.2395 89.35,10.5555 88.881,10.5555" id="Fill-230" fill="#354546" mask="url(#mask-4)"></path>
                <path d="M85.8029,22.3377 C85.7409,22.3377 85.6789,22.3297 85.6169,22.3147 C85.2159,22.2117 84.9729,21.8037 85.0749,21.4017 L88.1539,9.3197 C88.2559,8.9187 88.6639,8.6757 89.0659,8.7787 C89.4669,8.8807 89.7089,9.2897 89.6069,9.6907 L86.5289,21.7727 C86.4429,22.1117 86.1379,22.3377 85.8029,22.3377" id="Fill-231" fill="#354546" mask="url(#mask-4)"></path>
                <path d="M85.8019,21.5872 C87.0959,21.6352 88.1049,23.0232 88.0439,24.6722 L87.6689,34.8062 C87.6089,36.4552 86.4999,37.7642 85.2059,37.7172 C83.9119,37.6692 82.8539,37.6302 82.8539,37.6302 L83.4499,21.5002 C83.4499,21.5002 84.5079,21.5392 85.8019,21.5872" id="Fill-232" fill="#A5B5B6" mask="url(#mask-4)"></path>
                <path d="M88.0441,24.6722 L87.8601,29.6312 L83.1561,29.4582 L83.4501,21.5002 C83.4501,21.5002 84.5081,21.5392 85.8021,21.5872 C87.0961,21.6352 88.1051,23.0232 88.0441,24.6722" id="Fill-233" fill="#C5D5D6" mask="url(#mask-4)"></path>
                <path d="M85.2726,38.4681 C85.2416,38.4681 85.2106,38.4681 85.1786,38.4661 L82.8266,38.3801 L82.8816,36.8801 L85.2336,36.9671 C85.6236,36.9851 86.0126,36.7851 86.3276,36.4131 C86.6806,35.9951 86.8966,35.4001 86.9196,34.7781 L87.2936,24.6441 C87.3176,24.0231 87.1456,23.4131 86.8246,22.9701 C86.5386,22.5761 86.1656,22.3511 85.7746,22.3371 L83.4216,22.2501 C83.0076,22.2351 82.6846,21.8861 82.7006,21.4721 C82.7156,21.0591 83.0646,20.7311 83.4776,20.7511 L85.8306,20.8381 C86.6776,20.8691 87.4826,21.3251 88.0376,22.0891 C88.5606,22.8081 88.8296,23.7351 88.7936,24.7001 L88.4186,34.8341 C88.3826,35.7981 88.0466,36.7031 87.4726,37.3821 C86.8856,38.0761 86.0876,38.4681 85.2726,38.4681" id="Fill-234" fill="#354546" mask="url(#mask-4)"></path>
                <polygon id="Fill-235" fill="#859596" mask="url(#mask-4)" points="78.3615 39.8636 82.7655 40.0266 83.4895 20.4256 79.0855 20.2626"></polygon>
                <polygon id="Fill-236" fill="#A5B5B6" mask="url(#mask-4)" points="78.671 31.4769 83.075 31.6399 83.489 20.4249 79.085 20.2629"></polygon>
                <path d="M79.1388,39.1414 L82.0438,39.2484 L82.7118,21.1464 L79.8068,21.0394 L79.1388,39.1414 Z M82.7658,40.7764 C82.7568,40.7764 82.7468,40.7754 82.7378,40.7754 L78.3328,40.6134 C78.1348,40.6054 77.9478,40.5194 77.8118,40.3734 C77.6758,40.2274 77.6048,40.0344 77.6118,39.8354 L78.3358,20.2344 C78.3428,20.0364 78.4288,19.8484 78.5758,19.7124 C78.7208,19.5774 78.9158,19.5074 79.1138,19.5134 L83.5178,19.6754 C83.9318,19.6904 84.2538,20.0384 84.2398,20.4534 L83.5148,40.0534 C83.4998,40.4584 83.1668,40.7764 82.7658,40.7764 L82.7658,40.7764 Z" id="Fill-237" fill="#354546" mask="url(#mask-4)"></path>
                <path d="M89.6573,30.5111 C89.6393,30.5111 89.6213,30.5111 89.6023,30.5101 L87.8063,30.3801 C87.3933,30.3501 87.0823,29.9911 87.1123,29.5781 C87.1413,29.1651 87.5023,28.8551 87.9143,28.8841 L89.7113,29.0131 C90.1243,29.0431 90.4343,29.4021 90.4043,29.8151 C90.3763,30.2101 90.0473,30.5111 89.6573,30.5111" id="Fill-238" fill="#354546" mask="url(#mask-4)"></path>
                <path d="M42.4572,44.6766 C41.4302,44.6766 38.8222,45.7906 37.7162,47.0516 C36.7772,48.1216 36.6272,49.9066 37.3882,50.9516 C37.6982,51.3786 38.1082,51.6146 38.5732,51.6366 C39.1042,51.6596 39.6612,51.3866 40.1022,50.8846 C40.6352,50.2776 41.5482,48.8976 42.1922,47.5356 C43.0242,45.7746 42.9922,44.9626 42.8592,44.7796 C42.8182,44.7236 42.6892,44.6856 42.5152,44.6776 C42.4962,44.6766 42.4772,44.6766 42.4572,44.6766 M38.6382,53.1376 C38.5942,53.1376 38.5492,53.1366 38.5052,53.1346 C37.5832,53.0936 36.7562,52.6316 36.1752,51.8346 C34.9922,50.2106 35.1742,47.6746 36.5892,46.0616 C37.6362,44.8686 40.6842,43.0966 42.5832,43.1796 C43.4092,43.2176 43.8492,43.5906 44.0712,43.8966 C44.6842,44.7366 44.5132,46.1366 43.5482,48.1766 C42.8382,49.6776 41.8452,51.1736 41.2292,51.8736 C40.5202,52.6826 39.5822,53.1376 38.6382,53.1376" id="Fill-239" fill="#19B5FE" mask="url(#mask-4)"></path>
                <path d="M75.3634,42.6341 L75.3654,42.6341 L75.3634,42.6341 Z M76.8854,42.8991 C76.4284,42.8991 76.0754,42.9741 75.9074,43.1511 C75.7824,43.2821 75.7894,43.5431 75.8164,43.7381 C75.9884,44.9761 77.3314,46.7281 78.0824,47.1731 C79.0424,47.7401 80.6024,47.4291 81.4914,46.4941 C81.9184,46.0461 82.1244,45.5191 82.0584,45.0501 C82.0074,44.6761 81.7864,44.3631 81.4214,44.1471 C80.3544,43.5171 78.1964,42.8991 76.8854,42.8991 L76.8854,42.8991 Z M79.2284,48.9601 C78.5484,48.9601 77.8844,48.7991 77.3184,48.4641 C76.1544,47.7761 74.5614,45.6061 74.3314,43.9451 C74.1984,42.9991 74.5234,42.4291 74.8194,42.1171 C76.4454,40.4061 81.1334,42.2341 82.1844,42.8561 C82.9454,43.3061 83.4284,44.0121 83.5454,44.8431 C83.6744,45.7671 83.3214,46.7461 82.5794,47.5281 C81.6964,48.4561 80.4334,48.9591 79.2284,48.9601 L79.2284,48.9601 Z" id="Fill-240" fill="#19B5FE" mask="url(#mask-4)"></path>
                <path d="M36.088,41.7396 C35.677,41.7396 35.323,41.7716 35.062,41.8356 C33.443,42.2336 32.366,44.0846 32.661,45.9616 C32.811,46.9126 33.302,47.7286 34.011,48.1996 C34.601,48.5936 35.303,48.7166 35.986,48.5486 C36.884,48.3286 38.602,47.5826 40.018,46.6336 C41.488,45.6476 42.306,44.6736 42.204,44.0266 C42.144,43.6426 41.742,43.3036 41.416,43.0866 C40.089,42.2036 37.664,41.7396 36.088,41.7396 M35.383,50.1226 C34.608,50.1226 33.849,49.8936 33.18,49.4486 C32.122,48.7456 31.394,47.5596 31.179,46.1946 C30.767,43.5666 32.348,40.9576 34.704,40.3786 C36.462,39.9466 40.289,40.5346 42.247,41.8386 C43.086,42.3956 43.569,43.0536 43.686,43.7946 C44.152,46.7606 38.276,49.5316 36.345,50.0056 C36.025,50.0846 35.702,50.1226 35.383,50.1226" id="Fill-241" fill="#719911" mask="url(#mask-4)"></path>
                <path d="M78.0099,47.3104 C77.8579,51.4324 74.3589,54.7914 70.2339,54.7744 L48.6139,54.6844 C44.4889,54.6674 41.3759,51.2884 41.6969,47.1764 L44.0849,13.3294 C44.4059,9.2174 48.0309,6.1364 52.1419,6.4834 L71.9099,8.1544 C76.0209,8.5014 79.2589,12.1584 79.1069,16.2804 L78.0099,47.3104 Z" id="Fill-242" fill="#A5B5B6" mask="url(#mask-4)"></path>
                <path d="M74.5851,41.0164 C74.4731,44.0474 71.6691,46.5094 68.3561,46.4864 L50.9841,46.3664 C47.6701,46.3434 45.1611,43.8504 45.4081,40.8264 L47.2451,16.9304 C47.4921,13.9064 50.3981,11.6494 53.7011,11.9154 L69.5891,13.1944 C72.8921,13.4594 75.5031,16.1574 75.3911,19.1894 L74.5851,41.0164 Z" id="Fill-243" fill="#C5D5D6" mask="url(#mask-4)"></path>
                <path d="M71.8068,51.4354 L48.3138,51.2764 C45.3978,51.2564 42.9448,49.8154 41.6768,47.6794 C41.6368,51.5604 44.6588,54.6674 48.6138,54.6844 L70.2338,54.7744 C73.6928,54.7884 76.7108,52.4284 77.6848,49.2354 C76.1538,50.6054 74.0688,51.4514 71.8068,51.4354" id="Fill-244" fill="#859596" mask="url(#mask-4)"></path>
                <path d="M71.8683,52.1854 L71.8023,52.1854 L48.3073,52.0264 C45.2133,52.0054 42.4923,50.5234 41.0323,48.0614 C40.8203,47.7064 40.9373,47.2464 41.2943,47.0344 C41.6503,46.8234 42.1103,46.9404 42.3223,47.2964 C43.5123,49.3014 45.7533,50.5094 48.3183,50.5264 L71.8113,50.6854 C73.8193,50.6964 75.7223,49.9854 77.1843,48.6764 C77.4933,48.4004 77.9683,48.4264 78.2443,48.7354 C78.5203,49.0434 78.4943,49.5184 78.1853,49.7944 C76.4603,51.3374 74.2193,52.1854 71.8683,52.1854" id="Fill-245" fill="#354546" mask="url(#mask-4)"></path>
                <path d="M78.0099,47.3104 L78.0119,47.3104 L78.0099,47.3104 Z M51.5059,7.2064 C49.9219,7.2064 48.4039,7.7644 47.1779,8.8054 C45.8049,9.9724 44.9719,11.5994 44.8319,13.3874 L42.4459,47.2284 C42.3059,49.0134 42.8719,50.6904 44.0399,51.9574 C45.2069,53.2254 46.8319,53.9264 48.6169,53.9344 L70.2369,54.0244 L70.2649,54.0244 C73.9889,54.0244 77.1229,51.0064 77.2609,47.2824 L78.3569,16.2544 C78.4949,12.5144 75.5739,9.2164 71.8469,8.9014 L52.0779,7.2304 C51.8869,7.2144 51.6959,7.2064 51.5059,7.2064 L51.5059,7.2064 Z M70.2649,55.5244 L70.2299,55.5244 L48.6109,55.4344 C46.4049,55.4254 44.3899,54.5514 42.9369,52.9744 C41.4839,51.3964 40.7779,49.3164 40.9489,47.1174 L43.3369,13.2764 C43.5079,11.0814 44.5269,9.0894 46.2059,7.6624 C47.8859,6.2354 50.0169,5.5524 52.2039,5.7364 L71.9729,7.4074 C76.4879,7.7884 80.0239,11.7814 79.8569,16.3084 L78.7599,47.3364 L78.7599,47.3384 C78.5929,51.8594 74.7849,55.5244 70.2649,55.5244 L70.2649,55.5244 Z" id="Fill-246" fill="#354546" mask="url(#mask-4)"></path>
                <path d="M61.4835,16.2962 C57.3765,16.2962 52.4795,15.0342 52.4795,9.0242 C52.4795,8.0812 52.6005,7.4552 52.8405,6.5622 C52.9485,6.1622 53.3595,5.9252 53.7595,6.0322 C54.1605,6.1402 54.3975,6.5512 54.2905,6.9512 C54.0755,7.7502 53.9795,8.2392 53.9795,9.0242 C53.9795,10.4522 53.9795,14.7962 61.4835,14.7962 C69.0195,14.7962 69.0195,10.4522 69.0195,9.0242 C69.0195,8.7062 69.0045,8.3862 68.9705,8.0722 C68.9285,7.6602 69.2285,7.2922 69.6405,7.2492 C70.0535,7.2082 70.4215,7.5062 70.4625,7.9182 C70.5015,8.2832 70.5195,8.6552 70.5195,9.0242 C70.5195,12.3412 68.9525,16.2962 61.4835,16.2962" id="Fill-247" fill="#354546" mask="url(#mask-4)"></path>
                <path d="M56.7013,25.9432 C56.5353,30.4132 52.7773,33.9032 48.3073,33.7382 C43.8373,33.5732 40.3473,29.8152 40.5123,25.3452 C40.6773,20.8742 44.4343,17.3842 48.9053,17.5492 C53.3763,17.7142 56.8663,21.4722 56.7013,25.9432" id="Fill-248" fill="#C5D5D6" mask="url(#mask-4)"></path>
                <path d="M48.5997,18.2938 C46.7397,18.2938 44.9747,18.9858 43.6047,20.2588 C42.1657,21.5948 41.3337,23.4108 41.2617,25.3728 C41.1887,27.3348 41.8847,29.2078 43.2207,30.6458 C44.5567,32.0848 46.3727,32.9168 48.3347,32.9888 C50.2987,33.0628 52.1697,32.3658 53.6087,31.0298 C55.0467,29.6938 55.8787,27.8768 55.9517,25.9158 C56.0237,23.9538 55.3287,22.0808 53.9927,20.6428 C52.6567,19.2038 50.8397,18.3718 48.8777,18.2988 C48.7857,18.2958 48.6917,18.2938 48.5997,18.2938 M48.6147,34.4938 C48.5027,34.4938 48.3917,34.4918 48.2797,34.4878 C45.9167,34.4008 43.7307,33.3988 42.1207,31.6668 C40.5127,29.9348 39.6747,27.6798 39.7627,25.3168 C39.8497,22.9548 40.8517,20.7678 42.5837,19.1598 C44.3157,17.5508 46.5707,16.7118 48.9327,16.7998 C51.2947,16.8878 53.4827,17.8898 55.0907,19.6218 C56.6997,21.3538 57.5377,23.6078 57.4507,25.9708 L56.7017,25.9428 L57.4507,25.9708 C57.3637,28.3338 56.3617,30.5198 54.6287,32.1288 C52.9787,33.6608 50.8547,34.4938 48.6147,34.4938" id="Fill-249" fill="#354546" mask="url(#mask-4)"></path>
                <path d="M53.8253,25.8368 C53.7193,28.7198 51.2963,30.9698 48.4133,30.8628 C45.5313,30.7568 43.2803,28.3338 43.3873,25.4508 C43.4933,22.5688 45.9173,20.3178 48.7993,20.4248 C51.6813,20.5318 53.9313,22.9548 53.8253,25.8368" id="Fill-250" fill="#9ABD45" mask="url(#mask-4)"></path>
                <path d="M51.9073,24.2352 C51.8413,26.0272 50.3353,27.4252 48.5433,27.3592 C46.7513,27.2932 45.3523,25.7872 45.4193,23.9952 C45.4843,22.2032 46.9913,20.8052 48.7823,20.8712 C50.5743,20.9372 51.9733,22.4432 51.9073,24.2352" id="Fill-251" fill="#CEEC87" mask="url(#mask-4)"></path>
                <path d="M48.6027,21.1712 C47.4697,21.1712 46.3967,21.5922 45.5627,22.3672 C44.6877,23.1802 44.1807,24.2852 44.1367,25.4792 C44.0927,26.6722 44.5157,27.8122 45.3297,28.6882 C46.1417,29.5632 47.2477,30.0692 48.4417,30.1132 C49.6347,30.1592 50.7747,29.7342 51.6507,28.9212 C52.5257,28.1082 53.0327,27.0032 53.0767,25.8092 C53.1207,24.6152 52.6967,23.4762 51.8837,22.6002 C51.0707,21.7252 49.9647,21.2182 48.7717,21.1742 C48.7147,21.1722 48.6587,21.1712 48.6027,21.1712 M48.6097,31.6172 C48.5357,31.6172 48.4607,31.6152 48.3857,31.6132 C46.7907,31.5532 45.3157,30.8782 44.2297,29.7092 C43.1447,28.5392 42.5797,27.0182 42.6377,25.4232 C42.7587,22.1322 45.5337,19.5612 48.8277,19.6752 C50.4207,19.7342 51.8977,20.4102 52.9827,21.5792 C54.0687,22.7482 54.6337,24.2702 54.5757,25.8642 C54.4567,29.0812 51.8017,31.6172 48.6097,31.6172" id="Fill-252" fill="#354546" mask="url(#mask-4)"></path>
                <path d="M49.9523,22.1698 C50.2843,22.9118 49.2473,23.5448 47.8893,24.1528 C46.5313,24.7608 45.3673,25.1118 45.0353,24.3698 C44.7033,23.6278 45.5353,22.5348 46.8923,21.9268 C48.2503,21.3188 49.6203,21.4278 49.9523,22.1698" id="Fill-253" fill="#FFFFFF" mask="url(#mask-4)"></path>
                <path d="M49.0157,29.3499 C48.9287,29.1579 49.1987,28.9929 49.5507,28.8349 C49.9037,28.6779 50.2047,28.5859 50.2907,28.7789 C50.3777,28.9719 50.1617,29.2549 49.8097,29.4129 C49.4567,29.5709 49.1017,29.5429 49.0157,29.3499" id="Fill-254" fill="#FFFFFF" mask="url(#mask-4)"></path>
                <path d="M48.7208,27.4071 C48.6958,28.0881 48.1228,28.6191 47.4438,28.5941 C46.7628,28.5691 46.2318,27.9961 46.2558,27.3161 C46.2818,26.6361 46.8538,26.1041 47.5338,26.1301 C48.2148,26.1551 48.7458,26.7271 48.7208,27.4071" id="Fill-255" fill="#354546" mask="url(#mask-4)"></path>
                <path d="M79.5392,27.2904 C79.3992,31.0784 76.2152,32.3864 72.4272,32.2464 C68.6392,32.1064 65.6812,30.5724 65.8202,26.7834 C65.9612,22.9954 69.1452,20.0384 72.9342,20.1774 C76.7222,20.3174 79.6792,23.5024 79.5392,27.2904" id="Fill-256" fill="#C5D5D6" mask="url(#mask-4)"></path>
                <path d="M72.674,20.9232 C71.127,20.9232 69.659,21.4982 68.52,22.5572 C67.322,23.6682 66.631,25.1792 66.57,26.8112 C66.514,28.3522 67.012,29.4862 68.094,30.2772 C69.09,31.0062 70.598,31.4282 72.454,31.4972 C77.555,31.6882 78.715,29.2982 78.79,27.2622 C78.85,25.6312 78.272,24.0732 77.16,22.8762 C76.049,21.6802 74.537,20.9872 72.905,20.9272 C72.828,20.9242 72.751,20.9232 72.674,20.9232 M72.977,33.0062 C72.787,33.0062 72.595,33.0032 72.399,32.9962 C70.211,32.9152 68.464,32.4072 67.208,31.4882 C65.736,30.4112 64.997,28.7752 65.071,26.7562 C65.147,24.7232 66.009,22.8422 67.498,21.4582 C68.989,20.0742 70.929,19.3532 72.961,19.4282 C74.993,19.5032 76.875,20.3652 78.259,21.8552 C79.643,23.3452 80.363,25.2862 80.289,27.3182 C80.154,30.9542 77.499,33.0062 72.977,33.0062" id="Fill-257" fill="#354546" mask="url(#mask-4)"></path>
                <path d="M77.1027,27.2005 C77.0127,29.6425 74.9587,29.9005 72.5167,29.8095 C70.0747,29.7195 68.1667,29.3165 68.2567,26.8735 C68.3477,24.4305 70.4007,22.5245 72.8437,22.6145 C75.2867,22.7045 77.1937,24.7575 77.1027,27.2005" id="Fill-258" fill="#19B5FE" mask="url(#mask-4)"></path>
                <path d="M75.4288,25.6678 C75.3728,27.1858 74.1988,27.7498 72.6798,27.6938 C71.1608,27.6378 69.8748,26.9828 69.9308,25.4648 C69.9878,23.9458 71.2628,22.7608 72.7818,22.8168 C74.2998,22.8728 75.4858,24.1488 75.4288,25.6678" id="Fill-259" fill="#39D5FF" mask="url(#mask-4)"></path>
                <path d="M72.6779,23.3612 C70.7129,23.3612 69.0799,24.9222 69.0069,26.9012 C68.9669,27.9692 69.3829,28.3412 69.7939,28.5642 C70.4829,28.9372 71.5709,29.0242 72.5439,29.0602 C75.6849,29.1772 76.3049,28.4862 76.3539,27.1732 C76.4279,25.1472 74.8409,23.4392 72.8159,23.3642 C72.7699,23.3622 72.7239,23.3612 72.6779,23.3612 M73.3559,30.5792 C73.0369,30.5792 72.7419,30.5692 72.4899,30.5592 C70.8299,30.4982 67.3779,30.3702 67.5079,26.8462 C67.6139,23.9942 70.0189,21.7632 72.8709,21.8642 C75.7229,21.9702 77.9569,24.3762 77.8529,27.2282 C77.7409,30.2262 75.1669,30.5792 73.3559,30.5792" id="Fill-260" fill="#354546" mask="url(#mask-4)"></path>
                <path d="M73.8204,24.0926 C74.1014,24.7216 73.2224,25.2586 72.0724,25.7736 C70.9224,26.2886 69.9354,26.5866 69.6534,25.9576 C69.3724,25.3286 70.0774,24.4026 71.2274,23.8866 C72.3784,23.3716 73.5394,23.4646 73.8204,24.0926" id="Fill-261" fill="#FFFFFF" mask="url(#mask-4)"></path>
                <path d="M74.1378,28.5872 C74.0648,28.4242 74.2928,28.2852 74.5908,28.1512 C74.8898,28.0172 75.1458,27.9402 75.2188,28.1032 C75.2918,28.2662 75.1098,28.5072 74.8108,28.6412 C74.5118,28.7742 74.2108,28.7502 74.1378,28.5872" id="Fill-262" fill="#FFFFFF" mask="url(#mask-4)"></path>
                <path d="M70.9738,27.8475 C70.9528,28.4235 70.4668,28.8735 69.8908,28.8525 C69.3138,28.8315 68.8638,28.3475 68.8848,27.7695 C68.9068,27.1935 69.3908,26.7435 69.9678,26.7645 C70.5438,26.7855 70.9948,27.2705 70.9738,27.8475" id="Fill-263" fill="#354546" mask="url(#mask-4)"></path>
                <path d="M48.7423,40.6385 L71.4873,35.5565 C71.4873,35.5565 72.7663,42.5625 67.2343,44.6075 C57.4933,48.2085 48.7423,40.6385 48.7423,40.6385" id="Fill-264" fill="#FFFFFF" mask="url(#mask-4)"></path>
                <path d="M48.7423,40.6385 L48.7433,40.6385 L48.7423,40.6385 Z M50.4953,41.0145 C51.4483,41.6685 52.8933,42.5525 54.6703,43.3005 C58.9933,45.1205 63.1333,45.3235 66.9743,43.9045 C70.8273,42.4805 70.9583,38.2325 70.8363,36.4705 L50.4953,41.0145 Z M61.7863,46.3215 C59.2593,46.3215 56.6483,45.7675 54.0433,44.6635 C50.5683,43.1925 48.3453,41.2855 48.2523,41.2055 C48.0373,41.0205 47.9453,40.7295 48.0143,40.4555 C48.0843,40.1805 48.3023,39.9685 48.5783,39.9065 L71.3243,34.8245 C71.5233,34.7805 71.7323,34.8185 71.9023,34.9305 C72.0723,35.0435 72.1883,35.2215 72.2253,35.4215 C72.2393,35.4985 72.5653,37.3335 72.1733,39.4515 C71.6363,42.3525 70.0183,44.3785 67.4953,45.3105 C65.6713,45.9855 63.7543,46.3215 61.7863,46.3215 L61.7863,46.3215 Z" id="Fill-265" fill="#354546" mask="url(#mask-4)"></path>
                <path d="M55.1671,45.056 C54.7921,45.056 54.4681,44.775 54.4231,44.393 L53.8381,39.421 C53.7901,39.01 54.0841,38.637 54.4951,38.589 C54.9061,38.54 55.2791,38.834 55.3281,39.246 L55.9131,44.218 C55.9611,44.63 55.6671,45.002 55.2561,45.051 C55.2261,45.055 55.1961,45.056 55.1671,45.056" id="Fill-266" fill="#354546" mask="url(#mask-4)"></path>
                <path d="M60.6173,46.0653 C60.2153,46.0653 59.8833,45.7463 59.8683,45.3413 L59.6123,38.0683 C59.5983,37.6543 59.9223,37.3073 60.3363,37.2923 C60.7523,37.2813 61.0973,37.6023 61.1113,38.0153 L61.3673,45.2893 C61.3823,45.7033 61.0573,46.0503 60.6433,46.0653 L60.6173,46.0653" id="Fill-267" fill="#354546" mask="url(#mask-4)"></path>
                <path d="M66.1847,45.3573 C65.7747,45.3573 65.4397,45.0273 65.4347,44.6153 L65.3507,36.7683 C65.3467,36.3543 65.6787,36.0143 66.0927,36.0103 L66.1017,36.0103 C66.5117,36.0103 66.8467,36.3403 66.8507,36.7523 L66.9347,44.5993 C66.9397,45.0133 66.6077,45.3533 66.1927,45.3573 L66.1847,45.3573 Z" id="Fill-268" fill="#354546" mask="url(#mask-4)"></path>
                <path d="M36.9357,85.3031 C36.9357,86.9531 35.5897,88.1921 33.9457,88.0551 L21.9907,87.0651 C20.3457,86.9281 18.9997,85.5351 18.9997,83.9691 C18.9997,82.4021 20.3507,81.1201 21.9997,81.1201 L33.9357,81.1201 C35.5857,81.1201 36.9357,82.4701 36.9357,84.1201 L36.9357,85.3031 Z" id="Fill-269" fill="#758586" mask="url(#mask-4)"></path>
                <path d="M22.0001,81.8705 C20.7601,81.8705 19.7501,82.8115 19.7501,83.9695 C19.7501,85.1385 20.8041,86.2145 22.0521,86.3175 L34.0081,87.3075 C34.5921,87.3575 35.1401,87.1755 35.5501,86.7975 C35.9601,86.4195 36.1861,85.8895 36.1861,85.3035 L36.1861,84.1205 C36.1861,82.8795 35.1771,81.8705 33.9361,81.8705 L22.0001,81.8705 Z M34.1961,88.8155 C34.0931,88.8155 33.9881,88.8115 33.8841,88.8035 L21.9281,87.8125 C19.9001,87.6445 18.2501,85.9195 18.2501,83.9695 C18.2501,81.9845 19.9331,80.3705 22.0001,80.3705 L33.9361,80.3705 C36.0031,80.3705 37.6861,82.0525 37.6861,84.1205 L37.6861,85.3035 C37.6861,86.3135 37.2881,87.2355 36.5651,87.9015 C35.9181,88.4965 35.0861,88.8155 34.1961,88.8155 L34.1961,88.8155 Z" id="Fill-270" fill="#354546" mask="url(#mask-4)"></path>
                <path d="M53.0773,84.3592 L23.9343,84.3592 C23.5203,84.3592 23.1843,84.0232 23.1843,83.6092 C23.1843,83.1942 23.5203,82.8592 23.9343,82.8592 L53.0773,82.8592 C53.4913,82.8592 53.8273,83.1942 53.8273,83.6092 C53.8273,84.0232 53.4913,84.3592 53.0773,84.3592" id="Fill-271" fill="#121212" mask="url(#mask-4)"></path>
                <path d="M41.6661,80.6092 C41.9571,82.2592 40.8461,83.6092 39.1951,83.6092 L13.3121,83.6092 C11.6621,83.6092 10.0741,82.2592 9.7831,80.6092 L5.9301,58.7542 C5.6391,57.1042 6.7511,55.7542 8.4011,55.7542 L34.2841,55.7542 C35.9341,55.7542 37.5211,57.1042 37.8121,58.7542 L41.6661,80.6092 Z" id="Fill-272" fill="#5B5B5B" mask="url(#mask-4)"></path>
                <path d="M32.1163,55.7542 L8.4013,55.7542 C6.7513,55.7542 5.6383,57.1042 5.9293,58.7542 L8.0253,70.6352 L32.1163,55.7542 Z" id="Fill-273" fill="#6D6D6D" mask="url(#mask-4)"></path>
                <path d="M38.5734,63.0658 L37.8124,58.7538 C37.5214,57.1048 35.9334,55.7538 34.2844,55.7538 L34.0074,55.7538 L9.2974,77.8488 L9.5154,79.0918 L38.5734,63.0658 Z" id="Fill-274" fill="#6D6D6D" mask="url(#mask-4)"></path>
                <path d="M8.4015,56.5042 C7.8375,56.5042 7.3485,56.7162 7.0255,57.1012 C6.6925,57.4982 6.5655,58.0392 6.6695,58.6242 L10.5225,80.4792 C10.7505,81.7692 12.0275,82.8592 13.3125,82.8592 L39.1955,82.8592 C39.7585,82.8592 40.2485,82.6472 40.5705,82.2622 C40.9045,81.8642 41.0315,81.3232 40.9275,80.7392 L37.0745,58.8842 C36.8465,57.5942 35.5695,56.5042 34.2845,56.5042 L8.4015,56.5042 Z M39.1955,84.3592 L13.3125,84.3592 C11.3115,84.3592 9.3965,82.7352 9.0455,80.7392 L5.1915,58.8842 C5.0125,57.8702 5.2625,56.8692 5.8775,56.1372 C6.4895,55.4062 7.3855,55.0042 8.4015,55.0042 L34.2845,55.0042 C36.2855,55.0042 38.1995,56.6282 38.5515,58.6242 L42.4055,80.4792 C42.5845,81.4922 42.3345,82.4942 41.7195,83.2262 C41.1065,83.9572 40.2105,84.3592 39.1955,84.3592 L39.1955,84.3592 Z" id="Fill-275" fill="#121212" mask="url(#mask-4)"></path>
                <polygon id="Fill-276" fill="#E6E6E6" mask="url(#mask-4)" points="27.7267 73.0213 21.0477 73.0213 19.8707 66.3423 26.5487 66.3423"></polygon>
                <path d="M21.6769,72.2713 L26.8329,72.2713 L25.9199,67.0923 L20.7639,67.0923 L21.6769,72.2713 Z M27.7269,73.7713 L21.0479,73.7713 C20.6839,73.7713 20.3719,73.5103 20.3089,73.1513 L19.1309,66.4723 C19.0929,66.2533 19.1529,66.0293 19.2949,65.8593 C19.4379,65.6903 19.6489,65.5923 19.8699,65.5923 L26.5489,65.5923 C26.9129,65.5923 27.2249,65.8533 27.2869,66.2113 L28.4649,72.8913 C28.5039,73.1093 28.4439,73.3333 28.3009,73.5033 C28.1589,73.6733 27.9479,73.7713 27.7269,73.7713 L27.7269,73.7713 Z" id="Fill-277" fill="#929292" mask="url(#mask-4)"></path>
                <path d="M21.0763,50.057 C20.7113,50.057 20.3903,49.79 20.3353,49.418 L20.0973,47.835 C20.0363,47.426 20.3183,47.044 20.7273,46.982 C21.1373,46.921 21.5193,47.203 21.5813,47.613 L21.8183,49.196 C21.8803,49.605 21.5973,49.987 21.1883,50.049 C21.1503,50.054 21.1133,50.057 21.0763,50.057" id="Fill-278" fill="#242424" mask="url(#mask-4)"></path>
                <path d="M23.7482,42.2425 C24.3772,45.8895 22.9062,47.3675 20.8392,47.7235 C18.7722,48.0805 16.8922,47.1805 16.2632,43.5335 C15.6342,39.8865 17.2892,39.4765 19.3562,39.1205 C21.4232,38.7635 23.1192,38.5955 23.7482,42.2425" id="Fill-279" fill="#5B5B5B" mask="url(#mask-4)"></path>
                <path d="M20.9152,39.6932 C20.5002,39.6932 20.0202,39.7672 19.4832,39.8602 C17.5472,40.1932 16.4792,40.3772 17.0022,43.4052 C17.2632,44.9212 17.7592,45.9762 18.4762,46.5412 C19.0572,46.9992 19.7882,47.1442 20.7122,46.9852 C21.6362,46.8252 22.2752,46.4442 22.6702,45.8182 C23.1562,45.0452 23.2702,43.8852 23.0092,42.3702 C22.7682,40.9662 22.3602,40.1442 21.7652,39.8552 C21.5232,39.7382 21.2392,39.6932 20.9152,39.6932 M20.0262,48.5472 C19.0772,48.5472 18.2462,48.2702 17.5472,47.7182 C16.5302,46.9172 15.8502,45.5522 15.5232,43.6602 C14.7462,39.1542 17.3372,38.7072 19.2282,38.3812 C20.4132,38.1772 21.4712,38.0462 22.4192,38.5062 C23.4952,39.0272 24.1532,40.1752 24.4872,42.1152 C24.8132,44.0062 24.6292,45.5212 23.9392,46.6172 C23.3142,47.6102 22.3142,48.2312 20.9672,48.4632 C20.6422,48.5192 20.3282,48.5472 20.0262,48.5472" id="Fill-280" fill="#242424" mask="url(#mask-4)"></path>
                <path d="M27.4718,24.3348 C26.3708,17.9518 21.2588,15.9918 15.5388,16.9778 C9.8198,17.9638 5.6578,21.5218 6.7578,27.9058 C7.5078,32.2588 10.3188,35.6768 13.8428,37.0988 C13.8168,37.5788 13.8428,38.0728 13.9288,38.5708 C14.4798,41.7628 16.3358,41.3868 19.1968,40.8938 C22.0568,40.3998 24.8358,39.9778 24.2858,36.7858 C24.2008,36.2878 24.0598,35.8138 23.8738,35.3698 C26.7188,32.8498 28.2228,28.6878 27.4718,24.3348" id="Fill-281" fill="#F9BF3B" mask="url(#mask-4)"></path>
                <path d="M24.9601,19.1678 C22.6891,16.9368 19.2411,16.3398 15.5391,16.9778 C9.8191,17.9638 5.6571,21.5218 6.7581,27.9058 C6.9721,29.1468 7.3541,30.3118 7.8711,31.3758 C10.1151,32.6408 12.7921,33.1698 15.5281,32.6988 C21.8391,31.6108 26.0721,25.6128 24.9841,19.3028 C24.9771,19.2578 24.9681,19.2128 24.9601,19.1678" id="Fill-282" fill="#FFCF4B" mask="url(#mask-4)"></path>
                <path d="M19.6466,41.5658 C19.2886,41.5658 18.9706,41.3078 18.9086,40.9428 L17.1966,31.0138 L12.0926,27.9848 C11.7376,27.7738 11.6196,27.3128 11.8316,26.9568 C12.0426,26.6008 12.5026,26.4828 12.8586,26.6948 L18.2596,29.9008 C18.4486,30.0128 18.5796,30.2018 18.6166,30.4188 L20.3866,40.6888 C20.4576,41.0968 20.1826,41.4838 19.7746,41.5548 C19.7316,41.5618 19.6886,41.5658 19.6466,41.5658" id="Fill-283" fill="#F1892D" mask="url(#mask-4)"></path>
                <path d="M17.8761,31.2962 C17.7421,31.2962 17.6051,31.2592 17.4821,31.1842 C17.1311,30.9662 17.0221,30.5042 17.2381,30.1512 L21.7011,22.9232 C21.9191,22.5712 22.3811,22.4622 22.7331,22.6792 C23.0861,22.8972 23.1951,23.3592 22.9781,23.7112 L18.5151,30.9402 C18.3731,31.1692 18.1281,31.2962 17.8761,31.2962" id="Fill-284" fill="#F1892D" mask="url(#mask-4)"></path>
                <path d="M18.3575,17.471 C17.5415,17.471 16.6465,17.548 15.6665,17.717 C6.9855,19.214 7.0615,25.252 7.4975,27.778 C8.1765,31.724 10.7165,35.029 14.1245,36.404 C14.4215,36.524 14.6095,36.82 14.5915,37.141 C14.5675,37.572 14.5935,38.011 14.6685,38.444 C14.9215,39.917 15.4155,40.25 15.8635,40.382 C16.5625,40.587 17.6585,40.398 18.9255,40.179 L19.2115,40.13 C20.5695,39.896 21.8515,39.676 22.6845,39.179 C23.2465,38.844 23.7885,38.313 23.5465,36.913 C23.4725,36.48 23.3495,36.058 23.1825,35.66 C23.0575,35.364 23.1365,35.021 23.3775,34.808 C26.1275,32.372 27.4135,28.408 26.7325,24.462 C26.3465,22.221 24.7675,17.471 18.3575,17.471 M16.6005,41.97 C16.1875,41.97 15.8005,41.927 15.4405,41.821 C13.8245,41.346 13.3815,39.812 13.1895,38.699 C13.1265,38.33 13.0905,37.959 13.0845,37.589 C9.4405,35.915 6.7545,32.302 6.0185,28.033 C5.4645,24.818 6.1605,22.012 8.0315,19.918 C9.6945,18.057 12.2465,16.784 15.4115,16.239 C18.5765,15.694 21.4075,16.038 23.5975,17.235 C26.0615,18.581 27.6565,20.992 28.2115,24.207 C28.9475,28.476 27.6265,32.781 24.7535,35.577 C24.8705,35.928 24.9615,36.29 25.0255,36.658 C25.3235,38.387 24.7945,39.668 23.4535,40.468 C22.3795,41.106 20.9645,41.35 19.4665,41.608 L19.1815,41.657 C18.2355,41.821 17.3725,41.97 16.6005,41.97" id="Fill-285" fill="#F1892D" mask="url(#mask-4)"></path>
                <path d="M14.8419,44.5145 C14.4859,44.5145 14.1689,44.2595 14.1049,43.8955 C14.0319,43.4885 14.3039,43.0985 14.7119,43.0265 L24.9539,41.2045 C25.3629,41.1325 25.7519,41.4045 25.8239,41.8125 C25.8969,42.2205 25.6249,42.6095 25.2169,42.6815 L14.9749,44.5025 C14.9299,44.5105 14.8859,44.5145 14.8419,44.5145" id="Fill-286" fill="#242424" mask="url(#mask-4)"></path>
                <path d="M15.8292,46.9144 C15.4682,46.9144 15.1492,46.6534 15.0902,46.2854 C15.0222,45.8764 15.3002,45.4914 15.7092,45.4244 L25.4192,43.8384 C25.8292,43.7704 26.2142,44.0484 26.2802,44.4574 C26.3472,44.8664 26.0692,45.2514 25.6612,45.3184 L15.9512,46.9044 C15.9102,46.9114 15.8692,46.9144 15.8292,46.9144" id="Fill-287" fill="#242424" mask="url(#mask-4)"></path>
                <path d="M13.9728,20.096 C14.3418,20.634 13.6008,21.167 12.4578,21.95 C11.3158,22.734 10.2038,23.471 9.8348,22.933 C9.4658,22.395 10.0928,21.324 11.2358,20.54 C12.3778,19.756 13.6038,19.557 13.9728,20.096" id="Fill-288" fill="#FFFFFF" mask="url(#mask-4)"></path>
                <path d="M18.0958,19.2044 C18.1558,19.5694 17.5848,19.7484 16.8098,19.8764 C16.0328,20.0034 15.3468,20.0304 15.2868,19.6644 C15.2268,19.2994 15.8068,18.9004 16.5828,18.7724 C17.3588,18.6454 18.0358,18.8394 18.0958,19.2044" id="Fill-289" fill="#FFFFFF" mask="url(#mask-4)"></path>
                <path d="M3.2628,25.5702 C3.2438,25.5702 3.2258,25.5702 3.2058,25.5682 L0.6948,25.3812 C0.2818,25.3502 -0.0282,24.9902 0.0018,24.5772 C0.0338,24.1642 0.3928,23.8532 0.8058,23.8852 L3.3178,24.0722 C3.7308,24.1032 4.0408,24.4632 4.0098,24.8762 C3.9808,25.2702 3.6518,25.5702 3.2628,25.5702" id="Fill-290" fill="#F1892D" mask="url(#mask-4)"></path>
                <path d="M14.0568,14.2049 C13.6978,14.2049 13.3798,13.9469 13.3178,13.5799 L12.4148,8.2729 C12.3458,7.8649 12.6198,7.4779 13.0288,7.4079 C13.4378,7.3389 13.8248,7.6139 13.8938,8.0219 L14.7968,13.3299 C14.8668,13.7379 14.5908,14.1249 14.1828,14.1939 C14.1408,14.2019 14.0978,14.2049 14.0568,14.2049" id="Fill-291" fill="#F1892D" mask="url(#mask-4)"></path>
                <path d="M28.5509,19.139 C28.3349,19.139 28.1199,19.046 27.9719,18.865 C27.7079,18.545 27.7539,18.073 28.0739,17.81 L31.2359,15.209 C31.5559,14.946 32.0289,14.993 32.2909,15.312 C32.5549,15.632 32.5089,16.105 32.1889,16.368 L29.0279,18.968 C28.8879,19.083 28.7189,19.139 28.5509,19.139" id="Fill-292" fill="#F1892D" mask="url(#mask-4)"></path>
                <path d="M13.6068,28.7596 C13.5888,28.7596 13.5708,28.7586 13.5518,28.7576 C13.1398,28.7276 12.8288,28.3716 12.8578,27.9596 C12.8668,27.8276 13.1068,24.7346 15.6558,23.6656 C16.2958,23.3966 16.8148,23.3756 17.2408,23.6026 C17.7698,23.8836 17.9248,24.4196 18.0118,24.8276 C18.4618,24.4996 18.8848,24.0476 19.2608,23.6456 C19.9528,22.9056 20.5518,22.2666 21.3128,22.5296 C22.0278,22.7756 22.1998,23.6506 22.2798,24.5596 C22.3158,24.9716 22.0108,25.3356 21.5978,25.3716 C21.1848,25.4096 20.8218,25.1026 20.7848,24.6906 C20.7708,24.5216 20.7538,24.3836 20.7378,24.2706 C20.6098,24.3996 20.4728,24.5456 20.3558,24.6706 C19.9268,25.1286 19.3938,25.6986 18.7798,26.1226 C18.4178,26.3716 17.8738,26.6776 17.3258,26.4566 C16.7618,26.2276 16.6458,25.6436 16.5688,25.2586 C16.5518,25.1736 16.5278,25.0486 16.5008,24.9596 C16.4438,24.9726 16.3568,24.9976 16.2358,25.0486 C14.5458,25.7566 14.3558,28.0406 14.3538,28.0636 C14.3248,28.4576 13.9948,28.7596 13.6068,28.7596 L13.6068,28.7596 Z" id="Fill-293" fill="#F1892D" mask="url(#mask-4)"></path>
            </g>
        </g>
    </g>
</svg>