<?xml version="1.0" encoding="UTF-8"?>
<svg width="76px" height="123px" viewBox="0 0 76 123" version="1.1" xmlns="http://www.w3.org/2000/svg" xmlns:xlink="http://www.w3.org/1999/xlink">
    <!-- Generator: Sketch 42 (36781) - http://www.bohemiancoding.com/sketch -->
    <title>23</title>
    <desc>Created with Sketch.</desc>
    <defs>
        <polygon id="path-1" points="0 122.641 75.84 122.641 75.84 0 0 0"></polygon>
    </defs>
    <g id="Page-1" stroke="none" stroke-width="1" fill="none" fill-rule="evenodd">
        <g id="1024" transform="translate(-600.000000, 0.000000)">
            <g id="23" transform="translate(600.000000, 0.000000)">
                <path d="M69.7626,118.8298 C69.7626,120.9348 55.6006,122.6408 38.1296,122.6408 C20.6586,122.6408 6.4966,120.9348 6.4966,118.8298 C6.4966,116.7248 20.6586,115.0188 38.1296,115.0188 C55.6006,115.0188 69.7626,116.7248 69.7626,118.8298 Z" id="Fill-1" fill="#CCCCCC"></path>
                <mask id="mask-2" fill="white">
                    <use xlink:href="#path-1"></use>
                </mask>
                <g id="Clip-4"></g>
                <polygon id="Fill-3" fill="#758586" mask="url(#mask-2)" points="29.747 88.155 45.866 88.155 45.866 76.549 29.747 76.549"></polygon>
                <path d="M30.497,87.404 L45.116,87.404 L45.116,77.298 L30.497,77.298 L30.497,87.404 Z M45.866,88.904 L29.747,88.904 C29.333,88.904 28.997,88.569 28.997,88.154 L28.997,76.548 C28.997,76.134 29.333,75.798 29.747,75.798 L45.866,75.798 C46.28,75.798 46.616,76.134 46.616,76.548 L46.616,88.154 C46.616,88.569 46.28,88.904 45.866,88.904 L45.866,88.904 Z" id="Fill-5" fill="#354546" mask="url(#mask-2)"></path>
                <polygon id="Fill-6" fill="#758586" mask="url(#mask-2)" points="33.407 61.998 42.75 61.998 42.75 53.495 33.407 53.495"></polygon>
                <path d="M34.157,61.248 L42,61.248 L42,54.245 L34.157,54.245 L34.157,61.248 Z M42.75,62.748 L33.407,62.748 C32.993,62.748 32.657,62.412 32.657,61.998 L32.657,53.495 C32.657,53.081 32.993,52.745 33.407,52.745 L42.75,52.745 C43.164,52.745 43.5,53.081 43.5,53.495 L43.5,61.998 C43.5,62.412 43.164,62.748 42.75,62.748 L42.75,62.748 Z" id="Fill-7" fill="#354546" mask="url(#mask-2)"></path>
                <path d="M42.7509,58.9978 C42.7369,58.9978 42.7239,58.9978 42.7099,58.9968 L33.3669,58.4958 C32.9539,58.4728 32.6359,58.1198 32.6589,57.7058 C32.6809,57.2928 33.0339,56.9758 33.4479,56.9978 L42.7899,57.4988 C43.2039,57.5208 43.5209,57.8748 43.4989,58.2888 C43.4779,58.6878 43.1469,58.9978 42.7509,58.9978" id="Fill-8" fill="#354546" mask="url(#mask-2)"></path>
                <path d="M45.702,76.0925 C45.618,76.2085 45.549,76.9035 46.314,78.5235 C46.896,79.7535 47.721,80.9995 48.201,81.5475 C48.587,81.9865 49.072,82.2295 49.534,82.2055 C49.933,82.1875 50.287,81.9825 50.556,81.6125 C51.229,80.6895 51.095,79.1075 50.263,78.1585 C49.542,77.3375 47.14,75.9785 45.963,76.0285 C45.782,76.0365 45.713,76.0785 45.702,76.0925 M49.478,83.7065 C48.6,83.7065 47.73,83.2845 47.074,82.5365 C46.534,81.9215 43.092,77.1285 44.49,75.2095 C44.701,74.9185 45.117,74.5655 45.894,74.5305 C47.641,74.4475 50.431,76.0765 51.39,77.1695 C52.695,78.6565 52.861,80.9965 51.769,82.4955 C51.229,83.2365 50.46,83.6655 49.601,83.7045 C49.56,83.7065 49.519,83.7065 49.478,83.7065" id="Fill-9" fill="#19B5FE" mask="url(#mask-2)"></path>
                <path d="M51.786,73.3606 C50.37,73.3606 48.189,73.7776 46.994,74.5726 C46.71,74.7616 46.36,75.0556 46.309,75.3796 C46.242,75.8106 46.72,76.6416 48.265,77.6766 C49.543,78.5336 51.093,79.2066 51.901,79.4056 C52.502,79.5536 53.12,79.4436 53.64,79.0986 C54.266,78.6816 54.702,77.9576 54.835,77.1136 C55.097,75.4436 54.142,73.7986 52.708,73.4466 C52.473,73.3886 52.155,73.3606 51.786,73.3606 M52.432,80.9706 C52.137,80.9706 51.839,80.9346 51.543,80.8616 C49.776,80.4276 44.397,77.8826 44.828,75.1466 C44.936,74.4546 45.386,73.8416 46.164,73.3236 C47.955,72.1316 51.456,71.5936 53.065,71.9896 C55.238,72.5236 56.696,74.9266 56.316,77.3456 C56.119,78.6046 55.446,79.6986 54.471,80.3476 C53.851,80.7586 53.149,80.9706 52.432,80.9706" id="Fill-10" fill="#C72C1C" mask="url(#mask-2)"></path>
                <path d="M41.3719,60.6238 C39.7279,60.4798 37.0349,60.4338 35.3879,60.5198 L26.3169,60.9938 C24.6689,61.0798 23.2969,62.4998 23.2679,64.1498 L23.1179,72.7728 C23.0889,74.4228 24.3679,76.1278 25.9599,76.5618 L35.1489,79.0688 C36.7409,79.5038 39.3569,79.5488 40.9629,79.1708 L50.2339,76.9858 C51.8399,76.6068 53.1779,74.9478 53.2059,73.2978 L53.3559,64.6748 C53.3859,63.0248 52.0639,61.5578 50.4209,61.4148 L41.3719,60.6238 Z" id="Fill-11" fill="#A5B5B6" mask="url(#mask-2)"></path>
                <path d="M50.2762,74.5857 L41.0052,76.7717 C39.3992,77.1497 36.7822,77.1047 35.1912,76.6697 L26.0022,74.1627 C24.4102,73.7277 23.1312,72.0227 23.1602,70.3737 L23.1182,72.7727 C23.0892,74.4227 24.3682,76.1277 25.9602,76.5617 L35.1492,79.0687 C36.7402,79.5037 39.3572,79.5487 40.9632,79.1707 L50.2342,76.9857 C51.8392,76.6067 53.1772,74.9477 53.2062,73.2977 L53.2482,70.8977 C53.2192,72.5477 51.8812,74.2077 50.2762,74.5857" id="Fill-12" fill="#859596" mask="url(#mask-2)"></path>
                <path d="M37.3524,61.2258 C36.6464,61.2258 35.9774,61.2398 35.4264,61.2678 L26.3554,61.7428 C25.1104,61.8078 24.0394,62.9158 24.0184,64.1628 L23.8684,72.7858 C23.8454,74.0958 24.8934,75.4938 26.1574,75.8388 L35.3464,78.3458 C36.8154,78.7468 39.3094,78.7898 40.7904,78.4408 L50.0624,76.2558 C51.3364,75.9548 52.4334,74.5948 52.4564,73.2848 L52.6074,64.6618 C52.6284,63.4148 51.5974,62.2698 50.3554,62.1618 L41.3064,61.3718 C40.2374,61.2778 38.7244,61.2258 37.3524,61.2258 M38.3314,80.1798 C37.1224,80.1798 35.8904,80.0488 34.9514,79.7928 L25.7624,77.2858 C23.8244,76.7568 22.3334,74.7688 22.3684,72.7598 L22.5184,64.1368 C22.5544,62.0978 24.2404,60.3508 26.2774,60.2448 L35.3484,59.7708 C37.0294,59.6828 39.7604,59.7298 41.4374,59.8768 L50.4864,60.6668 C52.5174,60.8448 54.1424,62.6478 54.1064,64.6878 L53.9564,73.3108 C53.9204,75.3198 52.3624,77.2548 50.4064,77.7158 L41.1354,79.9008 C40.3414,80.0878 39.3444,80.1798 38.3314,80.1798" id="Fill-13" fill="#354546" mask="url(#mask-2)"></path>
                <polygon id="Fill-14" fill="#556566" mask="url(#mask-2)" points="41.2645 73.7019 28.1885 73.4729 28.3495 64.2749 41.4255 64.5029"></polygon>
                <path d="M36.8495,71.7634 C36.5925,71.7634 36.3505,71.6314 36.2135,71.4094 L35.1755,69.7444 L33.5585,69.7164 C33.3075,69.7124 33.0745,69.5824 32.9395,69.3694 L32.8715,69.2644 L32.4345,70.2814 C32.3375,70.5084 32.1345,70.6724 31.8925,70.7214 C31.6505,70.7694 31.4005,70.6954 31.2235,70.5224 L30.3365,69.6604 L28.2565,69.6244 C27.8425,69.6174 27.5125,69.2754 27.5195,68.8614 C27.5265,68.4474 27.8725,68.1114 28.2825,68.1244 L30.6605,68.1654 C30.8505,68.1694 31.0335,68.2454 31.1695,68.3784 L31.4875,68.6874 L32.0535,67.3704 C32.1625,67.1154 32.4045,66.9414 32.6815,66.9194 C32.9575,66.8974 33.2245,67.0294 33.3745,67.2634 L33.9875,68.2234 L35.6095,68.2524 C35.8635,68.2564 36.0985,68.3894 36.2325,68.6054 L36.6275,69.2384 L37.4395,66.6844 C37.5375,66.3774 37.8225,66.1664 38.1455,66.1624 C38.4695,66.1584 38.7575,66.3624 38.8635,66.6674 L39.4335,68.3194 L41.3585,68.3524 C41.7725,68.3594 42.1025,68.7014 42.0945,69.1154 C42.0875,69.5254 41.7535,69.8524 41.3455,69.8524 L41.3315,69.8524 L38.8825,69.8094 C38.5675,69.8044 38.2895,69.6024 38.1865,69.3044 L38.1835,69.2944 L37.5645,71.2404 C37.4755,71.5194 37.2325,71.7214 36.9425,71.7574 C36.9115,71.7614 36.8805,71.7634 36.8495,71.7634" id="Fill-15" fill="#D5E5E6" mask="url(#mask-2)"></path>
                <path d="M28.952,72.7366 L40.528,72.9386 L40.663,65.2396 L29.086,65.0386 L28.952,72.7366 Z M41.265,74.4516 L41.252,74.4516 L28.176,74.2236 C27.762,74.2156 27.432,73.8746 27.439,73.4606 L27.6,64.2616 C27.607,63.8476 27.947,63.5126 28.363,63.5256 L41.438,63.7536 C41.638,63.7566 41.827,63.8396 41.965,63.9826 C42.103,64.1256 42.179,64.3176 42.176,64.5166 L42.015,73.7146 C42.012,73.9136 41.93,74.1036 41.786,74.2416 C41.646,74.3766 41.459,74.4516 41.265,74.4516 L41.265,74.4516 Z" id="Fill-16" fill="#354546" mask="url(#mask-2)"></path>
                <path d="M48.243,66.3972 C48.226,67.3772 47.418,68.1582 46.437,68.1412 C45.458,68.1242 44.677,67.3152 44.694,66.3352 C44.711,65.3552 45.519,64.5742 46.5,64.5912 C47.479,64.6082 48.261,65.4172 48.243,66.3972" id="Fill-17" fill="#F85C4C" mask="url(#mask-2)"></path>
                <path d="M46.4686,65.3411 C45.9116,65.3411 45.4536,65.7901 45.4446,66.3491 C45.4396,66.6221 45.5406,66.8821 45.7316,67.0781 C45.9216,67.2761 46.1766,67.3861 46.4506,67.3911 C46.7246,67.3931 46.9846,67.2941 47.1806,67.1041 C47.3776,66.9131 47.4896,66.6581 47.4936,66.3841 L47.4936,66.3841 C47.5036,65.8191 47.0516,65.3511 46.4866,65.3411 L46.4686,65.3411 M46.4696,68.8911 L46.4246,68.8911 C45.7496,68.8791 45.1206,68.6061 44.6526,68.1201 C44.1836,67.6351 43.9326,66.9971 43.9446,66.3221 C43.9686,64.9301 45.1156,63.8161 46.5126,63.8421 C47.9056,63.8661 49.0176,65.0181 48.9926,66.4101 C48.9816,67.0851 48.7076,67.7141 48.2226,68.1831 C47.7486,68.6411 47.1276,68.8911 46.4696,68.8911" id="Fill-18" fill="#C72C1C" mask="url(#mask-2)"></path>
                <path d="M48.1454,72.0466 C48.1274,73.0266 47.3194,73.8076 46.3394,73.7906 C45.3594,73.7736 44.5784,72.9646 44.5954,71.9846 C44.6124,71.0046 45.4204,70.2236 46.4014,70.2406 C47.3814,70.2576 48.1624,71.0666 48.1454,72.0466" id="Fill-19" fill="#B9D96D" mask="url(#mask-2)"></path>
                <path d="M46.37,70.9905 C45.813,70.9905 45.355,71.4385 45.346,71.9975 C45.341,72.2715 45.442,72.5305 45.633,72.7275 C45.823,72.9245 46.078,73.0355 46.352,73.0405 C46.627,73.0505 46.886,72.9435 47.082,72.7525 C47.279,72.5625 47.391,72.3075 47.395,72.0335 C47.399,71.7595 47.298,71.5005 47.107,71.3035 C46.917,71.1065 46.662,70.9955 46.388,70.9905 L46.37,70.9905 Z M46.371,74.5405 L46.326,74.5405 C45.652,74.5285 45.022,74.2545 44.554,73.7695 C44.086,73.2845 43.834,72.6455 43.846,71.9715 C43.87,70.5945 44.998,69.4905 46.369,69.4905 L46.414,69.4905 C47.089,69.5025 47.718,69.7765 48.186,70.2615 C48.655,70.7465 48.906,71.3855 48.894,72.0595 C48.883,72.7345 48.609,73.3635 48.124,73.8315 C47.65,74.2895 47.029,74.5405 46.371,74.5405 L46.371,74.5405 Z" id="Fill-20" fill="#719911" mask="url(#mask-2)"></path>
                <path d="M28.0018,63.1467 C27.6408,63.1467 27.3228,62.8857 27.2628,62.5187 L26.8588,60.0657 C26.7918,59.6567 27.0678,59.2707 27.4768,59.2037 C27.8858,59.1367 28.2718,59.4137 28.3388,59.8217 L28.7428,62.2747 C28.8098,62.6837 28.5328,63.0687 28.1248,63.1367 C28.0838,63.1437 28.0428,63.1467 28.0018,63.1467" id="Fill-21" fill="#354546" mask="url(#mask-2)"></path>
                <path d="M30.9618,62.6594 C30.6008,62.6594 30.2828,62.3984 30.2228,62.0314 L29.8188,59.5784 C29.7518,59.1694 30.0278,58.7834 30.4368,58.7164 C30.8458,58.6494 31.2318,58.9264 31.2988,59.3344 L31.7028,61.7874 C31.7698,62.1964 31.4928,62.5814 31.0848,62.6494 C31.0438,62.6564 31.0028,62.6594 30.9618,62.6594" id="Fill-22" fill="#354546" mask="url(#mask-2)"></path>
                <path d="M48.3055,63.1467 C48.2655,63.1467 48.2245,63.1437 48.1835,63.1367 C47.7745,63.0687 47.4975,62.6837 47.5655,62.2747 L47.9685,59.8217 C48.0355,59.4137 48.4205,59.1367 48.8305,59.2037 C49.2395,59.2707 49.5165,59.6567 49.4495,60.0657 L49.0445,62.5187 C48.9845,62.8857 48.6665,63.1467 48.3055,63.1467" id="Fill-23" fill="#354546" mask="url(#mask-2)"></path>
                <path d="M45.3456,62.6594 C45.3056,62.6594 45.2646,62.6564 45.2236,62.6494 C44.8146,62.5814 44.5376,62.1964 44.6046,61.7874 L45.0086,59.3344 C45.0756,58.9264 45.4606,58.6494 45.8696,58.7164 C46.2796,58.7834 46.5566,59.1694 46.4896,59.5784 L46.0846,62.0314 C46.0246,62.3984 45.7066,62.6594 45.3456,62.6594" id="Fill-24" fill="#354546" mask="url(#mask-2)"></path>
                <polygon id="Fill-25" fill="#A5B5B6" mask="url(#mask-2)" points="25.06 108.461 29.747 108.461 29.747 99.461 25.06 99.461"></polygon>
                <polygon id="Fill-26" fill="#C5D5D6" mask="url(#mask-2)" points="25.06 103.036 29.747 103.036 29.747 99.46 25.06 99.46"></polygon>
                <path d="M25.809,107.711 L28.997,107.711 L28.997,100.211 L25.809,100.211 L25.809,107.711 Z M29.747,109.211 L25.059,109.211 C24.645,109.211 24.309,108.875 24.309,108.461 L24.309,99.461 C24.309,99.046 24.645,98.711 25.059,98.711 L29.747,98.711 C30.161,98.711 30.497,99.046 30.497,99.461 L30.497,108.461 C30.497,108.875 30.161,109.211 29.747,109.211 L29.747,109.211 Z" id="Fill-27" fill="#354546" mask="url(#mask-2)"></path>
                <polygon id="Fill-28" fill="#A5B5B6" mask="url(#mask-2)" points="21.881 106.698 25.066 106.698 25.066 90.798 21.881 90.798"></polygon>
                <path d="M22.631,105.948 L24.316,105.948 L24.316,91.548 L22.631,91.548 L22.631,105.948 Z M25.066,107.448 L21.881,107.448 C21.467,107.448 21.131,107.112 21.131,106.698 L21.131,90.798 C21.131,90.384 21.467,90.048 21.881,90.048 L25.066,90.048 C25.48,90.048 25.816,90.384 25.816,90.798 L25.816,106.698 C25.816,107.112 25.48,107.448 25.066,107.448 L25.066,107.448 Z" id="Fill-29" fill="#354546" mask="url(#mask-2)"></path>
                <path d="M23.5394,85.2854 L23.4074,85.2854 C21.7574,85.2854 20.4074,86.6354 20.4074,88.2854 L20.4074,95.4104 L26.5394,95.4104 L26.5394,88.2854 C26.5394,86.6354 25.1894,85.2854 23.5394,85.2854" id="Fill-30" fill="#A5B5B6" mask="url(#mask-2)"></path>
                <path d="M23.5394,85.2854 L23.4074,85.2854 C21.7574,85.2854 20.4074,86.6354 20.4074,88.2854 L20.4074,91.0234 C20.4074,89.3724 21.7574,88.0234 23.4074,88.0234 L23.5394,88.0234 C25.1894,88.0234 26.5394,89.3724 26.5394,91.0234 L26.5394,88.2854 C26.5394,86.6354 25.1894,85.2854 23.5394,85.2854" id="Fill-31" fill="#C5D5D6" mask="url(#mask-2)"></path>
                <path d="M21.1571,94.6604 L25.7891,94.6604 L25.7891,88.2854 C25.7891,87.0444 24.7801,86.0354 23.5391,86.0354 L23.4071,86.0354 C22.1661,86.0354 21.1571,87.0444 21.1571,88.2854 L21.1571,94.6604 Z M26.5391,96.1604 L20.4071,96.1604 C19.9931,96.1604 19.6571,95.8254 19.6571,95.4104 L19.6571,88.2854 C19.6571,86.2174 21.3391,84.5354 23.4071,84.5354 L23.5391,84.5354 C25.6071,84.5354 27.2891,86.2174 27.2891,88.2854 L27.2891,95.4104 C27.2891,95.8254 26.9541,96.1604 26.5391,96.1604 L26.5391,96.1604 Z" id="Fill-32" fill="#354546" mask="url(#mask-2)"></path>
                <polygon id="Fill-33" fill="#A5B5B6" mask="url(#mask-2)" points="46.184 108.461 50.871 108.461 50.871 99.461 46.184 99.461"></polygon>
                <polygon id="Fill-34" fill="#C5D5D6" mask="url(#mask-2)" points="46.184 103.036 50.871 103.036 50.871 99.46 46.184 99.46"></polygon>
                <path d="M46.934,107.711 L50.122,107.711 L50.122,100.211 L46.934,100.211 L46.934,107.711 Z M50.872,109.211 L46.184,109.211 C45.77,109.211 45.434,108.875 45.434,108.461 L45.434,99.461 C45.434,99.046 45.77,98.711 46.184,98.711 L50.872,98.711 C51.286,98.711 51.622,99.046 51.622,99.461 L51.622,108.461 C51.622,108.875 51.286,109.211 50.872,109.211 L50.872,109.211 Z" id="Fill-35" fill="#354546" mask="url(#mask-2)"></path>
                <polygon id="Fill-36" fill="#A5B5B6" mask="url(#mask-2)" points="50.866 106.698 54.051 106.698 54.051 90.798 50.866 90.798"></polygon>
                <path d="M51.616,105.948 L53.301,105.948 L53.301,91.548 L51.616,91.548 L51.616,105.948 Z M54.051,107.448 L50.866,107.448 C50.452,107.448 50.116,107.112 50.116,106.698 L50.116,90.798 C50.116,90.384 50.452,90.048 50.866,90.048 L54.051,90.048 C54.466,90.048 54.801,90.384 54.801,90.798 L54.801,106.698 C54.801,107.112 54.466,107.448 54.051,107.448 L54.051,107.448 Z" id="Fill-37" fill="#354546" mask="url(#mask-2)"></path>
                <path d="M52.3925,85.2854 L52.5245,85.2854 C54.1745,85.2854 55.5245,86.6354 55.5245,88.2854 L55.5245,95.4104 L49.3925,95.4104 L49.3925,88.2854 C49.3925,86.6354 50.7425,85.2854 52.3925,85.2854" id="Fill-38" fill="#A5B5B6" mask="url(#mask-2)"></path>
                <path d="M52.3925,85.2854 L52.5245,85.2854 C54.1745,85.2854 55.5245,86.6354 55.5245,88.2854 L55.5245,91.0234 C55.5245,89.3724 54.1745,88.0234 52.5245,88.0234 L52.3925,88.0234 C50.7425,88.0234 49.3925,89.3724 49.3925,91.0234 L49.3925,88.2854 C49.3925,86.6354 50.7425,85.2854 52.3925,85.2854" id="Fill-39" fill="#C5D5D6" mask="url(#mask-2)"></path>
                <path d="M50.1425,94.6604 L54.7745,94.6604 L54.7745,88.2854 C54.7745,87.0444 53.7655,86.0354 52.5245,86.0354 L52.3925,86.0354 C51.1515,86.0354 50.1425,87.0444 50.1425,88.2854 L50.1425,94.6604 Z M55.5245,96.1604 L49.3925,96.1604 C48.9785,96.1604 48.6425,95.8254 48.6425,95.4104 L48.6425,88.2854 C48.6425,86.2174 50.3245,84.5354 52.3925,84.5354 L52.5245,84.5354 C54.5925,84.5354 56.2745,86.2174 56.2745,88.2854 L56.2745,95.4104 C56.2745,95.8254 55.9395,96.1604 55.5245,96.1604 L55.5245,96.1604 Z" id="Fill-40" fill="#354546" mask="url(#mask-2)"></path>
                <path d="M46.0468,115.9607 C46.0468,117.6107 44.6968,118.9607 43.0468,118.9607 L32.7468,118.9607 C31.0968,118.9607 29.7468,117.6107 29.7468,115.9607 L29.7468,91.9607 C29.7468,90.3107 31.0968,88.9607 32.7468,88.9607 L43.0468,88.9607 C44.6968,88.9607 46.0468,90.3107 46.0468,91.9607 L46.0468,115.9607 Z" id="Fill-41" fill="#6D6D6D" mask="url(#mask-2)"></path>
                <path d="M43.0468,114.3855 L32.7468,114.3855 C31.4068,114.3855 30.1668,113.4955 29.7468,112.2775 L29.7468,115.9605 C29.7468,117.6105 31.0968,118.9605 32.7468,118.9605 L43.0468,118.9605 C44.6968,118.9605 46.0468,117.6105 46.0468,115.9605 L46.0468,112.2775 C45.6278,113.4955 44.3868,114.3855 43.0468,114.3855" id="Fill-42" fill="#5B5B5B" mask="url(#mask-2)"></path>
                <polygon id="Fill-43" fill="#929292" mask="url(#mask-2)" points="45.9569 102.011 29.7469 100.66 29.8379 96.611 45.9569 96.611"></polygon>
                <polygon id="Fill-44" fill="#929292" mask="url(#mask-2)" points="45.9569 105.1604 29.8379 106.2644 29.8379 103.5644 45.9569 103.5644"></polygon>
                <path d="M32.7469,89.7107 C31.5059,89.7107 30.4969,90.7197 30.4969,91.9607 L30.4969,115.9607 C30.4969,117.2017 31.5059,118.2107 32.7469,118.2107 L43.0469,118.2107 C44.2879,118.2107 45.2969,117.2017 45.2969,115.9607 L45.2969,91.9607 C45.2969,90.7197 44.2879,89.7107 43.0469,89.7107 L32.7469,89.7107 Z M43.0469,119.7107 L32.7469,119.7107 C30.6789,119.7107 28.9969,118.0277 28.9969,115.9607 L28.9969,91.9607 C28.9969,89.8927 30.6789,88.2107 32.7469,88.2107 L43.0469,88.2107 C45.1149,88.2107 46.7969,89.8927 46.7969,91.9607 L46.7969,115.9607 C46.7969,118.0277 45.1149,119.7107 43.0469,119.7107 L43.0469,119.7107 Z" id="Fill-45" fill="#121212" mask="url(#mask-2)"></path>
                <path d="M46.0839,85.2854 L29.7099,85.2854 C27.9289,85.2854 26.4709,86.6354 26.4709,88.2854 L26.4709,92.6354 L49.3229,92.6354 L49.3229,88.2854 C49.3229,86.6354 47.8659,85.2854 46.0839,85.2854" id="Fill-46" fill="#A5B5B6" mask="url(#mask-2)"></path>
                <path d="M46.0839,85.2854 L29.7099,85.2854 C27.9289,85.2854 26.4709,86.6354 26.4709,88.2854 L49.3229,88.2854 C49.3229,86.6354 47.8659,85.2854 46.0839,85.2854" id="Fill-47" fill="#C5D5D6" mask="url(#mask-2)"></path>
                <path d="M27.2206,91.8855 L48.5736,91.8855 L48.5736,88.2855 C48.5736,87.0445 47.4566,86.0355 46.0836,86.0355 L29.7096,86.0355 C28.3376,86.0355 27.2206,87.0445 27.2206,88.2855 L27.2206,91.8855 Z M49.3236,93.3855 L26.4706,93.3855 C26.0566,93.3855 25.7206,93.0495 25.7206,92.6355 L25.7206,88.2855 C25.7206,86.2175 27.5106,84.5355 29.7096,84.5355 L46.0836,84.5355 C48.2836,84.5355 50.0736,86.2175 50.0736,88.2855 L50.0736,92.6355 C50.0736,93.0495 49.7376,93.3855 49.3236,93.3855 L49.3236,93.3855 Z" id="Fill-48" fill="#354546" mask="url(#mask-2)"></path>
                <path d="M33.3969,87.4661 C32.9829,87.4661 32.6469,87.1311 32.6469,86.7161 L32.6469,84.2311 C32.6469,83.8161 32.9829,83.4811 33.3969,83.4811 C33.8109,83.4811 34.1469,83.8161 34.1469,84.2311 L34.1469,86.7161 C34.1469,87.1311 33.8109,87.4661 33.3969,87.4661" id="Fill-49" fill="#354546" mask="url(#mask-2)"></path>
                <path d="M36.3969,87.4661 C35.9829,87.4661 35.6469,87.1311 35.6469,86.7161 L35.6469,84.2311 C35.6469,83.8161 35.9829,83.4811 36.3969,83.4811 C36.8109,83.4811 37.1469,83.8161 37.1469,84.2311 L37.1469,86.7161 C37.1469,87.1311 36.8109,87.4661 36.3969,87.4661" id="Fill-50" fill="#354546" mask="url(#mask-2)"></path>
                <path d="M39.3969,87.4661 C38.9829,87.4661 38.6469,87.1311 38.6469,86.7161 L38.6469,84.2311 C38.6469,83.8161 38.9829,83.4811 39.3969,83.4811 C39.8109,83.4811 40.1469,83.8161 40.1469,84.2311 L40.1469,86.7161 C40.1469,87.1311 39.8109,87.4661 39.3969,87.4661" id="Fill-51" fill="#354546" mask="url(#mask-2)"></path>
                <path d="M42.3973,87.4661 C41.9833,87.4661 41.6473,87.1311 41.6473,86.7161 L41.6473,84.2311 C41.6473,83.8161 41.9833,83.4811 42.3973,83.4811 C42.8113,83.4811 43.1473,83.8161 43.1473,84.2311 L43.1473,86.7161 C43.1473,87.1311 42.8113,87.4661 42.3973,87.4661" id="Fill-52" fill="#354546" mask="url(#mask-2)"></path>
                <path d="M60.2489,21.1125 C60.2369,21.1125 60.2279,21.1125 60.2159,21.1115 C59.8029,21.0945 59.4809,20.7445 59.4989,20.3305 L59.9279,10.2085 C59.9939,8.4195 59.3529,6.7015 58.1219,5.3765 C56.8909,4.0505 55.2259,3.2845 53.4319,3.2185 C53.4249,3.2175 53.4169,3.2175 53.4099,3.2175 L27.3499,1.5045 C23.6339,1.3735 20.5029,4.2855 20.3659,8.0015 L19.9359,18.8755 C19.9199,19.2885 19.5749,19.6135 19.1579,19.5945 C18.7439,19.5785 18.4209,19.2295 18.4379,18.8165 L18.8669,7.9445 C19.0349,3.4005 22.8709,-0.1615 27.4159,0.0065 C27.4229,0.0065 27.4309,0.0065 27.4369,0.0075 L53.4979,1.7195 C55.6869,1.8035 57.7199,2.7395 59.2209,4.3555 C60.7249,5.9745 61.5079,8.0745 61.4269,10.2685 L60.9969,20.3945 C60.9799,20.7975 60.6479,21.1125 60.2489,21.1125" id="Fill-53" fill="#354546" mask="url(#mask-2)"></path>
                <path d="M14.9042,19.7639 C13.6102,19.7159 12.5022,21.0259 12.4412,22.6749 L12.0672,32.8089 C12.0062,34.4579 13.0142,35.8459 14.3082,35.8939 C15.6022,35.9419 16.6602,35.9809 16.6602,35.9809 L17.2562,19.8509 C17.2562,19.8509 16.1982,19.8119 14.9042,19.7639" id="Fill-54" fill="#A5B5B6" mask="url(#mask-2)"></path>
                <path d="M12.4413,22.675 L12.2583,27.635 L16.9623,27.809 L17.2563,19.851 C17.2563,19.851 16.1983,19.812 14.9043,19.764 C13.6103,19.716 12.5023,21.026 12.4413,22.675" id="Fill-55" fill="#C5D5D6" mask="url(#mask-2)"></path>
                <path d="M16.6327,36.7302 L14.2807,36.6432 C13.4317,36.6122 12.6277,36.1562 12.0727,35.3932 C11.5497,34.6732 11.2817,33.7462 11.3177,32.7812 L11.6917,22.6472 C11.7677,20.5812 13.2197,18.9532 14.9317,19.0142 L17.2837,19.1012 L17.2287,20.6002 L14.8767,20.5132 L14.8357,20.5132 C13.9837,20.5132 13.2357,21.5032 13.1907,22.7032 L12.8167,32.8362 C12.7937,33.4582 12.9647,34.0682 13.2857,34.5112 C13.5727,34.9052 13.9447,35.1292 14.3357,35.1442 L16.6887,35.2312 L16.6327,36.7302 Z" id="Fill-56" fill="#354546" mask="url(#mask-2)"></path>
                <polygon id="Fill-57" fill="#859596" mask="url(#mask-2)" points="20.9764 38.5393 16.5724 38.3763 17.2964 18.7753 21.7004 18.9383"></polygon>
                <polygon id="Fill-58" fill="#A5B5B6" mask="url(#mask-2)" points="21.286 30.1531 16.882 29.9901 17.296 18.7761 21.701 18.9381"></polygon>
                <path d="M17.349,37.655 L20.254,37.762 L20.923,19.66 L18.018,19.553 L17.349,37.655 Z M20.976,39.289 L20.949,39.289 L16.544,39.126 C16.13,39.111 15.807,38.763 15.823,38.349 L16.547,18.748 C16.562,18.334 16.911,18.013 17.324,18.026 L21.728,18.189 C21.927,18.196 22.115,18.282 22.25,18.428 C22.385,18.573 22.457,18.767 22.45,18.966 L21.725,38.567 C21.718,38.766 21.632,38.953 21.487,39.089 C21.348,39.218 21.165,39.289 20.976,39.289 L20.976,39.289 Z" id="Fill-59" fill="#354546" mask="url(#mask-2)"></path>
                <path d="M12.2582,28.385 L12.2562,28.385 L10.4552,28.381 C10.0412,28.381 9.7062,28.044 9.7072,27.63 C9.7072,27.216 10.0432,26.881 10.4572,26.881 L10.4582,26.881 L12.2592,26.885 C12.6742,26.886 13.0082,27.222 13.0082,27.636 C13.0072,28.05 12.6712,28.385 12.2582,28.385" id="Fill-60" fill="#354546" mask="url(#mask-2)"></path>
                <path d="M67.3319,10.5559 C67.2469,10.5559 67.1589,10.5449 67.0719,10.5229 C66.5109,10.3799 66.1709,9.8079 66.3139,9.2459 L67.0909,6.1979 C67.2339,5.6359 67.8049,5.2969 68.3669,5.4399 C68.9299,5.5829 69.2689,6.1539 69.1259,6.7159 L68.3499,9.7639 C68.2279,10.2399 67.8009,10.5559 67.3319,10.5559" id="Fill-61" fill="#354546" mask="url(#mask-2)"></path>
                <path d="M64.2538,22.3376 C64.1918,22.3376 64.1308,22.3296 64.0678,22.3146 C63.6668,22.2116 63.4248,21.8036 63.5268,21.4016 L66.6048,9.3196 C66.7068,8.9186 67.1148,8.6756 67.5168,8.7786 C67.9178,8.8806 68.1608,9.2896 68.0588,9.6906 L64.9808,21.7726 C64.8948,22.1116 64.5888,22.3376 64.2538,22.3376" id="Fill-62" fill="#354546" mask="url(#mask-2)"></path>
                <path d="M64.2538,21.5872 C65.5468,21.6352 66.5558,23.0232 66.4948,24.6722 L66.1208,34.8062 C66.0598,36.4552 64.9508,37.7652 63.6578,37.7172 C62.3638,37.6692 61.3058,37.6302 61.3058,37.6302 L61.9008,21.5002 C61.9008,21.5002 62.9598,21.5392 64.2538,21.5872" id="Fill-63" fill="#A5B5B6" mask="url(#mask-2)"></path>
                <path d="M66.495,24.6721 L66.311,29.6321 L61.607,29.4581 L61.901,21.5001 C61.901,21.5001 62.96,21.5391 64.254,21.5871 C65.547,21.6351 66.556,23.0231 66.495,24.6721" id="Fill-64" fill="#C5D5D6" mask="url(#mask-2)"></path>
                <path d="M63.7235,38.468 C63.6925,38.468 63.6615,38.468 63.6295,38.466 L61.2785,38.38 L61.3325,36.881 L63.6855,36.968 C64.0755,36.984 64.4645,36.785 64.7795,36.413 C65.1325,35.995 65.3485,35.4 65.3705,34.778 L65.7455,24.644 C65.7685,24.023 65.5975,23.413 65.2755,22.97 C64.9895,22.576 64.6165,22.351 64.2255,22.337 L61.8735,22.25 C61.4595,22.235 61.1365,21.886 61.1525,21.472 C61.1665,21.059 61.5155,20.735 61.9285,20.751 L64.2815,20.838 C65.1295,20.869 65.9345,21.325 66.4895,22.089 C67.0115,22.808 67.2805,23.736 67.2445,24.7 L66.8695,34.834 C66.8345,35.798 66.4985,36.703 65.9235,37.382 C65.3365,38.076 64.5395,38.468 63.7235,38.468" id="Fill-65" fill="#354546" mask="url(#mask-2)"></path>
                <polygon id="Fill-66" fill="#859596" mask="url(#mask-2)" points="56.8124 39.8635 61.2164 40.0265 61.9414 20.4255 57.5374 20.2625"></polygon>
                <polygon id="Fill-67" fill="#A5B5B6" mask="url(#mask-2)" points="57.1229 31.4768 61.5269 31.6398 61.9409 20.4248 57.5369 20.2628"></polygon>
                <path d="M57.5897,39.1418 L60.4947,39.2488 L61.1637,21.1468 L58.2587,21.0398 L57.5897,39.1418 Z M61.2177,40.7758 L61.1897,40.7758 L56.7847,40.6128 C56.5857,40.6058 56.3987,40.5198 56.2637,40.3738 C56.1277,40.2278 56.0557,40.0348 56.0637,39.8358 L56.7867,20.2348 C56.7947,20.0358 56.8807,19.8478 57.0267,19.7128 C57.1717,19.5778 57.3667,19.5068 57.5647,19.5128 L61.9687,19.6758 C62.3827,19.6908 62.7057,20.0388 62.6907,20.4528 L61.9667,40.0538 C61.9507,40.4578 61.6187,40.7758 61.2177,40.7758 L61.2177,40.7758 Z" id="Fill-68" fill="#354546" mask="url(#mask-2)"></path>
                <path d="M68.1093,30.5115 C68.0903,30.5115 68.0733,30.5105 68.0543,30.5095 L66.2573,30.3805 C65.8443,30.3505 65.5343,29.9915 65.5633,29.5775 C65.5933,29.1645 65.9543,28.8545 66.3663,28.8845 L68.1623,29.0135 C68.5753,29.0425 68.8853,29.4025 68.8563,29.8155 C68.8283,30.2105 68.4993,30.5115 68.1093,30.5115" id="Fill-69" fill="#354546" mask="url(#mask-2)"></path>
                <path d="M20.9081,44.677 C19.8821,44.677 17.2731,45.791 16.1681,47.052 C15.2291,48.121 15.0781,49.907 15.8391,50.951 C16.1501,51.379 16.5601,51.615 17.0241,51.636 C17.5561,51.657 18.1131,51.386 18.5541,50.885 C19.0861,50.278 19.9991,48.897 20.6431,47.535 C21.4761,45.774 21.4441,44.963 21.3111,44.78 C21.2701,44.724 21.1411,44.686 20.9661,44.678 C20.9481,44.677 20.9281,44.677 20.9081,44.677 M17.0891,53.138 C17.0451,53.138 17.0011,53.137 16.9561,53.135 C16.0341,53.093 15.2071,52.631 14.6271,51.835 C13.4441,50.211 13.6251,47.675 15.0401,46.062 C16.0871,44.869 19.1321,43.097 21.0341,43.179 C21.8601,43.217 22.3001,43.59 22.5231,43.897 C23.1351,44.737 22.9641,46.136 22.0001,48.177 C21.2901,49.678 20.2961,51.173 19.6811,51.874 C18.9711,52.682 18.0331,53.138 17.0891,53.138" id="Fill-70" fill="#19B5FE" mask="url(#mask-2)"></path>
                <path d="M53.8153,42.634 L53.8163,42.634 L53.8153,42.634 Z M55.3373,42.899 C54.8793,42.899 54.5263,42.974 54.3593,43.151 L54.3583,43.151 C54.2343,43.282 54.2403,43.543 54.2673,43.738 C54.4403,44.976 55.7823,46.729 56.5343,47.173 C57.4933,47.74 59.0543,47.43 59.9433,46.494 C60.3693,46.046 60.5763,45.519 60.5103,45.05 C60.4593,44.676 60.2373,44.363 59.8723,44.147 C58.8063,43.517 56.6473,42.899 55.3373,42.899 L55.3373,42.899 Z M57.6793,48.96 C56.9993,48.96 56.3363,48.799 55.7703,48.464 C54.6063,47.776 53.0133,45.606 52.7823,43.945 C52.6503,42.999 52.9753,42.429 53.2713,42.117 C54.8973,40.406 59.5853,42.234 60.6353,42.856 C61.3973,43.306 61.8803,44.012 61.9963,44.843 C62.1253,45.767 61.7733,46.746 61.0303,47.528 C60.1483,48.456 58.8853,48.959 57.6793,48.96 L57.6793,48.96 Z" id="Fill-71" fill="#19B5FE" mask="url(#mask-2)"></path>
                <path d="M14.5394,41.7395 C14.1274,41.7395 13.7744,41.7715 13.5134,41.8355 C11.8944,42.2335 10.8174,44.0845 11.1124,45.9615 C11.2614,46.9125 11.7534,47.7285 12.4614,48.1995 C13.0524,48.5935 13.7544,48.7165 14.4384,48.5485 C15.3354,48.3285 17.0524,47.5825 18.4684,46.6335 C19.9394,45.6475 20.7574,44.6735 20.6554,44.0265 C20.5954,43.6425 20.1944,43.3035 19.8684,43.0875 C18.5404,42.2035 16.1154,41.7395 14.5394,41.7395 M13.8344,50.1225 C13.0594,50.1225 12.3004,49.8935 11.6314,49.4485 C10.5744,48.7455 9.8444,47.5595 9.6304,46.1945 C9.2174,43.5665 10.7984,40.9575 13.1554,40.3785 C14.9144,39.9465 18.7404,40.5355 20.6994,41.8385 C21.5374,42.3955 22.0214,43.0535 22.1374,43.7945 C22.6034,46.7605 16.7264,49.5315 14.7964,50.0055 C14.4764,50.0845 14.1544,50.1225 13.8344,50.1225" id="Fill-72" fill="#719911" mask="url(#mask-2)"></path>
                <path d="M56.4618,47.3103 C56.3098,51.4323 52.8098,54.7913 48.6848,54.7743 L27.0658,54.6843 C22.9408,54.6673 19.8278,51.2883 20.1488,47.1763 L22.5358,13.3293 C22.8568,9.2173 26.4828,6.1363 30.5928,6.4833 L50.3608,8.1543 C54.4718,8.5013 57.7108,12.1583 57.5588,16.2803 L56.4618,47.3103 Z" id="Fill-73" fill="#A5B5B6" mask="url(#mask-2)"></path>
                <path d="M53.036,41.0164 C52.925,44.0484 50.121,46.5094 46.807,46.4864 L29.436,46.3664 C26.121,46.3434 23.612,43.8504 23.86,40.8264 L25.697,16.9304 C25.944,13.9064 28.849,11.6504 32.153,11.9154 L48.04,13.1944 C51.344,13.4604 53.955,16.1584 53.843,19.1894 L53.036,41.0164 Z" id="Fill-74" fill="#C5D5D6" mask="url(#mask-2)"></path>
                <path d="M50.2587,51.4353 L26.7647,51.2763 C23.8497,51.2563 21.3957,49.8153 20.1287,47.6793 C20.0877,51.5603 23.1107,54.6673 27.0657,54.6843 L48.6847,54.7743 C52.1447,54.7883 55.1617,52.4283 56.1367,49.2353 C54.6057,50.6053 52.5207,51.4513 50.2587,51.4353" id="Fill-75" fill="#859596" mask="url(#mask-2)"></path>
                <path d="M50.3202,52.1858 L50.2542,52.1858 L26.7592,52.0258 C23.6642,52.0058 20.9442,50.5238 19.4832,48.0618 C19.2722,47.7058 19.3892,47.2458 19.7452,47.0348 C20.1022,46.8228 20.5622,46.9398 20.7732,47.2968 C21.9632,49.3018 24.2052,50.5088 26.7702,50.5258 L50.2632,50.6858 C52.2692,50.6998 54.1742,49.9858 55.6362,48.6758 C55.9452,48.3998 56.4192,48.4268 56.6952,48.7348 C56.9712,49.0438 56.9452,49.5178 56.6362,49.7938 C54.9122,51.3378 52.6712,52.1858 50.3202,52.1858" id="Fill-76" fill="#354546" mask="url(#mask-2)"></path>
                <path d="M56.4618,47.3103 L56.4628,47.3103 L56.4618,47.3103 Z M29.9578,7.2063 C28.3738,7.2063 26.8548,7.7643 25.6288,8.8063 C24.2558,9.9723 23.4228,11.5993 23.2838,13.3883 L20.8968,47.2283 C20.7578,49.0133 21.3238,50.6903 22.4908,51.9573 C23.6588,53.2253 25.2838,53.9273 27.0678,53.9343 L48.6878,54.0243 L48.7168,54.0243 C52.4398,54.0243 55.5738,51.0063 55.7118,47.2843 L56.8088,16.2543 C56.9458,12.5143 54.0258,9.2163 50.2988,8.9013 L30.5298,7.2313 C30.3378,7.2143 30.1478,7.2063 29.9578,7.2063 L29.9578,7.2063 Z M48.7168,55.5243 L48.6818,55.5243 L27.0618,55.4343 C24.8568,55.4253 22.8408,54.5513 21.3878,52.9743 C19.9348,51.3963 19.2298,49.3163 19.4008,47.1183 L21.7878,13.2763 C21.9598,11.0813 22.9788,9.0893 24.6578,7.6623 C26.3368,6.2353 28.4678,5.5523 30.6558,5.7363 L50.4248,7.4073 C54.9388,7.7883 58.4748,11.7813 58.3078,16.3083 L57.2108,47.3363 L57.2108,47.3383 C57.0438,51.8593 53.2358,55.5243 48.7168,55.5243 L48.7168,55.5243 Z" id="Fill-77" fill="#354546" mask="url(#mask-2)"></path>
                <path d="M39.9349,16.2961 C35.8269,16.2961 30.9309,15.0351 30.9309,9.0241 C30.9309,8.0811 31.0529,7.4551 31.2919,6.5621 C31.3999,6.1621 31.8109,5.9251 32.2109,6.0321 C32.6109,6.1401 32.8489,6.5511 32.7409,6.9511 C32.5269,7.7501 32.4309,8.2391 32.4309,9.0241 C32.4309,10.4521 32.4309,14.7961 39.9349,14.7961 C47.4719,14.7961 47.4719,10.4521 47.4719,9.0241 C47.4719,8.7061 47.4549,8.3861 47.4229,8.0721 C47.3809,7.6601 47.6799,7.2921 48.0919,7.2491 C48.5049,7.2081 48.8729,7.5061 48.9149,7.9181 C48.9519,8.2831 48.9719,8.6551 48.9719,9.0241 C48.9719,12.3421 47.4039,16.2961 39.9349,16.2961" id="Fill-78" fill="#354546" mask="url(#mask-2)"></path>
                <path d="M35.1522,25.9431 C34.9872,30.4141 31.2292,33.9031 26.7582,33.7381 C22.2882,33.5731 18.7982,29.8161 18.9632,25.3451 C19.1282,20.8751 22.8862,17.3841 27.3572,17.5491 C31.8272,17.7141 35.3172,21.4731 35.1522,25.9431" id="Fill-79" fill="#C5D5D6" mask="url(#mask-2)"></path>
                <path d="M27.0511,18.2937 C25.1911,18.2937 23.4261,18.9857 22.0561,20.2587 C20.6171,21.5947 19.7851,23.4107 19.7131,25.3727 C19.6401,27.3347 20.3361,29.2077 21.6721,30.6457 C23.0081,32.0847 24.8241,32.9167 26.7861,32.9887 C28.7491,33.0617 30.6211,32.3657 32.0591,31.0297 C33.4981,29.6937 34.3301,27.8767 34.4031,25.9157 C34.4751,23.9537 33.7801,22.0807 32.4431,20.6427 C31.1071,19.2037 29.2911,18.3717 27.3291,18.2987 C27.2361,18.2957 27.1431,18.2937 27.0511,18.2937 M27.0661,34.4947 C26.9541,34.4947 26.8431,34.4927 26.7311,34.4877 C24.3681,34.4007 22.1821,33.3987 20.5731,31.6667 C18.9641,29.9347 18.1261,27.6797 18.2141,25.3167 C18.3011,22.9547 19.3031,20.7677 21.0351,19.1597 C22.7671,17.5507 25.0221,16.7127 27.3841,16.7997 C29.7471,16.8877 31.9341,17.8897 33.5421,19.6217 C35.1511,21.3537 35.9891,23.6087 35.9021,25.9707 L35.1521,25.9427 L35.9021,25.9707 C35.8141,28.3337 34.8121,30.5207 33.0801,32.1287 C31.4301,33.6617 29.3051,34.4947 27.0661,34.4947" id="Fill-80" fill="#354546" mask="url(#mask-2)"></path>
                <path d="M32.2772,25.8367 C32.1712,28.7197 29.7472,30.9697 26.8652,30.8637 C23.9822,30.7567 21.7322,28.3337 21.8392,25.4517 C21.9452,22.5687 24.3682,20.3187 27.2512,20.4247 C30.1332,20.5317 32.3832,22.9547 32.2772,25.8367" id="Fill-81" fill="#9ABD45" mask="url(#mask-2)"></path>
                <path d="M30.3588,24.2351 C30.2928,26.0271 28.7858,27.4251 26.9948,27.3601 C25.2028,27.2931 23.8038,25.7871 23.8698,23.9951 C23.9368,22.2041 25.4418,20.8051 27.2338,20.8711 C29.0258,20.9371 30.4248,22.4431 30.3588,24.2351" id="Fill-82" fill="#CEEC87" mask="url(#mask-2)"></path>
                <path d="M27.0536,21.1711 C25.9216,21.1711 24.8476,21.5921 24.0136,22.3671 C23.1386,23.1801 22.6326,24.2851 22.5886,25.4791 C22.5436,26.6721 22.9676,27.8131 23.7806,28.6881 C24.5936,29.5631 25.6986,30.0691 26.8926,30.1131 C28.0856,30.1591 29.2266,29.7341 30.1016,28.9211 C30.9766,28.1081 31.4836,27.0031 31.5276,25.8091 C31.5716,24.6151 31.1486,23.4761 30.3356,22.6001 C29.5226,21.7251 28.4166,21.2181 27.2226,21.1741 C27.1666,21.1721 27.1096,21.1711 27.0536,21.1711 M27.0606,31.6171 C26.9866,31.6171 26.9116,31.6151 26.8376,31.6131 C25.2426,31.5541 23.7666,30.8781 22.6816,29.7091 C21.5956,28.5401 21.0306,27.0181 21.0896,25.4231 C21.1476,23.8291 21.8246,22.3531 22.9926,21.2681 C24.1616,20.1821 25.6836,19.6151 27.2786,19.6751 C28.8726,19.7341 30.3486,20.4101 31.4346,21.5801 C32.5196,22.7481 33.0856,24.2701 33.0266,25.8641 C32.9076,29.0811 30.2536,31.6171 27.0606,31.6171" id="Fill-83" fill="#354546" mask="url(#mask-2)"></path>
                <path d="M28.4037,22.1697 C28.7357,22.9117 27.6977,23.5447 26.3407,24.1527 C24.9827,24.7607 23.8187,25.1117 23.4867,24.3707 C23.1547,23.6277 23.9867,22.5347 25.3437,21.9267 C26.7017,21.3187 28.0717,21.4277 28.4037,22.1697" id="Fill-84" fill="#FFFFFF" mask="url(#mask-2)"></path>
                <path d="M28.5536,28.6931 C28.3876,28.4741 28.6806,28.1861 29.0806,27.8821 C29.4816,27.5791 29.8386,27.3751 30.0036,27.5931 C30.1696,27.8121 29.9796,28.2361 29.5786,28.5391 C29.1786,28.8431 28.7196,28.9121 28.5536,28.6931" id="Fill-85" fill="#FFFFFF" mask="url(#mask-2)"></path>
                <path d="M28.0912,29.1384 C28.0662,29.8184 27.4942,30.3494 26.8132,30.3254 C26.1332,30.2994 25.6022,29.7274 25.6272,29.0474 C25.6522,28.3674 26.2242,27.8354 26.9042,27.8604 C27.5852,27.8864 28.1162,28.4574 28.0912,29.1384" id="Fill-86" fill="#354546" mask="url(#mask-2)"></path>
                <path d="M57.9911,27.2903 C57.8501,31.0793 54.6661,32.3863 50.8781,32.2463 C47.0901,32.1063 44.1331,30.5723 44.2721,26.7833 C44.4121,22.9953 47.5961,20.0383 51.3851,20.1783 C55.1731,20.3173 58.1311,23.5023 57.9911,27.2903" id="Fill-87" fill="#C5D5D6" mask="url(#mask-2)"></path>
                <path d="M51.1259,20.9231 C49.5779,20.9231 48.1109,21.4981 46.9709,22.5571 C45.7739,23.6681 45.0819,25.1791 45.0219,26.8111 C44.9649,28.3521 45.4629,29.4861 46.5449,30.2771 C47.5409,31.0061 49.0489,31.4281 50.9059,31.4971 C56.0049,31.6881 57.1659,29.2981 57.2409,27.2631 C57.3019,25.6311 56.7229,24.0731 55.6109,22.8761 C54.4999,21.6801 52.9889,20.9871 51.3569,20.9271 C51.2799,20.9241 51.2029,20.9231 51.1259,20.9231 M51.4289,33.0061 C51.2389,33.0061 51.0469,33.0031 50.8509,32.9961 C48.6619,32.9151 46.9159,32.4081 45.6589,31.4881 C44.1879,30.4111 43.4479,28.7751 43.5219,26.7561 C43.5979,24.7231 44.4599,22.8421 45.9499,21.4581 C47.4399,20.0741 49.3819,19.3501 51.4129,19.4281 C53.4449,19.5041 55.3259,20.3651 56.7109,21.8561 C58.0949,23.3461 58.8149,25.2861 58.7399,27.3181 C58.6059,30.9541 55.9509,33.0061 51.4289,33.0061" id="Fill-88" fill="#354546" mask="url(#mask-2)"></path>
                <path d="M55.5546,27.2004 C55.4636,29.6424 53.4106,29.9004 50.9676,29.8094 C48.5256,29.7194 46.6186,29.3164 46.7086,26.8734 C46.7986,24.4304 48.8526,22.5244 51.2946,22.6144 C53.7376,22.7044 55.6446,24.7574 55.5546,27.2004" id="Fill-89" fill="#19B5FE" mask="url(#mask-2)"></path>
                <path d="M53.8807,25.6677 C53.8237,27.1857 52.6497,27.7497 51.1317,27.6937 C49.6127,27.6377 48.3257,26.9827 48.3827,25.4647 C48.4387,23.9467 49.7147,22.7607 51.2337,22.8167 C52.7507,22.8737 53.9367,24.1487 53.8807,25.6677" id="Fill-90" fill="#39D5FF" mask="url(#mask-2)"></path>
                <path d="M55.5546,27.2004 L55.5556,27.2004 L55.5546,27.2004 Z M51.1296,23.3614 C49.1646,23.3614 47.5316,24.9214 47.4576,26.9014 C47.4186,27.9694 47.8336,28.3414 48.2456,28.5644 C48.9346,28.9374 50.0226,29.0244 50.9956,29.0604 C54.1346,29.1774 54.7556,28.4864 54.8046,27.1724 C54.8796,25.1474 53.2926,23.4384 51.2676,23.3644 C51.2216,23.3624 51.1756,23.3614 51.1296,23.3614 L51.1296,23.3614 Z M51.8066,30.5794 C51.4886,30.5794 51.1946,30.5684 50.9406,30.5594 C49.2816,30.4974 45.8286,30.3704 45.9586,26.8464 C46.0646,23.9944 48.4676,21.7634 51.3226,21.8654 C54.1746,21.9704 56.4086,24.3764 56.3036,27.2284 C56.1936,30.2264 53.6186,30.5794 51.8066,30.5794 L51.8066,30.5794 Z" id="Fill-91" fill="#354546" mask="url(#mask-2)"></path>
                <path d="M49.7968,25.0715 C50.4298,25.3425 50.3308,25.9075 50.0598,26.5395 C49.7878,27.1725 49.4478,27.6335 48.8158,27.3615 C48.1828,27.0905 47.8888,26.3575 48.1598,25.7255 C48.4318,25.0925 49.1638,24.8005 49.7968,25.0715" id="Fill-92" fill="#FFFFFF" mask="url(#mask-2)"></path>
                <path d="M52.5887,28.5876 C52.5167,28.4236 52.7437,28.2846 53.0427,28.1506 C53.3417,28.0176 53.5977,27.9406 53.6707,28.1036 C53.7427,28.2666 53.5607,28.5066 53.2617,28.6406 C52.9637,28.7746 52.6617,28.7506 52.5887,28.5876" id="Fill-93" fill="#FFFFFF" mask="url(#mask-2)"></path>
                <path d="M52.1757,24.1536 C52.1547,24.7306 51.6697,25.1806 51.0927,25.1596 C50.5167,25.1376 50.0667,24.6536 50.0877,24.0766 C50.1087,23.5006 50.5937,23.0496 51.1697,23.0706 C51.7467,23.0926 52.1967,23.5776 52.1757,24.1536" id="Fill-94" fill="#354546" mask="url(#mask-2)"></path>
                <path d="M48.6493,40.0618 C46.6173,37.9048 42.7593,35.7528 38.1323,35.8248 C33.5053,35.7528 29.6483,37.9048 27.6163,40.0618 C25.5103,42.2508 25.2313,44.4458 26.0573,45.2108 C27.9433,46.7068 32.8833,44.3628 38.1323,44.5938 C43.3803,44.3618 48.3213,46.7068 50.2083,45.2108 C51.0343,44.4458 50.7543,42.2508 48.6493,40.0618" id="Fill-95" fill="#FFFFFF" mask="url(#mask-2)"></path>
                <path d="M26.5502,44.6433 C27.3492,45.2373 29.2432,44.8993 31.4332,44.5083 C33.4482,44.1493 35.7322,43.7433 38.1322,43.8423 C40.5332,43.7413 42.8162,44.1483 44.8322,44.5083 C47.0212,44.8993 48.9152,45.2373 49.7152,44.6433 C49.8172,44.5333 49.8812,44.3233 49.8882,44.0613 C49.9102,43.2963 49.4552,41.9813 48.1082,40.5813 C48.1072,40.5803 48.1052,40.5783 48.1032,40.5763 C46.3232,38.6863 42.6462,36.5103 38.1442,36.5743 C38.1362,36.5753 38.1282,36.5753 38.1212,36.5743 C33.6132,36.5063 29.9422,38.6863 28.1612,40.5763 C26.8102,41.9813 26.3552,43.2963 26.3772,44.0613 C26.3842,44.3233 26.4472,44.5333 26.5502,44.6433 L26.5502,44.6433 Z M50.2082,45.2103 L50.2092,45.2103 L50.2082,45.2103 Z M27.9462,46.4643 C27.0012,46.4643 26.2082,46.2873 25.5912,45.7983 C25.5762,45.7863 25.5622,45.7743 25.5482,45.7613 C25.1302,45.3733 24.8982,44.8013 24.8772,44.1043 C24.8372,42.7003 25.6372,41.0363 27.0752,39.5413 C29.1212,37.3703 33.0292,35.0733 37.9032,35.0733 C37.9792,35.0733 38.0552,35.0733 38.1322,35.0743 C38.2092,35.0733 38.2862,35.0733 38.3622,35.0733 C43.2332,35.0733 47.1402,37.3683 49.1922,39.5443 C50.6292,41.0383 51.4282,42.7003 51.3872,44.1053 C51.3672,44.8013 51.1352,45.3733 50.7172,45.7613 C50.7032,45.7743 50.6882,45.7863 50.6742,45.7983 C49.3602,46.8403 47.2452,46.4633 44.5682,45.9853 C42.6202,45.6373 40.4112,45.2433 38.1652,45.3423 C38.1432,45.3433 38.1212,45.3433 38.0992,45.3423 C35.8512,45.2433 33.6442,45.6373 31.6962,45.9853 C30.2772,46.2383 29.0142,46.4643 27.9462,46.4643 L27.9462,46.4643 Z" id="Fill-96" fill="#354546" mask="url(#mask-2)"></path>
                <path d="M31.2977,45.9304 C30.9177,45.9304 30.5907,45.6414 30.5527,45.2554 L29.8127,37.8624 C29.7717,37.4504 30.0717,37.0824 30.4847,37.0414 C30.8967,37.0024 31.2637,37.3014 31.3047,37.7134 L32.0447,45.1054 C32.0867,45.5174 31.7857,45.8854 31.3737,45.9274 C31.3477,45.9294 31.3227,45.9304 31.2977,45.9304" id="Fill-97" fill="#354546" mask="url(#mask-2)"></path>
                <path d="M38.1322,45.3435 C37.7182,45.3435 37.3822,45.0075 37.3822,44.5935 L37.3822,35.8245 C37.3822,35.4105 37.7182,35.0745 38.1322,35.0745 C38.5472,35.0745 38.8822,35.4105 38.8822,35.8245 L38.8822,44.5935 C38.8822,45.0075 38.5472,45.3435 38.1322,45.3435" id="Fill-98" fill="#354546" mask="url(#mask-2)"></path>
                <path d="M44.328,45.9309 C44.288,45.9309 44.247,45.9279 44.207,45.9209 C43.798,45.8539 43.52,45.4689 43.587,45.0599 L44.807,37.5769 C44.873,37.1689 45.259,36.8899 45.668,36.9579 C46.076,37.0249 46.353,37.4099 46.287,37.8189 L45.067,45.3009 C45.008,45.6689 44.689,45.9309 44.328,45.9309" id="Fill-99" fill="#354546" mask="url(#mask-2)"></path>
                <path d="M10.5741,68.114 C11.2911,68.522 11.5451,69.442 11.1371,70.159 L10.7701,70.805 C10.3631,71.522 9.4421,71.775 8.7251,71.368 L2.1691,67.642 C1.4521,67.235 1.1991,66.314 1.6061,65.597 L1.9731,64.951 C2.3801,64.234 3.3011,63.981 4.0181,64.388 L10.5741,68.114 Z" id="Fill-100" fill="#A5B5B6" mask="url(#mask-2)"></path>
                <path d="M3.2811,64.9436 C3.2141,64.9436 3.1461,64.9526 3.0781,64.9716 C2.8841,65.0246 2.7231,65.1496 2.6251,65.3216 L2.2581,65.9676 C2.0541,66.3266 2.1801,66.7856 2.5401,66.9896 L9.0951,70.7156 C9.2681,70.8136 9.4701,70.8386 9.6651,70.7846 C9.8591,70.7316 10.0201,70.6066 10.1181,70.4346 L10.4851,69.7886 C10.6891,69.4296 10.5631,68.9706 10.2031,68.7656 L3.6471,65.0406 C3.5341,64.9766 3.4091,64.9436 3.2811,64.9436 M9.4601,72.3136 C9.0751,72.3136 8.6971,72.2146 8.3551,72.0196 L1.7991,68.2946 C0.7201,67.6816 0.3411,66.3046 0.9541,65.2266 L1.3211,64.5806 C1.6171,64.0596 2.1001,63.6846 2.6801,63.5256 C3.2611,63.3656 3.8671,63.4406 4.3881,63.7366 L10.9451,67.4626 C12.0231,68.0756 12.4021,69.4516 11.7891,70.5296 L11.4221,71.1746 C11.1261,71.6966 10.6431,72.0716 10.0631,72.2316 C9.8641,72.2856 9.6611,72.3136 9.4601,72.3136" id="Fill-101" fill="#354546" mask="url(#mask-2)"></path>
                <path d="M11.7953,68.8459 L10.2623,67.9749 C8.8283,67.1599 6.9873,67.6659 6.1713,69.1009 L5.3013,70.6339 C4.4853,72.0689 4.9923,73.9089 6.4273,74.7239 L7.9603,75.5959 C9.3943,76.4099 11.2353,75.9039 12.0503,74.4699 L12.9213,72.9359 C13.7363,71.5019 13.2303,69.6609 11.7953,68.8459" id="Fill-102" fill="#A5B5B6" mask="url(#mask-2)"></path>
                <path d="M8.7899,68.3347 C8.5879,68.3347 8.3849,68.3617 8.1839,68.4177 C7.6029,68.5777 7.1199,68.9517 6.8239,69.4717 L5.9529,71.0047 C5.3399,72.0837 5.7189,73.4597 6.7969,74.0717 L8.3309,74.9437 C9.4089,75.5557 10.7849,75.1777 11.3979,74.0987 L12.2689,72.5657 C12.8819,71.4867 12.5029,70.1107 11.4249,69.4977 L9.8919,68.6267 C9.5519,68.4337 9.1739,68.3347 8.7899,68.3347 M9.4359,76.7367 C8.8089,76.7367 8.1729,76.5787 7.5889,76.2477 L6.0569,75.3767 C5.1879,74.8827 4.5639,74.0787 4.2969,73.1097 C4.0309,72.1427 4.1559,71.1307 4.6489,70.2637 L5.5199,68.7307 C6.0129,67.8627 6.8179,67.2377 7.7859,66.9717 C8.7539,66.7047 9.7649,66.8297 10.6329,67.3227 L12.1659,68.1937 C13.9639,69.2157 14.5949,71.5087 13.5739,73.3077 L12.7029,74.8397 C12.0129,76.0547 10.7419,76.7367 9.4359,76.7367" id="Fill-103" fill="#354546" mask="url(#mask-2)"></path>
                <path d="M64.8817,66.0247 C64.1967,66.4857 64.0157,67.4227 64.4777,68.1077 L64.8927,68.7227 C65.3537,69.4057 66.2907,69.5877 66.9747,69.1267 L73.2257,64.9077 C73.9087,64.4467 74.0907,63.5097 73.6297,62.8257 L73.2137,62.2107 C72.7527,61.5267 71.8157,61.3447 71.1317,61.8067 L64.8817,66.0247 Z" id="Fill-104" fill="#A5B5B6" mask="url(#mask-2)"></path>
                <path d="M65.3007,66.6462 C65.1367,66.7572 65.0247,66.9272 64.9867,67.1252 C64.9467,67.3232 64.9877,67.5222 65.0987,67.6872 L65.5137,68.3022 C65.7447,68.6452 66.2127,68.7362 66.5557,68.5042 L72.8057,64.2862 C73.1487,64.0552 73.2387,63.5882 73.0077,63.2452 L72.5927,62.6302 C72.3617,62.2872 71.8937,62.1962 71.5517,62.4282 L65.3007,66.6462 Z M66.1397,70.1322 C65.4157,70.1322 64.7047,69.7852 64.2707,69.1422 L63.8557,68.5262 C63.5207,68.0302 63.3987,67.4302 63.5137,66.8392 C63.6277,66.2482 63.9647,65.7382 64.4617,65.4032 L70.7117,61.1852 C71.7397,60.4902 73.1417,60.7622 73.8357,61.7912 L74.2507,62.4062 C74.5857,62.9022 74.7077,63.5012 74.5927,64.0932 C74.4787,64.6842 74.1417,65.1942 73.6447,65.5292 L67.3947,69.7482 C67.0097,70.0082 66.5717,70.1322 66.1397,70.1322 L66.1397,70.1322 Z" id="Fill-105" fill="#354546" mask="url(#mask-2)"></path>
                <path d="M70.3329,68.1316 L69.3469,66.6706 C68.4229,65.3026 66.5489,64.9386 65.1819,65.8616 L63.7199,66.8476 C62.3529,67.7716 61.9879,69.6456 62.9119,71.0126 L63.8979,72.4746 C64.8209,73.8416 66.6949,74.2056 68.0619,73.2826 L69.5239,72.2966 C70.8919,71.3736 71.2559,69.4996 70.3329,68.1316" id="Fill-106" fill="#A5B5B6" mask="url(#mask-2)"></path>
                <path d="M65.1815,65.8616 L65.1825,65.8616 L65.1815,65.8616 Z M66.8495,66.1006 C66.4065,66.1006 65.9745,66.2316 65.6005,66.4836 L64.1395,67.4696 C63.6445,67.8036 63.3075,68.3146 63.1935,68.9066 C63.0775,69.4986 63.1995,70.0976 63.5335,70.5936 L64.5195,72.0546 C64.8535,72.5506 65.3645,72.8866 65.9565,73.0016 C66.5485,73.1166 67.1475,72.9956 67.6435,72.6606 L69.1045,71.6746 C69.6005,71.3406 69.9365,70.8306 70.0505,70.2376 C70.1655,69.6456 70.0445,69.0466 69.7105,68.5506 L68.7245,67.0896 C68.3905,66.5936 67.8795,66.2576 67.2875,66.1436 C67.1415,66.1146 66.9945,66.1006 66.8495,66.1006 L66.8495,66.1006 Z M66.3975,74.5446 C66.1565,74.5446 65.9125,74.5206 65.6705,74.4736 C64.6855,74.2826 63.8345,73.7216 63.2765,72.8936 L62.2895,71.4326 C61.7315,70.6056 61.5295,69.6066 61.7205,68.6206 C61.9115,67.6356 62.4725,66.7846 63.3005,66.2266 L64.7615,65.2396 C65.5885,64.6816 66.5875,64.4796 67.5735,64.6706 C68.5585,64.8616 69.4095,65.4236 69.9675,66.2506 L70.9535,67.7126 C71.5125,68.5396 71.7145,69.5376 71.5235,70.5236 C71.3315,71.5086 70.7715,72.3596 69.9435,72.9186 L68.4825,73.9046 C67.8585,74.3256 67.1365,74.5446 66.3975,74.5446 L66.3975,74.5446 Z" id="Fill-107" fill="#354546" mask="url(#mask-2)"></path>
                <path d="M72.2167,84.5842 C72.2797,86.2332 70.9837,87.6342 69.3337,87.6972 L7.7997,90.0652 C6.1517,90.1282 4.7507,88.8312 4.6867,87.1832 L3.7157,61.9372 C3.6517,60.2882 4.9487,58.8872 6.5977,58.8232 L68.1317,56.4562 C69.7807,56.3922 71.1817,57.6892 71.2447,59.3382 L72.2167,84.5842 Z" id="Fill-108" fill="#19B5FE" mask="url(#mask-2)"></path>
                <polygon id="Fill-109" fill="#3BC1FF" mask="url(#mask-2)" points="28.1459 89.2766 33.7959 89.0596 43.5999 57.3936 31.4649 57.8606"></polygon>
                <polygon id="Fill-110" fill="#3BC1FF" mask="url(#mask-2)" points="17.1273 89.7063 19.7403 89.6053 28.9573 57.9633 24.5633 58.1323"></polygon>
                <polygon id="Fill-111" fill="#3BC1FF" mask="url(#mask-2)" points="63.0292 56.6521 44.6942 57.3581 38.0802 88.9001 53.1602 88.3191"></polygon>
                <path d="M68.2489,57.2034 C68.2199,57.2034 68.1899,57.2034 68.1609,57.2054 L6.6259,59.5734 C6.0289,59.5964 5.4749,59.8524 5.0649,60.2954 C4.6549,60.7384 4.4419,61.3104 4.4649,61.9074 L5.4359,87.1544 C5.4589,87.7514 5.7159,88.3064 6.1579,88.7154 C6.6009,89.1254 7.1749,89.3384 7.7709,89.3154 L69.3059,86.9484 C70.5449,86.9004 71.5149,85.8524 71.4669,84.6134 L70.4959,59.3674 C70.4489,58.1564 69.4489,57.2034 68.2489,57.2034 M7.6819,90.8174 C6.7379,90.8174 5.8399,90.4654 5.1389,89.8164 C4.4029,89.1344 3.9759,88.2094 3.9369,87.2114 L2.9659,61.9654 C2.8859,59.8994 4.5029,58.1534 6.5689,58.0744 L68.1029,55.7064 C70.1679,55.6254 71.9149,57.2434 71.9949,59.3094 L72.9659,84.5554 C73.0459,86.6214 71.4299,88.3674 69.3629,88.4474 L7.8289,90.8144 C7.7799,90.8164 7.7309,90.8174 7.6819,90.8174" id="Fill-112" fill="#0077C0" mask="url(#mask-2)"></path>
                <path d="M18.7142,64.2356 C18.7142,64.1456 18.6892,64.0736 18.6402,64.0196 C18.5902,63.9656 18.5292,63.9276 18.4582,63.9046 C18.3852,63.8816 18.3042,63.8686 18.2142,63.8636 C18.1252,63.8596 18.0392,63.8576 17.9582,63.8576 C17.7152,63.8576 17.4562,63.8636 17.1822,63.8776 C16.9072,63.8916 16.6352,63.9116 16.3652,63.9386 C16.0952,63.9656 15.8342,63.9996 15.5822,64.0396 C15.3302,64.0806 15.1102,64.1276 14.9212,64.1816 L14.7722,66.7196 C15.1592,66.6386 15.5782,66.5126 16.0272,66.3416 C16.4782,66.1706 16.8962,65.9746 17.2832,65.7546 C17.6702,65.5336 17.9992,65.2976 18.2692,65.0456 C18.5392,64.7936 18.6872,64.5416 18.7142,64.2896 L18.7142,64.2356 Z M19.3762,65.5986 C19.0062,66.0046 18.5572,66.3666 18.0262,66.6856 C17.4942,67.0056 16.9272,67.2706 16.3252,67.4826 C15.7222,67.6936 15.1682,67.8396 14.6642,67.9216 L14.4212,70.7296 C14.4392,70.8006 14.4482,70.8636 14.4482,70.9186 C14.4482,71.0896 14.3852,71.2576 14.2592,71.4236 C14.1332,71.5906 13.9402,71.6826 13.6792,71.7006 L13.6252,71.7006 C13.4182,71.7006 13.2802,71.6376 13.2132,71.5116 C13.1462,71.3856 13.1112,71.2416 13.1112,71.0796 C13.1112,70.9266 13.1252,70.7826 13.1522,70.6486 L13.5442,66.0576 C13.5442,65.9316 13.5502,65.7856 13.5642,65.6196 C13.5772,65.4526 13.5952,65.2776 13.6182,65.0926 C13.6402,64.9086 13.6602,64.7216 13.6792,64.5326 C13.6962,64.3436 13.7142,64.1636 13.7332,63.9926 C13.7512,63.7766 13.8182,63.5766 13.9352,63.3916 C14.0522,63.2076 14.2322,63.0926 14.4752,63.0476 C14.8622,62.9756 15.3662,62.8946 15.9872,62.8046 C16.6082,62.7146 17.3912,62.6696 18.3362,62.6696 C18.5522,62.6696 18.7592,62.6896 18.9572,62.7306 C19.1552,62.7706 19.3332,62.8446 19.4902,62.9526 C19.6482,63.0606 19.7742,63.2046 19.8682,63.3846 C19.9632,63.5656 20.0102,63.7946 20.0102,64.0736 C20.0102,64.1096 20.0082,64.1456 20.0042,64.1816 C19.9992,64.2176 19.9972,64.2536 19.9972,64.2896 C19.9512,64.7576 19.7452,65.1936 19.3762,65.5986 L19.3762,65.5986 Z" id="Fill-113" fill="#FFFFFF" mask="url(#mask-2)"></path>
                <path d="M21.9681,66.9421 C21.8871,66.6501 21.8151,66.3861 21.7521,66.1521 L20.9551,67.7861 L22.1971,67.7181 C22.1251,67.4931 22.0491,67.2341 21.9681,66.9421 M24.6411,70.7221 C24.6501,70.7981 24.6551,70.8731 24.6551,70.9451 C24.6551,71.1611 24.6021,71.3371 24.4991,71.4711 C24.3961,71.6071 24.2221,71.6741 23.9791,71.6741 L23.8851,71.6741 C23.8491,71.6741 23.7951,71.6201 23.7231,71.5121 C23.6511,71.4041 23.5741,71.2741 23.4931,71.1201 C23.4121,70.9671 23.3361,70.8081 23.2641,70.6411 C23.1921,70.4751 23.1341,70.3291 23.0891,70.2021 C23.0611,70.1031 23.0361,70.0181 23.0141,69.9461 C22.9911,69.8741 22.9671,69.8041 22.9401,69.7361 C22.9131,69.6691 22.8811,69.5951 22.8451,69.5141 C22.8091,69.4331 22.7641,69.3301 22.7101,69.2031 C22.6921,69.1581 22.6721,69.1131 22.6501,69.0681 C22.6271,69.0241 22.6021,68.9691 22.5751,68.9061 C22.4681,68.9061 22.3681,68.9091 22.2791,68.9131 C22.1881,68.9181 22.0691,68.9241 21.9211,68.9331 C21.7721,68.9421 21.5761,68.9561 21.3331,68.9741 C21.0911,68.9921 20.7571,69.0191 20.3341,69.0551 L19.5251,70.6891 C19.3981,70.9671 19.2721,71.2011 19.1461,71.3901 C19.0201,71.5791 18.8721,71.6741 18.7011,71.6741 L18.6601,71.6741 C18.4261,71.6561 18.2661,71.5971 18.1811,71.4981 C18.0951,71.4001 18.0531,71.2741 18.0531,71.1201 C18.0531,70.9771 18.0821,70.8411 18.1401,70.7151 C18.1991,70.5891 18.2421,70.4901 18.2691,70.4191 L21.1981,64.7621 L21.1981,64.7751 C21.3151,64.5051 21.4391,64.3121 21.5701,64.1951 C21.7001,64.0781 21.8331,64.0191 21.9681,64.0191 C22.1481,64.0191 22.3031,64.1051 22.4341,64.2761 C22.5641,64.4471 22.6381,64.6581 22.6561,64.9101 L22.6561,64.8971 C22.7731,65.3831 22.9421,65.9391 23.1631,66.5641 C23.3831,67.1901 23.6061,67.8041 23.8311,68.4071 L23.8311,68.3931 C23.9841,68.8071 24.1301,69.1971 24.2701,69.5611 C24.4091,69.9251 24.5191,70.2381 24.6001,70.4991 C24.6181,70.5711 24.6321,70.6461 24.6411,70.7221" id="Fill-114" fill="#FFFFFF" mask="url(#mask-2)"></path>
                <path d="M31.9647,69.0212 C31.7087,69.5472 31.3657,70.0202 30.9387,70.4382 C30.5107,70.8572 30.0137,71.1942 29.4467,71.4512 C28.8797,71.7082 28.2637,71.8362 27.5977,71.8362 C27.1107,71.8362 26.7017,71.7612 26.3687,71.6132 C26.0357,71.4642 25.7657,71.2672 25.5587,71.0192 C25.3517,70.7712 25.2007,70.4862 25.1067,70.1622 C25.0117,69.8382 24.9647,69.4962 24.9647,69.1362 C24.9647,69.0552 24.9667,68.9792 24.9717,68.9062 C24.9757,68.8342 24.9827,68.7622 24.9917,68.6902 C25.0277,68.2132 25.1317,67.7632 25.3027,67.3402 C25.4727,66.9172 25.6937,66.5302 25.9637,66.1792 C26.2337,65.8282 26.5377,65.5162 26.8757,65.2412 C27.2127,64.9672 27.5687,64.7322 27.9417,64.5392 C28.3147,64.3462 28.6937,64.1992 29.0757,64.1002 C29.4577,64.0012 29.8247,63.9522 30.1757,63.9522 C30.7067,63.9522 31.1387,64.0532 31.4717,64.2552 C31.8047,64.4582 32.0297,64.7032 32.1467,64.9912 C32.1737,65.0542 32.1917,65.1152 32.2007,65.1732 C32.2097,65.2322 32.2147,65.2882 32.2147,65.3422 C32.2147,65.4962 32.1757,65.6242 32.0997,65.7272 C32.0237,65.8312 31.9087,65.8872 31.7557,65.8962 C31.7107,65.9052 31.6657,65.9092 31.6207,65.9092 L31.5127,65.9092 C31.3327,65.9092 31.2107,65.8782 31.1477,65.8142 C31.0847,65.7522 31.0307,65.6752 30.9857,65.5852 C30.9677,65.5492 30.9457,65.5112 30.9187,65.4712 C30.8917,65.4302 30.8467,65.3902 30.7837,65.3492 C30.7207,65.3092 30.6347,65.2752 30.5267,65.2482 C30.4187,65.2212 30.2707,65.1982 30.0817,65.1802 L29.9467,65.1802 C29.5417,65.1802 29.1297,65.2862 28.7117,65.4982 C28.2927,65.7092 27.9097,65.9832 27.5637,66.3212 C27.2167,66.6592 26.9287,67.0412 26.6997,67.4682 C26.4697,67.8962 26.3377,68.3212 26.3017,68.7442 C26.2927,68.7902 26.2877,68.8302 26.2877,68.8662 L26.2877,68.9602 C26.2877,69.1762 26.3147,69.3832 26.3687,69.5812 C26.4227,69.7792 26.5087,69.9552 26.6257,70.1072 C26.7417,70.2612 26.8857,70.3852 27.0577,70.4792 C27.2287,70.5742 27.4357,70.6212 27.6787,70.6212 C28.1107,70.6212 28.4997,70.5492 28.8457,70.4052 C29.1927,70.2612 29.5007,70.0742 29.7707,69.8442 C30.0407,69.6152 30.2727,69.3612 30.4657,69.0822 C30.6597,68.8032 30.8187,68.5282 30.9457,68.2582 C30.7657,68.3032 30.5947,68.3532 30.4327,68.4072 C30.2707,68.4612 30.1087,68.5102 29.9467,68.5552 C29.5867,68.6722 29.1947,68.7852 28.7717,68.8932 L28.7857,68.8932 C28.7587,68.9022 28.7317,68.9062 28.7047,68.9062 L28.6507,68.9062 C28.5067,68.9062 28.4007,68.8572 28.3337,68.7582 C28.2657,68.6592 28.2317,68.5462 28.2317,68.4202 C28.2317,68.2402 28.3017,68.0612 28.4417,67.8802 C28.5807,67.7002 28.8077,67.5922 29.1227,67.5562 C29.2037,67.5472 29.3167,67.5222 29.4607,67.4822 C29.6047,67.4412 29.7637,67.3962 29.9397,67.3472 C30.1147,67.2982 30.2927,67.2442 30.4727,67.1852 C30.6527,67.1262 30.8107,67.0752 30.9457,67.0302 L31.3507,66.8952 C31.4937,66.8412 31.6207,66.8132 31.7287,66.8132 C31.9257,66.8132 32.0907,66.8562 32.2207,66.9422 C32.3517,67.0272 32.4167,67.1602 32.4167,67.3402 L32.4167,67.4212 C32.3717,67.9612 32.2207,68.4952 31.9647,69.0212" id="Fill-115" fill="#FFFFFF" mask="url(#mask-2)"></path>
                <path d="M37.972,71.1882 C37.868,71.3142 37.628,71.3812 37.25,71.3902 L33.847,71.6472 C33.811,71.6472 33.78,71.6492 33.753,71.6532 C33.726,71.6582 33.699,71.6602 33.672,71.6602 C33.357,71.6602 33.15,71.5972 33.051,71.4712 C32.952,71.3452 32.903,71.1742 32.903,70.9582 C32.903,70.7962 32.916,70.6262 32.943,70.4452 C32.952,70.4002 32.957,70.3602 32.957,70.3242 C32.957,70.2882 32.961,70.2482 32.97,70.2022 L33.105,68.3662 C33.15,67.7992 33.181,67.3002 33.2,66.8682 C33.218,66.4362 33.236,66.0762 33.254,65.7882 C33.263,65.6892 33.267,65.5992 33.267,65.5182 C33.267,65.4282 33.272,65.3522 33.281,65.2882 C33.281,65.2792 33.278,65.2682 33.274,65.2542 C33.269,65.2412 33.267,65.2262 33.267,65.2072 C33.267,65.0452 33.328,64.8762 33.45,64.7012 C33.571,64.5252 33.771,64.4382 34.05,64.4382 L34.779,64.4382 C34.986,64.4382 35.27,64.4292 35.63,64.4112 C35.99,64.3932 36.489,64.3612 37.128,64.3162 C37.155,64.3162 37.184,64.3142 37.216,64.3102 C37.247,64.3052 37.281,64.3032 37.317,64.3032 C37.371,64.3032 37.427,64.3012 37.486,64.2962 C37.544,64.2922 37.601,64.2892 37.655,64.2892 C37.871,64.2892 38.053,64.3232 38.201,64.3912 C38.35,64.4582 38.424,64.6052 38.424,64.8292 L38.424,64.9102 C38.406,65.0632 38.375,65.1802 38.33,65.2612 C38.284,65.3422 38.224,65.4032 38.147,65.4432 C38.071,65.4842 37.976,65.5092 37.864,65.5182 C37.751,65.5272 37.614,65.5312 37.452,65.5312 C37.407,65.5312 37.367,65.5342 37.331,65.5382 C37.295,65.5422 37.259,65.5442 37.222,65.5442 L34.644,65.7202 L34.509,67.2732 L36.656,67.0032 C36.71,66.9942 36.759,66.9892 36.804,66.9892 L36.939,66.9892 C37.245,66.9892 37.45,67.0452 37.554,67.1582 C37.657,67.2712 37.709,67.3902 37.709,67.5162 L37.709,67.5972 C37.691,67.8582 37.605,68.0262 37.452,68.1032 C37.299,68.1802 37.137,68.2182 36.966,68.2182 C36.921,68.2182 36.878,68.2202 36.838,68.2252 C36.798,68.2292 36.755,68.2362 36.71,68.2452 L34.388,68.5012 L34.239,70.4052 L37.222,70.1482 L37.385,70.1482 C37.637,70.1482 37.824,70.1882 37.945,70.2702 C38.067,70.3512 38.127,70.4952 38.127,70.7022 L38.127,70.7832 C38.127,70.9272 38.076,71.0622 37.972,71.1882" id="Fill-116" fill="#FFFFFF" mask="url(#mask-2)"></path>
                <path d="M49.5009,71.1135 C49.4789,71.2085 49.4419,71.2985 49.3929,71.3835 C49.3439,71.4695 49.2849,71.5415 49.2179,71.5995 C49.1499,71.6585 49.0629,71.6875 48.9539,71.6875 C48.7919,71.6875 48.6609,71.6745 48.5629,71.6475 C48.4639,71.6195 48.3869,71.5865 48.3329,71.5455 C48.2789,71.5055 48.2379,71.4605 48.2119,71.4105 C48.1849,71.3615 48.1569,71.3185 48.1309,71.2825 C48.0139,71.1205 47.8669,70.9135 47.6919,70.6615 C47.5169,70.4095 47.3359,70.1485 47.1519,69.8785 C46.9679,69.6085 46.7939,69.3445 46.6319,69.0885 C46.4699,68.8325 46.3399,68.6135 46.2399,68.4345 C46.1329,68.2365 45.9949,68.0105 45.8289,67.7595 C45.6619,67.5075 45.4839,67.2505 45.2959,66.9895 C45.1059,66.7285 44.9179,66.4655 44.7289,66.1995 C44.5399,65.9345 44.3639,65.6845 44.2019,65.4505 L43.7299,70.8375 C43.7479,70.9265 43.7569,70.9985 43.7569,71.0525 C43.7569,71.2155 43.7069,71.3635 43.6079,71.4985 C43.5089,71.6335 43.3599,71.7095 43.1629,71.7285 L43.0679,71.7285 C42.6459,71.7285 42.4339,71.5165 42.4339,71.0935 L42.4339,70.9585 C42.4339,70.9045 42.4419,70.8455 42.4609,70.7825 L43.0819,63.6685 C43.1079,63.4615 43.1429,63.2955 43.1829,63.1695 C43.2239,63.0435 43.2719,62.9445 43.3309,62.8725 C43.3899,62.8005 43.4569,62.7525 43.5339,62.7305 C43.6099,62.7075 43.7029,62.6965 43.8109,62.6965 C43.8999,62.6965 43.9899,62.7255 44.0809,62.7845 C44.1709,62.8425 44.2519,62.9175 44.3229,63.0075 C44.3959,63.0965 44.4629,63.1915 44.5259,63.2905 C44.5889,63.3895 44.6429,63.4795 44.6889,63.5605 C44.7779,63.7585 44.8479,63.9025 44.8969,63.9925 C44.9459,64.0825 44.9849,64.1505 45.0119,64.1955 C45.0389,64.2395 45.0639,64.2765 45.0859,64.3025 C45.1079,64.3295 45.1429,64.3795 45.1879,64.4515 C45.4929,64.9285 45.7549,65.3425 45.9709,65.6935 C46.1869,66.0445 46.3869,66.3635 46.5709,66.6525 C46.7559,66.9405 46.9359,67.2145 47.1109,67.4755 C47.2869,67.7365 47.4819,68.0105 47.6979,68.2995 C47.7259,68.3435 47.7729,68.4115 47.8409,68.5015 C47.9079,68.5915 47.9799,68.6885 48.0569,68.7915 C48.1329,68.8955 48.2069,68.9945 48.2789,69.0885 C48.3509,69.1835 48.3999,69.2485 48.4279,69.2845 L48.9139,63.3985 C48.9229,63.3085 48.9339,63.2145 48.9469,63.1145 C48.9609,63.0155 48.9899,62.9245 49.0349,62.8385 C49.0799,62.7525 49.1439,62.6825 49.2249,62.6295 C49.3049,62.5745 49.4219,62.5485 49.5749,62.5485 C49.8099,62.5485 49.9709,62.5945 50.0619,62.6895 C50.1509,62.7845 50.1959,62.9485 50.1959,63.1825 L50.1959,63.3305 C50.1959,63.3765 50.1909,63.4255 50.1829,63.4795 L49.5479,70.8505 C49.5389,70.9315 49.5229,71.0195 49.5009,71.1135" id="Fill-117" fill="#FFFFFF" mask="url(#mask-2)"></path>
                <path d="M56.1298,67.2122 C56.1338,67.1272 56.1358,67.0392 56.1358,66.9492 C56.1358,66.7242 56.1178,66.5042 56.0818,66.2872 C56.0458,66.0712 55.9818,65.8802 55.8868,65.7132 C55.7918,65.5472 55.6678,65.4152 55.5158,65.3162 C55.3618,65.2162 55.1688,65.1672 54.9348,65.1672 C54.5838,65.1672 54.2458,65.2862 53.9218,65.5252 C53.5988,65.7632 53.3108,66.0562 53.0588,66.4022 C52.8068,66.7492 52.5998,67.1182 52.4378,67.5092 C52.2758,67.9002 52.1808,68.2502 52.1528,68.5552 C52.1448,68.6282 52.1378,68.6992 52.1338,68.7722 C52.1288,68.8432 52.1268,68.9112 52.1268,68.9742 C52.1268,69.4782 52.2258,69.8792 52.4238,70.1752 C52.6208,70.4722 52.9278,70.6212 53.3418,70.6212 C53.6918,70.6212 54.0258,70.5352 54.3408,70.3642 C54.6548,70.1932 54.9398,69.9642 55.1918,69.6762 C55.4428,69.3882 55.6508,69.0552 55.8128,68.6772 C55.9748,68.2992 56.0728,67.8992 56.1088,67.4752 C56.1178,67.3852 56.1248,67.2982 56.1298,67.2122 M56.9328,69.1902 C56.6898,69.7212 56.3788,70.1822 56.0008,70.5742 C55.6228,70.9652 55.1978,71.2752 54.7258,71.5052 C54.2528,71.7342 53.7648,71.8492 53.2608,71.8492 C52.4948,71.8492 51.9008,71.6022 51.4788,71.1072 C51.0558,70.6122 50.8438,69.9232 50.8438,69.0422 C50.8438,68.9612 50.8468,68.8772 50.8508,68.7922 C50.8558,68.7062 50.8618,68.6182 50.8708,68.5282 C50.8888,68.2502 50.9518,67.9432 51.0608,67.6102 C51.1678,67.2772 51.3148,66.9402 51.4988,66.5982 C51.6838,66.2562 51.8998,65.9272 52.1468,65.6122 C52.3948,65.2972 52.6688,65.0162 52.9708,64.7692 C53.2718,64.5212 53.5938,64.3232 53.9358,64.1742 C54.2768,64.0262 54.6378,63.9522 55.0158,63.9522 C55.4748,63.9522 55.8588,64.0332 56.1698,64.1952 C56.4808,64.3572 56.7258,64.5752 56.9048,64.8502 C57.0858,65.1242 57.2138,65.4392 57.2898,65.7952 C57.3668,66.1502 57.4048,66.5222 57.4048,66.9082 C57.4048,67.0072 57.4028,67.1072 57.3988,67.2052 C57.3938,67.3052 57.3868,67.4032 57.3778,67.5022 C57.3238,68.0962 57.1758,68.6592 56.9328,69.1902" id="Fill-118" fill="#FFFFFF" mask="url(#mask-2)"></path>
                <path d="M63.5067,64.8025 C63.4807,64.8655 63.4327,64.9225 63.3647,64.9715 C63.2977,65.0205 63.2027,65.0655 63.0817,65.1065 C62.9597,65.1465 62.8047,65.1945 62.6157,65.2475 L61.1977,65.5175 L60.7387,70.8375 C60.7217,70.9895 60.7007,71.1205 60.6787,71.2285 C60.6557,71.3365 60.6197,71.4245 60.5707,71.4915 C60.5217,71.5595 60.4507,71.6065 60.3607,71.6335 C60.2717,71.6605 60.1537,71.6745 60.0107,71.6745 C59.7767,71.6745 59.6237,71.6225 59.5517,71.5185 C59.4797,71.4155 59.4437,71.2965 59.4437,71.1605 C59.4437,71.1255 59.4447,71.0935 59.4497,71.0665 C59.4547,71.0395 59.4567,71.0085 59.4567,70.9715 C59.4567,70.9455 59.4587,70.9155 59.4637,70.8845 C59.4677,70.8525 59.4707,70.8235 59.4707,70.7965 L59.9027,65.7475 L58.8217,65.9765 C58.7687,65.9865 58.7097,65.9905 58.6477,65.9905 L58.4987,65.9905 C58.2457,65.9905 58.0667,65.9435 57.9587,65.8485 C57.8507,65.7545 57.7967,65.6305 57.7967,65.4775 L57.7967,65.3965 C57.8147,65.1895 57.9107,65.0455 58.0867,64.9645 C58.2627,64.8835 58.4487,64.8165 58.6477,64.7615 L58.6337,64.7755 C58.6517,64.7665 58.6717,64.7605 58.6947,64.7555 C58.7167,64.7505 58.7367,64.7435 58.7547,64.7355 C59.0427,64.6805 59.2997,64.6315 59.5247,64.5865 C59.7487,64.5415 59.9607,64.4965 60.1587,64.4515 C60.4377,64.3975 60.6857,64.3505 60.9017,64.3095 C61.1167,64.2695 61.3237,64.2285 61.5227,64.1885 C61.7207,64.1475 61.9187,64.1095 62.1157,64.0735 C62.3147,64.0375 62.5347,63.9975 62.7777,63.9515 C62.8227,63.9435 62.8907,63.9385 62.9807,63.9385 C63.1597,63.9385 63.3027,63.9855 63.4047,64.0805 C63.5087,64.1745 63.5617,64.3165 63.5617,64.5055 L63.5617,64.5735 C63.5517,64.6635 63.5337,64.7395 63.5067,64.8025" id="Fill-119" fill="#FFFFFF" mask="url(#mask-2)"></path>
                <path d="M26.1532,75.7092 C26.0272,75.8082 25.7882,75.8762 25.4382,75.9112 L21.9142,76.1542 L21.7252,78.4492 L24.0332,78.0982 C24.1412,78.0802 24.2832,78.0602 24.4592,78.0382 C24.6342,78.0152 24.8122,78.0042 24.9922,78.0042 C25.2082,78.0042 25.3972,78.0362 25.5592,78.0982 C25.7212,78.1612 25.8022,78.2832 25.8022,78.4632 C25.8022,78.5082 25.7972,78.5442 25.7882,78.5712 C25.7702,78.6882 25.7522,78.7872 25.7352,78.8682 C25.7162,78.9492 25.6762,79.0192 25.6132,79.0772 C25.5502,79.1362 25.4512,79.1832 25.3162,79.2192 C25.1812,79.2552 24.9872,79.2822 24.7362,79.3002 L21.6572,79.7722 L21.3612,82.6482 C21.3332,82.8282 21.3062,82.9812 21.2792,83.1072 C21.2532,83.2332 21.2122,83.3362 21.1582,83.4172 C21.1042,83.4982 21.0322,83.5592 20.9422,83.6002 C20.8522,83.6402 20.7352,83.6692 20.5912,83.6882 C20.5462,83.6962 20.5102,83.7012 20.4832,83.7012 L20.3882,83.7012 C20.1002,83.7012 19.9562,83.5032 19.9562,83.1072 C19.9562,83.0352 19.9592,82.9632 19.9632,82.8912 C19.9672,82.8192 19.9742,82.7382 19.9842,82.6482 L20.3352,79.5972 C20.3612,79.2912 20.3842,79.0372 20.4022,78.8342 C20.4202,78.6312 20.4402,78.4162 20.4632,78.1862 C20.4852,77.9572 20.5102,77.6822 20.5372,77.3622 C20.5642,77.0432 20.6002,76.6132 20.6452,76.0732 C20.5912,75.9022 20.5642,75.7492 20.5642,75.6142 C20.5642,75.4072 20.6502,75.2612 20.8202,75.1752 C20.9912,75.0902 21.2842,75.0252 21.6982,74.9802 C21.7972,74.9712 21.8892,74.9592 21.9752,74.9462 C22.0602,74.9332 22.2152,74.9122 22.4412,74.8852 C22.6652,74.8582 22.9962,74.8252 23.4332,74.7842 C23.8692,74.7442 24.4882,74.6882 25.2892,74.6152 C25.3342,74.6152 25.3772,74.6132 25.4172,74.6082 C25.4582,74.6042 25.5002,74.6022 25.5462,74.6022 C25.8062,74.6022 26.0052,74.6452 26.1392,74.7302 C26.2752,74.8162 26.3562,74.9802 26.3822,75.2232 C26.3562,75.4482 26.2792,75.6102 26.1532,75.7092" id="Fill-120" fill="#FFFFFF" mask="url(#mask-2)"></path>
                <path d="M31.411,79.2122 C31.415,79.1272 31.418,79.0392 31.418,78.9492 C31.418,78.7242 31.4,78.5042 31.364,78.2872 C31.328,78.0712 31.263,77.8802 31.168,77.7132 C31.074,77.5472 30.95,77.4152 30.797,77.3162 C30.644,77.2162 30.451,77.1672 30.217,77.1672 C29.866,77.1672 29.528,77.2862 29.204,77.5252 C28.88,77.7632 28.592,78.0562 28.34,78.4022 C28.088,78.7492 27.881,79.1182 27.719,79.5092 C27.557,79.9002 27.462,80.2502 27.435,80.5552 C27.426,80.6282 27.42,80.6992 27.415,80.7722 C27.411,80.8432 27.409,80.9112 27.409,80.9742 C27.409,81.4782 27.507,81.8792 27.705,82.1752 C27.903,82.4722 28.209,82.6212 28.623,82.6212 C28.974,82.6212 29.307,82.5352 29.622,82.3642 C29.937,82.1932 30.221,81.9642 30.473,81.6762 C30.725,81.3882 30.932,81.0552 31.094,80.6772 C31.256,80.2992 31.355,79.8992 31.391,79.4752 C31.4,79.3852 31.407,79.2982 31.411,79.2122 M32.214,81.1902 C31.972,81.7212 31.661,82.1822 31.283,82.5742 C30.905,82.9652 30.48,83.2752 30.007,83.5052 C29.535,83.7342 29.046,83.8492 28.542,83.8492 C27.777,83.8492 27.183,83.6022 26.761,83.1072 C26.337,82.6122 26.126,81.9232 26.126,81.0422 C26.126,80.9612 26.128,80.8772 26.133,80.7922 C26.137,80.7062 26.144,80.6182 26.153,80.5282 C26.171,80.2502 26.234,79.9432 26.342,79.6102 C26.45,79.2772 26.596,78.9402 26.781,78.5982 C26.965,78.2562 27.181,77.9272 27.429,77.6122 C27.676,77.2972 27.951,77.0162 28.252,76.7692 C28.554,76.5212 28.875,76.3232 29.218,76.1742 C29.559,76.0262 29.919,75.9522 30.297,75.9522 C30.756,75.9522 31.141,76.0332 31.452,76.1952 C31.762,76.3572 32.007,76.5752 32.187,76.8502 C32.368,77.1242 32.495,77.4392 32.572,77.7952 C32.648,78.1502 32.687,78.5222 32.687,78.9082 C32.687,79.0072 32.684,79.1072 32.68,79.2052 C32.676,79.3052 32.669,79.4032 32.66,79.5022 C32.606,80.0962 32.457,80.6592 32.214,81.1902" id="Fill-121" fill="#FFFFFF" mask="url(#mask-2)"></path>
                <path d="M38.4579,82.385 C38.2729,82.659 38.0279,82.905 37.7229,83.12 C37.4159,83.337 37.0589,83.512 36.6489,83.647 C36.2399,83.782 35.8009,83.849 35.3329,83.849 C34.5859,83.849 34.0429,83.705 33.7059,83.418 C33.3689,83.13 33.1999,82.765 33.1999,82.324 C33.1999,82.297 33.2019,82.268 33.2069,82.236 C33.2109,82.205 33.2129,82.176 33.2129,82.149 L33.6719,76.91 C33.6719,76.902 33.6749,76.89 33.6789,76.877 C33.6839,76.863 33.6859,76.852 33.6859,76.843 C33.7039,76.762 33.7219,76.683 33.7399,76.607 C33.7579,76.531 33.7909,76.461 33.8409,76.398 C33.8909,76.335 33.9559,76.285 34.0369,76.249 C34.1179,76.213 34.2259,76.195 34.3609,76.195 C34.4959,76.195 34.6059,76.22 34.6919,76.269 C34.7769,76.319 34.8399,76.38 34.8809,76.451 C34.9209,76.524 34.9479,76.6 34.9609,76.681 C34.9749,76.762 34.9819,76.829 34.9819,76.884 L34.5089,82.176 L34.5089,82.202 C34.5089,82.338 34.5819,82.441 34.7259,82.513 C34.8689,82.585 35.0359,82.621 35.2249,82.621 C35.5309,82.621 35.8139,82.587 36.0759,82.52 C36.3359,82.452 36.5629,82.369 36.7569,82.27 C36.9509,82.171 37.1039,82.059 37.2159,81.932 C37.3289,81.806 37.3939,81.68 37.4119,81.554 L37.8979,77.099 C37.8979,76.983 37.9049,76.87 37.9179,76.762 C37.9319,76.654 37.9609,76.557 38.0059,76.472 C38.0509,76.386 38.1229,76.319 38.2219,76.269 C38.3209,76.22 38.4519,76.195 38.6129,76.195 C38.8559,76.195 39.0159,76.258 39.0929,76.384 C39.1689,76.51 39.2079,76.645 39.2079,76.789 C39.2079,76.906 39.1889,77.01 39.1529,77.099 L38.7619,81.541 C38.7439,81.829 38.6429,82.11 38.4579,82.385" id="Fill-122" fill="#FFFFFF" mask="url(#mask-2)"></path>
                <path d="M45.6737,82.8772 C45.6547,82.9492 45.6357,83.0302 45.6127,83.1202 C45.5907,83.2102 45.5547,83.2942 45.5047,83.3702 C45.4547,83.4472 45.3977,83.5122 45.3297,83.5662 C45.2617,83.6202 45.1747,83.6472 45.0667,83.6472 C44.7867,83.6472 44.6027,83.6112 44.5127,83.5392 C44.4227,83.4672 44.3597,83.3952 44.3237,83.3232 L44.2967,83.2692 C44.1977,83.1342 44.0757,82.9652 43.9327,82.7632 C43.7877,82.5602 43.6427,82.3492 43.4937,82.1282 C43.3447,81.9082 43.2047,81.6962 43.0747,81.4942 C42.9447,81.2912 42.8437,81.1222 42.7717,80.9872 C42.6367,80.7442 42.4697,80.4792 42.2717,80.1912 C42.0737,79.9032 41.8707,79.6152 41.6637,79.3272 C41.6107,79.2552 41.5587,79.1852 41.5087,79.1182 C41.4597,79.0502 41.4077,78.9812 41.3537,78.9082 L41.0167,82.8232 C41.0337,82.8962 41.0437,82.9542 41.0437,82.9992 C41.0437,83.1702 40.9907,83.3232 40.8877,83.4582 C40.7837,83.5932 40.6337,83.6692 40.4357,83.6882 L40.3547,83.6882 C39.9227,83.6882 39.7067,83.4762 39.7067,83.0532 C39.7067,83.0082 39.7087,82.9632 39.7137,82.9182 C39.7177,82.8732 39.7247,82.8282 39.7337,82.7832 L40.2337,77.0862 C40.2777,76.6992 40.3567,76.4542 40.4697,76.3502 C40.5817,76.2472 40.7417,76.1952 40.9487,76.1952 C41.0477,76.1952 41.1377,76.2202 41.2187,76.2692 C41.2997,76.3192 41.3737,76.3792 41.4417,76.4512 C41.5087,76.5232 41.5677,76.6002 41.6167,76.6812 C41.6657,76.7622 41.7087,76.8342 41.7447,76.8972 C41.7897,77.0052 41.8307,77.0972 41.8667,77.1732 C41.9027,77.2502 41.9497,77.3382 42.0087,77.4372 C42.0677,77.5362 42.1437,77.6572 42.2377,77.8012 C42.3327,77.9452 42.4607,78.1442 42.6227,78.3952 C42.7847,78.6482 42.9917,78.9622 43.2437,79.3402 C43.4957,79.7182 43.8107,80.1912 44.1887,80.7582 C44.2247,80.8122 44.2697,80.8752 44.3237,80.9472 C44.3777,81.0192 44.4317,81.0912 44.4867,81.1632 C44.4947,81.1812 44.5017,81.1922 44.5057,81.1972 C44.5107,81.2012 44.5177,81.2122 44.5267,81.2312 L44.8907,76.8702 C44.8907,76.8612 44.8927,76.8522 44.8977,76.8432 C44.9027,76.8342 44.9037,76.8202 44.9037,76.8022 C44.9127,76.7212 44.9267,76.6382 44.9447,76.5532 C44.9627,76.4672 44.9937,76.3882 45.0387,76.3162 C45.0837,76.2442 45.1477,76.1862 45.2287,76.1412 C45.3097,76.0962 45.4167,76.0732 45.5527,76.0732 C45.8047,76.0732 45.9727,76.1182 46.0587,76.2082 C46.1447,76.2982 46.1867,76.4602 46.1867,76.6942 C46.1867,76.7312 46.1847,76.7732 46.1797,76.8232 C46.1757,76.8722 46.1737,76.9192 46.1737,76.9642 L45.6737,82.8642 L45.6737,82.8772 Z" id="Fill-123" fill="#FFFFFF" mask="url(#mask-2)"></path>
                <path d="M51.5331,78.0447 C51.4871,77.8827 51.4131,77.7387 51.3091,77.6127 C51.2061,77.4867 51.0741,77.3857 50.9121,77.3087 C50.7501,77.2327 50.5561,77.1937 50.3311,77.1937 C49.9801,77.1937 49.6491,77.2437 49.3391,77.3427 C49.0281,77.4417 48.7651,77.5537 48.5491,77.6797 L48.1581,82.2567 C48.4811,82.1757 48.8331,82.0447 49.2111,81.8647 C49.5891,81.6847 49.9461,81.4507 50.2841,81.1627 C50.6211,80.8757 50.9121,80.5237 51.1541,80.1097 C51.3971,79.6957 51.5461,79.2187 51.6001,78.6787 L51.6001,78.5447 C51.6001,78.3737 51.5781,78.2067 51.5331,78.0447 M52.4981,80.3467 C52.2601,80.8277 51.9691,81.2527 51.6271,81.6227 C51.2851,81.9907 50.9091,82.3057 50.5001,82.5667 C50.0911,82.8287 49.6901,83.0397 49.2991,83.2017 C48.9071,83.3637 48.5431,83.4827 48.2051,83.5597 C47.8671,83.6357 47.5991,83.6737 47.4011,83.6737 C47.1681,83.6737 47.0141,83.5997 46.9421,83.4517 C46.8711,83.3027 46.8351,83.1157 46.8351,82.8907 C46.8351,82.8187 46.8371,82.7477 46.8421,82.6747 C46.8461,82.6037 46.8521,82.5307 46.8611,82.4597 C46.8611,82.4147 46.8641,82.3717 46.8681,82.3307 C46.8731,82.2907 46.8751,82.2477 46.8751,82.2027 L47.2801,77.6937 C47.2711,77.6577 47.2661,77.5897 47.2661,77.4907 C47.2661,77.2837 47.3231,77.0887 47.4351,76.9037 C47.5481,76.7197 47.7251,76.5867 47.9691,76.5057 C48.0411,76.4877 48.1051,76.4697 48.1651,76.4517 C48.2221,76.4337 48.2831,76.4157 48.3461,76.3977 C48.6351,76.2987 48.9451,76.2037 49.2781,76.1137 C49.6111,76.0237 50.0291,75.9797 50.5341,75.9797 C50.9381,75.9797 51.2941,76.0467 51.6001,76.1817 C51.9061,76.3167 52.1581,76.4967 52.3561,76.7217 C52.5541,76.9467 52.7031,77.2077 52.8021,77.5047 C52.9001,77.8017 52.9501,78.1077 52.9501,78.4227 L52.9501,78.5707 C52.9501,78.6157 52.9451,78.6607 52.9361,78.7057 C52.8831,79.3177 52.7361,79.8647 52.4981,80.3467" id="Fill-124" fill="#FFFFFF" mask="url(#mask-2)"></path>
                <path d="M54.9208,81.0549 C54.7858,81.2619 54.5738,81.3659 54.2858,81.3659 C54.1068,81.3659 53.9828,81.3159 53.9148,81.2169 C53.8478,81.1179 53.8148,80.9829 53.8148,80.8119 C53.8148,80.6319 53.8408,80.4339 53.8958,80.2179 L54.3138,75.4389 C54.3138,75.4029 54.3118,75.3669 54.3068,75.3309 C54.3028,75.2949 54.2998,75.2549 54.2998,75.2099 C54.2998,75.1009 54.3088,74.9919 54.3268,74.8789 C54.3448,74.7659 54.3828,74.6629 54.4418,74.5679 C54.4998,74.4739 54.5788,74.3969 54.6778,74.3389 C54.7768,74.2809 54.9068,74.2509 55.0688,74.2509 C55.3038,74.2509 55.4608,74.3409 55.5418,74.5209 C55.6228,74.7009 55.6628,74.9079 55.6628,75.1419 C55.6628,75.2139 55.6608,75.2859 55.6568,75.3579 C55.6518,75.4299 55.6458,75.5019 55.6368,75.5739 L55.1498,80.2589 C55.1328,80.5819 55.0568,80.8479 54.9208,81.0549 M54.7258,83.5389 C54.5408,83.6829 54.2858,83.7549 53.9628,83.7549 C53.7368,83.7549 53.5778,83.6879 53.4838,83.5529 C53.3888,83.4179 53.3418,83.2739 53.3418,83.1199 L53.3418,83.0259 C53.3688,82.7109 53.4838,82.4459 53.6858,82.2299 C53.8888,82.0129 54.1248,81.9059 54.3948,81.9059 C54.6378,81.9059 54.8108,81.9639 54.9138,82.0809 C55.0178,82.1979 55.0688,82.3509 55.0688,82.5399 L55.0688,82.6609 C55.0248,83.1029 54.9098,83.3949 54.7258,83.5389" id="Fill-125" fill="#FFFFFF" mask="url(#mask-2)"></path>
                <path d="M2.3446,73.4856 C1.5206,73.5206 0.8176,72.8746 0.7826,72.0496 L0.7516,71.3086 C0.7166,70.4846 1.3626,69.7816 2.1866,69.7466 L5.8216,69.5096 C6.6456,69.4756 7.3486,70.1216 7.3836,70.9456 L7.4146,71.6866 C7.4496,72.5106 6.8036,73.2146 5.9796,73.2486 L2.3446,73.4856 Z" id="Fill-126" fill="#A5B5B6" mask="url(#mask-2)"></path>
                <path d="M5.8602,70.2595 L2.2352,70.4945 C2.2302,70.4955 2.2242,70.4955 2.2182,70.4955 C2.0202,70.5045 1.8352,70.5905 1.6992,70.7385 C1.5632,70.8875 1.4922,71.0785 1.5012,71.2775 L1.5322,72.0185 C1.5402,72.2175 1.6272,72.4015 1.7752,72.5375 C1.9222,72.6725 2.1102,72.7415 2.3062,72.7365 L5.9312,72.5005 C5.9372,72.5005 5.9422,72.4995 5.9482,72.4995 C6.3612,72.4825 6.6832,72.1315 6.6652,71.7185 L6.6342,70.9765 C6.6262,70.7785 6.5392,70.5945 6.3912,70.4575 C6.2442,70.3225 6.0552,70.2505 5.8602,70.2595 L5.8602,70.2595 Z M2.3442,73.4855 L2.3462,73.4855 L2.3442,73.4855 Z M2.2792,74.2365 C1.7152,74.2365 1.1792,74.0275 0.7602,73.6425 C0.3172,73.2345 0.0592,72.6805 0.0332,72.0815 L0.0022,71.3405 C-0.0508,70.1045 0.9102,69.0545 2.1462,68.9975 L5.7732,68.7615 C5.7782,68.7615 5.7842,68.7605 5.7902,68.7605 C6.3882,68.7355 6.9632,68.9465 7.4062,69.3535 C7.8492,69.7605 8.1082,70.3145 8.1332,70.9135 L8.1642,71.6555 C8.2162,72.8915 7.2562,73.9405 6.0212,73.9975 L2.3932,74.2335 C2.3882,74.2345 2.3822,74.2345 2.3772,74.2345 C2.3442,74.2365 2.3122,74.2365 2.2792,74.2365 L2.2792,74.2365 Z" id="Fill-127" fill="#354546" mask="url(#mask-2)"></path>
                <path d="M2.6781,77.7385 C1.8541,77.7735 1.1511,77.1275 1.1161,76.3025 L1.0851,75.5615 C1.0501,74.7375 1.6961,74.0345 2.5201,73.9995 L6.1551,73.7625 C6.9791,73.7285 7.6821,74.3735 7.7171,75.1975 L7.7481,75.9395 C7.7831,76.7635 7.1371,77.4675 6.3131,77.5015 L2.6781,77.7385 Z" id="Fill-128" fill="#A5B5B6" mask="url(#mask-2)"></path>
                <path d="M6.1937,74.512 L2.5687,74.748 C2.5637,74.748 2.5577,74.749 2.5517,74.749 C2.3537,74.757 2.1687,74.844 2.0327,74.992 C1.8967,75.14 1.8257,75.331 1.8347,75.53 L1.8657,76.271 C1.8737,76.47 1.9607,76.655 2.1087,76.791 C2.2557,76.926 2.4437,76.996 2.6397,76.989 L6.2647,76.753 L6.2817,76.753 C6.4797,76.744 6.6647,76.658 6.8007,76.51 C6.9367,76.361 7.0077,76.17 6.9987,75.971 L6.9677,75.23 C6.9597,75.032 6.8727,74.847 6.7247,74.711 C6.5777,74.576 6.3887,74.505 6.1937,74.512 L6.1937,74.512 Z M2.6777,77.739 L2.6797,77.739 L2.6777,77.739 Z M2.6127,78.49 C2.0497,78.49 1.5127,78.281 1.0937,77.895 C0.6507,77.488 0.3927,76.933 0.3667,76.335 L0.3357,75.593 C0.3097,74.994 0.5207,74.42 0.9277,73.977 C1.3337,73.536 1.8837,73.278 2.4797,73.251 L6.1067,73.014 L6.1237,73.014 C6.7217,72.988 7.2967,73.199 7.7397,73.606 C8.1827,74.013 8.4407,74.568 8.4667,75.167 L8.4977,75.908 C8.5237,76.507 8.3127,77.081 7.9047,77.524 C7.4997,77.966 6.9497,78.223 6.3547,78.251 L2.7267,78.487 C2.7217,78.487 2.7157,78.488 2.7097,78.488 C2.6777,78.489 2.6457,78.49 2.6127,78.49 L2.6127,78.49 Z" id="Fill-129" fill="#354546" mask="url(#mask-2)"></path>
                <path d="M2.8265,81.5969 C2.0025,81.6319 1.2995,80.9859 1.2645,80.1619 L1.2335,79.4199 C1.1985,78.5959 1.8445,77.8929 2.6685,77.8579 L6.3035,77.6219 C7.1275,77.5869 7.8305,78.2329 7.8655,79.0569 L7.8965,79.7989 C7.9315,80.6229 7.2855,81.3259 6.4615,81.3609 L2.8265,81.5969 Z" id="Fill-130" fill="#A5B5B6" mask="url(#mask-2)"></path>
                <path d="M6.3422,78.3708 L2.7172,78.6068 C2.7122,78.6068 2.7062,78.6068 2.7002,78.6078 C2.5022,78.6158 2.3172,78.7028 2.1812,78.8508 C2.0452,78.9988 1.9742,79.1898 1.9832,79.3888 L2.0142,80.1298 C2.0222,80.3288 2.1092,80.5138 2.2572,80.6488 C2.4042,80.7848 2.5922,80.8528 2.7882,80.8478 L6.4132,80.6118 C6.4182,80.6118 6.4242,80.6118 6.4302,80.6108 C6.6282,80.6028 6.8132,80.5168 6.9492,80.3678 C7.0852,80.2198 7.1562,80.0288 7.1472,79.8298 L7.1162,79.0888 C7.0992,78.6778 6.7532,78.3598 6.3422,78.3708 L6.3422,78.3708 Z M2.8262,81.5978 L2.8282,81.5978 L2.8262,81.5978 Z M2.7612,82.3488 C2.1982,82.3488 1.6612,82.1398 1.2422,81.7538 C0.7992,81.3468 0.5402,80.7918 0.5152,80.1938 L0.4842,79.4518 C0.4312,78.2158 1.3922,77.1668 2.6282,77.1088 L6.2552,76.8728 C6.2602,76.8728 6.2662,76.8728 6.2722,76.8718 C6.8722,76.8458 7.4452,77.0578 7.8882,77.4648 C8.3312,77.8718 8.5902,78.4268 8.6142,79.0248 L8.6462,79.7668 C8.6982,81.0028 7.7382,82.0528 6.5032,82.1098 L2.8752,82.3458 C2.8702,82.3458 2.8642,82.3468 2.8582,82.3468 C2.8262,82.3478 2.7942,82.3488 2.7612,82.3488 L2.7612,82.3488 Z" id="Fill-131" fill="#354546" mask="url(#mask-2)"></path>
                <path d="M73.4989,70.7478 C74.3229,70.7188 74.9749,70.0208 74.9459,69.1968 L74.9209,68.4548 C74.8919,67.6298 74.1939,66.9788 73.3689,67.0078 L69.7279,67.0508 C68.9019,67.0798 68.2509,67.7778 68.2799,68.6018 L68.3059,69.3438 C68.3339,70.1678 69.0319,70.8198 69.8559,70.7908 L73.4989,70.7478 Z" id="Fill-132" fill="#A5B5B6" mask="url(#mask-2)"></path>
                <path d="M69.746,67.801 C69.55,67.81 69.368,67.894 69.232,68.04 C69.095,68.187 69.022,68.378 69.029,68.576 L69.056,69.318 C69.062,69.516 69.147,69.701 69.295,69.839 C69.441,69.976 69.632,70.047 69.831,70.042 C69.837,70.041 69.842,70.041 69.848,70.041 L73.48,69.998 C73.891,69.98 74.211,69.634 74.196,69.222 L74.171,68.481 C74.164,68.282 74.079,68.097 73.932,67.96 C73.784,67.822 73.595,67.751 73.395,67.757 C73.39,67.758 73.384,67.758 73.379,67.758 L69.746,67.801 Z M73.499,70.748 L73.501,70.748 L73.499,70.748 Z M69.804,71.542 C69.233,71.542 68.692,71.328 68.271,70.936 C67.831,70.525 67.577,69.969 67.557,69.37 L67.53,68.628 C67.51,68.029 67.725,67.457 68.136,67.016 C68.546,66.576 69.102,66.322 69.701,66.301 L69.718,66.301 L73.352,66.258 C73.948,66.241 74.517,66.454 74.955,66.863 C75.395,67.274 75.649,67.83 75.67,68.429 L75.696,69.171 C75.738,70.41 74.765,71.454 73.525,71.497 C73.519,71.497 73.514,71.497 73.508,71.498 L69.873,71.541 C69.85,71.542 69.827,71.542 69.804,71.542 L69.804,71.542 Z" id="Fill-133" fill="#354546" mask="url(#mask-2)"></path>
                <path d="M73.493,75.0134 C74.318,74.9854 74.969,74.2864 74.94,73.4624 L74.915,72.7214 C74.887,71.8964 74.188,71.2444 73.363,71.2734 L69.722,71.3174 C68.896,71.3454 68.246,72.0434 68.274,72.8674 L68.3,73.6094 C68.329,74.4344 69.026,75.0854 69.851,75.0564 L73.493,75.0134 Z" id="Fill-134" fill="#A5B5B6" mask="url(#mask-2)"></path>
                <path d="M69.7401,72.0671 C69.3301,72.0851 69.0101,72.4311 69.0241,72.8421 L69.0501,73.5841 C69.0561,73.7821 69.1411,73.9671 69.2891,74.1051 C69.4361,74.2421 69.6271,74.3141 69.8251,74.3071 L69.8421,74.3071 L73.4741,74.2641 C73.8851,74.2461 74.2051,73.8991 74.1911,73.4881 L74.1651,72.7471 C74.1581,72.5481 74.0731,72.3631 73.9261,72.2251 C73.7781,72.0881 73.5871,72.0141 73.3891,72.0231 C73.3841,72.0231 73.3791,72.0231 73.3731,72.0241 L69.7401,72.0671 Z M73.4931,75.0131 L73.4951,75.0131 L73.4931,75.0131 Z M69.7981,75.8081 C69.2271,75.8081 68.6861,75.5941 68.2651,75.2011 C67.8251,74.7911 67.5711,74.2341 67.5511,73.6351 L67.5241,72.8941 C67.4811,71.6541 68.4561,70.6101 69.6951,70.5671 L69.7131,70.5671 L73.3461,70.5241 C73.9401,70.5061 74.5111,70.7201 74.9491,71.1291 C75.3891,71.5401 75.6431,72.0961 75.6641,72.6941 L75.6901,73.4361 C75.7331,74.6761 74.7591,75.7201 73.5191,75.7631 L73.5021,75.7631 L69.8681,75.8071 C69.8441,75.8071 69.8211,75.8081 69.7981,75.8081 L69.7981,75.8081 Z" id="Fill-135" fill="#354546" mask="url(#mask-2)"></path>
                <path d="M73.6415,78.8723 C74.4665,78.8433 75.1175,78.1453 75.0885,77.3213 L75.0635,76.5793 C75.0355,75.7553 74.3365,75.1033 73.5125,75.1323 L69.8705,75.1763 C69.0455,75.2043 68.3945,75.9023 68.4225,76.7263 L68.4485,77.4683 C68.4775,78.2933 69.1745,78.9443 69.9995,78.9153 L73.6415,78.8723 Z" id="Fill-136" fill="#A5B5B6" mask="url(#mask-2)"></path>
                <path d="M69.8885,75.9255 C69.4785,75.9435 69.1585,76.2895 69.1715,76.7005 L69.1985,77.4425 C69.2115,77.8565 69.5625,78.1805 69.9735,78.1665 C69.9795,78.1655 69.9855,78.1655 69.9905,78.1655 L73.6225,78.1225 C73.8195,78.1135 74.0005,78.0295 74.1365,77.8835 C74.2745,77.7365 74.3465,77.5455 74.3395,77.3475 L74.3135,76.6055 C74.3065,76.4065 74.2215,76.2215 74.0745,76.0845 C73.9275,75.9465 73.7365,75.8755 73.5375,75.8825 L73.5215,75.8825 L69.8885,75.9255 Z M73.6415,78.8725 L73.6435,78.8725 L73.6415,78.8725 Z M69.9465,79.6665 C68.7415,79.6665 67.7415,78.7085 67.6995,77.4945 L67.6725,76.7525 C67.6295,75.5125 68.6045,74.4685 69.8435,74.4265 C69.8495,74.4255 69.8555,74.4255 69.8615,74.4255 L73.4955,74.3825 C74.0895,74.3645 74.6595,74.5795 75.0975,74.9875 C75.5375,75.3985 75.7915,75.9545 75.8125,76.5535 L75.8385,77.2955 C75.8595,77.8945 75.6445,78.4665 75.2335,78.9065 C74.8235,79.3475 74.2665,79.6005 73.6675,79.6215 C73.6615,79.6215 73.6565,79.6225 73.6505,79.6225 L70.0165,79.6655 C69.9925,79.6665 69.9695,79.6665 69.9465,79.6665 L69.9465,79.6665 Z" id="Fill-137" fill="#354546" mask="url(#mask-2)"></path>
            </g>
        </g>
    </g>
</svg>