<?xml version="1.0" encoding="UTF-8"?>
<svg width="76px" height="123px" viewBox="0 0 76 123" version="1.1" xmlns="http://www.w3.org/2000/svg" xmlns:xlink="http://www.w3.org/1999/xlink">
    <!-- Generator: Sketch 42 (36781) - http://www.bohemiancoding.com/sketch -->
    <title>24</title>
    <desc>Created with Sketch.</desc>
    <defs>
        <polygon id="path-1" points="0 122.641 75.84 122.641 75.84 0 0 0"></polygon>
    </defs>
    <g id="Page-1" stroke="none" stroke-width="1" fill="none" fill-rule="evenodd">
        <g id="1024" transform="translate(-524.000000, 0.000000)">
            <g id="24" transform="translate(524.000000, 0.000000)">
                <path d="M69.763,118.8298 C69.763,120.9348 55.6,122.6408 38.13,122.6408 C20.659,122.6408 6.496,120.9348 6.496,118.8298 C6.496,116.7248 20.659,115.0188 38.13,115.0188 C55.6,115.0188 69.763,116.7248 69.763,118.8298 Z" id="Fill-1" fill="#CCCCCC"></path>
                <mask id="mask-2" fill="white">
                    <use xlink:href="#path-1"></use>
                </mask>
                <g id="Clip-4"></g>
                <polygon id="Fill-3" fill="#758586" mask="url(#mask-2)" points="29.747 88.155 45.866 88.155 45.866 76.549 29.747 76.549"></polygon>
                <path d="M30.497,87.404 L45.116,87.404 L45.116,77.298 L30.497,77.298 L30.497,87.404 Z M45.866,88.904 L29.747,88.904 C29.333,88.904 28.997,88.569 28.997,88.154 L28.997,76.548 C28.997,76.134 29.333,75.798 29.747,75.798 L45.866,75.798 C46.28,75.798 46.616,76.134 46.616,76.548 L46.616,88.154 C46.616,88.569 46.28,88.904 45.866,88.904 L45.866,88.904 Z" id="Fill-5" fill="#354546" mask="url(#mask-2)"></path>
                <polygon id="Fill-6" fill="#758586" mask="url(#mask-2)" points="33.408 61.998 42.75 61.998 42.75 53.495 33.408 53.495"></polygon>
                <path d="M34.158,61.248 L42,61.248 L42,54.245 L34.158,54.245 L34.158,61.248 Z M42.75,62.748 L33.408,62.748 C32.993,62.748 32.658,62.412 32.658,61.998 L32.658,53.495 C32.658,53.081 32.993,52.745 33.408,52.745 L42.75,52.745 C43.164,52.745 43.5,53.081 43.5,53.495 L43.5,61.998 C43.5,62.412 43.164,62.748 42.75,62.748 L42.75,62.748 Z" id="Fill-7" fill="#354546" mask="url(#mask-2)"></path>
                <path d="M42.7503,58.9978 C42.7363,58.9978 42.7233,58.9978 42.7093,58.9968 L33.3673,58.4958 C32.9533,58.4728 32.6363,58.1198 32.6583,57.7058 C32.6803,57.2928 33.0353,56.9768 33.4473,56.9978 L42.7903,57.4988 C43.2033,57.5208 43.5213,57.8748 43.4993,58.2888 C43.4773,58.6878 43.1463,58.9978 42.7503,58.9978" id="Fill-8" fill="#354546" mask="url(#mask-2)"></path>
                <path d="M45.7025,76.0925 C45.6185,76.2085 45.5495,76.9035 46.3145,78.5235 C46.8965,79.7535 47.7215,80.9995 48.2015,81.5475 C48.5865,81.9865 49.0715,82.2295 49.5345,82.2055 C49.9335,82.1875 50.2875,81.9825 50.5565,81.6125 C51.2295,80.6895 51.0945,79.1075 50.2625,78.1585 C49.5415,77.3375 47.1445,75.9735 45.9625,76.0285 C45.7825,76.0365 45.7125,76.0785 45.7025,76.0925 M49.4785,83.7065 C48.6005,83.7065 47.7305,83.2845 47.0735,82.5365 C46.5345,81.9215 43.0925,77.1285 44.4905,75.2095 C44.7015,74.9185 45.1175,74.5655 45.8945,74.5305 C47.6365,74.4475 50.4315,76.0765 51.3895,77.1695 C52.6955,78.6565 52.8615,80.9965 51.7685,82.4955 C51.2295,83.2365 50.4595,83.6655 49.6015,83.7045 C49.5605,83.7065 49.5195,83.7065 49.4785,83.7065" id="Fill-9" fill="#19B5FE" mask="url(#mask-2)"></path>
                <path d="M45.5687,75.2624 L45.5697,75.2624 L45.5687,75.2624 Z M51.7857,73.3604 C50.3697,73.3604 48.1887,73.7784 46.9947,74.5734 C46.7097,74.7624 46.3607,75.0554 46.3097,75.3794 C46.2417,75.8104 46.7197,76.6414 48.2647,77.6764 C49.5437,78.5334 51.0927,79.2064 51.9007,79.4054 C52.5027,79.5534 53.1197,79.4444 53.6397,79.0984 C54.2667,78.6814 54.7017,77.9574 54.8347,77.1134 C55.0967,75.4444 54.1427,73.7994 52.7077,73.4464 C52.4727,73.3884 52.1557,73.3604 51.7857,73.3604 L51.7857,73.3604 Z M52.4327,80.9704 C52.1367,80.9704 51.8387,80.9344 51.5427,80.8624 C49.7757,80.4284 44.3977,77.8834 44.8277,75.1464 C44.9367,74.4544 45.3857,73.8414 46.1637,73.3244 C47.9547,72.1324 51.4557,71.5934 53.0657,71.9904 C55.2377,72.5234 56.6967,74.9264 56.3167,77.3454 C56.1187,78.6044 55.4457,79.6984 54.4707,80.3474 C53.8517,80.7594 53.1497,80.9704 52.4327,80.9704 L52.4327,80.9704 Z" id="Fill-10" fill="#C72C1C" mask="url(#mask-2)"></path>
                <path d="M41.3719,60.6238 C39.7279,60.4798 37.0349,60.4338 35.3879,60.5198 L26.3169,60.9938 C24.6689,61.0798 23.2969,62.4998 23.2679,64.1498 L23.1179,72.7728 C23.0889,74.4228 24.3679,76.1278 25.9599,76.5618 L35.1489,79.0688 C36.7409,79.5038 39.3569,79.5488 40.9629,79.1708 L50.2339,76.9858 C51.8399,76.6068 53.1779,74.9478 53.2059,73.2978 L53.3569,64.6748 C53.3859,63.0248 52.0639,61.5578 50.4199,61.4148 L41.3719,60.6238 Z" id="Fill-11" fill="#A5B5B6" mask="url(#mask-2)"></path>
                <path d="M50.2757,74.5857 L41.0047,76.7717 C39.3987,77.1497 36.7827,77.1047 35.1907,76.6697 L26.0017,74.1627 C24.4097,73.7277 23.1307,72.0227 23.1597,70.3737 L23.1177,72.7727 C23.0887,74.4227 24.3677,76.1277 25.9597,76.5617 L35.1487,79.0687 C36.7407,79.5037 39.3577,79.5487 40.9627,79.1707 L50.2337,76.9857 C51.8397,76.6067 53.1777,74.9477 53.2067,73.2977 L53.2477,70.8977 C53.2197,72.5477 51.8817,74.2077 50.2757,74.5857" id="Fill-12" fill="#859596" mask="url(#mask-2)"></path>
                <path d="M37.3529,61.2258 C36.6459,61.2258 35.9779,61.2398 35.4269,61.2678 L26.3559,61.7428 C25.1109,61.8078 24.0399,62.9158 24.0189,64.1628 L23.8679,72.7858 C23.8449,74.0958 24.8939,75.4938 26.1579,75.8388 L35.3469,78.3458 C36.8159,78.7468 39.3089,78.7898 40.7909,78.4408 L50.0619,76.2558 C51.3369,75.9548 52.4339,74.5948 52.4569,73.2848 L52.6069,64.6618 C52.6289,63.4148 51.5979,62.2698 50.3549,62.1618 L41.3069,61.3718 C40.2379,61.2778 38.7249,61.2258 37.3529,61.2258 M38.3309,80.1798 C37.1229,80.1798 35.8909,80.0488 34.9519,79.7928 L25.7629,77.2858 C23.8239,76.7568 22.3329,74.7688 22.3679,72.7598 L22.5189,64.1368 C22.5539,62.0978 24.2409,60.3508 26.2779,60.2448 L35.3479,59.7708 C37.0289,59.6828 39.7599,59.7298 41.4369,59.8768 L50.4859,60.6668 C52.5179,60.8448 54.1429,62.6478 54.1069,64.6878 L53.9559,73.3108 C53.9209,75.3198 52.3619,77.2548 50.4059,77.7158 L41.1349,79.9008 C40.3409,80.0878 39.3439,80.1798 38.3309,80.1798" id="Fill-13" fill="#354546" mask="url(#mask-2)"></path>
                <polygon id="Fill-14" fill="#556566" mask="url(#mask-2)" points="41.265 73.7019 28.189 73.4729 28.349 64.2749 41.426 64.5029"></polygon>
                <path d="M36.8495,71.7634 C36.5925,71.7634 36.3505,71.6314 36.2135,71.4094 L35.1755,69.7444 L33.5585,69.7164 C33.3075,69.7124 33.0745,69.5824 32.9385,69.3694 L32.8715,69.2644 L32.4355,70.2814 C32.3375,70.5084 32.1345,70.6724 31.8925,70.7214 C31.6505,70.7694 31.4005,70.6954 31.2235,70.5224 L30.3365,69.6604 L28.2565,69.6244 C27.8425,69.6174 27.5125,69.2754 27.5195,68.8614 C27.5265,68.4474 27.8715,68.1154 28.2825,68.1244 L30.6605,68.1654 C30.8505,68.1694 31.0335,68.2454 31.1695,68.3784 L31.4875,68.6874 L32.0535,67.3704 C32.1625,67.1154 32.4045,66.9414 32.6815,66.9194 C32.9585,66.8964 33.2255,67.0294 33.3745,67.2634 L33.9875,68.2234 L35.6095,68.2524 C35.8635,68.2564 36.0985,68.3894 36.2325,68.6054 L36.6275,69.2384 L37.4395,66.6844 C37.5375,66.3774 37.8225,66.1664 38.1455,66.1624 C38.4675,66.1584 38.7575,66.3624 38.8635,66.6674 L39.4335,68.3194 L41.3585,68.3524 C41.7725,68.3594 42.1025,68.7014 42.0955,69.1154 C42.0875,69.5254 41.7535,69.8524 41.3455,69.8524 L41.3325,69.8524 L38.8825,69.8094 C38.5675,69.8044 38.2895,69.6024 38.1865,69.3044 L38.1835,69.2944 L37.5645,71.2404 C37.4755,71.5194 37.2325,71.7214 36.9425,71.7574 C36.9115,71.7614 36.8805,71.7634 36.8495,71.7634" id="Fill-15" fill="#D5E5E6" mask="url(#mask-2)"></path>
                <path d="M28.952,72.7366 L40.528,72.9386 L40.662,65.2396 L29.086,65.0386 L28.952,72.7366 Z M41.265,74.4516 L41.252,74.4516 L28.176,74.2236 C27.762,74.2156 27.432,73.8746 27.439,73.4606 L27.599,64.2616 C27.607,63.8476 27.95,63.5156 28.363,63.5256 L41.438,63.7536 C41.638,63.7566 41.827,63.8396 41.965,63.9826 C42.103,64.1256 42.179,64.3176 42.175,64.5166 L42.015,73.7146 C42.012,73.9136 41.929,74.1036 41.786,74.2416 C41.646,74.3766 41.459,74.4516 41.265,74.4516 L41.265,74.4516 Z" id="Fill-16" fill="#354546" mask="url(#mask-2)"></path>
                <path d="M48.2435,66.3972 C48.2265,67.3772 47.4175,68.1582 46.4375,68.1412 C45.4575,68.1242 44.6775,67.3152 44.6945,66.3352 C44.7115,65.3552 45.5195,64.5742 46.4995,64.5912 C47.4795,64.6082 48.2605,65.4172 48.2435,66.3972" id="Fill-17" fill="#F85C4C" mask="url(#mask-2)"></path>
                <path d="M46.4686,65.3411 C45.9116,65.3411 45.4536,65.7891 45.4436,66.3481 C45.4386,66.6221 45.5416,66.8821 45.7316,67.0781 C45.9216,67.2761 46.1766,67.3861 46.4506,67.3911 C46.7256,67.3921 46.9836,67.2941 47.1806,67.1041 C47.3776,66.9131 47.4886,66.6581 47.4936,66.3841 C47.5036,65.8191 47.0516,65.3511 46.4866,65.3411 L46.4686,65.3411 M46.4696,68.8911 L46.4246,68.8911 C45.7506,68.8791 45.1206,68.6061 44.6526,68.1201 C44.1836,67.6351 43.9326,66.9971 43.9446,66.3221 C43.9686,64.9301 45.1226,63.8171 46.5126,63.8421 C47.9046,63.8661 49.0176,65.0181 48.9936,66.4101 C48.9816,67.0851 48.7076,67.7141 48.2226,68.1831 C47.7486,68.6411 47.1276,68.8911 46.4696,68.8911" id="Fill-18" fill="#C72C1C" mask="url(#mask-2)"></path>
                <path d="M48.1449,72.0466 C48.1279,73.0266 47.3189,73.8076 46.3389,73.7906 C45.3589,73.7736 44.5789,72.9646 44.5959,71.9846 C44.6129,71.0046 45.4209,70.2236 46.4009,70.2406 C47.3809,70.2576 48.1619,71.0666 48.1449,72.0466" id="Fill-19" fill="#B9D96D" mask="url(#mask-2)"></path>
                <path d="M48.1449,72.0466 L48.1459,72.0466 L48.1449,72.0466 Z M46.3699,70.9906 C46.1029,70.9906 45.8509,71.0926 45.6579,71.2776 C45.4609,71.4686 45.3499,71.7236 45.3459,71.9976 C45.3409,72.2716 45.4429,72.5306 45.6329,72.7276 C45.8229,72.9246 46.0789,73.0356 46.3529,73.0406 C46.6239,73.0446 46.8849,72.9426 47.0829,72.7526 C47.2789,72.5626 47.3909,72.3066 47.3949,72.0336 C47.4049,71.4686 46.9529,71.0006 46.3879,70.9906 L46.3699,70.9906 Z M46.3719,74.5406 L46.3259,74.5406 C45.6519,74.5286 45.0219,74.2546 44.5539,73.7696 C44.0849,73.2846 43.8339,72.6456 43.8459,71.9716 C43.8569,71.2966 44.1309,70.6676 44.6159,70.1986 C45.1019,69.7306 45.7409,69.4806 46.4149,69.4906 C47.8059,69.5156 48.9189,70.6676 48.8949,72.0596 C48.8829,72.7336 48.6089,73.3636 48.1239,73.8316 C47.6499,74.2896 47.0289,74.5406 46.3719,74.5406 L46.3719,74.5406 Z" id="Fill-20" fill="#719911" mask="url(#mask-2)"></path>
                <path d="M28.0013,63.1467 C27.6413,63.1467 27.3233,62.8857 27.2623,62.5187 L26.8583,60.0657 C26.7913,59.6567 27.0683,59.2707 27.4773,59.2037 C27.8853,59.1367 28.2713,59.4137 28.3383,59.8217 L28.7423,62.2747 C28.8103,62.6837 28.5333,63.0687 28.1243,63.1367 C28.0833,63.1437 28.0423,63.1467 28.0013,63.1467" id="Fill-21" fill="#354546" mask="url(#mask-2)"></path>
                <path d="M30.9618,62.6594 C30.6008,62.6594 30.2828,62.3984 30.2228,62.0314 L29.8188,59.5784 C29.7518,59.1694 30.0278,58.7834 30.4368,58.7164 C30.8458,58.6494 31.2318,58.9264 31.2988,59.3344 L31.7028,61.7874 C31.7698,62.1964 31.4928,62.5814 31.0848,62.6494 C31.0438,62.6564 31.0028,62.6594 30.9618,62.6594" id="Fill-22" fill="#354546" mask="url(#mask-2)"></path>
                <path d="M48.306,63.1467 C48.265,63.1467 48.224,63.1437 48.183,63.1367 C47.774,63.0687 47.498,62.6837 47.565,62.2747 L47.969,59.8217 C48.036,59.4137 48.422,59.1367 48.83,59.2037 C49.24,59.2707 49.516,59.6567 49.449,60.0657 L49.045,62.5187 C48.985,62.8857 48.666,63.1467 48.306,63.1467" id="Fill-23" fill="#354546" mask="url(#mask-2)"></path>
                <path d="M45.3456,62.6594 C45.3046,62.6594 45.2646,62.6564 45.2226,62.6494 C44.8146,62.5814 44.5376,62.1964 44.6046,61.7874 L45.0086,59.3344 C45.0756,58.9264 45.4616,58.6494 45.8706,58.7164 C46.2796,58.7834 46.5556,59.1694 46.4886,59.5784 L46.0846,62.0314 C46.0246,62.3984 45.7066,62.6594 45.3456,62.6594" id="Fill-24" fill="#354546" mask="url(#mask-2)"></path>
                <polygon id="Fill-25" fill="#A5B5B6" mask="url(#mask-2)" points="25.06 108.461 29.747 108.461 29.747 99.461 25.06 99.461"></polygon>
                <polygon id="Fill-26" fill="#C5D5D6" mask="url(#mask-2)" points="25.06 103.036 29.747 103.036 29.747 99.46 25.06 99.46"></polygon>
                <path d="M25.809,107.711 L28.997,107.711 L28.997,100.211 L25.809,100.211 L25.809,107.711 Z M29.747,109.211 L25.059,109.211 C24.645,109.211 24.309,108.875 24.309,108.461 L24.309,99.461 C24.309,99.046 24.645,98.711 25.059,98.711 L29.747,98.711 C30.161,98.711 30.497,99.046 30.497,99.461 L30.497,108.461 C30.497,108.875 30.161,109.211 29.747,109.211 L29.747,109.211 Z" id="Fill-27" fill="#354546" mask="url(#mask-2)"></path>
                <polygon id="Fill-28" fill="#A5B5B6" mask="url(#mask-2)" points="21.881 106.698 25.066 106.698 25.066 90.798 21.881 90.798"></polygon>
                <path d="M22.631,105.948 L24.316,105.948 L24.316,91.548 L22.631,91.548 L22.631,105.948 Z M25.066,107.448 L21.881,107.448 C21.467,107.448 21.131,107.112 21.131,106.698 L21.131,90.798 C21.131,90.384 21.467,90.048 21.881,90.048 L25.066,90.048 C25.48,90.048 25.816,90.384 25.816,90.798 L25.816,106.698 C25.816,107.112 25.48,107.448 25.066,107.448 L25.066,107.448 Z" id="Fill-29" fill="#354546" mask="url(#mask-2)"></path>
                <path d="M23.5394,85.2854 L23.4074,85.2854 C21.7574,85.2854 20.4074,86.6354 20.4074,88.2854 L20.4074,95.4104 L26.5394,95.4104 L26.5394,88.2854 C26.5394,86.6354 25.1894,85.2854 23.5394,85.2854" id="Fill-30" fill="#A5B5B6" mask="url(#mask-2)"></path>
                <path d="M23.5394,85.2854 L23.4074,85.2854 C21.7574,85.2854 20.4074,86.6354 20.4074,88.2854 L20.4074,91.0234 C20.4074,89.3724 21.7574,88.0234 23.4074,88.0234 L23.5394,88.0234 C25.1894,88.0234 26.5394,89.3724 26.5394,91.0234 L26.5394,88.2854 C26.5394,86.6354 25.1894,85.2854 23.5394,85.2854" id="Fill-31" fill="#C5D5D6" mask="url(#mask-2)"></path>
                <path d="M21.1571,94.6604 L25.7891,94.6604 L25.7891,88.2854 C25.7891,87.0444 24.7801,86.0354 23.5391,86.0354 L23.4071,86.0354 C22.1661,86.0354 21.1571,87.0444 21.1571,88.2854 L21.1571,94.6604 Z M26.5391,96.1604 L20.4071,96.1604 C19.9931,96.1604 19.6571,95.8254 19.6571,95.4104 L19.6571,88.2854 C19.6571,86.2174 21.3391,84.5354 23.4071,84.5354 L23.5391,84.5354 C25.6071,84.5354 27.2891,86.2174 27.2891,88.2854 L27.2891,95.4104 C27.2891,95.8254 26.9541,96.1604 26.5391,96.1604 L26.5391,96.1604 Z" id="Fill-32" fill="#354546" mask="url(#mask-2)"></path>
                <polygon id="Fill-33" fill="#A5B5B6" mask="url(#mask-2)" points="46.185 108.461 50.872 108.461 50.872 99.461 46.185 99.461"></polygon>
                <polygon id="Fill-34" fill="#C5D5D6" mask="url(#mask-2)" points="46.185 103.036 50.872 103.036 50.872 99.46 46.185 99.46"></polygon>
                <path d="M46.935,107.711 L50.123,107.711 L50.123,100.211 L46.935,100.211 L46.935,107.711 Z M50.872,109.211 L46.185,109.211 C45.771,109.211 45.435,108.875 45.435,108.461 L45.435,99.461 C45.435,99.046 45.771,98.711 46.185,98.711 L50.872,98.711 C51.286,98.711 51.622,99.046 51.622,99.461 L51.622,108.461 C51.622,108.875 51.286,109.211 50.872,109.211 L50.872,109.211 Z" id="Fill-35" fill="#354546" mask="url(#mask-2)"></path>
                <polygon id="Fill-36" fill="#A5B5B6" mask="url(#mask-2)" points="50.866 106.698 54.051 106.698 54.051 90.798 50.866 90.798"></polygon>
                <path d="M51.616,105.948 L53.301,105.948 L53.301,91.548 L51.616,91.548 L51.616,105.948 Z M54.051,107.448 L50.866,107.448 C50.452,107.448 50.116,107.112 50.116,106.698 L50.116,90.798 C50.116,90.384 50.452,90.048 50.866,90.048 L54.051,90.048 C54.465,90.048 54.801,90.384 54.801,90.798 L54.801,106.698 C54.801,107.112 54.465,107.448 54.051,107.448 L54.051,107.448 Z" id="Fill-37" fill="#354546" mask="url(#mask-2)"></path>
                <path d="M52.3924,85.2854 L52.5244,85.2854 C54.1744,85.2854 55.5244,86.6354 55.5244,88.2854 L55.5244,95.4104 L49.3924,95.4104 L49.3924,88.2854 C49.3924,86.6354 50.7424,85.2854 52.3924,85.2854" id="Fill-38" fill="#A5B5B6" mask="url(#mask-2)"></path>
                <path d="M52.3924,85.2854 L52.5244,85.2854 C54.1744,85.2854 55.5244,86.6354 55.5244,88.2854 L55.5244,91.0234 C55.5244,89.3724 54.1744,88.0234 52.5244,88.0234 L52.3924,88.0234 C50.7424,88.0234 49.3924,89.3724 49.3924,91.0234 L49.3924,88.2854 C49.3924,86.6354 50.7424,85.2854 52.3924,85.2854" id="Fill-39" fill="#C5D5D6" mask="url(#mask-2)"></path>
                <path d="M50.1424,94.6604 L54.7744,94.6604 L54.7744,88.2854 C54.7744,87.0444 53.7654,86.0354 52.5244,86.0354 L52.3924,86.0354 C51.1514,86.0354 50.1424,87.0444 50.1424,88.2854 L50.1424,94.6604 Z M55.5244,96.1604 L49.3924,96.1604 C48.9774,96.1604 48.6424,95.8254 48.6424,95.4104 L48.6424,88.2854 C48.6424,86.2174 50.3244,84.5354 52.3924,84.5354 L52.5244,84.5354 C54.5924,84.5354 56.2744,86.2174 56.2744,88.2854 L56.2744,95.4104 C56.2744,95.8254 55.9384,96.1604 55.5244,96.1604 L55.5244,96.1604 Z" id="Fill-40" fill="#354546" mask="url(#mask-2)"></path>
                <path d="M46.0472,115.9607 C46.0472,117.6107 44.6972,118.9607 43.0472,118.9607 L32.7472,118.9607 C31.0972,118.9607 29.7472,117.6107 29.7472,115.9607 L29.7472,91.9607 C29.7472,90.3107 31.0972,88.9607 32.7472,88.9607 L43.0472,88.9607 C44.6972,88.9607 46.0472,90.3107 46.0472,91.9607 L46.0472,115.9607 Z" id="Fill-41" fill="#6D6D6D" mask="url(#mask-2)"></path>
                <path d="M43.0472,114.3855 L32.7472,114.3855 C31.4072,114.3855 30.1662,113.4955 29.7472,112.2775 L29.7472,115.9605 C29.7472,117.6105 31.0972,118.9605 32.7472,118.9605 L43.0472,118.9605 C44.6972,118.9605 46.0472,117.6105 46.0472,115.9605 L46.0472,112.2775 C45.6282,113.4955 44.3872,114.3855 43.0472,114.3855" id="Fill-42" fill="#5B5B5B" mask="url(#mask-2)"></path>
                <polygon id="Fill-43" fill="#929292" mask="url(#mask-2)" points="45.9564 102.011 29.7474 100.66 29.8374 96.611 45.9564 96.611"></polygon>
                <polygon id="Fill-44" fill="#929292" mask="url(#mask-2)" points="45.9564 105.1604 29.8374 106.2644 29.8374 103.5644 45.9564 103.5644"></polygon>
                <path d="M32.7469,89.7107 C31.5059,89.7107 30.4969,90.7197 30.4969,91.9607 L30.4969,115.9607 C30.4969,117.2017 31.5059,118.2107 32.7469,118.2107 L43.0469,118.2107 C44.2879,118.2107 45.2969,117.2017 45.2969,115.9607 L45.2969,91.9607 C45.2969,90.7197 44.2879,89.7107 43.0469,89.7107 L32.7469,89.7107 Z M43.0469,119.7107 L32.7469,119.7107 C30.6789,119.7107 28.9969,118.0277 28.9969,115.9607 L28.9969,91.9607 C28.9969,89.8927 30.6789,88.2107 32.7469,88.2107 L43.0469,88.2107 C45.1149,88.2107 46.7969,89.8927 46.7969,91.9607 L46.7969,115.9607 C46.7969,118.0277 45.1149,119.7107 43.0469,119.7107 L43.0469,119.7107 Z" id="Fill-45" fill="#121212" mask="url(#mask-2)"></path>
                <path d="M46.0838,85.2854 L29.7098,85.2854 C27.9288,85.2854 26.4708,86.6354 26.4708,88.2854 L26.4708,92.6354 L49.3228,92.6354 L49.3228,88.2854 C49.3228,86.6354 47.8658,85.2854 46.0838,85.2854" id="Fill-46" fill="#A5B5B6" mask="url(#mask-2)"></path>
                <path d="M46.0838,85.2854 L29.7098,85.2854 C27.9288,85.2854 26.4708,86.6354 26.4708,88.2854 L49.3228,88.2854 C49.3228,86.6354 47.8658,85.2854 46.0838,85.2854" id="Fill-47" fill="#C5D5D6" mask="url(#mask-2)"></path>
                <path d="M27.2206,91.8855 L48.5736,91.8855 L48.5736,88.2855 C48.5736,87.0445 47.4566,86.0355 46.0836,86.0355 L29.7096,86.0355 C28.3376,86.0355 27.2206,87.0445 27.2206,88.2855 L27.2206,91.8855 Z M49.3236,93.3855 L26.4706,93.3855 C26.0566,93.3855 25.7206,93.0495 25.7206,92.6355 L25.7206,88.2855 C25.7206,86.2175 27.5106,84.5355 29.7096,84.5355 L46.0836,84.5355 C48.2836,84.5355 50.0736,86.2175 50.0736,88.2855 L50.0736,92.6355 C50.0736,93.0495 49.7376,93.3855 49.3236,93.3855 L49.3236,93.3855 Z" id="Fill-48" fill="#354546" mask="url(#mask-2)"></path>
                <path d="M33.3968,87.4661 C32.9828,87.4661 32.6468,87.1311 32.6468,86.7161 L32.6468,84.2311 C32.6468,83.8161 32.9828,83.4811 33.3968,83.4811 C33.8118,83.4811 34.1468,83.8161 34.1468,84.2311 L34.1468,86.7161 C34.1468,87.1311 33.8118,87.4661 33.3968,87.4661" id="Fill-49" fill="#354546" mask="url(#mask-2)"></path>
                <path d="M36.3968,87.4661 C35.9828,87.4661 35.6468,87.1311 35.6468,86.7161 L35.6468,84.2311 C35.6468,83.8161 35.9828,83.4811 36.3968,83.4811 C36.8118,83.4811 37.1468,83.8161 37.1468,84.2311 L37.1468,86.7161 C37.1468,87.1311 36.8118,87.4661 36.3968,87.4661" id="Fill-50" fill="#354546" mask="url(#mask-2)"></path>
                <path d="M39.3968,87.4661 C38.9828,87.4661 38.6468,87.1311 38.6468,86.7161 L38.6468,84.2311 C38.6468,83.8161 38.9828,83.4811 39.3968,83.4811 C39.8118,83.4811 40.1468,83.8161 40.1468,84.2311 L40.1468,86.7161 C40.1468,87.1311 39.8118,87.4661 39.3968,87.4661" id="Fill-51" fill="#354546" mask="url(#mask-2)"></path>
                <path d="M42.3968,87.4661 C41.9828,87.4661 41.6468,87.1311 41.6468,86.7161 L41.6468,84.2311 C41.6468,83.8161 41.9828,83.4811 42.3968,83.4811 C42.8118,83.4811 43.1468,83.8161 43.1468,84.2311 L43.1468,86.7161 C43.1468,87.1311 42.8118,87.4661 42.3968,87.4661" id="Fill-52" fill="#354546" mask="url(#mask-2)"></path>
                <path d="M60.2484,21.1125 C60.2374,21.1125 60.2274,21.1125 60.2164,21.1115 C59.8024,21.0945 59.4804,20.7445 59.4984,20.3305 L59.9284,10.2085 C59.9944,8.4195 59.3524,6.7015 58.1214,5.3765 C56.8904,4.0505 55.2254,3.2845 53.4314,3.2185 C53.4244,3.2175 53.4174,3.2175 53.4104,3.2175 L27.3504,1.5045 C23.6354,1.3665 20.5034,4.2855 20.3664,8.0015 L19.9364,18.8755 C19.9204,19.2895 19.5714,19.6115 19.1574,19.5945 C18.7434,19.5785 18.4214,19.2295 18.4374,18.8165 L18.8674,7.9445 C19.0354,3.4005 22.8704,-0.1605 27.4154,0.0065 C27.4234,0.0065 27.4304,0.0065 27.4374,0.0075 L53.4984,1.7195 C55.6874,1.8035 57.7194,2.7395 59.2204,4.3555 C60.7244,5.9745 61.5074,8.0745 61.4264,10.2685 L60.9974,20.3945 C60.9804,20.7975 60.6474,21.1125 60.2484,21.1125" id="Fill-53" fill="#354546" mask="url(#mask-2)"></path>
                <path d="M14.9041,19.7639 C13.6101,19.7159 12.5021,21.0259 12.4411,22.6749 L12.0671,32.8089 C12.0061,34.4579 13.0141,35.8459 14.3081,35.8939 C15.6021,35.9419 16.6601,35.9809 16.6601,35.9809 L17.2561,19.8509 C17.2561,19.8509 16.1981,19.8119 14.9041,19.7639" id="Fill-54" fill="#A5B5B6" mask="url(#mask-2)"></path>
                <path d="M12.4413,22.675 L12.2583,27.635 L16.9623,27.809 L17.2563,19.851 C17.2563,19.851 16.1983,19.812 14.9043,19.764 C13.6103,19.716 12.5023,21.026 12.4413,22.675" id="Fill-55" fill="#C5D5D6" mask="url(#mask-2)"></path>
                <path d="M16.6327,36.7302 L14.2807,36.6432 C13.4327,36.6122 12.6277,36.1562 12.0727,35.3932 C11.5497,34.6732 11.2817,33.7462 11.3177,32.7812 L11.6917,22.6472 C11.7677,20.5812 13.2207,18.9502 14.9317,19.0142 L17.2837,19.1012 L17.2287,20.6002 L14.8767,20.5132 L14.8357,20.5132 C13.9837,20.5132 13.2347,21.5032 13.1907,22.7032 L12.8167,32.8362 C12.7937,33.4582 12.9647,34.0682 13.2867,34.5112 C13.5727,34.9052 13.9447,35.1292 14.3357,35.1442 L16.6887,35.2312 L16.6327,36.7302 Z" id="Fill-56" fill="#354546" mask="url(#mask-2)"></path>
                <polygon id="Fill-57" fill="#859596" mask="url(#mask-2)" points="20.9759 38.5393 16.5719 38.3763 17.2959 18.7753 21.7009 18.9383"></polygon>
                <polygon id="Fill-58" fill="#A5B5B6" mask="url(#mask-2)" points="21.286 30.1531 16.882 29.9901 17.296 18.7761 21.701 18.9381"></polygon>
                <path d="M17.349,37.655 L20.254,37.762 L20.923,19.66 L18.018,19.553 L17.349,37.655 Z M20.976,39.289 L20.949,39.289 L16.544,39.126 C16.13,39.111 15.807,38.763 15.823,38.349 L16.547,18.748 C16.562,18.334 16.91,18.013 17.324,18.026 L21.728,18.189 C21.927,18.196 22.115,18.282 22.25,18.428 C22.385,18.573 22.457,18.767 22.45,18.966 L21.725,38.567 C21.718,38.766 21.632,38.953 21.487,39.089 C21.348,39.218 21.165,39.289 20.976,39.289 L20.976,39.289 Z" id="Fill-59" fill="#354546" mask="url(#mask-2)"></path>
                <path d="M12.2581,28.385 L12.2571,28.385 L10.4551,28.381 C10.0411,28.381 9.7061,28.044 9.7071,27.63 C9.7081,27.216 10.0431,26.881 10.4571,26.881 L10.4581,26.881 L12.2591,26.885 C12.6741,26.886 13.0081,27.222 13.0081,27.636 C13.0071,28.05 12.6711,28.385 12.2581,28.385" id="Fill-60" fill="#354546" mask="url(#mask-2)"></path>
                <path d="M67.3324,10.5559 C67.2464,10.5559 67.1594,10.5449 67.0724,10.5229 C66.5104,10.3799 66.1704,9.8079 66.3134,9.2459 L67.0904,6.1979 C67.2334,5.6359 67.8054,5.2969 68.3674,5.4399 C68.9294,5.5829 69.2694,6.1539 69.1254,6.7159 L68.3494,9.7649 C68.2284,10.2399 67.8014,10.5559 67.3324,10.5559" id="Fill-61" fill="#354546" mask="url(#mask-2)"></path>
                <path d="M64.2543,22.3376 C64.1923,22.3376 64.1303,22.3296 64.0683,22.3146 C63.6673,22.2116 63.4243,21.8036 63.5263,21.4016 L66.6053,9.3196 C66.7073,8.9186 67.1153,8.6756 67.5173,8.7786 C67.9183,8.8806 68.1603,9.2896 68.0583,9.6906 L64.9803,21.7726 C64.8943,22.1116 64.5883,22.3376 64.2543,22.3376" id="Fill-62" fill="#354546" mask="url(#mask-2)"></path>
                <path d="M64.2538,21.5872 C65.5468,21.6352 66.5558,23.0232 66.4948,24.6722 L66.1208,34.8062 C66.0598,36.4552 64.9518,37.7652 63.6578,37.7172 C62.3638,37.6692 61.3058,37.6302 61.3058,37.6302 L61.9008,21.5002 C61.9008,21.5002 62.9598,21.5392 64.2538,21.5872" id="Fill-63" fill="#A5B5B6" mask="url(#mask-2)"></path>
                <path d="M66.495,24.6721 L66.312,29.6321 L61.607,29.4581 L61.901,21.5001 C61.901,21.5001 62.96,21.5391 64.254,21.5871 C65.547,21.6351 66.556,23.0231 66.495,24.6721" id="Fill-64" fill="#C5D5D6" mask="url(#mask-2)"></path>
                <path d="M63.724,38.468 C63.693,38.468 63.662,38.468 63.63,38.466 L61.278,38.38 L61.333,36.881 L63.685,36.968 C64.076,36.984 64.464,36.785 64.779,36.413 C65.132,35.995 65.348,35.4 65.371,34.778 L65.745,24.644 C65.768,24.023 65.597,23.413 65.276,22.97 C64.989,22.576 64.617,22.351 64.226,22.337 L61.874,22.25 C61.46,22.235 61.137,21.886 61.152,21.472 C61.167,21.059 61.514,20.735 61.929,20.751 L64.281,20.838 C65.13,20.869 65.934,21.325 66.489,22.089 C67.012,22.808 67.28,23.736 67.245,24.7 L66.87,34.834 C66.834,35.798 66.498,36.703 65.924,37.382 C65.337,38.076 64.54,38.468 63.724,38.468" id="Fill-65" fill="#354546" mask="url(#mask-2)"></path>
                <polygon id="Fill-66" fill="#859596" mask="url(#mask-2)" points="56.8128 39.8635 61.2168 40.0265 61.9408 20.4255 57.5368 20.2625"></polygon>
                <polygon id="Fill-67" fill="#A5B5B6" mask="url(#mask-2)" points="57.1224 31.4768 61.5264 31.6398 61.9414 20.4248 57.5374 20.2628"></polygon>
                <path d="M57.5897,39.1418 L60.4947,39.2488 L61.1637,21.1468 L58.2587,21.0398 L57.5897,39.1418 Z M61.2167,40.7758 L61.1897,40.7758 L56.7847,40.6128 C56.5867,40.6058 56.3987,40.5198 56.2627,40.3738 C56.1277,40.2278 56.0557,40.0348 56.0637,39.8358 L56.7877,20.2348 C56.7947,20.0358 56.8807,19.8478 57.0267,19.7128 C57.1727,19.5778 57.3657,19.5068 57.5647,19.5128 L61.9687,19.6758 C62.3827,19.6908 62.7057,20.0388 62.6907,20.4528 L61.9657,40.0538 C61.9517,40.4578 61.6187,40.7758 61.2167,40.7758 L61.2167,40.7758 Z" id="Fill-68" fill="#354546" mask="url(#mask-2)"></path>
                <path d="M68.1092,30.5115 C68.0912,30.5115 68.0722,30.5105 68.0542,30.5095 L66.2582,30.3805 C65.8452,30.3505 65.5342,29.9915 65.5642,29.5775 C65.5932,29.1645 65.9532,28.8545 66.3652,28.8845 L68.1622,29.0135 C68.5752,29.0425 68.8862,29.4025 68.8562,29.8155 C68.8282,30.2105 68.4992,30.5115 68.1092,30.5115" id="Fill-69" fill="#354546" mask="url(#mask-2)"></path>
                <path d="M20.9081,44.677 C19.8821,44.677 17.2731,45.791 16.1681,47.052 C15.2291,48.121 15.0781,49.907 15.8391,50.951 C16.1501,51.379 16.5601,51.615 17.0241,51.636 C17.5551,51.657 18.1131,51.386 18.5541,50.885 C19.0861,50.278 19.9991,48.897 20.6431,47.535 C21.4761,45.774 21.4441,44.963 21.3111,44.78 C21.2701,44.724 21.1411,44.686 20.9661,44.678 C20.9481,44.677 20.9281,44.677 20.9081,44.677 M17.0891,53.138 C17.0451,53.138 17.0011,53.137 16.9561,53.135 C16.0341,53.093 15.2071,52.631 14.6271,51.835 C13.4441,50.21 13.6251,47.675 15.0401,46.062 C16.0871,44.869 19.1331,43.098 21.0341,43.179 C21.8601,43.217 22.3001,43.59 22.5231,43.897 C23.1351,44.737 22.9641,46.136 21.9991,48.177 C21.2901,49.678 20.2961,51.173 19.6811,51.874 C18.9711,52.682 18.0331,53.138 17.0891,53.138" id="Fill-70" fill="#19B5FE" mask="url(#mask-2)"></path>
                <path d="M53.8148,42.634 L53.8168,42.634 L53.8148,42.634 Z M55.3378,42.899 C54.8798,42.899 54.5258,42.974 54.3588,43.151 L54.3588,43.151 C54.2338,43.282 54.2408,43.543 54.2678,43.738 C54.4398,44.976 55.7828,46.729 56.5338,47.173 C57.4928,47.74 59.0548,47.43 59.9428,46.494 C60.3688,46.046 60.5758,45.519 60.5108,45.05 C60.4588,44.676 60.2378,44.363 59.8718,44.147 C58.8068,43.517 56.6478,42.899 55.3378,42.899 L55.3378,42.899 Z M57.6798,48.96 C56.9988,48.96 56.3368,48.799 55.7708,48.464 C54.6058,47.776 53.0138,45.606 52.7818,43.945 C52.6498,42.999 52.9758,42.429 53.2718,42.117 C54.8978,40.406 59.5848,42.234 60.6358,42.856 C61.3978,43.306 61.8808,44.012 61.9968,44.843 C62.1248,45.767 61.7728,46.746 61.0308,47.528 C60.1478,48.456 58.8858,48.959 57.6798,48.96 L57.6798,48.96 Z" id="Fill-71" fill="#19B5FE" mask="url(#mask-2)"></path>
                <path d="M14.5394,41.7395 C14.1274,41.7395 13.7744,41.7715 13.5134,41.8355 C11.8944,42.2335 10.8174,44.0845 11.1124,45.9615 C11.2614,46.9125 11.7534,47.7285 12.4614,48.1995 C13.0524,48.5935 13.7544,48.7175 14.4384,48.5485 C15.3354,48.3285 17.0524,47.5825 18.4684,46.6335 C19.9394,45.6475 20.7574,44.6735 20.6554,44.0265 C20.5954,43.6425 20.1944,43.3035 19.8684,43.0875 C18.5404,42.2035 16.1154,41.7395 14.5394,41.7395 M13.8344,50.1225 C13.0594,50.1225 12.3004,49.8935 11.6314,49.4485 C10.5744,48.7455 9.8454,47.5595 9.6304,46.1945 C9.2174,43.5665 10.7994,40.9575 13.1554,40.3785 C14.9144,39.9465 18.7404,40.5345 20.6994,41.8385 C21.5374,42.3955 22.0214,43.0535 22.1374,43.7945 C22.6034,46.7605 16.7264,49.5315 14.7964,50.0055 C14.4764,50.0845 14.1544,50.1225 13.8344,50.1225" id="Fill-72" fill="#719911" mask="url(#mask-2)"></path>
                <path d="M56.4618,47.3103 C56.3098,51.4323 52.8098,54.7913 48.6848,54.7743 L27.0658,54.6843 C22.9408,54.6673 19.8278,51.2883 20.1488,47.1763 L22.5358,13.3293 C22.8578,9.2173 26.4828,6.1363 30.5928,6.4833 L50.3618,8.1543 C54.4718,8.5013 57.7108,12.1583 57.5578,16.2803 L56.4618,47.3103 Z" id="Fill-73" fill="#A5B5B6" mask="url(#mask-2)"></path>
                <path d="M53.0365,41.0164 C52.9245,44.0484 50.1205,46.5094 46.8065,46.4864 L29.4355,46.3664 C26.1215,46.3434 23.6125,43.8504 23.8595,40.8264 L25.6965,16.9304 C25.9435,13.9064 28.8495,11.6504 32.1525,11.9154 L48.0405,13.1944 C51.3435,13.4604 53.9545,16.1584 53.8425,19.1894 L53.0365,41.0164 Z" id="Fill-74" fill="#C5D5D6" mask="url(#mask-2)"></path>
                <path d="M50.2586,51.4353 L26.7646,51.2763 C23.8496,51.2563 21.3956,49.8153 20.1286,47.6793 C20.0876,51.5603 23.1096,54.6673 27.0656,54.6843 L48.6846,54.7743 C52.1436,54.7883 55.1616,52.4283 56.1366,49.2353 C54.6056,50.6053 52.5196,51.4513 50.2586,51.4353" id="Fill-75" fill="#859596" mask="url(#mask-2)"></path>
                <path d="M50.3197,52.1858 L50.2537,52.1858 L26.7597,52.0258 C23.6637,52.0058 20.9447,50.5238 19.4837,48.0618 C19.2717,47.7058 19.3897,47.2458 19.7457,47.0348 C20.1017,46.8228 20.5617,46.9398 20.7737,47.2968 C21.9637,49.3018 24.2047,50.5088 26.7697,50.5258 L50.2637,50.6858 C52.2617,50.7028 54.1737,49.9858 55.6367,48.6758 C55.9447,48.3998 56.4197,48.4268 56.6947,48.7348 C56.9717,49.0438 56.9447,49.5178 56.6367,49.7938 C54.9117,51.3378 52.6707,52.1858 50.3197,52.1858" id="Fill-76" fill="#354546" mask="url(#mask-2)"></path>
                <path d="M56.4618,47.3103 L56.4628,47.3103 L56.4618,47.3103 Z M29.9578,7.2063 C28.3738,7.2063 26.8548,7.7643 25.6288,8.8063 C24.2558,9.9723 23.4238,11.5993 23.2838,13.3883 L20.8968,47.2283 C20.7578,49.0133 21.3238,50.6903 22.4908,51.9573 C23.6588,53.2253 25.2838,53.9273 27.0678,53.9343 L48.6878,54.0243 L48.7168,54.0243 C52.4398,54.0243 55.5748,51.0063 55.7118,47.2823 L56.8088,16.2543 C56.9468,12.5143 54.0258,9.2163 50.2988,8.9013 L30.5298,7.2313 C30.3378,7.2143 30.1478,7.2063 29.9578,7.2063 L29.9578,7.2063 Z M48.7158,55.5243 L48.6818,55.5243 L27.0618,55.4343 C24.8568,55.4253 22.8408,54.5513 21.3878,52.9743 C19.9348,51.3963 19.2298,49.3163 19.4008,47.1183 L21.7878,13.2763 C21.9598,11.0813 22.9788,9.0893 24.6578,7.6623 C26.3368,6.2353 28.4678,5.5523 30.6558,5.7363 L50.4248,7.4073 C54.9388,7.7883 58.4748,11.7813 58.3078,16.3083 L57.2118,47.3363 C57.2118,47.3363 57.2118,47.3373 57.2108,47.3383 C57.0438,51.8593 53.2368,55.5243 48.7158,55.5243 L48.7158,55.5243 Z" id="Fill-77" fill="#354546" mask="url(#mask-2)"></path>
                <path d="M39.9349,16.2961 C35.8269,16.2961 30.9309,15.0351 30.9309,9.0241 C30.9309,8.0811 31.0529,7.4551 31.2919,6.5621 C31.3999,6.1621 31.8119,5.9251 32.2109,6.0321 C32.6119,6.1401 32.8489,6.5511 32.7409,6.9511 C32.5259,7.7501 32.4309,8.2391 32.4309,9.0241 C32.4309,10.4521 32.4309,14.7961 39.9349,14.7961 C47.4719,14.7961 47.4719,10.4521 47.4719,9.0241 C47.4719,8.7061 47.4549,8.3861 47.4229,8.0721 C47.3799,7.6601 47.6799,7.2921 48.0919,7.2491 C48.5039,7.2081 48.8729,7.5061 48.9149,7.9181 C48.9529,8.2831 48.9719,8.6551 48.9719,9.0241 C48.9719,12.3421 47.4039,16.2961 39.9349,16.2961" id="Fill-78" fill="#354546" mask="url(#mask-2)"></path>
                <path d="M35.1522,25.9431 C34.9872,30.4141 31.2292,33.9031 26.7582,33.7381 C22.2882,33.5731 18.7982,29.8161 18.9632,25.3451 C19.1292,20.8751 22.8862,17.3841 27.3572,17.5491 C31.8272,17.7141 35.3172,21.4731 35.1522,25.9431" id="Fill-79" fill="#C5D5D6" mask="url(#mask-2)"></path>
                <path d="M27.0511,18.2937 C25.1911,18.2937 23.4261,18.9857 22.0561,20.2587 C20.6171,21.5947 19.7851,23.4107 19.7131,25.3727 C19.6401,27.3347 20.3361,29.2077 21.6721,30.6457 C23.0081,32.0847 24.8241,32.9167 26.7861,32.9887 C28.7481,33.0637 30.6211,32.3657 32.0591,31.0297 C33.4981,29.6937 34.3301,27.8767 34.4031,25.9157 C34.4751,23.9537 33.7801,22.0807 32.4431,20.6427 C31.1071,19.2037 29.2911,18.3717 27.3291,18.2987 C27.2361,18.2957 27.1431,18.2937 27.0511,18.2937 M27.0661,34.4947 C26.9541,34.4947 26.8431,34.4927 26.7311,34.4877 C24.3681,34.4007 22.1821,33.3987 20.5731,31.6667 C18.9651,29.9347 18.1271,27.6797 18.2141,25.3167 C18.3011,22.9547 19.3031,20.7677 21.0351,19.1597 C22.7671,17.5507 25.0221,16.7147 27.3841,16.7997 C29.7471,16.8877 31.9341,17.8897 33.5421,19.6217 C35.1511,21.3537 35.9891,23.6087 35.9021,25.9707 C35.8141,28.3337 34.8121,30.5207 33.0801,32.1287 C31.4301,33.6617 29.3051,34.4947 27.0661,34.4947" id="Fill-80" fill="#354546" mask="url(#mask-2)"></path>
                <path d="M32.2772,25.8367 C32.1712,28.7197 29.7472,30.9697 26.8652,30.8637 C23.9832,30.7567 21.7322,28.3337 21.8392,25.4517 C21.9452,22.5687 24.3682,20.3187 27.2512,20.4247 C30.1332,20.5317 32.3832,22.9547 32.2772,25.8367" id="Fill-81" fill="#9ABD45" mask="url(#mask-2)"></path>
                <path d="M30.3587,24.2351 C30.2927,26.0271 28.7857,27.4251 26.9947,27.3601 C25.2027,27.2931 23.8037,25.7871 23.8697,23.9951 C23.9367,22.2041 25.4417,20.8051 27.2337,20.8711 C29.0257,20.9371 30.4247,22.4431 30.3587,24.2351" id="Fill-82" fill="#CEEC87" mask="url(#mask-2)"></path>
                <path d="M27.0536,21.1711 C25.9216,21.1711 24.8476,21.5921 24.0136,22.3671 C23.1386,23.1801 22.6326,24.2851 22.5886,25.4791 C22.5436,26.6721 22.9676,27.8131 23.7806,28.6881 C24.5936,29.5631 25.6996,30.0691 26.8926,30.1131 C28.0866,30.1601 29.2266,29.7341 30.1016,28.9211 C30.9766,28.1081 31.4836,27.0031 31.5276,25.8091 C31.5716,24.6151 31.1486,23.4761 30.3356,22.6001 C29.5226,21.7251 28.4166,21.2181 27.2226,21.1741 C27.1666,21.1721 27.1096,21.1711 27.0536,21.1711 M27.0636,31.6171 C26.9886,31.6171 26.9126,31.6151 26.8376,31.6131 C25.2426,31.5541 23.7666,30.8781 22.6816,29.7091 C21.5956,28.5401 21.0306,27.0181 21.0896,25.4231 C21.1476,23.8291 21.8246,22.3531 22.9926,21.2681 C24.1626,20.1821 25.6836,19.6151 27.2786,19.6751 C28.8726,19.7341 30.3486,20.4101 31.4346,21.5801 C32.5196,22.7481 33.0856,24.2701 33.0266,25.8641 C32.9676,27.4591 32.2916,28.9351 31.1226,30.0201 C30.0086,31.0551 28.5746,31.6171 27.0636,31.6171" id="Fill-83" fill="#354546" mask="url(#mask-2)"></path>
                <path d="M28.4037,22.1697 C28.7357,22.9117 27.6977,23.5447 26.3407,24.1527 C24.9827,24.7607 23.8187,25.1117 23.4867,24.3707 C23.1547,23.6277 23.9867,22.5347 25.3437,21.9267 C26.7017,21.3187 28.0717,21.4277 28.4037,22.1697" id="Fill-84" fill="#FFFFFF" mask="url(#mask-2)"></path>
                <path d="M27.4666,29.3503 C27.3806,29.1573 27.6496,28.9933 28.0026,28.8353 C28.3546,28.6773 28.6566,28.5863 28.7426,28.7793 C28.8286,28.9713 28.6126,29.2553 28.2606,29.4133 C27.9086,29.5713 27.5526,29.5423 27.4666,29.3503" id="Fill-85" fill="#FFFFFF" mask="url(#mask-2)"></path>
                <path d="M31.8612,25.7825 C31.8362,26.4635 31.2632,26.9945 30.5832,26.9695 C29.9032,26.9445 29.3712,26.3725 29.3972,25.6915 C29.4222,25.0115 29.9942,24.4795 30.6742,24.5055 C31.3552,24.5305 31.8862,25.1025 31.8612,25.7825" id="Fill-86" fill="#354546" mask="url(#mask-2)"></path>
                <path d="M57.9906,27.2903 C57.8506,31.0793 54.6666,32.3863 50.8786,32.2463 C47.0896,32.1063 44.1326,30.5723 44.2726,26.7833 C44.4116,22.9953 47.5966,20.0383 51.3846,20.1783 C55.1736,20.3173 58.1306,23.5023 57.9906,27.2903" id="Fill-87" fill="#C5D5D6" mask="url(#mask-2)"></path>
                <path d="M51.1258,20.9231 C49.5788,20.9231 48.1108,21.4981 46.9708,22.5571 C45.7738,23.6681 45.0818,25.1791 45.0218,26.8111 C44.9648,28.3521 45.4628,29.4861 46.5448,30.2771 C47.5418,31.0061 49.0488,31.4281 50.9058,31.4971 C56.0048,31.6881 57.1658,29.2981 57.2408,27.2631 C57.3018,25.6311 56.7228,24.0731 55.6108,22.8761 C54.4998,21.6801 52.9888,20.9871 51.3568,20.9271 C51.2798,20.9241 51.2028,20.9231 51.1258,20.9231 M51.4288,33.0061 C51.2388,33.0061 51.0458,33.0031 50.8508,32.9961 C48.6628,32.9151 46.9158,32.4081 45.6588,31.4881 C44.1868,30.4111 43.4478,28.7751 43.5228,26.7561 C43.5978,24.7231 44.4598,22.8421 45.9498,21.4581 C47.4398,20.0741 49.3798,19.3511 51.4128,19.4281 C53.4448,19.5041 55.3268,20.3651 56.7098,21.8561 C58.0948,23.3461 58.8148,25.2861 58.7398,27.3181 C58.6058,30.9541 55.9508,33.0061 51.4288,33.0061" id="Fill-88" fill="#354546" mask="url(#mask-2)"></path>
                <path d="M55.554,27.2004 C55.464,29.6424 53.41,29.9004 50.968,29.8094 C48.525,29.7194 46.618,29.3164 46.709,26.8734 C46.799,24.4304 48.852,22.5244 51.295,22.6144 C53.738,22.7044 55.644,24.7574 55.554,27.2004" id="Fill-89" fill="#19B5FE" mask="url(#mask-2)"></path>
                <path d="M53.8807,25.6677 C53.8247,27.1857 52.6497,27.7497 51.1307,27.6937 C49.6127,27.6377 48.3257,26.9827 48.3817,25.4647 C48.4387,23.9467 49.7147,22.7607 51.2337,22.8167 C52.7517,22.8737 53.9367,24.1487 53.8807,25.6677" id="Fill-90" fill="#39D5FF" mask="url(#mask-2)"></path>
                <path d="M51.1283,23.3611 C50.1973,23.3611 49.3153,23.7071 48.6303,24.3431 C47.9103,25.0121 47.4943,25.9201 47.4583,26.9011 C47.4003,28.4531 48.2273,28.9581 50.9963,29.0601 C54.1353,29.1791 54.7563,28.4861 54.8043,27.1731 C54.8793,25.1471 53.2923,23.4391 51.2673,23.3641 C51.2203,23.3621 51.1743,23.3611 51.1283,23.3611 M51.8063,30.5801 C51.4883,30.5801 51.1943,30.5691 50.9403,30.5591 C49.2813,30.4981 45.8293,30.3701 45.9593,26.8461 C46.0103,25.4651 46.5963,24.1851 47.6093,23.2451 C48.6223,22.3041 49.9413,21.8141 51.3223,21.8651 C54.1743,21.9701 56.4093,24.3761 56.3033,27.2281 C56.1923,30.2261 53.6183,30.5801 51.8063,30.5801" id="Fill-91" fill="#354546" mask="url(#mask-2)"></path>
                <path d="M52.2718,24.093 C52.5528,24.721 51.6738,25.259 50.5238,25.774 C49.3728,26.288 48.3868,26.586 48.1048,25.958 C47.8238,25.329 48.5288,24.402 49.6788,23.887 C50.8298,23.372 51.9908,23.464 52.2718,24.093" id="Fill-92" fill="#FFFFFF" mask="url(#mask-2)"></path>
                <path d="M52.5892,28.5876 C52.5162,28.4236 52.7442,28.2846 53.0432,28.1506 C53.3412,28.0176 53.5972,27.9406 53.6702,28.1036 C53.7432,28.2666 53.5602,28.5066 53.2622,28.6406 C52.9632,28.7746 52.6622,28.7506 52.5892,28.5876" id="Fill-93" fill="#FFFFFF" mask="url(#mask-2)"></path>
                <path d="M49.2147,27.0051 C49.1937,27.5821 48.7087,28.0321 48.1317,28.0101 C47.5547,27.9891 47.1047,27.5051 47.1267,26.9281 C47.1477,26.3511 47.6327,25.9011 48.2087,25.9221 C48.7857,25.9431 49.2357,26.4281 49.2147,27.0051" id="Fill-94" fill="#354546" mask="url(#mask-2)"></path>
                <path d="M27.1937,40.6384 L49.9397,35.5564 C49.9397,35.5564 51.2177,42.5634 45.6867,44.6074 C35.9447,48.2084 27.1937,40.6384 27.1937,40.6384" id="Fill-95" fill="#FFFFFF" mask="url(#mask-2)"></path>
                <path d="M27.1937,40.6384 L27.1947,40.6384 L27.1937,40.6384 Z M28.9467,41.0144 C29.8997,41.6684 31.3447,42.5524 33.1217,43.3004 C37.4447,45.1204 41.5847,45.3244 45.4257,43.9044 C47.4437,43.1584 48.6937,41.5824 49.1417,39.2194 C49.3467,38.1424 49.3347,37.1324 49.2877,36.4704 L28.9467,41.0144 Z M40.2367,46.3214 C37.7107,46.3214 35.0997,45.7674 32.4947,44.6634 C29.0197,43.1924 26.7957,41.2854 26.7027,41.2054 C26.4887,41.0204 26.3977,40.7294 26.4657,40.4554 C26.5357,40.1804 26.7537,39.9684 27.0297,39.9064 L49.7757,34.8244 C49.9747,34.7804 50.1837,34.8184 50.3537,34.9304 C50.5237,35.0434 50.6407,35.2214 50.6767,35.4214 C50.6917,35.4984 51.0167,37.3334 50.6247,39.4514 C50.0877,42.3524 48.4697,44.3784 45.9457,45.3104 C44.1227,45.9854 42.2047,46.3214 40.2367,46.3214 L40.2367,46.3214 Z" id="Fill-96" fill="#354546" mask="url(#mask-2)"></path>
                <path d="M33.6185,45.0559 C33.2435,45.0559 32.9195,44.7749 32.8745,44.3929 L32.2895,39.4209 C32.2415,39.0099 32.5355,38.6369 32.9475,38.5889 C33.3585,38.5399 33.7305,38.8339 33.7795,39.2459 L34.3645,44.2189 C34.4125,44.6299 34.1185,45.0019 33.7065,45.0509 C33.6775,45.0549 33.6475,45.0559 33.6185,45.0559" id="Fill-97" fill="#354546" mask="url(#mask-2)"></path>
                <path d="M39.0687,46.0652 C38.6667,46.0652 38.3337,45.7472 38.3197,45.3412 L38.0647,38.0682 C38.0497,37.6542 38.3737,37.3072 38.7877,37.2932 C39.2007,37.2792 39.5487,37.6022 39.5637,38.0162 L39.8187,45.2892 C39.8337,45.7032 39.5097,46.0502 39.0957,46.0652 L39.0687,46.0652" id="Fill-98" fill="#354546" mask="url(#mask-2)"></path>
                <path d="M44.6361,45.3577 C44.2251,45.3577 43.8911,45.0267 43.8861,44.6157 L43.8031,36.7677 C43.7981,36.3537 44.1301,36.0147 44.5441,36.0097 L44.5531,36.0097 C44.9631,36.0097 45.2981,36.3407 45.3031,36.7517 L45.3861,44.5997 C45.3901,45.0137 45.0581,45.3537 44.6441,45.3577 L44.6361,45.3577 Z" id="Fill-99" fill="#354546" mask="url(#mask-2)"></path>
                <path d="M10.5741,68.114 C11.2911,68.522 11.5451,69.442 11.1371,70.159 L10.7701,70.805 C10.3631,71.522 9.4421,71.775 8.7251,71.368 L2.1691,67.642 C1.4521,67.235 1.1991,66.314 1.6061,65.597 L1.9731,64.951 C2.3801,64.234 3.3011,63.981 4.0181,64.388 L10.5741,68.114 Z" id="Fill-100" fill="#A5B5B6" mask="url(#mask-2)"></path>
                <path d="M3.2811,64.9436 C3.2141,64.9436 3.1451,64.9526 3.0781,64.9716 C2.8841,65.0246 2.7231,65.1496 2.6251,65.3216 L2.2581,65.9676 C2.0541,66.3266 2.1801,66.7856 2.5401,66.9896 L9.0951,70.7156 C9.2681,70.8136 9.4701,70.8386 9.6651,70.7846 C9.8591,70.7316 10.0201,70.6066 10.1181,70.4346 L10.4851,69.7886 C10.5831,69.6156 10.6081,69.4136 10.5541,69.2196 C10.5011,69.0256 10.3761,68.8646 10.2031,68.7656 L3.6471,65.0406 C3.5341,64.9766 3.4091,64.9436 3.2811,64.9436 M9.4601,72.3136 C9.0751,72.3136 8.6971,72.2146 8.3541,72.0196 L1.7991,68.2946 C0.7201,67.6806 0.3411,66.3046 0.9541,65.2266 L1.3211,64.5806 C1.6171,64.0596 2.1001,63.6846 2.6801,63.5256 C3.2601,63.3656 3.8671,63.4406 4.3881,63.7366 L10.9451,67.4626 C11.4661,67.7576 11.8411,68.2406 12.0001,68.8216 C12.1601,69.4016 12.0851,70.0086 11.7891,70.5296 L11.4231,71.1746 C11.1261,71.6966 10.6431,72.0716 10.0631,72.2316 C9.8641,72.2856 9.6601,72.3136 9.4601,72.3136" id="Fill-101" fill="#354546" mask="url(#mask-2)"></path>
                <path d="M11.7953,68.8459 L10.2623,67.9749 C8.8283,67.1599 6.9873,67.6659 6.1713,69.1009 L5.3013,70.6339 C4.4853,72.0689 4.9923,73.9089 6.4273,74.7239 L7.9603,75.5959 C9.3943,76.4099 11.2353,75.9039 12.0503,74.4699 L12.9213,72.9359 C13.7363,71.5019 13.2303,69.6609 11.7953,68.8459" id="Fill-102" fill="#A5B5B6" mask="url(#mask-2)"></path>
                <path d="M8.7899,68.3347 C8.5879,68.3347 8.3849,68.3617 8.1839,68.4177 C7.6029,68.5777 7.1199,68.9517 6.8239,69.4717 L5.9529,71.0047 C5.6579,71.5237 5.5829,72.1307 5.7439,72.7117 C5.9039,73.2937 6.2779,73.7767 6.7979,74.0717 L8.3309,74.9437 C9.4089,75.5557 10.7859,75.1777 11.3979,74.0987 L12.2689,72.5657 C12.8819,71.4867 12.5029,70.1107 11.4249,69.4977 L9.8919,68.6267 C9.5519,68.4337 9.1739,68.3347 8.7899,68.3347 M9.4359,76.7367 C8.8089,76.7367 8.1729,76.5787 7.5889,76.2477 L6.0569,75.3767 C5.1879,74.8827 4.5639,74.0787 4.2969,73.1097 C4.0309,72.1427 4.1559,71.1307 4.6489,70.2637 L5.5199,68.7307 C6.0129,67.8627 6.8179,67.2377 7.7859,66.9717 C8.7539,66.7047 9.7649,66.8297 10.6329,67.3227 L12.1659,68.1937 C13.9639,69.2157 14.5949,71.5087 13.5739,73.3067 L12.7029,74.8397 C12.0129,76.0547 10.7419,76.7367 9.4359,76.7367" id="Fill-103" fill="#354546" mask="url(#mask-2)"></path>
                <path d="M64.8812,66.0247 C64.1972,66.4857 64.0152,67.4227 64.4772,68.1077 L64.8922,68.7227 C65.3542,69.4057 66.2912,69.5877 66.9752,69.1267 L73.2252,64.9077 C73.9092,64.4467 74.0902,63.5097 73.6292,62.8257 L73.2142,62.2107 C72.7522,61.5267 71.8152,61.3447 71.1312,61.8067 L64.8812,66.0247 Z" id="Fill-104" fill="#A5B5B6" mask="url(#mask-2)"></path>
                <path d="M65.3011,66.6462 C64.9581,66.8772 64.8671,67.3442 65.0991,67.6872 L65.5141,68.3022 C65.7451,68.6452 66.2121,68.7362 66.5551,68.5042 L72.8051,64.2862 C72.9701,64.1752 73.0821,64.0052 73.1201,63.8072 C73.1591,63.6092 73.1181,63.4102 73.0081,63.2452 L72.5921,62.6302 C72.4811,62.4652 72.3111,62.3532 72.1131,62.3152 C71.9151,62.2762 71.7161,62.3162 71.5511,62.4282 L65.3011,66.6462 Z M66.1391,70.1322 C65.4161,70.1322 64.7051,69.7852 64.2711,69.1422 L63.8551,68.5262 C63.1611,67.4982 63.4331,66.0972 64.4621,65.4032 L70.7121,61.1852 C71.2091,60.8492 71.8081,60.7282 72.3991,60.8422 C72.9901,60.9572 73.5001,61.2942 73.8361,61.7912 L74.2511,62.4062 C74.5861,62.9022 74.7081,63.5012 74.5931,64.0932 C74.4781,64.6842 74.1411,65.1942 73.6451,65.5292 L67.3941,69.7482 C67.0091,70.0082 66.5721,70.1322 66.1391,70.1322 L66.1391,70.1322 Z" id="Fill-105" fill="#354546" mask="url(#mask-2)"></path>
                <path d="M70.3324,68.1316 L69.3464,66.6706 C68.4234,65.3026 66.5494,64.9386 65.1814,65.8616 L63.7204,66.8476 C62.3524,67.7716 61.9884,69.6456 62.9114,71.0126 L63.8974,72.4746 C64.8204,73.8416 66.6954,74.2056 68.0624,73.2826 L69.5244,72.2966 C70.8924,71.3736 71.2554,69.4996 70.3324,68.1316" id="Fill-106" fill="#A5B5B6" mask="url(#mask-2)"></path>
                <path d="M65.1815,65.8616 L65.1825,65.8616 L65.1815,65.8616 Z M66.8495,66.1006 C66.4065,66.1006 65.9735,66.2316 65.6005,66.4836 L64.1395,67.4696 C63.6435,67.8036 63.3075,68.3146 63.1925,68.9066 C63.0775,69.4986 63.1985,70.0976 63.5335,70.5936 L64.5195,72.0546 C64.8535,72.5506 65.3645,72.8866 65.9565,73.0016 C66.5485,73.1166 67.1475,72.9956 67.6425,72.6606 L69.1045,71.6746 C69.5995,71.3406 69.9365,70.8306 70.0515,70.2376 C70.1655,69.6456 70.0455,69.0466 69.7105,68.5506 L68.7245,67.0896 C68.3895,66.5936 67.8795,66.2576 67.2875,66.1436 C67.1415,66.1146 66.9945,66.1006 66.8495,66.1006 L66.8495,66.1006 Z M66.3975,74.5446 C66.1565,74.5446 65.9125,74.5206 65.6705,74.4736 C64.6845,74.2826 63.8345,73.7216 63.2765,72.8936 L62.2895,71.4326 C61.7315,70.6056 61.5295,69.6066 61.7205,68.6206 C61.9115,67.6356 62.4725,66.7846 63.3005,66.2266 L64.7615,65.2396 C65.5895,64.6816 66.5875,64.4796 67.5735,64.6706 C68.5585,64.8616 69.4095,65.4236 69.9685,66.2506 L70.9535,67.7126 C71.5125,68.5396 71.7145,69.5376 71.5235,70.5236 C71.3325,71.5086 70.7715,72.3596 69.9435,72.9186 L68.4825,73.9046 C67.8585,74.3256 67.1375,74.5446 66.3975,74.5446 L66.3975,74.5446 Z" id="Fill-107" fill="#354546" mask="url(#mask-2)"></path>
                <path d="M72.2167,84.5842 C72.2797,86.2332 70.9827,87.6342 69.3347,87.6972 L7.7997,90.0652 C6.1517,90.1282 4.7507,88.8312 4.6867,87.1832 L3.7157,61.9372 C3.6517,60.2882 4.9487,58.8872 6.5977,58.8232 L68.1327,56.4562 C69.7807,56.3922 71.1817,57.6892 71.2447,59.3382 L72.2167,84.5842 Z" id="Fill-108" fill="#9ABD45" mask="url(#mask-2)"></path>
                <polygon id="Fill-109" fill="#A4C94A" mask="url(#mask-2)" points="28.1454 89.2766 33.7964 89.0596 43.5994 57.3936 31.4654 57.8606"></polygon>
                <polygon id="Fill-110" fill="#A4C94A" mask="url(#mask-2)" points="17.1273 89.7063 19.7403 89.6053 28.9573 57.9633 24.5633 58.1323"></polygon>
                <polygon id="Fill-111" fill="#A4C94A" mask="url(#mask-2)" points="63.0291 56.6521 44.6941 57.3581 38.0801 88.9001 53.1601 88.3191"></polygon>
                <path d="M68.2484,57.2034 C68.2194,57.2034 68.1904,57.2034 68.1614,57.2054 L6.6264,59.5734 C6.0294,59.5964 5.4744,59.8524 5.0644,60.2954 C4.6544,60.7384 4.4414,61.3104 4.4644,61.9074 L5.4364,87.1544 C5.4594,87.7514 5.7154,88.3064 6.1584,88.7154 C6.6014,89.1254 7.1744,89.3384 7.7704,89.3154 L69.3054,86.9484 C70.5454,86.9004 71.5154,85.8524 71.4674,84.6134 L70.4964,59.3674 C70.4494,58.1564 69.4494,57.2034 68.2484,57.2034 M7.6824,90.8174 C6.7374,90.8174 5.8394,90.4654 5.1394,89.8164 C4.4024,89.1344 3.9754,88.2094 3.9374,87.2114 L2.9654,61.9654 C2.9274,60.9684 3.2824,60.0134 3.9644,59.2764 C4.6464,58.5394 5.5714,58.1124 6.5684,58.0744 L68.1034,55.7064 C70.1684,55.6264 71.9154,57.2434 71.9944,59.3094 L72.9664,84.5554 C73.0454,86.6214 71.4294,88.3674 69.3634,88.4474 L7.8284,90.8144 C7.7794,90.8164 7.7304,90.8174 7.6824,90.8174" id="Fill-112" fill="#719911" mask="url(#mask-2)"></path>
                <path d="M22.0687,68.5305 C22.0337,68.6005 21.9737,68.6655 21.8887,68.7255 C21.8037,68.7855 21.6887,68.8405 21.5437,68.8905 C21.3987,68.9405 21.2117,68.9955 20.9817,69.0555 L18.8807,69.4455 L18.2217,76.9905 C18.1717,77.3505 18.1017,77.6055 18.0117,77.7555 C17.9217,77.9055 17.7157,77.9805 17.3967,77.9805 C17.1357,77.9805 16.9707,77.9255 16.9017,77.8155 C16.8317,77.7055 16.7967,77.5805 16.7967,77.4405 C16.7967,77.3605 16.8007,77.2805 16.8117,77.2005 C16.8207,77.1205 16.8267,77.0455 16.8267,76.9755 L17.4417,69.7005 L15.6867,70.0605 C15.6067,70.0705 15.5367,70.0775 15.4767,70.0825 C15.4167,70.0885 15.3567,70.0905 15.2967,70.0905 C15.0067,70.0905 14.8017,70.0405 14.6817,69.9405 C14.5617,69.8405 14.5017,69.7105 14.5017,69.5505 L14.5017,69.4755 C14.5107,69.3555 14.5537,69.2555 14.6287,69.1755 C14.7037,69.0955 14.7987,69.0285 14.9137,68.9725 C15.0287,68.9185 15.1537,68.8705 15.2887,68.8305 C15.4237,68.7905 15.5567,68.7505 15.6867,68.7105 C16.4367,68.5605 17.0667,68.4355 17.5767,68.3355 C18.0867,68.2355 18.5417,68.1455 18.9417,68.0655 C19.3407,67.9855 19.7187,67.9135 20.0737,67.8475 C20.4287,67.7825 20.8317,67.7105 21.2817,67.6305 C21.3317,67.6205 21.3737,67.6135 21.4087,67.6075 C21.4437,67.6035 21.4817,67.6005 21.5217,67.6005 C21.7117,67.6005 21.8607,67.6505 21.9717,67.7505 C22.0817,67.8505 22.1367,68.0005 22.1367,68.2005 L22.1367,68.2905 C22.1267,68.3805 22.1037,68.4605 22.0687,68.5305" id="Fill-113" fill="#FFFFFF" mask="url(#mask-2)"></path>
                <path d="M22.8714,77.7253 C22.7514,77.8753 22.6064,77.9503 22.4364,77.9503 C22.4164,77.9503 22.3964,77.9483 22.3764,77.9433 C22.3564,77.9373 22.3364,77.9353 22.3164,77.9353 C22.0564,77.8853 21.8784,77.8053 21.7844,77.6953 C21.6884,77.5853 21.6414,77.4103 21.6414,77.1703 L21.6414,77.0353 C21.6414,76.9853 21.6464,76.9353 21.6564,76.8853 L21.6564,76.9003 L21.8214,74.5003 C21.8414,74.2503 21.8634,73.9753 21.8894,73.6753 C21.9134,73.3753 21.9384,73.0753 21.9634,72.7753 C21.9884,72.4753 22.0134,72.1853 22.0384,71.9053 C22.0634,71.6253 22.0864,71.3713 22.1064,71.1403 C22.1264,71.0003 22.1384,70.8703 22.1434,70.7503 C22.1484,70.6303 22.1564,70.5303 22.1664,70.4503 C22.1964,70.2603 22.2664,70.0753 22.3764,69.8953 C22.4864,69.7153 22.6714,69.6253 22.9314,69.6253 L23.0364,69.6253 C23.2764,69.6553 23.4364,69.7503 23.5164,69.9103 C23.5964,70.0703 23.6364,70.2303 23.6364,70.3903 C23.6364,70.5003 23.6264,70.5953 23.6064,70.6753 L23.6064,70.6603 L23.4264,72.8953 L26.8914,72.7603 L27.0864,70.0153 C27.1064,69.9053 27.1284,69.7983 27.1534,69.6933 C27.1784,69.5883 27.2214,69.4973 27.2814,69.4233 C27.3414,69.3483 27.4284,69.2873 27.5434,69.2433 C27.6584,69.1983 27.8164,69.1753 28.0164,69.1753 C28.2664,69.1753 28.4314,69.2303 28.5114,69.3403 C28.5914,69.4513 28.6314,69.5953 28.6314,69.7753 C28.6314,69.8453 28.6284,69.9103 28.6234,69.9703 C28.6184,70.0303 28.6114,70.0953 28.6014,70.1653 L28.0914,76.3003 L28.0914,76.6303 C28.0914,76.7403 28.0814,76.8503 28.0614,76.9603 C28.0414,77.0703 28.0064,77.1733 27.9564,77.2673 C27.9064,77.3633 27.8364,77.4403 27.7464,77.5003 C27.6564,77.5603 27.5364,77.5953 27.3864,77.6053 L27.3114,77.6053 C27.0614,77.6053 26.8734,77.5253 26.7484,77.3653 C26.6234,77.2053 26.5614,77.0103 26.5614,76.7803 C26.5614,76.6803 26.5664,76.6103 26.5764,76.5703 L26.5764,76.5853 L26.7564,74.1403 L23.3214,74.2453 L23.0814,77.0353 C23.0614,77.3453 22.9914,77.5753 22.8714,77.7253" id="Fill-114" fill="#FFFFFF" mask="url(#mask-2)"></path>
                <path d="M32.786,72.678 C32.696,72.353 32.616,72.061 32.546,71.801 L31.661,73.615 L33.041,73.54 C32.961,73.291 32.876,73.003 32.786,72.678 M35.756,76.878 C35.766,76.963 35.771,77.046 35.771,77.125 C35.771,77.365 35.713,77.56 35.599,77.711 C35.484,77.861 35.291,77.935 35.021,77.935 L34.916,77.935 C34.876,77.935 34.816,77.875 34.736,77.756 C34.656,77.636 34.571,77.49 34.481,77.321 C34.391,77.151 34.306,76.973 34.226,76.788 C34.146,76.603 34.081,76.441 34.031,76.301 C34.001,76.191 33.973,76.095 33.949,76.015 C33.924,75.935 33.896,75.858 33.866,75.783 C33.836,75.708 33.801,75.625 33.761,75.535 C33.721,75.446 33.671,75.33 33.611,75.191 C33.591,75.14 33.569,75.091 33.544,75.04 C33.518,74.991 33.491,74.93 33.461,74.861 C33.341,74.861 33.231,74.863 33.131,74.868 C33.031,74.873 32.899,74.881 32.734,74.89 C32.569,74.901 32.351,74.916 32.081,74.935 C31.811,74.955 31.441,74.986 30.971,75.026 L30.071,76.841 C29.931,77.151 29.791,77.41 29.651,77.62 C29.511,77.83 29.346,77.935 29.156,77.935 L29.111,77.935 C28.851,77.915 28.674,77.85 28.578,77.74 C28.484,77.631 28.436,77.49 28.436,77.321 C28.436,77.16 28.469,77.011 28.534,76.87 C28.599,76.731 28.646,76.621 28.676,76.54 L31.931,70.256 L31.931,70.27 C32.061,69.97 32.199,69.756 32.344,69.625 C32.489,69.496 32.636,69.43 32.786,69.43 C32.986,69.43 33.159,69.526 33.304,69.716 C33.449,69.906 33.531,70.14 33.551,70.42 L33.551,70.406 C33.681,70.946 33.869,71.563 34.114,72.258 C34.359,72.953 34.606,73.636 34.856,74.305 L34.856,74.29 C35.026,74.751 35.188,75.183 35.344,75.588 C35.498,75.993 35.621,76.341 35.711,76.631 C35.731,76.711 35.746,76.793 35.756,76.878" id="Fill-115" fill="#FFFFFF" mask="url(#mask-2)"></path>
                <path d="M42.8661,77.0505 C42.8461,77.1305 42.8241,77.2205 42.7991,77.3205 C42.7741,77.4205 42.7331,77.5135 42.6791,77.5975 C42.6231,77.6835 42.5581,77.7555 42.4841,77.8155 C42.4081,77.8755 42.3111,77.9055 42.1911,77.9055 C41.8811,77.9055 41.6761,77.8655 41.5761,77.7855 C41.4761,77.7055 41.4061,77.6255 41.3661,77.5455 L41.3361,77.4855 C41.2261,77.3355 41.0911,77.1485 40.9311,76.9235 C40.7711,76.6975 40.6091,76.4635 40.4441,76.2175 C40.2791,75.9725 40.1231,75.7385 39.9791,75.5125 C39.8331,75.2875 39.7211,75.1005 39.6411,74.9505 C39.4911,74.6805 39.3061,74.3855 39.0861,74.0655 C38.8661,73.7455 38.6411,73.4255 38.4111,73.1055 C38.3511,73.0255 38.2931,72.9475 38.2391,72.8725 C38.1831,72.7985 38.1261,72.7205 38.0661,72.6405 L37.6911,76.9905 C37.7111,77.0705 37.7211,77.1355 37.7211,77.1855 C37.7211,77.3755 37.6631,77.5455 37.5491,77.6955 C37.4331,77.8455 37.2661,77.9305 37.0461,77.9505 L36.9561,77.9505 C36.4761,77.9505 36.2361,77.7155 36.2361,77.2455 C36.2361,77.1955 36.2391,77.1455 36.2431,77.0955 C36.2481,77.0455 36.2561,76.9955 36.2661,76.9455 L36.8211,70.6155 C36.8711,70.1855 36.9581,69.9125 37.0841,69.7985 C37.2081,69.6835 37.3861,69.6255 37.6161,69.6255 C37.7261,69.6255 37.8261,69.6535 37.9161,69.7075 C38.0061,69.7625 38.0891,69.8305 38.1631,69.9105 C38.2391,69.9905 38.3041,70.0755 38.3591,70.1655 C38.4131,70.2555 38.4611,70.3355 38.5011,70.4055 C38.5511,70.5255 38.5961,70.6285 38.6361,70.7135 C38.6761,70.7985 38.7281,70.8955 38.7941,71.0055 C38.8591,71.1155 38.9441,71.2505 39.0491,71.4105 C39.1541,71.5705 39.2961,71.7905 39.4761,72.0705 C39.6561,72.3505 39.8861,72.7005 40.1661,73.1205 C40.4461,73.5405 40.7961,74.0655 41.2161,74.6955 C41.2561,74.7555 41.3061,74.8255 41.3661,74.9055 C41.4261,74.9855 41.4861,75.0655 41.5461,75.1455 C41.5561,75.1655 41.5631,75.1775 41.5691,75.1825 C41.5741,75.1885 41.5811,75.2005 41.5911,75.2205 L41.9961,70.3755 C41.9961,70.3655 41.9981,70.3555 42.0041,70.3455 C42.0091,70.3355 42.0111,70.3205 42.0111,70.3005 C42.0211,70.2105 42.0361,70.1175 42.0561,70.0235 C42.0761,69.9275 42.1111,69.8405 42.1611,69.7605 C42.2111,69.6805 42.2811,69.6155 42.3711,69.5655 C42.4611,69.5155 42.5811,69.4905 42.7311,69.4905 C43.0111,69.4905 43.1991,69.5405 43.2941,69.6405 C43.3881,69.7405 43.4361,69.9205 43.4361,70.1805 C43.4361,70.2205 43.4331,70.2675 43.4281,70.3225 C43.4241,70.3785 43.4211,70.4305 43.4211,70.4805 L42.8661,77.0355 L42.8661,77.0505 Z" id="Fill-116" fill="#FFFFFF" mask="url(#mask-2)"></path>
                <path d="M49.7811,76.7502 C49.9611,77.0102 50.0511,77.2202 50.0511,77.3802 C50.0511,77.6502 49.8361,77.8552 49.4061,77.9952 L49.4211,77.9802 C49.3811,78.0002 49.3311,78.0102 49.2711,78.0102 C49.1601,78.0102 49.0581,77.9732 48.9631,77.8982 C48.8681,77.8232 48.7511,77.7012 48.6111,77.5302 L45.8061,74.2302 L45.5661,76.9152 L45.5661,77.0202 C45.5661,77.4002 45.4811,77.6532 45.3111,77.7782 C45.1411,77.9022 44.9561,77.9652 44.7561,77.9652 C44.5261,77.9652 44.3631,77.9052 44.2681,77.7852 C44.1731,77.6652 44.1261,77.4352 44.1261,77.0952 L44.1261,76.9002 L44.6811,70.5552 C44.7011,70.2852 44.7791,70.0552 44.9131,69.8652 C45.0491,69.6752 45.2311,69.5752 45.4611,69.5652 C45.7811,69.5652 45.9761,69.6462 46.0461,69.8052 C46.1151,69.9652 46.1511,70.1752 46.1511,70.4352 L46.1511,70.5852 L45.9711,72.2952 L48.6411,70.0602 C48.8111,69.8602 49.0211,69.7602 49.2711,69.7602 C49.4511,69.7602 49.6081,69.8182 49.7431,69.9332 C49.8781,70.0482 49.9461,70.1902 49.9461,70.3602 C49.9461,70.4902 49.9011,70.6212 49.8111,70.7502 C49.7211,70.8802 49.5611,71.0102 49.3311,71.1402 L49.3461,71.1252 L46.7661,73.2552 L49.7811,76.7352 L49.7811,76.7502 Z" id="Fill-117" fill="#FFFFFF" mask="url(#mask-2)"></path>
                <path d="M57.6859,74.1252 C57.6259,74.8152 57.4229,75.4102 57.0789,75.9102 C56.7329,76.4102 56.3179,76.8232 55.8329,77.1482 C55.3479,77.4732 54.8289,77.7152 54.2729,77.8752 C53.7179,78.0352 53.2009,78.1152 52.7209,78.1152 C52.3309,78.1152 51.9959,78.0602 51.7159,77.9502 C51.4359,77.8402 51.2039,77.6982 51.0189,77.5232 C50.8329,77.3482 50.6959,77.1502 50.6059,76.9302 C50.5159,76.7102 50.4709,76.4902 50.4709,76.2702 L50.4709,76.1502 C50.4909,75.9502 50.5659,75.7782 50.6959,75.6332 C50.8259,75.4882 51.0359,75.4152 51.3259,75.4152 C51.5259,75.4152 51.6729,75.4932 51.7689,75.6482 C51.8629,75.8032 51.9559,75.9762 52.0459,76.1652 C52.0959,76.2752 52.1839,76.3902 52.3089,76.5102 C52.4339,76.6302 52.6709,76.6902 53.0209,76.6902 C53.2209,76.6902 53.4939,76.6482 53.8379,76.5632 C54.1839,76.4782 54.5229,76.3382 54.8579,76.1432 C55.1929,75.9482 55.4909,75.6982 55.7509,75.3932 C56.0109,75.0882 56.1559,74.7102 56.1859,74.2602 C56.1859,74.2402 56.1879,74.2202 56.1929,74.2002 C56.1979,74.1802 56.2009,74.1602 56.2009,74.1402 C56.2009,73.9802 56.1559,73.8732 56.0659,73.8182 C55.9759,73.7632 55.8609,73.7352 55.7209,73.7352 C55.4509,73.7352 55.1609,73.7752 54.8509,73.8552 C54.5409,73.9362 54.2309,74.0202 53.9209,74.1102 C53.6409,74.1902 53.3709,74.2652 53.1109,74.3352 C52.8509,74.4052 52.6009,74.4402 52.3609,74.4402 C52.1709,74.4402 51.9809,74.4202 51.7909,74.3802 C51.6009,74.3402 51.4289,74.2682 51.2729,74.1632 C51.1179,74.0582 50.9909,73.9102 50.8909,73.7202 C50.7909,73.5302 50.7409,73.2912 50.7409,73.0002 L50.7409,72.8202 C50.7809,72.3702 50.9309,71.9352 51.1909,71.5152 C51.4509,71.0952 51.7759,70.7282 52.1659,70.4132 C52.5559,70.0982 52.9929,69.8452 53.4779,69.6552 C53.9629,69.4652 54.4559,69.3702 54.9559,69.3702 C55.2359,69.3702 55.5059,69.4032 55.7659,69.4682 C56.0259,69.5332 56.2579,69.6232 56.4629,69.7382 C56.6679,69.8532 56.8309,69.9852 56.9509,70.1352 C57.0709,70.2852 57.1309,70.4502 57.1309,70.6302 L57.1309,70.6902 C57.1309,70.7502 57.1159,70.8182 57.0859,70.8932 C57.0559,70.9682 57.0109,71.0412 56.9509,71.1102 C56.8909,71.1802 56.8209,71.2402 56.7409,71.2902 C56.6609,71.3402 56.5709,71.3652 56.4709,71.3652 C56.2609,71.3652 56.1159,71.3452 56.0359,71.3052 C55.9559,71.2652 55.8659,71.2052 55.7659,71.1252 C55.7159,71.0752 55.6679,71.0352 55.6229,71.0052 C55.5789,70.9752 55.5259,70.9402 55.4659,70.9002 L55.4509,70.9002 C55.4009,70.8702 55.3329,70.8382 55.2479,70.8032 C55.1639,70.7682 55.0359,70.7502 54.8659,70.7502 C54.4659,70.7502 54.1079,70.8182 53.7929,70.9532 C53.4779,71.0882 53.2079,71.2532 52.9829,71.4482 C52.7589,71.6432 52.5809,71.8482 52.4509,72.0622 C52.3209,72.2782 52.2509,72.4652 52.2409,72.6252 L52.2409,72.6702 C52.2409,72.7802 52.2759,72.8572 52.3459,72.9032 C52.4159,72.9482 52.4909,72.9702 52.5709,72.9702 C52.6809,72.9702 52.8109,72.9482 52.9609,72.9032 C53.1109,72.8572 53.2759,72.8052 53.4559,72.7452 C53.7759,72.6352 54.1359,72.5282 54.5359,72.4232 C54.9359,72.3182 55.3659,72.2652 55.8259,72.2652 C55.9759,72.2652 56.1559,72.2852 56.3659,72.3252 C56.5759,72.3652 56.7809,72.4452 56.9809,72.5652 C57.1809,72.6852 57.3509,72.8532 57.4909,73.0682 C57.6309,73.2832 57.7009,73.5612 57.7009,73.9002 C57.7009,73.9302 57.6979,73.9632 57.6929,73.9982 C57.6879,74.0332 57.6859,74.0702 57.6859,74.1102 L57.6859,74.1252 Z" id="Fill-118" fill="#FFFFFF" mask="url(#mask-2)"></path>
                <path d="M60.0555,75.0256 C59.9055,75.2556 59.6705,75.3706 59.3505,75.3706 C59.1505,75.3706 59.0135,75.3156 58.9385,75.2056 C58.8635,75.0956 58.8255,74.9456 58.8255,74.7556 C58.8255,74.5556 58.8555,74.3356 58.9155,74.0956 L59.3805,68.7856 C59.3805,68.7456 59.3785,68.7056 59.3725,68.6656 C59.3685,68.6256 59.3655,68.5806 59.3655,68.5306 C59.3655,68.4106 59.3755,68.2886 59.3955,68.1626 C59.4155,68.0376 59.4575,67.9226 59.5235,67.8176 C59.5885,67.7136 59.6755,67.6286 59.7855,67.5626 C59.8955,67.4976 60.0405,67.4656 60.2205,67.4656 C60.4805,67.4656 60.6555,67.5656 60.7455,67.7656 C60.8355,67.9656 60.8805,68.1956 60.8805,68.4556 C60.8805,68.5356 60.8785,68.6156 60.8725,68.6956 C60.8675,68.7756 60.8605,68.8556 60.8505,68.9356 L60.3105,74.1406 C60.2905,74.5006 60.2055,74.7956 60.0555,75.0256 M59.8385,77.7856 C59.6335,77.9446 59.3505,78.0256 58.9905,78.0256 C58.7405,78.0256 58.5635,77.9506 58.4585,77.8006 C58.3535,77.6506 58.3005,77.4906 58.3005,77.3206 L58.3005,77.2156 C58.3305,76.8656 58.4585,76.5706 58.6835,76.3306 C58.9085,76.0906 59.1705,75.9706 59.4705,75.9706 C59.7405,75.9706 59.9325,76.0356 60.0485,76.1656 C60.1625,76.2956 60.2205,76.4656 60.2205,76.6756 L60.2205,76.8106 C60.1705,77.3006 60.0425,77.6256 59.8385,77.7856" id="Fill-119" fill="#FFFFFF" mask="url(#mask-2)"></path>
                <path d="M2.3451,73.4856 C1.5201,73.5206 0.8181,72.8746 0.7831,72.0496 L0.7511,71.3086 C0.7171,70.4846 1.3631,69.7816 2.1871,69.7466 L5.8221,69.5096 C6.6461,69.4756 7.3491,70.1216 7.3841,70.9456 L7.4151,71.6866 C7.4501,72.5106 6.8041,73.2146 5.9801,73.2486 L2.3451,73.4856 Z" id="Fill-120" fill="#A5B5B6" mask="url(#mask-2)"></path>
                <path d="M5.8602,70.2595 L2.2352,70.4945 C2.2302,70.4955 2.2242,70.4955 2.2182,70.4955 C1.8052,70.5135 1.4832,70.8635 1.5012,71.2775 L1.5322,72.0185 C1.5402,72.2175 1.6272,72.4015 1.7752,72.5375 C1.9222,72.6725 2.1102,72.7415 2.3062,72.7365 L5.9312,72.5005 C5.9372,72.5005 5.9422,72.4995 5.9482,72.4995 C6.1462,72.4905 6.3312,72.4055 6.4672,72.2565 C6.6032,72.1085 6.6742,71.9175 6.6652,71.7185 L6.6342,70.9765 C6.6262,70.7785 6.5392,70.5935 6.3912,70.4575 C6.2442,70.3225 6.0562,70.2535 5.8602,70.2595 L5.8602,70.2595 Z M2.3442,73.4855 L2.3462,73.4855 L2.3442,73.4855 Z M2.2792,74.2365 C1.7162,74.2365 1.1792,74.0275 0.7602,73.6425 C0.3172,73.2345 0.0592,72.6805 0.0332,72.0815 L0.0022,71.3405 C-0.0508,70.1045 0.9102,69.0545 2.1462,68.9975 L5.7732,68.7615 C5.7782,68.7615 5.7842,68.7605 5.7902,68.7605 C6.3882,68.7355 6.9632,68.9465 7.4062,69.3535 C7.8492,69.7605 8.1082,70.3145 8.1332,70.9135 L8.1642,71.6555 C8.1892,72.2545 7.9792,72.8275 7.5712,73.2715 C7.1662,73.7125 6.6162,73.9705 6.0202,73.9975 L2.3932,74.2335 C2.3882,74.2345 2.3822,74.2345 2.3772,74.2345 C2.3442,74.2365 2.3122,74.2365 2.2792,74.2365 L2.2792,74.2365 Z" id="Fill-121" fill="#354546" mask="url(#mask-2)"></path>
                <path d="M2.6781,77.7385 C1.8541,77.7735 1.1511,77.1275 1.1161,76.3025 L1.0851,75.5615 C1.0501,74.7375 1.6961,74.0345 2.5201,73.9995 L6.1551,73.7625 C6.9791,73.7285 7.6821,74.3735 7.7171,75.1975 L7.7481,75.9395 C7.7831,76.7635 7.1371,77.4675 6.3131,77.5015 L2.6781,77.7385 Z" id="Fill-122" fill="#A5B5B6" mask="url(#mask-2)"></path>
                <path d="M6.1937,74.512 L2.5687,74.748 C2.5637,74.748 2.5577,74.749 2.5517,74.749 C2.1387,74.766 1.8167,75.117 1.8347,75.53 L1.8657,76.271 C1.8737,76.47 1.9607,76.654 2.1087,76.791 C2.2557,76.926 2.4437,76.995 2.6397,76.989 L6.2647,76.753 L6.2817,76.753 C6.4797,76.744 6.6647,76.658 6.8007,76.51 C6.9367,76.361 7.0077,76.17 6.9997,75.971 L6.9677,75.23 C6.9597,75.032 6.8727,74.847 6.7247,74.711 C6.5777,74.576 6.3907,74.506 6.1937,74.512 L6.1937,74.512 Z M2.6777,77.739 L2.6797,77.739 L2.6777,77.739 Z M2.6127,78.49 C2.0497,78.49 1.5127,78.281 1.0937,77.895 C0.6507,77.488 0.3927,76.933 0.3667,76.335 L0.3357,75.593 C0.2827,74.357 1.2437,73.308 2.4797,73.251 L6.1067,73.014 L6.1237,73.014 C6.7217,72.989 7.2967,73.199 7.7397,73.606 C8.1827,74.013 8.4417,74.568 8.4667,75.167 L8.4977,75.908 C8.5227,76.507 8.3127,77.081 7.9047,77.524 C7.4997,77.966 6.9497,78.223 6.3547,78.251 L2.7267,78.487 C2.7217,78.487 2.7157,78.488 2.7097,78.488 C2.6777,78.489 2.6457,78.49 2.6127,78.49 L2.6127,78.49 Z" id="Fill-123" fill="#354546" mask="url(#mask-2)"></path>
                <path d="M2.8265,81.5969 C2.0025,81.6319 1.2995,80.9859 1.2645,80.1619 L1.2335,79.4199 C1.1985,78.5959 1.8445,77.8929 2.6685,77.8579 L6.3035,77.6219 C7.1275,77.5869 7.8305,78.2329 7.8655,79.0569 L7.8965,79.7989 C7.9315,80.6229 7.2855,81.3259 6.4615,81.3609 L2.8265,81.5969 Z" id="Fill-124" fill="#A5B5B6" mask="url(#mask-2)"></path>
                <path d="M6.3421,78.3708 L2.7171,78.6068 C2.7121,78.6068 2.7061,78.6068 2.7001,78.6078 C2.5021,78.6158 2.3171,78.7028 2.1811,78.8508 C2.0451,78.9988 1.9741,79.1898 1.9831,79.3888 L2.0141,80.1298 C2.0221,80.3288 2.1091,80.5138 2.2571,80.6488 C2.4041,80.7848 2.5921,80.8548 2.7881,80.8478 L6.4131,80.6118 C6.4181,80.6118 6.4241,80.6118 6.4301,80.6108 C6.6281,80.6028 6.8131,80.5168 6.9491,80.3678 C7.0851,80.2198 7.1561,80.0288 7.1471,79.8298 L7.1161,79.0888 C7.1081,78.8898 7.0211,78.7058 6.8731,78.5698 C6.7261,78.4348 6.5381,78.3628 6.3421,78.3708 L6.3421,78.3708 Z M2.8261,81.5978 L2.8281,81.5978 L2.8261,81.5978 Z M2.7611,82.3488 C2.1981,82.3488 1.6621,82.1398 1.2421,81.7538 C0.7991,81.3468 0.5411,80.7918 0.5151,80.1938 L0.4841,79.4518 C0.4591,78.8528 0.6691,78.2788 1.0761,77.8358 C1.4821,77.3948 2.0321,77.1368 2.6281,77.1088 L6.2551,76.8728 C6.2601,76.8728 6.2661,76.8728 6.2721,76.8718 C6.8701,76.8448 7.4451,77.0578 7.8881,77.4648 C8.3311,77.8718 8.5901,78.4268 8.6141,79.0248 L8.6461,79.7668 C8.6981,81.0028 7.7381,82.0528 6.5031,82.1098 L2.8751,82.3458 C2.8701,82.3458 2.8641,82.3468 2.8581,82.3468 C2.8261,82.3478 2.7941,82.3488 2.7611,82.3488 L2.7611,82.3488 Z" id="Fill-125" fill="#354546" mask="url(#mask-2)"></path>
                <path d="M73.4989,70.7478 C74.3239,70.7188 74.9749,70.0208 74.9459,69.1968 L74.9199,68.4548 C74.8919,67.6298 74.1939,66.9788 73.3699,67.0078 L69.7269,67.0508 C68.9029,67.0798 68.2509,67.7778 68.2799,68.6018 L68.3059,69.3438 C68.3339,70.1678 69.0319,70.8198 69.8569,70.7908 L73.4989,70.7478 Z" id="Fill-126" fill="#A5B5B6" mask="url(#mask-2)"></path>
                <path d="M69.746,67.801 C69.336,67.819 69.015,68.165 69.03,68.576 L69.055,69.318 C69.07,69.731 69.421,70.053 69.831,70.042 C69.836,70.041 69.842,70.041 69.848,70.041 L73.48,69.998 C73.676,69.989 73.858,69.905 73.994,69.759 C74.132,69.612 74.204,69.421 74.197,69.222 L74.171,68.481 C74.164,68.282 74.079,68.097 73.932,67.96 C73.785,67.822 73.595,67.751 73.395,67.757 C73.39,67.758 73.384,67.758 73.378,67.758 L69.746,67.801 Z M73.499,70.748 L73.5,70.748 L73.499,70.748 Z M69.804,71.542 C68.599,71.542 67.598,70.583 67.556,69.37 L67.53,68.628 C67.488,67.388 68.461,66.344 69.701,66.301 L69.718,66.301 L73.353,66.258 C73.948,66.241 74.517,66.454 74.955,66.863 C75.395,67.274 75.649,67.83 75.67,68.429 L75.696,69.17 C75.739,70.41 74.765,71.454 73.525,71.497 C73.519,71.497 73.514,71.497 73.508,71.498 L69.873,71.541 C69.85,71.542 69.827,71.542 69.804,71.542 L69.804,71.542 Z" id="Fill-127" fill="#354546" mask="url(#mask-2)"></path>
                <path d="M73.4935,75.0134 C74.3175,74.9854 74.9695,74.2864 74.9405,73.4624 L74.9145,72.7214 C74.8865,71.8964 74.1885,71.2444 73.3635,71.2734 L69.7215,71.3174 C68.8965,71.3454 68.2455,72.0434 68.2745,72.8674 L68.3005,73.6094 C68.3285,74.4344 69.0265,75.0854 69.8505,75.0564 L73.4935,75.0134 Z" id="Fill-128" fill="#A5B5B6" mask="url(#mask-2)"></path>
                <path d="M69.7406,72.0671 C69.3306,72.0851 69.0096,72.4311 69.0236,72.8421 L69.0496,73.5841 C69.0566,73.7821 69.1416,73.9671 69.2886,74.1051 C69.4356,74.2421 69.6276,74.3141 69.8246,74.3071 L69.8426,74.3071 L73.4746,74.2641 C73.8846,74.2461 74.2046,73.8991 74.1906,73.4881 L74.1656,72.7471 C74.1586,72.5481 74.0736,72.3631 73.9266,72.2251 C73.7786,72.0881 73.5876,72.0141 73.3896,72.0231 C73.3846,72.0231 73.3786,72.0231 73.3726,72.0241 L69.7406,72.0671 Z M73.4936,75.0131 L73.4946,75.0131 L73.4936,75.0131 Z M69.7976,75.8081 C69.2276,75.8081 68.6866,75.5941 68.2656,75.2011 C67.8246,74.7911 67.5716,74.2341 67.5506,73.6351 L67.5246,72.8941 C67.4816,71.6541 68.4556,70.6101 69.6956,70.5671 L69.7126,70.5671 L73.3466,70.5241 C73.9406,70.5061 74.5116,70.7201 74.9496,71.1291 C75.3896,71.5401 75.6436,72.0961 75.6646,72.6941 L75.6896,73.4361 C75.7326,74.6761 74.7596,75.7201 73.5196,75.7631 L73.5026,75.7631 L69.8676,75.8071 C69.8446,75.8071 69.8216,75.8081 69.7976,75.8081 L69.7976,75.8081 Z" id="Fill-129" fill="#354546" mask="url(#mask-2)"></path>
                <path d="M73.642,78.8723 C74.466,78.8433 75.118,78.1453 75.089,77.3213 L75.063,76.5793 C75.035,75.7553 74.337,75.1033 73.512,75.1323 L69.87,75.1763 C69.045,75.2043 68.394,75.9023 68.423,76.7263 L68.449,77.4683 C68.477,78.2933 69.175,78.9443 69.999,78.9153 L73.642,78.8723 Z" id="Fill-130" fill="#A5B5B6" mask="url(#mask-2)"></path>
                <path d="M69.8885,75.9255 C69.4785,75.9435 69.1585,76.2895 69.1725,76.7005 L69.1985,77.4425 C69.2125,77.8565 69.5625,78.1805 69.9735,78.1665 C69.9795,78.1655 69.9845,78.1655 69.9905,78.1655 L73.6225,78.1225 C73.8185,78.1135 74.0005,78.0295 74.1375,77.8835 C74.2745,77.7365 74.3465,77.5455 74.3395,77.3475 L74.3135,76.6055 C74.3065,76.4065 74.2215,76.2215 74.0745,76.0845 C73.9275,75.9465 73.7355,75.8755 73.5375,75.8825 L73.5215,75.8825 L69.8885,75.9255 Z M73.6415,78.8725 L73.6435,78.8725 L73.6415,78.8725 Z M69.9465,79.6665 C68.7415,79.6665 67.7415,78.7085 67.6995,77.4945 L67.6735,76.7525 C67.6305,75.5125 68.6035,74.4685 69.8435,74.4265 C69.8495,74.4255 69.8555,74.4255 69.8605,74.4255 L73.4955,74.3825 C74.0895,74.3645 74.6595,74.5795 75.0975,74.9875 C75.5375,75.3985 75.7915,75.9545 75.8125,76.5535 L75.8385,77.2955 C75.8595,77.8945 75.6445,78.4665 75.2335,78.9065 C74.8225,79.3475 74.2665,79.6005 73.6675,79.6215 C73.6615,79.6215 73.6565,79.6225 73.6505,79.6225 L70.0155,79.6655 C69.9925,79.6665 69.9695,79.6665 69.9465,79.6665 L69.9465,79.6665 Z" id="Fill-131" fill="#354546" mask="url(#mask-2)"></path>
            </g>
        </g>
    </g>
</svg>