<?xml version="1.0" encoding="UTF-8"?>
<svg width="94px" height="123px" viewBox="0 0 94 123" version="1.1" xmlns="http://www.w3.org/2000/svg" xmlns:xlink="http://www.w3.org/1999/xlink">
    <!-- Generator: Sketch 42 (36781) - http://www.bohemiancoding.com/sketch -->
    <title>25</title>
    <desc>Created with Sketch.</desc>
    <defs>
        <polygon id="path-1" points="0 122.041 93.465 122.041 93.465 0 0 0"></polygon>
    </defs>
    <g id="Page-1" stroke="none" stroke-width="1" fill="none" fill-rule="evenodd">
        <g id="1024" transform="translate(-430.000000, 0.000000)">
            <g id="25" transform="translate(430.000000, 0.000000)">
                <path d="M86.973,118.2298 C86.973,120.3348 72.81,122.0408 55.34,122.0408 C37.869,122.0408 23.706,120.3348 23.706,118.2298 C23.706,116.1248 37.869,114.4188 55.34,114.4188 C72.81,114.4188 86.973,116.1248 86.973,118.2298 Z" id="Fill-1" fill="#CCCCCC"></path>
                <mask id="mask-2" fill="white">
                    <use xlink:href="#path-1"></use>
                </mask>
                <g id="Clip-4"></g>
                <polygon id="Fill-3" fill="#758586" mask="url(#mask-2)" points="46.957 87.555 63.076 87.555 63.076 75.949 46.957 75.949"></polygon>
                <path d="M47.707,86.804 L62.326,86.804 L62.326,76.698 L47.707,76.698 L47.707,86.804 Z M63.076,88.304 L46.957,88.304 C46.543,88.304 46.207,87.969 46.207,87.554 L46.207,75.948 C46.207,75.534 46.543,75.198 46.957,75.198 L63.076,75.198 C63.49,75.198 63.826,75.534 63.826,75.948 L63.826,87.554 C63.826,87.969 63.49,88.304 63.076,88.304 L63.076,88.304 Z" id="Fill-5" fill="#354546" mask="url(#mask-2)"></path>
                <polygon id="Fill-6" fill="#758586" mask="url(#mask-2)" points="50.618 61.398 59.96 61.398 59.96 52.895 50.618 52.895"></polygon>
                <path d="M51.368,60.648 L59.21,60.648 L59.21,53.645 L51.368,53.645 L51.368,60.648 Z M59.96,62.148 L50.618,62.148 C50.203,62.148 49.868,61.812 49.868,61.398 L49.868,52.895 C49.868,52.481 50.203,52.145 50.618,52.145 L59.96,52.145 C60.374,52.145 60.71,52.481 60.71,52.895 L60.71,61.398 C60.71,61.812 60.374,62.148 59.96,62.148 L59.96,62.148 Z" id="Fill-7" fill="#354546" mask="url(#mask-2)"></path>
                <path d="M59.9603,58.3978 C59.9463,58.3978 59.9333,58.3978 59.9193,58.3968 L50.5773,57.8958 C50.1633,57.8728 49.8463,57.5198 49.8683,57.1058 C49.8903,56.6928 50.2443,56.3768 50.6573,56.3978 L60.0003,56.8988 C60.4133,56.9208 60.7313,57.2748 60.7093,57.6888 C60.6873,58.0878 60.3563,58.3978 59.9603,58.3978" id="Fill-8" fill="#354546" mask="url(#mask-2)"></path>
                <path d="M73.1664,66.5804 C71.6824,67.0454 70.1844,67.5364 68.5604,67.9554 L67.3984,63.3814 C68.7914,63.0244 70.2574,62.5494 71.7454,62.0804 L73.1664,66.5804 Z" id="Fill-9" fill="#F9BF3B" mask="url(#mask-2)"></path>
                <path d="M67.5849,64.1082 L67.2119,62.6552 C68.4079,62.3482 69.6439,61.9582 70.9529,61.5442 L71.5199,61.3652 L71.9699,62.7962 L71.4049,62.9752 C70.0759,63.3942 68.8209,63.7912 67.5849,64.1082" id="Fill-10" fill="#F1892D" mask="url(#mask-2)"></path>
                <path d="M68.7479,68.6815 L68.3729,67.2285 C69.7269,66.8805 71.0099,66.4745 72.2509,66.0825 L72.9419,65.8645 L73.3909,67.2955 L72.7039,67.5125 C71.4429,67.9105 70.1409,68.3225 68.7479,68.6815" id="Fill-11" fill="#F1892D" mask="url(#mask-2)"></path>
                <polygon id="Fill-12" fill="#F1892D" mask="url(#mask-2)" points="70.1981 67.5042 68.8201 62.9912 70.2541 62.5532 71.6331 67.0662"></polygon>
                <path d="M77.5346,65.2831 C76.0976,65.6611 74.6456,66.1131 73.1666,66.5801 L71.7446,62.0811 C73.2356,61.6101 74.7596,61.1351 76.3346,60.7201 L77.5346,65.2831 Z" id="Fill-13" fill="#F9BF3B" mask="url(#mask-2)"></path>
                <path d="M71.9711,62.7962 L71.5191,61.3652 C73.0561,60.8802 74.5671,60.4092 76.1431,59.9942 L76.5251,61.4442 C74.9811,61.8512 73.4901,62.3162 71.9711,62.7962" id="Fill-14" fill="#F1892D" mask="url(#mask-2)"></path>
                <path d="M73.392,67.2953 L72.94,65.8653 C74.362,65.4163 75.872,64.9443 77.344,64.5573 L77.726,66.0083 C76.287,66.3873 74.796,66.8523 73.392,67.2953" id="Fill-15" fill="#F1892D" mask="url(#mask-2)"></path>
                <polygon id="Fill-16" fill="#F1892D" mask="url(#mask-2)" points="74.6478 66.1141 73.2898 61.5951 74.7258 61.1631 76.0848 65.6821"></polygon>
                <path d="M81.7553,64.4598 C80.3943,64.5988 78.9693,64.9048 77.5343,65.2828 L76.3343,60.7198 C77.9103,60.3068 79.5403,59.9448 81.2793,59.7658 L81.7553,64.4598 Z" id="Fill-17" fill="#F9BF3B" mask="url(#mask-2)"></path>
                <path d="M76.5243,61.4452 L76.1443,59.9942 C77.4693,59.6472 79.2413,59.2222 81.2013,59.0192 L81.3563,60.5112 C79.4973,60.7042 77.7973,61.1122 76.5243,61.4452" id="Fill-18" fill="#F1892D" mask="url(#mask-2)"></path>
                <path d="M77.7255,66.0081 L77.3435,64.5571 C79.0405,64.1111 80.4185,63.8421 81.6785,63.7141 L81.8315,65.2061 C80.6505,65.3271 79.3455,65.5821 77.7255,66.0081" id="Fill-19" fill="#F1892D" mask="url(#mask-2)"></path>
                <polygon id="Fill-20" fill="#F1892D" mask="url(#mask-2)" points="78.9369 64.9295 78.0099 60.3025 79.4809 60.0085 80.4079 64.6355"></polygon>
                <path d="M85.3881,64.6991 C84.4141,64.3651 83.1091,64.3191 81.7551,64.4601 L81.2791,59.7651 C82.1481,59.6771 83.0491,59.6381 83.9861,59.6901 C84.9231,59.7481 85.9021,59.8911 86.8941,60.2271 L85.3881,64.6991 Z" id="Fill-21" fill="#F9BF3B" mask="url(#mask-2)"></path>
                <path d="M86.6542,60.9378 C85.8472,60.6648 84.9602,60.5008 83.9402,60.4388 C83.1262,60.3938 82.2792,60.4168 81.3552,60.5118 L81.2032,59.0198 C82.2062,58.9168 83.1302,58.8908 84.0282,58.9408 C85.1862,59.0128 86.2012,59.2008 87.1352,59.5178 L86.6542,60.9378 Z" id="Fill-22" fill="#F1892D" mask="url(#mask-2)"></path>
                <path d="M85.1444,65.4085 C84.3444,65.1345 83.1994,65.0635 81.8324,65.2055 L81.6774,63.7135 C82.7804,63.5995 84.3614,63.5545 85.6314,63.9895 L85.1444,65.4085 Z" id="Fill-23" fill="#F1892D" mask="url(#mask-2)"></path>
                <polygon id="Fill-24" fill="#F1892D" mask="url(#mask-2)" points="84.4623 64.4442 82.9643 64.3582 83.2373 59.6472 84.7343 59.7342"></polygon>
                <path d="M87.4472,66.5081 C86.9722,65.5711 86.3642,65.0351 85.3882,64.6991 L86.8942,60.2271 C87.8822,60.5581 88.8802,61.0911 89.7182,61.8321 C90.5552,62.5701 91.2192,63.4791 91.6722,64.4071 L87.4472,66.5081 Z" id="Fill-25" fill="#F9BF3B" mask="url(#mask-2)"></path>
                <path d="M90.9979,64.7357 C90.5629,63.8447 89.9499,63.0357 89.2219,62.3947 C88.5129,61.7667 87.6249,61.2637 86.6559,60.9387 L87.1329,59.5167 C88.2909,59.9047 89.3569,60.5107 90.2149,61.2707 C91.0879,62.0397 91.8259,63.0107 92.3469,64.0787 L90.9979,64.7357 Z" id="Fill-26" fill="#F1892D" mask="url(#mask-2)"></path>
                <path d="M86.7782,66.847 C86.3912,66.083 85.9332,65.68 85.1442,65.409 L85.6322,63.99 C86.7882,64.388 87.5542,65.06 88.1162,66.169 L86.7782,66.847 Z" id="Fill-27" fill="#F1892D" mask="url(#mask-2)"></path>
                <polygon id="Fill-28" fill="#F1892D" mask="url(#mask-2)" points="87.1688 65.8729 86.0418 64.8829 89.1538 61.3369 90.2818 62.3269"></polygon>
                <path d="M87.9428,69.6996 C88.0158,69.1216 88.0178,68.5646 87.9328,68.0356 C87.9178,67.9016 87.8818,67.7736 87.8588,67.6426 C87.8218,67.5146 87.7958,67.3836 87.7498,67.2586 C87.7128,67.1326 87.6618,67.0036 87.6118,66.8726 C87.5878,66.8076 87.5578,66.7496 87.5318,66.6866 C87.5058,66.6246 87.4778,66.5646 87.4468,66.5086 L91.6718,64.4076 C91.7328,64.5236 91.7868,64.6396 91.8368,64.7566 C91.8878,64.8726 91.9428,64.9906 91.9868,65.1066 C92.0788,65.3396 92.1678,65.5736 92.2438,65.8206 C92.3278,66.0626 92.3858,66.3126 92.4518,66.5606 C92.5038,66.8116 92.5628,67.0616 92.5958,67.3146 C92.7558,68.3246 92.7458,69.3406 92.6218,70.3066 L87.9428,69.6996 Z" id="Fill-29" fill="#F9BF3B" mask="url(#mask-2)"></path>
                <path d="M93.3661,70.4017 L91.8781,70.2117 C92.0021,69.2457 91.9941,68.3107 91.8551,67.4317 L91.8521,67.4127 C91.8301,67.2457 91.7931,67.0707 91.7541,66.8857 L91.6831,66.5847 C91.6351,66.4007 91.5901,66.2257 91.5341,66.0657 L91.5271,66.0407 C91.4581,65.8167 91.3751,65.6007 91.2891,65.3807 C91.2611,65.3057 91.2301,65.2377 91.1991,65.1697 L91.1481,65.0537 C91.1021,64.9447 91.0551,64.8467 91.0071,64.7537 L92.3381,64.0607 C92.4041,64.1887 92.4661,64.3187 92.5261,64.4607 L92.5701,64.5587 C92.6111,64.6517 92.6531,64.7467 92.6881,64.8397 C92.7781,65.0687 92.8741,65.3197 92.9571,65.5887 C93.0301,65.8007 93.0831,66.0087 93.1351,66.2097 L93.1861,66.4097 L93.2211,66.5737 C93.2641,66.7757 93.3081,66.9847 93.3381,67.2067 C93.4981,68.2237 93.5071,69.2977 93.3661,70.4017" id="Fill-30" fill="#F1892D" mask="url(#mask-2)"></path>
                <path d="M88.6869,69.7938 L87.1989,69.6058 C87.2649,69.0818 87.2629,68.5928 87.1919,68.1548 L87.1869,68.1188 C87.1819,68.0718 87.1689,68.0128 87.1549,67.9438 C87.1449,67.9008 87.1359,67.8568 87.1279,67.8148 C87.1169,67.7728 87.1049,67.7308 87.0949,67.6888 C87.0779,67.6238 87.0619,67.5618 87.0459,67.5178 L87.0299,67.4688 C87.0059,67.3888 86.9689,67.2918 86.9299,67.1898 L86.9109,67.1408 C86.8999,67.1098 86.8899,67.0908 86.8819,67.0718 C86.8669,67.0398 86.8529,67.0078 86.8389,66.9748 C86.8209,66.9318 86.8049,66.8968 86.7889,66.8668 L88.1059,66.1498 C88.1479,66.2278 88.1869,66.3098 88.2249,66.4008 C88.2309,66.4158 88.2389,66.4318 88.2459,66.4478 C88.2709,66.5018 88.2949,66.5578 88.3159,66.6158 L88.3309,66.6518 C88.3759,66.7708 88.4229,66.8938 88.4629,67.0238 C88.4999,67.1298 88.5249,67.2288 88.5479,67.3148 C88.5579,67.3548 88.5669,67.3928 88.5789,67.4318 L88.5969,67.5098 C88.6039,67.5488 88.6129,67.5888 88.6219,67.6278 C88.6409,67.7178 88.6619,67.8188 88.6759,67.9338 C88.7669,68.5078 88.7699,69.1338 88.6869,69.7938" id="Fill-31" fill="#F1892D" mask="url(#mask-2)"></path>
                <polygon id="Fill-32" fill="#F1892D" mask="url(#mask-2)" points="88.0477 68.7772 87.8187 67.2952 92.4817 66.5732 92.7107 68.0552"></polygon>
                <path d="M86.6903,73.2767 C87.3313,72.0847 87.7963,70.8567 87.9423,69.6997 L92.6223,70.3067 C92.5603,70.7907 92.4643,71.2597 92.3543,71.7217 C92.2353,72.1777 92.1023,72.6267 91.9463,73.0587 C91.6373,73.9247 91.2603,74.7407 90.8443,75.5147 L86.6903,73.2767 Z" id="Fill-33" fill="#F9BF3B" mask="url(#mask-2)"></path>
                <path d="M91.5043,75.8705 L90.1833,75.1595 C90.6163,74.3555 90.9623,73.5865 91.2403,72.8075 C91.3783,72.4245 91.5043,72.0085 91.6283,71.5335 C91.7463,71.0375 91.8273,70.6135 91.8783,70.2125 L93.3663,70.4005 C93.3083,70.8585 93.2183,71.3335 93.0833,71.8965 C92.9453,72.4305 92.8053,72.8895 92.6523,73.3135 C92.3493,74.1625 91.9733,74.9995 91.5043,75.8705" id="Fill-34" fill="#F1892D" mask="url(#mask-2)"></path>
                <path d="M87.3505,73.6317 L86.0295,72.9217 C86.6805,71.7107 87.0745,70.5947 87.1985,69.6067 L88.6865,69.7937 C88.5385,70.9657 88.0895,72.2567 87.3505,73.6317" id="Fill-35" fill="#F1892D" mask="url(#mask-2)"></path>
                <polygon id="Fill-36" fill="#F1892D" mask="url(#mask-2)" points="91.6947 73.7655 87.2497 72.1815 87.7537 70.7685 92.1977 72.3525"></polygon>
                <path d="M84.31,76.7479 C85.225,75.6349 86.045,74.4709 86.69,73.2769 L90.844,75.5149 C90.007,77.0619 89.017,78.4509 87.956,79.7439 L84.31,76.7479 Z" id="Fill-37" fill="#F9BF3B" mask="url(#mask-2)"></path>
                <path d="M88.535,80.2196 L87.375,79.2686 C88.533,77.8576 89.452,76.5126 90.184,75.1586 L91.504,75.8716 C90.725,77.3116 89.754,78.7336 88.535,80.2196" id="Fill-38" fill="#F1892D" mask="url(#mask-2)"></path>
                <path d="M84.8895,77.224 L83.7305,76.272 C84.6795,75.118 85.4525,73.99 86.0305,72.92 L87.3495,73.633 C86.7275,74.787 85.8995,75.995 84.8895,77.224" id="Fill-39" fill="#F1892D" mask="url(#mask-2)"></path>
                <polygon id="Fill-40" fill="#F1892D" mask="url(#mask-2)" points="89.057 78.3416 85.175 75.6596 86.027 74.4256 89.91 77.1076"></polygon>
                <path d="M81.3148,79.9437 C82.3828,78.9277 83.3938,77.8607 84.3098,76.7477 L87.9558,79.7437 C86.8918,81.0357 85.7538,82.2337 84.5648,83.3637 L81.3148,79.9437 Z" id="Fill-41" fill="#F9BF3B" mask="url(#mask-2)"></path>
                <path d="M85.0824,83.9071 L84.0484,82.8201 C85.2954,81.6351 86.3844,80.4721 87.3764,79.2671 L88.5344,80.2211 C87.5034,81.4731 86.3744,82.6791 85.0824,83.9071" id="Fill-42" fill="#F1892D" mask="url(#mask-2)"></path>
                <path d="M81.8314,80.4872 L80.7984,79.4002 C81.8884,78.3642 82.8744,77.3112 83.7304,76.2712 L84.8894,77.2242 C83.9944,78.3112 82.9654,79.4092 81.8314,80.4872" id="Fill-43" fill="#F1892D" mask="url(#mask-2)"></path>
                <polygon id="Fill-44" fill="#F1892D" mask="url(#mask-2)" points="85.7934 82.161 82.3554 78.929 83.3834 77.836 86.8214 81.068"></polygon>
                <path d="M77.9931,82.7826 L78.1851,82.6376 L78.3971,82.4726 L78.8241,82.1336 C79.1081,81.9026 79.3911,81.6666 79.6711,81.4266 C80.2311,80.9466 80.7801,80.4506 81.3151,79.9436 L84.5651,83.3646 C83.9711,83.9286 83.3631,84.4776 82.7411,85.0106 C82.4291,85.2776 82.1141,85.5396 81.7931,85.8006 L81.3061,86.1876 L81.0561,86.3816 L80.7831,86.5886 L77.9931,82.7826 Z" id="Fill-45" fill="#F9BF3B" mask="url(#mask-2)"></path>
                <path d="M81.2343,87.1869 L80.3313,85.9889 L80.8473,85.5949 L81.3253,85.2129 C81.6313,84.9649 81.9453,84.7039 82.2523,84.4409 C82.8593,83.9209 83.4633,83.3759 84.0493,82.8199 L85.0823,83.9079 C84.4783,84.4809 83.8543,85.0439 83.2283,85.5799 C82.9113,85.8519 82.5873,86.1219 82.2653,86.3829 L81.5163,86.9749 L81.2343,87.1869 Z" id="Fill-46" fill="#F1892D" mask="url(#mask-2)"></path>
                <path d="M78.4452,83.3812 L77.5402,82.1842 L77.9372,81.8812 L78.3562,81.5472 C78.6302,81.3242 78.9102,81.0912 79.1832,80.8572 C79.7262,80.3922 80.2692,79.9022 80.7992,79.4002 L81.8312,80.4872 C81.2832,81.0072 80.7212,81.5152 80.1592,81.9962 C79.8752,82.2392 79.5852,82.4812 79.2962,82.7152 L78.4452,83.3812 Z" id="Fill-47" fill="#F1892D" mask="url(#mask-2)"></path>
                <polygon id="Fill-48" fill="#F1892D" mask="url(#mask-2)" points="82.1708 85.4984 79.1018 81.9154 80.2408 80.9384 83.3098 84.5224"></polygon>
                <path d="M72.0878,81.3539 L75.1068,79.3539 L74.9118,79.0599 C74.0008,77.6849 74.3808,75.8129 75.7558,74.9019 L77.6398,73.6549 C79.0158,72.7429 80.8868,73.1239 81.7978,74.4989 L83.6498,77.2939 L84.2518,78.2029 L87.2518,82.7319 C88.1628,84.1079 87.7828,85.9789 86.4068,86.8899 L79.0038,91.7939 C77.6278,92.7049 75.7568,92.3249 74.8458,90.9499 L71.2438,85.5119 C70.3328,84.1359 70.7128,82.2649 72.0878,81.3539" id="Fill-49" fill="#A5B5B6" mask="url(#mask-2)"></path>
                <path d="M71.2435,85.5116 C70.3325,84.1366 70.7125,82.2646 72.0875,81.3536 L73.7655,80.2426 L80.6405,90.7096 L79.0035,91.7936 C77.6275,92.7046 75.7565,92.3246 74.8455,90.9496 L71.2435,85.5116 Z" id="Fill-50" fill="#859596" mask="url(#mask-2)"></path>
                <path d="M72.0878,81.3539 L72.0888,81.3539 L72.0878,81.3539 Z M79.2938,73.9059 C78.8668,73.9059 78.4358,74.0269 78.0548,74.2799 L76.1708,75.5279 C75.1358,76.2129 74.8518,77.6119 75.5368,78.6459 L75.7318,78.9399 C75.9608,79.2859 75.8658,79.7509 75.5208,79.9789 L72.5028,81.9789 L72.5028,81.9789 C72.0038,82.3099 71.6638,82.8169 71.5438,83.4079 C71.4228,83.9989 71.5388,84.5989 71.8688,85.0979 L75.4708,90.5359 C76.1558,91.5699 77.5548,91.8539 78.5888,91.1689 L85.9928,86.2649 C86.4918,85.9349 86.8318,85.4269 86.9518,84.8359 C87.0718,84.2449 86.9568,83.6449 86.6268,83.1459 L81.1728,74.9129 C80.7398,74.2599 80.0238,73.9059 79.2938,73.9059 L79.2938,73.9059 Z M77.3528,93.0419 C76.1358,93.0419 74.9418,92.4519 74.2208,91.3639 L70.6178,85.9259 C70.0668,85.0929 69.8738,84.0929 70.0728,83.1089 C70.2728,82.1249 70.8418,81.2799 71.6738,80.7289 L74.0848,79.1319 C73.2118,77.4529 73.7308,75.3449 75.3418,74.2769 L77.2258,73.0289 C78.9498,71.8879 81.2818,72.3609 82.4228,74.0849 L87.8768,82.3179 C88.4278,83.1499 88.6218,84.1499 88.4218,85.1339 C88.2218,86.1179 87.6538,86.9639 86.8208,87.5149 L79.4178,92.4189 C78.7818,92.8399 78.0638,93.0419 77.3528,93.0419 L77.3528,93.0419 Z" id="Fill-51" fill="#354546" mask="url(#mask-2)"></path>
                <path d="M80.6815,91.433 C80.4385,91.433 80.2005,91.315 80.0555,91.097 L73.1395,80.657 C72.9115,80.311 73.0055,79.846 73.3515,79.618 C73.6965,79.389 74.1615,79.483 74.3905,79.829 L81.3065,90.269 C81.5355,90.614 81.4405,91.079 81.0955,91.308 C80.9675,91.392 80.8235,91.433 80.6815,91.433" id="Fill-52" fill="#354546" mask="url(#mask-2)"></path>
                <path d="M72.2113,87.722 C71.9773,87.722 71.7463,87.612 71.5993,87.407 C71.3593,87.069 71.4383,86.601 71.7763,86.361 L75.8623,83.454 C76.2003,83.214 76.6683,83.293 76.9083,83.63 C77.1483,83.968 77.0693,84.436 76.7323,84.676 L72.6453,87.583 C72.5133,87.677 72.3613,87.722 72.2113,87.722" id="Fill-53" fill="#354546" mask="url(#mask-2)"></path>
                <path d="M74.598,91.3246 C74.347,91.3246 74.101,91.1986 73.96,90.9696 C73.742,90.6176 73.85,90.1556 74.202,89.9366 L78.463,87.2946 C78.815,87.0756 79.278,87.1846 79.496,87.5366 C79.714,87.8886 79.606,88.3506 79.254,88.5686 L74.993,91.2116 C74.869,91.2876 74.733,91.3246 74.598,91.3246" id="Fill-54" fill="#354546" mask="url(#mask-2)"></path>
                <path d="M83.6527,85.326 C83.6027,85.326 83.5527,85.321 83.5037,85.311 C83.3087,85.271 83.1377,85.156 83.0277,84.99 L78.6817,78.43 C78.5717,78.264 78.5327,78.061 78.5727,77.867 C78.6117,77.672 78.7277,77.5 78.8937,77.39 L82.2437,75.172 C82.5887,74.943 83.0537,75.037 83.2827,75.383 C83.5117,75.728 83.4177,76.193 83.0717,76.422 L80.3467,78.227 L83.8637,83.536 L86.5887,81.732 C86.9347,81.503 87.3997,81.597 87.6287,81.943 C87.8567,82.288 87.7627,82.753 87.4177,82.982 L84.0667,85.201 C83.9437,85.284 83.7987,85.326 83.6527,85.326" id="Fill-55" fill="#354546" mask="url(#mask-2)"></path>
                <path d="M75.1073,80.1043 C74.8643,80.1043 74.6263,79.9863 74.4813,79.7683 C74.2533,79.4233 74.3473,78.9573 74.6923,78.7293 L76.4153,77.5873 C76.7603,77.3593 77.2263,77.4533 77.4543,77.7993 C77.6833,78.1443 77.5883,78.6093 77.2433,78.8383 L75.5213,79.9793 C75.3933,80.0633 75.2503,80.1043 75.1073,80.1043" id="Fill-56" fill="#354546" mask="url(#mask-2)"></path>
                <path d="M16.0985,57.7533 C15.9275,56.9123 15.7775,56.0683 15.6405,55.2213 C15.5715,54.7973 15.5085,54.3713 15.4485,53.9443 L15.3625,53.2983 L15.3225,52.9713 L15.2835,52.6233 L19.9785,52.1523 L20.0445,52.7103 L20.1215,53.2943 C20.1775,53.6863 20.2355,54.0793 20.2995,54.4723 C20.4265,55.2583 20.5665,56.0443 20.7245,56.8243 L16.0985,57.7533 Z" id="Fill-57" fill="#F9BF3B" mask="url(#mask-2)"></path>
                <path d="M19.9896,56.9735 C19.8386,56.2295 19.6976,55.4515 19.5586,54.5925 C19.5006,54.2345 19.4436,53.8555 19.3796,53.3995 L19.3006,52.8075 L19.2336,52.2405 L20.7236,52.0645 L20.7896,52.6215 L20.8646,53.1965 C20.9276,53.6355 20.9836,54.0045 21.0396,54.3515 C21.1756,55.1915 21.3126,55.9515 21.4596,56.6755 L19.9896,56.9735 Z" id="Fill-58" fill="#F1892D" mask="url(#mask-2)"></path>
                <path d="M15.3636,57.9027 C15.2006,57.0987 15.0486,56.2607 14.8996,55.3407 C14.8366,54.9517 14.7756,54.5407 14.7056,54.0487 L14.5386,52.7067 L16.0296,52.5397 L16.1076,53.2077 L16.1916,53.8457 C16.2586,54.3207 16.3196,54.7217 16.3806,55.1007 C16.5266,56.0017 16.6746,56.8197 16.8336,57.6047 L15.3636,57.9027 Z" id="Fill-59" fill="#F1892D" mask="url(#mask-2)"></path>
                <polygon id="Fill-60" fill="#F1892D" mask="url(#mask-2)" points="15.7592 55.9613 15.5212 54.4803 20.1802 53.7323 20.4182 55.2123"></polygon>
                <path d="M17.3256,62.7728 C16.8396,61.1088 16.4376,59.4358 16.0986,57.7528 L20.7246,56.8238 C21.0396,58.3858 21.4116,59.9338 21.8536,61.4468 L17.3256,62.7728 Z" id="Fill-61" fill="#F9BF3B" mask="url(#mask-2)"></path>
                <path d="M21.1342,61.6576 C20.7052,60.1906 20.3202,58.6146 19.9892,56.9726 L21.4602,56.6766 C21.7822,58.2766 22.1572,59.8106 22.5732,61.2366 L21.1342,61.6576 Z" id="Fill-62" fill="#F1892D" mask="url(#mask-2)"></path>
                <path d="M16.6054,62.9832 C16.1324,61.3642 15.7264,59.7022 15.3634,57.9012 L16.8344,57.6052 C17.1884,59.3632 17.5844,60.9842 18.0454,62.5622 L16.6054,62.9832 Z" id="Fill-63" fill="#F1892D" mask="url(#mask-2)"></path>
                <polygon id="Fill-64" fill="#F1892D" mask="url(#mask-2)" points="16.8349 60.9989 16.4799 59.5409 21.0639 58.4249 21.4189 59.8819"></polygon>
                <path d="M19.0873,67.721 C18.3843,66.089 17.8163,64.435 17.3253,62.773 L21.8543,61.447 C22.2993,62.958 22.8113,64.438 23.4183,65.847 L19.0873,67.721 Z" id="Fill-65" fill="#F9BF3B" mask="url(#mask-2)"></path>
                <path d="M22.7289,66.1439 C22.1489,64.7969 21.6269,63.3299 21.1349,61.6589 L22.5729,61.2349 C23.0489,62.8479 23.5509,64.2589 24.1069,65.5509 L22.7289,66.1439 Z" id="Fill-66" fill="#F1892D" mask="url(#mask-2)"></path>
                <path d="M18.3983,68.0174 C17.7413,66.4914 17.1553,64.8454 16.6063,62.9854 L18.0443,62.5604 C18.5763,64.3624 19.1433,65.9544 19.7763,67.4244 L18.3983,68.0174 Z" id="Fill-67" fill="#F1892D" mask="url(#mask-2)"></path>
                <polygon id="Fill-68" fill="#F1892D" mask="url(#mask-2)" points="18.3773 65.9657 17.8773 64.5507 22.3253 62.9777 22.8263 64.3927"></polygon>
                <path d="M21.7284,72.4979 C20.6374,70.9619 19.8004,69.3499 19.0874,67.7209 L23.4174,65.8469 C24.0304,67.2479 24.7354,68.5839 25.5624,69.7479 L21.7284,72.4979 Z" id="Fill-69" fill="#F9BF3B" mask="url(#mask-2)"></path>
                <path d="M24.9516,70.1825 C24.1526,69.0585 23.4266,67.7385 22.7306,66.1475 L24.1056,65.5465 C24.7596,67.0425 25.4356,68.2745 26.1746,69.3135 L24.9516,70.1825 Z" id="Fill-70" fill="#F1892D" mask="url(#mask-2)"></path>
                <path d="M21.1166,72.932 C20.1096,71.514 19.2466,69.953 18.4006,68.022 L19.7746,67.42 C20.5786,69.256 21.3936,70.731 22.3396,72.064 L21.1166,72.932 Z" id="Fill-71" fill="#F1892D" mask="url(#mask-2)"></path>
                <polygon id="Fill-72" fill="#F1892D" mask="url(#mask-2)" points="20.6254 70.8026 19.9074 69.4856 24.0514 67.2276 24.7694 68.5446"></polygon>
                <path d="M26.0985,76.5765 L25.7335,76.3655 C25.6125,76.2935 25.4865,76.2225 25.3875,76.1465 L24.7555,75.6935 C24.6475,75.6195 24.5515,75.5385 24.4555,75.4555 L24.1675,75.2085 C23.9765,75.0425 23.7805,74.8795 23.6125,74.7005 L23.0905,74.1735 C22.9245,73.9935 22.7715,73.8075 22.6125,73.6245 L22.3755,73.3485 C22.2985,73.2565 22.2305,73.1605 22.1575,73.0665 L21.7285,72.4975 L25.5625,69.7485 L25.8825,70.1695 C25.9355,70.2395 25.9865,70.3125 26.0425,70.3785 L26.2105,70.5735 C26.3235,70.7015 26.4325,70.8375 26.5475,70.9605 L26.8985,71.3145 C27.0125,71.4405 27.1375,71.5385 27.2595,71.6435 L27.4415,71.8015 C27.5015,71.8555 27.5615,71.9085 27.6265,71.9495 L28.0035,72.2205 C28.0665,72.2725 28.1245,72.2975 28.1815,72.3305 L28.3545,72.4295 L26.0985,76.5765 Z" id="Fill-73" fill="#F9BF3B" mask="url(#mask-2)"></path>
                <path d="M27.9818,73.0799 L27.7868,72.9689 C27.7298,72.9379 27.6458,72.8929 27.5498,72.8179 L27.2028,72.5679 C27.1028,72.5019 27.0198,72.4309 26.9438,72.3629 L26.6948,72.1479 C26.5908,72.0599 26.4738,71.9599 26.3558,71.8319 L25.9968,71.4699 C25.9198,71.3879 25.8448,71.2999 25.7708,71.2119 C25.7298,71.1639 25.6898,71.1159 25.6478,71.0679 L25.4758,70.8699 C25.4248,70.8099 25.3808,70.7519 25.3368,70.6929 C25.3218,70.6719 25.3058,70.6499 25.2888,70.6289 L24.9648,70.2009 L26.1608,69.2949 L26.4798,69.7169 C26.4978,69.7399 26.5208,69.7709 26.5438,69.8009 C26.5658,69.8319 26.5888,69.8639 26.6138,69.8929 L26.7768,70.0819 C26.8208,70.1319 26.8678,70.1869 26.9148,70.2419 C26.9728,70.3099 27.0298,70.3779 27.0888,70.4419 L27.4548,70.8119 C27.5098,70.8729 27.5818,70.9329 27.6638,71.0019 L27.9448,71.2459 C27.9988,71.2939 28.0208,71.3109 28.0298,71.3169 L28.0648,71.3399 L28.4788,71.6399 C28.4768,71.6379 28.4878,71.6429 28.4978,71.6479 L28.7268,71.7779 L27.9818,73.0799 Z" id="Fill-74" fill="#F1892D" mask="url(#mask-2)"></path>
                <path d="M25.723,77.2254 L25.301,76.9804 C25.188,76.9144 25.06,76.8394 24.942,76.7504 L24.324,76.3074 C24.186,76.2114 24.069,76.1134 23.963,76.0204 L23.6,75.7094 C23.425,75.5584 23.243,75.4014 23.073,75.2224 L22.54,74.6834 C22.417,74.5494 22.303,74.4154 22.192,74.2864 C22.143,74.2304 22.096,74.1734 22.046,74.1174 L21.806,73.8364 C21.742,73.7604 21.687,73.6884 21.633,73.6164 C21.611,73.5864 21.588,73.5564 21.565,73.5264 L21.13,72.9504 L22.327,72.0464 L22.756,72.6144 C22.778,72.6424 22.805,72.6784 22.831,72.7144 C22.87,72.7654 22.909,72.8174 22.951,72.8674 L23.182,73.1374 C23.229,73.1924 23.281,73.2514 23.331,73.3114 C23.43,73.4264 23.529,73.5414 23.633,73.6544 L24.159,74.1864 C24.277,74.3124 24.423,74.4384 24.578,74.5724 L24.944,74.8864 C25.035,74.9644 25.107,75.0254 25.181,75.0764 L25.193,75.0844 L25.842,75.5504 C25.89,75.5874 25.976,75.6384 26.059,75.6864 L26.474,75.9274 L25.723,77.2254 Z" id="Fill-75" fill="#F1892D" mask="url(#mask-2)"></path>
                <polygon id="Fill-76" fill="#F1892D" mask="url(#mask-2)" points="24.1503 75.223 23.0743 74.178 26.3603 70.792 27.4373 71.837"></polygon>
                <path d="M33.2245,75.4959 C32.8465,75.8039 32.4325,76.1129 31.9515,76.4089 C31.7055,76.5569 31.4555,76.6959 31.1555,76.8319 C31.0785,76.8669 31.0075,76.8999 30.9245,76.9329 L30.6695,77.0309 C30.4985,77.0929 30.3255,77.1469 30.1495,77.1929 C29.4475,77.3769 28.7085,77.4169 27.9945,77.2959 C27.6375,77.2329 27.2875,77.1349 26.9495,77.0019 C26.8645,76.9709 26.7825,76.9309 26.6995,76.8939 L26.5755,76.8379 L26.5145,76.8089 L26.4665,76.7829 L26.0985,76.5769 L28.3545,72.4289 L28.5245,72.5329 L28.5445,72.5449 L28.5525,72.5489 L28.5695,72.5569 C28.5805,72.5619 28.5915,72.5679 28.6035,72.5719 C28.6495,72.5919 28.6985,72.6029 28.7465,72.6139 C28.8455,72.6289 28.9475,72.6259 29.0435,72.5979 C29.0665,72.5889 29.0915,72.5829 29.1145,72.5739 C29.1255,72.5689 29.1375,72.5639 29.1495,72.5609 C29.1625,72.5569 29.1845,72.5439 29.2025,72.5369 C29.2795,72.5029 29.3915,72.4419 29.5005,72.3759 C29.7245,72.2389 29.9765,72.0559 30.2405,71.8409 L33.2245,75.4959 Z" id="Fill-77" fill="#F9BF3B" mask="url(#mask-2)"></path>
                <path d="M28.9052,71.8861 L28.9072,71.8861 L28.9052,71.8861 M28.8632,73.3731 C28.7882,73.3731 28.7132,73.3671 28.6362,73.3561 L28.5892,73.3471 C28.5072,73.3291 28.4182,73.3071 28.3202,73.2661 C28.2982,73.2581 28.2762,73.2481 28.2542,73.2371 L28.1272,73.1691 L27.9652,73.0701 L28.7442,71.7881 L28.8692,71.8641 L28.8702,71.8641 C28.8862,71.8561 28.9022,71.8491 28.9162,71.8431 C28.9332,71.8361 29.0102,71.7961 29.1112,71.7351 C29.3012,71.6181 29.5292,71.4541 29.7662,71.2601 L30.7152,72.4221 C30.4222,72.6611 30.1442,72.8611 29.8912,73.0161 C29.8062,73.0681 29.6472,73.1611 29.5052,73.2221 C29.4672,73.2411 29.4312,73.2561 29.4042,73.2661 L29.3832,73.2741 C29.3562,73.2841 29.3302,73.2931 29.3032,73.3021 L29.2532,73.3181 C29.1272,73.3541 28.9972,73.3731 28.8632,73.3731" id="Fill-78" fill="#F1892D" mask="url(#mask-2)"></path>
                <path d="M28.8192,78.1146 C28.4982,78.1146 28.1792,78.0886 27.8682,78.0356 C27.4612,77.9636 27.0632,77.8516 26.6832,77.7026 C26.6082,77.6756 26.5352,77.6426 26.4622,77.6106 L26.1082,77.4426 L25.7312,77.2296 L26.4662,75.9226 L26.8932,76.1586 L27.0802,76.2436 C27.1212,76.2616 27.1622,76.2816 27.2042,76.2966 L27.2242,76.3036 C27.5132,76.4176 27.8162,76.5036 28.1242,76.5576 C28.7142,76.6576 29.3502,76.6266 29.9602,76.4676 C30.1052,76.4296 30.2562,76.3826 30.4092,76.3276 L30.6552,76.2336 C30.6962,76.2166 30.7412,76.1966 30.7882,76.1756 L30.8502,76.1476 C31.0802,76.0426 31.2952,75.9276 31.5642,75.7656 C31.9492,75.5306 32.3272,75.2586 32.7512,74.9136 L33.6982,76.0776 C33.2212,76.4656 32.7912,76.7736 32.3422,77.0486 C32.1252,77.1796 31.8322,77.3486 31.4652,77.5156 L31.4052,77.5416 C31.3402,77.5716 31.2762,77.6006 31.2042,77.6296 L30.9232,77.7376 C30.7252,77.8086 30.5282,77.8696 30.3382,77.9186 C29.8402,78.0486 29.3272,78.1146 28.8192,78.1146" id="Fill-79" fill="#F1892D" mask="url(#mask-2)"></path>
                <polygon id="Fill-80" fill="#F1892D" mask="url(#mask-2)" points="29.4203 77.3685 28.3143 72.7735 29.7723 72.4225 30.8783 77.0165"></polygon>
                <path d="M36.9442,72.0257 C36.3752,72.5417 35.8062,73.0997 35.2052,73.6837 C34.6022,74.2677 33.9752,74.8787 33.2242,75.4957 L30.2402,71.8407 C30.7692,71.4067 31.3332,70.8667 31.9182,70.2987 C32.5042,69.7297 33.1152,69.1287 33.7722,68.5317 L36.9442,72.0257 Z" id="Fill-81" fill="#F9BF3B" mask="url(#mask-2)"></path>
                <path d="M30.7152,72.4207 L29.7652,71.2607 C30.2722,70.8457 30.8252,70.3147 31.3952,69.7607 L31.6112,69.5507 C32.1382,69.0387 32.6822,68.5087 33.2672,67.9777 L34.2762,69.0877 C33.7102,69.6017 33.1742,70.1227 32.6572,70.6257 L32.4402,70.8367 C31.8462,71.4137 31.2672,71.9687 30.7152,72.4207" id="Fill-82" fill="#F1892D" mask="url(#mask-2)"></path>
                <path d="M33.7011,76.075 L32.7481,74.916 C33.4441,74.345 34.0351,73.772 34.6071,73.219 L34.8611,72.973 C35.4051,72.444 35.9181,71.944 36.4401,71.47 L37.4481,72.58 C36.9461,73.037 36.4411,73.528 35.9071,74.048 L35.6501,74.297 C35.0561,74.871 34.4431,75.465 33.7011,76.075" id="Fill-83" fill="#F1892D" mask="url(#mask-2)"></path>
                <polygon id="Fill-84" fill="#F1892D" mask="url(#mask-2)" points="34.6674 74.2064 31.3794 70.8214 32.4564 69.7764 35.7434 73.1614"></polygon>
                <path d="M40.3812,69.619 C39.2142,70.133 38.0772,70.996 36.9442,72.026 L33.7722,68.532 C34.4292,67.936 35.1332,67.343 35.9082,66.789 C36.6812,66.235 37.5302,65.723 38.4612,65.309 L40.3812,69.619 Z" id="Fill-85" fill="#F9BF3B" mask="url(#mask-2)"></path>
                <path d="M34.2758,69.0877 L33.2678,67.9767 C34.0588,67.2597 34.7588,66.6887 35.4718,66.1787 C36.3548,65.5457 37.2588,65.0227 38.1568,64.6237 L38.7658,65.9937 C37.9608,66.3527 37.1458,66.8247 36.3448,67.3987 C35.6798,67.8737 35.0228,68.4107 34.2758,69.0877" id="Fill-86" fill="#F1892D" mask="url(#mask-2)"></path>
                <path d="M37.4486,72.5804 L36.4396,71.4704 C37.8006,70.2334 38.9566,69.4274 40.0786,68.9334 L40.6836,70.3054 C39.7146,70.7324 38.6856,71.4554 37.4486,72.5804" id="Fill-87" fill="#F1892D" mask="url(#mask-2)"></path>
                <polygon id="Fill-88" fill="#F1892D" mask="url(#mask-2)" points="38.0394 71.0648 35.2974 67.2248 36.5184 66.3528 39.2604 70.1928"></polygon>
                <path d="M43.9691,69.0799 C42.7211,68.9229 41.5451,69.0969 40.3811,69.6189 L38.4611,65.3089 C39.3891,64.8939 40.4011,64.5809 41.4441,64.4289 C42.4861,64.2679 43.5481,64.2719 44.5671,64.3989 L43.9691,69.0799 Z" id="Fill-89" fill="#F9BF3B" mask="url(#mask-2)"></path>
                <path d="M38.7675,65.9935 L38.1555,64.6235 C39.1955,64.1595 40.2655,63.8435 41.3345,63.6865 C42.3945,63.5235 43.5155,63.5135 44.6595,63.6555 L44.4745,65.1435 C43.4665,65.0185 42.4855,65.0275 41.5585,65.1695 C40.6195,65.3075 39.6825,65.5845 38.7675,65.9935" id="Fill-90" fill="#F1892D" mask="url(#mask-2)"></path>
                <path d="M40.6884,70.3036 L40.0744,68.9346 C41.3634,68.3556 42.6674,68.1606 44.0634,68.3366 L43.8754,69.8246 C42.7614,69.6836 41.7194,69.8406 40.6884,70.3036" id="Fill-91" fill="#F1892D" mask="url(#mask-2)"></path>
                <polygon id="Fill-92" fill="#F1892D" mask="url(#mask-2)" points="41.4022 69.2064 40.7022 64.5394 42.1852 64.3174 42.8852 68.9834"></polygon>
                <path d="M23.5541,46.9666 C23.6281,47.7886 23.0161,48.5216 22.1951,48.5956 L21.4561,48.6626 C20.6341,48.7366 19.9011,48.1256 19.8271,47.3036 L19.1481,39.7936 C19.0741,38.9716 19.6851,38.2386 20.5071,38.1646 L21.2461,38.0976 C22.0681,38.0236 22.8011,38.6346 22.8751,39.4566 L23.5541,46.9666 Z" id="Fill-93" fill="#A5B5B6" mask="url(#mask-2)"></path>
                <path d="M21.3822,38.8416 C21.3592,38.8416 21.3372,38.8426 21.3142,38.8446 L20.5742,38.9116 C20.3772,38.9296 20.1962,39.0246 20.0682,39.1786 C19.9392,39.3336 19.8772,39.5286 19.8952,39.7256 L20.5732,47.2356 C20.5912,47.4336 20.6872,47.6136 20.8412,47.7426 C20.9962,47.8716 21.1912,47.9336 21.3882,47.9156 L22.1272,47.8486 C22.3252,47.8306 22.5052,47.7356 22.6342,47.5806 C22.7632,47.4256 22.8252,47.2326 22.8072,47.0336 L22.1282,39.5246 C22.0932,39.1346 21.7652,38.8416 21.3822,38.8416 M21.3182,49.4186 C20.7942,49.4186 20.2902,49.2366 19.8812,48.8946 C19.4182,48.5086 19.1332,47.9676 19.0802,47.3706 L18.4012,39.8616 C18.3472,39.2636 18.5302,38.6806 18.9162,38.2176 C19.3012,37.7556 19.8422,37.4716 20.4402,37.4176 L21.1792,37.3506 C22.4142,37.2366 23.5102,38.1536 23.6222,39.3886 L24.3002,46.8996 C24.3552,47.4956 24.1722,48.0796 23.7862,48.5416 C23.4012,49.0046 22.8592,49.2886 22.2622,49.3426 L21.5232,49.4096 C21.4552,49.4156 21.3862,49.4186 21.3182,49.4186" id="Fill-94" fill="#354546" mask="url(#mask-2)"></path>
                <path d="M23.6493,48.3871 L23.4903,46.6311 C23.3423,44.9881 21.8763,43.7651 20.2323,43.9131 L18.4773,44.0721 C16.8333,44.2201 15.6103,45.6861 15.7593,47.3301 L15.9183,49.0861 C16.0663,50.7291 17.5323,51.9521 19.1753,51.8041 L20.9313,51.6451 C22.5743,51.4961 23.7973,50.0311 23.6493,48.3871" id="Fill-95" fill="#A5B5B6" mask="url(#mask-2)"></path>
                <path d="M20.5043,44.6512 C20.4363,44.6512 20.3683,44.6542 20.3003,44.6602 L18.5443,44.8192 C17.9493,44.8732 17.4083,45.1572 17.0223,45.6212 C16.6353,46.0842 16.4523,46.6672 16.5063,47.2622 L16.6643,49.0182 C16.7763,50.2542 17.8723,51.1682 19.1083,51.0572 L20.8643,50.8982 C22.0993,50.7862 23.0143,49.6902 22.9023,48.4552 L22.7433,46.6982 C22.6903,46.1032 22.4053,45.5632 21.9413,45.1762 C21.5313,44.8342 21.0273,44.6512 20.5043,44.6512 M18.9023,52.5662 C16.9863,52.5662 15.3463,51.0982 15.1703,49.1532 L15.0123,47.3972 C14.9223,46.4032 15.2273,45.4312 15.8703,44.6602 C16.5133,43.8892 17.4153,43.4152 18.4093,43.3252 L20.1653,43.1662 C21.1593,43.0752 22.1313,43.3812 22.9023,44.0242 C23.6733,44.6682 24.1483,45.5692 24.2373,46.5642 L24.3963,48.3192 C24.5823,50.3792 23.0583,52.2062 20.9993,52.3922 L19.2433,52.5502 C19.1293,52.5612 19.0153,52.5662 18.9023,52.5662" id="Fill-96" fill="#354546" mask="url(#mask-2)"></path>
                <path d="M14.243,65.2723 C15.002,66.5633 16.495,67.1053 17.56,66.4793 L26.76,61.0663 C27.825,60.4393 28.075,58.8713 27.316,57.5803 L14.261,35.3943 C13.502,34.1033 12.009,33.5603 10.944,34.1873 L1.744,39.6003 C0.68,40.2263 0.429,41.7953 1.188,43.0853 L14.243,65.2723 Z" id="Fill-97" fill="#5B5B5B" mask="url(#mask-2)"></path>
                <path d="M14.8895,64.8919 C15.4315,65.8129 16.4805,66.2449 17.1805,65.8329 L26.3795,60.4199 C26.6975,60.2319 26.9115,59.8899 26.9805,59.4549 C27.0575,58.9729 26.9445,58.4289 26.6695,57.9609 L13.6145,35.7739 C13.3395,35.3069 12.9185,34.9429 12.4605,34.7759 C12.0465,34.6259 11.6425,34.6459 11.3245,34.8339 L2.1245,40.2459 C1.4255,40.6579 1.2925,41.7839 1.8345,42.7049 L14.8895,64.8919 Z M16.5855,67.4889 C15.4535,67.4889 14.2825,66.8179 13.5965,65.6529 L0.5425,43.4659 C-0.4285,41.8159 -0.0605,39.7909 1.3645,38.9539 L10.5635,33.5409 C11.2755,33.1219 12.1305,33.0599 12.9735,33.3669 C13.7645,33.6549 14.4525,34.2399 14.9075,35.0139 L27.9615,57.2009 C28.4175,57.9739 28.5955,58.8589 28.4625,59.6909 C28.3215,60.5759 27.8515,61.2939 27.1395,61.7129 L17.9405,67.1259 C17.5215,67.3719 17.0565,67.4889 16.5855,67.4889 L16.5855,67.4889 Z" id="Fill-98" fill="#373737" mask="url(#mask-2)"></path>
                <path d="M16.1293,64.1629 C16.8883,65.4529 18.3813,65.9959 19.4463,65.3699 L28.6453,59.9569 C29.7113,59.3299 29.9613,57.7619 29.2013,56.4709 L16.1473,34.2839 C15.3873,32.9939 13.8953,32.4509 12.8303,33.0779 L3.6303,38.4899 C2.5653,39.1169 2.3153,40.6849 3.0743,41.9759 L16.1293,64.1629 Z" id="Fill-99" fill="#6D6D6D" mask="url(#mask-2)"></path>
                <path d="M16.1293,64.1629 C16.8883,65.4529 18.3813,65.9959 19.4463,65.3699 L28.6453,59.9569 C29.7113,59.3299 29.9613,57.7619 29.2013,56.4709 L16.1473,34.2839 C15.3873,32.9939 13.8953,32.4509 12.8303,33.0779 L3.6303,38.4899 C2.5653,39.1169 2.3153,40.6849 3.0743,41.9759 L16.1293,64.1629 Z" id="Fill-100" fill="#808080" mask="url(#mask-2)"></path>
                <polygon id="Fill-101" fill="#19B5FE" mask="url(#mask-2)" points="13.7352 60.0946 26.8082 52.4026 17.4892 36.5656 4.4172 44.2576"></polygon>
                <path d="M25.5907,50.3338 C20.6067,47.7508 13.8307,43.9008 9.6717,41.1658 L11.9877,39.8028 C15.0877,41.1428 18.8937,42.9798 22.2467,44.6508 L25.5907,50.3338 Z" id="Fill-102" fill="#39D5FF" mask="url(#mask-2)"></path>
                <path d="M21.3607,55.6078 C15.5057,52.3728 9.0627,48.5338 5.3917,45.9138 L4.4167,44.2568 L5.6937,43.5058 C10.6817,45.2418 20.1167,49.9188 25.9617,52.9008 L21.3607,55.6078 Z" id="Fill-103" fill="#39D5FF" mask="url(#mask-2)"></path>
                <path d="M5.4437,44.5233 L14.0017,59.0673 L25.7807,52.1363 L17.2227,37.5923 L5.4437,44.5233 Z M13.7357,60.8443 C13.6727,60.8443 13.6097,60.8363 13.5477,60.8203 C13.3547,60.7713 13.1897,60.6463 13.0887,60.4753 L3.7707,44.6373 C3.6697,44.4663 3.6407,44.2613 3.6907,44.0693 C3.7407,43.8763 3.8647,43.7113 4.0367,43.6103 L17.1087,35.9193 C17.4657,35.7093 17.9257,35.8283 18.1357,36.1853 L27.4547,52.0223 C27.6647,52.3793 27.5457,52.8383 27.1887,53.0493 L14.1157,60.7413 C13.9997,60.8093 13.8677,60.8443 13.7357,60.8443 L13.7357,60.8443 Z" id="Fill-104" fill="#373737" mask="url(#mask-2)"></path>
                <path d="M13.807,33.5677 C13.595,33.5677 13.39,33.6177 13.21,33.7237 L4.011,39.1367 C3.312,39.5477 3.179,40.6737 3.721,41.5957 L16.775,63.7827 C17.051,64.2497 17.471,64.6137 17.93,64.7797 C18.344,64.9307 18.747,64.9107 19.066,64.7227 L28.265,59.3107 C28.965,58.8987 29.098,57.7727 28.555,56.8507 L15.501,34.6647 C15.099,33.9817 14.417,33.5677 13.807,33.5677 M18.471,66.3817 C18.125,66.3817 17.769,66.3177 17.417,66.1897 C16.625,65.9017 15.938,65.3177 15.483,64.5427 L2.428,42.3567 C1.457,40.7067 1.826,38.6817 3.25,37.8437 L12.45,32.4307 C13.874,31.5927 15.823,32.2537 16.793,33.9037 L29.848,56.0907 C30.819,57.7407 30.45,59.7647 29.026,60.6037 L19.827,66.0157 C19.413,66.2587 18.951,66.3817 18.471,66.3817" id="Fill-105" fill="#373737" mask="url(#mask-2)"></path>
                <path d="M7.3094,40.1527 C7.0524,40.1527 6.8024,40.0207 6.6624,39.7827 C6.4524,39.4257 6.5714,38.9657 6.9284,38.7567 L11.4604,36.0897 C11.8174,35.8797 12.2774,35.9987 12.4874,36.3557 C12.6974,36.7127 12.5784,37.1727 12.2214,37.3817 L7.6894,40.0487 C7.5694,40.1187 7.4384,40.1527 7.3094,40.1527" id="Fill-106" fill="#373737" mask="url(#mask-2)"></path>
                <path d="M14.8539,41.0789 C15.0989,41.5829 15.9359,41.5239 16.7439,41.1319 C17.5509,40.7399 17.9079,40.4769 17.6639,39.9729 C17.4179,39.4689 16.6819,39.0639 15.8739,39.4559 C15.0659,39.8489 14.6089,40.5749 14.8539,41.0789" id="Fill-107" fill="#FFFFFF" mask="url(#mask-2)"></path>
                <path d="M21.1923,60.9261 C20.9323,60.9261 20.6803,60.7911 20.5413,60.5501 C20.3353,60.1911 20.4583,59.7321 20.8173,59.5261 L23.8403,57.7861 C24.1993,57.5801 24.6583,57.7031 24.8653,58.0621 C25.0713,58.4221 24.9473,58.8801 24.5883,59.0871 L21.5653,60.8261 C21.4473,60.8931 21.3193,60.9261 21.1923,60.9261" id="Fill-108" fill="#373737" mask="url(#mask-2)"></path>
                <path d="M10.1337,54.7474 C10.7547,54.4594 11.5807,54.8164 11.9697,55.5414 L12.3197,56.1924 C12.7077,56.9164 12.5177,57.7454 11.8967,58.0334 L9.3437,59.9764 C8.7227,60.2644 7.8967,59.9064 7.5087,59.1824 L7.1587,58.5314 C6.7697,57.8064 6.9607,56.9784 7.5817,56.6904 L10.1337,54.7474 Z" id="Fill-109" fill="#A5B5B6" mask="url(#mask-2)"></path>
                <path d="M7.5814,56.6908 L7.5824,56.6908 L7.5814,56.6908 Z M10.5034,55.4088 L8.0354,57.2878 C7.9924,57.3198 7.9454,57.3488 7.8964,57.3708 C7.8214,57.4058 7.7674,57.4718 7.7354,57.5668 C7.6774,57.7418 7.7084,57.9698 7.8194,58.1758 L8.1684,58.8278 C8.3664,59.1948 8.7374,59.3738 8.9744,59.3148 L11.4424,57.4368 C11.4854,57.4028 11.5314,57.3758 11.5814,57.3528 C11.6564,57.3178 11.7104,57.2518 11.7424,57.1568 C11.8004,56.9818 11.7684,56.7538 11.6584,56.5468 L11.3084,55.8958 C11.1114,55.5278 10.7394,55.3488 10.5034,55.4088 L10.5034,55.4088 Z M8.8894,60.8228 C8.0954,60.8228 7.2774,60.3398 6.8474,59.5368 L6.4974,58.8848 C6.1904,58.3138 6.1234,57.6598 6.3124,57.0918 C6.4654,56.6338 6.7724,56.2678 7.1834,56.0508 L9.6794,54.1508 C9.7224,54.1178 9.7694,54.0898 9.8184,54.0668 C10.7954,53.6148 12.0564,54.1168 12.6304,55.1868 L12.9794,55.8378 C13.2874,56.4098 13.3544,57.0638 13.1644,57.6308 C13.0124,58.0898 12.7044,58.4558 12.2944,58.6718 L9.7974,60.5728 C9.7544,60.6058 9.7084,60.6338 9.6594,60.6568 C9.4154,60.7698 9.1534,60.8228 8.8894,60.8228 L8.8894,60.8228 Z" id="Fill-110" fill="#354546" mask="url(#mask-2)"></path>
                <path d="M8.0106,51.0584 C8.6316,50.7704 9.4576,51.1274 9.8456,51.8514 L10.1956,52.5034 C10.5846,53.2274 10.3936,54.0564 9.7726,54.3434 L7.2206,56.2874 C6.5996,56.5744 5.7736,56.2174 5.3846,55.4934 L5.0346,54.8414 C4.6466,54.1174 4.8366,53.2894 5.4576,53.0014 L8.0106,51.0584 Z" id="Fill-111" fill="#A5B5B6" mask="url(#mask-2)"></path>
                <path d="M5.4579,53.0018 L5.4589,53.0018 L5.4579,53.0018 Z M8.3799,51.7198 L5.9129,53.5988 C5.8689,53.6308 5.8229,53.6598 5.7729,53.6818 C5.6979,53.7168 5.6439,53.7828 5.6119,53.8778 C5.5539,54.0528 5.5849,54.2808 5.6959,54.4868 L6.0459,55.1388 C6.2429,55.5058 6.6149,55.6868 6.8509,55.6258 L9.3189,53.7468 C9.3619,53.7138 9.4089,53.6868 9.4579,53.6638 C9.5329,53.6288 9.5869,53.5628 9.6189,53.4668 C9.6769,53.2928 9.6459,53.0648 9.5349,52.8578 L9.1859,52.2068 C8.9879,51.8388 8.6169,51.6608 8.3799,51.7198 L8.3799,51.7198 Z M6.7669,57.1338 C5.9719,57.1338 5.1549,56.6508 4.7239,55.8478 L4.3749,55.1958 C4.0669,54.6248 3.9999,53.9708 4.1889,53.4028 C4.3429,52.9448 4.6499,52.5788 5.0599,52.3618 L7.5559,50.4618 C7.5999,50.4288 7.6459,50.4008 7.6949,50.3778 C8.6719,49.9248 9.9339,50.4278 10.5069,51.4978 L10.8569,52.1488 C11.1639,52.7218 11.2309,53.3748 11.0409,53.9418 C10.8889,54.4008 10.5819,54.7668 10.1709,54.9828 L7.6749,56.8838 C7.6319,56.9168 7.5849,56.9448 7.5359,56.9668 C7.2919,57.0808 7.0309,57.1338 6.7669,57.1338 L6.7669,57.1338 Z" id="Fill-112" fill="#354546" mask="url(#mask-2)"></path>
                <path d="M6.203,47.6634 C6.824,47.3754 7.65,47.7324 8.038,48.4564 L8.388,49.1084 C8.777,49.8324 8.587,50.6614 7.965,50.9484 L5.413,52.8924 C4.792,53.1794 3.966,52.8224 3.577,52.0984 L3.227,51.4464 C2.839,50.7224 3.029,49.8944 3.65,49.6064 L6.203,47.6634 Z" id="Fill-113" fill="#A5B5B6" mask="url(#mask-2)"></path>
                <path d="M3.6503,49.6063 L3.6513,49.6063 L3.6503,49.6063 Z M6.5723,48.3243 L4.1053,50.2033 C4.0613,50.2363 4.0153,50.2643 3.9653,50.2873 C3.8913,50.3213 3.8373,50.3873 3.8043,50.4833 C3.7463,50.6573 3.7773,50.8853 3.8883,51.0923 L4.2383,51.7433 C4.4353,52.1113 4.8073,52.2913 5.0433,52.2303 L7.5113,50.3523 C7.5543,50.3193 7.6013,50.2913 7.6503,50.2683 C7.7253,50.2333 7.7793,50.1673 7.8113,50.0723 C7.8693,49.8973 7.8383,49.6693 7.7273,49.4633 L7.3783,48.8113 C7.1803,48.4433 6.8093,48.2653 6.5723,48.3243 L6.5723,48.3243 Z M4.9593,53.7383 C4.1643,53.7383 3.3473,53.2553 2.9163,52.4533 L2.5673,51.8013 C2.2593,51.2293 2.1923,50.5753 2.3813,50.0073 C2.5353,49.5503 2.8423,49.1833 3.2523,48.9673 L5.7493,47.0663 C5.7923,47.0333 5.8383,47.0053 5.8873,46.9823 C6.8643,46.5303 8.1263,47.0323 8.6993,48.1023 L9.0493,48.7543 C9.3563,49.3263 9.4233,49.9793 9.2333,50.5473 C9.0813,51.0053 8.7743,51.3723 8.3633,51.5883 L5.8673,53.4883 C5.8243,53.5213 5.7773,53.5493 5.7283,53.5723 C5.4843,53.6853 5.2233,53.7383 4.9593,53.7383 L4.9593,53.7383 Z" id="Fill-114" fill="#354546" mask="url(#mask-2)"></path>
                <path d="M62.306,75.0506 L62.307,75.0506 L62.306,75.0506 Z M63.242,75.4266 C63.218,75.4266 63.195,75.4276 63.172,75.4286 C62.992,75.4366 62.923,75.4786 62.912,75.4926 C62.828,75.6086 62.759,76.3036 63.525,77.9236 C64.106,79.1536 64.931,80.3996 65.411,80.9466 C65.797,81.3866 66.282,81.6296 66.744,81.6056 C67.143,81.5876 67.497,81.3826 67.767,81.0126 C68.439,80.0896 68.305,78.5076 67.473,77.5586 C66.766,76.7536 64.447,75.4266 63.242,75.4266 L63.242,75.4266 Z M66.688,83.1066 C65.811,83.1066 64.941,82.6846 64.284,81.9366 C63.744,81.3216 60.302,76.5286 61.7,74.6096 C61.911,74.3186 62.327,73.9656 63.104,73.9296 C64.849,73.8536 67.641,75.4766 68.6,76.5696 C69.905,78.0566 70.071,80.3966 68.979,81.8956 C68.44,82.6356 67.67,83.0656 66.812,83.1046 C66.77,83.1066 66.729,83.1066 66.688,83.1066 L66.688,83.1066 Z" id="Fill-115" fill="#19B5FE" mask="url(#mask-2)"></path>
                <path d="M63.5194,74.7791 C63.4514,75.2111 63.9294,76.0411 65.4744,77.0761 C66.7534,77.9331 68.3024,78.6071 69.1104,78.8051 C69.7124,78.9531 70.3304,78.8441 70.8494,78.4981 C71.4764,78.0811 71.9124,77.3581 72.0444,76.5131 C72.3074,74.8441 71.3524,73.1991 69.9174,72.8461 C68.7854,72.5681 65.7104,72.9701 64.2044,73.9731 C63.9194,74.1621 63.5704,74.4551 63.5194,74.7791 M69.6424,80.3701 C69.3474,80.3701 69.0484,80.3351 68.7524,80.2621 C66.9854,79.8281 61.6074,77.2831 62.0374,74.5461 C62.1464,73.8541 62.5954,73.2411 63.3734,72.7241 C65.1654,71.5321 68.6654,70.9931 70.2754,71.3901 C72.4484,71.9241 73.9064,74.3261 73.5264,76.7461 C73.3294,78.0041 72.6564,79.0981 71.6804,79.7471 C71.0614,80.1591 70.3594,80.3701 69.6424,80.3701" id="Fill-116" fill="#C72C1C" mask="url(#mask-2)"></path>
                <path d="M58.5819,60.0238 C56.9379,59.8798 54.2449,59.8338 52.5979,59.9198 L43.5269,60.3938 C41.8789,60.4798 40.5069,61.8998 40.4779,63.5498 L40.3279,72.1728 C40.2989,73.8228 41.5779,75.5278 43.1699,75.9618 L52.3589,78.4688 C53.9509,78.9038 56.5669,78.9488 58.1729,78.5708 L67.4439,76.3858 C69.0499,76.0068 70.3879,74.3478 70.4159,72.6978 L70.5669,64.0748 C70.5959,62.4248 69.2739,60.9578 67.6299,60.8148 L58.5819,60.0238 Z" id="Fill-117" fill="#A5B5B6" mask="url(#mask-2)"></path>
                <path d="M67.4857,73.9857 L58.2147,76.1717 C56.6087,76.5497 53.9927,76.5047 52.4007,76.0697 L43.2117,73.5627 C41.6197,73.1277 40.3407,71.4227 40.3697,69.7737 L40.3277,72.1727 C40.2987,73.8227 41.5777,75.5277 43.1697,75.9617 L52.3587,78.4687 C53.9507,78.9037 56.5677,78.9487 58.1727,78.5707 L67.4437,76.3857 C69.0497,76.0067 70.3877,74.3477 70.4167,72.6977 L70.4587,70.2977 C70.4297,71.9477 69.0917,73.6077 67.4857,73.9857" id="Fill-118" fill="#859596" mask="url(#mask-2)"></path>
                <path d="M54.5624,60.6258 C53.8564,60.6258 53.1874,60.6398 52.6364,60.6678 L43.5654,61.1428 C42.3204,61.2078 41.2504,62.3158 41.2284,63.5628 L41.0784,72.1858 C41.0554,73.4958 42.1034,74.8938 43.3674,75.2388 L52.5564,77.7458 C54.0254,78.1468 56.5194,78.1898 58.0004,77.8408 L67.2714,75.6558 C68.5464,75.3548 69.6434,73.9948 69.6664,72.6848 L69.8164,64.0618 C69.8384,62.8148 68.8074,61.6698 67.5654,61.5618 L58.5164,60.7718 C57.4474,60.6778 55.9344,60.6258 54.5624,60.6258 M55.5414,79.5798 C54.3324,79.5798 53.1004,79.4488 52.1614,79.1928 L42.9724,76.6858 C41.0344,76.1568 39.5434,74.1688 39.5784,72.1598 L39.7294,63.5368 C39.7644,61.4978 41.4504,59.7508 43.4874,59.6448 L52.5584,59.1708 C54.2384,59.0828 56.9704,59.1298 58.6474,59.2768 L67.6954,60.0668 C69.7284,60.2448 71.3524,62.0478 71.3164,64.0878 L71.1664,72.7108 C71.1314,74.7198 69.5714,76.6548 67.6164,77.1158 L58.3454,79.3008 C57.5514,79.4878 56.5544,79.5798 55.5414,79.5798" id="Fill-119" fill="#354546" mask="url(#mask-2)"></path>
                <polygon id="Fill-120" fill="#556566" mask="url(#mask-2)" points="58.475 73.1019 45.399 72.8729 45.559 63.6749 58.636 63.9029"></polygon>
                <path d="M54.0595,71.1634 C53.8025,71.1634 53.5605,71.0314 53.4235,70.8094 L52.3855,69.1444 L50.7685,69.1164 C50.5175,69.1124 50.2845,68.9824 50.1495,68.7694 L50.0815,68.6644 L49.6455,69.6814 C49.5475,69.9084 49.3455,70.0724 49.1025,70.1214 C48.8605,70.1694 48.6105,70.0954 48.4335,69.9224 L47.5465,69.0604 L45.4665,69.0244 C45.0525,69.0174 44.7225,68.6754 44.7295,68.2614 C44.7365,67.8474 45.0785,67.5174 45.4925,67.5244 L47.8705,67.5654 C48.0605,67.5694 48.2435,67.6454 48.3795,67.7784 L48.6975,68.0874 L49.2635,66.7704 C49.3725,66.5154 49.6145,66.3414 49.8915,66.3194 C50.1685,66.2974 50.4345,66.4294 50.5845,66.6634 L51.1975,67.6234 L52.8195,67.6524 C53.0735,67.6564 53.3085,67.7894 53.4425,68.0054 L53.8375,68.6384 L54.6495,66.0844 C54.7475,65.7774 55.0325,65.5664 55.3555,65.5624 C55.6795,65.5584 55.9675,65.7624 56.0735,66.0674 L56.6435,67.7194 L58.5685,67.7524 C58.9825,67.7594 59.3125,68.1014 59.3055,68.5154 C59.2975,68.9254 58.9635,69.2524 58.5555,69.2524 L58.5425,69.2524 L56.0925,69.2094 C55.7775,69.2044 55.4995,69.0024 55.3965,68.7044 L55.3935,68.6944 L54.7745,70.6404 C54.6855,70.9194 54.4425,71.1214 54.1525,71.1574 C54.1215,71.1614 54.0905,71.1634 54.0595,71.1634" id="Fill-121" fill="#D5E5E6" mask="url(#mask-2)"></path>
                <path d="M46.162,72.1366 L57.738,72.3386 L57.872,64.6396 L46.296,64.4386 L46.162,72.1366 Z M58.475,73.8516 L58.462,73.8516 L45.386,73.6236 C44.972,73.6156 44.642,73.2746 44.649,72.8606 L44.809,63.6616 C44.817,63.2476 45.16,62.9156 45.573,62.9256 L58.648,63.1536 C58.848,63.1566 59.037,63.2396 59.175,63.3826 C59.313,63.5256 59.389,63.7176 59.385,63.9166 L59.225,73.1146 C59.222,73.3136 59.139,73.5036 58.996,73.6416 C58.856,73.7766 58.669,73.8516 58.475,73.8516 L58.475,73.8516 Z" id="Fill-122" fill="#354546" mask="url(#mask-2)"></path>
                <path d="M65.4535,65.7972 C65.4365,66.7772 64.6275,67.5582 63.6475,67.5412 C62.6675,67.5242 61.8875,66.7152 61.9045,65.7352 C61.9215,64.7552 62.7295,63.9742 63.7095,63.9912 C64.6895,64.0082 65.4705,64.8172 65.4535,65.7972" id="Fill-123" fill="#F85C4C" mask="url(#mask-2)"></path>
                <path d="M63.6786,64.7411 C63.1216,64.7411 62.6636,65.1891 62.6536,65.7481 C62.6496,66.0221 62.7516,66.2821 62.9416,66.4781 C63.1316,66.6761 63.3866,66.7861 63.6606,66.7911 C63.9346,66.7921 64.1936,66.6941 64.3906,66.5041 C64.5876,66.3131 64.6986,66.0581 64.7036,65.7841 L64.7036,65.7841 C64.7086,65.5111 64.6066,65.2511 64.4156,65.0541 C64.2256,64.8571 63.9706,64.7461 63.6966,64.7411 L63.6786,64.7411 M63.6796,68.2911 L63.6346,68.2911 C62.9606,68.2791 62.3306,68.0061 61.8626,67.5201 C61.3936,67.0351 61.1426,66.3971 61.1546,65.7221 C61.1786,64.3301 62.3326,63.2191 63.7226,63.2421 C64.3976,63.2531 65.0266,63.5271 65.4946,64.0121 C65.9636,64.4971 66.2156,65.1361 66.2036,65.8101 C66.1916,66.4851 65.9176,67.1141 65.4326,67.5831 C64.9586,68.0411 64.3376,68.2911 63.6796,68.2911" id="Fill-124" fill="#C72C1C" mask="url(#mask-2)"></path>
                <path d="M65.3549,71.4466 C65.3379,72.4266 64.5289,73.2076 63.5489,73.1906 C62.5689,73.1736 61.7889,72.3646 61.8059,71.3846 C61.8229,70.4046 62.6309,69.6236 63.6109,69.6406 C64.5909,69.6576 65.3719,70.4666 65.3549,71.4466" id="Fill-125" fill="#B9D96D" mask="url(#mask-2)"></path>
                <path d="M63.5795,70.3905 C63.3125,70.3905 63.0605,70.4925 62.8685,70.6785 C62.6715,70.8685 62.5595,71.1235 62.5555,71.3975 C62.5505,71.6715 62.6525,71.9305 62.8425,72.1275 C63.0335,72.3245 63.2885,72.4355 63.5625,72.4405 C63.8345,72.4435 64.0955,72.3425 64.2925,72.1525 C64.4895,71.9625 64.6005,71.7065 64.6045,71.4335 C64.6145,70.8685 64.1625,70.4005 63.5985,70.3905 L63.5795,70.3905 Z M63.5815,73.9405 L63.5365,73.9405 C62.8615,73.9285 62.2325,73.6545 61.7645,73.1695 C61.2955,72.6845 61.0435,72.0455 61.0555,71.3715 C61.0675,70.6975 61.3415,70.0675 61.8265,69.5985 C62.3115,69.1305 62.9515,68.8805 63.6245,68.8905 C65.0165,68.9155 66.1295,70.0675 66.1045,71.4595 C66.0935,72.1345 65.8195,72.7635 65.3345,73.2315 C64.8595,73.6895 64.2395,73.9405 63.5815,73.9405 L63.5815,73.9405 Z" id="Fill-126" fill="#719911" mask="url(#mask-2)"></path>
                <path d="M45.2118,62.5467 C44.8508,62.5467 44.5328,62.2857 44.4728,61.9187 L44.0688,59.4657 C44.0018,59.0567 44.2778,58.6707 44.6868,58.6037 C45.0958,58.5367 45.4818,58.8137 45.5488,59.2217 L45.9528,61.6747 C46.0198,62.0837 45.7428,62.4687 45.3348,62.5367 C45.2928,62.5437 45.2518,62.5467 45.2118,62.5467" id="Fill-127" fill="#354546" mask="url(#mask-2)"></path>
                <path d="M48.1718,62.0594 C47.8108,62.0594 47.4928,61.7984 47.4328,61.4314 L47.0288,58.9784 C46.9618,58.5694 47.2378,58.1834 47.6468,58.1164 C48.0558,58.0494 48.4418,58.3264 48.5088,58.7344 L48.9128,61.1874 C48.9798,61.5964 48.7038,61.9814 48.2948,62.0494 C48.2538,62.0564 48.2128,62.0594 48.1718,62.0594" id="Fill-128" fill="#354546" mask="url(#mask-2)"></path>
                <path d="M65.516,62.5467 C65.475,62.5467 65.434,62.5437 65.393,62.5367 C64.984,62.4687 64.708,62.0837 64.775,61.6747 L65.179,59.2217 C65.246,58.8137 65.632,58.5367 66.041,58.6037 C66.45,58.6707 66.726,59.0567 66.659,59.4657 L66.255,61.9187 C66.195,62.2857 65.876,62.5467 65.516,62.5467" id="Fill-129" fill="#354546" mask="url(#mask-2)"></path>
                <path d="M62.5556,62.0594 C62.5146,62.0594 62.4746,62.0564 62.4326,62.0494 C62.0246,61.9814 61.7476,61.5964 61.8146,61.1874 L62.2186,58.7344 C62.2856,58.3264 62.6716,58.0494 63.0806,58.1164 C63.4896,58.1834 63.7656,58.5694 63.6986,58.9784 L63.2946,61.4314 C63.2346,61.7984 62.9166,62.0594 62.5556,62.0594" id="Fill-130" fill="#354546" mask="url(#mask-2)"></path>
                <polygon id="Fill-131" fill="#A5B5B6" mask="url(#mask-2)" points="42.27 107.861 46.957 107.861 46.957 98.861 42.27 98.861"></polygon>
                <polygon id="Fill-132" fill="#C5D5D6" mask="url(#mask-2)" points="42.27 102.436 46.957 102.436 46.957 98.86 42.27 98.86"></polygon>
                <path d="M43.019,107.111 L46.207,107.111 L46.207,99.611 L43.019,99.611 L43.019,107.111 Z M46.957,108.611 L42.269,108.611 C41.855,108.611 41.519,108.275 41.519,107.861 L41.519,98.861 C41.519,98.446 41.855,98.111 42.269,98.111 L46.957,98.111 C47.371,98.111 47.707,98.446 47.707,98.861 L47.707,107.861 C47.707,108.275 47.371,108.611 46.957,108.611 L46.957,108.611 Z" id="Fill-133" fill="#354546" mask="url(#mask-2)"></path>
                <polygon id="Fill-134" fill="#A5B5B6" mask="url(#mask-2)" points="39.091 106.098 42.276 106.098 42.276 90.198 39.091 90.198"></polygon>
                <path d="M39.841,105.348 L41.526,105.348 L41.526,90.948 L39.841,90.948 L39.841,105.348 Z M42.276,106.848 L39.091,106.848 C38.677,106.848 38.341,106.512 38.341,106.098 L38.341,90.198 C38.341,89.784 38.677,89.448 39.091,89.448 L42.276,89.448 C42.69,89.448 43.026,89.784 43.026,90.198 L43.026,106.098 C43.026,106.512 42.69,106.848 42.276,106.848 L42.276,106.848 Z" id="Fill-135" fill="#354546" mask="url(#mask-2)"></path>
                <path d="M40.7494,84.6854 L40.6174,84.6854 C38.9674,84.6854 37.6174,86.0354 37.6174,87.6854 L37.6174,94.8104 L43.7494,94.8104 L43.7494,87.6854 C43.7494,86.0354 42.3994,84.6854 40.7494,84.6854" id="Fill-136" fill="#A5B5B6" mask="url(#mask-2)"></path>
                <path d="M40.7494,84.6854 L40.6174,84.6854 C38.9674,84.6854 37.6174,86.0354 37.6174,87.6854 L37.6174,90.4234 C37.6174,88.7724 38.9674,87.4234 40.6174,87.4234 L40.7494,87.4234 C42.3994,87.4234 43.7494,88.7724 43.7494,90.4234 L43.7494,87.6854 C43.7494,86.0354 42.3994,84.6854 40.7494,84.6854" id="Fill-137" fill="#C5D5D6" mask="url(#mask-2)"></path>
                <path d="M38.3671,94.0604 L42.9991,94.0604 L42.9991,87.6854 C42.9991,86.4444 41.9901,85.4354 40.7491,85.4354 L40.6171,85.4354 C39.3761,85.4354 38.3671,86.4444 38.3671,87.6854 L38.3671,94.0604 Z M43.7491,95.5604 L37.6171,95.5604 C37.2031,95.5604 36.8671,95.2254 36.8671,94.8104 L36.8671,87.6854 C36.8671,85.6174 38.5491,83.9354 40.6171,83.9354 L40.7491,83.9354 C42.8171,83.9354 44.4991,85.6174 44.4991,87.6854 L44.4991,94.8104 C44.4991,95.2254 44.1641,95.5604 43.7491,95.5604 L43.7491,95.5604 Z" id="Fill-138" fill="#354546" mask="url(#mask-2)"></path>
                <polygon id="Fill-139" fill="#A5B5B6" mask="url(#mask-2)" points="63.395 107.861 68.082 107.861 68.082 98.861 63.395 98.861"></polygon>
                <polygon id="Fill-140" fill="#C5D5D6" mask="url(#mask-2)" points="63.395 102.436 68.082 102.436 68.082 98.86 63.395 98.86"></polygon>
                <path d="M64.145,107.111 L67.332,107.111 L67.332,99.611 L64.145,99.611 L64.145,107.111 Z M68.082,108.611 L63.395,108.611 C62.98,108.611 62.645,108.275 62.645,107.861 L62.645,98.861 C62.645,98.446 62.98,98.111 63.395,98.111 L68.082,98.111 C68.496,98.111 68.832,98.446 68.832,98.861 L68.832,107.861 C68.832,108.275 68.496,108.611 68.082,108.611 L68.082,108.611 Z" id="Fill-141" fill="#354546" mask="url(#mask-2)"></path>
                <polygon id="Fill-142" fill="#A5B5B6" mask="url(#mask-2)" points="68.076 106.098 71.261 106.098 71.261 90.198 68.076 90.198"></polygon>
                <path d="M68.826,105.348 L70.511,105.348 L70.511,90.948 L68.826,90.948 L68.826,105.348 Z M71.261,106.848 L68.076,106.848 C67.662,106.848 67.326,106.512 67.326,106.098 L67.326,90.198 C67.326,89.784 67.662,89.448 68.076,89.448 L71.261,89.448 C71.675,89.448 72.011,89.784 72.011,90.198 L72.011,106.098 C72.011,106.512 71.675,106.848 71.261,106.848 L71.261,106.848 Z" id="Fill-143" fill="#354546" mask="url(#mask-2)"></path>
                <path d="M69.6024,84.6854 L69.7344,84.6854 C71.3844,84.6854 72.7344,86.0354 72.7344,87.6854 L72.7344,94.8104 L66.6024,94.8104 L66.6024,87.6854 C66.6024,86.0354 67.9524,84.6854 69.6024,84.6854" id="Fill-144" fill="#A5B5B6" mask="url(#mask-2)"></path>
                <path d="M69.6024,84.6854 L69.7344,84.6854 C71.3844,84.6854 72.7344,86.0354 72.7344,87.6854 L72.7344,90.4234 C72.7344,88.7724 71.3844,87.4234 69.7344,87.4234 L69.6024,87.4234 C67.9524,87.4234 66.6024,88.7724 66.6024,90.4234 L66.6024,87.6854 C66.6024,86.0354 67.9524,84.6854 69.6024,84.6854" id="Fill-145" fill="#C5D5D6" mask="url(#mask-2)"></path>
                <path d="M67.3524,94.0604 L71.9844,94.0604 L71.9844,87.6854 C71.9844,86.4444 70.9754,85.4354 69.7344,85.4354 L69.6024,85.4354 C68.3614,85.4354 67.3524,86.4444 67.3524,87.6854 L67.3524,94.0604 Z M72.7344,95.5604 L66.6024,95.5604 C66.1874,95.5604 65.8524,95.2254 65.8524,94.8104 L65.8524,87.6854 C65.8524,85.6174 67.5344,83.9354 69.6024,83.9354 L69.7344,83.9354 C71.8024,83.9354 73.4844,85.6174 73.4844,87.6854 L73.4844,94.8104 C73.4844,95.2254 73.1484,95.5604 72.7344,95.5604 L72.7344,95.5604 Z" id="Fill-146" fill="#354546" mask="url(#mask-2)"></path>
                <path d="M63.2567,115.3607 C63.2567,117.0107 61.9067,118.3607 60.2567,118.3607 L49.9567,118.3607 C48.3067,118.3607 46.9567,117.0107 46.9567,115.3607 L46.9567,91.3607 C46.9567,89.7107 48.3067,88.3607 49.9567,88.3607 L60.2567,88.3607 C61.9067,88.3607 63.2567,89.7107 63.2567,91.3607 L63.2567,115.3607 Z" id="Fill-147" fill="#6D6D6D" mask="url(#mask-2)"></path>
                <path d="M60.2567,113.7855 L49.9567,113.7855 C48.6167,113.7855 47.3757,112.8955 46.9567,111.6775 L46.9567,115.3605 C46.9567,117.0105 48.3067,118.3605 49.9567,118.3605 L60.2567,118.3605 C61.9067,118.3605 63.2567,117.0105 63.2567,115.3605 L63.2567,111.6775 C62.8377,112.8955 61.5967,113.7855 60.2567,113.7855" id="Fill-148" fill="#5B5B5B" mask="url(#mask-2)"></path>
                <polygon id="Fill-149" fill="#929292" mask="url(#mask-2)" points="63.1664 101.411 46.9574 100.06 47.0474 96.011 63.1664 96.011"></polygon>
                <polygon id="Fill-150" fill="#929292" mask="url(#mask-2)" points="63.1664 104.5604 47.0474 105.6644 47.0474 102.9644 63.1664 102.9644"></polygon>
                <path d="M49.9569,89.1107 C48.7159,89.1107 47.7069,90.1197 47.7069,91.3607 L47.7069,115.3607 C47.7069,116.6017 48.7159,117.6107 49.9569,117.6107 L60.2569,117.6107 C61.4979,117.6107 62.5069,116.6017 62.5069,115.3607 L62.5069,91.3607 C62.5069,90.1197 61.4979,89.1107 60.2569,89.1107 L49.9569,89.1107 Z M60.2569,119.1107 L49.9569,119.1107 C47.8889,119.1107 46.2069,117.4277 46.2069,115.3607 L46.2069,91.3607 C46.2069,89.2927 47.8889,87.6107 49.9569,87.6107 L60.2569,87.6107 C62.3249,87.6107 64.0069,89.2927 64.0069,91.3607 L64.0069,115.3607 C64.0069,117.4277 62.3249,119.1107 60.2569,119.1107 L60.2569,119.1107 Z" id="Fill-151" fill="#121212" mask="url(#mask-2)"></path>
                <path d="M63.2938,84.6854 L46.9198,84.6854 C45.1388,84.6854 43.6808,86.0354 43.6808,87.6854 L43.6808,92.0354 L66.5338,92.0354 L66.5338,87.6854 C66.5338,86.0354 65.0758,84.6854 63.2938,84.6854" id="Fill-152" fill="#A5B5B6" mask="url(#mask-2)"></path>
                <path d="M63.2938,84.6854 L46.9198,84.6854 C45.1388,84.6854 43.6808,86.0354 43.6808,87.6854 L66.5338,87.6854 C66.5338,86.0354 65.0758,84.6854 63.2938,84.6854" id="Fill-153" fill="#C5D5D6" mask="url(#mask-2)"></path>
                <path d="M44.4306,91.2855 L65.7836,91.2855 L65.7836,87.6855 C65.7836,86.4445 64.6666,85.4355 63.2936,85.4355 L46.9206,85.4355 C45.5476,85.4355 44.4306,86.4445 44.4306,87.6855 L44.4306,91.2855 Z M66.5336,92.7855 L43.6806,92.7855 C43.2666,92.7855 42.9306,92.4495 42.9306,92.0355 L42.9306,87.6855 C42.9306,85.6175 44.7206,83.9355 46.9206,83.9355 L63.2936,83.9355 C65.4936,83.9355 67.2836,85.6175 67.2836,87.6855 L67.2836,92.0355 C67.2836,92.4495 66.9476,92.7855 66.5336,92.7855 L66.5336,92.7855 Z" id="Fill-154" fill="#354546" mask="url(#mask-2)"></path>
                <path d="M50.6068,86.8661 C50.1928,86.8661 49.8568,86.5311 49.8568,86.1161 L49.8568,83.6311 C49.8568,83.2161 50.1928,82.8811 50.6068,82.8811 C51.0218,82.8811 51.3568,83.2161 51.3568,83.6311 L51.3568,86.1161 C51.3568,86.5311 51.0218,86.8661 50.6068,86.8661" id="Fill-155" fill="#354546" mask="url(#mask-2)"></path>
                <path d="M53.6068,86.8661 C53.1928,86.8661 52.8568,86.5311 52.8568,86.1161 L52.8568,83.6311 C52.8568,83.2161 53.1928,82.8811 53.6068,82.8811 C54.0218,82.8811 54.3568,83.2161 54.3568,83.6311 L54.3568,86.1161 C54.3568,86.5311 54.0218,86.8661 53.6068,86.8661" id="Fill-156" fill="#354546" mask="url(#mask-2)"></path>
                <path d="M56.6068,86.8661 C56.1928,86.8661 55.8568,86.5311 55.8568,86.1161 L55.8568,83.6311 C55.8568,83.2161 56.1928,82.8811 56.6068,82.8811 C57.0218,82.8811 57.3568,83.2161 57.3568,83.6311 L57.3568,86.1161 C57.3568,86.5311 57.0218,86.8661 56.6068,86.8661" id="Fill-157" fill="#354546" mask="url(#mask-2)"></path>
                <path d="M59.6068,86.8661 C59.1928,86.8661 58.8568,86.5311 58.8568,86.1161 L58.8568,83.6311 C58.8568,83.2161 59.1928,82.8811 59.6068,82.8811 C60.0218,82.8811 60.3568,83.2161 60.3568,83.6311 L60.3568,86.1161 C60.3568,86.5311 60.0218,86.8661 59.6068,86.8661" id="Fill-158" fill="#354546" mask="url(#mask-2)"></path>
                <path d="M77.4584,21.1126 C77.4474,21.1126 77.4374,21.1126 77.4264,21.1116 C77.0124,21.0936 76.6904,20.7446 76.7084,20.3306 L77.1384,10.2086 C77.2044,8.4196 76.5624,6.7016 75.3314,5.3766 C74.1004,4.0506 72.4354,3.2846 70.6414,3.2186 C70.6344,3.2176 70.6274,3.2176 70.6204,3.2166 L44.5604,1.5046 C40.8444,1.3726 37.7134,4.2856 37.5764,8.0016 L37.1464,18.8756 C37.1304,19.2886 36.7814,19.6126 36.3674,19.5946 C35.9534,19.5786 35.6314,19.2296 35.6474,18.8156 L36.0774,7.9446 C36.2454,3.4006 40.0794,-0.1604 44.6254,0.0066 C44.6334,0.0066 44.6404,0.0066 44.6474,0.0076 L70.7084,1.7196 C72.8974,1.8036 74.9294,2.7396 76.4304,4.3556 C77.9344,5.9746 78.7174,8.0746 78.6364,10.2686 L78.2074,20.3946 C78.1894,20.7976 77.8574,21.1126 77.4584,21.1126" id="Fill-159" fill="#354546" mask="url(#mask-2)"></path>
                <path d="M32.1142,19.764 C30.8212,19.716 29.7122,21.026 29.6512,22.675 L29.2772,32.809 C29.2162,34.458 30.2242,35.846 31.5182,35.894 C32.8122,35.942 33.8702,35.981 33.8702,35.981 L34.4672,19.851 C34.4672,19.851 33.4082,19.812 32.1142,19.764" id="Fill-160" fill="#A5B5B6" mask="url(#mask-2)"></path>
                <path d="M29.6513,22.6751 L29.4683,27.6351 L34.1723,27.8091 L34.4663,19.8511 C34.4663,19.8511 33.4083,19.8121 32.1143,19.7641 C30.8203,19.7161 29.7123,21.0261 29.6513,22.6751" id="Fill-161" fill="#C5D5D6" mask="url(#mask-2)"></path>
                <path d="M33.8427,36.7303 L31.4907,36.6433 C30.6427,36.6113 29.8377,36.1563 29.2827,35.3923 C28.7597,34.6733 28.4917,33.7463 28.5277,32.7813 L28.9017,22.6473 C28.9777,20.5813 30.4317,18.9493 32.1417,19.0143 L34.4937,19.1013 L34.4387,20.6003 L32.0867,20.5133 C32.0727,20.5133 32.0597,20.5123 32.0457,20.5123 C31.1937,20.5123 30.4457,21.5023 30.4007,22.7033 L30.0267,32.8363 C30.0037,33.4583 30.1747,34.0683 30.4967,34.5113 C30.7827,34.9043 31.1547,35.1293 31.5457,35.1443 L33.8987,35.2313 L33.8427,36.7303 Z" id="Fill-162" fill="#354546" mask="url(#mask-2)"></path>
                <polygon id="Fill-163" fill="#859596" mask="url(#mask-2)" points="38.1859 38.5394 33.7819 38.3764 34.5059 18.7754 38.9109 18.9384"></polygon>
                <polygon id="Fill-164" fill="#A5B5B6" mask="url(#mask-2)" points="38.496 30.1527 34.092 29.9897 34.506 18.7757 38.911 18.9387"></polygon>
                <path d="M34.559,37.6551 L37.464,37.7621 L38.133,19.6601 L35.228,19.5521 L34.559,37.6551 Z M38.186,39.2891 L38.159,39.2891 L33.754,39.1261 C33.34,39.1111 33.017,38.7631 33.033,38.3491 L33.757,18.7481 C33.772,18.3341 34.119,18.0101 34.534,18.0261 L38.938,18.1891 C39.137,18.1961 39.325,18.2821 39.46,18.4281 C39.595,18.5731 39.667,18.7671 39.66,18.9661 L38.935,38.5671 C38.929,38.7661 38.842,38.9531 38.697,39.0891 C38.558,39.2181 38.375,39.2891 38.186,39.2891 L38.186,39.2891 Z" id="Fill-165" fill="#354546" mask="url(#mask-2)"></path>
                <path d="M29.4682,28.3851 L29.4662,28.3851 L27.6652,28.3811 C27.2512,28.3801 26.9162,28.0441 26.9172,27.6301 C26.9182,27.2161 27.2532,26.8811 27.6672,26.8811 L27.6682,26.8811 L29.4692,26.8851 C29.8842,26.8851 30.2182,27.2221 30.2182,27.6361 C30.2172,28.0501 29.8812,28.3851 29.4682,28.3851" id="Fill-166" fill="#354546" mask="url(#mask-2)"></path>
                <path d="M84.5424,10.5555 C84.4564,10.5555 84.3694,10.5445 84.2824,10.5225 C83.7204,10.3795 83.3804,9.8085 83.5244,9.2465 L84.3004,6.1975 C84.4434,5.6355 85.0154,5.2965 85.5774,5.4395 C86.1394,5.5825 86.4794,6.1545 86.3354,6.7165 L85.5594,9.7645 C85.4384,10.2395 85.0114,10.5555 84.5424,10.5555" id="Fill-167" fill="#354546" mask="url(#mask-2)"></path>
                <path d="M81.4642,22.3377 C81.4022,22.3377 81.3402,22.3297 81.2782,22.3147 C80.8772,22.2117 80.6342,21.8037 80.7362,21.4017 L83.8152,9.3197 C83.9172,8.9187 84.3252,8.6757 84.7272,8.7787 C85.1282,8.8807 85.3702,9.2897 85.2682,9.6907 L82.1902,21.7727 C82.1042,22.1117 81.7982,22.3377 81.4642,22.3377" id="Fill-168" fill="#354546" mask="url(#mask-2)"></path>
                <path d="M81.4638,21.5872 C82.7568,21.6352 83.7658,23.0232 83.7048,24.6722 L83.3308,34.8062 C83.2698,36.4552 82.1618,37.7642 80.8678,37.7172 C79.5738,37.6692 78.5158,37.6302 78.5158,37.6302 L79.1108,21.5002 C79.1108,21.5002 80.1698,21.5392 81.4638,21.5872" id="Fill-169" fill="#A5B5B6" mask="url(#mask-2)"></path>
                <path d="M83.705,24.6722 L83.522,29.6312 L78.817,29.4582 L79.111,21.5002 C79.111,21.5002 80.17,21.5392 81.464,21.5872 C82.757,21.6352 83.766,23.0232 83.705,24.6722" id="Fill-170" fill="#C5D5D6" mask="url(#mask-2)"></path>
                <path d="M80.934,38.4681 C80.903,38.4681 80.872,38.4681 80.84,38.4661 L78.488,38.3801 C78.074,38.3641 77.75,38.0161 77.766,37.6021 C77.781,37.1881 78.131,36.8671 78.543,36.8801 L80.895,36.9671 C81.286,36.9831 81.674,36.7851 81.989,36.4131 C82.342,35.9951 82.558,35.4001 82.581,34.7781 L82.955,24.6441 C82.978,24.0231 82.807,23.4131 82.486,22.9701 C82.199,22.5761 81.827,22.3511 81.436,22.3371 L79.084,22.2501 C78.67,22.2351 78.347,21.8861 78.362,21.4721 C78.377,21.0591 78.726,20.7341 79.139,20.7511 L81.491,20.8381 C82.34,20.8691 83.144,21.3251 83.699,22.0891 C84.222,22.8081 84.49,23.7351 84.455,24.7001 L84.08,34.8341 C84.044,35.7981 83.708,36.7031 83.134,37.3821 C82.547,38.0761 81.75,38.4681 80.934,38.4681" id="Fill-171" fill="#354546" mask="url(#mask-2)"></path>
                <polygon id="Fill-172" fill="#859596" mask="url(#mask-2)" points="74.0228 39.8636 78.4268 40.0266 79.1508 20.4256 74.7468 20.2626"></polygon>
                <polygon id="Fill-173" fill="#A5B5B6" mask="url(#mask-2)" points="74.3324 31.4769 78.7364 31.6399 79.1514 20.4249 74.7474 20.2629"></polygon>
                <path d="M74.7997,39.1414 L77.7047,39.2484 L78.3737,21.1464 L75.4687,21.0394 L74.7997,39.1414 Z M78.4267,40.7764 C78.4177,40.7764 78.4087,40.7754 78.3997,40.7754 L73.9947,40.6134 C73.7967,40.6054 73.6087,40.5194 73.4727,40.3734 C73.3377,40.2274 73.2657,40.0344 73.2737,39.8354 L73.9977,20.2344 C74.0047,20.0364 74.0907,19.8484 74.2367,19.7124 C74.3827,19.5774 74.5757,19.5074 74.7747,19.5134 L79.1787,19.6754 C79.5927,19.6904 79.9157,20.0384 79.9007,20.4534 L79.1757,40.0534 C79.1617,40.4584 78.8287,40.7764 78.4267,40.7764 L78.4267,40.7764 Z" id="Fill-174" fill="#354546" mask="url(#mask-2)"></path>
                <path d="M85.3187,30.5111 C85.3007,30.5111 85.2827,30.5111 85.2647,30.5101 L83.4677,30.3801 C83.0547,30.3501 82.7437,29.9911 82.7737,29.5781 C82.8037,29.1651 83.1627,28.8531 83.5757,28.8841 L85.3717,29.0131 C85.7847,29.0431 86.0957,29.4021 86.0667,29.8151 C86.0377,30.2101 85.7087,30.5111 85.3187,30.5111" id="Fill-175" fill="#354546" mask="url(#mask-2)"></path>
                <path d="M38.1181,44.6766 C37.0921,44.6766 34.4831,45.7906 33.3781,47.0516 C32.4391,48.1216 32.2881,49.9066 33.0491,50.9516 C33.3601,51.3786 33.7701,51.6146 34.2341,51.6366 C34.7661,51.6566 35.3231,51.3866 35.7641,50.8846 C36.2961,50.2776 37.2091,48.8976 37.8531,47.5356 C38.6861,45.7746 38.6541,44.9626 38.5211,44.7796 C38.4801,44.7236 38.3511,44.6856 38.1761,44.6776 C38.1581,44.6766 38.1381,44.6766 38.1181,44.6766 M34.2991,53.1376 C34.2551,53.1376 34.2111,53.1366 34.1661,53.1346 C33.2441,53.0936 32.4171,52.6316 31.8371,51.8346 C30.6541,50.2106 30.8351,47.6746 32.2501,46.0616 C33.2971,44.8686 36.3431,43.1016 38.2441,43.1796 C39.0711,43.2176 39.5101,43.5906 39.7331,43.8966 C40.3451,44.7366 40.1741,46.1366 39.2091,48.1766 C38.5001,49.6776 37.5061,51.1736 36.8911,51.8736 C36.1811,52.6826 35.2431,53.1376 34.2991,53.1376" id="Fill-176" fill="#19B5FE" mask="url(#mask-2)"></path>
                <path d="M71.0253,42.6341 L71.0263,42.6341 L71.0253,42.6341 Z M72.5473,42.8991 C72.0903,42.8991 71.7363,42.9741 71.5683,43.1511 C71.4443,43.2821 71.4503,43.5431 71.4783,43.7381 C71.6503,44.9761 72.9923,46.7281 73.7443,47.1731 C74.7033,47.7401 76.2643,47.4291 77.1523,46.4941 C77.5793,46.0461 77.7863,45.5191 77.7203,45.0501 C77.6683,44.6761 77.4473,44.3631 77.0823,44.1471 C76.0163,43.5171 73.8573,42.8991 72.5473,42.8991 L72.5473,42.8991 Z M74.8903,48.9601 C74.2093,48.9601 73.5463,48.7991 72.9803,48.4641 C71.8163,47.7761 70.2233,45.6061 69.9923,43.9451 C69.8603,42.9991 70.1853,42.4291 70.4813,42.1171 C72.1073,40.4061 76.7943,42.2341 77.8453,42.8561 C78.6073,43.3061 79.0903,44.0121 79.2063,44.8431 C79.3353,45.7671 78.9833,46.7461 78.2403,47.5281 C77.3583,48.4561 76.0953,48.9591 74.8903,48.9601 L74.8903,48.9601 Z" id="Fill-177" fill="#19B5FE" mask="url(#mask-2)"></path>
                <path d="M31.7499,41.7396 C31.3379,41.7396 30.9839,41.7716 30.7229,41.8356 C29.1039,42.2336 28.0269,44.0846 28.3219,45.9616 C28.4719,46.9126 28.9639,47.7286 29.6719,48.1996 C30.2629,48.5936 30.9639,48.7166 31.6479,48.5486 C32.5449,48.3286 34.2629,47.5826 35.6789,46.6336 C37.1499,45.6476 37.9669,44.6736 37.8659,44.0266 C37.8059,43.6426 37.4039,43.3036 37.0779,43.0866 C35.7499,42.2036 33.3259,41.7396 31.7499,41.7396 M31.0449,50.1226 C30.2689,50.1226 29.5099,49.8936 28.8409,49.4486 C27.7839,48.7456 27.0549,47.5596 26.8399,46.1946 C26.4279,43.5666 28.0089,40.9576 30.3649,40.3786 C32.1239,39.9466 35.9509,40.5346 37.9089,41.8386 C38.7479,42.3956 39.2309,43.0536 39.3479,43.7946 C39.8129,46.7606 33.9369,49.5316 32.0059,50.0056 C31.6869,50.0846 31.3639,50.1226 31.0449,50.1226" id="Fill-178" fill="#719911" mask="url(#mask-2)"></path>
                <path d="M73.6713,47.3104 C73.5193,51.4324 70.0193,54.7914 65.8943,54.7744 L44.2753,54.6844 C40.1503,54.6674 37.0383,51.2884 37.3583,47.1764 L39.7463,13.3294 C40.0673,9.2174 43.6923,6.1364 47.8033,6.4834 L67.5713,8.1544 C71.6823,8.5014 74.9203,12.1584 74.7683,16.2804 L73.6713,47.3104 Z" id="Fill-179" fill="#A5B5B6" mask="url(#mask-2)"></path>
                <path d="M70.2465,41.0164 C70.1345,44.0474 67.3305,46.5094 64.0165,46.4864 L46.6455,46.3664 C43.3315,46.3434 40.8225,43.8504 41.0695,40.8264 L42.9065,16.9304 C43.1535,13.9064 46.0595,11.6494 49.3625,11.9154 L65.2495,13.1944 C68.5535,13.4594 71.1645,16.1574 71.0525,19.1894 L70.2465,41.0164 Z" id="Fill-180" fill="#C5D5D6" mask="url(#mask-2)"></path>
                <path d="M67.4682,51.4354 L43.9752,51.2764 C41.0592,51.2564 38.6062,49.8154 37.3382,47.6794 C37.2982,51.5604 40.3202,54.6674 44.2752,54.6844 L65.8942,54.7744 C69.3542,54.7884 72.3722,52.4284 73.3462,49.2354 C71.8152,50.6054 69.7302,51.4514 67.4682,51.4354" id="Fill-181" fill="#859596" mask="url(#mask-2)"></path>
                <path d="M67.5297,52.1854 L67.4637,52.1854 L43.9697,52.0264 C40.8747,52.0054 38.1547,50.5234 36.6937,48.0614 C36.4817,47.7064 36.5997,47.2464 36.9557,47.0344 C37.3117,46.8234 37.7717,46.9404 37.9837,47.2964 C39.1737,49.3014 41.4147,50.5094 43.9797,50.5264 L67.4737,50.6854 C69.4727,50.7054 71.3837,49.9854 72.8467,48.6764 C73.1547,48.4004 73.6297,48.4264 73.9047,48.7354 C74.1817,49.0434 74.1547,49.5184 73.8467,49.7944 C72.1217,51.3374 69.8807,52.1854 67.5297,52.1854" id="Fill-182" fill="#354546" mask="url(#mask-2)"></path>
                <path d="M73.6713,47.3104 L73.6723,47.3104 L73.6713,47.3104 Z M47.1673,7.2064 C45.5833,7.2064 44.0653,7.7644 42.8393,8.8054 C41.4663,9.9724 40.6333,11.5994 40.4943,13.3874 L38.1073,47.2284 C37.9673,49.0134 38.5343,50.6904 39.7013,51.9574 C40.8683,53.2254 42.4943,53.9264 44.2783,53.9344 L65.8983,54.0244 L65.9263,54.0244 C69.6493,54.0244 72.7843,51.0064 72.9223,47.2824 L74.0183,16.2544 C74.1563,12.5144 71.2363,9.2164 67.5083,8.9014 L47.7393,7.2304 C47.5483,7.2144 47.3573,7.2064 47.1673,7.2064 L47.1673,7.2064 Z M65.9263,55.5244 L65.8913,55.5244 L44.2723,55.4344 C42.0663,55.4254 40.0513,54.5514 38.5983,52.9744 C37.1453,51.3964 36.4393,49.3164 36.6103,47.1174 L38.9983,13.2764 C39.1693,11.0814 40.1883,9.0894 41.8683,7.6624 C43.5473,6.2354 45.6773,5.5514 47.8663,5.7364 L67.6343,7.4074 C72.1483,7.7884 75.6853,11.7814 75.5173,16.3084 L74.4213,47.3364 L74.4213,47.3384 C74.2543,51.8594 70.4463,55.5244 65.9263,55.5244 L65.9263,55.5244 Z" id="Fill-183" fill="#354546" mask="url(#mask-2)"></path>
                <path d="M57.1449,16.2962 C53.0369,16.2962 48.1409,15.0342 48.1409,9.0242 C48.1409,8.0812 48.2629,7.4552 48.5019,6.5622 C48.6099,6.1622 49.0219,5.9252 49.4209,6.0322 C49.8219,6.1402 50.0589,6.5512 49.9509,6.9512 C49.7359,7.7502 49.6409,8.2392 49.6409,9.0242 C49.6409,10.4522 49.6409,14.7962 57.1449,14.7962 C64.6819,14.7962 64.6819,10.4522 64.6819,9.0242 C64.6819,8.7062 64.6649,8.3862 64.6329,8.0722 C64.5899,7.6602 64.8899,7.2922 65.3019,7.2492 C65.7139,7.2082 66.0829,7.5062 66.1249,7.9182 C66.1629,8.2832 66.1819,8.6552 66.1819,9.0242 C66.1819,12.3412 64.6139,16.2962 57.1449,16.2962" id="Fill-184" fill="#354546" mask="url(#mask-2)"></path>
                <path d="M52.3622,25.9432 C52.1972,30.4132 48.4392,33.9032 43.9682,33.7382 C39.4982,33.5732 36.0082,29.8152 36.1732,25.3452 C36.3392,20.8742 40.0962,17.3842 44.5672,17.5492 C49.0372,17.7142 52.5272,21.4722 52.3622,25.9432" id="Fill-185" fill="#C5D5D6" mask="url(#mask-2)"></path>
                <path d="M44.2611,18.2938 C42.4011,18.2938 40.6361,18.9858 39.2661,20.2588 C37.8271,21.5948 36.9951,23.4108 36.9231,25.3728 C36.8501,27.3348 37.5461,29.2078 38.8821,30.6458 C40.2181,32.0848 42.0341,32.9168 43.9961,32.9888 C45.9581,33.0638 47.8311,32.3658 49.2691,31.0298 C50.7081,29.6938 51.5401,27.8768 51.6131,25.9158 C51.6851,23.9538 50.9901,22.0808 49.6541,20.6428 C48.3171,19.2038 46.5011,18.3718 44.5391,18.2988 C44.4461,18.2958 44.3531,18.2938 44.2611,18.2938 M44.2761,34.4938 C44.1641,34.4938 44.0531,34.4918 43.9411,34.4878 C41.5791,34.4008 39.3921,33.3988 37.7831,31.6668 C36.1751,29.9348 35.3371,27.6798 35.4241,25.3168 C35.5111,22.9548 36.5131,20.7678 38.2451,19.1598 C39.9771,17.5508 42.2331,16.7138 44.5941,16.7998 C46.9571,16.8878 49.1441,17.8898 50.7521,19.6218 C52.3611,21.3538 53.1991,23.6078 53.1121,25.9708 L52.3621,25.9428 L53.1121,25.9708 C53.0251,28.3338 52.0221,30.5198 50.2901,32.1288 C48.6401,33.6608 46.5161,34.4938 44.2761,34.4938" id="Fill-186" fill="#354546" mask="url(#mask-2)"></path>
                <path d="M49.4872,25.8368 C49.3812,28.7198 46.9572,30.9698 44.0752,30.8628 C41.1932,30.7568 38.9422,28.3338 39.0492,25.4508 C39.1552,22.5688 41.5782,20.3178 44.4612,20.4248 C47.3432,20.5318 49.5932,22.9548 49.4872,25.8368" id="Fill-187" fill="#9ABD45" mask="url(#mask-2)"></path>
                <path d="M47.5683,24.2352 C47.5023,26.0272 45.9963,27.4252 44.2043,27.3592 C42.4133,27.2932 41.0143,25.7872 41.0803,23.9952 C41.1463,22.2032 42.6523,20.8052 44.4443,20.8712 C46.2353,20.9372 47.6343,22.4432 47.5683,24.2352" id="Fill-188" fill="#CEEC87" mask="url(#mask-2)"></path>
                <path d="M49.4872,25.8368 L49.4882,25.8368 L49.4872,25.8368 Z M44.2632,21.1708 C43.1322,21.1708 42.0582,21.5918 41.2242,22.3668 C40.3482,23.1798 39.8422,24.2848 39.7982,25.4788 C39.7542,26.6728 40.1772,27.8128 40.9902,28.6878 C41.8032,29.5638 42.9092,30.0698 44.1032,30.1138 C46.5692,30.2098 48.6462,28.2738 48.7372,25.8098 C48.7812,24.6148 48.3582,23.4758 47.5452,22.6008 C46.7322,21.7248 45.6272,21.2188 44.4332,21.1738 C44.3762,21.1718 44.3202,21.1708 44.2632,21.1708 L44.2632,21.1708 Z M44.2712,31.6168 C44.1962,31.6168 44.1222,31.6158 44.0472,31.6128 C42.4532,31.5538 40.9772,30.8778 39.8912,29.7088 C38.8052,28.5398 38.2402,27.0178 38.2992,25.4238 C38.3582,23.8298 39.0342,22.3538 40.2032,21.2678 C41.3722,20.1818 42.8932,19.6148 44.4882,19.6748 C46.0832,19.7338 47.5582,20.4108 48.6442,21.5798 C49.7302,22.7488 50.2952,24.2708 50.2372,25.8648 C50.1172,29.0808 47.4632,31.6168 44.2712,31.6168 L44.2712,31.6168 Z" id="Fill-189" fill="#354546" mask="url(#mask-2)"></path>
                <path d="M45.6137,22.1698 C45.9457,22.9118 44.9077,23.5448 43.5507,24.1528 C42.1927,24.7608 41.0287,25.1118 40.6967,24.3698 C40.3647,23.6278 41.1967,22.5348 42.5537,21.9268 C43.9117,21.3188 45.2817,21.4278 45.6137,22.1698" id="Fill-190" fill="#FFFFFF" mask="url(#mask-2)"></path>
                <path d="M44.6767,29.3499 C44.5907,29.1579 44.8597,28.9929 45.2127,28.8349 C45.5647,28.6779 45.8667,28.5859 45.9527,28.7789 C46.0387,28.9719 45.8227,29.2549 45.4707,29.4129 C45.1187,29.5709 44.7627,29.5429 44.6767,29.3499" id="Fill-191" fill="#FFFFFF" mask="url(#mask-2)"></path>
                <path d="M44.3822,27.4071 C44.3572,28.0881 43.7852,28.6191 43.1042,28.5941 C42.4242,28.5691 41.8922,27.9961 41.9182,27.3161 C41.9432,26.6361 42.5152,26.1041 43.1952,26.1301 C43.8762,26.1551 44.4072,26.7271 44.3822,27.4071" id="Fill-192" fill="#354546" mask="url(#mask-2)"></path>
                <path d="M75.2006,27.2904 C75.0606,31.0784 71.8766,32.3864 68.0886,32.2464 C64.2996,32.1064 61.3426,30.5724 61.4826,26.7834 C61.6216,22.9954 64.8066,20.0384 68.5956,20.1774 C72.3836,20.3174 75.3406,23.5024 75.2006,27.2904" id="Fill-193" fill="#C5D5D6" mask="url(#mask-2)"></path>
                <path d="M68.3358,20.9232 C66.7888,20.9232 65.3208,21.4982 64.1808,22.5572 C62.9838,23.6682 62.2918,25.1792 62.2318,26.8112 C62.1748,28.3522 62.6728,29.4862 63.7548,30.2772 C64.7518,31.0062 66.2588,31.4282 68.1158,31.4972 C73.2148,31.6882 74.3758,29.2982 74.4508,27.2622 C74.5118,25.6312 73.9328,24.0732 72.8208,22.8762 C71.7098,21.6802 70.1988,20.9872 68.5668,20.9272 C68.4898,20.9242 68.4128,20.9232 68.3358,20.9232 M68.6388,33.0062 C68.4488,33.0062 68.2558,33.0032 68.0608,32.9962 C65.8728,32.9152 64.1258,32.4072 62.8688,31.4882 C61.3968,30.4112 60.6578,28.7752 60.7328,26.7562 C60.8078,24.7232 61.6698,22.8422 63.1598,21.4582 C64.6498,20.0742 66.5898,19.3502 68.6228,19.4282 C70.6548,19.5032 72.5368,20.3652 73.9198,21.8552 C75.3048,23.3452 76.0248,25.2862 75.9498,27.3182 C75.8158,30.9542 73.1608,33.0062 68.6388,33.0062" id="Fill-194" fill="#354546" mask="url(#mask-2)"></path>
                <path d="M72.7641,27.2005 C72.6741,29.6425 70.6201,29.9005 68.1781,29.8095 C65.7351,29.7195 63.8281,29.3165 63.9191,26.8735 C64.0091,24.4305 66.0621,22.5245 68.5051,22.6145 C70.9481,22.7045 72.8541,24.7575 72.7641,27.2005" id="Fill-195" fill="#19B5FE" mask="url(#mask-2)"></path>
                <path d="M71.0907,25.6678 C71.0347,27.1858 69.8597,27.7498 68.3417,27.6938 C66.8227,27.6378 65.5357,26.9828 65.5917,25.4648 C65.6487,23.9458 66.9247,22.7608 68.4437,22.8168 C69.9617,22.8728 71.1467,24.1488 71.0907,25.6678" id="Fill-196" fill="#39D5FF" mask="url(#mask-2)"></path>
                <path d="M72.7641,27.2005 L72.7651,27.2005 L72.7641,27.2005 Z M68.3381,23.3615 C67.4081,23.3615 66.5251,23.7075 65.8401,24.3435 C65.1201,25.0115 64.7041,25.9205 64.6681,26.9015 C64.6291,27.9695 65.0441,28.3415 65.4561,28.5645 C66.1441,28.9375 67.2321,29.0245 68.2061,29.0605 C71.3441,29.1775 71.9661,28.4865 72.0141,27.1725 C72.0901,25.1475 70.5021,23.4385 68.4771,23.3645 C68.4311,23.3625 68.3841,23.3615 68.3381,23.3615 L68.3381,23.3615 Z M69.0161,30.5795 C68.6991,30.5795 68.4041,30.5685 68.1501,30.5595 C67.0041,30.5165 65.7021,30.4035 64.7421,29.8835 C63.6461,29.2895 63.1171,28.2675 63.1691,26.8465 C63.2211,25.4645 63.8061,24.1855 64.8191,23.2445 C65.8321,22.3035 67.1501,21.8145 68.5331,21.8645 C71.3851,21.9705 73.6191,24.3765 73.5141,27.2285 C73.4031,30.2265 70.8281,30.5795 69.0161,30.5795 L69.0161,30.5795 Z" id="Fill-197" fill="#354546" mask="url(#mask-2)"></path>
                <path d="M69.4818,24.0926 C69.7628,24.7216 68.8838,25.2586 67.7338,25.7736 C66.5828,26.2886 65.5968,26.5866 65.3148,25.9576 C65.0338,25.3286 65.7388,24.4026 66.8888,23.8866 C68.0398,23.3716 69.2008,23.4646 69.4818,24.0926" id="Fill-198" fill="#FFFFFF" mask="url(#mask-2)"></path>
                <path d="M69.7992,28.5872 C69.7262,28.4242 69.9542,28.2852 70.2532,28.1512 C70.5512,28.0172 70.8072,27.9402 70.8802,28.1032 C70.9532,28.2662 70.7702,28.5072 70.4722,28.6412 C70.1732,28.7742 69.8722,28.7502 69.7992,28.5872" id="Fill-199" fill="#FFFFFF" mask="url(#mask-2)"></path>
                <path d="M66.6347,27.8475 C66.6137,28.4235 66.1287,28.8735 65.5517,28.8525 C64.9757,28.8315 64.5257,28.3475 64.5467,27.7695 C64.5677,27.1935 65.0527,26.7435 65.6297,26.7645 C66.2057,26.7855 66.6557,27.2705 66.6347,27.8475" id="Fill-200" fill="#354546" mask="url(#mask-2)"></path>
                <path d="M44.4037,40.6385 L67.1497,35.5565 C67.1497,35.5565 68.4277,42.5625 62.8967,44.6075 C53.1547,48.2085 44.4037,40.6385 44.4037,40.6385" id="Fill-201" fill="#FFFFFF" mask="url(#mask-2)"></path>
                <path d="M44.4037,40.6385 L44.4047,40.6385 L44.4037,40.6385 Z M46.1567,41.0145 C47.1097,41.6685 48.5547,42.5525 50.3317,43.3005 C54.6547,45.1205 58.7947,45.3235 62.6357,43.9045 C66.4887,42.4805 66.6197,38.2325 66.4977,36.4705 L46.1567,41.0145 Z M57.4467,46.3215 C54.9207,46.3215 52.3097,45.7675 49.7047,44.6635 C46.2297,43.1925 44.0057,41.2855 43.9127,41.2055 C43.6987,41.0205 43.6077,40.7295 43.6757,40.4555 C43.7457,40.1805 43.9637,39.9685 44.2397,39.9065 L66.9857,34.8245 C67.1847,34.7805 67.3937,34.8185 67.5637,34.9305 C67.7337,35.0435 67.8507,35.2215 67.8867,35.4215 C67.9017,35.4985 68.2267,37.3335 67.8347,39.4515 C67.2977,42.3525 65.6797,44.3785 63.1557,45.3105 C61.3327,45.9855 59.4147,46.3215 57.4467,46.3215 L57.4467,46.3215 Z" id="Fill-202" fill="#354546" mask="url(#mask-2)"></path>
                <path d="M50.8285,45.056 C50.4535,45.056 50.1295,44.775 50.0845,44.393 L49.4995,39.421 C49.4515,39.01 49.7455,38.637 50.1575,38.589 C50.5675,38.54 50.9415,38.834 50.9895,39.246 L51.5745,44.218 C51.6225,44.63 51.3285,45.002 50.9165,45.051 C50.8875,45.055 50.8575,45.056 50.8285,45.056" id="Fill-203" fill="#354546" mask="url(#mask-2)"></path>
                <path d="M56.2787,46.0653 C55.8767,46.0653 55.5437,45.7463 55.5297,45.3413 L55.2747,38.0683 C55.2597,37.6543 55.5837,37.3073 55.9977,37.2923 C56.4117,37.2773 56.7587,37.6023 56.7737,38.0153 L57.0287,45.2893 C57.0437,45.7033 56.7197,46.0503 56.3057,46.0653 L56.2787,46.0653" id="Fill-204" fill="#354546" mask="url(#mask-2)"></path>
                <path d="M61.8461,45.3573 C61.4351,45.3573 61.1011,45.0273 61.0961,44.6153 L61.0131,36.7683 C61.0081,36.3543 61.3401,36.0143 61.7541,36.0103 C62.1651,36.0013 62.5081,36.3373 62.5131,36.7523 L62.5961,44.5993 C62.6001,45.0133 62.2681,45.3533 61.8541,45.3573 L61.8461,45.3573 Z" id="Fill-205" fill="#354546" mask="url(#mask-2)"></path>
            </g>
        </g>
    </g>
</svg>