<?xml version="1.0" encoding="UTF-8"?>
<svg width="87px" height="122px" viewBox="0 0 87 122" version="1.1" xmlns="http://www.w3.org/2000/svg" xmlns:xlink="http://www.w3.org/1999/xlink">
    <!-- Generator: Sketch 42 (36781) - http://www.bohemiancoding.com/sketch -->
    <title>26</title>
    <desc>Created with Sketch.</desc>
    <defs>
        <polygon id="path-1" points="63.9436 8 0.6766 8 0.6766 0.3777 63.9436 0.3777"></polygon>
        <polygon id="path-3" points="0 122.04 86.436 122.04 86.436 0 0 0"></polygon>
    </defs>
    <g id="Page-1" stroke="none" stroke-width="1" fill="none" fill-rule="evenodd">
        <g id="1024" transform="translate(-343.000000, 0.000000)">
            <g id="26" transform="translate(343.000000, 0.000000)">
                <g id="Group-3" transform="translate(16.000000, 114.040000)">
                    <mask id="mask-2" fill="white">
                        <use xlink:href="#path-1"></use>
                    </mask>
                    <g id="Clip-2"></g>
                    <path d="M63.9436,4.1887 C63.9436,6.2937 49.7816,8.0007 32.3106,8.0007 C14.8396,8.0007 0.6766,6.2937 0.6766,4.1887 C0.6766,2.0847 14.8396,0.3777 32.3106,0.3777 C49.7816,0.3777 63.9436,2.0847 63.9436,4.1887" id="Fill-1" fill="#CCCCCC" mask="url(#mask-2)"></path>
                </g>
                <mask id="mask-4" fill="white">
                    <use xlink:href="#path-3"></use>
                </mask>
                <g id="Clip-5"></g>
                <polygon id="Fill-4" fill="#758586" mask="url(#mask-4)" points="39.928 87.553 56.047 87.553 56.047 75.947 39.928 75.947"></polygon>
                <path d="M40.678,86.803 L55.297,86.803 L55.297,76.697 L40.678,76.697 L40.678,86.803 Z M56.047,88.303 L39.928,88.303 C39.514,88.303 39.178,87.967 39.178,87.553 L39.178,75.947 C39.178,75.533 39.514,75.197 39.928,75.197 L56.047,75.197 C56.461,75.197 56.797,75.533 56.797,75.947 L56.797,87.553 C56.797,87.967 56.461,88.303 56.047,88.303 L56.047,88.303 Z" id="Fill-6" fill="#354546" mask="url(#mask-4)"></path>
                <polygon id="Fill-7" fill="#758586" mask="url(#mask-4)" points="43.588 61.397 52.931 61.397 52.931 52.894 43.588 52.894"></polygon>
                <path d="M44.338,60.647 L52.181,60.647 L52.181,53.644 L44.338,53.644 L44.338,60.647 Z M52.931,62.147 L43.588,62.147 C43.174,62.147 42.838,61.811 42.838,61.397 L42.838,52.894 C42.838,52.48 43.174,52.144 43.588,52.144 L52.931,52.144 C53.345,52.144 53.681,52.48 53.681,52.894 L53.681,61.397 C53.681,61.811 53.345,62.147 52.931,62.147 L52.931,62.147 Z" id="Fill-8" fill="#354546" mask="url(#mask-4)"></path>
                <path d="M52.9318,58.3971 C52.9178,58.3971 52.9048,58.3971 52.8908,58.3961 L43.5478,57.8941 C43.1338,57.8721 42.8178,57.5191 42.8388,57.1051 C42.8618,56.6911 43.2138,56.3741 43.6278,56.3971 L52.9708,56.8981 C53.3848,56.9201 53.7018,57.2731 53.6798,57.6871 C53.6588,58.0871 53.3278,58.3971 52.9318,58.3971" id="Fill-9" fill="#354546" mask="url(#mask-4)"></path>
                <path d="M66.1369,66.5793 C64.6539,67.0453 63.1559,67.5363 61.5319,67.9543 L60.3689,63.3813 C61.7629,63.0233 63.2289,62.5483 64.7159,62.0793 L66.1369,66.5793 Z" id="Fill-10" fill="#F9BF3B" mask="url(#mask-4)"></path>
                <path d="M60.5559,64.1071 L60.1829,62.6541 C61.3789,62.3471 62.6149,61.9571 63.9219,61.5441 L64.4919,61.3641 L64.9419,62.7951 L64.3739,62.9741 C63.0459,63.3941 61.7909,63.7901 60.5559,64.1071" id="Fill-11" fill="#F1892D" mask="url(#mask-4)"></path>
                <path d="M61.7189,68.6804 L61.3439,67.2274 C62.6969,66.8794 63.9779,66.4744 65.2179,66.0824 L65.9119,65.8634 L66.3619,67.2954 L65.6699,67.5134 C64.4109,67.9104 63.1099,68.3224 61.7189,68.6804" id="Fill-12" fill="#F1892D" mask="url(#mask-4)"></path>
                <polygon id="Fill-13" fill="#F1892D" mask="url(#mask-4)" points="63.1691 67.5031 61.7901 62.9901 63.2251 62.5521 64.6041 67.0651"></polygon>
                <path d="M70.5061,65.2819 C69.0691,65.6599 67.6161,66.1119 66.1371,66.5789 L64.7161,62.0799 C66.2061,61.6089 67.7301,61.1339 69.3051,60.7189 L70.5061,65.2819 Z" id="Fill-14" fill="#F9BF3B" mask="url(#mask-4)"></path>
                <path d="M64.9416,62.7951 L64.4906,61.3651 C66.0296,60.8781 67.5406,60.4081 69.1146,59.9931 L69.4966,61.4441 C67.9556,61.8501 66.4626,62.3151 64.9416,62.7951" id="Fill-15" fill="#F1892D" mask="url(#mask-4)"></path>
                <path d="M66.3635,67.2946 L65.9115,65.8646 C67.3315,65.4156 68.8425,64.9446 70.3145,64.5566 L70.6965,66.0066 C69.2565,66.3866 67.7655,66.8506 66.3635,67.2946" id="Fill-16" fill="#F1892D" mask="url(#mask-4)"></path>
                <polygon id="Fill-17" fill="#F1892D" mask="url(#mask-4)" points="67.6184 66.113 66.2614 61.594 67.6974 61.162 69.0554 65.681"></polygon>
                <path d="M74.7258,64.4587 C73.3648,64.5987 71.9408,64.9037 70.5058,65.2817 L69.3048,60.7187 C70.8818,60.3057 72.5108,59.9447 74.2498,59.7647 L74.7258,64.4587 Z" id="Fill-18" fill="#F9BF3B" mask="url(#mask-4)"></path>
                <path d="M69.4953,61.444 L69.1153,59.993 C70.4403,59.646 72.2133,59.221 74.1733,59.018 L74.3273,60.51 C72.4693,60.703 70.7683,61.111 69.4953,61.444" id="Fill-19" fill="#F1892D" mask="url(#mask-4)"></path>
                <path d="M70.6965,66.007 L70.3145,64.556 C72.0115,64.11 73.3885,63.841 74.6495,63.713 L74.8015,65.205 C73.6215,65.326 72.3165,65.581 70.6965,66.007" id="Fill-20" fill="#F1892D" mask="url(#mask-4)"></path>
                <polygon id="Fill-21" fill="#F1892D" mask="url(#mask-4)" points="71.9074 64.9284 70.9814 60.3024 72.4524 60.0074 73.3794 64.6344"></polygon>
                <path d="M78.3586,64.6979 C77.3846,64.3639 76.0806,64.3179 74.7256,64.4589 L74.2506,59.7639 C75.1196,59.6759 76.0196,59.6369 76.9576,59.6889 C77.8936,59.7469 78.8736,59.8899 79.8656,60.2259 L78.3586,64.6979 Z" id="Fill-22" fill="#F9BF3B" mask="url(#mask-4)"></path>
                <path d="M79.6252,60.9367 C78.8082,60.6597 77.9452,60.5017 76.9102,60.4377 C76.0972,60.3927 75.2502,60.4157 74.3262,60.5107 L74.1742,59.0187 C75.1772,58.9157 76.1012,58.8907 76.9982,58.9407 C78.1572,59.0117 79.1732,59.1997 80.1052,59.5167 L79.6252,60.9367 Z" id="Fill-23" fill="#F1892D" mask="url(#mask-4)"></path>
                <path d="M78.1154,65.4074 C77.3154,65.1334 76.1704,65.0624 74.8034,65.2044 L74.6484,63.7134 C75.7514,63.5984 77.3324,63.5534 78.6014,63.9884 L78.1154,65.4074 Z" id="Fill-24" fill="#F1892D" mask="url(#mask-4)"></path>
                <polygon id="Fill-25" fill="#F1892D" mask="url(#mask-4)" points="77.4338 64.443 75.9358 64.357 76.2078 59.646 77.7048 59.733"></polygon>
                <path d="M80.4182,66.507 C79.9432,65.57 79.3352,65.034 78.3582,64.698 L79.8652,60.226 C80.8532,60.557 81.8512,61.09 82.6892,61.831 C83.5262,62.569 84.1902,63.478 84.6432,64.406 L80.4182,66.507 Z" id="Fill-26" fill="#F9BF3B" mask="url(#mask-4)"></path>
                <path d="M83.969,64.735 C83.534,63.844 82.92,63.034 82.194,62.394 C81.483,61.765 80.596,61.262 79.627,60.938 L80.104,59.515 C81.262,59.903 82.327,60.51 83.186,61.269 C84.06,62.039 84.797,63.01 85.318,64.078 L83.969,64.735 Z" id="Fill-27" fill="#F1892D" mask="url(#mask-4)"></path>
                <path d="M79.7492,66.8459 C79.3622,66.0819 78.9042,65.6789 78.1142,65.4079 L78.6032,63.9889 C79.7592,64.3869 80.5252,65.0589 81.0872,66.1689 L79.7492,66.8459 Z" id="Fill-28" fill="#F1892D" mask="url(#mask-4)"></path>
                <polygon id="Fill-29" fill="#F1892D" mask="url(#mask-4)" points="80.1399 65.8718 79.0119 64.8828 82.1249 61.3358 83.2519 62.3258"></polygon>
                <path d="M80.9133,69.6984 C80.9863,69.1204 80.9883,68.5634 80.9033,68.0344 C80.8893,67.9004 80.8523,67.7724 80.8293,67.6414 C80.7923,67.5134 80.7673,67.3834 80.7213,67.2574 C80.6843,67.1324 80.6323,67.0024 80.5833,66.8714 C80.5593,66.8064 80.5283,66.7484 80.5023,66.6864 C80.4763,66.6234 80.4483,66.5634 80.4183,66.5074 L84.6423,64.4064 C84.7033,64.5224 84.7583,64.6384 84.8083,64.7554 C84.8583,64.8714 84.9133,64.9894 84.9583,65.1054 C85.0493,65.3384 85.1393,65.5724 85.2153,65.8194 C85.2983,66.0614 85.3563,66.3124 85.4233,66.5594 C85.4753,66.8104 85.5333,67.0604 85.5663,67.3134 C85.7263,68.3234 85.7173,69.3394 85.5933,70.3054 L80.9133,69.6984 Z" id="Fill-30" fill="#F9BF3B" mask="url(#mask-4)"></path>
                <path d="M86.3371,70.4011 L84.8491,70.2101 C84.9731,69.2441 84.9651,68.3091 84.8261,67.4301 L84.8231,67.4111 C84.8011,67.2441 84.7641,67.0681 84.7251,66.8831 L84.6541,66.5851 C84.6071,66.4001 84.5621,66.2251 84.5061,66.0641 L84.4971,66.0391 C84.4301,65.8171 84.3461,65.6001 84.2601,65.3791 C84.2321,65.3051 84.2011,65.2381 84.1711,65.1701 L84.1191,65.0521 C84.0721,64.9441 84.0261,64.8461 83.9781,64.7531 L85.3091,64.0601 C85.3741,64.1871 85.4361,64.3181 85.4971,64.4591 L85.5411,64.5611 C85.5831,64.6531 85.6231,64.7461 85.6591,64.8391 C85.7521,65.0781 85.8461,65.3201 85.9281,65.5881 C86.0011,65.8001 86.0551,66.0081 86.1071,66.2101 L86.1571,66.4081 L86.1911,66.5701 C86.2341,66.7741 86.2791,66.9831 86.3091,67.2051 C86.4691,68.2221 86.4781,69.2971 86.3371,70.4011" id="Fill-31" fill="#F1892D" mask="url(#mask-4)"></path>
                <path d="M81.6574,69.7927 L80.1694,69.6047 C80.2354,69.0807 80.2334,68.5917 80.1634,68.1537 L80.1584,68.1177 C80.1534,68.0707 80.1404,68.0117 80.1264,67.9427 C80.1164,67.8997 80.1074,67.8567 80.0984,67.8137 C80.0874,67.7717 80.0764,67.7297 80.0654,67.6877 C80.0494,67.6217 80.0334,67.5607 80.0164,67.5167 L80.0014,67.4677 C79.9764,67.3877 79.9404,67.2917 79.9014,67.1897 L79.8824,67.1397 C79.8704,67.1077 79.8604,67.0887 79.8514,67.0697 C79.8384,67.0387 79.8234,67.0067 79.8094,66.9747 C79.7924,66.9317 79.7754,66.8957 79.7594,66.8657 L81.0764,66.1487 C81.1194,66.2267 81.1584,66.3087 81.1954,66.3997 C81.2014,66.4147 81.2094,66.4307 81.2174,66.4467 C81.2414,66.5007 81.2654,66.5567 81.2874,66.6157 L81.3024,66.6527 C81.3464,66.7707 81.3934,66.8927 81.4334,67.0237 C81.4704,67.1287 81.4964,67.2267 81.5184,67.3137 C81.5284,67.3527 81.5384,67.3917 81.5494,67.4297 L81.5674,67.5087 C81.5754,67.5487 81.5844,67.5887 81.5924,67.6277 C81.6114,67.7177 81.6334,67.8187 81.6464,67.9327 C81.7374,68.5077 81.7404,69.1327 81.6574,69.7927" id="Fill-32" fill="#F1892D" mask="url(#mask-4)"></path>
                <polygon id="Fill-33" fill="#F1892D" mask="url(#mask-4)" points="81.0188 68.7761 80.7898 67.2941 85.4528 66.5721 85.6818 68.0541"></polygon>
                <path d="M79.6613,73.2756 C80.3023,72.0836 80.7673,70.8556 80.9133,69.6986 L85.5933,70.3056 C85.5313,70.7896 85.4343,71.2596 85.3243,71.7206 C85.2063,72.1766 85.0733,72.6256 84.9173,73.0576 C84.6083,73.9236 84.2313,74.7396 83.8143,75.5136 L79.6613,73.2756 Z" id="Fill-34" fill="#F9BF3B" mask="url(#mask-4)"></path>
                <path d="M84.4758,75.8693 L83.1548,75.1583 C83.5868,74.3553 83.9328,73.5853 84.2108,72.8063 C84.3488,72.4233 84.4758,72.0073 84.5988,71.5323 C84.7168,71.0363 84.7978,70.6123 84.8488,70.2113 L86.3368,70.4003 C86.2798,70.8563 86.1888,71.3313 86.0538,71.8953 C85.9158,72.4293 85.7768,72.8883 85.6228,73.3123 C85.3198,74.1613 84.9448,74.9993 84.4758,75.8693" id="Fill-35" fill="#F1892D" mask="url(#mask-4)"></path>
                <path d="M80.3215,73.6305 L79.0005,72.9205 C79.6515,71.7095 80.0455,70.5935 80.1695,69.6055 L81.6575,69.7925 C81.5095,70.9645 81.0605,72.2555 80.3215,73.6305" id="Fill-36" fill="#F1892D" mask="url(#mask-4)"></path>
                <polygon id="Fill-37" fill="#F1892D" mask="url(#mask-4)" points="84.6662 73.7643 80.2212 72.1813 80.7252 70.7673 85.1692 72.3513"></polygon>
                <path d="M77.2805,76.7468 C78.1955,75.6338 79.0165,74.4708 79.6615,73.2758 L83.8145,75.5138 C82.9785,77.0608 81.9875,78.4498 80.9265,79.7428 L77.2805,76.7468 Z" id="Fill-38" fill="#F9BF3B" mask="url(#mask-4)"></path>
                <path d="M81.5061,80.2189 L80.3461,79.2669 C81.5041,77.8569 82.4231,76.5119 83.1551,75.1569 L84.4751,75.8699 C83.6961,77.3109 82.7251,78.7329 81.5061,80.2189" id="Fill-39" fill="#F1892D" mask="url(#mask-4)"></path>
                <path d="M77.8606,77.2228 L76.7016,76.2708 C77.6506,75.1158 78.4236,73.9888 79.0016,72.9188 L80.3216,73.6318 C79.6986,74.7858 78.8706,75.9938 77.8606,77.2228" id="Fill-40" fill="#F1892D" mask="url(#mask-4)"></path>
                <polygon id="Fill-41" fill="#F1892D" mask="url(#mask-4)" points="82.0285 78.3405 78.1455 75.6585 78.9985 74.4245 82.8805 77.1065"></polygon>
                <path d="M74.2854,79.9426 C75.3544,78.9266 76.3644,77.8596 77.2804,76.7466 L80.9264,79.7426 C79.8624,81.0346 78.7244,82.2326 77.5364,83.3626 L74.2854,79.9426 Z" id="Fill-42" fill="#F9BF3B" mask="url(#mask-4)"></path>
                <path d="M78.0529,83.9064 L77.0199,82.8194 C78.2659,81.6344 79.3549,80.4714 80.3469,79.2664 L81.5049,80.2194 C80.4739,81.4724 79.3439,82.6784 78.0529,83.9064" id="Fill-43" fill="#F1892D" mask="url(#mask-4)"></path>
                <path d="M74.802,80.4865 L73.769,79.3995 C74.859,78.3635 75.846,77.3105 76.701,76.2705 L77.86,77.2235 C76.965,78.3105 75.936,79.4085 74.802,80.4865" id="Fill-44" fill="#F1892D" mask="url(#mask-4)"></path>
                <polygon id="Fill-45" fill="#F1892D" mask="url(#mask-4)" points="78.7649 82.1598 75.3269 78.9278 76.3539 77.8348 79.7919 81.0668"></polygon>
                <path d="M70.9641,82.7819 L71.1561,82.6359 L71.3671,82.4719 L71.7941,82.1319 C72.0791,81.9019 72.3611,81.6659 72.6421,81.4259 C73.2021,80.9459 73.7511,80.4499 74.2851,79.9429 L77.5361,83.3629 C76.9421,83.9279 76.3341,84.4759 75.7111,85.0099 C75.4001,85.2759 75.0851,85.5389 74.7641,85.7989 L74.2771,86.1869 L74.0271,86.3809 L73.7541,86.5869 L70.9641,82.7819 Z" id="Fill-46" fill="#F9BF3B" mask="url(#mask-4)"></path>
                <path d="M74.2053,87.1862 L73.3023,85.9882 L73.8173,85.5942 L74.2973,85.2122 C74.6013,84.9652 74.9153,84.7042 75.2243,84.4402 C75.8273,83.9222 76.4323,83.3762 77.0193,82.8192 L78.0533,83.9072 C77.4463,84.4822 76.8233,85.0442 76.1993,85.5792 C75.8803,85.8522 75.5573,86.1222 75.2363,86.3812 L74.4873,86.9732 L74.2053,87.1862 Z" id="Fill-47" fill="#F1892D" mask="url(#mask-4)"></path>
                <path d="M71.4162,83.3801 L70.5122,82.1831 L70.9082,81.8801 L71.3262,81.5461 C71.5972,81.3271 71.8772,81.0931 72.1542,80.8561 C72.6972,80.3911 73.2412,79.9001 73.7702,79.3991 L74.8022,80.4861 C74.2552,81.0051 73.6922,81.5131 73.1302,81.9951 C72.8422,82.2421 72.5522,82.4841 72.2672,82.7141 L71.4162,83.3801 Z" id="Fill-48" fill="#F1892D" mask="url(#mask-4)"></path>
                <polygon id="Fill-49" fill="#F1892D" mask="url(#mask-4)" points="75.1418 85.4977 72.0728 81.9137 73.2108 80.9377 76.2818 84.5217"></polygon>
                <path d="M65.0588,81.3527 L68.0778,79.3527 L67.8828,79.0587 C66.9718,77.6837 67.3518,75.8117 68.7268,74.9007 L70.6118,73.6537 C71.9868,72.7427 73.8578,73.1227 74.7688,74.4977 L76.6208,77.2927 L77.2228,78.2027 L80.2228,82.7307 C81.1338,84.1067 80.7538,85.9777 79.3778,86.8887 L71.9748,91.7927 C70.5988,92.7047 68.7278,92.3237 67.8168,90.9487 L64.2138,85.5107 C63.3028,84.1347 63.6838,82.2637 65.0588,81.3527" id="Fill-50" fill="#A5B5B6" mask="url(#mask-4)"></path>
                <path d="M64.2141,85.5104 C63.3031,84.1354 63.6841,82.2634 65.0591,81.3524 L66.7361,80.2414 L73.6111,90.7084 L71.9751,91.7924 C70.5991,92.7044 68.7281,92.3234 67.8171,90.9484 L64.2141,85.5104 Z" id="Fill-51" fill="#859596" mask="url(#mask-4)"></path>
                <path d="M65.4729,81.9777 C64.4389,82.6637 64.1549,84.0617 64.8399,85.0967 L68.4419,90.5347 C68.7719,91.0327 69.2799,91.3737 69.8699,91.4937 C70.4619,91.6127 71.0619,91.4977 71.5599,91.1677 L78.9639,86.2637 C79.9979,85.5787 80.2829,84.1797 79.5969,83.1447 L74.1439,74.9117 C73.8139,74.4137 73.3059,74.0737 72.7149,73.9527 C72.1229,73.8327 71.5239,73.9487 71.0259,74.2787 L69.1419,75.5267 C68.1069,76.2117 67.8229,77.6107 68.5079,78.6447 L68.7029,78.9387 C68.8129,79.1047 68.8529,79.3077 68.8129,79.5027 C68.7729,79.6977 68.6579,79.8687 68.4919,79.9787 L65.4729,81.9777 Z M70.3299,93.0407 C70.0779,93.0407 69.8249,93.0147 69.5719,92.9627 C68.5879,92.7637 67.7429,92.1947 67.1919,91.3627 L63.5889,85.9247 C62.4479,84.2007 62.9209,81.8697 64.6449,80.7277 L64.6449,80.7277 L67.0559,79.1307 C66.1829,77.4517 66.7019,75.3437 68.3129,74.2757 L70.1979,73.0277 C71.0299,72.4767 72.0299,72.2827 73.0139,72.4827 C73.9969,72.6827 74.8429,73.2507 75.3939,74.0837 L80.8479,82.3167 C81.9899,84.0407 81.5159,86.3727 79.7919,87.5147 L72.3889,92.4177 C71.7699,92.8277 71.0589,93.0407 70.3299,93.0407 L70.3299,93.0407 Z" id="Fill-52" fill="#354546" mask="url(#mask-4)"></path>
                <path d="M73.6526,91.4318 C73.4096,91.4318 73.1716,91.3138 73.0266,91.0958 L66.1116,80.6558 C65.8816,80.3108 65.9766,79.8448 66.3226,79.6168 C66.6676,79.3878 67.1326,79.4818 67.3616,79.8278 L74.2766,90.2678 C74.5066,90.6128 74.4116,91.0778 74.0656,91.3068 C73.9386,91.3918 73.7956,91.4318 73.6526,91.4318" id="Fill-53" fill="#354546" mask="url(#mask-4)"></path>
                <path d="M65.1828,87.7209 C64.9478,87.7209 64.7168,87.6109 64.5708,87.4059 C64.3298,87.0679 64.4098,86.5999 64.7468,86.3599 L68.8328,83.4529 C69.1708,83.2129 69.6388,83.2919 69.8788,83.6299 C70.1198,83.9669 70.0398,84.4349 69.7038,84.6759 L65.6168,87.5819 C65.4848,87.6759 65.3328,87.7209 65.1828,87.7209" id="Fill-54" fill="#354546" mask="url(#mask-4)"></path>
                <path d="M67.5686,91.3234 C67.3176,91.3234 67.0726,91.1974 66.9306,90.9684 C66.7126,90.6164 66.8206,90.1544 67.1726,89.9364 L71.4336,87.2934 C71.7866,87.0744 72.2486,87.1834 72.4666,87.5354 C72.6846,87.8874 72.5766,88.3494 72.2246,88.5684 L67.9636,91.2104 C67.8396,91.2864 67.7036,91.3234 67.5686,91.3234" id="Fill-55" fill="#354546" mask="url(#mask-4)"></path>
                <path d="M76.6233,85.3249 C76.5733,85.3249 76.5233,85.3199 76.4753,85.3099 C76.2793,85.2699 76.1083,85.1549 75.9983,84.9899 L71.6533,78.4289 C71.4243,78.0839 71.5193,77.6179 71.8643,77.3899 L75.2143,75.1709 C75.5603,74.9419 76.0253,75.0359 76.2543,75.3819 C76.4823,75.7269 76.3883,76.1919 76.0433,76.4209 L73.3173,78.2259 L76.8353,83.5359 L79.5603,81.7309 C79.9053,81.5019 80.3703,81.5959 80.6003,81.9419 C80.8283,82.2869 80.7333,82.7529 80.3883,82.9809 L77.0383,85.1999 C76.9143,85.2829 76.7693,85.3249 76.6233,85.3249" id="Fill-56" fill="#354546" mask="url(#mask-4)"></path>
                <path d="M68.0783,80.1032 C67.8353,80.1032 67.5973,79.9852 67.4523,79.7672 C67.2243,79.4222 67.3183,78.9572 67.6633,78.7282 L69.3863,77.5872 C69.7313,77.3582 70.1963,77.4532 70.4253,77.7982 C70.6543,78.1432 70.5593,78.6082 70.2143,78.8372 L68.4913,79.9782 C68.3643,80.0622 68.2213,80.1032 68.0783,80.1032" id="Fill-57" fill="#354546" mask="url(#mask-4)"></path>
                <path d="M10.9816,66.0573 C10.9226,65.2053 10.8876,64.3553 10.8826,63.5023 C10.8776,63.0763 10.8826,62.6493 10.8926,62.2203 C10.8986,62.0053 10.9056,61.7903 10.9156,61.5723 L10.9316,61.2433 L10.9556,60.8833 L15.6586,61.2673 L15.6426,61.5093 L15.6286,61.7823 L15.6106,62.3383 C15.6016,62.7123 15.5966,63.0893 15.6006,63.4663 C15.6056,64.2213 15.6366,64.9773 15.6886,65.7283 L10.9816,66.0573 Z" id="Fill-58" fill="#F9BF3B" mask="url(#mask-4)"></path>
                <path d="M14.9406,65.7804 C14.8856,64.9874 14.8556,64.2104 14.8506,63.4704 C14.8476,63.1284 14.8506,62.7514 14.8606,62.3214 L14.9096,61.2194 L16.4066,61.3154 L16.3776,61.8194 L16.3596,62.3634 C16.3506,62.7684 16.3476,63.1294 16.3506,63.4594 C16.3556,64.1694 16.3836,64.9144 16.4366,65.6764 L14.9406,65.7804 Z" id="Fill-59" fill="#F1892D" mask="url(#mask-4)"></path>
                <path d="M10.2336,66.1091 C10.1716,65.2191 10.1376,64.3441 10.1326,63.5071 C10.1296,63.1131 10.1316,62.6861 10.1436,62.2031 C10.1486,61.9821 10.1566,61.7621 10.1666,61.5391 L10.2076,60.8341 L11.7036,60.9321 L11.6646,61.6091 C11.6556,61.8181 11.6476,62.0291 11.6426,62.2381 C11.6316,62.7031 11.6296,63.1151 11.6326,63.4951 C11.6376,64.3031 11.6706,65.1471 11.7296,66.0051 L10.2336,66.1091 Z" id="Fill-60" fill="#F1892D" mask="url(#mask-4)"></path>
                <polygon id="Fill-61" fill="#F1892D" mask="url(#mask-4)" points="10.8889 64.2526 10.8769 62.7526 15.5949 62.7166 15.6069 64.2166"></polygon>
                <path d="M11.7043,71.1755 C11.3223,69.4675 11.1023,67.7605 10.9813,66.0575 L15.6883,65.7285 C15.7963,67.2315 15.9893,68.7205 16.3093,70.1505 L11.7043,71.1755 Z" id="Fill-62" fill="#F9BF3B" mask="url(#mask-4)"></path>
                <path d="M15.5783,70.3146 C15.2713,68.9466 15.0573,67.4216 14.9403,65.7816 L16.4363,65.6756 C16.5483,67.2406 16.7523,68.6916 17.0423,69.9866 L15.5783,70.3146 Z" id="Fill-63" fill="#F1892D" mask="url(#mask-4)"></path>
                <path d="M10.9719,71.339 C10.6109,69.721 10.3689,68.01 10.2339,66.111 L11.7299,66.004 C11.8599,67.829 12.0909,69.467 12.4359,71.012 L10.9719,71.339 Z" id="Fill-64" fill="#F1892D" mask="url(#mask-4)"></path>
                <polygon id="Fill-65" fill="#F1892D" mask="url(#mask-4)" points="11.3488 69.3576 11.1428 67.8716 15.8168 67.2236 16.0228 68.7096"></polygon>
                <path d="M13.4299,76.2555 C13.0209,75.4255 12.6869,74.5805 12.4069,73.7315 C12.1249,72.8815 11.8949,72.0285 11.7039,71.1755 L16.3099,70.1505 C16.4699,70.8655 16.6599,71.5655 16.8839,72.2415 C17.1069,72.9195 17.3669,73.5715 17.6689,74.1835 L13.4299,76.2555 Z" id="Fill-66" fill="#F9BF3B" mask="url(#mask-4)"></path>
                <path d="M16.9963,74.5153 C16.6903,73.8963 16.4133,73.2103 16.1723,72.4763 C15.9473,71.7993 15.7473,71.0713 15.5783,70.3143 L17.0423,69.9873 C17.2003,70.6953 17.3873,71.3743 17.5963,72.0063 C17.8163,72.6753 18.0663,73.2953 18.3413,73.8503 L16.9963,74.5153 Z" id="Fill-67" fill="#F1892D" mask="url(#mask-4)"></path>
                <path d="M12.757,76.5866 C12.354,75.7686 12.006,74.9116 11.695,73.9656 C11.419,73.1366 11.176,72.2526 10.972,71.3386 L12.436,71.0116 C12.629,71.8766 12.859,72.7116 13.118,73.4956 C13.408,74.3746 13.731,75.1686 14.103,75.9236 L12.757,76.5866 Z" id="Fill-68" fill="#F1892D" mask="url(#mask-4)"></path>
                <polygon id="Fill-69" fill="#F1892D" mask="url(#mask-4)" points="12.6438 74.4426 12.1698 73.0196 16.6478 71.5296 17.1208 72.9536"></polygon>
                <path d="M16.5441,80.7575 C15.9201,80.0665 15.3711,79.3675 14.8681,78.6645 L14.7721,78.5325 L14.6731,78.3865 L14.4731,78.0895 C14.3361,77.8915 14.2151,77.6895 14.0961,77.4865 L13.9151,77.1825 C13.8561,77.0805 13.8041,76.9775 13.7481,76.8745 C13.6411,76.6685 13.5241,76.4645 13.4301,76.2555 L17.6691,74.1835 C17.7391,74.3405 17.8241,74.4845 17.9011,74.6345 C17.9411,74.7095 17.9801,74.7855 18.0221,74.8575 L18.1491,75.0715 C18.2331,75.2155 18.3171,75.3585 18.4111,75.4895 L18.5471,75.6935 C18.5701,75.7285 18.5901,75.7605 18.6171,75.7975 L18.6981,75.9085 C19.1291,76.5125 19.5781,77.0765 20.0311,77.5785 L16.5441,80.7575 Z" id="Fill-70" fill="#F9BF3B" mask="url(#mask-4)"></path>
                <path d="M19.4748,78.0812 C19.0038,77.5592 18.5378,76.9752 18.0878,76.3432 L18.0118,76.2402 C17.9858,76.2042 17.9648,76.1732 17.9448,76.1412 L17.7928,75.9142 C17.6818,75.7562 17.5858,75.5942 17.5018,75.4512 L17.3778,75.2432 C17.3398,75.1782 17.3108,75.1232 17.2828,75.0672 L17.2428,74.9932 C17.2118,74.9352 17.1888,74.8912 17.1638,74.8472 C17.1078,74.7412 17.0418,74.6212 16.9838,74.4872 L18.3548,73.8782 C18.3898,73.9582 18.4358,74.0442 18.4848,74.1342 C18.5128,74.1852 18.5398,74.2382 18.5678,74.2902 C18.5788,74.3092 18.5948,74.3402 18.6108,74.3722 C18.6308,74.4092 18.6508,74.4472 18.6708,74.4832 L18.7918,74.6852 C18.8708,74.8172 18.9468,74.9482 19.0238,75.0562 L19.1998,75.3192 C19.2068,75.3312 19.2138,75.3432 19.2228,75.3552 L19.3028,75.4642 C19.7258,76.0582 20.1568,76.5972 20.5888,77.0772 L19.4748,78.0812 Z" id="Fill-71" fill="#F1892D" mask="url(#mask-4)"></path>
                <path d="M15.9875,81.2599 C15.3885,80.5969 14.8235,79.8909 14.2585,79.0999 L14.0525,78.8089 L13.8495,78.5069 C13.7045,78.2959 13.5715,78.0749 13.4495,77.8669 L13.2705,77.5659 C13.2215,77.4809 13.1815,77.4059 13.1415,77.3299 L13.0895,77.2319 C13.0545,77.1669 13.0255,77.1119 12.9955,77.0559 C12.9125,76.8999 12.8255,76.7389 12.7475,76.5659 L14.1125,75.9449 C14.1715,76.0729 14.2425,76.2059 14.3175,76.3479 C14.3495,76.4069 14.3825,76.4679 14.4135,76.5269 L14.4665,76.6269 C14.4985,76.6879 14.5315,76.7489 14.5655,76.8089 L14.7405,77.1039 C14.8495,77.2889 14.9665,77.4829 15.0905,77.6619 L15.4735,78.2219 C16.0095,78.9709 16.5405,79.6349 17.1005,80.2549 L15.9875,81.2599 Z" id="Fill-72" fill="#F1892D" mask="url(#mask-4)"></path>
                <polygon id="Fill-73" fill="#F1892D" mask="url(#mask-4)" points="15.3068 79.2731 14.4308 78.0551 18.2608 75.2991 19.1368 76.5171"></polygon>
                <path d="M23.0334,83.3845 C22.3794,83.6005 21.6754,83.6555 20.9924,83.5515 C20.3084,83.4495 19.6514,83.1955 19.0384,82.8535 C18.7384,82.6775 18.4174,82.4715 18.2074,82.3035 C18.0914,82.2155 17.9714,82.1235 17.8604,82.0345 L17.5734,81.7825 C17.3754,81.6145 17.2074,81.4445 17.0344,81.2735 C16.8554,81.1025 16.7024,80.9295 16.5444,80.7575 L20.0314,77.5785 C20.1444,77.7015 20.2584,77.8315 20.3714,77.9365 C20.4844,78.0485 20.5964,78.1655 20.7074,78.2555 L20.8724,78.4025 L21.0034,78.5005 C21.1054,78.5855 21.1244,78.5925 21.1694,78.6225 C21.2524,78.6715 21.3414,78.7135 21.4364,78.7325 C21.5314,78.7535 21.6324,78.7435 21.7224,78.7115 L23.0334,83.3845 Z" id="Fill-74" fill="#F9BF3B" mask="url(#mask-4)"></path>
                <path d="M21.5383,77.9933 C21.5173,77.9933 21.4963,77.9963 21.4753,78.0043 L21.4963,78.0653 L21.5383,77.9933 Z M21.5403,79.4933 C21.4523,79.4933 21.3643,79.4843 21.2783,79.4653 C21.1223,79.4333 20.9593,79.3693 20.7893,79.2693 L20.7423,79.2393 C20.6903,79.2063 20.6403,79.1723 20.5393,79.0903 L20.3733,78.9623 L20.2193,78.8253 C20.1073,78.7313 20.0053,78.6303 19.9073,78.5333 L19.8513,78.4763 C19.7433,78.3753 19.6453,78.2683 19.5513,78.1643 L19.4803,78.0873 L20.5833,77.0703 L20.6603,77.1543 C20.7403,77.2433 20.8163,77.3263 20.8833,77.3883 L20.9653,77.4703 C21.0463,77.5493 21.1213,77.6253 21.1823,77.6753 L21.2063,77.6953 L21.3483,77.8213 L21.4803,77.9223 C21.5293,77.9623 21.5373,77.9673 21.5503,77.9753 L21.5593,77.9823 C21.5843,77.9953 21.5953,77.9993 21.5953,77.9993 C21.5923,77.9993 21.5873,77.9983 21.5833,77.9973 L21.5113,78.1073 L21.9723,79.4193 C21.8313,79.4683 21.6853,79.4933 21.5403,79.4933 L21.5403,79.4933 Z" id="Fill-75" fill="#F1892D" mask="url(#mask-4)"></path>
                <path d="M21.6643,84.3522 C21.4023,84.3522 21.1403,84.3322 20.8803,84.2922 C20.1563,84.1852 19.4133,83.9212 18.6733,83.5092 L18.6563,83.4992 C18.3883,83.3412 18.0123,83.1072 17.7453,82.8942 L17.7283,82.8812 C17.6143,82.7942 17.4963,82.7052 17.3893,82.6182 L17.3663,82.5992 L17.0793,82.3472 C16.8893,82.1852 16.7233,82.0202 16.5623,81.8612 L16.5073,81.8062 C16.3483,81.6542 16.2053,81.4972 16.0663,81.3462 L15.9923,81.2652 L17.0963,80.2492 L17.1733,80.3332 C17.3013,80.4732 17.4213,80.6042 17.5533,80.7312 L17.6193,80.7962 C17.7673,80.9422 17.9053,81.0802 18.0603,81.2112 L18.3433,81.4602 C18.4363,81.5362 18.5383,81.6122 18.6363,81.6872 L18.6783,81.7192 C18.8273,81.8402 19.0953,82.0162 19.4103,82.2032 C19.9893,82.5242 20.5593,82.7282 21.1023,82.8092 C21.6773,82.8962 22.2633,82.8492 22.7993,82.6722 L23.2683,84.0972 C22.7553,84.2662 22.2113,84.3522 21.6643,84.3522" id="Fill-76" fill="#F1892D" mask="url(#mask-4)"></path>
                <polygon id="Fill-77" fill="#F1892D" mask="url(#mask-4)" points="19.7072 83.1911 18.3682 82.5161 20.4992 78.2851 21.8392 78.9601"></polygon>
                <path d="M27.5129,78.5402 C27.3169,78.9272 27.1129,79.3172 26.8819,79.7162 C26.6589,80.1122 26.3979,80.5212 26.1049,80.9342 L25.8719,81.2462 L25.8429,81.2862 L25.8029,81.3332 L25.7239,81.4302 L25.5629,81.6192 C25.4589,81.7432 25.3349,81.8722 25.2099,81.9962 C25.0859,82.1222 24.9599,82.2442 24.8249,82.3542 C24.2949,82.8112 23.6899,83.1732 23.0339,83.3842 L21.7229,78.7112 C21.8149,78.6782 21.8959,78.6212 21.9659,78.5552 C21.9849,78.5402 22.0009,78.5212 22.0179,78.5042 C22.0339,78.4872 22.0489,78.4712 22.0749,78.4402 L22.1079,78.4002 L22.1239,78.3802 L22.1329,78.3702 L22.1479,78.3492 L22.2759,78.1782 C22.6189,77.6962 22.9679,77.0762 23.2999,76.4152 L27.5129,78.5402 Z" id="Fill-78" fill="#F9BF3B" mask="url(#mask-4)"></path>
                <path d="M21.9797,79.4162 L21.4667,78.0062 C21.4487,78.0132 21.4397,78.0192 21.4397,78.0192 C21.4397,78.0192 21.4457,78.0162 21.4557,78.0062 L21.5427,77.9062 L21.6727,77.7302 C21.9537,77.3382 22.2777,76.7782 22.6297,76.0782 L23.9697,76.7512 C23.5777,77.5322 23.2227,78.1412 22.8857,78.6132 L22.6507,78.9202 C22.6197,78.9592 22.5927,78.9872 22.5677,79.0142 C22.5327,79.0512 22.5007,79.0832 22.4677,79.1122 C22.3167,79.2512 22.1527,79.3532 21.9797,79.4162" id="Fill-79" fill="#F1892D" mask="url(#mask-4)"></path>
                <path d="M23.2639,84.0988 L22.8039,82.6708 C23.3399,82.4978 23.8549,82.2008 24.3349,81.7868 L24.3509,81.7728 C24.4649,81.6808 24.5759,81.5718 24.6779,81.4688 C24.7749,81.3718 24.8959,81.2488 24.9879,81.1388 L25.2749,80.7928 L25.4979,80.4938 C25.7739,80.1038 26.0189,79.7188 26.2289,79.3478 C26.4739,78.9238 26.6859,78.5128 26.8439,78.2008 L28.1819,78.8788 C28.0149,79.2078 27.7899,79.6428 27.5319,80.0918 C27.2989,80.5028 27.0239,80.9338 26.7169,81.3678 L26.7059,81.3818 L26.3019,81.9078 L26.1349,82.1048 C26.0079,82.2568 25.8579,82.4108 25.7419,82.5268 C25.6199,82.6488 25.4729,82.7938 25.3069,82.9298 C24.6759,83.4718 23.9889,83.8658 23.2639,84.0988" id="Fill-80" fill="#F1892D" mask="url(#mask-4)"></path>
                <polygon id="Fill-81" fill="#F1892D" mask="url(#mask-4)" points="25.6672 81.5427 21.8372 78.7867 22.7132 77.5687 26.5432 80.3257"></polygon>
                <path d="M29.5793,74.1384 C28.9083,75.5224 28.2843,76.9994 27.5133,78.5404 L23.3003,76.4144 C23.9703,75.0814 24.6003,73.5964 25.3303,72.0874 L29.5793,74.1384 Z" id="Fill-82" fill="#F9BF3B" mask="url(#mask-4)"></path>
                <path d="M23.9699,76.7516 L22.6299,76.0786 C22.9939,75.3526 23.3459,74.5836 23.7179,73.7706 C24.0169,73.1166 24.3249,72.4416 24.6549,71.7606 L26.0049,72.4136 C25.6829,73.0796 25.3779,73.7486 25.0819,74.3946 C24.7039,75.2206 24.3469,76.0016 23.9699,76.7516" id="Fill-83" fill="#F1892D" mask="url(#mask-4)"></path>
                <path d="M28.1838,78.8757 L26.8418,78.2047 C27.2748,77.3397 27.6628,76.4897 28.0388,75.6677 C28.3328,75.0237 28.6118,74.4167 28.9048,73.8117 L30.2538,74.4657 C29.9678,75.0557 29.6938,75.6557 29.4038,76.2917 C29.0228,77.1257 28.6278,77.9877 28.1838,78.8757" id="Fill-84" fill="#F1892D" mask="url(#mask-4)"></path>
                <polygon id="Fill-85" fill="#F1892D" mask="url(#mask-4)" points="28.2707 76.9626 23.9807 74.9986 24.6047 73.6346 28.8957 75.5986"></polygon>
                <path d="M31.7541,70.4577 C31.3531,70.9517 30.9741,71.5357 30.6141,72.1577 C30.2541,72.7817 29.9131,73.4477 29.5791,74.1387 L25.3301,72.0867 C25.6951,71.3317 26.0851,70.5647 26.5291,69.7967 C26.9741,69.0287 27.4671,68.2557 28.0771,67.4997 L31.7541,70.4577 Z" id="Fill-86" fill="#F9BF3B" mask="url(#mask-4)"></path>
                <path d="M26.0051,72.4137 L24.6541,71.7607 C25.0951,70.8497 25.4841,70.1067 25.8791,69.4217 C26.4301,68.4717 26.9421,67.7107 27.4931,67.0287 L28.6601,67.9707 C28.1591,68.5917 27.6891,69.2917 27.1781,70.1727 C26.8021,70.8237 26.4301,71.5367 26.0051,72.4137" id="Fill-87" fill="#F1892D" mask="url(#mask-4)"></path>
                <path d="M30.2551,74.4645 L28.9041,73.8125 C29.2921,73.0095 29.6291,72.3645 29.9651,71.7825 C30.3851,71.0555 30.7791,70.4675 31.1721,69.9845 L32.3361,70.9305 C31.9941,71.3505 31.6441,71.8755 31.2641,72.5325 C30.9461,73.0825 30.6261,73.6955 30.2551,74.4645" id="Fill-88" fill="#F1892D" mask="url(#mask-4)"></path>
                <polygon id="Fill-89" fill="#F1892D" mask="url(#mask-4)" points="30.2395 72.8073 26.1535 70.4463 26.9045 69.1473 30.9895 71.5083"></polygon>
                <path d="M34.2141,68.7687 L34.0561,68.7927 C34.0051,68.8077 33.9531,68.8207 33.9021,68.8327 C33.8761,68.8397 33.8501,68.8437 33.8241,68.8517 L33.7491,68.8797 L33.5961,68.9327 C33.5461,68.9567 33.4961,68.9807 33.4451,69.0027 L33.3681,69.0367 L33.2931,69.0807 L33.1391,69.1647 L32.9851,69.2687 C32.5711,69.5407 32.1541,69.9657 31.7541,70.4577 L28.0771,67.4997 C28.2311,67.3107 28.3841,67.1227 28.5561,66.9387 C28.7181,66.7527 28.9011,66.5707 29.0831,66.3907 C29.2631,66.2097 29.4711,66.0377 29.6671,65.8647 L29.9871,65.6147 L30.1491,65.4907 L30.3211,65.3737 L30.6701,65.1437 L31.0421,64.9337 L31.2291,64.8307 L31.4261,64.7377 L31.8231,64.5597 C31.9601,64.5067 32.1001,64.4577 32.2381,64.4097 L32.4471,64.3377 C32.5181,64.3167 32.5901,64.2997 32.6611,64.2807 L33.0921,64.1737 C33.2361,64.1447 33.3821,64.1237 33.5271,64.1007 L34.2141,68.7687 Z" id="Fill-90" fill="#F9BF3B" mask="url(#mask-4)"></path>
                <path d="M28.6594,67.9728 L27.4954,67.0278 C27.6644,66.8188 27.8194,66.6298 27.9984,66.4368 C28.1794,66.2298 28.3734,66.0368 28.5574,65.8558 C28.7064,65.7058 28.8704,65.5638 29.0294,65.4258 L29.2064,65.2728 L29.7284,64.8698 L30.3004,64.4918 L30.9104,64.1518 L31.5564,63.8588 C31.6994,63.8038 31.8454,63.7528 31.9894,63.7018 L32.2324,63.6198 C32.2924,63.6018 32.3514,63.5858 32.4124,63.5708 L32.9464,63.4378 C33.0714,63.4128 33.1974,63.3928 33.3234,63.3728 L33.4104,63.3598 L33.6454,64.8408 L33.5554,64.8548 C33.4554,64.8708 33.3544,64.8868 33.2544,64.9058 L32.7884,65.0228 C32.7514,65.0328 32.7134,65.0418 32.6754,65.0528 L32.4814,65.1188 C32.3604,65.1618 32.2344,65.2058 32.1104,65.2528 L31.5694,65.4988 L31.0614,65.7838 L30.5874,66.0998 L30.1454,66.4418 C30.1014,66.4808 30.0564,66.5188 30.0134,66.5578 C29.8684,66.6838 29.7314,66.8028 29.6154,66.9188 C29.4434,67.0888 29.2684,67.2618 29.1214,67.4308 L29.1044,67.4498 C28.9544,67.6118 28.8144,67.7828 28.6594,67.9728" id="Fill-91" fill="#F1892D" mask="url(#mask-4)"></path>
                <path d="M32.3352,70.9308 L31.1722,69.9838 C31.6672,69.3758 32.1252,68.9368 32.5732,68.6428 L32.7772,68.5078 L33.0682,68.3488 L33.1462,68.3158 C33.1842,68.2988 33.2242,68.2798 33.2632,68.2608 L33.3542,68.2228 L33.6172,68.1308 C33.6482,68.1218 33.6792,68.1148 33.7102,68.1078 L33.7302,68.1028 C33.7682,68.0948 33.8062,68.0838 33.8442,68.0728 L33.9452,68.0508 L34.1042,68.0268 L34.3252,69.5108 L34.2152,69.5268 C34.1682,69.5398 34.1212,69.5518 34.0742,69.5628 C34.0682,69.5648 34.0582,69.5668 34.0452,69.5698 L33.8832,69.6268 C33.8382,69.6488 33.7932,69.6688 33.7472,69.6898 L33.6542,69.7378 L33.5302,69.8058 L33.4062,69.8898 C33.0842,70.1018 32.7272,70.4508 32.3352,70.9308" id="Fill-92" fill="#F1892D" mask="url(#mask-4)"></path>
                <polygon id="Fill-93" fill="#F1892D" mask="url(#mask-4)" points="32.3664 69.6926 29.7024 65.7976 30.9404 64.9506 33.6044 68.8456"></polygon>
                <path d="M37.3566,69.5837 C36.7746,69.2717 36.1956,69.0257 35.6586,68.8837 L35.5566,68.8537 C35.5236,68.8457 35.4916,68.8417 35.4596,68.8347 L35.2636,68.7957 C35.1986,68.7777 35.1366,68.7747 35.0756,68.7687 L34.8906,68.7457 C34.8306,68.7397 34.7736,68.7437 34.7146,68.7407 C34.6576,68.7417 34.5956,68.7297 34.5426,68.7377 C34.4316,68.7507 34.3176,68.7427 34.2136,68.7687 L33.5276,64.1007 C33.8196,64.0467 34.1086,64.0407 34.3996,64.0217 C34.5456,64.0107 34.6856,64.0217 34.8296,64.0227 C34.9706,64.0287 35.1156,64.0287 35.2546,64.0417 L35.6696,64.0867 C35.8066,64.1037 35.9466,64.1187 36.0766,64.1477 L36.4726,64.2267 C36.5386,64.2407 36.6056,64.2527 36.6696,64.2687 L36.8586,64.3207 C37.8756,64.5907 38.7786,64.9927 39.6126,65.4387 L37.3566,69.5837 Z" id="Fill-94" fill="#F9BF3B" mask="url(#mask-4)"></path>
                <path d="M39.258,66.1003 C38.334,65.6053 37.511,65.2693 36.665,65.0453 L36.483,64.9953 C36.451,64.9873 36.42,64.9813 36.389,64.9753 L35.914,64.8793 C35.83,64.8613 35.724,64.8493 35.611,64.8353 L35.182,64.7873 C35.1,64.7813 35.015,64.7793 34.931,64.7763 L34.816,64.7733 C34.767,64.7723 34.718,64.7713 34.669,64.7693 C34.586,64.7673 34.515,64.7653 34.453,64.7693 C34.387,64.7733 34.325,64.7773 34.265,64.7803 C34.051,64.7923 33.85,64.8043 33.663,64.8383 L33.393,63.3623 C33.671,63.3113 33.93,63.2973 34.18,63.2833 L34.352,63.2733 C34.484,63.2633 34.607,63.2673 34.715,63.2703 C34.755,63.2713 34.795,63.2733 34.835,63.2733 L34.971,63.2773 C35.082,63.2803 35.197,63.2833 35.32,63.2933 L35.338,63.2953 L35.785,63.3463 C35.921,63.3613 36.074,63.3793 36.23,63.4133 L36.688,63.5053 C36.741,63.5163 36.795,63.5273 36.847,63.5393 L37.057,63.5973 C38.012,63.8503 38.939,64.2263 39.967,64.7783 L39.258,66.1003 Z" id="Fill-95" fill="#F1892D" mask="url(#mask-4)"></path>
                <path d="M37.0022,70.2448 C36.4402,69.9438 35.9242,69.7298 35.4672,69.6088 L35.3662,69.5798 C35.3472,69.5768 35.3282,69.5738 35.3092,69.5698 L35.0722,69.5208 C35.0672,69.5228 35.0542,69.5198 35.0392,69.5188 L34.8152,69.4918 L34.7882,69.4918 C34.7562,69.4928 34.7282,69.4918 34.6972,69.4908 C34.6642,69.4908 34.6312,69.4888 34.5972,69.4858 C34.5482,69.4908 34.4982,69.4938 34.4482,69.4958 C34.4252,69.4968 34.4012,69.4968 34.3782,69.4998 C34.3852,69.4988 34.3912,69.4978 34.3972,69.4958 L34.0322,68.0408 C34.1692,68.0068 34.2912,68.0018 34.3812,67.9968 C34.4032,67.9958 34.4262,67.9958 34.4482,67.9938 C34.5542,67.9798 34.6432,67.9858 34.6962,67.9898 L34.7162,67.9908 L34.7412,67.9908 L34.7552,67.9918 C34.7662,67.9928 34.7762,67.9918 34.7882,67.9918 L34.7902,67.9918 C34.8472,67.9928 34.9042,67.9938 34.9642,67.9988 L35.1842,68.0258 C35.2422,68.0308 35.3292,68.0398 35.4302,68.0638 L35.6272,68.1028 C35.6632,68.1098 35.6982,68.1168 35.7352,68.1248 L35.8592,68.1618 C36.4282,68.3118 37.0512,68.5688 37.7112,68.9228 L37.0022,70.2448 Z" id="Fill-96" fill="#F1892D" mask="url(#mask-4)"></path>
                <polygon id="Fill-97" fill="#F1892D" mask="url(#mask-4)" points="36.383 69.0744 34.933 68.6934 36.133 64.1294 37.584 64.5114"></polygon>
                <path d="M55.2775,75.05 L55.2785,75.05 L55.2775,75.05 Z M56.2135,75.426 C56.1885,75.426 56.1665,75.426 56.1435,75.427 C55.9635,75.436 55.8935,75.477 55.8825,75.491 C55.7985,75.607 55.7295,76.303 56.4955,77.922 C57.0775,79.153 57.9015,80.399 58.3815,80.946 C58.7675,81.385 59.2545,81.627 59.7145,81.605 C60.1145,81.587 60.4675,81.382 60.7375,81.011 C61.4105,80.088 61.2755,78.507 60.4435,77.558 C59.7365,76.753 57.4175,75.426 56.2135,75.426 L56.2135,75.426 Z M59.6595,83.106 C58.7815,83.106 57.9115,82.684 57.2555,81.935 C56.7145,81.321 53.2735,76.527 54.6715,74.608 C54.8815,74.318 55.2985,73.965 56.0755,73.929 C57.8215,73.848 60.6125,75.476 61.5715,76.569 C62.8765,78.056 63.0425,80.395 61.9505,81.895 C61.4105,82.635 60.6405,83.064 59.7825,83.103 C59.7415,83.105 59.7005,83.106 59.6595,83.106 L59.6595,83.106 Z" id="Fill-98" fill="#19B5FE" mask="url(#mask-4)"></path>
                <path d="M56.4904,74.778 C56.4224,75.21 56.9004,76.04 58.4454,77.075 C59.7234,77.932 61.2734,78.606 62.0814,78.804 C62.6834,78.952 63.3014,78.843 63.8204,78.497 C64.4474,78.08 64.8834,77.357 65.0154,76.512 C65.2774,74.843 64.3234,73.198 62.8874,72.845 C61.7564,72.567 58.6804,72.97 57.1754,73.972 C56.8904,74.161 56.5414,74.454 56.4904,74.778 M62.6134,80.369 C62.3174,80.369 62.0194,80.334 61.7234,80.261 C59.9574,79.827 54.5784,77.282 55.0094,74.545 C55.1174,73.853 55.5664,73.24 56.3444,72.723 C58.1354,71.531 61.6364,70.993 63.2464,71.389 C65.4194,71.923 66.8774,74.325 66.4974,76.745 C66.3004,78.003 65.6274,79.097 64.6514,79.746 C64.0324,80.158 63.3304,80.369 62.6134,80.369" id="Fill-99" fill="#C72C1C" mask="url(#mask-4)"></path>
                <path d="M51.5529,60.0231 C49.9089,59.8791 47.2159,59.8321 45.5689,59.9191 L36.4969,60.3931 C34.8499,60.4791 33.4779,61.8991 33.4489,63.5491 L33.2989,72.1711 C33.2709,73.8211 34.5489,75.5261 36.1409,75.9611 L45.3299,78.4681 C46.9219,78.9021 49.5379,78.9481 51.1439,78.5691 L60.4149,76.3841 C62.0209,76.0061 63.3589,74.3461 63.3869,72.6961 L63.5369,64.0741 C63.5669,62.4241 62.2449,60.9571 60.6019,60.8131 L51.5529,60.0231 Z" id="Fill-100" fill="#A5B5B6" mask="url(#mask-4)"></path>
                <path d="M60.4563,73.985 L51.1853,76.17 C49.5803,76.548 46.9633,76.503 45.3713,76.068 L36.1833,73.561 C34.5913,73.127 33.3113,71.422 33.3413,69.772 L33.2993,72.172 C33.2703,73.821 34.5493,75.527 36.1413,75.961 L45.3303,78.468 C46.9223,78.902 49.5383,78.948 51.1433,78.569 L60.4153,76.384 C62.0203,76.006 63.3583,74.346 63.3873,72.696 L63.4293,70.297 C63.4003,71.947 62.0623,73.606 60.4563,73.985" id="Fill-101" fill="#859596" mask="url(#mask-4)"></path>
                <path d="M47.5334,60.6247 C46.8274,60.6247 46.1594,60.6387 45.6074,60.6667 L36.5374,61.1417 C35.2914,61.2067 34.2204,62.3147 34.1994,63.5617 L34.0494,72.1847 C34.0254,73.4947 35.0744,74.8927 36.3384,75.2377 L45.5274,77.7447 C46.9964,78.1457 49.4894,78.1887 50.9714,77.8397 L60.2424,75.6547 C61.5174,75.3537 62.6144,73.9937 62.6374,72.6837 L62.7874,64.0607 C62.8094,62.8137 61.7784,61.6687 60.5364,61.5607 L51.4874,60.7707 C50.4184,60.6767 48.9054,60.6247 47.5334,60.6247 M48.5124,79.5787 C47.3034,79.5787 46.0714,79.4477 45.1324,79.1917 L35.9434,76.6847 C34.0054,76.1557 32.5134,74.1677 32.5494,72.1587 L32.6994,63.5357 C32.7354,61.4967 34.4214,59.7497 36.4584,59.6437 L45.5294,59.1697 C47.2104,59.0817 49.9414,59.1287 51.6184,59.2757 L60.6664,60.0657 C62.6984,60.2437 64.3234,62.0467 64.2874,64.0867 L64.1374,72.7097 C64.1014,74.7187 62.5424,76.6537 60.5874,77.1147 L51.3154,79.2997 C50.5214,79.4867 49.5244,79.5787 48.5124,79.5787" id="Fill-102" fill="#354546" mask="url(#mask-4)"></path>
                <polygon id="Fill-103" fill="#556566" mask="url(#mask-4)" points="51.4455 73.1008 38.3705 72.8728 38.5305 63.6738 51.6065 63.9018"></polygon>
                <path d="M47.0305,71.1623 C46.7735,71.1623 46.5325,71.0303 46.3935,70.8083 L45.3565,69.1433 L43.7395,69.1153 C43.4875,69.1113 43.2555,68.9813 43.1205,68.7693 L43.0525,68.6633 L42.6165,69.6803 C42.5185,69.9073 42.3155,70.0713 42.0735,70.1203 C41.8315,70.1673 41.5815,70.0943 41.4045,69.9213 L40.5175,69.0593 L38.4365,69.0233 C38.0225,69.0163 37.6935,68.6743 37.7005,68.2603 C37.7075,67.8463 38.0505,67.5143 38.4635,67.5233 L40.8415,67.5653 C41.0315,67.5683 41.2145,67.6443 41.3505,67.7773 L41.6685,68.0863 L42.2345,66.7693 C42.3435,66.5143 42.5855,66.3403 42.8625,66.3183 C43.1385,66.2943 43.4065,66.4283 43.5555,66.6623 L44.1685,67.6223 L45.7905,67.6513 C46.0445,67.6553 46.2795,67.7883 46.4135,68.0043 L46.8075,68.6373 L47.6205,66.0843 C47.7185,65.7763 48.0035,65.5653 48.3265,65.5613 C48.6485,65.5563 48.9385,65.7613 49.0445,66.0663 L49.6145,67.7183 L51.5395,67.7513 C51.9535,67.7583 52.2835,68.1003 52.2755,68.5143 C52.2685,68.9293 51.9265,69.2583 51.5125,69.2513 L49.0635,69.2083 C48.7485,69.2033 48.4705,69.0013 48.3685,68.7033 L48.3645,68.6933 L47.7455,70.6403 C47.6565,70.9183 47.4145,71.1203 47.1235,71.1563 C47.0925,71.1603 47.0605,71.1623 47.0305,71.1623" id="Fill-104" fill="#D5E5E6" mask="url(#mask-4)"></path>
                <path d="M39.133,72.1359 L50.709,72.3379 L50.843,64.6389 L39.268,64.4369 L39.133,72.1359 Z M51.446,73.8509 L51.433,73.8509 L38.357,73.6219 C37.943,73.6149 37.612,73.2739 37.62,72.8599 L37.78,63.6609 C37.784,63.4619 37.866,63.2729 38.01,63.1349 C38.153,62.9959 38.344,62.9199 38.543,62.9239 L51.619,63.1529 C52.033,63.1589 52.363,63.5009 52.357,63.9149 L52.196,73.1139 C52.193,73.3129 52.11,73.5019 51.967,73.6399 C51.827,73.7759 51.64,73.8509 51.446,73.8509 L51.446,73.8509 Z" id="Fill-105" fill="#354546" mask="url(#mask-4)"></path>
                <path d="M58.424,65.7966 C58.407,66.7766 57.599,67.5576 56.618,67.5406 C55.639,67.5236 54.858,66.7146 54.875,65.7346 C54.892,64.7546 55.7,63.9736 56.681,63.9906 C57.66,64.0076 58.442,64.8166 58.424,65.7966" id="Fill-106" fill="#F85C4C" mask="url(#mask-4)"></path>
                <path d="M56.6496,64.7404 C56.3816,64.7404 56.1296,64.8424 55.9376,65.0284 C55.7406,65.2184 55.6296,65.4734 55.6256,65.7474 C55.6206,66.0214 55.7216,66.2804 55.9126,66.4774 C56.1026,66.6744 56.3576,66.7854 56.6316,66.7904 C56.9046,66.7934 57.1646,66.6934 57.3616,66.5024 C57.5586,66.3124 57.6706,66.0564 57.6746,65.7834 C57.6786,65.5094 57.5776,65.2504 57.3866,65.0534 C57.1966,64.8564 56.9416,64.7454 56.6676,64.7404 L56.6496,64.7404 Z M56.6506,68.2904 L56.6056,68.2904 C55.9306,68.2784 55.3016,68.0044 54.8336,67.5194 C54.3646,67.0344 54.1136,66.3954 54.1256,65.7214 C54.1366,65.0474 54.4106,64.4174 54.8956,63.9484 C55.3806,63.4804 56.0206,63.2294 56.6936,63.2404 C57.3686,63.2524 57.9976,63.5264 58.4656,64.0114 C58.9346,64.4964 59.1856,65.1354 59.1736,65.8094 C59.1626,66.4834 58.8886,67.1134 58.4036,67.5814 C57.9296,68.0394 57.3086,68.2904 56.6506,68.2904 L56.6506,68.2904 Z" id="Fill-107" fill="#C72C1C" mask="url(#mask-4)"></path>
                <path d="M58.3254,71.4455 C58.3084,72.4255 57.5004,73.2065 56.5194,73.1895 C55.5404,73.1725 54.7594,72.3635 54.7764,71.3835 C54.7934,70.4035 55.6014,69.6225 56.5824,69.6395 C57.5624,69.6565 58.3434,70.4655 58.3254,71.4455" id="Fill-108" fill="#B9D96D" mask="url(#mask-4)"></path>
                <path d="M58.3254,71.4455 L58.3274,71.4455 L58.3254,71.4455 Z M56.5514,70.3895 C56.2834,70.3895 56.0314,70.4915 55.8394,70.6775 C55.6414,70.8675 55.5314,71.1225 55.5264,71.3965 C55.5214,71.6705 55.6234,71.9295 55.8134,72.1265 C56.0044,72.3235 56.2594,72.4345 56.5334,72.4395 C57.1024,72.4485 57.5654,71.9975 57.5764,71.4325 C57.5864,70.8675 57.1344,70.3995 56.5684,70.3895 L56.5514,70.3895 L56.5514,70.3895 Z M56.5524,73.9395 L56.5074,73.9395 C55.1144,73.9145 54.0024,72.7625 54.0264,71.3705 C54.0384,70.6955 54.3114,70.0665 54.7974,69.5985 C55.2824,69.1295 55.9184,68.8745 56.5954,68.8895 C57.9874,68.9145 59.0994,70.0665 59.0754,71.4585 C59.0524,72.8355 57.9244,73.9395 56.5524,73.9395 L56.5524,73.9395 Z" id="Fill-109" fill="#719911" mask="url(#mask-4)"></path>
                <path d="M38.1828,62.5456 C37.8218,62.5456 37.5038,62.2846 37.4438,61.9176 L37.0388,59.4646 C36.9718,59.0556 37.2488,58.6706 37.6578,58.6026 C38.0668,58.5346 38.4528,58.8126 38.5198,59.2206 L38.9228,61.6736 C38.9908,62.0826 38.7138,62.4676 38.3048,62.5356 C38.2638,62.5426 38.2228,62.5456 38.1828,62.5456" id="Fill-110" fill="#354546" mask="url(#mask-4)"></path>
                <path d="M41.1428,62.0583 C40.7828,62.0583 40.4638,61.7973 40.4038,61.4303 L39.9998,58.9773 C39.9328,58.5683 40.2088,58.1823 40.6178,58.1153 C41.0268,58.0473 41.4128,58.3253 41.4798,58.7333 L41.8838,61.1863 C41.9518,61.5953 41.6738,61.9803 41.2658,62.0483 C41.2238,62.0553 41.1828,62.0583 41.1428,62.0583" id="Fill-111" fill="#354546" mask="url(#mask-4)"></path>
                <path d="M58.4865,62.5456 C58.4465,62.5456 58.4055,62.5426 58.3645,62.5356 C57.9555,62.4676 57.6785,62.0826 57.7465,61.6736 L58.1495,59.2206 C58.2165,58.8126 58.6025,58.5356 59.0115,58.6026 C59.4205,58.6706 59.6975,59.0556 59.6305,59.4646 L59.2255,61.9176 C59.1655,62.2846 58.8475,62.5456 58.4865,62.5456" id="Fill-112" fill="#354546" mask="url(#mask-4)"></path>
                <path d="M55.5266,62.0583 C55.4866,62.0583 55.4456,62.0553 55.4036,62.0483 C54.9956,61.9803 54.7176,61.5953 54.7856,61.1863 L55.1896,58.7333 C55.2566,58.3253 55.6416,58.0473 56.0516,58.1153 C56.4606,58.1823 56.7376,58.5683 56.6706,58.9773 L56.2656,61.4303 C56.2056,61.7973 55.8866,62.0583 55.5266,62.0583" id="Fill-113" fill="#354546" mask="url(#mask-4)"></path>
                <polygon id="Fill-114" fill="#A5B5B6" mask="url(#mask-4)" points="35.241 107.86 39.928 107.86 39.928 98.86 35.241 98.86"></polygon>
                <polygon id="Fill-115" fill="#C5D5D6" mask="url(#mask-4)" points="35.241 102.436 39.928 102.436 39.928 98.86 35.241 98.86"></polygon>
                <path d="M35.99,107.11 L39.178,107.11 L39.178,99.61 L35.99,99.61 L35.99,107.11 Z M39.928,108.61 L35.24,108.61 C34.826,108.61 34.49,108.274 34.49,107.86 L34.49,98.86 C34.49,98.445 34.826,98.11 35.24,98.11 L39.928,98.11 C40.342,98.11 40.678,98.445 40.678,98.86 L40.678,107.86 C40.678,108.274 40.342,108.61 39.928,108.61 L39.928,108.61 Z" id="Fill-116" fill="#354546" mask="url(#mask-4)"></path>
                <polygon id="Fill-117" fill="#A5B5B6" mask="url(#mask-4)" points="32.061 106.097 35.247 106.097 35.247 90.197 32.061 90.197"></polygon>
                <path d="M32.812,105.347 L34.498,105.347 L34.498,90.947 L32.812,90.947 L32.812,105.347 Z M35.247,106.847 L32.062,106.847 C31.648,106.847 31.312,106.511 31.312,106.097 L31.312,90.197 C31.312,89.783 31.648,89.447 32.062,89.447 L35.247,89.447 C35.661,89.447 35.997,89.783 35.997,90.197 L35.997,106.097 C35.997,106.511 35.661,106.847 35.247,106.847 L35.247,106.847 Z" id="Fill-118" fill="#354546" mask="url(#mask-4)"></path>
                <path d="M33.7209,84.6843 L33.5879,84.6843 C31.9379,84.6843 30.5879,86.0343 30.5879,87.6843 L30.5879,94.8093 L36.7209,94.8093 L36.7209,87.6843 C36.7209,86.0343 35.3699,84.6843 33.7209,84.6843" id="Fill-119" fill="#A5B5B6" mask="url(#mask-4)"></path>
                <path d="M33.7209,84.6843 L33.5879,84.6843 C31.9379,84.6843 30.5879,86.0343 30.5879,87.6843 L30.5879,90.4223 C30.5879,88.7723 31.9379,87.4223 33.5879,87.4223 L33.7209,87.4223 C35.3699,87.4223 36.7209,88.7723 36.7209,90.4223 L36.7209,87.6843 C36.7209,86.0343 35.3699,84.6843 33.7209,84.6843" id="Fill-120" fill="#C5D5D6" mask="url(#mask-4)"></path>
                <path d="M31.3381,94.0593 L35.9711,94.0593 L35.9711,87.6843 C35.9711,86.4443 34.9611,85.4343 33.7211,85.4343 L33.5881,85.4343 C32.3481,85.4343 31.3381,86.4443 31.3381,87.6843 L31.3381,94.0593 Z M36.7211,95.5593 L30.5881,95.5593 C30.1741,95.5593 29.8381,95.2243 29.8381,94.8093 L29.8381,87.6843 C29.8381,85.6173 31.5211,83.9343 33.5881,83.9343 L33.7211,83.9343 C35.7881,83.9343 37.4711,85.6173 37.4711,87.6843 L37.4711,94.8093 C37.4711,95.2243 37.1351,95.5593 36.7211,95.5593 L36.7211,95.5593 Z" id="Fill-121" fill="#354546" mask="url(#mask-4)"></path>
                <polygon id="Fill-122" fill="#A5B5B6" mask="url(#mask-4)" points="56.365 107.86 61.052 107.86 61.052 98.86 56.365 98.86"></polygon>
                <polygon id="Fill-123" fill="#C5D5D6" mask="url(#mask-4)" points="56.365 102.436 61.052 102.436 61.052 98.86 56.365 98.86"></polygon>
                <path d="M57.115,107.11 L60.303,107.11 L60.303,99.61 L57.115,99.61 L57.115,107.11 Z M61.053,108.61 L56.365,108.61 C55.951,108.61 55.615,108.274 55.615,107.86 L55.615,98.86 C55.615,98.445 55.951,98.11 56.365,98.11 L61.053,98.11 C61.467,98.11 61.803,98.445 61.803,98.86 L61.803,107.86 C61.803,108.274 61.467,108.61 61.053,108.61 L61.053,108.61 Z" id="Fill-124" fill="#354546" mask="url(#mask-4)"></path>
                <polygon id="Fill-125" fill="#A5B5B6" mask="url(#mask-4)" points="61.047 106.097 64.232 106.097 64.232 90.197 61.047 90.197"></polygon>
                <path d="M61.797,105.347 L63.482,105.347 L63.482,90.947 L61.797,90.947 L61.797,105.347 Z M64.232,106.847 L61.047,106.847 C60.633,106.847 60.297,106.511 60.297,106.097 L60.297,90.197 C60.297,89.783 60.633,89.447 61.047,89.447 L64.232,89.447 C64.646,89.447 64.982,89.783 64.982,90.197 L64.982,106.097 C64.982,106.511 64.646,106.847 64.232,106.847 L64.232,106.847 Z" id="Fill-126" fill="#354546" mask="url(#mask-4)"></path>
                <path d="M62.5734,84.6843 L62.7054,84.6843 C64.3554,84.6843 65.7054,86.0343 65.7054,87.6843 L65.7054,94.8093 L59.5734,94.8093 L59.5734,87.6843 C59.5734,86.0343 60.9234,84.6843 62.5734,84.6843" id="Fill-127" fill="#A5B5B6" mask="url(#mask-4)"></path>
                <path d="M62.5734,84.6843 L62.7054,84.6843 C64.3554,84.6843 65.7054,86.0343 65.7054,87.6843 L65.7054,90.4223 C65.7054,88.7723 64.3554,87.4223 62.7054,87.4223 L62.5734,87.4223 C60.9234,87.4223 59.5734,88.7723 59.5734,90.4223 L59.5734,87.6843 C59.5734,86.0343 60.9234,84.6843 62.5734,84.6843" id="Fill-128" fill="#C5D5D6" mask="url(#mask-4)"></path>
                <path d="M60.3234,94.0593 L64.9554,94.0593 L64.9554,87.6843 C64.9554,86.4443 63.9464,85.4343 62.7054,85.4343 L62.5734,85.4343 C61.3324,85.4343 60.3234,86.4443 60.3234,87.6843 L60.3234,94.0593 Z M65.7054,95.5593 L59.5734,95.5593 C59.1594,95.5593 58.8234,95.2243 58.8234,94.8093 L58.8234,87.6843 C58.8234,85.6173 60.5054,83.9343 62.5734,83.9343 L62.7054,83.9343 C64.7734,83.9343 66.4554,85.6173 66.4554,87.6843 L66.4554,94.8093 C66.4554,95.2243 66.1194,95.5593 65.7054,95.5593 L65.7054,95.5593 Z" id="Fill-129" fill="#354546" mask="url(#mask-4)"></path>
                <path d="M56.2277,115.3596 C56.2277,117.0096 54.8777,118.3596 53.2277,118.3596 L42.9277,118.3596 C41.2777,118.3596 39.9277,117.0096 39.9277,115.3596 L39.9277,91.3596 C39.9277,89.7096 41.2777,88.3596 42.9277,88.3596 L53.2277,88.3596 C54.8777,88.3596 56.2277,89.7096 56.2277,91.3596 L56.2277,115.3596 Z" id="Fill-130" fill="#6D6D6D" mask="url(#mask-4)"></path>
                <path d="M53.2277,113.7844 L42.9277,113.7844 C41.5877,113.7844 40.3467,112.8944 39.9277,111.6764 L39.9277,115.3594 C39.9277,117.0094 41.2777,118.3594 42.9277,118.3594 L53.2277,118.3594 C54.8777,118.3594 56.2277,117.0094 56.2277,115.3594 L56.2277,111.6764 C55.8087,112.8944 54.5677,113.7844 53.2277,113.7844" id="Fill-131" fill="#5B5B5B" mask="url(#mask-4)"></path>
                <polygon id="Fill-132" fill="#929292" mask="url(#mask-4)" points="56.1379 101.4098 39.9279 100.0588 40.0189 96.0098 56.1379 96.0098"></polygon>
                <polygon id="Fill-133" fill="#929292" mask="url(#mask-4)" points="56.1379 104.5593 40.0189 105.6633 40.0189 102.9633 56.1379 102.9633"></polygon>
                <path d="M42.9279,89.1095 C41.6879,89.1095 40.6779,90.1185 40.6779,91.3595 L40.6779,115.3595 C40.6779,116.6005 41.6879,117.6095 42.9279,117.6095 L53.2279,117.6095 C54.4689,117.6095 55.4779,116.6005 55.4779,115.3595 L55.4779,91.3595 C55.4779,90.1185 54.4689,89.1095 53.2279,89.1095 L42.9279,89.1095 Z M53.2279,119.1095 L42.9279,119.1095 C40.8609,119.1095 39.1779,117.4275 39.1779,115.3595 L39.1779,91.3595 C39.1779,89.2915 40.8609,87.6095 42.9279,87.6095 L53.2279,87.6095 C55.2959,87.6095 56.9779,89.2915 56.9779,91.3595 L56.9779,115.3595 C56.9779,117.4275 55.2959,119.1095 53.2279,119.1095 L53.2279,119.1095 Z" id="Fill-134" fill="#121212" mask="url(#mask-4)"></path>
                <path d="M56.2648,84.6843 L39.8908,84.6843 C38.1098,84.6843 36.6518,86.0343 36.6518,87.6843 L36.6518,92.0343 L59.5038,92.0343 L59.5038,87.6843 C59.5038,86.0343 58.0458,84.6843 56.2648,84.6843" id="Fill-135" fill="#A5B5B6" mask="url(#mask-4)"></path>
                <path d="M56.2648,84.6843 L39.8908,84.6843 C38.1098,84.6843 36.6518,86.0343 36.6518,87.6843 L59.5038,87.6843 C59.5038,86.0343 58.0458,84.6843 56.2648,84.6843" id="Fill-136" fill="#C5D5D6" mask="url(#mask-4)"></path>
                <path d="M37.4016,91.2844 L58.7546,91.2844 L58.7546,87.6844 C58.7546,86.4444 57.6376,85.4344 56.2646,85.4344 L39.8906,85.4344 C38.5186,85.4344 37.4016,86.4444 37.4016,87.6844 L37.4016,91.2844 Z M59.5046,92.7844 L36.6516,92.7844 C36.2376,92.7844 35.9016,92.4494 35.9016,92.0344 L35.9016,87.6844 C35.9016,85.6174 37.6916,83.9344 39.8906,83.9344 L56.2646,83.9344 C58.4646,83.9344 60.2546,85.6174 60.2546,87.6844 L60.2546,92.0344 C60.2546,92.4494 59.9186,92.7844 59.5046,92.7844 L59.5046,92.7844 Z" id="Fill-137" fill="#354546" mask="url(#mask-4)"></path>
                <path d="M43.5783,86.8654 C43.1633,86.8654 42.8283,86.5294 42.8283,86.1154 L42.8283,83.6294 C42.8283,83.2154 43.1633,82.8794 43.5783,82.8794 C43.9923,82.8794 44.3283,83.2154 44.3283,83.6294 L44.3283,86.1154 C44.3283,86.5294 43.9923,86.8654 43.5783,86.8654" id="Fill-138" fill="#354546" mask="url(#mask-4)"></path>
                <path d="M46.5783,86.8654 C46.1633,86.8654 45.8283,86.5294 45.8283,86.1154 L45.8283,83.6294 C45.8283,83.2154 46.1633,82.8794 46.5783,82.8794 C46.9923,82.8794 47.3283,83.2154 47.3283,83.6294 L47.3283,86.1154 C47.3283,86.5294 46.9923,86.8654 46.5783,86.8654" id="Fill-139" fill="#354546" mask="url(#mask-4)"></path>
                <path d="M49.5783,86.8654 C49.1633,86.8654 48.8283,86.5294 48.8283,86.1154 L48.8283,83.6294 C48.8283,83.2154 49.1633,82.8794 49.5783,82.8794 C49.9923,82.8794 50.3283,83.2154 50.3283,83.6294 L50.3283,86.1154 C50.3283,86.5294 49.9923,86.8654 49.5783,86.8654" id="Fill-140" fill="#354546" mask="url(#mask-4)"></path>
                <path d="M52.5783,86.8654 C52.1633,86.8654 51.8283,86.5294 51.8283,86.1154 L51.8283,83.6294 C51.8283,83.2154 52.1633,82.8794 52.5783,82.8794 C52.9923,82.8794 53.3283,83.2154 53.3283,83.6294 L53.3283,86.1154 C53.3283,86.5294 52.9923,86.8654 52.5783,86.8654" id="Fill-141" fill="#354546" mask="url(#mask-4)"></path>
                <path d="M70.4289,21.1115 L70.3969,21.1115 C69.9839,21.0935 69.6619,20.7435 69.6799,20.3295 L70.1089,10.2075 C70.1749,8.4185 69.5329,6.7005 68.3029,5.3755 C67.0719,4.0495 65.4059,3.2835 63.6129,3.2175 C63.6059,3.2165 63.5979,3.2165 63.5909,3.2165 L37.5319,1.5035 C35.7419,1.4395 34.0279,2.0815 32.7049,3.3105 C31.3799,4.5415 30.6139,6.2065 30.5469,8.0005 L30.1169,18.8745 C30.1009,19.2875 29.7519,19.6085 29.3379,19.5935 C28.9249,19.5775 28.6029,19.2285 28.6179,18.8155 L29.0479,7.9435 C29.1289,5.7515 30.0659,3.7155 31.6849,2.2115 C33.3029,0.7075 35.4039,-0.0745 37.5969,0.0055 C37.6039,0.0055 37.6119,0.0065 37.6179,0.0065 L63.6789,1.7185 C65.8679,1.8025 67.9009,2.7385 69.4019,4.3545 C70.9059,5.9735 71.6889,8.0735 71.6079,10.2675 L71.1779,20.3935 C71.1609,20.7965 70.8289,21.1115 70.4289,21.1115" id="Fill-142" fill="#354546" mask="url(#mask-4)"></path>
                <path d="M25.0852,19.7629 C23.7912,19.7149 22.6832,21.0249 22.6222,22.6739 L22.2472,32.8079 C22.1872,34.4569 23.1952,35.8449 24.4892,35.8929 C25.7832,35.9409 26.8412,35.9799 26.8412,35.9799 L27.4382,19.8499 C27.4382,19.8499 26.3792,19.8109 25.0852,19.7629" id="Fill-143" fill="#A5B5B6" mask="url(#mask-4)"></path>
                <path d="M22.6223,22.674 L22.4383,27.634 L27.1433,27.808 L27.4373,19.85 C27.4373,19.85 26.3793,19.811 25.0853,19.763 C23.7913,19.715 22.6833,21.025 22.6223,22.674" id="Fill-144" fill="#C5D5D6" mask="url(#mask-4)"></path>
                <path d="M26.8137,36.7292 L24.4607,36.6422 C23.6137,36.6112 22.8087,36.1552 22.2537,35.3922 C21.7307,34.6722 21.4627,33.7452 21.4987,32.7802 L21.8727,22.6462 C21.9087,21.6822 22.2447,20.7772 22.8187,20.0982 C23.4277,19.3772 24.2647,18.9792 25.1127,19.0132 L27.4647,19.1002 L27.4097,20.5992 L25.0577,20.5122 C24.6677,20.4962 24.2787,20.6952 23.9637,21.0662 C23.6107,21.4842 23.3947,22.0802 23.3717,22.7022 L22.9977,32.8352 C22.9737,33.4572 23.1457,34.0672 23.4667,34.5102 C23.7527,34.9042 24.1257,35.1282 24.5167,35.1432 L26.8697,35.2302 L26.8137,36.7292 Z" id="Fill-145" fill="#354546" mask="url(#mask-4)"></path>
                <polygon id="Fill-146" fill="#859596" mask="url(#mask-4)" points="31.1574 38.5383 26.7534 38.3753 27.4764 18.7743 31.8814 18.9373"></polygon>
                <polygon id="Fill-147" fill="#A5B5B6" mask="url(#mask-4)" points="31.467 30.152 27.063 29.989 27.477 18.775 31.881 18.937"></polygon>
                <path d="M27.5305,37.654 L30.4355,37.761 L31.1035,19.659 L28.1985,19.552 L27.5305,37.654 Z M31.1575,39.288 L31.1295,39.288 L26.7245,39.125 C26.3105,39.11 25.9885,38.762 26.0035,38.348 L26.7275,18.747 C26.7425,18.333 27.0925,18.008 27.5055,18.025 L31.9095,18.188 C32.1075,18.195 32.2955,18.281 32.4305,18.427 C32.5665,18.573 32.6375,18.766 32.6315,18.965 L31.9065,38.566 C31.8995,38.765 31.8135,38.953 31.6675,39.088 C31.5285,39.217 31.3455,39.288 31.1575,39.288 L31.1575,39.288 Z" id="Fill-148" fill="#354546" mask="url(#mask-4)"></path>
                <path d="M22.4387,28.384 L22.4377,28.384 L20.6357,28.38 C20.2217,28.38 19.8867,28.043 19.8877,27.629 C19.8887,27.215 20.2237,26.88 20.6377,26.88 L20.6387,26.88 L22.4407,26.884 C22.8547,26.884 23.1897,27.221 23.1887,27.635 C23.1877,28.049 22.8527,28.384 22.4387,28.384" id="Fill-149" fill="#354546" mask="url(#mask-4)"></path>
                <path d="M77.5129,10.5544 C77.4279,10.5544 77.3399,10.5444 77.2529,10.5214 C76.6919,10.3784 76.3519,9.8074 76.4949,9.2454 L77.2719,6.1964 C77.4149,5.6354 77.9859,5.2954 78.5479,5.4384 C79.1109,5.5814 79.4499,6.1534 79.3069,6.7154 L78.5309,9.7634 C78.4089,10.2384 77.9819,10.5544 77.5129,10.5544" id="Fill-150" fill="#354546" mask="url(#mask-4)"></path>
                <path d="M74.4348,22.3366 C74.3728,22.3366 74.3118,22.3286 74.2488,22.3136 C73.8478,22.2106 73.6058,21.8026 73.7068,21.4006 L76.7858,9.3186 C76.8878,8.9176 77.2958,8.6746 77.6978,8.7776 C78.0988,8.8796 78.3418,9.2886 78.2398,9.6896 L75.1618,21.7716 C75.0748,22.1106 74.7698,22.3366 74.4348,22.3366" id="Fill-151" fill="#354546" mask="url(#mask-4)"></path>
                <path d="M74.4348,21.5861 C75.7278,21.6341 76.7368,23.0221 76.6758,24.6711 L76.3018,34.8051 C76.2408,36.4541 75.1318,37.7641 73.8378,37.7161 C72.5448,37.6681 71.4868,37.6291 71.4868,37.6291 L72.0818,21.4991 C72.0818,21.4991 73.1408,21.5381 74.4348,21.5861" id="Fill-152" fill="#A5B5B6" mask="url(#mask-4)"></path>
                <path d="M76.676,24.6711 L76.492,29.6311 L71.788,29.4571 L72.082,21.4991 C72.082,21.4991 73.141,21.5381 74.435,21.5861 C75.728,21.6341 76.737,23.0221 76.676,24.6711" id="Fill-153" fill="#C5D5D6" mask="url(#mask-4)"></path>
                <path d="M73.9045,38.467 C73.8735,38.467 73.8425,38.467 73.8105,38.466 L71.4585,38.379 L71.5135,36.88 L73.8665,36.967 C74.2545,36.981 74.6445,36.784 74.9605,36.412 C75.3135,35.994 75.5295,35.399 75.5515,34.777 L75.9255,24.643 C75.9495,24.022 75.7785,23.412 75.4565,22.969 C75.1705,22.575 74.7975,22.35 74.4065,22.336 L72.0545,22.249 L72.1095,20.75 L74.4625,20.837 C75.3105,20.868 76.1155,21.324 76.6705,22.088 C77.1925,22.807 77.4615,23.734 77.4255,24.699 L77.0505,34.833 C77.0155,35.797 76.6795,36.702 76.1045,37.381 C75.5175,38.075 74.7205,38.467 73.9045,38.467" id="Fill-154" fill="#354546" mask="url(#mask-4)"></path>
                <polygon id="Fill-155" fill="#859596" mask="url(#mask-4)" points="66.9934 39.8625 71.3974 40.0255 72.1224 20.4245 67.7184 20.2615"></polygon>
                <polygon id="Fill-156" fill="#A5B5B6" mask="url(#mask-4)" points="67.3039 31.4758 71.7069 31.6388 72.1219 20.4238 67.7179 20.2618"></polygon>
                <path d="M67.7707,39.1408 L70.6757,39.2478 L71.3447,21.1458 L68.4397,21.0378 L67.7707,39.1408 Z M71.3987,40.7748 L71.3707,40.7748 L66.9657,40.6118 C66.7667,40.6048 66.5797,40.5188 66.4447,40.3728 C66.3087,40.2268 66.2367,40.0338 66.2447,39.8348 L66.9677,20.2338 C66.9757,20.0348 67.0617,19.8468 67.2077,19.7118 C67.3527,19.5768 67.5467,19.5038 67.7457,19.5118 L72.1497,19.6748 C72.5637,19.6898 72.8867,20.0378 72.8717,20.4518 L72.1477,40.0528 C72.1317,40.4568 71.7997,40.7748 71.3987,40.7748 L71.3987,40.7748 Z" id="Fill-157" fill="#354546" mask="url(#mask-4)"></path>
                <path d="M78.2903,30.5104 C78.2713,30.5104 78.2543,30.5094 78.2353,30.5084 L76.4383,30.3794 C76.0253,30.3494 75.7153,29.9904 75.7443,29.5774 C75.7743,29.1634 76.1343,28.8544 76.5463,28.8834 L78.3433,29.0124 C78.7563,29.0424 79.0663,29.4014 79.0373,29.8144 C79.0093,30.2084 78.6803,30.5104 78.2903,30.5104" id="Fill-158" fill="#354546" mask="url(#mask-4)"></path>
                <path d="M31.0891,44.676 C30.0631,44.676 27.4541,45.79 26.3491,47.051 C25.4091,48.12 25.2591,49.906 26.0201,50.95 C26.3311,51.378 26.7411,51.614 27.2051,51.635 C27.7351,51.657 28.2941,51.385 28.7351,50.884 C29.2671,50.277 30.1811,48.896 30.8241,47.534 C31.6571,45.773 31.6251,44.962 31.4911,44.779 C31.4511,44.723 31.3221,44.685 31.1471,44.677 C31.1281,44.676 31.1091,44.676 31.0891,44.676 M27.2701,53.137 C27.2261,53.137 27.1821,53.136 27.1381,53.134 C26.2151,53.092 25.3881,52.63 24.8081,51.834 C23.6241,50.21 23.8061,47.674 25.2211,46.061 C26.2681,44.868 29.3161,43.093 31.2151,43.179 C32.0411,43.216 32.4811,43.589 32.7041,43.896 C33.3171,44.736 33.1451,46.135 32.1811,48.176 C31.4711,49.677 30.4771,51.172 29.8611,51.873 C29.1521,52.681 28.2151,53.137 27.2701,53.137" id="Fill-159" fill="#19B5FE" mask="url(#mask-4)"></path>
                <path d="M65.5188,42.8981 C65.0608,42.8981 64.7068,42.9731 64.5398,43.1491 C64.4148,43.2811 64.4208,43.5421 64.4488,43.7371 C64.6218,44.9751 65.9628,46.7281 66.7148,47.1721 C67.6738,47.7391 69.2358,47.4281 70.1238,46.4931 C70.5498,46.0441 70.7568,45.5181 70.6918,45.0491 C70.6398,44.6741 70.4178,44.3621 70.0528,44.1461 C68.9878,43.5161 66.8288,42.8981 65.5188,42.8981 M67.8608,48.9591 C67.1798,48.9591 66.5178,48.7981 65.9518,48.4631 C64.7878,47.7741 63.1948,45.6051 62.9628,43.9441 C62.8308,42.9981 63.1568,42.4281 63.4528,42.1161 C65.0788,40.4051 69.7658,42.2331 70.8168,42.8551 C71.5788,43.3051 72.0618,44.0111 72.1768,44.8421 C72.3058,45.7661 71.9548,46.7451 71.2108,47.5261 C70.3298,48.4551 69.0668,48.9591 67.8608,48.9591" id="Fill-160" fill="#19B5FE" mask="url(#mask-4)"></path>
                <path d="M24.7209,41.7385 C24.3089,41.7385 23.9549,41.7705 23.6949,41.8345 C22.0749,42.2325 20.9979,44.0835 21.2929,45.9605 C21.4429,46.9115 21.9349,47.7275 22.6429,48.1985 C23.2339,48.5925 23.9349,48.7165 24.6189,48.5485 C25.5159,48.3275 27.2339,47.5815 28.6499,46.6325 C30.1199,45.6465 30.9389,44.6725 30.8359,44.0255 C30.7769,43.6415 30.3749,43.3025 30.0489,43.0865 C28.7209,42.2025 26.2959,41.7385 24.7209,41.7385 M24.0159,50.1215 C23.2409,50.1215 22.4809,49.8925 21.8119,49.4475 C20.7549,48.7445 20.0259,47.5585 19.8119,46.1935 C19.3989,43.5655 20.9799,40.9565 23.3359,40.3775 C25.0949,39.9455 28.9209,40.5335 30.8799,41.8375 C31.7179,42.3945 32.2019,43.0525 32.3189,43.7935 C32.7839,46.7595 26.9079,49.5305 24.9769,50.0045 C24.6579,50.0835 24.3349,50.1215 24.0159,50.1215" id="Fill-161" fill="#719911" mask="url(#mask-4)"></path>
                <path d="M66.6428,47.3093 C66.4908,51.4323 62.9908,54.7903 58.8658,54.7733 L37.2468,54.6833 C33.1218,54.6663 30.0088,51.2873 30.3298,47.1753 L32.7168,13.3283 C33.0378,9.2163 36.6628,6.1353 40.7738,6.4823 L60.5418,8.1533 C64.6528,8.5003 67.8908,12.1573 67.7388,16.2793 L66.6428,47.3093 Z" id="Fill-162" fill="#A5B5B6" mask="url(#mask-4)"></path>
                <path d="M63.217,41.0153 C63.105,44.0473 60.302,46.5083 56.988,46.4853 L39.616,46.3653 C36.303,46.3423 33.793,43.8493 34.04,40.8253 L35.877,16.9293 C36.125,13.9053 39.03,11.6493 42.333,11.9143 L58.221,13.1933 C61.525,13.4593 64.136,16.1573 64.024,19.1883 L63.217,41.0153 Z" id="Fill-163" fill="#C5D5D6" mask="url(#mask-4)"></path>
                <path d="M60.4397,51.4343 L36.9457,51.2753 C34.0307,51.2553 31.5777,49.8143 30.3097,47.6783 C30.2687,51.5593 33.2917,54.6663 37.2467,54.6833 L58.8657,54.7733 C62.3247,54.7873 65.3427,52.4273 66.3177,49.2343 C64.7867,50.6043 62.7017,51.4503 60.4397,51.4343" id="Fill-164" fill="#859596" mask="url(#mask-4)"></path>
                <path d="M60.5002,52.1847 L60.4342,52.1847 L36.9402,52.0257 C33.8452,52.0047 31.1252,50.5227 29.6642,48.0607 C29.4532,47.7047 29.5702,47.2447 29.9272,47.0337 C30.2822,46.8217 30.7432,46.9387 30.9542,47.2957 C32.1442,49.3007 34.3862,50.5077 36.9502,50.5257 L60.4442,50.6847 C62.4412,50.7017 64.3542,49.9847 65.8172,48.6747 C66.1262,48.3987 66.6002,48.4247 66.8762,48.7337 C67.1522,49.0427 67.1262,49.5167 66.8172,49.7927 C65.0922,51.3367 62.8512,52.1847 60.5002,52.1847" id="Fill-165" fill="#354546" mask="url(#mask-4)"></path>
                <path d="M66.6428,47.3093 L66.6438,47.3093 L66.6428,47.3093 Z M40.1378,7.2053 C38.5538,7.2053 37.0358,7.7633 35.8098,8.8043 C34.4378,9.9713 33.6048,11.5983 33.4648,13.3873 L31.0778,47.2273 C30.9388,49.0123 31.5048,50.6893 32.6718,51.9563 C33.8398,53.2243 35.4648,53.9263 37.2488,53.9333 L58.8688,54.0233 L58.8978,54.0233 C62.6208,54.0233 65.7548,51.0053 65.8928,47.2823 L66.9898,16.2533 C67.1268,12.5133 64.2068,9.2153 60.4798,8.9003 L40.7108,7.2303 C40.5198,7.2133 40.3288,7.2053 40.1378,7.2053 L40.1378,7.2053 Z M58.8978,55.5233 L58.8628,55.5233 L37.2438,55.4333 C35.0378,55.4243 33.0218,54.5503 31.5688,52.9733 C30.1168,51.3953 29.4108,49.3153 29.5818,47.1163 L31.9688,13.2753 C32.1398,11.0803 33.1598,9.0883 34.8388,7.6613 C36.5188,6.2343 38.6488,5.5503 40.8368,5.7353 L60.6058,7.4063 C65.1198,7.7873 68.6558,11.7803 68.4888,16.3073 L67.3918,47.3363 L67.3918,47.3373 C67.2248,51.8583 63.4168,55.5233 58.8978,55.5233 L58.8978,55.5233 Z" id="Fill-166" fill="#354546" mask="url(#mask-4)"></path>
                <path d="M50.1154,16.2951 C46.0084,16.2951 41.1114,15.0341 41.1114,9.0241 C41.1114,8.0801 41.2334,7.4541 41.4734,6.5611 C41.5814,6.1611 41.9924,5.9241 42.3924,6.0311 C42.7924,6.1391 43.0294,6.5501 42.9224,6.9501 C42.7074,7.7491 42.6114,8.2381 42.6114,9.0241 C42.6114,10.4511 42.6114,14.7951 50.1154,14.7951 C57.6524,14.7951 57.6524,10.4511 57.6524,9.0241 C57.6524,8.7051 57.6364,8.3851 57.6034,8.0711 C57.5604,7.6591 57.8604,7.2911 58.2724,7.2481 C58.6854,7.2051 59.0534,7.5051 59.0954,7.9171 C59.1334,8.2821 59.1524,8.6541 59.1524,9.0241 C59.1524,12.3411 57.5844,16.2951 50.1154,16.2951" id="Fill-167" fill="#354546" mask="url(#mask-4)"></path>
                <path d="M45.3332,25.9421 C45.1682,30.4121 41.4102,33.9021 36.9392,33.7371 C32.4692,33.5721 28.9792,29.8151 29.1452,25.3441 C29.3102,20.8741 33.0672,17.3831 37.5382,17.5481 C42.0082,17.7131 45.4982,21.4711 45.3332,25.9421" id="Fill-168" fill="#C5D5D6" mask="url(#mask-4)"></path>
                <path d="M37.2316,18.2927 C35.3716,18.2927 33.6076,18.9847 32.2376,20.2577 C30.7976,21.5937 29.9656,23.4097 29.8936,25.3717 C29.8216,27.3337 30.5166,29.2067 31.8526,30.6447 C33.1896,32.0837 35.0046,32.9157 36.9666,32.9877 C38.9286,33.0617 40.8016,32.3647 42.2406,31.0287 C43.6786,29.6927 44.5106,27.8757 44.5846,25.9147 C44.6566,23.9527 43.9606,22.0797 42.6246,20.6417 C41.2886,19.2027 39.4716,18.3707 37.5096,18.2977 C37.4176,18.2947 37.3246,18.2927 37.2316,18.2927 M37.2476,34.4937 C37.1356,34.4937 37.0236,34.4907 36.9126,34.4867 C34.5496,34.3997 32.3626,33.3977 30.7536,31.6657 C29.1456,29.9337 28.3076,27.6787 28.3946,25.3157 C28.4826,22.9537 29.4836,20.7677 31.2156,19.1587 C32.9486,17.5497 35.2036,16.7117 37.5656,16.7987 C39.9276,16.8867 42.1146,17.8887 43.7236,19.6207 C45.3326,21.3527 46.1696,23.6077 46.0836,25.9697 L45.3336,25.9417 L46.0836,25.9697 C45.9956,28.3327 44.9936,30.5197 43.2606,32.1277 C41.6116,33.6607 39.4866,34.4937 37.2476,34.4937" id="Fill-169" fill="#354546" mask="url(#mask-4)"></path>
                <path d="M42.4582,25.8361 C42.3522,28.7181 39.9292,30.9691 37.0462,30.8621 C34.1632,30.7551 31.9132,28.3331 32.0202,25.4501 C32.1262,22.5671 34.5492,20.3171 37.4322,20.4241 C40.3132,20.5301 42.5642,22.9531 42.4582,25.8361" id="Fill-170" fill="#9ABD45" mask="url(#mask-4)"></path>
                <path d="M40.5393,24.2341 C40.4733,26.0261 38.9673,27.4241 37.1753,27.3591 C35.3843,27.2921 33.9843,25.7861 34.0513,23.9941 C34.1173,22.2031 35.6233,20.8041 37.4153,20.8701 C39.2073,20.9361 40.6053,22.4421 40.5393,24.2341" id="Fill-171" fill="#CEEC87" mask="url(#mask-4)"></path>
                <path d="M42.4582,25.8361 L42.4592,25.8361 L42.4582,25.8361 Z M37.2342,21.1701 C36.1032,21.1701 35.0292,21.5911 34.1942,22.3661 C33.3192,23.1791 32.8132,24.2841 32.7692,25.4781 C32.6782,27.9421 34.6082,30.0221 37.0732,30.1131 C39.5362,30.2051 41.6172,28.2731 41.7082,25.8081 C41.8002,23.3431 39.8682,21.2641 37.4032,21.1731 C37.3482,21.1711 37.2912,21.1701 37.2342,21.1701 L37.2342,21.1701 Z M37.2412,31.6161 C37.1672,31.6161 37.0932,31.6141 37.0182,31.6111 C33.7272,31.4901 31.1482,28.7131 31.2702,25.4221 C31.3922,22.1311 34.1662,19.5521 37.4592,19.6741 C40.7502,19.7961 43.3292,22.5721 43.2072,25.8631 C43.0882,29.0801 40.4342,31.6161 37.2412,31.6161 L37.2412,31.6161 Z" id="Fill-172" fill="#354546" mask="url(#mask-4)"></path>
                <path d="M38.5842,22.1686 C38.9162,22.9106 37.8792,23.5436 36.5212,24.1516 C35.1632,24.7596 34.0002,25.1106 33.6682,24.3696 C33.3362,23.6276 34.1672,22.5336 35.5242,21.9256 C36.8832,21.3176 38.2522,21.4266 38.5842,22.1686" id="Fill-173" fill="#FFFFFF" mask="url(#mask-4)"></path>
                <path d="M37.6477,29.3493 C37.5617,29.1563 37.8317,28.9923 38.1827,28.8343 C38.5357,28.6773 38.8377,28.5853 38.9237,28.7783 C39.0097,28.9703 38.7937,29.2543 38.4417,29.4123 C38.0887,29.5703 37.7337,29.5413 37.6477,29.3493" id="Fill-174" fill="#FFFFFF" mask="url(#mask-4)"></path>
                <path d="M42.0422,25.7819 C42.0172,26.4619 41.4442,26.9929 40.7642,26.9689 C40.0842,26.9429 39.5522,26.3709 39.5772,25.6909 C39.6032,25.0109 40.1752,24.4789 40.8552,24.5039 C41.5352,24.5289 42.0662,25.1009 42.0422,25.7819" id="Fill-175" fill="#354546" mask="url(#mask-4)"></path>
                <path d="M68.1721,27.2892 C68.0311,31.0782 64.8471,32.3852 61.0591,32.2452 C57.2711,32.1052 54.3141,30.5712 54.4531,26.7822 C54.5931,22.9942 57.7771,20.0372 61.5661,20.1772 C65.3541,20.3162 68.3121,23.5012 68.1721,27.2892" id="Fill-176" fill="#C5D5D6" mask="url(#mask-4)"></path>
                <path d="M61.3068,20.922 C59.7588,20.922 58.2918,21.497 57.1518,22.556 C55.9548,23.668 55.2628,25.178 55.2028,26.81 C55.1458,28.351 55.6438,29.485 56.7258,30.276 C57.7218,31.005 59.2298,31.427 61.0858,31.496 C62.9578,31.565 64.5158,31.255 65.5938,30.6 C66.7678,29.885 67.3658,28.794 67.4218,27.262 C67.4828,25.63 66.9038,24.072 65.7918,22.875 C64.6808,21.679 63.1698,20.986 61.5378,20.926 C61.4608,20.923 61.3838,20.922 61.3068,20.922 M61.6098,33.005 C61.4198,33.005 61.2278,33.002 61.0318,32.995 C56.2348,32.818 53.5638,30.543 53.7028,26.755 C53.8588,22.559 57.4008,19.273 61.5938,19.427 C65.7888,19.582 69.0768,23.122 68.9208,27.317 C68.7868,30.953 66.1318,33.005 61.6098,33.005" id="Fill-177" fill="#354546" mask="url(#mask-4)"></path>
                <path d="M65.7356,27.1994 C65.6446,29.6414 63.5916,29.8994 61.1486,29.8084 C58.7066,29.7184 56.7986,29.3154 56.8896,26.8724 C56.9796,24.4294 59.0336,22.5234 61.4756,22.6134 C63.9186,22.7034 65.8256,24.7574 65.7356,27.1994" id="Fill-178" fill="#19B5FE" mask="url(#mask-4)"></path>
                <path d="M64.0617,25.6667 C64.0047,27.1857 62.8307,27.7487 61.3127,27.6927 C59.7937,27.6367 58.5067,26.9817 58.5637,25.4637 C58.6197,23.9457 59.8957,22.7597 61.4147,22.8157 C62.9317,22.8727 64.1177,24.1487 64.0617,25.6667" id="Fill-179" fill="#39D5FF" mask="url(#mask-4)"></path>
                <path d="M61.3107,23.36 C59.3457,23.36 57.7117,24.921 57.6387,26.9 C57.5817,28.453 58.4087,28.957 61.1767,29.059 C62.1067,29.094 63.2717,29.091 64.0267,28.765 C64.4787,28.57 64.9467,28.228 64.9857,27.172 C65.0607,25.146 63.4737,23.438 61.4487,23.363 C61.4027,23.361 61.3557,23.36 61.3107,23.36 M61.9877,30.578 C61.6687,30.578 61.3747,30.568 61.1217,30.558 C59.4617,30.497 56.0097,30.369 56.1397,26.845 C56.2457,23.993 58.6497,21.758 61.5027,21.864 C64.3557,21.969 66.5897,24.375 66.4847,27.227 L65.7357,27.199 L66.4847,27.227 C66.3737,30.225 63.7987,30.578 61.9877,30.578" id="Fill-180" fill="#354546" mask="url(#mask-4)"></path>
                <path d="M62.4533,24.092 C62.7343,24.72 61.8543,25.258 60.7043,25.773 C59.5543,26.287 58.5673,26.585 58.2863,25.957 C58.0053,25.328 58.7093,24.401 59.8603,23.886 C61.0113,23.371 62.1713,23.463 62.4533,24.092" id="Fill-181" fill="#FFFFFF" mask="url(#mask-4)"></path>
                <path d="M62.7697,28.5861 C62.6977,28.4231 62.9247,28.2841 63.2237,28.1501 C63.5227,28.0161 63.7787,27.9391 63.8517,28.1021 C63.9237,28.2651 63.7417,28.5061 63.4427,28.6401 C63.1447,28.7731 62.8427,28.7501 62.7697,28.5861" id="Fill-182" fill="#FFFFFF" mask="url(#mask-4)"></path>
                <path d="M59.3957,27.0041 C59.3747,27.5811 58.8897,28.0311 58.3127,28.0091 C57.7367,27.9881 57.2867,27.5041 57.3067,26.9271 C57.3287,26.3501 57.8137,25.9001 58.3897,25.9211 C58.9667,25.9421 59.4167,26.4271 59.3957,27.0041" id="Fill-183" fill="#354546" mask="url(#mask-4)"></path>
                <path d="M37.3742,40.6374 L60.1202,35.5554 C60.1202,35.5554 61.3982,42.5614 55.8672,44.6064 C46.1252,48.2074 37.3742,40.6374 37.3742,40.6374" id="Fill-184" fill="#FFFFFF" mask="url(#mask-4)"></path>
                <path d="M37.3742,40.6374 L37.3762,40.6374 L37.3742,40.6374 Z M39.1282,41.0144 C40.0802,41.6674 41.5252,42.5514 43.3032,43.2994 C47.6252,45.1194 51.7662,45.3234 55.6072,43.9034 C57.6242,43.1574 58.8742,41.5814 59.3222,39.2184 C59.5272,38.1414 59.5152,37.1314 59.4692,36.4694 L39.1282,41.0144 Z M50.4182,46.3204 C47.8912,46.3204 45.2802,45.7664 42.6752,44.6624 C39.2012,43.1914 36.9772,41.2844 36.8842,41.2044 C36.6692,41.0194 36.5782,40.7284 36.6472,40.4544 C36.7162,40.1794 36.9352,39.9674 37.2112,39.9054 L59.9562,34.8234 C60.1552,34.7784 60.3642,34.8174 60.5342,34.9294 C60.7042,35.0424 60.8212,35.2204 60.8572,35.4204 C60.8722,35.4974 61.1972,37.3324 60.8062,39.4504 C60.2692,42.3514 58.6502,44.3774 56.1272,45.3094 C54.3042,45.9844 52.3862,46.3204 50.4182,46.3204 L50.4182,46.3204 Z" id="Fill-185" fill="#354546" mask="url(#mask-4)"></path>
                <path d="M43.799,45.0549 C43.424,45.0549 43.101,44.7739 43.056,44.3919 L42.471,39.4199 C42.422,39.0089 42.717,38.6359 43.128,38.5879 C43.539,38.5389 43.912,38.8329 43.96,39.2449 L44.545,44.2169 C44.594,44.6289 44.299,45.0009 43.888,45.0499 C43.859,45.0539 43.828,45.0549 43.799,45.0549" id="Fill-186" fill="#354546" mask="url(#mask-4)"></path>
                <path d="M49.2502,46.0641 C48.8482,46.0641 48.5152,45.7451 48.5002,45.3401 L48.2452,38.0671 C48.2302,37.6531 48.5552,37.3061 48.9682,37.2921 C49.3792,37.2771 49.7292,37.6011 49.7442,38.0151 L50.0002,45.2881 C50.0142,45.7021 49.6902,46.0491 49.2762,46.0641 L49.2502,46.0641" id="Fill-187" fill="#354546" mask="url(#mask-4)"></path>
                <path d="M54.8166,45.3566 C54.4066,45.3566 54.0716,45.0256 54.0676,44.6146 L53.9836,36.7666 C53.9786,36.3526 54.3106,36.0136 54.7256,36.0086 L54.7336,36.0086 C55.1436,36.0086 55.4786,36.3396 55.4836,36.7506 L55.5676,44.5986 C55.5716,45.0126 55.2396,45.3526 54.8256,45.3566 L54.8166,45.3566 Z" id="Fill-188" fill="#354546" mask="url(#mask-4)"></path>
                <path d="M16.9016,58.174 C17.8866,59.497 17.6106,61.386 16.2876,62.372 L11.5796,65.845 C10.2556,66.831 8.3676,66.554 7.3806,65.231 L3.3496,59.612 C2.3646,58.289 3.0156,56.868 4.3386,55.882 L8.8126,52.597 C10.1356,51.611 11.6496,51.419 12.6356,52.742 L16.9016,58.174 Z" id="Fill-189" fill="#A5B5B6" mask="url(#mask-4)"></path>
                <path d="M10.8537,52.5524 C10.2527,52.5524 9.6557,52.9044 9.2607,53.1984 L4.7837,56.4874 C4.2297,56.8984 3.8407,57.3834 3.6927,57.8484 C3.5467,58.3044 3.6317,58.7354 3.9517,59.1644 L7.9907,64.7944 C8.7237,65.7784 10.1367,65.9844 11.1307,65.2434 L15.8417,61.7684 C16.8327,61.0314 17.0407,59.6234 16.3047,58.6294 L12.0457,53.2054 C12.0417,53.2004 12.0387,53.1964 12.0347,53.1904 C11.6837,52.7204 11.2677,52.5524 10.8537,52.5524 M9.7927,67.1884 C8.6477,67.1884 7.5157,66.6664 6.7797,65.6794 L2.7407,60.0494 C2.1367,59.2394 1.9687,58.3174 2.2637,57.3924 C2.5097,56.6204 3.0727,55.8904 3.8907,55.2814 L8.3697,51.9924 C10.1777,50.6444 12.0867,50.7594 13.2307,52.2864 L17.4917,57.7104 C17.4957,57.7164 17.4997,57.7204 17.5027,57.7264 C18.7387,59.3844 18.3937,61.7384 16.7357,62.9734 L12.0247,66.4484 C11.3547,66.9474 10.5707,67.1884 9.7927,67.1884" id="Fill-190" fill="#354546" mask="url(#mask-4)"></path>
                <path d="M1.9152,45.0387 C1.3962,44.3967 1.4972,43.4477 2.1392,42.9297 L2.7162,42.4627 C3.3572,41.9447 4.3072,42.0447 4.8252,42.6867 L15.2382,55.5177 C15.7572,56.1587 15.6562,57.1077 15.0152,57.6267 L14.4372,58.0927 C13.7962,58.6117 12.8472,58.5107 12.3282,57.8697 L1.9152,45.0387 Z" id="Fill-191" fill="#A5B5B6" mask="url(#mask-4)"></path>
                <path d="M2.4973,44.5666 L12.9103,57.3966 C13.1713,57.7196 13.6443,57.7696 13.9663,57.5096 L14.5433,57.0436 C14.8643,56.7836 14.9153,56.3106 14.6553,55.9886 L4.2433,43.1596 C4.1173,43.0036 3.9383,42.9066 3.7373,42.8856 C3.5373,42.8636 3.3423,42.9216 3.1873,43.0456 L2.6103,43.5126 C2.4553,43.6376 2.3583,43.8166 2.3383,44.0176 C2.3163,44.2166 2.3733,44.4126 2.4973,44.5666 M13.4973,59.1756 C12.8403,59.1756 12.1883,58.8906 11.7443,58.3406 L1.3323,45.5116 C1.3323,45.5106 1.3323,45.5106 1.3313,45.5106 C0.9553,45.0446 0.7823,44.4576 0.8463,43.8586 C0.9093,43.2596 1.2013,42.7226 1.6673,42.3456 L2.2443,41.8796 C2.7113,41.5036 3.2973,41.3306 3.8963,41.3946 C4.4953,41.4576 5.0323,41.7496 5.4093,42.2156 L15.8203,55.0446 C16.6013,56.0106 16.4513,57.4306 15.4853,58.2106 L14.9083,58.6766 C14.4933,59.0126 13.9933,59.1756 13.4973,59.1756" id="Fill-192" fill="#354546" mask="url(#mask-4)"></path>
                <path d="M4.0949,54.6037 C3.5759,53.9617 3.6769,53.0127 4.3189,52.4937 L4.8959,52.0277 C5.5369,51.5087 6.4869,51.6097 7.0049,52.2507 L9.3589,55.0317 C9.8769,55.6737 9.7769,56.6227 9.1349,57.1417 L8.5569,57.6077 C7.9149,58.1257 6.9659,58.0257 6.4479,57.3837 L4.0949,54.6037 Z" id="Fill-193" fill="#A5B5B6" mask="url(#mask-4)"></path>
                <path d="M4.674,54.1266 L7.021,56.8996 C7.024,56.9036 7.028,56.9076 7.031,56.9126 C7.291,57.2336 7.764,57.2846 8.086,57.0246 L8.663,56.5576 C8.818,56.4336 8.914,56.2536 8.936,56.0536 C8.957,55.8556 8.902,55.6626 8.779,55.5086 L6.433,52.7356 C6.429,52.7316 6.426,52.7276 6.422,52.7226 C6.162,52.4006 5.689,52.3506 5.367,52.6106 L4.79,53.0776 C4.47,53.3356 4.419,53.8046 4.674,54.1266 M7.616,58.6896 C6.963,58.6896 6.315,58.4076 5.87,57.8626 L3.522,55.0876 C3.519,55.0836 3.515,55.0796 3.511,55.0746 C2.732,54.1096 2.882,52.6906 3.847,51.9106 L4.424,51.4436 C4.891,51.0676 5.477,50.8956 6.076,50.9586 C6.672,51.0216 7.206,51.3106 7.582,51.7726 L9.931,54.5476 C9.935,54.5516 9.939,54.5566 9.942,54.5606 C10.319,55.0266 10.491,55.6126 10.427,56.2116 C10.363,56.8106 10.072,57.3476 9.606,57.7246 L9.028,58.1906 C8.613,58.5266 8.113,58.6896 7.616,58.6896" id="Fill-194" fill="#354546" mask="url(#mask-4)"></path>
                <path d="M1.0822,57.0192 C0.5632,56.3772 0.6642,55.4282 1.3062,54.9092 L1.8832,54.4432 C2.5242,53.9242 3.4742,54.0252 3.9922,54.6672 L6.3462,57.4472 C6.8642,58.0892 6.7642,59.0382 6.1222,59.5572 L5.5442,60.0232 C4.9022,60.5422 3.9532,60.4412 3.4352,59.7992 L1.0822,57.0192 Z" id="Fill-195" fill="#A5B5B6" mask="url(#mask-4)"></path>
                <path d="M1.6604,56.5422 L4.0084,59.3152 C4.0114,59.3192 4.0144,59.3242 4.0184,59.3282 C4.1424,59.4822 4.3224,59.5792 4.5224,59.6012 C4.7234,59.6222 4.9184,59.5652 5.0734,59.4402 L5.6504,58.9742 C5.8054,58.8492 5.9014,58.6692 5.9234,58.4692 C5.9434,58.2712 5.8894,58.0782 5.7664,57.9242 L3.4204,55.1512 C3.4164,55.1472 3.4124,55.1432 3.4094,55.1382 C3.1494,54.8162 2.6764,54.7662 2.3544,55.0262 L1.7774,55.4932 C1.6224,55.6182 1.5254,55.7972 1.5044,55.9972 C1.4834,56.1952 1.5394,56.3882 1.6604,56.5422 M4.6074,61.1052 C4.5264,61.1052 4.4454,61.1012 4.3644,61.0922 C3.7684,61.0292 3.2334,60.7402 2.8574,60.2782 L0.5094,57.5032 C0.5064,57.4992 0.5024,57.4952 0.4984,57.4902 C0.1224,57.0242 -0.0506,56.4382 0.0134,55.8392 C0.0764,55.2402 0.3684,54.7032 0.8344,54.3262 L1.4114,53.8592 C2.3744,53.0822 3.7894,53.2292 4.5694,54.1882 L6.9184,56.9632 C6.9224,56.9672 6.9264,56.9722 6.9294,56.9762 C7.3064,57.4422 7.4774,58.0282 7.4144,58.6272 C7.3504,59.2262 7.0594,59.7632 6.5934,60.1402 L6.0154,60.6062 C5.6134,60.9322 5.1204,61.1052 4.6074,61.1052" id="Fill-196" fill="#354546" mask="url(#mask-4)"></path>
                <path d="M6.8059,56.6716 C6.0149,56.4386 5.5579,55.6006 5.7899,54.8096 L5.9999,54.0966 C6.2329,53.3056 7.0719,52.8486 7.8629,53.0816 L15.0969,55.2096 C15.8879,55.4426 16.3449,56.2806 16.1129,57.0716 L15.9029,57.7836 C15.6699,58.5756 14.8319,59.0326 14.0399,58.7996 L6.8059,56.6716 Z" id="Fill-197" fill="#A5B5B6" mask="url(#mask-4)"></path>
                <path d="M7.4416,53.7707 C7.3176,53.7707 7.1936,53.8017 7.0816,53.8637 C6.9046,53.9597 6.7756,54.1187 6.7196,54.3087 L6.5096,55.0207 C6.4546,55.2117 6.4766,55.4137 6.5726,55.5907 C6.6696,55.7677 6.8276,55.8957 7.0176,55.9517 L14.2526,58.0807 C14.4426,58.1367 14.6446,58.1137 14.8216,58.0177 C14.9996,57.9207 15.1276,57.7627 15.1826,57.5727 L15.3926,56.8607 C15.4486,56.6697 15.4266,56.4677 15.3306,56.2907 C15.2336,56.1137 15.0756,55.9847 14.8846,55.9297 L7.6506,53.8007 C7.5826,53.7807 7.5106,53.7707 7.4416,53.7707 M14.4636,59.6107 C14.2516,59.6107 14.0376,59.5807 13.8286,59.5197 L6.5946,57.3907 C6.0196,57.2217 5.5446,56.8377 5.2556,56.3087 C4.9676,55.7807 4.9016,55.1727 5.0716,54.5977 L5.2806,53.8857 C5.4496,53.3107 5.8346,52.8347 6.3626,52.5467 C6.8906,52.2587 7.4996,52.1927 8.0746,52.3617 L15.3076,54.4897 C15.8826,54.6597 16.3586,55.0437 16.6466,55.5727 C16.9346,56.1007 17.0016,56.7087 16.8316,57.2837 L16.6226,57.9957 C16.4536,58.5707 16.0686,59.0457 15.5406,59.3337 C15.2036,59.5177 14.8356,59.6107 14.4636,59.6107" id="Fill-198" fill="#354546" mask="url(#mask-4)"></path>
                <path d="M17.3625,57.5378 L16.2965,56.1338 C15.2975,54.8198 13.4055,54.5618 12.0915,55.5598 L10.6875,56.6258 C9.3745,57.6248 9.1165,59.5168 10.1145,60.8298 L11.1805,62.2338 C12.1785,63.5478 14.0705,63.8068 15.3835,62.8078 L16.7885,61.7418 C18.1015,60.7438 18.3605,58.8508 17.3625,57.5378" id="Fill-199" fill="#A5B5B6" mask="url(#mask-4)"></path>
                <path d="M13.9045,55.6994 C13.4295,55.6994 12.9515,55.8484 12.5465,56.1574 L11.1415,57.2234 C10.1535,57.9744 9.9615,59.3884 10.7115,60.3764 L11.7775,61.7804 C12.1395,62.2564 12.6685,62.5634 13.2655,62.6444 C13.8635,62.7264 14.4555,62.5724 14.9305,62.2104 L16.3345,61.1444 C16.8105,60.7824 17.1175,60.2544 17.1995,59.6564 C17.2805,59.0584 17.1265,58.4674 16.7645,57.9914 L15.6985,56.5874 C15.2565,56.0054 14.5845,55.6994 13.9045,55.6994 M13.5815,64.1664 C13.4095,64.1664 13.2365,64.1544 13.0625,64.1314 C12.0675,63.9954 11.1875,63.4824 10.5835,62.6874 L9.5165,61.2834 C8.2655,59.6374 8.5885,57.2804 10.2345,56.0294 L11.6375,54.9624 C13.2845,53.7124 15.6415,54.0334 16.8925,55.6794 L17.9595,57.0844 C18.5635,57.8794 18.8215,58.8644 18.6855,59.8594 C18.5505,60.8544 18.0375,61.7344 17.2425,62.3384 L15.8385,63.4054 C15.1815,63.9044 14.3955,64.1664 13.5815,64.1664" id="Fill-200" fill="#354546" mask="url(#mask-4)"></path>
            </g>
        </g>
    </g>
</svg>