<?xml version="1.0" encoding="UTF-8"?>
<svg width="85px" height="122px" viewBox="0 0 85 122" version="1.1" xmlns="http://www.w3.org/2000/svg" xmlns:xlink="http://www.w3.org/1999/xlink">
    <!-- Generator: Sketch 42 (36781) - http://www.bohemiancoding.com/sketch -->
    <title>27</title>
    <desc>Created with Sketch.</desc>
    <defs>
        <polygon id="path-1" points="63.6052 8 0.3382 8 0.3382 0.3777 63.6052 0.3777 63.6052 8"></polygon>
        <polygon id="path-3" points="0 122.04 84.098 122.04 84.098 0 0 0"></polygon>
    </defs>
    <g id="Page-1" stroke="none" stroke-width="1" fill="none" fill-rule="evenodd">
        <g id="1024" transform="translate(-258.000000, 0.000000)">
            <g id="27" transform="translate(258.000000, 0.000000)">
                <g id="Group-3" transform="translate(14.000000, 114.040000)">
                    <mask id="mask-2" fill="white">
                        <use xlink:href="#path-1"></use>
                    </mask>
                    <g id="Clip-2"></g>
                    <path d="M63.6052,4.1887 C63.6052,6.2937 49.4422,8.0007 31.9712,8.0007 C14.5012,8.0007 0.3382,6.2937 0.3382,4.1887 C0.3382,2.0847 14.5012,0.3777 31.9712,0.3777 C49.4422,0.3777 63.6052,2.0847 63.6052,4.1887" id="Fill-1" fill="#CCCCCC" mask="url(#mask-2)"></path>
                </g>
                <mask id="mask-4" fill="white">
                    <use xlink:href="#path-3"></use>
                </mask>
                <g id="Clip-5"></g>
                <polygon id="Fill-4" fill="#758586" mask="url(#mask-4)" points="37.59 87.553 53.708 87.553 53.708 75.947 37.59 75.947"></polygon>
                <path d="M38.34,86.803 L52.958,86.803 L52.958,76.697 L38.34,76.697 L38.34,86.803 Z M53.708,88.303 L37.59,88.303 C37.175,88.303 36.84,87.967 36.84,87.553 L36.84,75.947 C36.84,75.533 37.175,75.197 37.59,75.197 L53.708,75.197 C54.122,75.197 54.458,75.533 54.458,75.947 L54.458,87.553 C54.458,87.967 54.122,88.303 53.708,88.303 L53.708,88.303 Z" id="Fill-6" fill="#354546" mask="url(#mask-4)"></path>
                <polygon id="Fill-7" fill="#758586" mask="url(#mask-4)" points="41.25 61.397 50.592 61.397 50.592 52.894 41.25 52.894"></polygon>
                <path d="M42,60.647 L49.842,60.647 L49.842,53.644 L42,53.644 L42,60.647 Z M50.592,62.147 L41.25,62.147 C40.836,62.147 40.5,61.811 40.5,61.397 L40.5,52.894 C40.5,52.48 40.836,52.144 41.25,52.144 L50.592,52.144 C51.006,52.144 51.342,52.48 51.342,52.894 L51.342,61.397 C51.342,61.811 51.006,62.147 50.592,62.147 L50.592,62.147 Z" id="Fill-8" fill="#354546" mask="url(#mask-4)"></path>
                <path d="M50.5925,58.3971 C50.5785,58.3971 50.5655,58.3971 50.5515,58.3961 L41.2085,57.8941 C40.7955,57.8721 40.4785,57.5191 40.5005,57.1051 C40.5235,56.6911 40.8765,56.3741 41.2895,56.3971 L50.6325,56.8981 C51.0455,56.9201 51.3635,57.2731 51.3405,57.6871 C51.3195,58.0871 50.9885,58.3971 50.5925,58.3971" id="Fill-9" fill="#354546" mask="url(#mask-4)"></path>
                <path d="M63.7986,66.5793 C62.3146,67.0453 60.8176,67.5363 59.1936,67.9543 L58.0296,63.3813 C59.4236,63.0233 60.8896,62.5483 62.3776,62.0793 L63.7986,66.5793 Z" id="Fill-10" fill="#F9BF3B" mask="url(#mask-4)"></path>
                <path d="M58.2165,64.1071 L57.8435,62.6541 C59.0395,62.3471 60.2755,61.9571 61.5835,61.5441 L62.1525,61.3641 L62.6025,62.7951 L62.0355,62.9741 C60.7075,63.3941 59.4525,63.7901 58.2165,64.1071" id="Fill-11" fill="#F1892D" mask="url(#mask-4)"></path>
                <path d="M59.3796,68.6804 L59.0056,67.2274 C60.3576,66.8794 61.6396,66.4744 62.8786,66.0824 L63.5736,65.8634 L64.0236,67.2954 L63.3306,67.5134 C62.0716,67.9104 60.7716,68.3224 59.3796,68.6804" id="Fill-12" fill="#F1892D" mask="url(#mask-4)"></path>
                <polygon id="Fill-13" fill="#F1892D" mask="url(#mask-4)" points="60.8308 67.5031 59.4518 62.9901 60.8868 62.5521 62.2658 67.0651"></polygon>
                <path d="M68.1667,65.2819 C66.7297,65.6599 65.2777,66.1119 63.7987,66.5789 L62.3777,62.0799 C63.8677,61.6089 65.3917,61.1339 66.9667,60.7189 L68.1667,65.2819 Z" id="Fill-14" fill="#F9BF3B" mask="url(#mask-4)"></path>
                <path d="M62.6033,62.7951 L62.1513,61.3651 C63.6903,60.8781 65.2023,60.4081 66.7753,59.9931 L67.1583,61.4441 C65.6163,61.8501 64.1243,62.3151 62.6033,62.7951" id="Fill-15" fill="#F1892D" mask="url(#mask-4)"></path>
                <path d="M64.0242,67.2946 L63.5722,65.8646 C64.9932,65.4156 66.5032,64.9446 67.9762,64.5566 L68.3582,66.0066 C66.9182,66.3866 65.4272,66.8506 64.0242,67.2946" id="Fill-16" fill="#F1892D" mask="url(#mask-4)"></path>
                <polygon id="Fill-17" fill="#F1892D" mask="url(#mask-4)" points="65.28 66.113 63.922 61.594 65.358 61.162 66.717 65.681"></polygon>
                <path d="M72.3875,64.4587 C71.0265,64.5987 69.6015,64.9037 68.1665,65.2817 L66.9665,60.7187 C68.5425,60.3057 70.1715,59.9447 71.9105,59.7647 L72.3875,64.4587 Z" id="Fill-18" fill="#F9BF3B" mask="url(#mask-4)"></path>
                <path d="M67.157,61.444 L66.776,59.993 C68.102,59.646 69.875,59.221 71.834,59.018 L71.988,60.51 C70.131,60.703 68.43,61.111 67.157,61.444" id="Fill-19" fill="#F1892D" mask="url(#mask-4)"></path>
                <path d="M68.3582,66.007 L67.9762,64.556 C69.6722,64.11 71.0502,63.841 72.3112,63.713 L72.4632,65.205 C71.2822,65.326 69.9772,65.581 68.3582,66.007" id="Fill-20" fill="#F1892D" mask="url(#mask-4)"></path>
                <polygon id="Fill-21" fill="#F1892D" mask="url(#mask-4)" points="69.5691 64.9284 68.6421 60.3024 70.1131 60.0074 71.0401 64.6344"></polygon>
                <path d="M76.0203,64.6979 C75.0463,64.3639 73.7413,64.3179 72.3873,64.4589 L71.9113,59.7639 C72.7813,59.6759 73.6813,59.6369 74.6183,59.6889 C75.5553,59.7469 76.5353,59.8899 77.5273,60.2259 L76.0203,64.6979 Z" id="Fill-22" fill="#F9BF3B" mask="url(#mask-4)"></path>
                <path d="M77.2859,60.9367 C76.4689,60.6597 75.6059,60.5017 74.5719,60.4377 C73.7589,60.3927 72.9119,60.4157 71.9869,60.5107 L71.8349,59.0187 C72.8389,58.9157 73.7629,58.8907 74.6599,58.9407 C75.8189,59.0117 76.8339,59.1997 77.7669,59.5167 L77.2859,60.9367 Z" id="Fill-23" fill="#F1892D" mask="url(#mask-4)"></path>
                <path d="M75.7761,65.4074 C74.9761,65.1334 73.8311,65.0624 72.4641,65.2044 L72.3091,63.7134 C73.4131,63.5984 74.9941,63.5534 76.2631,63.9884 L75.7761,65.4074 Z" id="Fill-24" fill="#F1892D" mask="url(#mask-4)"></path>
                <polygon id="Fill-25" fill="#F1892D" mask="url(#mask-4)" points="75.0945 64.443 73.5975 64.357 73.8685 59.646 75.3665 59.733"></polygon>
                <path d="M78.0789,66.507 C77.6039,65.57 76.9959,65.034 76.0199,64.698 L77.5269,60.226 C78.5139,60.557 79.5129,61.09 80.3499,61.831 C81.1869,62.569 81.8509,63.478 82.3049,64.406 L78.0789,66.507 Z" id="Fill-26" fill="#F9BF3B" mask="url(#mask-4)"></path>
                <path d="M81.6296,64.735 C81.1956,63.844 80.5816,63.034 79.8546,62.394 C79.1446,61.765 78.2576,61.262 77.2876,60.938 L77.7656,59.515 C78.9236,59.903 79.9886,60.51 80.8476,61.269 C81.7206,62.039 82.4576,63.01 82.9786,64.078 L81.6296,64.735 Z" id="Fill-27" fill="#F1892D" mask="url(#mask-4)"></path>
                <path d="M77.4099,66.8459 C77.0229,66.0819 76.5649,65.6789 75.7759,65.4079 L76.2639,63.9889 C77.4209,64.3869 78.1859,65.0589 78.7489,66.1689 L77.4099,66.8459 Z" id="Fill-28" fill="#F1892D" mask="url(#mask-4)"></path>
                <polygon id="Fill-29" fill="#F1892D" mask="url(#mask-4)" points="77.8005 65.8718 76.6735 64.8828 79.7865 61.3358 80.9135 62.3258"></polygon>
                <path d="M78.575,69.6984 C78.647,69.1204 78.65,68.5634 78.565,68.0344 C78.55,67.9004 78.514,67.7724 78.491,67.6414 C78.454,67.5134 78.428,67.3834 78.382,67.2574 C78.346,67.1324 78.294,67.0024 78.244,66.8714 C78.221,66.8064 78.189,66.7484 78.164,66.6864 C78.138,66.6234 78.11,66.5634 78.079,66.5074 L82.304,64.4064 C82.365,64.5224 82.419,64.6384 82.47,64.7554 C82.519,64.8714 82.575,64.9894 82.62,65.1054 C82.711,65.3384 82.801,65.5724 82.876,65.8194 C82.96,66.0614 83.018,66.3124 83.084,66.5594 C83.136,66.8104 83.195,67.0604 83.228,67.3134 C83.387,68.3234 83.378,69.3394 83.254,70.3054 L78.575,69.6984 Z" id="Fill-30" fill="#F9BF3B" mask="url(#mask-4)"></path>
                <path d="M83.9978,70.4011 L82.5108,70.2101 C82.6338,69.2441 82.6268,68.3091 82.4868,67.4301 L82.4838,67.4111 C82.4628,67.2441 82.4258,67.0681 82.3858,66.8831 L82.3148,66.5851 C82.2678,66.4001 82.2228,66.2251 82.1668,66.0641 L82.1588,66.0391 C82.0908,65.8171 82.0078,65.6001 81.9208,65.3791 C81.8938,65.3051 81.8618,65.2381 81.8318,65.1701 L81.7798,65.0521 C81.7338,64.9441 81.6868,64.8461 81.6398,64.7531 L82.9698,64.0601 C83.0358,64.1871 83.0978,64.3181 83.1578,64.4591 L83.2028,64.5611 C83.2438,64.6531 83.2848,64.7461 83.3198,64.8391 C83.4138,65.0781 83.5068,65.3201 83.5898,65.5881 C83.6618,65.8011 83.7158,66.0081 83.7678,66.2101 L83.8178,66.4081 L83.8518,66.5701 C83.8958,66.7741 83.9398,66.9831 83.9708,67.2051 C84.1308,68.2221 84.1398,69.2971 83.9978,70.4011" id="Fill-31" fill="#F1892D" mask="url(#mask-4)"></path>
                <path d="M79.3191,69.7927 L77.8311,69.6047 C77.8971,69.0807 77.8941,68.5917 77.8241,68.1537 L77.8201,68.1177 C77.8141,68.0707 77.8011,68.0117 77.7871,67.9427 C77.7781,67.8997 77.7681,67.8567 77.7601,67.8137 C77.7491,67.7717 77.7371,67.7297 77.7261,67.6877 C77.7101,67.6217 77.6941,67.5607 77.6781,67.5167 L77.6621,67.4677 C77.6381,67.3877 77.6011,67.2917 77.5621,67.1897 L77.5441,67.1397 C77.5321,67.1077 77.5221,67.0887 77.5131,67.0697 C77.4991,67.0387 77.4851,67.0067 77.4711,66.9747 C77.4541,66.9317 77.4361,66.8957 77.4211,66.8657 L78.7381,66.1487 C78.7801,66.2267 78.8191,66.3087 78.8571,66.3997 C78.8631,66.4147 78.8711,66.4307 78.8781,66.4467 C78.9031,66.5007 78.9271,66.5567 78.9491,66.6157 L78.9631,66.6527 C79.0081,66.7707 79.0551,66.8927 79.0941,67.0227 C79.1321,67.1287 79.1571,67.2267 79.1791,67.3137 C79.1891,67.3527 79.1991,67.3917 79.2111,67.4297 L79.2291,67.5087 C79.2361,67.5487 79.2451,67.5887 79.2541,67.6277 C79.2731,67.7177 79.2951,67.8187 79.3081,67.9327 C79.3981,68.5077 79.4021,69.1327 79.3191,69.7927" id="Fill-32" fill="#F1892D" mask="url(#mask-4)"></path>
                <polygon id="Fill-33" fill="#F1892D" mask="url(#mask-4)" points="78.6794 68.7761 78.4504 67.2941 83.1134 66.5721 83.3424 68.0541"></polygon>
                <path d="M77.322,73.2756 C77.963,72.0836 78.429,70.8556 78.575,69.6986 L83.254,70.3056 C83.192,70.7896 83.096,71.2596 82.986,71.7206 C82.868,72.1766 82.735,72.6256 82.579,73.0576 C82.269,73.9236 81.893,74.7396 81.476,75.5136 L77.322,73.2756 Z" id="Fill-34" fill="#F9BF3B" mask="url(#mask-4)"></path>
                <path d="M82.1365,75.8693 L80.8165,75.1583 C81.2485,74.3553 81.5945,73.5853 81.8725,72.8063 C82.0105,72.4233 82.1365,72.0073 82.2595,71.5323 C82.3785,71.0363 82.4585,70.6123 82.5095,70.2113 L83.9975,70.4003 C83.9405,70.8563 83.8505,71.3313 83.7155,71.8953 C83.5765,72.4293 83.4375,72.8883 83.2835,73.3123 C82.9815,74.1613 82.6055,74.9993 82.1365,75.8693" id="Fill-35" fill="#F1892D" mask="url(#mask-4)"></path>
                <path d="M77.9832,73.6305 L76.6622,72.9205 C77.3132,71.7095 77.7062,70.5935 77.8312,69.6055 L79.3192,69.7925 C79.1712,70.9645 78.7212,72.2555 77.9832,73.6305" id="Fill-36" fill="#F1892D" mask="url(#mask-4)"></path>
                <polygon id="Fill-37" fill="#F1892D" mask="url(#mask-4)" points="82.3269 73.7643 77.8829 72.1813 78.3859 70.7673 82.8309 72.3513"></polygon>
                <path d="M74.9421,76.7468 C75.8561,75.6338 76.6771,74.4708 77.3221,73.2758 L81.4761,75.5138 C80.6391,77.0608 79.6481,78.4498 78.5881,79.7428 L74.9421,76.7468 Z" id="Fill-38" fill="#F9BF3B" mask="url(#mask-4)"></path>
                <path d="M79.1667,80.2189 L78.0077,79.2669 C79.1647,77.8569 80.0837,76.5119 80.8157,75.1569 L82.1367,75.8699 C81.3567,77.3109 80.3867,78.7329 79.1667,80.2189" id="Fill-39" fill="#F1892D" mask="url(#mask-4)"></path>
                <path d="M75.5212,77.2228 L74.3632,76.2708 C75.3112,75.1158 76.0852,73.9888 76.6622,72.9188 L77.9822,73.6318 C77.3592,74.7858 76.5322,75.9938 75.5212,77.2228" id="Fill-40" fill="#F1892D" mask="url(#mask-4)"></path>
                <polygon id="Fill-41" fill="#F1892D" mask="url(#mask-4)" points="79.6892 78.3405 75.8062 75.6585 76.6592 74.4245 80.5422 77.1065"></polygon>
                <path d="M71.947,79.9426 C73.015,78.9266 74.026,77.8596 74.942,76.7466 L78.588,79.7426 C77.524,81.0346 76.386,82.2326 75.198,83.3626 L71.947,79.9426 Z" id="Fill-42" fill="#F9BF3B" mask="url(#mask-4)"></path>
                <path d="M75.7146,83.9064 L74.6806,82.8194 C75.9276,81.6344 77.0166,80.4714 78.0086,79.2664 L79.1666,80.2194 C78.1346,81.4724 77.0056,82.6784 75.7146,83.9064" id="Fill-43" fill="#F1892D" mask="url(#mask-4)"></path>
                <path d="M72.4636,80.4865 L71.4306,79.3995 C72.5206,78.3635 73.5066,77.3105 74.3626,76.2705 L75.5216,77.2235 C74.6266,78.3105 73.5976,79.4085 72.4636,80.4865" id="Fill-44" fill="#F1892D" mask="url(#mask-4)"></path>
                <polygon id="Fill-45" fill="#F1892D" mask="url(#mask-4)" points="76.4255 82.1598 72.9875 78.9278 74.0155 77.8348 77.4525 81.0668"></polygon>
                <path d="M68.6248,82.7819 L68.8168,82.6359 L69.0288,82.4719 L69.4558,82.1319 C69.7398,81.9019 70.0228,81.6659 70.3038,81.4259 C70.8628,80.9459 71.4118,80.4499 71.9468,79.9429 L75.1978,83.3629 C74.6028,83.9279 73.9948,84.4759 73.3728,85.0099 C73.0618,85.2759 72.7458,85.5389 72.4258,85.7989 L71.9378,86.1869 L71.6888,86.3809 L71.4148,86.5869 L68.6248,82.7819 Z" id="Fill-46" fill="#F9BF3B" mask="url(#mask-4)"></path>
                <path d="M71.8669,87.1862 L70.9639,85.9882 L71.4789,85.5942 L71.9579,85.2122 C72.2629,84.9652 72.5769,84.7042 72.8849,84.4402 C73.4889,83.9222 74.0939,83.3762 74.6809,82.8192 L75.7139,83.9072 C75.1079,84.4822 74.4839,85.0442 73.8609,85.5792 C73.5419,85.8522 73.2179,86.1222 72.8979,86.3812 L72.1479,86.9732 L71.8669,87.1862 Z" id="Fill-47" fill="#F1892D" mask="url(#mask-4)"></path>
                <path d="M69.0769,83.3801 L68.1729,82.1831 L68.5689,81.8801 L68.9879,81.5461 C69.2589,81.3271 69.5379,81.0931 69.8149,80.8561 C70.3589,80.3911 70.9019,79.9001 71.4309,79.3991 L72.4639,80.4861 C71.9169,81.0051 71.3539,81.5131 70.7909,81.9951 C70.5039,82.2421 70.2129,82.4841 69.9279,82.7141 L69.0769,83.3801 Z" id="Fill-48" fill="#F1892D" mask="url(#mask-4)"></path>
                <polygon id="Fill-49" fill="#F1892D" mask="url(#mask-4)" points="72.8035 85.4977 69.7335 81.9137 70.8725 80.9377 73.9425 84.5217"></polygon>
                <path d="M62.7204,81.3527 L65.7394,79.3527 L65.5434,79.0587 C64.6324,77.6837 65.0124,75.8117 66.3884,74.9007 L68.2724,73.6537 C69.6484,72.7427 71.5194,73.1227 72.4304,74.4977 L74.2824,77.2927 L74.8834,78.2027 L77.8834,82.7307 C78.7944,84.1067 78.4144,85.9777 77.0394,86.8887 L69.6354,91.7927 C68.2594,92.7047 66.3894,92.3237 65.4774,90.9487 L61.8754,85.5107 C60.9644,84.1347 61.3444,82.2637 62.7204,81.3527" id="Fill-50" fill="#A5B5B6" mask="url(#mask-4)"></path>
                <path d="M61.8757,85.5104 C60.9647,84.1354 61.3447,82.2634 62.7207,81.3524 L64.3967,80.2414 L71.2727,90.7084 L69.6357,91.7924 C68.2597,92.7044 66.3897,92.3234 65.4777,90.9484 L61.8757,85.5104 Z" id="Fill-51" fill="#859596" mask="url(#mask-4)"></path>
                <path d="M63.1345,81.9777 C62.1005,82.6637 61.8165,84.0617 62.5005,85.0967 L66.1035,90.5347 C66.7875,91.5687 68.1875,91.8527 69.2215,91.1677 L76.6245,86.2637 C77.1235,85.9337 77.4635,85.4257 77.5835,84.8347 C77.7035,84.2437 77.5885,83.6437 77.2585,83.1447 L71.8055,74.9117 C71.4745,74.4137 70.9675,74.0737 70.3755,73.9527 C69.7845,73.8327 69.1855,73.9487 68.6865,74.2787 L66.8025,75.5267 C65.7685,76.2117 65.4845,77.6107 66.1695,78.6447 L66.3645,78.9387 C66.4745,79.1047 66.5135,79.3077 66.4745,79.5027 C66.4345,79.6977 66.3195,79.8687 66.1535,79.9787 L63.1345,81.9777 Z M67.9855,93.0407 C66.7685,93.0407 65.5725,92.4507 64.8525,91.3627 L61.2505,85.9247 C60.1085,84.2007 60.5815,81.8697 62.3065,80.7277 L62.3065,80.7277 L64.7165,79.1307 C63.8435,77.4517 64.3625,75.3437 65.9745,74.2757 L67.8585,73.0277 C68.6905,72.4767 69.6915,72.2827 70.6745,72.4827 C71.6585,72.6827 72.5035,73.2507 73.0555,74.0837 L78.5085,82.3167 C79.0605,83.1487 79.2535,84.1497 79.0545,85.1337 C78.8545,86.1177 78.2855,86.9627 77.4535,87.5147 L70.0495,92.4177 C69.4135,92.8397 68.6955,93.0407 67.9855,93.0407 L67.9855,93.0407 Z" id="Fill-52" fill="#354546" mask="url(#mask-4)"></path>
                <path d="M71.3132,91.4318 C71.0702,91.4318 70.8322,91.3138 70.6872,91.0958 L63.7722,80.6558 C63.5432,80.3108 63.6382,79.8448 63.9832,79.6168 C64.3292,79.3878 64.7932,79.4818 65.0232,79.8278 L71.9382,90.2678 C72.1672,90.6128 72.0732,91.0778 71.7272,91.3068 C71.5992,91.3918 71.4562,91.4318 71.3132,91.4318" id="Fill-53" fill="#354546" mask="url(#mask-4)"></path>
                <path d="M62.8435,87.7209 C62.6095,87.7209 62.3775,87.6109 62.2325,87.4059 C61.9915,87.0679 62.0715,86.5999 62.4075,86.3599 L66.4945,83.4529 C66.8325,83.2129 67.3005,83.2919 67.5405,83.6299 C67.7815,83.9669 67.7015,84.4349 67.3645,84.6759 L63.2785,87.5819 C63.1455,87.6759 62.9935,87.7209 62.8435,87.7209" id="Fill-54" fill="#354546" mask="url(#mask-4)"></path>
                <path d="M65.2302,91.3234 C64.9792,91.3234 64.7342,91.1974 64.5912,90.9684 C64.3742,90.6164 64.4822,90.1544 64.8342,89.9364 L69.0952,87.2934 C69.4472,87.0744 69.9102,87.1834 70.1272,87.5354 C70.3462,87.8874 70.2382,88.3494 69.8852,88.5684 L65.6252,91.2104 C65.5012,91.2864 65.3652,91.3234 65.2302,91.3234" id="Fill-55" fill="#354546" mask="url(#mask-4)"></path>
                <path d="M74.2849,85.3249 C74.2349,85.3249 74.1849,85.3199 74.1359,85.3099 C73.9409,85.2699 73.7689,85.1549 73.6599,84.9899 L69.3139,78.4289 C69.0859,78.0839 69.1809,77.6179 69.5249,77.3899 L72.8759,75.1709 C73.2209,74.9419 73.6859,75.0359 73.9149,75.3819 C74.1439,75.7269 74.0499,76.1919 73.7039,76.4209 L70.9789,78.2259 L74.4959,83.5359 L77.2219,81.7309 C77.5659,81.5019 78.0319,81.5959 78.2609,81.9419 C78.4889,82.2869 78.3939,82.7529 78.0499,82.9809 L74.6989,85.1999 C74.5749,85.2829 74.4309,85.3249 74.2849,85.3249" id="Fill-56" fill="#354546" mask="url(#mask-4)"></path>
                <path d="M65.74,80.1032 C65.497,80.1032 65.258,79.9852 65.114,79.7672 C64.885,79.4222 64.979,78.9572 65.325,78.7282 L67.048,77.5872 C67.392,77.3582 67.858,77.4532 68.087,77.7982 C68.315,78.1432 68.22,78.6082 67.876,78.8372 L66.153,79.9782 C66.025,80.0622 65.882,80.1032 65.74,80.1032" id="Fill-57" fill="#354546" mask="url(#mask-4)"></path>
                <path d="M8.6433,66.0573 C8.5833,65.2053 8.5493,64.3553 8.5433,63.5023 C8.5393,63.0763 8.5443,62.6493 8.5543,62.2203 C8.5593,62.0053 8.5673,61.7903 8.5773,61.5723 L8.5923,61.2433 L8.6173,60.8833 L13.3193,61.2673 L13.3043,61.5093 L13.2903,61.7823 L13.2713,62.3383 C13.2623,62.7123 13.2583,63.0893 13.2623,63.4663 C13.2673,64.2213 13.2973,64.9773 13.3503,65.7283 L8.6433,66.0573 Z" id="Fill-58" fill="#F9BF3B" mask="url(#mask-4)"></path>
                <path d="M12.6013,65.7804 C12.5463,64.9874 12.5163,64.2104 12.5123,63.4704 C12.5083,63.1284 12.5113,62.7514 12.5213,62.3214 L12.5713,61.2194 L14.0683,61.3154 L14.0393,61.8194 L14.0213,62.3634 C14.0113,62.7684 14.0083,63.1294 14.0123,63.4594 C14.0163,64.1694 14.0453,64.9144 14.0983,65.6764 L12.6013,65.7804 Z" id="Fill-59" fill="#F1892D" mask="url(#mask-4)"></path>
                <path d="M7.8943,66.1091 C7.8323,65.2191 7.7993,64.3441 7.7933,63.5071 C7.7903,63.1131 7.7933,62.6861 7.8043,62.2031 C7.8103,61.9821 7.8173,61.7621 7.8273,61.5391 L7.8683,60.8341 L9.3653,60.9321 L9.3263,61.6091 C9.3163,61.8181 9.3093,62.0291 9.3043,62.2381 C9.2933,62.7031 9.2903,63.1151 9.2933,63.4951 C9.2983,64.3031 9.3313,65.1471 9.3913,66.0051 L7.8943,66.1091 Z" id="Fill-60" fill="#F1892D" mask="url(#mask-4)"></path>
                <polygon id="Fill-61" fill="#F1892D" mask="url(#mask-4)" points="8.5495 64.2526 8.5375 62.7526 13.2565 62.7166 13.2685 64.2166"></polygon>
                <path d="M9.365,71.1755 C8.984,69.4675 8.764,67.7605 8.643,66.0575 L13.35,65.7285 C13.457,67.2315 13.651,68.7205 13.971,70.1505 L9.365,71.1755 Z" id="Fill-62" fill="#F9BF3B" mask="url(#mask-4)"></path>
                <path d="M13.239,70.3146 C12.933,68.9466 12.718,67.4216 12.602,65.7816 L14.098,65.6756 C14.21,67.2406 14.413,68.6916 14.703,69.9866 L13.239,70.3146 Z" id="Fill-63" fill="#F1892D" mask="url(#mask-4)"></path>
                <path d="M8.6335,71.339 C8.2725,69.721 8.0295,68.01 7.8945,66.111 L9.3915,66.004 C9.5215,67.829 9.7525,69.467 10.0975,71.012 L8.6335,71.339 Z" id="Fill-64" fill="#F1892D" mask="url(#mask-4)"></path>
                <polygon id="Fill-65" fill="#F1892D" mask="url(#mask-4)" points="9.0105 69.3576 8.8045 67.8716 13.4785 67.2236 13.6845 68.7096"></polygon>
                <path d="M11.0906,76.2555 C10.6826,75.4255 10.3486,74.5805 10.0686,73.7315 C9.7866,72.8815 9.5566,72.0285 9.3646,71.1755 L13.9716,70.1505 C14.1316,70.8655 14.3206,71.5655 14.5456,72.2415 C14.7686,72.9195 15.0286,73.5715 15.3296,74.1835 L11.0906,76.2555 Z" id="Fill-66" fill="#F9BF3B" mask="url(#mask-4)"></path>
                <path d="M14.6579,74.5153 C14.3519,73.8963 14.0739,73.2103 13.8329,72.4763 C13.6079,71.7993 13.4089,71.0713 13.2389,70.3143 L14.7029,69.9873 C14.8619,70.6953 15.0489,71.3743 15.2579,72.0063 C15.4769,72.6753 15.7279,73.2953 16.0029,73.8503 L14.6579,74.5153 Z" id="Fill-67" fill="#F1892D" mask="url(#mask-4)"></path>
                <path d="M10.4177,76.5866 C10.0157,75.7686 9.6677,74.9116 9.3557,73.9656 C9.0807,73.1366 8.8377,72.2526 8.6337,71.3386 L10.0977,71.0116 C10.2907,71.8766 10.5207,72.7116 10.7797,73.4956 C11.0697,74.3746 11.3917,75.1686 11.7637,75.9236 L10.4177,76.5866 Z" id="Fill-68" fill="#F1892D" mask="url(#mask-4)"></path>
                <polygon id="Fill-69" fill="#F1892D" mask="url(#mask-4)" points="10.3044 74.4426 9.8304 73.0196 14.3084 71.5296 14.7824 72.9536"></polygon>
                <path d="M14.2048,80.7575 C13.5818,80.0665 13.0328,79.3675 12.5298,78.6645 L12.4338,78.5325 L12.3338,78.3865 L12.1348,78.0895 C11.9978,77.8915 11.8768,77.6895 11.7568,77.4865 L11.5758,77.1825 C11.5178,77.0805 11.4658,76.9775 11.4098,76.8745 C11.3028,76.6685 11.1858,76.4645 11.0908,76.2555 L15.3298,74.1835 C15.3998,74.3405 15.4848,74.4845 15.5628,74.6345 C15.6028,74.7095 15.6408,74.7855 15.6828,74.8575 L15.8098,75.0715 C15.8938,75.2155 15.9788,75.3585 16.0728,75.4895 L16.2088,75.6935 C16.2318,75.7285 16.2518,75.7605 16.2778,75.7975 L16.3598,75.9085 C16.7898,76.5125 17.2398,77.0765 17.6928,77.5785 L14.2048,80.7575 Z" id="Fill-70" fill="#F9BF3B" mask="url(#mask-4)"></path>
                <path d="M17.1355,78.0812 C16.6655,77.5592 16.1985,76.9752 15.7485,76.3432 L15.6735,76.2402 C15.6475,76.2042 15.6255,76.1732 15.6055,76.1412 L15.4545,75.9142 C15.3425,75.7562 15.2475,75.5942 15.1635,75.4512 L15.0385,75.2432 C15.0015,75.1782 14.9725,75.1232 14.9435,75.0672 L14.9045,74.9932 C14.8735,74.9352 14.8495,74.8912 14.8255,74.8472 C14.7685,74.7412 14.7035,74.6212 14.6445,74.4872 L16.0155,73.8782 C16.0515,73.9582 16.0975,74.0442 16.1455,74.1342 C16.1735,74.1852 16.2015,74.2382 16.2295,74.2902 C16.2395,74.3092 16.2555,74.3402 16.2725,74.3722 C16.2915,74.4092 16.3115,74.4472 16.3325,74.4832 L16.4535,74.6852 C16.5315,74.8172 16.6075,74.9482 16.6845,75.0562 L16.8605,75.3192 C16.8675,75.3312 16.8755,75.3432 16.8845,75.3552 L16.9645,75.4642 C17.3875,76.0582 17.8185,76.5972 18.2495,77.0772 L17.1355,78.0812 Z" id="Fill-71" fill="#F1892D" mask="url(#mask-4)"></path>
                <path d="M13.6482,81.2599 C13.0492,80.5969 12.4842,79.8909 11.9192,79.0999 L11.7142,78.8089 L11.5112,78.5069 C11.3652,78.2959 11.2332,78.0749 11.1112,77.8669 L10.9312,77.5659 C10.8822,77.4809 10.8422,77.4059 10.8022,77.3299 L10.7502,77.2319 C10.7162,77.1669 10.6862,77.1119 10.6572,77.0559 C10.5732,76.8999 10.4872,76.7389 10.4082,76.5659 L11.7732,75.9449 C11.8322,76.0729 11.9032,76.2059 11.9792,76.3479 C12.0112,76.4069 12.0432,76.4679 12.0742,76.5269 L12.1272,76.6269 C12.1602,76.6879 12.1922,76.7489 12.2272,76.8089 L12.4022,77.1039 C12.5112,77.2889 12.6272,77.4829 12.7512,77.6619 L13.1352,78.2219 C13.6712,78.9709 14.2022,79.6349 14.7612,80.2549 L13.6482,81.2599 Z" id="Fill-72" fill="#F1892D" mask="url(#mask-4)"></path>
                <polygon id="Fill-73" fill="#F1892D" mask="url(#mask-4)" points="12.9675 79.2731 12.0915 78.0551 15.9215 75.2991 16.7975 76.5171"></polygon>
                <path d="M20.6951,83.3845 C20.0401,83.6005 19.3361,83.6555 18.6541,83.5515 C17.9701,83.4495 17.3121,83.1955 16.6991,82.8535 C16.4001,82.6775 16.0781,82.4715 15.8691,82.3035 C15.7531,82.2155 15.6321,82.1235 15.5221,82.0345 L15.2341,81.7825 C15.0371,81.6145 14.8681,81.4445 14.6951,81.2735 C14.5171,81.1025 14.3641,80.9295 14.2051,80.7575 L17.6931,77.5785 C17.8061,77.7015 17.9191,77.8315 18.0331,77.9365 C18.1451,78.0485 18.2581,78.1655 18.3691,78.2555 L18.5331,78.4025 L18.6651,78.5005 C18.7671,78.5855 18.7861,78.5925 18.8311,78.6225 C18.9141,78.6715 19.0031,78.7135 19.0981,78.7325 C19.1931,78.7535 19.2931,78.7435 19.3841,78.7115 L20.6951,83.3845 Z" id="Fill-74" fill="#F9BF3B" mask="url(#mask-4)"></path>
                <path d="M19.199,77.9933 C19.178,77.9933 19.157,77.9963 19.136,78.0043 L19.157,78.0653 L19.199,77.9933 Z M19.202,79.4933 C19.114,79.4933 19.026,79.4843 18.94,79.4653 C18.784,79.4333 18.621,79.3693 18.451,79.2693 L18.403,79.2393 C18.352,79.2063 18.301,79.1723 18.2,79.0903 L18.034,78.9623 L17.881,78.8253 C17.768,78.7313 17.667,78.6303 17.568,78.5333 L17.512,78.4763 C17.405,78.3753 17.307,78.2683 17.213,78.1643 L17.141,78.0873 L18.244,77.0703 L18.321,77.1543 C18.402,77.2433 18.477,77.3263 18.544,77.3883 L18.627,77.4703 C18.707,77.5493 18.783,77.6253 18.844,77.6753 L18.868,77.6953 L19.009,77.8213 L19.142,77.9223 C19.19,77.9623 19.198,77.9673 19.211,77.9753 L19.221,77.9823 C19.246,77.9953 19.257,77.9993 19.257,77.9993 C19.253,77.9993 19.249,77.9983 19.245,77.9973 L19.172,78.1073 L19.633,79.4193 C19.492,79.4683 19.346,79.4933 19.202,79.4933 L19.202,79.4933 Z" id="Fill-75" fill="#F1892D" mask="url(#mask-4)"></path>
                <path d="M19.3259,84.3522 C19.0639,84.3522 18.8019,84.3322 18.5409,84.2922 C17.8169,84.1852 17.0739,83.9212 16.3339,83.5092 L16.3179,83.4992 C16.0489,83.3412 15.6739,83.1072 15.4069,82.8942 L15.3889,82.8812 C15.2749,82.7942 15.1579,82.7052 15.0509,82.6182 L15.0269,82.5992 L14.7399,82.3472 C14.5509,82.1852 14.3849,82.0202 14.2239,81.8612 L14.1679,81.8062 C14.0099,81.6542 13.8659,81.4972 13.7269,81.3462 L13.6529,81.2652 L14.7579,80.2492 L14.8349,80.3332 C14.9619,80.4732 15.0829,80.6042 15.2149,80.7312 L15.2809,80.7962 C15.4279,80.9422 15.5659,81.0802 15.7209,81.2112 L16.0049,81.4602 C16.0979,81.5362 16.1989,81.6122 16.2979,81.6872 L16.3389,81.7192 C16.4889,81.8402 16.7559,82.0162 17.0719,82.2032 C17.6509,82.5242 18.2209,82.7282 18.7639,82.8092 C19.3379,82.8962 19.9239,82.8492 20.4599,82.6722 L20.9299,84.0972 C20.4169,84.2662 19.8729,84.3522 19.3259,84.3522" id="Fill-76" fill="#F1892D" mask="url(#mask-4)"></path>
                <polygon id="Fill-77" fill="#F1892D" mask="url(#mask-4)" points="17.3689 83.1911 16.0289 82.5161 18.1609 78.2851 19.4999 78.9601"></polygon>
                <path d="M25.1745,78.5402 C24.9785,78.9272 24.7745,79.3172 24.5425,79.7162 C24.3195,80.1122 24.0585,80.5212 23.7665,80.9342 L23.5335,81.2462 L23.5035,81.2862 L23.4645,81.3332 L23.3855,81.4302 L23.2245,81.6192 C23.1205,81.7432 22.9965,81.8722 22.8715,81.9962 C22.7475,82.1222 22.6215,82.2442 22.4865,82.3542 C21.9555,82.8112 21.3515,83.1732 20.6955,83.3842 L19.3845,78.7112 C19.4755,78.6782 19.5565,78.6212 19.6275,78.5552 C19.6455,78.5402 19.6615,78.5212 19.6785,78.5042 C19.6955,78.4872 19.7105,78.4712 19.7355,78.4402 L19.7695,78.4002 L19.7855,78.3802 L19.7935,78.3702 L19.8095,78.3492 L19.9365,78.1782 C20.2805,77.6962 20.6285,77.0762 20.9615,76.4152 L25.1745,78.5402 Z" id="Fill-78" fill="#F9BF3B" mask="url(#mask-4)"></path>
                <path d="M19.6404,79.4162 L19.1274,78.0062 C19.1104,78.0132 19.1014,78.0192 19.1004,78.0192 C19.1014,78.0192 19.1064,78.0152 19.1174,78.0062 L19.2034,77.9062 L19.3334,77.7302 C19.6144,77.3382 19.9394,76.7782 20.2904,76.0782 L21.6314,76.7512 C21.2394,77.5322 20.8844,78.1412 20.5464,78.6132 L20.3114,78.9202 C20.2804,78.9592 20.2544,78.9872 20.2284,79.0142 C20.1944,79.0512 20.1614,79.0832 20.1284,79.1122 C19.9784,79.2512 19.8144,79.3532 19.6404,79.4162" id="Fill-79" fill="#F1892D" mask="url(#mask-4)"></path>
                <path d="M20.9245,84.0988 L20.4655,82.6708 C21.0005,82.4978 21.5165,82.2008 21.9955,81.7868 L22.0125,81.7728 C22.1265,81.6808 22.2365,81.5718 22.3385,81.4688 C22.4365,81.3718 22.5565,81.2488 22.6495,81.1388 L22.9365,80.7928 L23.1595,80.4938 C23.4345,80.1038 23.6805,79.7188 23.8905,79.3478 C24.1355,78.9238 24.3475,78.5128 24.5045,78.2008 L25.8435,78.8788 C25.6765,79.2078 25.4515,79.6428 25.1925,80.0918 C24.9605,80.5028 24.6855,80.9338 24.3785,81.3678 L24.3675,81.3818 L23.9625,81.9078 L23.7955,82.1048 C23.6695,82.2568 23.5185,82.4108 23.4025,82.5268 C23.2815,82.6488 23.1335,82.7938 22.9685,82.9298 C22.3365,83.4718 21.6495,83.8658 20.9245,84.0988" id="Fill-80" fill="#F1892D" mask="url(#mask-4)"></path>
                <polygon id="Fill-81" fill="#F1892D" mask="url(#mask-4)" points="23.3279 81.5427 19.4989 78.7867 20.3749 77.5687 24.2049 80.3257"></polygon>
                <path d="M27.241,74.1384 C26.569,75.5224 25.945,76.9994 25.175,78.5404 L20.962,76.4144 C21.631,75.0814 22.262,73.5964 22.991,72.0874 L27.241,74.1384 Z" id="Fill-82" fill="#F9BF3B" mask="url(#mask-4)"></path>
                <path d="M21.6316,76.7516 L20.2906,76.0786 C20.6556,75.3526 21.0076,74.5836 21.3796,73.7706 C21.6786,73.1166 21.9866,72.4416 22.3166,71.7606 L23.6666,72.4136 C23.3446,73.0796 23.0386,73.7486 22.7436,74.3946 C22.3656,75.2206 22.0086,76.0016 21.6316,76.7516" id="Fill-83" fill="#F1892D" mask="url(#mask-4)"></path>
                <path d="M25.8445,78.8757 L24.5035,78.2047 C24.9365,77.3397 25.3245,76.4897 25.6995,75.6677 C25.9945,75.0237 26.2725,74.4167 26.5665,73.8117 L27.9155,74.4657 C27.6295,75.0557 27.3555,75.6557 27.0655,76.2917 C26.6835,77.1257 26.2895,77.9877 25.8445,78.8757" id="Fill-84" fill="#F1892D" mask="url(#mask-4)"></path>
                <polygon id="Fill-85" fill="#F1892D" mask="url(#mask-4)" points="25.9324 76.9626 21.6424 74.9986 22.2664 73.6346 26.5564 75.5986"></polygon>
                <path d="M29.4148,70.4577 C29.0138,70.9517 28.6358,71.5357 28.2748,72.1577 C27.9158,72.7817 27.5738,73.4477 27.2408,74.1387 L22.9908,72.0867 C23.3568,71.3317 23.7468,70.5647 24.1898,69.7967 C24.6358,69.0287 25.1288,68.2557 25.7388,67.4997 L29.4148,70.4577 Z" id="Fill-86" fill="#F9BF3B" mask="url(#mask-4)"></path>
                <path d="M23.6667,72.4137 L22.3157,71.7607 C22.7567,70.8497 23.1457,70.1067 23.5407,69.4217 C24.0917,68.4717 24.6037,67.7107 25.1547,67.0287 L26.3217,67.9707 C25.8207,68.5917 25.3497,69.2917 24.8397,70.1727 C24.4637,70.8237 24.0907,71.5367 23.6667,72.4137" id="Fill-87" fill="#F1892D" mask="url(#mask-4)"></path>
                <path d="M27.9158,74.4645 L26.5648,73.8125 C26.9528,73.0095 27.2898,72.3645 27.6258,71.7825 C28.0468,71.0555 28.4408,70.4675 28.8328,69.9845 L29.9978,70.9305 C29.6558,71.3505 29.3058,71.8755 28.9248,72.5325 C28.6078,73.0825 28.2868,73.6955 27.9158,74.4645" id="Fill-88" fill="#F1892D" mask="url(#mask-4)"></path>
                <polygon id="Fill-89" fill="#F1892D" mask="url(#mask-4)" points="27.9001 72.8073 23.8151 70.4463 24.5651 69.1473 28.6511 71.5083"></polygon>
                <path d="M31.8757,68.7687 L31.7167,68.7927 C31.6657,68.8077 31.6147,68.8207 31.5637,68.8327 C31.5377,68.8397 31.5117,68.8437 31.4857,68.8517 L31.4097,68.8797 L31.2577,68.9327 C31.2077,68.9567 31.1567,68.9807 31.1057,69.0027 L31.0297,69.0367 L30.9537,69.0807 L30.8007,69.1647 L30.6467,69.2687 C30.2327,69.5407 29.8147,69.9657 29.4147,70.4577 L25.7387,67.4997 C25.8917,67.3107 26.0457,67.1227 26.2177,66.9387 C26.3797,66.7527 26.5617,66.5707 26.7447,66.3907 C26.9247,66.2097 27.1317,66.0377 27.3277,65.8647 L27.6487,65.6147 L27.8107,65.4907 L27.9827,65.3737 L28.3307,65.1437 L28.7027,64.9337 L28.8907,64.8307 L29.0877,64.7377 L29.4847,64.5597 C29.6217,64.5067 29.7617,64.4577 29.8997,64.4097 L30.1077,64.3377 C30.1797,64.3167 30.2517,64.2997 30.3227,64.2807 L30.7537,64.1737 C30.8977,64.1447 31.0437,64.1237 31.1887,64.1007 L31.8757,68.7687 Z" id="Fill-90" fill="#F9BF3B" mask="url(#mask-4)"></path>
                <path d="M26.321,67.9728 L25.156,67.0278 C25.326,66.8188 25.481,66.6298 25.66,66.4368 C25.841,66.2298 26.035,66.0368 26.218,65.8558 C26.367,65.7058 26.531,65.5638 26.69,65.4258 L26.867,65.2728 L27.39,64.8698 L27.962,64.4918 L28.571,64.1518 L29.217,63.8588 C29.361,63.8038 29.507,63.7528 29.651,63.7018 L29.894,63.6198 C29.953,63.6018 30.013,63.5858 30.073,63.5708 L30.608,63.4378 C30.733,63.4128 30.859,63.3928 30.985,63.3728 L31.071,63.3598 L31.306,64.8408 L31.217,64.8548 C31.116,64.8708 31.015,64.8868 30.916,64.9058 L30.45,65.0228 C30.412,65.0328 30.374,65.0418 30.337,65.0528 L30.143,65.1188 C30.021,65.1618 29.896,65.2058 29.771,65.2528 L29.23,65.4988 L28.723,65.7838 L28.249,66.0998 L27.807,66.4418 C27.762,66.4808 27.718,66.5188 27.674,66.5578 C27.529,66.6838 27.393,66.8028 27.277,66.9188 C27.104,67.0888 26.93,67.2618 26.783,67.4308 L26.766,67.4498 C26.616,67.6118 26.475,67.7828 26.321,67.9728" id="Fill-91" fill="#F1892D" mask="url(#mask-4)"></path>
                <path d="M29.9968,70.9308 L28.8338,69.9838 C29.3278,69.3758 29.7858,68.9368 30.2338,68.6428 L30.4388,68.5078 L30.7298,68.3488 L30.8078,68.3158 C30.8448,68.2988 30.8848,68.2798 30.9248,68.2608 L31.0148,68.2228 L31.2788,68.1308 C31.3088,68.1218 31.3408,68.1148 31.3718,68.1078 L31.3918,68.1028 C31.4298,68.0948 31.4678,68.0838 31.5048,68.0728 L31.6058,68.0508 L31.7658,68.0268 L31.9858,69.5108 L31.8758,69.5268 C31.8288,69.5398 31.7818,69.5518 31.7348,69.5628 C31.7298,69.5648 31.7198,69.5668 31.7058,69.5698 L31.5448,69.6268 C31.4998,69.6488 31.4538,69.6688 31.4088,69.6898 L31.3148,69.7378 L31.1918,69.8058 L31.0668,69.8898 C30.7448,70.1018 30.3878,70.4508 29.9968,70.9308" id="Fill-92" fill="#F1892D" mask="url(#mask-4)"></path>
                <polygon id="Fill-93" fill="#F1892D" mask="url(#mask-4)" points="30.0281 69.6926 27.3641 65.7976 28.6021 64.9506 31.2651 68.8456"></polygon>
                <path d="M35.0183,69.5837 C34.4363,69.2717 33.8573,69.0257 33.3193,68.8837 L33.2183,68.8537 C33.1843,68.8457 33.1533,68.8417 33.1203,68.8347 L32.9253,68.7957 C32.8603,68.7777 32.7983,68.7747 32.7373,68.7687 L32.5523,68.7457 C32.4923,68.7397 32.4343,68.7437 32.3753,68.7407 C32.3183,68.7417 32.2573,68.7297 32.2033,68.7377 C32.0933,68.7507 31.9793,68.7427 31.8753,68.7687 L31.1893,64.1007 C31.4813,64.0467 31.7703,64.0407 32.0613,64.0217 C32.2063,64.0107 32.3473,64.0217 32.4903,64.0227 C32.6323,64.0287 32.7773,64.0287 32.9153,64.0417 L33.3303,64.0867 C33.4683,64.1037 33.6073,64.1187 33.7373,64.1477 L34.1333,64.2267 C34.1993,64.2407 34.2663,64.2527 34.3313,64.2687 L34.5193,64.3207 C35.5373,64.5907 36.4403,64.9927 37.2733,65.4387 L35.0183,69.5837 Z" id="Fill-94" fill="#F9BF3B" mask="url(#mask-4)"></path>
                <path d="M36.9187,66.1003 C35.9957,65.6053 35.1727,65.2693 34.3267,65.0453 L34.1447,64.9953 C34.1127,64.9873 34.0817,64.9813 34.0497,64.9753 L33.5757,64.8793 C33.4907,64.8613 33.3847,64.8493 33.2717,64.8353 L32.8437,64.7873 C32.7607,64.7813 32.6767,64.7793 32.5917,64.7763 L32.4767,64.7733 C32.4277,64.7723 32.3787,64.7713 32.3307,64.7693 C32.2467,64.7673 32.1757,64.7653 32.1147,64.7693 C32.0487,64.7733 31.9867,64.7773 31.9257,64.7803 C31.7127,64.7923 31.5107,64.8043 31.3237,64.8383 L31.0547,63.3623 C31.3327,63.3113 31.5917,63.2973 31.8417,63.2833 L32.0127,63.2733 C32.1457,63.2633 32.2687,63.2673 32.3767,63.2703 C32.4157,63.2713 32.4557,63.2733 32.4957,63.2733 L32.6327,63.2773 C32.7437,63.2803 32.8587,63.2833 32.9807,63.2933 L32.9987,63.2953 L33.4457,63.3463 C33.5817,63.3613 33.7347,63.3793 33.8907,63.4133 L34.3487,63.5053 C34.4027,63.5163 34.4567,63.5273 34.5087,63.5393 L34.7187,63.5973 C35.6727,63.8503 36.5997,64.2263 37.6277,64.7783 L36.9187,66.1003 Z" id="Fill-95" fill="#F1892D" mask="url(#mask-4)"></path>
                <path d="M34.6638,70.2448 C34.1018,69.9438 33.5858,69.7298 33.1278,69.6088 L33.0268,69.5798 C33.0088,69.5768 32.9888,69.5738 32.9708,69.5698 L32.7328,69.5208 C32.7298,69.5228 32.7148,69.5198 32.6998,69.5188 L32.4758,69.4918 L32.4488,69.4918 C32.4198,69.4928 32.3898,69.4918 32.3578,69.4908 C32.3248,69.4908 32.2918,69.4888 32.2588,69.4858 C32.2088,69.4908 32.1588,69.4938 32.1098,69.4958 C32.0858,69.4968 32.0618,69.4968 32.0398,69.4998 C32.0458,69.4988 32.0528,69.4978 32.0588,69.4958 L31.6928,68.0408 C31.8298,68.0068 31.9528,68.0018 32.0418,67.9968 C32.0648,67.9958 32.0878,67.9958 32.1098,67.9938 C32.2148,67.9798 32.3038,67.9858 32.3568,67.9898 L32.3768,67.9908 L32.4028,67.9908 L32.4158,67.9918 C32.4278,67.9928 32.4378,67.9918 32.4488,67.9918 L32.4508,67.9918 C32.5088,67.9928 32.5648,67.9938 32.6248,67.9988 L32.8448,68.0258 C32.9028,68.0308 32.9898,68.0398 33.0908,68.0638 L33.2878,68.1028 C33.3238,68.1098 33.3598,68.1168 33.3958,68.1248 L33.5208,68.1618 C34.0888,68.3118 34.7118,68.5688 35.3728,68.9228 L34.6638,70.2448 Z" id="Fill-96" fill="#F1892D" mask="url(#mask-4)"></path>
                <polygon id="Fill-97" fill="#F1892D" mask="url(#mask-4)" points="34.0447 69.0744 32.5937 68.6934 33.7947 64.1294 35.2447 64.5114"></polygon>
                <path d="M53.5447,75.4914 C53.4597,75.6074 53.3917,76.3034 54.1567,77.9224 C54.7377,79.1524 55.5637,80.3984 56.0437,80.9464 C56.4297,81.3854 56.9147,81.6274 57.3757,81.6044 C57.7747,81.5864 58.1297,81.3814 58.3987,81.0114 C59.0707,80.0884 58.9377,78.5064 58.1047,77.5574 C57.3837,76.7364 54.9827,75.3754 53.8047,75.4274 C53.6247,75.4354 53.5547,75.4774 53.5447,75.4914 M57.3197,83.1064 C56.4427,83.1064 55.5727,82.6844 54.9157,81.9354 C54.3767,81.3204 50.9347,76.5274 52.3317,74.6084 C52.5437,74.3174 52.9587,73.9644 53.7367,73.9294 C55.4817,73.8474 58.2737,75.4754 59.2317,76.5684 C60.5367,78.0554 60.7037,80.3954 59.6107,81.8944 C59.0717,82.6354 58.3027,83.0644 57.4437,83.1034 C57.4027,83.1054 57.3607,83.1064 57.3197,83.1064" id="Fill-98" fill="#19B5FE" mask="url(#mask-4)"></path>
                <path d="M54.1511,74.778 C54.0841,75.21 54.5611,76.04 56.1061,77.075 C57.3851,77.932 58.9341,78.606 59.7431,78.804 C60.3441,78.952 60.9621,78.843 61.4821,78.497 C62.1081,78.08 62.5441,77.357 62.6761,76.512 C62.9391,74.843 61.9851,73.198 60.5491,72.845 C59.4171,72.567 56.3421,72.97 54.8371,73.972 C54.5511,74.161 54.2021,74.454 54.1511,74.778 M60.2741,80.369 C59.9791,80.369 59.6811,80.334 59.3841,80.261 C57.6181,79.827 52.2401,77.282 52.6701,74.545 C52.7781,73.853 53.2271,73.24 54.0051,72.723 C55.7971,71.531 59.2971,70.993 60.9071,71.389 C63.0801,71.923 64.5391,74.325 64.1591,76.745 C63.9611,78.003 63.2881,79.097 62.3121,79.746 C61.6941,80.158 60.9921,80.369 60.2741,80.369" id="Fill-99" fill="#C72C1C" mask="url(#mask-4)"></path>
                <path d="M49.2136,60.0231 C47.5696,59.8791 44.8776,59.8321 43.2296,59.9191 L34.1586,60.3931 C32.5116,60.4791 31.1396,61.8991 31.1106,63.5491 L30.9606,72.1711 C30.9316,73.8211 32.2106,75.5261 33.8026,75.9611 L42.9906,78.4681 C44.5826,78.9021 47.1986,78.9481 48.8056,78.5691 L58.0756,76.3841 C59.6826,76.0061 61.0196,74.3461 61.0486,72.6961 L61.1986,64.0741 C61.2276,62.4241 59.9056,60.9571 58.2626,60.8131 L49.2136,60.0231 Z" id="Fill-100" fill="#A5B5B6" mask="url(#mask-4)"></path>
                <path d="M58.1179,73.985 L48.8469,76.17 C47.2409,76.548 44.6249,76.503 43.0329,76.068 L33.8439,73.561 C32.2519,73.127 30.9729,71.422 31.0019,69.772 L30.9609,72.172 C30.9309,73.821 32.2109,75.527 33.8029,75.961 L42.9909,78.468 C44.5829,78.902 47.1989,78.948 48.8049,78.569 L58.0759,76.384 C59.6819,76.006 61.0189,74.346 61.0489,72.696 L61.0909,70.297 C61.0609,71.947 59.7239,73.606 58.1179,73.985" id="Fill-101" fill="#859596" mask="url(#mask-4)"></path>
                <path d="M45.1951,60.6247 C44.4891,60.6247 43.8201,60.6387 43.2681,60.6667 L34.1981,61.1417 C32.9531,61.2067 31.8821,62.3147 31.8601,63.5617 L31.7101,72.1847 C31.6871,73.4947 32.7361,74.8927 34.0001,75.2377 L43.1881,77.7447 C44.6581,78.1457 47.1511,78.1887 48.6331,77.8397 L57.9041,75.6547 C59.1791,75.3537 60.2761,73.9937 60.2991,72.6837 L60.4491,64.0607 C60.4701,62.8137 59.4391,61.6687 58.1971,61.5607 L49.1491,60.7707 C48.0801,60.6767 46.5661,60.6247 45.1951,60.6247 M46.1731,79.5787 C44.9651,79.5787 43.7321,79.4477 42.7941,79.1917 L33.6041,76.6847 C31.6661,76.1557 30.1751,74.1677 30.2111,72.1587 L30.3611,63.5357 C30.3961,61.4967 32.0831,59.7497 34.1201,59.6437 L43.1901,59.1697 C44.8711,59.0817 47.6021,59.1287 49.2791,59.2757 L58.3281,60.0657 C60.3601,60.2437 61.9841,62.0467 61.9491,64.0867 L61.7991,72.7097 C61.7631,74.7187 60.2041,76.6537 58.2481,77.1147 L48.9771,79.2997 C48.1831,79.4867 47.1861,79.5787 46.1731,79.5787" id="Fill-102" fill="#354546" mask="url(#mask-4)"></path>
                <polygon id="Fill-103" fill="#556566" mask="url(#mask-4)" points="49.1072 73.1008 36.0312 72.8728 36.1922 63.6738 49.2672 63.9018"></polygon>
                <path d="M44.6911,71.1623 C44.4351,71.1623 44.1931,71.0303 44.0551,70.8083 L43.0171,69.1433 L41.4001,69.1153 C41.1491,69.1113 40.9171,68.9813 40.7811,68.7693 L40.7131,68.6633 L40.2771,69.6803 C40.1791,69.9073 39.9771,70.0713 39.7351,70.1203 C39.4931,70.1673 39.2421,70.0943 39.0651,69.9213 L38.1781,69.0593 L36.0981,69.0233 C35.6841,69.0163 35.3541,68.6743 35.3621,68.2603 C35.3691,67.8463 35.7131,67.5143 36.1251,67.5233 L38.5021,67.5653 C38.6931,67.5683 38.8751,67.6443 39.0111,67.7773 L39.3301,68.0863 L39.8951,66.7693 C40.0041,66.5143 40.2471,66.3403 40.5241,66.3183 C40.8001,66.2943 41.0671,66.4283 41.2161,66.6623 L41.8291,67.6223 L43.4511,67.6513 C43.7061,67.6553 43.9401,67.7883 44.0751,68.0043 L44.4691,68.6373 L45.2821,66.0843 C45.3791,65.7763 45.6641,65.5653 45.9871,65.5613 C46.3111,65.5563 46.6001,65.7613 46.7061,66.0663 L47.2761,67.7183 L49.2001,67.7513 C49.6151,67.7583 49.9441,68.1003 49.9371,68.5143 C49.9301,68.9243 49.5951,69.2513 49.1871,69.2513 L49.1741,69.2513 L46.7251,69.2083 C46.4101,69.2033 46.1311,69.0013 46.0291,68.7043 L46.0251,68.6933 L45.4061,70.6403 C45.3171,70.9183 45.0751,71.1203 44.7851,71.1563 C44.7531,71.1603 44.7221,71.1623 44.6911,71.1623" id="Fill-104" fill="#D5E5E6" mask="url(#mask-4)"></path>
                <path d="M36.7937,72.1359 L48.3697,72.3379 L48.5047,64.6389 L36.9287,64.4369 L36.7937,72.1359 Z M49.1067,73.8509 L49.0947,73.8509 L36.0187,73.6219 C35.6047,73.6149 35.2737,73.2739 35.2807,72.8599 L35.4417,63.6609 C35.4447,63.4619 35.5277,63.2729 35.6707,63.1349 C35.8147,62.9959 36.0057,62.9169 36.2047,62.9239 L49.2807,63.1529 C49.6947,63.1589 50.0247,63.5009 50.0177,63.9149 L49.8567,73.1139 C49.8537,73.3129 49.7717,73.5019 49.6277,73.6399 C49.4877,73.7759 49.3017,73.8509 49.1067,73.8509 L49.1067,73.8509 Z" id="Fill-105" fill="#354546" mask="url(#mask-4)"></path>
                <path d="M56.0857,65.7966 C56.0677,66.7766 55.2607,67.5576 54.2797,67.5406 C53.2997,67.5236 52.5197,66.7146 52.5357,65.7346 C52.5537,64.7546 53.3617,63.9736 54.3417,63.9906 C55.3217,64.0076 56.1027,64.8166 56.0857,65.7966" id="Fill-106" fill="#F85C4C" mask="url(#mask-4)"></path>
                <path d="M54.3103,64.7404 C53.7533,64.7404 53.2953,65.1884 53.2863,65.7474 C53.2763,66.3124 53.7283,66.7804 54.2923,66.7904 C54.5643,66.7934 54.8263,66.6934 55.0233,66.5024 C55.2193,66.3124 55.3313,66.0564 55.3353,65.7834 C55.3453,65.2184 54.8943,64.7504 54.3293,64.7404 L54.3103,64.7404 Z M54.3123,68.2904 L54.2663,68.2904 C52.8743,68.2654 51.7623,67.1134 51.7863,65.7214 C51.8103,64.3294 52.9643,63.2134 54.3553,63.2404 C55.7473,63.2654 56.8603,64.4174 56.8353,65.8094 C56.8243,66.4834 56.5493,67.1134 56.0653,67.5814 C55.5903,68.0394 54.9693,68.2904 54.3123,68.2904 L54.3123,68.2904 Z" id="Fill-107" fill="#C72C1C" mask="url(#mask-4)"></path>
                <path d="M55.987,71.4455 C55.969,72.4255 55.162,73.2065 54.181,73.1895 C53.201,73.1725 52.421,72.3635 52.437,71.3835 C52.455,70.4035 53.263,69.6225 54.243,69.6395 C55.223,69.6565 56.004,70.4655 55.987,71.4455" id="Fill-108" fill="#B9D96D" mask="url(#mask-4)"></path>
                <path d="M55.987,71.4455 L55.988,71.4455 L55.987,71.4455 Z M54.212,70.3895 C53.945,70.3895 53.693,70.4915 53.5,70.6775 C53.303,70.8675 53.192,71.1235 53.187,71.3965 C53.177,71.9615 53.63,72.4295 54.194,72.4395 C54.47,72.4465 54.727,72.3415 54.925,72.1525 C55.121,71.9615 55.232,71.7065 55.237,71.4325 C55.247,70.8675 54.796,70.3995 54.23,70.3895 L54.212,70.3895 L54.212,70.3895 Z M54.213,73.9395 L54.169,73.9395 C52.776,73.9145 51.664,72.7625 51.687,71.3705 C51.712,69.9785 52.869,68.8635 54.257,68.8895 C55.648,68.9145 56.761,70.0665 56.737,71.4585 C56.713,72.8355 55.585,73.9395 54.213,73.9395 L54.213,73.9395 Z" id="Fill-109" fill="#719911" mask="url(#mask-4)"></path>
                <path d="M35.8435,62.5456 C35.4835,62.5456 35.1645,62.2846 35.1045,61.9176 L34.7005,59.4646 C34.6335,59.0556 34.9095,58.6706 35.3195,58.6026 C35.7285,58.5346 36.1145,58.8126 36.1805,59.2206 L36.5845,61.6736 C36.6525,62.0826 36.3745,62.4676 35.9665,62.5356 C35.9255,62.5426 35.8845,62.5456 35.8435,62.5456" id="Fill-110" fill="#354546" mask="url(#mask-4)"></path>
                <path d="M38.8035,62.0583 C38.4435,62.0583 38.1245,61.7973 38.0655,61.4303 L37.6605,58.9773 C37.5935,58.5683 37.8705,58.1823 38.2795,58.1153 C38.6885,58.0473 39.0745,58.3253 39.1415,58.7333 L39.5445,61.1863 C39.6125,61.5953 39.3355,61.9803 38.9265,62.0483 C38.8855,62.0553 38.8445,62.0583 38.8035,62.0583" id="Fill-111" fill="#354546" mask="url(#mask-4)"></path>
                <path d="M56.1482,62.5456 C56.1072,62.5456 56.0662,62.5426 56.0252,62.5356 C55.6172,62.4676 55.3392,62.0826 55.4072,61.6736 L55.8112,59.2206 C55.8782,58.8126 56.2632,58.5356 56.6722,58.6026 C57.0822,58.6706 57.3582,59.0556 57.2912,59.4646 L56.8872,61.9176 C56.8272,62.2846 56.5082,62.5456 56.1482,62.5456" id="Fill-112" fill="#354546" mask="url(#mask-4)"></path>
                <path d="M53.1882,62.0583 C53.1472,62.0583 53.1062,62.0553 53.0652,62.0483 C52.6562,61.9803 52.3792,61.5953 52.4472,61.1863 L52.8502,58.7333 C52.9172,58.3253 53.3032,58.0473 53.7122,58.1153 C54.1212,58.1823 54.3982,58.5683 54.3312,58.9773 L53.9272,61.4303 C53.8672,61.7973 53.5482,62.0583 53.1882,62.0583" id="Fill-113" fill="#354546" mask="url(#mask-4)"></path>
                <polygon id="Fill-114" fill="#A5B5B6" mask="url(#mask-4)" points="32.903 107.86 37.59 107.86 37.59 98.86 32.903 98.86"></polygon>
                <polygon id="Fill-115" fill="#C5D5D6" mask="url(#mask-4)" points="32.903 102.436 37.59 102.436 37.59 98.86 32.903 98.86"></polygon>
                <path d="M33.652,107.11 L36.84,107.11 L36.84,99.61 L33.652,99.61 L33.652,107.11 Z M37.59,108.61 L32.902,108.61 C32.488,108.61 32.152,108.274 32.152,107.86 L32.152,98.86 C32.152,98.445 32.488,98.11 32.902,98.11 L37.59,98.11 C38.004,98.11 38.34,98.445 38.34,98.86 L38.34,107.86 C38.34,108.274 38.004,108.61 37.59,108.61 L37.59,108.61 Z" id="Fill-116" fill="#354546" mask="url(#mask-4)"></path>
                <polygon id="Fill-117" fill="#A5B5B6" mask="url(#mask-4)" points="29.723 106.097 32.908 106.097 32.908 90.197 29.723 90.197"></polygon>
                <path d="M30.473,105.347 L32.158,105.347 L32.158,90.947 L30.473,90.947 L30.473,105.347 Z M32.908,106.847 L29.723,106.847 C29.308,106.847 28.973,106.511 28.973,106.097 L28.973,90.197 C28.973,89.783 29.308,89.447 29.723,89.447 L32.908,89.447 C33.322,89.447 33.658,89.783 33.658,90.197 L33.658,106.097 C33.658,106.511 33.322,106.847 32.908,106.847 L32.908,106.847 Z" id="Fill-118" fill="#354546" mask="url(#mask-4)"></path>
                <path d="M31.3816,84.6843 L31.2486,84.6843 C29.5996,84.6843 28.2486,86.0343 28.2486,87.6843 L28.2486,94.8093 L34.3816,94.8093 L34.3816,87.6843 C34.3816,86.0343 33.0316,84.6843 31.3816,84.6843" id="Fill-119" fill="#A5B5B6" mask="url(#mask-4)"></path>
                <path d="M31.3816,84.6843 L31.2486,84.6843 C29.5996,84.6843 28.2486,86.0343 28.2486,87.6843 L28.2486,90.4223 C28.2486,88.7723 29.5996,87.4223 31.2486,87.4223 L31.3816,87.4223 C33.0316,87.4223 34.3816,88.7723 34.3816,90.4223 L34.3816,87.6843 C34.3816,86.0343 33.0316,84.6843 31.3816,84.6843" id="Fill-120" fill="#C5D5D6" mask="url(#mask-4)"></path>
                <path d="M28.9997,94.0593 L33.6317,94.0593 L33.6317,87.6843 C33.6317,86.4443 32.6227,85.4343 31.3817,85.4343 L31.2497,85.4343 C30.0087,85.4343 28.9997,86.4443 28.9997,87.6843 L28.9997,94.0593 Z M34.3817,95.5593 L28.2497,95.5593 C27.8347,95.5593 27.4997,95.2243 27.4997,94.8093 L27.4997,87.6843 C27.4997,85.6173 29.1817,83.9343 31.2497,83.9343 L31.3817,83.9343 C33.4497,83.9343 35.1317,85.6173 35.1317,87.6843 L35.1317,94.8093 C35.1317,95.2243 34.7957,95.5593 34.3817,95.5593 L34.3817,95.5593 Z" id="Fill-121" fill="#354546" mask="url(#mask-4)"></path>
                <polygon id="Fill-122" fill="#A5B5B6" mask="url(#mask-4)" points="54.027 107.86 58.714 107.86 58.714 98.86 54.027 98.86"></polygon>
                <polygon id="Fill-123" fill="#C5D5D6" mask="url(#mask-4)" points="54.027 102.436 58.714 102.436 58.714 98.86 54.027 98.86"></polygon>
                <path d="M54.777,107.11 L57.965,107.11 L57.965,99.61 L54.777,99.61 L54.777,107.11 Z M58.715,108.61 L54.027,108.61 C53.613,108.61 53.277,108.274 53.277,107.86 L53.277,98.86 C53.277,98.445 53.613,98.11 54.027,98.11 L58.715,98.11 C59.129,98.11 59.465,98.445 59.465,98.86 L59.465,107.86 C59.465,108.274 59.129,108.61 58.715,108.61 L58.715,108.61 Z" id="Fill-124" fill="#354546" mask="url(#mask-4)"></path>
                <polygon id="Fill-125" fill="#A5B5B6" mask="url(#mask-4)" points="58.708 106.097 61.894 106.097 61.894 90.197 58.708 90.197"></polygon>
                <path d="M59.458,105.347 L61.144,105.347 L61.144,90.947 L59.458,90.947 L59.458,105.347 Z M61.893,106.847 L58.708,106.847 C58.294,106.847 57.958,106.511 57.958,106.097 L57.958,90.197 C57.958,89.783 58.294,89.447 58.708,89.447 L61.893,89.447 C62.307,89.447 62.643,89.783 62.643,90.197 L62.643,106.097 C62.643,106.511 62.307,106.847 61.893,106.847 L61.893,106.847 Z" id="Fill-126" fill="#354546" mask="url(#mask-4)"></path>
                <path d="M60.2341,84.6843 L60.3671,84.6843 C62.0161,84.6843 63.3671,86.0343 63.3671,87.6843 L63.3671,94.8093 L57.2341,94.8093 L57.2341,87.6843 C57.2341,86.0343 58.5851,84.6843 60.2341,84.6843" id="Fill-127" fill="#A5B5B6" mask="url(#mask-4)"></path>
                <path d="M60.2341,84.6843 L60.3671,84.6843 C62.0161,84.6843 63.3671,86.0343 63.3671,87.6843 L63.3671,90.4223 C63.3671,88.7723 62.0161,87.4223 60.3671,87.4223 L60.2341,87.4223 C58.5851,87.4223 57.2341,88.7723 57.2341,90.4223 L57.2341,87.6843 C57.2341,86.0343 58.5851,84.6843 60.2341,84.6843" id="Fill-128" fill="#C5D5D6" mask="url(#mask-4)"></path>
                <path d="M57.9841,94.0593 L62.6171,94.0593 L62.6171,87.6843 C62.6171,86.4443 61.6071,85.4343 60.3671,85.4343 L60.2341,85.4343 C58.9941,85.4343 57.9841,86.4443 57.9841,87.6843 L57.9841,94.0593 Z M63.3671,95.5593 L57.2341,95.5593 C56.8201,95.5593 56.4841,95.2243 56.4841,94.8093 L56.4841,87.6843 C56.4841,85.6173 58.1671,83.9343 60.2341,83.9343 L60.3671,83.9343 C62.4341,83.9343 64.1171,85.6173 64.1171,87.6843 L64.1171,94.8093 C64.1171,95.2243 63.7811,95.5593 63.3671,95.5593 L63.3671,95.5593 Z" id="Fill-129" fill="#354546" mask="url(#mask-4)"></path>
                <path d="M53.8894,115.3596 C53.8894,117.0096 52.5384,118.3596 50.8894,118.3596 L40.5894,118.3596 C38.9394,118.3596 37.5894,117.0096 37.5894,115.3596 L37.5894,91.3596 C37.5894,89.7096 38.9394,88.3596 40.5894,88.3596 L50.8894,88.3596 C52.5384,88.3596 53.8894,89.7096 53.8894,91.3596 L53.8894,115.3596 Z" id="Fill-130" fill="#6D6D6D" mask="url(#mask-4)"></path>
                <path d="M50.8894,113.7844 L40.5894,113.7844 C39.2484,113.7844 38.0084,112.8944 37.5894,111.6764 L37.5894,115.3594 C37.5894,117.0094 38.9394,118.3594 40.5894,118.3594 L50.8894,118.3594 C52.5384,118.3594 53.8894,117.0094 53.8894,115.3594 L53.8894,111.6764 C53.4704,112.8944 52.2294,113.7844 50.8894,113.7844" id="Fill-131" fill="#5B5B5B" mask="url(#mask-4)"></path>
                <polygon id="Fill-132" fill="#929292" mask="url(#mask-4)" points="53.7986 101.4098 37.5896 100.0588 37.6796 96.0098 53.7986 96.0098"></polygon>
                <polygon id="Fill-133" fill="#929292" mask="url(#mask-4)" points="53.7986 104.5593 37.6796 105.6633 37.6796 102.9633 53.7986 102.9633"></polygon>
                <path d="M40.5896,89.1095 C39.3486,89.1095 38.3396,90.1185 38.3396,91.3595 L38.3396,115.3595 C38.3396,116.6005 39.3486,117.6095 40.5896,117.6095 L50.8896,117.6095 C52.1296,117.6095 53.1396,116.6005 53.1396,115.3595 L53.1396,91.3595 C53.1396,90.1185 52.1296,89.1095 50.8896,89.1095 L40.5896,89.1095 Z M50.8896,119.1095 L40.5896,119.1095 C38.5216,119.1095 36.8396,117.4275 36.8396,115.3595 L36.8396,91.3595 C36.8396,89.2915 38.5216,87.6095 40.5896,87.6095 L50.8896,87.6095 C52.9566,87.6095 54.6396,89.2915 54.6396,91.3595 L54.6396,115.3595 C54.6396,117.4275 52.9566,119.1095 50.8896,119.1095 L50.8896,119.1095 Z" id="Fill-134" fill="#121212" mask="url(#mask-4)"></path>
                <path d="M53.9255,84.6843 L37.5525,84.6843 C35.7705,84.6843 34.3135,86.0343 34.3135,87.6843 L34.3135,92.0343 L57.1655,92.0343 L57.1655,87.6843 C57.1655,86.0343 55.7075,84.6843 53.9255,84.6843" id="Fill-135" fill="#A5B5B6" mask="url(#mask-4)"></path>
                <path d="M53.9255,84.6843 L37.5525,84.6843 C35.7705,84.6843 34.3135,86.0343 34.3135,87.6843 L57.1655,87.6843 C57.1655,86.0343 55.7075,84.6843 53.9255,84.6843" id="Fill-136" fill="#C5D5D6" mask="url(#mask-4)"></path>
                <path d="M35.0632,91.2844 L56.4162,91.2844 L56.4162,87.6844 C56.4162,86.4444 55.2982,85.4344 53.9262,85.4344 L37.5522,85.4344 C36.1792,85.4344 35.0632,86.4444 35.0632,87.6844 L35.0632,91.2844 Z M57.1662,92.7844 L34.3132,92.7844 C33.8982,92.7844 33.5632,92.4494 33.5632,92.0344 L33.5632,87.6844 C33.5632,85.6174 35.3522,83.9344 37.5522,83.9344 L53.9262,83.9344 C56.1252,83.9344 57.9162,85.6174 57.9162,87.6844 L57.9162,92.0344 C57.9162,92.4494 57.5802,92.7844 57.1662,92.7844 L57.1662,92.7844 Z" id="Fill-137" fill="#354546" mask="url(#mask-4)"></path>
                <path d="M41.239,86.8654 C40.825,86.8654 40.489,86.5294 40.489,86.1154 L40.489,83.6294 C40.489,83.2154 40.825,82.8794 41.239,82.8794 C41.653,82.8794 41.989,83.2154 41.989,83.6294 L41.989,86.1154 C41.989,86.5294 41.653,86.8654 41.239,86.8654" id="Fill-138" fill="#354546" mask="url(#mask-4)"></path>
                <path d="M44.239,86.8654 C43.825,86.8654 43.489,86.5294 43.489,86.1154 L43.489,83.6294 C43.489,83.2154 43.825,82.8794 44.239,82.8794 C44.653,82.8794 44.989,83.2154 44.989,83.6294 L44.989,86.1154 C44.989,86.5294 44.653,86.8654 44.239,86.8654" id="Fill-139" fill="#354546" mask="url(#mask-4)"></path>
                <path d="M47.239,86.8654 C46.825,86.8654 46.489,86.5294 46.489,86.1154 L46.489,83.6294 C46.489,83.2154 46.825,82.8794 47.239,82.8794 C47.653,82.8794 47.989,83.2154 47.989,83.6294 L47.989,86.1154 C47.989,86.5294 47.653,86.8654 47.239,86.8654" id="Fill-140" fill="#354546" mask="url(#mask-4)"></path>
                <path d="M50.239,86.8654 C49.825,86.8654 49.489,86.5294 49.489,86.1154 L49.489,83.6294 C49.489,83.2154 49.825,82.8794 50.239,82.8794 C50.653,82.8794 50.989,83.2154 50.989,83.6294 L50.989,86.1154 C50.989,86.5294 50.653,86.8654 50.239,86.8654" id="Fill-141" fill="#354546" mask="url(#mask-4)"></path>
                <path d="M68.0906,21.1115 L68.0586,21.1115 C67.6446,21.0935 67.3226,20.7435 67.3406,20.3295 L67.7706,10.2075 C67.8356,8.4185 67.1946,6.7005 65.9636,5.3755 C64.7336,4.0495 63.0676,3.2835 61.2746,3.2175 C61.2666,3.2165 61.2596,3.2165 61.2526,3.2165 L35.1926,1.5035 C31.4786,1.3725 28.3456,4.2845 28.2076,8.0005 L27.7786,18.8745 C27.7626,19.2875 27.4146,19.6095 26.9996,19.5935 C26.5856,19.5775 26.2636,19.2285 26.2796,18.8155 L26.7086,7.9435 C26.8766,3.3995 30.7136,-0.1625 35.2586,0.0055 C35.2656,0.0055 35.2726,0.0065 35.2796,0.0065 L61.3406,1.7185 C63.5296,1.8025 65.5616,2.7385 67.0636,4.3545 C68.5666,5.9735 69.3496,8.0735 69.2696,10.2675 L68.8396,20.3935 C68.8216,20.7965 68.4896,21.1115 68.0906,21.1115" id="Fill-142" fill="#354546" mask="url(#mask-4)"></path>
                <path d="M22.7458,19.7629 C21.4528,19.7149 20.3448,21.0249 20.2828,22.6739 L19.9088,32.8079 C19.8488,34.4569 20.8558,35.8449 22.1498,35.8929 C23.4438,35.9409 24.5028,35.9799 24.5028,35.9799 L25.0988,19.8499 C25.0988,19.8499 24.0398,19.8109 22.7458,19.7629" id="Fill-143" fill="#A5B5B6" mask="url(#mask-4)"></path>
                <path d="M20.2829,22.674 L20.0999,27.634 L24.8039,27.808 L25.0979,19.85 C25.0979,19.85 24.0399,19.811 22.7459,19.763 C21.4529,19.715 20.3449,21.025 20.2829,22.674" id="Fill-144" fill="#C5D5D6" mask="url(#mask-4)"></path>
                <path d="M24.4753,36.7292 L22.1223,36.6422 C21.2743,36.6112 20.4693,36.1552 19.9143,35.3922 C19.3923,34.6722 19.1233,33.7452 19.1603,32.7802 L19.5343,22.6462 C19.5693,21.6822 19.9053,20.7772 20.4803,20.0982 C21.0893,19.3772 21.9263,18.9792 22.7743,19.0132 L25.1263,19.1002 L25.0713,20.5992 L22.7183,20.5122 C22.3293,20.4962 21.9393,20.6952 21.6243,21.0662 C21.2713,21.4842 21.0553,22.0802 21.0333,22.7022 L20.6583,32.8352 C20.6353,33.4572 20.8063,34.0672 21.1283,34.5102 C21.4143,34.9042 21.7873,35.1282 22.1783,35.1432 L24.5303,35.2302 L24.4753,36.7292 Z" id="Fill-145" fill="#354546" mask="url(#mask-4)"></path>
                <polygon id="Fill-146" fill="#859596" mask="url(#mask-4)" points="28.8181 38.5383 24.4141 38.3753 25.1381 18.7743 29.5431 18.9373"></polygon>
                <polygon id="Fill-147" fill="#A5B5B6" mask="url(#mask-4)" points="29.1277 30.152 24.7247 29.989 25.1387 18.775 29.5427 18.937"></polygon>
                <path d="M25.1911,37.654 L28.0961,37.761 L28.7651,19.659 L25.8601,19.552 L25.1911,37.654 Z M28.8181,39.288 L28.7911,39.288 L24.3861,39.125 C23.9721,39.11 23.6491,38.762 23.6651,38.348 L24.3881,18.747 C24.4041,18.333 24.7531,18.008 25.1661,18.025 L29.5701,18.188 C29.7691,18.195 29.9571,18.281 30.0911,18.427 C30.2271,18.573 30.2991,18.766 30.2921,18.965 L29.5681,38.566 C29.5601,38.765 29.4741,38.953 29.3291,39.088 C29.1901,39.217 29.0071,39.288 28.8181,39.288 L28.8181,39.288 Z" id="Fill-148" fill="#354546" mask="url(#mask-4)"></path>
                <path d="M20.1003,28.384 L20.0983,28.384 L18.2973,28.38 C17.8833,28.38 17.5483,28.043 17.5483,27.629 C17.5493,27.215 17.8853,26.88 18.2983,26.88 L18.3003,26.88 L20.1013,26.884 C20.5153,26.884 20.8503,27.221 20.8503,27.635 C20.8493,28.049 20.5133,28.384 20.1003,28.384" id="Fill-149" fill="#354546" mask="url(#mask-4)"></path>
                <path d="M75.1746,10.5544 C75.0886,10.5544 75.0016,10.5444 74.9146,10.5214 C74.3526,10.3784 74.0136,9.8074 74.1556,9.2454 L74.9336,6.1964 C75.0756,5.6354 75.6476,5.2954 76.2096,5.4384 C76.7716,5.5814 77.1116,6.1534 76.9676,6.7154 L76.1916,9.7634 C76.0706,10.2384 75.6436,10.5544 75.1746,10.5544" id="Fill-150" fill="#354546" mask="url(#mask-4)"></path>
                <path d="M72.0964,22.3366 C72.0344,22.3366 71.9724,22.3286 71.9104,22.3136 C71.5094,22.2106 71.2664,21.8026 71.3684,21.4006 L74.4474,9.3186 C74.5494,8.9176 74.9574,8.6746 75.3594,8.7776 C75.7604,8.8796 76.0024,9.2886 75.9004,9.6896 L72.8224,21.7716 C72.7364,22.1106 72.4314,22.3366 72.0964,22.3366" id="Fill-151" fill="#354546" mask="url(#mask-4)"></path>
                <path d="M72.0955,21.5861 C73.3895,21.6341 74.3985,23.0221 74.3365,24.6711 L73.9625,34.8051 C73.9025,36.4541 72.7935,37.7641 71.4995,37.7161 C70.2055,37.6681 69.1475,37.6291 69.1475,37.6291 L69.7435,21.4991 C69.7435,21.4991 70.8015,21.5381 72.0955,21.5861" id="Fill-152" fill="#A5B5B6" mask="url(#mask-4)"></path>
                <path d="M74.3367,24.6711 L74.1537,29.6311 L69.4487,29.4571 L69.7437,21.4991 C69.7437,21.4991 70.8017,21.5381 72.0957,21.5861 C73.3897,21.6341 74.3987,23.0221 74.3367,24.6711" id="Fill-153" fill="#C5D5D6" mask="url(#mask-4)"></path>
                <path d="M71.5662,38.467 C71.5352,38.467 71.5042,38.467 71.4722,38.466 L69.1202,38.379 L69.1752,36.88 L71.5272,36.967 C71.9152,36.981 72.3062,36.784 72.6212,36.412 C72.9742,35.994 73.1902,35.399 73.2132,34.777 L73.5872,24.643 C73.6112,24.022 73.4392,23.412 73.1182,22.969 C72.8322,22.575 72.4592,22.35 72.0682,22.336 L69.7152,22.249 L69.7712,20.75 L72.1242,20.837 C72.9712,20.868 73.7762,21.324 74.3312,22.088 C74.8542,22.807 75.1232,23.734 75.0872,24.699 L74.7122,34.833 C74.6762,35.797 74.3402,36.702 73.7662,37.381 C73.1792,38.075 72.3812,38.467 71.5662,38.467" id="Fill-154" fill="#354546" mask="url(#mask-4)"></path>
                <polygon id="Fill-155" fill="#859596" mask="url(#mask-4)" points="64.655 39.8625 69.059 40.0255 69.783 20.4245 65.379 20.2615"></polygon>
                <polygon id="Fill-156" fill="#A5B5B6" mask="url(#mask-4)" points="64.9646 31.4758 69.3686 31.6388 69.7826 20.4238 65.3786 20.2618"></polygon>
                <path d="M65.4324,39.1408 L68.3364,39.2478 L69.0054,21.1458 L66.1004,21.0378 L65.4324,39.1408 Z M69.0594,40.7748 L69.0314,40.7748 L64.6264,40.6118 C64.4284,40.6048 64.2414,40.5188 64.1054,40.3728 C63.9694,40.2268 63.8984,40.0338 63.9054,39.8348 L64.6294,20.2338 C64.6364,20.0348 64.7224,19.8468 64.8694,19.7118 C65.0144,19.5768 65.2084,19.5038 65.4074,19.5118 L69.8114,19.6748 C70.2244,19.6898 70.5474,20.0378 70.5334,20.4518 L69.8084,40.0528 C69.7934,40.4568 69.4604,40.7748 69.0594,40.7748 L69.0594,40.7748 Z" id="Fill-157" fill="#354546" mask="url(#mask-4)"></path>
                <path d="M75.9509,30.5104 C75.9329,30.5104 75.9149,30.5094 75.8959,30.5084 L74.0999,30.3794 C73.6869,30.3494 73.3759,29.9904 73.4059,29.5774 C73.4349,29.1634 73.7969,28.8544 74.2079,28.8834 L76.0049,29.0124 C76.4179,29.0424 76.7279,29.4014 76.6989,29.8144 C76.6699,30.2084 76.3409,30.5104 75.9509,30.5104" id="Fill-158" fill="#354546" mask="url(#mask-4)"></path>
                <path d="M28.7497,44.676 C27.7237,44.676 25.1157,45.79 24.0097,47.051 C23.0707,48.12 22.9207,49.906 23.6817,50.95 C23.9917,51.378 24.4017,51.614 24.8667,51.635 C25.3987,51.657 25.9547,51.385 26.3957,50.884 C26.9287,50.277 27.8417,48.896 28.4857,47.534 C29.3177,45.773 29.2857,44.962 29.1527,44.779 C29.1117,44.723 28.9827,44.685 28.8087,44.677 C28.7897,44.676 28.7707,44.676 28.7497,44.676 M24.9317,53.137 C24.8867,53.137 24.8427,53.136 24.7987,53.134 C23.8767,53.092 23.0497,52.63 22.4687,51.834 C21.2857,50.21 21.4677,47.674 22.8827,46.061 C23.9297,44.868 26.9787,43.093 28.8767,43.179 C29.7027,43.216 30.1427,43.589 30.3647,43.896 C30.9777,44.736 30.8067,46.135 29.8417,48.176 C29.1317,49.677 28.1377,51.172 27.5227,51.873 C26.8137,52.681 25.8757,53.137 24.9317,53.137" id="Fill-159" fill="#19B5FE" mask="url(#mask-4)"></path>
                <path d="M63.1804,42.8981 C62.7224,42.8981 62.3684,42.9731 62.2014,43.1491 C62.0764,43.2811 62.0824,43.5421 62.1104,43.7371 C62.2824,44.9751 63.6244,46.7281 64.3754,47.1721 C65.3344,47.7391 66.8964,47.4281 67.7854,46.4931 C68.2114,46.0441 68.4174,45.5181 68.3524,45.0491 C68.3004,44.6741 68.0794,44.3621 67.7144,44.1461 C66.6484,43.5161 64.4904,42.8981 63.1804,42.8981 M65.5224,48.9591 C64.8414,48.9591 64.1784,48.7981 63.6124,48.4631 C62.4484,47.7741 60.8554,45.6051 60.6234,43.9441 C60.4924,42.9981 60.8174,42.4281 61.1134,42.1161 C62.7394,40.4051 67.4264,42.2331 68.4784,42.8551 C69.2404,43.3051 69.7224,44.0111 69.8384,44.8421 C69.9674,45.7661 69.6154,46.7451 68.8724,47.5261 C67.9904,48.4551 66.7274,48.9591 65.5224,48.9591" id="Fill-160" fill="#19B5FE" mask="url(#mask-4)"></path>
                <path d="M22.3816,41.7385 C21.9706,41.7385 21.6156,41.7705 21.3556,41.8345 C19.7356,42.2325 18.6596,44.0835 18.9536,45.9605 C19.1036,46.9115 19.5956,47.7275 20.3046,48.1985 C20.8946,48.5925 21.5966,48.7155 22.2796,48.5485 C23.1776,48.3275 24.8946,47.5815 26.3116,46.6325 C27.7816,45.6465 28.5996,44.6725 28.4976,44.0255 C28.4376,43.6415 28.0356,43.3025 27.7096,43.0865 C26.3826,42.2025 23.9576,41.7385 22.3816,41.7385 M21.6766,50.1215 C20.9016,50.1215 20.1426,49.8925 19.4736,49.4475 C18.4156,48.7445 17.6876,47.5585 17.4726,46.1935 C17.0606,43.5655 18.6416,40.9565 20.9976,40.3775 C22.7556,39.9455 26.5826,40.5335 28.5406,41.8375 C29.3796,42.3945 29.8626,43.0525 29.9796,43.7935 C30.4456,46.7595 24.5696,49.5305 22.6386,50.0045 C22.3186,50.0835 21.9956,50.1215 21.6766,50.1215" id="Fill-161" fill="#719911" mask="url(#mask-4)"></path>
                <path d="M64.3035,47.3093 C64.1515,51.4323 60.6525,54.7903 56.5275,54.7733 L34.9075,54.6833 C30.7825,54.6663 27.6695,51.2873 27.9905,47.1753 L30.3785,13.3283 C30.6985,9.2163 34.3245,6.1353 38.4355,6.4823 L58.2035,8.1533 C62.3145,8.5003 65.5525,12.1573 65.4005,16.2793 L64.3035,47.3093 Z" id="Fill-162" fill="#A5B5B6" mask="url(#mask-4)"></path>
                <path d="M60.8786,41.0153 C60.7666,44.0473 57.9626,46.5083 54.6496,46.4853 L37.2776,46.3653 C33.9636,46.3423 31.4546,43.8493 31.7016,40.8253 L33.5386,16.9293 C33.7856,13.9053 36.6916,11.6493 39.9946,11.9143 L55.8826,13.1933 C59.1856,13.4593 61.7966,16.1573 61.6846,19.1883 L60.8786,41.0153 Z" id="Fill-163" fill="#C5D5D6" mask="url(#mask-4)"></path>
                <path d="M58.1003,51.4343 L34.6073,51.2753 C31.6913,51.2553 29.2383,49.8143 27.9703,47.6783 C27.9303,51.5593 30.9523,54.6663 34.9073,54.6833 L56.5273,54.7733 C59.9863,54.7873 63.0043,52.4273 63.9783,49.2343 C62.4473,50.6043 60.3623,51.4503 58.1003,51.4343" id="Fill-164" fill="#859596" mask="url(#mask-4)"></path>
                <path d="M58.1618,52.1847 L58.0958,52.1847 L34.6018,52.0257 C31.5068,52.0047 28.7858,50.5227 27.3258,48.0607 C27.1138,47.7047 27.2308,47.2447 27.5878,47.0337 C27.9438,46.8217 28.4038,46.9387 28.6158,47.2957 C29.8058,49.3007 32.0468,50.5077 34.6118,50.5257 L58.1048,50.6847 C60.1018,50.7017 62.0158,49.9847 63.4778,48.6747 C63.7868,48.3987 64.2618,48.4247 64.5378,48.7337 C64.8138,49.0427 64.7878,49.5167 64.4778,49.7927 C62.7538,51.3367 60.5128,52.1847 58.1618,52.1847" id="Fill-165" fill="#354546" mask="url(#mask-4)"></path>
                <path d="M64.3035,47.3093 L64.3055,47.3093 L64.3035,47.3093 Z M37.7995,7.2053 C36.2155,7.2053 34.6975,7.7633 33.4715,8.8043 C32.0985,9.9713 31.2655,11.5983 31.1255,13.3873 L28.7395,47.2273 C28.5995,49.0123 29.1655,50.6893 30.3335,51.9563 C31.5005,53.2243 33.1265,53.9263 34.9105,53.9333 L56.5305,54.0233 L56.5585,54.0233 C60.2815,54.0233 63.4155,51.0053 63.5545,47.2833 L64.6505,16.2533 C64.7885,12.5133 61.8675,9.2153 58.1405,8.9003 L38.3715,7.2303 C38.1805,7.2133 37.9895,7.2053 37.7995,7.2053 L37.7995,7.2053 Z M56.5585,55.5233 L56.5235,55.5233 L34.9045,55.4333 C32.6985,55.4243 30.6835,54.5503 29.2305,52.9733 C27.7775,51.3953 27.0715,49.3153 27.2425,47.1163 L29.6295,13.2753 C29.8015,11.0803 30.8205,9.0883 32.4995,7.6613 C34.1795,6.2343 36.3105,5.5503 38.4975,5.7353 L58.2665,7.4063 C62.7815,7.7873 66.3175,11.7803 66.1495,16.3073 L65.0535,47.3363 L65.0535,47.3373 C64.8865,51.8583 61.0785,55.5233 56.5585,55.5233 L56.5585,55.5233 Z" id="Fill-166" fill="#354546" mask="url(#mask-4)"></path>
                <path d="M47.7771,16.2951 C43.6701,16.2951 38.7731,15.0341 38.7731,9.0241 C38.7731,8.0801 38.8941,7.4541 39.1341,6.5611 C39.2421,6.1611 39.6531,5.9241 40.0531,6.0311 C40.4541,6.1391 40.6911,6.5501 40.5831,6.9501 C40.3691,7.7491 40.2731,8.2381 40.2731,9.0241 C40.2731,10.4511 40.2731,14.7951 47.7771,14.7951 C55.3131,14.7951 55.3131,10.4511 55.3131,9.0241 C55.3131,8.7051 55.2981,8.3851 55.2651,8.0711 C55.2221,7.6591 55.5221,7.2911 55.9341,7.2481 C56.3461,7.2051 56.7151,7.5051 56.7561,7.9171 C56.7951,8.2821 56.8131,8.6541 56.8131,9.0241 C56.8131,12.3411 55.2461,16.2951 47.7771,16.2951" id="Fill-167" fill="#354546" mask="url(#mask-4)"></path>
                <path d="M42.9949,25.9421 C42.8289,30.4121 39.0709,33.9021 34.6009,33.7371 C30.1309,33.5721 26.6409,29.8151 26.8059,25.3441 C26.9709,20.8741 30.7279,17.3831 35.1989,17.5481 C39.6699,17.7131 43.1599,21.4711 42.9949,25.9421" id="Fill-168" fill="#C5D5D6" mask="url(#mask-4)"></path>
                <path d="M34.8962,18.2931 C30.9672,18.2931 27.7012,21.4131 27.5552,25.3721 C27.4822,27.3341 28.1782,29.2061 29.5142,30.6451 C30.8502,32.0831 32.6672,32.9161 34.6282,32.9881 C36.5902,33.0611 38.4632,32.3651 39.9022,31.0281 C41.3402,29.6921 42.1722,27.8761 42.2452,25.9141 C42.3172,23.9521 41.6222,22.0801 40.2862,20.6411 C38.9492,19.2031 37.1332,18.3711 35.1712,18.2981 C35.0802,18.2941 34.9872,18.2931 34.8962,18.2931 M34.9082,34.4931 C34.7962,34.4931 34.6852,34.4911 34.5732,34.4871 C32.2102,34.3991 30.0242,33.3971 28.4152,31.6661 C26.8062,29.9331 25.9682,27.6781 26.0562,25.3161 C26.2362,20.4391 30.3492,16.6191 35.2262,16.7991 C37.5882,16.8861 39.7762,17.8881 41.3842,19.6201 C42.9932,21.3531 43.8312,23.6071 43.7442,25.9701 C43.6572,28.3321 42.6552,30.5191 40.9222,32.1271 C39.2722,33.6601 37.1482,34.4931 34.9082,34.4931" id="Fill-169" fill="#354546" mask="url(#mask-4)"></path>
                <path d="M40.1189,25.8361 C40.0129,28.7181 37.5899,30.9691 34.7069,30.8621 C31.8249,30.7551 29.5739,28.3331 29.6809,25.4501 C29.7869,22.5671 32.2109,20.3171 35.0929,20.4241 C37.9749,20.5301 40.2249,22.9531 40.1189,25.8361" id="Fill-170" fill="#9ABD45" mask="url(#mask-4)"></path>
                <path d="M38.2009,24.2341 C38.1349,26.0261 36.6289,27.4241 34.8369,27.3591 C33.0449,27.2921 31.6459,25.7861 31.7129,23.9941 C31.7779,22.2031 33.2849,20.8041 35.0759,20.8701 C36.8679,20.9361 38.2659,22.4421 38.2009,24.2341" id="Fill-171" fill="#CEEC87" mask="url(#mask-4)"></path>
                <path d="M34.8962,21.1701 C33.7632,21.1701 32.6902,21.5911 31.8562,22.3661 C30.9812,23.1791 30.4742,24.2841 30.4302,25.4781 C30.3862,26.6711 30.8092,27.8111 31.6232,28.6871 C32.4352,29.5621 33.5412,30.0681 34.7352,30.1131 C35.9272,30.1571 37.0682,29.7331 37.9442,28.9201 C38.8192,28.1071 39.3262,27.0021 39.3702,25.8081 C39.4602,23.3431 37.5302,21.2641 35.0652,21.1731 C35.0082,21.1711 34.9522,21.1701 34.8962,21.1701 M34.9032,31.6161 C34.8292,31.6161 34.7532,31.6141 34.6792,31.6111 C33.0842,31.5531 31.6092,30.8771 30.5232,29.7081 C29.4382,28.5391 28.8732,27.0171 28.9312,25.4221 C28.9902,23.8281 29.6672,22.3521 30.8352,21.2671 C32.0042,20.1811 33.5262,19.6151 35.1212,19.6741 C38.4122,19.7961 40.9902,22.5721 40.8692,25.8631 L40.1192,25.8361 L40.8692,25.8631 C40.7502,29.0801 38.0952,31.6161 34.9032,31.6161" id="Fill-172" fill="#354546" mask="url(#mask-4)"></path>
                <path d="M36.2458,22.1686 C36.5778,22.9106 35.5408,23.5436 34.1828,24.1516 C32.8248,24.7596 31.6608,25.1106 31.3288,24.3696 C30.9968,23.6276 31.8288,22.5336 33.1858,21.9256 C34.5438,21.3176 35.9138,21.4266 36.2458,22.1686" id="Fill-173" fill="#FFFFFF" mask="url(#mask-4)"></path>
                <path d="M35.3093,29.3493 C35.2223,29.1563 35.4923,28.9923 35.8443,28.8343 C36.1973,28.6773 36.4983,28.5853 36.5843,28.7783 C36.6703,28.9703 36.4553,29.2543 36.1033,29.4123 C35.7503,29.5703 35.3953,29.5413 35.3093,29.3493" id="Fill-174" fill="#FFFFFF" mask="url(#mask-4)"></path>
                <path d="M39.7029,25.7819 C39.6779,26.4619 39.1059,26.9929 38.4259,26.9689 C37.7449,26.9429 37.2139,26.3709 37.2389,25.6909 C37.2649,25.0109 37.8359,24.4789 38.5159,24.5039 C39.1969,24.5289 39.7279,25.1009 39.7029,25.7819" id="Fill-175" fill="#354546" mask="url(#mask-4)"></path>
                <path d="M65.8328,27.2892 C65.6928,31.0782 62.5088,32.3852 58.7208,32.2452 C54.9328,32.1052 51.9748,30.5712 52.1138,26.7822 C52.2548,22.9942 55.4388,20.0372 59.2278,20.1772 C63.0158,20.3162 65.9728,23.5012 65.8328,27.2892" id="Fill-176" fill="#C5D5D6" mask="url(#mask-4)"></path>
                <path d="M58.9675,20.922 C57.4205,20.922 55.9525,21.497 54.8135,22.556 C53.6155,23.668 52.9245,25.178 52.8635,26.81 C52.8075,28.351 53.3055,29.485 54.3875,30.276 C55.3835,31.005 56.8915,31.427 58.7475,31.496 C60.6195,31.565 62.1775,31.255 63.2545,30.6 C64.4285,29.885 65.0275,28.794 65.0835,27.262 C65.1435,25.63 64.5655,24.072 63.4535,22.875 C62.3415,21.679 60.8315,20.986 59.1985,20.926 C59.1215,20.923 59.0445,20.922 58.9675,20.922 M59.2715,33.005 C59.0815,33.005 58.8885,33.002 58.6925,32.995 C53.8955,32.818 51.2255,30.543 51.3645,26.755 C51.5205,22.559 55.0605,19.273 59.2545,19.427 C63.4495,19.582 66.7375,23.122 66.5815,27.317 C66.4475,30.953 63.7935,33.005 59.2715,33.005" id="Fill-177" fill="#354546" mask="url(#mask-4)"></path>
                <path d="M63.3962,27.1994 C63.3062,29.6414 61.2522,29.8994 58.8102,29.8084 C56.3682,29.7184 54.4602,29.3154 54.5502,26.8724 C54.6412,24.4294 56.6942,22.5234 59.1362,22.6134 C61.5802,22.7034 63.4862,24.7574 63.3962,27.1994" id="Fill-178" fill="#19B5FE" mask="url(#mask-4)"></path>
                <path d="M61.7224,25.6667 C61.6664,27.1857 60.4924,27.7487 58.9734,27.6927 C57.4554,27.6367 56.1684,26.9817 56.2244,25.4637 C56.2814,23.9457 57.5564,22.7597 59.0754,22.8157 C60.5934,22.8727 61.7794,24.1487 61.7224,25.6667" id="Fill-179" fill="#39D5FF" mask="url(#mask-4)"></path>
                <path d="M58.9714,23.36 C57.0064,23.36 55.3734,24.921 55.3004,26.9 C55.2424,28.453 56.0694,28.957 58.8374,29.059 C59.7684,29.094 60.9334,29.091 61.6884,28.765 C62.1404,28.57 62.6084,28.228 62.6474,27.172 C62.7214,25.146 61.1344,23.438 59.1094,23.363 C59.0634,23.361 59.0174,23.36 58.9714,23.36 M59.6494,30.578 C59.3304,30.578 59.0354,30.568 58.7834,30.558 C57.1234,30.497 53.6704,30.369 53.8014,26.845 C53.9074,23.993 56.3104,21.756 59.1644,21.864 C62.0164,21.969 64.2514,24.375 64.1464,27.227 L63.3964,27.199 L64.1464,27.227 C64.0344,30.225 61.4604,30.578 59.6494,30.578" id="Fill-180" fill="#354546" mask="url(#mask-4)"></path>
                <path d="M60.114,24.092 C60.395,24.72 59.516,25.258 58.366,25.773 C57.216,26.287 56.229,26.585 55.948,25.957 C55.666,25.328 56.371,24.401 57.521,23.886 C58.672,23.371 59.833,23.463 60.114,24.092" id="Fill-181" fill="#FFFFFF" mask="url(#mask-4)"></path>
                <path d="M60.4314,28.5861 C60.3584,28.4231 60.5864,28.2841 60.8854,28.1501 C61.1834,28.0161 61.4394,27.9391 61.5124,28.1021 C61.5854,28.2651 61.4034,28.5061 61.1044,28.6401 C60.8054,28.7731 60.5044,28.7501 60.4314,28.5861" id="Fill-182" fill="#FFFFFF" mask="url(#mask-4)"></path>
                <path d="M57.0564,27.0041 C57.0354,27.5811 56.5504,28.0311 55.9744,28.0091 C55.3974,27.9881 54.9474,27.5041 54.9684,26.9271 C54.9904,26.3501 55.4744,25.9001 56.0514,25.9211 C56.6274,25.9421 57.0774,26.4271 57.0564,27.0041" id="Fill-183" fill="#354546" mask="url(#mask-4)"></path>
                <path d="M35.0359,40.6374 L57.7809,35.5554 C57.7809,35.5554 59.0599,42.5614 53.5279,44.6064 C43.7869,48.2074 35.0359,40.6374 35.0359,40.6374" id="Fill-184" fill="#FFFFFF" mask="url(#mask-4)"></path>
                <path d="M35.0359,40.6374 L35.0369,40.6374 L35.0359,40.6374 Z M36.7889,41.0144 C37.7419,41.6674 39.1869,42.5514 40.9639,43.2994 C45.2869,45.1194 49.4269,45.3234 53.2679,43.9034 C57.1209,42.4794 57.2519,38.2324 57.1299,36.4694 L36.7889,41.0144 Z M48.0789,46.3204 C45.5529,46.3204 42.9419,45.7664 40.3369,44.6624 C36.8619,43.1914 34.6389,41.2844 34.5449,41.2044 C34.3309,41.0194 34.2389,40.7284 34.3079,40.4544 C34.3779,40.1794 34.5959,39.9674 34.8719,39.9054 L57.6179,34.8234 C57.8169,34.7784 58.0259,34.8174 58.1959,34.9294 C58.3659,35.0424 58.4819,35.2204 58.5189,35.4204 C58.5329,35.4974 58.8589,37.3324 58.4669,39.4504 C57.9299,42.3514 56.3109,44.3774 53.7889,45.3094 C51.9649,45.9844 50.0469,46.3204 48.0789,46.3204 L48.0789,46.3204 Z" id="Fill-185" fill="#354546" mask="url(#mask-4)"></path>
                <path d="M41.4607,45.0549 C41.0857,45.0549 40.7617,44.7739 40.7167,44.3919 L40.1317,39.4199 C40.0837,39.0089 40.3777,38.6359 40.7887,38.5879 C41.1997,38.5389 41.5727,38.8329 41.6217,39.2449 L42.2067,44.2169 C42.2547,44.6289 41.9607,45.0009 41.5497,45.0499 C41.5197,45.0539 41.4897,45.0549 41.4607,45.0549" id="Fill-186" fill="#354546" mask="url(#mask-4)"></path>
                <path d="M46.9109,46.0641 C46.5089,46.0641 46.1769,45.7451 46.1619,45.3401 L45.9059,38.0671 C45.8909,37.6531 46.2159,37.3061 46.6299,37.2921 C47.0399,37.2771 47.3899,37.6011 47.4059,38.0151 L47.6609,45.2881 C47.6759,45.7021 47.3509,46.0491 46.9369,46.0641 L46.9109,46.0641" id="Fill-187" fill="#354546" mask="url(#mask-4)"></path>
                <path d="M52.4783,45.3566 C52.0683,45.3566 51.7333,45.0256 51.7283,44.6146 L51.6443,36.7666 C51.6403,36.3526 51.9723,36.0136 52.3863,36.0086 L52.3943,36.0086 C52.8053,36.0086 53.1403,36.3396 53.1443,36.7506 L53.2283,44.5986 C53.2333,45.0126 52.9003,45.3526 52.4863,45.3566 L52.4783,45.3566 Z" id="Fill-188" fill="#354546" mask="url(#mask-4)"></path>
                <path d="M12.3591,52.61 C14.0081,52.669 15.3091,54.066 15.2501,55.715 L15.0141,61.561 C14.9561,63.21 13.5581,64.511 11.9101,64.452 L5.0041,64.083 C3.3541,64.024 2.6541,62.626 2.7131,60.978 L2.9481,55.432 C3.0061,53.783 3.8041,52.482 5.4531,52.541 L12.3591,52.61 Z" id="Fill-189" fill="#A5B5B6" mask="url(#mask-4)"></path>
                <path d="M5.3454,53.2887 C4.8464,53.2887 4.4694,53.4597 4.1934,53.8097 C3.8984,54.1847 3.7224,54.7697 3.6984,55.4587 L3.4614,61.0087 C3.4374,61.6867 3.5414,63.2797 5.0304,63.3327 L11.9494,63.7037 C12.5324,63.7227 13.1064,63.5087 13.5474,63.0977 C13.9894,62.6867 14.2434,62.1317 14.2654,61.5347 L14.5004,55.6847 C14.5224,55.0907 14.3074,54.5187 13.8964,54.0777 C13.4874,53.6377 12.9354,53.3837 12.3414,53.3597 L5.4454,53.2907 C5.4394,53.2907 5.4324,53.2897 5.4264,53.2897 C5.3994,53.2887 5.3714,53.2887 5.3454,53.2887 M12.0194,65.2047 C11.9734,65.2047 11.9284,65.2037 11.8824,65.2017 L4.9634,64.8317 C3.0644,64.7637 1.8814,63.2407 1.9624,60.9507 L2.1994,55.3997 C2.2354,54.3867 2.5174,53.5137 3.0154,52.8817 C3.6044,52.1337 4.4514,51.7567 5.4694,51.7907 L12.3664,51.8597 C12.3724,51.8597 12.3794,51.8607 12.3854,51.8607 C13.3834,51.8957 14.3104,52.3207 14.9934,53.0557 C15.6784,53.7897 16.0344,54.7447 15.9994,55.7417 L15.7644,61.5907 C15.7284,62.5857 15.3044,63.5117 14.5704,64.1957 C13.8674,64.8487 12.9674,65.2047 12.0194,65.2047" id="Fill-190" fill="#354546" mask="url(#mask-4)"></path>
                <path d="M15.0954,55.2702 C15.0744,56.0952 14.3814,56.7522 13.5564,56.7302 L12.8154,56.7112 C11.9904,56.6892 11.3324,55.9972 11.3544,55.1722 L11.5514,47.6342 C11.5734,46.8102 12.2654,46.1522 13.0904,46.1742 L13.8314,46.1932 C14.6574,46.2152 15.3144,46.9072 15.2924,47.7322 L15.0954,55.2702 Z" id="Fill-191" fill="#A5B5B6" mask="url(#mask-4)"></path>
                <path d="M13.0515,46.924 C12.8595,46.924 12.6775,46.997 12.5355,47.131 C12.3895,47.27 12.3065,47.455 12.3015,47.654 L12.1045,55.192 C12.0995,55.391 12.1725,55.581 12.3115,55.727 C12.4495,55.873 12.6355,55.956 12.8345,55.962 L13.5765,55.981 C13.9855,55.99 14.3345,55.664 14.3455,55.251 L14.5425,47.713 C14.5535,47.299 14.2265,46.954 13.8125,46.944 L13.0715,46.924 L13.0515,46.924 Z M13.5965,57.481 C13.5765,57.481 13.5575,57.481 13.5365,57.48 L12.7955,57.461 C11.5555,57.428 10.5725,56.393 10.6045,55.153 L10.8015,47.615 C10.8175,47.016 11.0665,46.458 11.5035,46.043 C11.9405,45.629 12.5105,45.406 13.1105,45.424 L13.8525,45.444 C15.0915,45.476 16.0745,46.512 16.0425,47.752 L15.8455,55.29 C15.8135,56.51 14.8105,57.481 13.5965,57.481 L13.5965,57.481 Z" id="Fill-192" fill="#354546" mask="url(#mask-4)"></path>
                <path d="M12.1511,51.8527 L10.3881,51.8067 C8.7391,51.7637 7.3541,53.0777 7.3111,54.7277 L7.2651,56.4897 C7.2211,58.1387 8.5361,59.5237 10.1851,59.5667 L11.9481,59.6127 C13.5971,59.6557 14.9821,58.3417 15.0251,56.6927 L15.0711,54.9297 C15.1151,53.2807 13.8001,51.8957 12.1511,51.8527" id="Fill-193" fill="#A5B5B6" mask="url(#mask-4)"></path>
                <path d="M15.071,54.9299 L15.073,54.9299 L15.071,54.9299 Z M10.309,52.5549 C9.733,52.5549 9.186,52.7749 8.763,53.1759 C8.326,53.5919 8.077,54.1489 8.061,54.7469 L8.014,56.5089 C7.982,57.7489 8.965,58.7849 10.205,58.8169 L11.967,58.8639 C12.563,58.8769 13.135,58.6589 13.573,58.2429 C14.01,57.8279 14.259,57.2699 14.275,56.6729 L14.322,54.9099 C14.354,53.6699 13.372,52.6349 12.132,52.6019 L10.369,52.5559 C10.349,52.5549 10.329,52.5549 10.309,52.5549 L10.309,52.5549 Z M12.028,60.3639 C11.995,60.3639 11.962,60.3639 11.928,60.3629 L10.166,60.3169 C8.098,60.2629 6.461,58.5369 6.515,56.4699 L6.561,54.7069 C6.588,53.7089 7.003,52.7789 7.731,52.0879 C8.46,51.3969 9.411,51.0299 10.408,51.0569 L12.171,51.1029 C14.237,51.1569 15.875,52.8829 15.821,54.9499 L15.775,56.7119 C15.749,57.7099 15.334,58.6399 14.605,59.3309 C13.901,59.9999 12.99,60.3639 12.028,60.3639 L12.028,60.3639 Z" id="Fill-194" fill="#354546" mask="url(#mask-4)"></path>
                <path d="M2.2585,55.819 C1.4335,55.822 0.7555,55.15 0.7525,54.325 L0.7495,53.583 C0.7465,52.757 1.4195,52.08 2.2435,52.077 L5.8855,51.98 C6.7105,51.977 7.3885,52.65 7.3915,53.475 L7.3945,54.217 C7.3975,55.042 6.7255,55.719 5.9005,55.722 L2.2585,55.819 Z" id="Fill-195" fill="#A5B5B6" mask="url(#mask-4)"></path>
                <path d="M5.8952,52.7302 L2.2642,52.8272 L2.2472,52.8272 C2.0482,52.8282 1.8612,52.9072 1.7192,53.0502 C1.5772,53.1932 1.4992,53.3812 1.4992,53.5802 L1.5022,54.3222 C1.5032,54.5212 1.5832,54.7082 1.7252,54.8502 C1.8672,54.9902 2.0522,55.0682 2.2492,55.0692 L5.8792,54.9732 C5.8852,54.9732 5.8912,54.9722 5.8972,54.9722 C6.3102,54.9712 6.6452,54.6332 6.6442,54.2192 L6.6412,53.4772 C6.6402,53.2792 6.5612,53.0912 6.4182,52.9492 C6.2772,52.8092 6.0912,52.7312 5.8952,52.7302 L5.8952,52.7302 Z M2.2582,55.8192 L2.2602,55.8192 L2.2582,55.8192 Z M2.2522,56.5692 C1.0162,56.5692 0.0072,55.5652 0.0022,54.3282 L-0.0008,53.5852 C-0.0038,52.3482 0.9962,51.3362 2.2322,51.3272 L5.8662,51.2302 L5.8912,51.2302 C6.4882,51.2302 7.0492,51.4622 7.4752,51.8842 C7.9022,52.3092 8.1392,52.8722 8.1412,53.4722 L8.1442,54.2142 C8.1492,55.4512 7.1482,56.4622 5.9122,56.4722 L2.2782,56.5692 L2.2522,56.5692 Z" id="Fill-196" fill="#354546" mask="url(#mask-4)"></path>
                <path d="M2.4285,60.0817 C1.6035,60.0847 0.9255,59.4127 0.9225,58.5877 L0.9195,57.8457 C0.9165,57.0197 1.5895,56.3427 2.4135,56.3397 L6.0555,56.2427 C6.8805,56.2397 7.5585,56.9127 7.5615,57.7367 L7.5645,58.4787 C7.5675,59.3047 6.8945,59.9817 6.0705,59.9847 L2.4285,60.0817 Z" id="Fill-197" fill="#A5B5B6" mask="url(#mask-4)"></path>
                <path d="M6.0652,56.9929 L2.4342,57.0889 C2.4282,57.0899 2.4222,57.0899 2.4172,57.0899 C2.0032,57.0909 1.6692,57.4289 1.6692,57.8429 L1.6722,58.5849 C1.6742,58.9959 2.0082,59.3289 2.4192,59.3319 L6.0492,59.2359 C6.0552,59.2349 6.0612,59.2349 6.0672,59.2349 C6.4802,59.2339 6.8152,58.8959 6.8142,58.4819 L6.8112,57.7399 C6.8102,57.5409 6.7312,57.3539 6.5872,57.2119 C6.4472,57.0719 6.2612,56.9939 6.0652,56.9929 L6.0652,56.9929 Z M2.4282,60.0819 L2.4292,60.0819 L2.4282,60.0819 Z M2.4222,60.8319 C1.1862,60.8319 0.1772,59.8279 0.1722,58.5909 L0.1692,57.8479 C0.1652,56.6109 1.1662,55.5989 2.4022,55.5899 L6.0362,55.4929 L6.0612,55.4929 C6.6572,55.4929 7.2192,55.7249 7.6442,56.1469 C8.0722,56.5719 8.3082,57.1349 8.3112,57.7339 L8.3142,58.4759 C8.3182,59.7139 7.3182,60.7249 6.0822,60.7349 L2.4482,60.8309 C2.4402,60.8319 2.4312,60.8319 2.4222,60.8319 L2.4222,60.8319 Z" id="Fill-198" fill="#354546" mask="url(#mask-4)"></path>
                <path d="M2.4285,63.9435 C1.6035,63.9465 0.9255,63.2745 0.9225,62.4485 L0.9195,61.7065 C0.9165,60.8815 1.5895,60.2045 2.4135,60.2005 L6.0555,60.1045 C6.8805,60.1015 7.5585,60.7735 7.5615,61.5985 L7.5645,62.3405 C7.5675,63.1655 6.8945,63.8435 6.0705,63.8465 L2.4285,63.9435 Z" id="Fill-199" fill="#A5B5B6" mask="url(#mask-4)"></path>
                <path d="M6.0652,60.8547 L2.4342,60.9507 L2.4172,60.9507 C2.0032,60.9527 1.6692,61.2907 1.6692,61.7037 L1.6722,62.4457 C1.6732,62.6447 1.7532,62.8327 1.8952,62.9747 C2.0372,63.1147 2.2222,63.1917 2.4192,63.1937 L6.0492,63.0967 L6.0672,63.0967 C6.4802,63.0947 6.8152,62.7577 6.8142,62.3437 L6.8112,61.6017 C6.8102,61.4027 6.7312,61.2157 6.5872,61.0737 C6.4472,60.9337 6.2612,60.8557 6.0652,60.8547 L6.0652,60.8547 Z M2.4282,63.9437 L2.4292,63.9437 L2.4282,63.9437 Z M2.4222,64.6937 C1.1862,64.6937 0.1772,63.6897 0.1722,62.4517 L0.1692,61.7097 C0.1652,60.4717 1.1662,59.4607 2.4022,59.4517 L6.0362,59.3547 L6.0612,59.3547 C6.6572,59.3547 7.2192,59.5867 7.6442,60.0087 C8.0722,60.4327 8.3082,60.9967 8.3112,61.5957 L8.3142,62.3377 C8.3182,63.5757 7.3182,64.5867 6.0822,64.5967 L2.4482,64.6927 C2.4402,64.6927 2.4312,64.6927 2.4222,64.6937 L2.4222,64.6937 Z" id="Fill-200" fill="#354546" mask="url(#mask-4)"></path>
            </g>
        </g>
    </g>
</svg>