<?xml version="1.0" encoding="UTF-8"?>
<svg width="92px" height="122px" viewBox="0 0 92 122" version="1.1" xmlns="http://www.w3.org/2000/svg" xmlns:xlink="http://www.w3.org/1999/xlink">
    <!-- Generator: Sketch 42 (36781) - http://www.bohemiancoding.com/sketch -->
    <title>28</title>
    <desc>Created with Sketch.</desc>
    <defs>
        <polygon id="path-1" points="63.6748 8 0.4088 8 0.4088 0.3777 63.6748 0.3777"></polygon>
        <polygon id="path-3" points="0 122.041 91.168 122.041 91.168 0 0 0"></polygon>
    </defs>
    <g id="Page-1" stroke="none" stroke-width="1" fill="none" fill-rule="evenodd">
        <g id="1024" transform="translate(-166.000000, 0.000000)">
            <g id="28" transform="translate(166.000000, 0.000000)">
                <g id="Group-3" transform="translate(21.000000, 114.041000)">
                    <mask id="mask-2" fill="white">
                        <use xlink:href="#path-1"></use>
                    </mask>
                    <g id="Clip-2"></g>
                    <path d="M63.6748,4.1887 C63.6748,6.2937 49.5128,8.0007 32.0418,8.0007 C14.5708,8.0007 0.4088,6.2937 0.4088,4.1887 C0.4088,2.0847 14.5708,0.3777 32.0418,0.3777 C49.5128,0.3777 63.6748,2.0847 63.6748,4.1887" id="Fill-1" fill="#CCCCCC" mask="url(#mask-2)"></path>
                </g>
                <mask id="mask-4" fill="white">
                    <use xlink:href="#path-3"></use>
                </mask>
                <g id="Clip-5"></g>
                <polygon id="Fill-4" fill="#758586" mask="url(#mask-4)" points="44.659 87.554 60.778 87.554 60.778 75.948 44.659 75.948"></polygon>
                <path d="M45.409,86.804 L60.028,86.804 L60.028,76.698 L45.409,76.698 L45.409,86.804 Z M60.778,88.304 L44.659,88.304 C44.245,88.304 43.909,87.968 43.909,87.554 L43.909,75.948 C43.909,75.534 44.245,75.198 44.659,75.198 L60.778,75.198 C61.192,75.198 61.528,75.534 61.528,75.948 L61.528,87.554 C61.528,87.968 61.192,88.304 60.778,88.304 L60.778,88.304 Z" id="Fill-6" fill="#354546" mask="url(#mask-4)"></path>
                <polygon id="Fill-7" fill="#758586" mask="url(#mask-4)" points="48.319 61.398 57.662 61.398 57.662 52.895 48.319 52.895"></polygon>
                <path d="M49.069,60.648 L56.912,60.648 L56.912,53.645 L49.069,53.645 L49.069,60.648 Z M57.662,62.148 L48.319,62.148 C47.905,62.148 47.569,61.812 47.569,61.398 L47.569,52.895 C47.569,52.481 47.905,52.145 48.319,52.145 L57.662,52.145 C58.076,52.145 58.412,52.481 58.412,52.895 L58.412,61.398 C58.412,61.812 58.076,62.148 57.662,62.148 L57.662,62.148 Z" id="Fill-8" fill="#354546" mask="url(#mask-4)"></path>
                <path d="M57.663,58.3981 C57.649,58.3981 57.636,58.3981 57.622,58.3971 L48.279,57.8951 C47.866,57.8731 47.548,57.5201 47.571,57.1061 C47.593,56.6921 47.947,56.3751 48.36,56.3981 L57.702,56.8991 C58.116,56.9211 58.434,57.2741 58.411,57.6881 C58.39,58.0881 58.059,58.3981 57.663,58.3981" id="Fill-9" fill="#354546" mask="url(#mask-4)"></path>
                <path d="M70.8681,66.5803 C69.3851,67.0463 67.8871,67.5373 66.2631,67.9553 L65.1001,63.3823 C66.4941,63.0243 67.9601,62.5493 69.4471,62.0803 L70.8681,66.5803 Z" id="Fill-10" fill="#F9BF3B" mask="url(#mask-4)"></path>
                <path d="M65.2871,64.1081 L64.9141,62.6551 C66.1091,62.3481 67.3451,61.9581 68.6531,61.5451 L69.2221,61.3651 L69.6731,62.7961 L69.1041,62.9751 C67.7771,63.3951 66.5221,63.7911 65.2871,64.1081" id="Fill-11" fill="#F1892D" mask="url(#mask-4)"></path>
                <path d="M66.4501,68.6814 L66.0761,67.2284 C67.4281,66.8804 68.7091,66.4754 69.9481,66.0844 L70.6431,65.8644 L71.0931,67.2964 L70.4001,67.5144 C69.1411,67.9114 67.8411,68.3234 66.4501,68.6814" id="Fill-12" fill="#F1892D" mask="url(#mask-4)"></path>
                <polygon id="Fill-13" fill="#F1892D" mask="url(#mask-4)" points="67.9003 67.5041 66.5213 62.9911 67.9563 62.5531 69.3353 67.0661"></polygon>
                <path d="M75.2373,65.2829 C73.8003,65.6609 72.3473,66.1129 70.8683,66.5799 L69.4473,62.0809 C70.9373,61.6099 72.4613,61.1349 74.0363,60.7199 L75.2373,65.2829 Z" id="Fill-14" fill="#F9BF3B" mask="url(#mask-4)"></path>
                <path d="M69.6728,62.7961 L69.2218,61.3661 C70.7598,60.8791 72.2718,60.4091 73.8458,59.9941 L74.2278,61.4451 C72.6858,61.8511 71.1938,62.3161 69.6728,62.7961" id="Fill-15" fill="#F1892D" mask="url(#mask-4)"></path>
                <path d="M71.0947,67.2956 L70.6427,65.8656 C72.0637,65.4166 73.5737,64.9446 75.0457,64.5576 L75.4277,66.0076 C73.9887,66.3876 72.4977,66.8516 71.0947,67.2956" id="Fill-16" fill="#F1892D" mask="url(#mask-4)"></path>
                <polygon id="Fill-17" fill="#F1892D" mask="url(#mask-4)" points="72.3505 66.114 70.9925 61.595 72.4285 61.163 73.7875 65.682"></polygon>
                <path d="M79.457,64.4597 C78.096,64.5997 76.672,64.9047 75.237,65.2827 L74.036,60.7197 C75.613,60.3067 77.242,59.9457 78.981,59.7657 L79.457,64.4597 Z" id="Fill-18" fill="#F9BF3B" mask="url(#mask-4)"></path>
                <path d="M74.2265,61.445 L73.8465,59.994 C75.1715,59.647 76.9445,59.222 78.9045,59.019 L79.0585,60.511 C77.2005,60.704 75.4995,61.112 74.2265,61.445" id="Fill-19" fill="#F1892D" mask="url(#mask-4)"></path>
                <path d="M75.4277,66.008 L75.0457,64.557 C76.7427,64.111 78.1197,63.843 79.3807,63.714 L79.5327,65.206 C78.3527,65.327 77.0477,65.582 75.4277,66.008" id="Fill-20" fill="#F1892D" mask="url(#mask-4)"></path>
                <polygon id="Fill-21" fill="#F1892D" mask="url(#mask-4)" points="76.6386 64.9294 75.7126 60.3034 77.1836 60.0084 78.1106 64.6354"></polygon>
                <path d="M83.0898,64.6989 C82.1158,64.3649 80.8118,64.3189 79.4568,64.4599 L78.9818,59.7649 C79.8508,59.6769 80.7508,59.6379 81.6888,59.6899 C82.6248,59.7479 83.6048,59.8909 84.5968,60.2269 L83.0898,64.6989 Z" id="Fill-22" fill="#F9BF3B" mask="url(#mask-4)"></path>
                <path d="M84.3564,60.9377 C83.5394,60.6607 82.6764,60.5027 81.6414,60.4387 C80.8294,60.3937 79.9814,60.4167 79.0574,60.5117 L78.9054,59.0197 C79.9084,58.9167 80.8334,58.8917 81.7294,58.9417 C82.8884,59.0127 83.9044,59.2007 84.8374,59.5177 L84.3564,60.9377 Z" id="Fill-23" fill="#F1892D" mask="url(#mask-4)"></path>
                <path d="M82.8466,65.4084 C82.0466,65.1344 80.9016,65.0634 79.5346,65.2054 L79.3796,63.7144 C80.4826,63.5994 82.0636,63.5544 83.3336,63.9894 L82.8466,65.4084 Z" id="Fill-24" fill="#F1892D" mask="url(#mask-4)"></path>
                <polygon id="Fill-25" fill="#F1892D" mask="url(#mask-4)" points="82.165 64.444 80.667 64.358 80.939 59.647 82.436 59.734"></polygon>
                <path d="M85.1494,66.508 C84.6744,65.571 84.0664,65.035 83.0894,64.699 L84.5964,60.227 C85.5844,60.558 86.5824,61.091 87.4204,61.832 C88.2574,62.57 88.9214,63.479 89.3744,64.407 L85.1494,66.508 Z" id="Fill-26" fill="#F9BF3B" mask="url(#mask-4)"></path>
                <path d="M88.7001,64.736 C88.2651,63.845 87.6521,63.035 86.9251,62.395 C86.2141,61.766 85.3271,61.263 84.3581,60.939 L84.8351,59.516 C85.9931,59.904 87.0581,60.511 87.9171,61.27 C88.7911,62.04 89.5281,63.011 90.0491,64.079 L88.7001,64.736 Z" id="Fill-27" fill="#F1892D" mask="url(#mask-4)"></path>
                <path d="M84.4804,66.8469 C84.0934,66.0829 83.6344,65.6799 82.8454,65.4089 L83.3344,63.9899 C84.4904,64.3879 85.2564,65.0599 85.8184,66.1689 L84.4804,66.8469 Z" id="Fill-28" fill="#F1892D" mask="url(#mask-4)"></path>
                <polygon id="Fill-29" fill="#F1892D" mask="url(#mask-4)" points="84.871 65.8728 83.743 64.8838 86.856 61.3368 87.983 62.3268"></polygon>
                <path d="M85.6445,69.6994 C85.7175,69.1214 85.7195,68.5644 85.6345,68.0354 C85.6205,67.9014 85.5845,67.7734 85.5605,67.6424 C85.5235,67.5144 85.4985,67.3844 85.4525,67.2584 C85.4155,67.1334 85.3635,67.0034 85.3145,66.8724 C85.2905,66.8074 85.2595,66.7494 85.2335,66.6874 C85.2075,66.6244 85.1795,66.5644 85.1495,66.5084 L89.3735,64.4074 C89.4345,64.5234 89.4895,64.6394 89.5395,64.7564 C89.5895,64.8724 89.6445,64.9904 89.6895,65.1064 C89.7805,65.3394 89.8705,65.5734 89.9465,65.8204 C90.0295,66.0624 90.0875,66.3134 90.1545,66.5604 C90.2065,66.8114 90.2645,67.0614 90.2975,67.3144 C90.4575,68.3244 90.4485,69.3404 90.3245,70.3064 L85.6445,69.6994 Z" id="Fill-30" fill="#F9BF3B" mask="url(#mask-4)"></path>
                <path d="M91.0683,70.4021 L89.5803,70.2111 C89.7043,69.2451 89.6963,68.3101 89.5573,67.4311 L89.5543,67.4121 C89.5323,67.2451 89.4953,67.0691 89.4563,66.8841 L89.3853,66.5861 C89.3383,66.4011 89.2933,66.2271 89.2373,66.0651 L89.2283,66.0401 C89.1613,65.8181 89.0773,65.6011 88.9913,65.3801 C88.9633,65.3061 88.9323,65.2381 88.9023,65.1701 L88.8503,65.0541 C88.8033,64.9451 88.7573,64.8471 88.7093,64.7541 L90.0403,64.0611 C90.1063,64.1891 90.1683,64.3191 90.2283,64.4611 L90.2723,64.5601 C90.3133,64.6531 90.3543,64.7471 90.3903,64.8401 C90.4843,65.0791 90.5773,65.3211 90.6593,65.5891 C90.7323,65.8021 90.7863,66.0101 90.8383,66.2111 L90.8883,66.4091 L90.9223,66.5711 C90.9653,66.7751 91.0103,66.9841 91.0403,67.2071 C91.2003,68.2231 91.2103,69.2981 91.0683,70.4021" id="Fill-31" fill="#F1892D" mask="url(#mask-4)"></path>
                <path d="M86.3886,69.7937 L84.9006,69.6057 C84.9666,69.0817 84.9646,68.5927 84.8946,68.1547 L84.8896,68.1187 C84.8846,68.0717 84.8716,68.0127 84.8566,67.9437 L84.8296,67.8147 C84.8186,67.7727 84.8076,67.7307 84.7966,67.6887 C84.7806,67.6237 84.7646,67.5617 84.7476,67.5177 L84.7326,67.4687 C84.7086,67.3887 84.6716,67.2927 84.6326,67.1907 L84.6136,67.1407 C84.6016,67.1087 84.5926,67.0907 84.5836,67.0717 C84.5696,67.0397 84.5546,67.0077 84.5406,66.9757 C84.5236,66.9317 84.5066,66.8967 84.4906,66.8667 L85.8086,66.1497 C85.8506,66.2277 85.8886,66.3097 85.9266,66.4007 C85.9326,66.4157 85.9406,66.4317 85.9486,66.4477 C85.9726,66.5017 85.9966,66.5577 86.0186,66.6167 L86.0336,66.6537 C86.0776,66.7717 86.1246,66.8937 86.1646,67.0247 C86.2016,67.1297 86.2276,67.2287 86.2496,67.3147 C86.2596,67.3547 86.2696,67.3927 86.2806,67.4317 L86.2986,67.5097 C86.3066,67.5497 86.3146,67.5887 86.3236,67.6277 C86.3426,67.7177 86.3646,67.8187 86.3776,67.9337 C86.4686,68.5087 86.4716,69.1337 86.3886,69.7937" id="Fill-32" fill="#F1892D" mask="url(#mask-4)"></path>
                <polygon id="Fill-33" fill="#F1892D" mask="url(#mask-4)" points="85.75 68.7771 85.521 67.2951 90.184 66.5731 90.413 68.0551"></polygon>
                <path d="M84.3925,73.2766 C85.0335,72.0846 85.4985,70.8566 85.6445,69.6996 L90.3245,70.3066 C90.2625,70.7906 90.1665,71.2606 90.0555,71.7216 C89.9375,72.1776 89.8045,72.6266 89.6485,73.0586 C89.3395,73.9246 88.9625,74.7406 88.5455,75.5146 L84.3925,73.2766 Z" id="Fill-34" fill="#F9BF3B" mask="url(#mask-4)"></path>
                <path d="M89.207,75.8703 L87.886,75.1593 C88.318,74.3563 88.664,73.5863 88.942,72.8073 C89.081,72.4243 89.207,72.0083 89.33,71.5343 C89.448,71.0373 89.529,70.6133 89.58,70.2123 L91.068,70.4013 C91.011,70.8573 90.921,71.3323 90.785,71.8963 C90.647,72.4293 90.508,72.8893 90.354,73.3133 C90.051,74.1623 89.676,75.0003 89.207,75.8703" id="Fill-35" fill="#F1892D" mask="url(#mask-4)"></path>
                <path d="M85.0527,73.6315 L83.7317,72.9215 C84.3827,71.7105 84.7767,70.5945 84.9007,69.6065 L86.3887,69.7935 C86.2407,70.9655 85.7917,72.2575 85.0527,73.6315" id="Fill-36" fill="#F1892D" mask="url(#mask-4)"></path>
                <polygon id="Fill-37" fill="#F1892D" mask="url(#mask-4)" points="89.3974 73.7653 84.9524 72.1823 85.4564 70.7683 89.9004 72.3523"></polygon>
                <path d="M82.0126,76.7478 C82.9266,75.6348 83.7476,74.4718 84.3926,73.2768 L88.5456,75.5148 C87.7096,77.0618 86.7186,78.4508 85.6576,79.7438 L82.0126,76.7478 Z" id="Fill-38" fill="#F9BF3B" mask="url(#mask-4)"></path>
                <path d="M86.2373,80.2199 L85.0773,79.2679 C86.2353,77.8569 87.1543,76.5129 87.8863,75.1579 L89.2063,75.8709 C88.4273,77.3109 87.4563,78.7339 86.2373,80.2199" id="Fill-39" fill="#F1892D" mask="url(#mask-4)"></path>
                <path d="M82.5918,77.2238 L81.4328,76.2718 C82.3818,75.1168 83.1548,73.9888 83.7328,72.9208 L85.0528,73.6328 C84.4298,74.7858 83.6018,75.9948 82.5918,77.2238" id="Fill-40" fill="#F1892D" mask="url(#mask-4)"></path>
                <polygon id="Fill-41" fill="#F1892D" mask="url(#mask-4)" points="86.7597 78.3415 82.8767 75.6595 83.7297 74.4255 87.6127 77.1075"></polygon>
                <path d="M79.0166,79.9436 C80.0856,78.9276 81.0956,77.8606 82.0126,76.7476 L85.6576,79.7436 C84.5936,81.0356 83.4556,82.2336 82.2676,83.3636 L79.0166,79.9436 Z" id="Fill-42" fill="#F9BF3B" mask="url(#mask-4)"></path>
                <path d="M82.7841,83.9074 L81.7511,82.8204 C82.9971,81.6354 84.0861,80.4724 85.0781,79.2674 L86.2361,80.2204 C85.2051,81.4734 84.0761,82.6794 82.7841,83.9074" id="Fill-43" fill="#F1892D" mask="url(#mask-4)"></path>
                <path d="M79.5341,80.4875 L78.5001,79.4005 C79.5901,78.3635 80.5771,77.3115 81.4331,76.2715 L82.5921,77.2245 C81.6961,78.3115 80.6681,79.4095 79.5341,80.4875" id="Fill-44" fill="#F1892D" mask="url(#mask-4)"></path>
                <polygon id="Fill-45" fill="#F1892D" mask="url(#mask-4)" points="83.496 82.1608 80.058 78.9288 81.085 77.8358 84.523 81.0678"></polygon>
                <path d="M75.6953,82.7829 L75.8873,82.6369 L76.0983,82.4729 L76.5253,82.1329 C76.8103,81.9029 77.0923,81.6669 77.3733,81.4269 C77.9333,80.9469 78.4823,80.4509 79.0163,79.9439 L82.2673,83.3639 C81.6733,83.9289 81.0653,84.4769 80.4423,85.0109 C80.1313,85.2769 79.8163,85.5399 79.4953,85.7999 L79.0083,86.1879 L78.7583,86.3819 L78.4853,86.5879 L75.6953,82.7829 Z" id="Fill-46" fill="#F9BF3B" mask="url(#mask-4)"></path>
                <path d="M78.9365,87.1872 L78.0335,85.9892 L78.5485,85.5952 L79.0275,85.2132 C79.3325,84.9662 79.6465,84.7052 79.9555,84.4412 C80.5595,83.9232 81.1645,83.3772 81.7505,82.8202 L82.7845,83.9082 C82.1775,84.4832 81.5545,85.0452 80.9305,85.5802 C80.6115,85.8532 80.2875,86.1232 79.9675,86.3822 L79.2185,86.9742 L78.9365,87.1872 Z" id="Fill-47" fill="#F1892D" mask="url(#mask-4)"></path>
                <path d="M76.1474,83.3811 L75.2434,82.1841 L75.6394,81.8811 L76.0584,81.5471 C76.3284,81.3281 76.6084,81.0941 76.8854,80.8571 C77.4274,80.3921 77.9714,79.9021 78.5014,79.4001 L79.5334,80.4871 C78.9854,81.0071 78.4224,81.5151 77.8614,81.9961 C77.5734,82.2431 77.2834,82.4851 76.9984,82.7151 L76.1474,83.3811 Z" id="Fill-48" fill="#F1892D" mask="url(#mask-4)"></path>
                <polygon id="Fill-49" fill="#F1892D" mask="url(#mask-4)" points="79.873 85.4987 76.804 81.9147 77.942 80.9387 81.013 84.5227"></polygon>
                <path d="M69.79,81.3537 L72.809,79.3537 L72.614,79.0597 C71.703,77.6847 72.083,75.8127 73.459,74.9017 L75.343,73.6547 C76.718,72.7437 78.589,73.1237 79.5,74.4987 L81.352,77.2937 L81.954,78.2037 L84.954,82.7317 C85.865,84.1077 85.485,85.9787 84.109,86.8897 L76.706,91.7937 C75.33,92.7057 73.459,92.3247 72.548,90.9497 L68.946,85.5117 C68.034,84.1357 68.415,82.2647 69.79,81.3537" id="Fill-50" fill="#A5B5B6" mask="url(#mask-4)"></path>
                <path d="M68.9462,85.5114 C68.0342,84.1364 68.4152,82.2644 69.7902,81.3534 L71.4672,80.2424 L78.3422,90.7094 L76.7062,91.7934 C75.3302,92.7054 73.4592,92.3244 72.5482,90.9494 L68.9462,85.5114 Z" id="Fill-51" fill="#859596" mask="url(#mask-4)"></path>
                <path d="M70.2041,81.9787 C69.1701,82.6647 68.8861,84.0627 69.5711,85.0977 L73.1731,90.5357 C73.8581,91.5697 75.2571,91.8537 76.2921,91.1687 L83.6951,86.2647 C84.1931,85.9347 84.5341,85.4267 84.6541,84.8357 C84.7741,84.2447 84.6581,83.6447 84.3281,83.1457 L78.8751,74.9127 C78.1891,73.8787 76.7911,73.5947 75.7571,74.2797 L73.8731,75.5277 C73.3741,75.8577 73.0341,76.3647 72.9141,76.9567 C72.7941,77.5477 72.9091,78.1477 73.2391,78.6457 L73.4341,78.9397 C73.6631,79.2857 73.5681,79.7507 73.2231,79.9797 L70.2041,81.9787 Z M75.0551,93.0417 C73.8381,93.0417 72.6431,92.4517 71.9231,91.3637 L68.3201,85.9257 C67.1791,84.2017 67.6521,81.8707 69.3761,80.7287 L69.3761,80.7287 L71.7871,79.1317 C71.3921,78.3747 71.2701,77.5097 71.4431,76.6577 C71.6431,75.6737 72.2121,74.8287 73.0441,74.2767 L74.9291,73.0287 C76.6521,71.8877 78.9831,72.3607 80.1261,74.0847 L85.5791,82.3177 C86.1301,83.1497 86.3241,84.1507 86.1241,85.1347 C85.9251,86.1187 85.3551,86.9637 84.5231,87.5157 L77.1201,92.4187 C76.4841,92.8407 75.7661,93.0417 75.0551,93.0417 L75.0551,93.0417 Z" id="Fill-52" fill="#354546" mask="url(#mask-4)"></path>
                <path d="M78.3837,91.4328 C78.1407,91.4328 77.9027,91.3148 77.7577,91.0968 L70.8427,80.6568 C70.6127,80.3118 70.7077,79.8458 71.0537,79.6178 C71.3987,79.3888 71.8637,79.4828 72.0927,79.8288 L79.0087,90.2688 C79.2377,90.6138 79.1427,91.0788 78.7967,91.3078 C78.6697,91.3928 78.5267,91.4328 78.3837,91.4328" id="Fill-53" fill="#354546" mask="url(#mask-4)"></path>
                <path d="M69.914,87.7219 C69.679,87.7219 69.448,87.6119 69.302,87.4069 C69.061,87.0689 69.141,86.6009 69.478,86.3609 L73.564,83.4539 C73.902,83.2139 74.371,83.2929 74.61,83.6309 C74.851,83.9679 74.771,84.4359 74.435,84.6769 L70.348,87.5829 C70.216,87.6769 70.064,87.7219 69.914,87.7219" id="Fill-54" fill="#354546" mask="url(#mask-4)"></path>
                <path d="M72.2998,91.3244 C72.0488,91.3244 71.8038,91.1984 71.6618,90.9694 C71.4438,90.6174 71.5518,90.1554 71.9038,89.9374 L76.1648,87.2944 C76.5178,87.0754 76.9798,87.1844 77.1978,87.5364 C77.4158,87.8884 77.3078,88.3504 76.9558,88.5694 L72.6948,91.2114 C72.5708,91.2874 72.4348,91.3244 72.2998,91.3244" id="Fill-55" fill="#354546" mask="url(#mask-4)"></path>
                <path d="M81.3554,85.3259 C81.3054,85.3259 81.2544,85.3209 81.2064,85.3109 C81.0104,85.2709 80.8394,85.1559 80.7294,84.9909 L76.3844,78.4299 C76.1554,78.0849 76.2504,77.6189 76.5954,77.3909 L79.9464,75.1719 C80.2914,74.9429 80.7564,75.0369 80.9854,75.3829 C81.2134,75.7279 81.1194,76.1929 80.7744,76.4219 L78.0484,78.2269 L81.5664,83.5369 L84.2914,81.7319 C84.6364,81.5029 85.1014,81.5969 85.3304,81.9429 C85.5594,82.2879 85.4644,82.7539 85.1194,82.9819 L81.7694,85.2009 C81.6454,85.2839 81.5014,85.3259 81.3554,85.3259" id="Fill-56" fill="#354546" mask="url(#mask-4)"></path>
                <path d="M72.8095,80.1042 C72.5665,80.1042 72.3285,79.9862 72.1835,79.7682 C71.9555,79.4232 72.0495,78.9582 72.3945,78.7292 L74.1175,77.5882 C74.4625,77.3592 74.9275,77.4542 75.1565,77.7992 C75.3855,78.1442 75.2905,78.6092 74.9455,78.8382 L73.2225,79.9792 C73.0955,80.0632 72.9525,80.1042 72.8095,80.1042" id="Fill-57" fill="#354546" mask="url(#mask-4)"></path>
                <path d="M15.7128,66.0583 C15.6538,65.2063 15.6188,64.3563 15.6138,63.5033 C15.6098,63.0773 15.6148,62.6503 15.6248,62.2213 C15.6298,62.0063 15.6368,61.7913 15.6468,61.5733 L15.6628,61.2443 L15.6868,60.8843 L20.3898,61.2683 L20.3738,61.5103 L20.3598,61.7833 L20.3418,62.3393 C20.3328,62.7133 20.3288,63.0903 20.3328,63.4673 C20.3368,64.2223 20.3678,64.9783 20.4198,65.7293 L15.7128,66.0583 Z" id="Fill-58" fill="#F9BF3B" mask="url(#mask-4)"></path>
                <path d="M19.6718,65.7814 C19.6168,64.9894 19.5868,64.2124 19.5828,63.4714 C19.5788,63.1284 19.5818,62.7514 19.5918,62.3224 L19.6408,61.2204 L21.1378,61.3164 L21.1098,61.8194 L21.0908,62.3644 C21.0818,62.7694 21.0788,63.1304 21.0828,63.4594 C21.0868,64.1714 21.1158,64.9174 21.1688,65.6774 L19.6718,65.7814 Z" id="Fill-59" fill="#F1892D" mask="url(#mask-4)"></path>
                <path d="M14.9648,66.1101 C14.9028,65.2201 14.8688,64.3451 14.8638,63.5081 C14.8598,63.1161 14.8628,62.6891 14.8748,62.2041 C14.8798,61.9831 14.8868,61.7631 14.8978,61.5401 L14.9378,60.8351 L16.4348,60.9331 L16.3958,61.6101 C16.3858,61.8191 16.3798,62.0301 16.3748,62.2391 C16.3628,62.7061 16.3608,63.1181 16.3638,63.4961 C16.3688,64.3041 16.4018,65.1481 16.4618,66.0061 L14.9648,66.1101 Z" id="Fill-60" fill="#F1892D" mask="url(#mask-4)"></path>
                <polygon id="Fill-61" fill="#F1892D" mask="url(#mask-4)" points="15.6196 64.2536 15.6086 62.7536 20.3266 62.7176 20.3386 64.2176"></polygon>
                <path d="M16.4355,71.1765 C16.0545,69.4685 15.8345,67.7615 15.7125,66.0585 L20.4195,65.7295 C20.5265,67.2325 20.7215,68.7215 21.0415,70.1515 L16.4355,71.1765 Z" id="Fill-62" fill="#F9BF3B" mask="url(#mask-4)"></path>
                <path d="M20.3095,70.3156 C20.0035,68.9476 19.7885,67.4226 19.6715,65.7826 L21.1685,65.6766 C21.2795,67.2426 21.4835,68.6926 21.7725,69.9876 L20.3095,70.3156 Z" id="Fill-63" fill="#F1892D" mask="url(#mask-4)"></path>
                <path d="M15.7031,71.34 C15.3421,69.722 15.1001,68.012 14.9651,66.112 L16.4611,66.005 C16.5911,67.83 16.8221,69.468 17.1671,71.013 L15.7031,71.34 Z" id="Fill-64" fill="#F1892D" mask="url(#mask-4)"></path>
                <polygon id="Fill-65" fill="#F1892D" mask="url(#mask-4)" points="16.08 69.3586 15.874 67.8726 20.548 67.2246 20.754 68.7106"></polygon>
                <path d="M18.1611,76.2565 C17.7521,75.4265 17.4181,74.5815 17.1381,73.7325 C16.8571,72.8825 16.6261,72.0295 16.4351,71.1765 L21.0411,70.1515 C21.2011,70.8665 21.3911,71.5665 21.6151,72.2425 C21.8381,72.9205 22.0981,73.5725 22.4001,74.1845 L18.1611,76.2565 Z" id="Fill-66" fill="#F9BF3B" mask="url(#mask-4)"></path>
                <path d="M21.728,74.5163 C21.422,73.8983 21.145,73.2123 20.903,72.4773 C20.679,71.8003 20.479,71.0723 20.31,70.3153 L21.773,69.9883 C21.932,70.6963 22.118,71.3753 22.327,72.0073 C22.547,72.6763 22.798,73.2963 23.073,73.8513 L21.728,74.5163 Z" id="Fill-67" fill="#F1892D" mask="url(#mask-4)"></path>
                <path d="M17.4882,76.5876 C17.0852,75.7686 16.7372,74.9116 16.4262,73.9666 C16.1512,73.1376 15.9072,72.2536 15.7032,71.3396 L17.1672,71.0126 C17.3612,71.8776 17.5902,72.7126 17.8502,73.4966 C18.1392,74.3746 18.4612,75.1696 18.8342,75.9246 L17.4882,76.5876 Z" id="Fill-68" fill="#F1892D" mask="url(#mask-4)"></path>
                <polygon id="Fill-69" fill="#F1892D" mask="url(#mask-4)" points="17.3745 74.4436 16.9015 73.0206 21.3785 71.5306 21.8525 72.9546"></polygon>
                <path d="M21.2753,80.7585 C20.6513,80.0675 20.1033,79.3685 19.5993,78.6655 L19.5033,78.5335 L19.4033,78.3875 L19.2043,78.0905 C19.0673,77.8925 18.9463,77.6905 18.8273,77.4875 L18.6463,77.1835 C18.5873,77.0815 18.5353,76.9785 18.4803,76.8755 C18.3723,76.6695 18.2553,76.4655 18.1613,76.2565 L22.4003,74.1845 C22.4703,74.3415 22.5553,74.4855 22.6323,74.6355 C22.6733,74.7105 22.7113,74.7865 22.7523,74.8585 L22.8803,75.0725 C22.9643,75.2165 23.0483,75.3595 23.1423,75.4905 L23.2783,75.6945 C23.3023,75.7295 23.3213,75.7615 23.3483,75.7985 L23.4293,75.9095 C23.8603,76.5135 24.3103,77.0775 24.7623,77.5795 L21.2753,80.7585 Z" id="Fill-70" fill="#F9BF3B" mask="url(#mask-4)"></path>
                <path d="M24.2055,78.0822 C23.7355,77.5602 23.2685,76.9762 22.8185,76.3442 L22.7435,76.2412 C22.7165,76.2052 22.6965,76.1742 22.6755,76.1422 L22.5245,75.9152 C22.4125,75.7562 22.3125,75.5872 22.2335,75.4522 L22.1095,75.2442 C22.0715,75.1792 22.0425,75.1242 22.0135,75.0682 L21.9735,74.9942 C21.9435,74.9362 21.9195,74.8922 21.8955,74.8482 C21.8385,74.7422 21.7735,74.6222 21.7145,74.4882 L23.0855,73.8792 C23.1215,73.9592 23.1665,74.0452 23.2155,74.1352 C23.2435,74.1862 23.2715,74.2392 23.2995,74.2912 C23.3095,74.3102 23.3255,74.3412 23.3425,74.3732 C23.3615,74.4102 23.3815,74.4482 23.4025,74.4842 L23.5235,74.6862 C23.5975,74.8122 23.6765,74.9482 23.7545,75.0572 L23.9305,75.3202 C23.9375,75.3322 23.9455,75.3442 23.9545,75.3562 L24.0345,75.4662 C24.4575,76.0592 24.8875,76.5982 25.3195,77.0782 L24.2055,78.0822 Z" id="Fill-71" fill="#F1892D" mask="url(#mask-4)"></path>
                <path d="M20.7187,81.2609 C20.1197,80.5969 19.5537,79.8909 18.9897,79.1009 L18.7837,78.8099 L18.5817,78.5079 C18.4337,78.2949 18.3027,78.0749 18.1807,77.8679 L18.0017,77.5669 C17.9527,77.4829 17.9127,77.4069 17.8737,77.3319 L17.8207,77.2329 C17.7857,77.1669 17.7557,77.1119 17.7257,77.0559 C17.6427,76.8999 17.5567,76.7389 17.4787,76.5669 L18.8437,75.9459 C18.9017,76.0739 18.9727,76.2069 19.0487,76.3479 C19.0807,76.4079 19.1127,76.4679 19.1447,76.5289 L19.1987,76.6289 C19.2307,76.6899 19.2617,76.7499 19.2967,76.8099 L19.4717,77.1049 C19.5807,77.2899 19.6967,77.4829 19.8207,77.6629 L20.2047,78.2219 C20.7407,78.9719 21.2717,79.6349 21.8317,80.2559 L20.7187,81.2609 Z" id="Fill-72" fill="#F1892D" mask="url(#mask-4)"></path>
                <polygon id="Fill-73" fill="#F1892D" mask="url(#mask-4)" points="20.0376 79.2741 19.1616 78.0561 22.9916 75.3001 23.8676 76.5181"></polygon>
                <path d="M27.7651,83.3855 C27.1101,83.6015 26.4061,83.6565 25.7241,83.5525 C25.0401,83.4505 24.3821,83.1965 23.7691,82.8545 C23.4701,82.6785 23.1481,82.4725 22.9381,82.3045 C22.8221,82.2165 22.7021,82.1245 22.5921,82.0355 L22.3051,81.7835 C22.1071,81.6155 21.9381,81.4455 21.7651,81.2745 C21.5871,81.1035 21.4341,80.9305 21.2751,80.7585 L24.7631,77.5795 C24.8761,77.7025 24.9891,77.8325 25.1021,77.9375 C25.2161,78.0495 25.3281,78.1665 25.4381,78.2565 L25.6031,78.4035 L25.7341,78.5015 C25.8371,78.5865 25.8561,78.5935 25.9001,78.6235 C25.9841,78.6725 26.0731,78.7145 26.1681,78.7335 C26.2631,78.7545 26.3631,78.7445 26.4541,78.7125 L27.7651,83.3855 Z" id="Fill-74" fill="#F9BF3B" mask="url(#mask-4)"></path>
                <path d="M26.2695,77.9943 C26.2485,77.9943 26.2275,77.9973 26.2055,78.0053 L26.2275,78.0663 L26.2695,77.9943 Z M26.2715,79.4943 C26.1835,79.4943 26.0965,79.4853 26.0105,79.4663 C25.8535,79.4343 25.6905,79.3703 25.5205,79.2703 L25.4735,79.2413 C25.4215,79.2073 25.3715,79.1733 25.2705,79.0913 L25.1045,78.9633 L24.9505,78.8263 C24.8385,78.7333 24.7365,78.6323 24.6385,78.5343 L24.5825,78.4783 C24.4755,78.3773 24.3775,78.2703 24.2835,78.1673 L24.2115,78.0883 L25.3135,77.0713 L25.3925,77.1563 C25.4725,77.2443 25.5475,77.3273 25.6135,77.3893 L25.6975,77.4713 C25.7775,77.5513 25.8525,77.6263 25.9135,77.6763 L25.9375,77.6963 L26.0795,77.8223 L26.2125,77.9233 C26.2605,77.9633 26.2685,77.9683 26.2805,77.9763 L26.2905,77.9833 C26.3155,77.9963 26.3265,78.0003 26.3265,78.0003 C26.3235,78.0003 26.3185,77.9993 26.3145,77.9983 L26.2415,78.1083 L26.7035,79.4203 C26.5625,79.4693 26.4165,79.4943 26.2715,79.4943 L26.2715,79.4943 Z" id="Fill-75" fill="#F1892D" mask="url(#mask-4)"></path>
                <path d="M26.396,84.3532 C26.134,84.3532 25.871,84.3332 25.611,84.2932 C24.888,84.1862 24.145,83.9222 23.404,83.5102 L23.388,83.5002 C23.119,83.3422 22.744,83.1082 22.477,82.8952 L22.457,82.8802 C22.344,82.7942 22.227,82.7052 22.12,82.6192 L22.098,82.6002 L21.81,82.3482 C21.621,82.1862 21.455,82.0222 21.295,81.8632 L21.238,81.8072 C21.08,81.6552 20.937,81.4992 20.799,81.3492 L20.723,81.2662 L21.827,80.2502 L21.906,80.3362 C22.033,80.4752 22.153,80.6062 22.284,80.7322 L22.351,80.7982 C22.498,80.9442 22.637,81.0812 22.791,81.2122 L23.075,81.4612 C23.167,81.5362 23.268,81.6122 23.365,81.6862 L23.409,81.7202 C23.559,81.8412 23.826,82.0172 24.142,82.2042 C24.721,82.5252 25.291,82.7292 25.834,82.8102 C26.408,82.8972 26.994,82.8502 27.53,82.6732 L28,84.0982 C27.486,84.2672 26.943,84.3532 26.396,84.3532" id="Fill-76" fill="#F1892D" mask="url(#mask-4)"></path>
                <polygon id="Fill-77" fill="#F1892D" mask="url(#mask-4)" points="24.4389 83.1921 23.0989 82.5171 25.2309 78.2861 26.5699 78.9611"></polygon>
                <path d="M32.2441,78.5412 C32.0481,78.9282 31.8441,79.3182 31.6131,79.7172 C31.3901,80.1132 31.1281,80.5222 30.8361,80.9352 L30.6041,81.2472 L30.5741,81.2872 L30.5351,81.3342 L30.4551,81.4312 L30.2941,81.6202 C30.1901,81.7442 30.0671,81.8732 29.9421,81.9972 C29.8181,82.1232 29.6921,82.2452 29.5561,82.3552 C29.0261,82.8122 28.4211,83.1742 27.7651,83.3852 L26.4541,78.7122 C26.5461,78.6792 26.6261,78.6222 26.6971,78.5562 C26.7161,78.5412 26.7321,78.5222 26.7491,78.5052 C26.7651,78.4882 26.7811,78.4722 26.8051,78.4412 L26.8391,78.4012 L26.8561,78.3812 L26.8641,78.3712 L26.8791,78.3502 L27.0061,78.1792 C27.3501,77.6972 27.6991,77.0772 28.0311,76.4162 L32.2441,78.5412 Z" id="Fill-78" fill="#F9BF3B" mask="url(#mask-4)"></path>
                <path d="M26.7109,79.4172 L26.1979,78.0072 C26.1799,78.0142 26.1709,78.0202 26.1709,78.0202 C26.1709,78.0202 26.1759,78.0172 26.1869,78.0072 L26.2739,77.9072 L26.4039,77.7312 C26.6839,77.3392 27.0089,76.7792 27.3609,76.0792 L28.7019,76.7522 C28.3089,77.5332 27.9539,78.1422 27.6169,78.6142 L27.3819,78.9212 C27.3509,78.9592 27.3249,78.9872 27.2999,79.0142 C27.2629,79.0532 27.2319,79.0852 27.1989,79.1142 C27.0479,79.2522 26.8839,79.3542 26.7109,79.4172" id="Fill-79" fill="#F1892D" mask="url(#mask-4)"></path>
                <path d="M27.9946,84.0998 L27.5356,82.6718 C28.0706,82.4998 28.5856,82.2018 29.0666,81.7878 L29.0826,81.7738 C29.1966,81.6818 29.3066,81.5728 29.4096,81.4698 C29.5066,81.3728 29.6266,81.2498 29.7186,81.1398 L30.0066,80.7938 L30.2296,80.4948 C30.5046,80.1048 30.7506,79.7198 30.9596,79.3488 C31.2046,78.9248 31.4176,78.5138 31.5756,78.2018 L32.9126,78.8798 C32.7466,79.2088 32.5216,79.6438 32.2626,80.0928 C32.0306,80.5038 31.7556,80.9348 31.4486,81.3688 L31.4376,81.3828 L31.0326,81.9098 L30.8666,82.1058 C30.7396,82.2568 30.5886,82.4108 30.4726,82.5278 C30.3516,82.6498 30.2036,82.7948 30.0376,82.9308 C29.4076,83.4728 28.7196,83.8668 27.9946,84.0998" id="Fill-80" fill="#F1892D" mask="url(#mask-4)"></path>
                <polygon id="Fill-81" fill="#F1892D" mask="url(#mask-4)" points="30.3984 81.5437 26.5684 78.7877 27.4444 77.5697 31.2744 80.3267"></polygon>
                <path d="M34.3105,74.1394 C33.6395,75.5234 33.0155,77.0004 32.2445,78.5414 L28.0315,76.4154 C28.7015,75.0824 29.3315,73.5974 30.0615,72.0884 L34.3105,74.1394 Z" id="Fill-82" fill="#F9BF3B" mask="url(#mask-4)"></path>
                <path d="M28.7016,76.7526 L27.3616,76.0796 C27.7256,75.3536 28.0766,74.5856 28.4496,73.7716 C28.7476,73.1186 29.0566,72.4426 29.3866,71.7616 L30.7366,72.4146 C30.4146,73.0816 30.1086,73.7496 29.8136,74.3956 C29.4356,75.2216 29.0786,76.0026 28.7016,76.7526" id="Fill-83" fill="#F1892D" mask="url(#mask-4)"></path>
                <path d="M32.915,78.8767 L31.574,78.2057 C32.006,77.3407 32.394,76.4907 32.77,75.6687 C33.065,75.0247 33.342,74.4177 33.636,73.8127 L34.985,74.4667 C34.7,75.0567 34.425,75.6567 34.135,76.2927 C33.753,77.1267 33.359,77.9887 32.915,78.8767" id="Fill-84" fill="#F1892D" mask="url(#mask-4)"></path>
                <polygon id="Fill-85" fill="#F1892D" mask="url(#mask-4)" points="33.0024 76.9636 28.7114 74.9996 29.3364 73.6356 33.6274 75.5996"></polygon>
                <path d="M36.4853,70.4587 C36.0833,70.9527 35.7053,71.5367 35.3453,72.1587 C34.9853,72.7827 34.6443,73.4487 34.3103,74.1397 L30.0613,72.0877 C30.4263,71.3327 30.8173,70.5657 31.2603,69.7977 C31.7053,69.0297 32.1983,68.2567 32.8083,67.5007 L36.4853,70.4587 Z" id="Fill-86" fill="#F9BF3B" mask="url(#mask-4)"></path>
                <path d="M30.7368,72.4147 L29.3858,71.7617 C29.8258,70.8517 30.2148,70.1087 30.6108,69.4227 C31.1618,68.4717 31.6738,67.7117 32.2248,67.0297 L33.3918,67.9727 C32.8908,68.5927 32.4198,69.2917 31.9088,70.1737 C31.5328,70.8257 31.1598,71.5387 30.7368,72.4147" id="Fill-87" fill="#F1892D" mask="url(#mask-4)"></path>
                <path d="M34.9858,74.4655 L33.6348,73.8135 C34.0228,73.0105 34.3608,72.3655 34.6958,71.7835 C35.1158,71.0565 35.5108,70.4685 35.9028,69.9855 L37.0678,70.9315 C36.7258,71.3515 36.3748,71.8765 35.9948,72.5335 C35.6778,73.0835 35.3578,73.6965 34.9858,74.4655" id="Fill-88" fill="#F1892D" mask="url(#mask-4)"></path>
                <polygon id="Fill-89" fill="#F1892D" mask="url(#mask-4)" points="34.9702 72.8083 30.8852 70.4473 31.6362 69.1483 35.7212 71.5093"></polygon>
                <path d="M38.9458,68.7697 L38.7868,68.7937 C38.7358,68.8087 38.6848,68.8217 38.6338,68.8337 C38.6078,68.8407 38.5818,68.8447 38.5558,68.8527 L38.4808,68.8807 L38.3278,68.9337 C38.2778,68.9577 38.2278,68.9817 38.1768,69.0037 L38.0998,69.0377 L38.0238,69.0817 L37.8698,69.1657 L37.7168,69.2697 C37.3028,69.5417 36.8858,69.9667 36.4858,70.4587 L32.8088,67.5007 C32.9618,67.3117 33.1158,67.1237 33.2868,66.9397 C33.4498,66.7537 33.6318,66.5717 33.8148,66.3917 C33.9938,66.2107 34.2018,66.0387 34.3988,65.8657 L34.7188,65.6157 L34.8808,65.4917 L35.0528,65.3747 L35.4018,65.1447 L35.7728,64.9347 L35.9608,64.8317 L36.1568,64.7387 L36.5548,64.5607 C36.6918,64.5077 36.8308,64.4587 36.9698,64.4107 L37.1788,64.3387 C37.2498,64.3177 37.3208,64.3007 37.3928,64.2817 L37.8228,64.1747 C37.9678,64.1457 38.1138,64.1247 38.2588,64.1017 L38.9458,68.7697 Z" id="Fill-90" fill="#F9BF3B" mask="url(#mask-4)"></path>
                <path d="M33.3906,67.9738 L32.2256,67.0288 C32.3946,66.8208 32.5496,66.6318 32.7296,66.4378 C32.9106,66.2308 33.1046,66.0378 33.2886,65.8568 C33.4376,65.7068 33.6026,65.5638 33.7616,65.4258 L33.9376,65.2738 L34.4606,64.8708 L35.0316,64.4928 L35.6416,64.1528 L36.2876,63.8598 C36.4316,63.8048 36.5766,63.7538 36.7216,63.7028 L36.9636,63.6208 C37.0236,63.6028 37.0826,63.5868 37.1426,63.5718 L37.6786,63.4388 C37.8036,63.4138 37.9296,63.3938 38.0556,63.3738 L38.1406,63.3608 L38.3766,64.8418 L38.2866,64.8558 C38.1866,64.8718 38.0856,64.8878 37.9856,64.9068 L37.5196,65.0238 C37.4816,65.0338 37.4436,65.0428 37.4066,65.0538 L37.2126,65.1198 C37.0916,65.1628 36.9666,65.2068 36.8416,65.2538 L36.3006,65.4998 L35.7936,65.7848 L35.3186,66.1008 L34.8756,66.4438 L34.7446,66.5578 C34.5996,66.6838 34.4636,66.8028 34.3466,66.9198 C34.1746,67.0898 34.0006,67.2628 33.8526,67.4318 L33.8366,67.4508 C33.6846,67.6138 33.5446,67.7838 33.3906,67.9738" id="Fill-91" fill="#F1892D" mask="url(#mask-4)"></path>
                <path d="M37.0668,70.9318 L35.9028,69.9848 C36.3978,69.3768 36.8568,68.9378 37.3048,68.6438 L37.5088,68.5088 L37.7998,68.3498 L37.8778,68.3158 C37.9148,68.2998 37.9548,68.2808 37.9948,68.2618 L38.0848,68.2238 L38.3488,68.1318 C38.3788,68.1228 38.4108,68.1158 38.4418,68.1088 L38.4608,68.1038 C38.4998,68.0958 38.5378,68.0848 38.5748,68.0738 L38.6768,68.0518 L38.8358,68.0278 L39.0558,69.5118 L38.9458,69.5278 C38.8998,69.5408 38.8528,69.5528 38.8048,69.5638 C38.7998,69.5658 38.7888,69.5678 38.7758,69.5708 L38.6148,69.6278 C38.5698,69.6498 38.5248,69.6698 38.4788,69.6908 L38.3848,69.7388 L38.2618,69.8068 L38.1368,69.8908 C37.8158,70.1028 37.4578,70.4518 37.0668,70.9318" id="Fill-92" fill="#F1892D" mask="url(#mask-4)"></path>
                <polygon id="Fill-93" fill="#F1892D" mask="url(#mask-4)" points="37.0976 69.6936 34.4336 65.7986 35.6716 64.9516 38.3356 68.8466"></polygon>
                <path d="M42.0878,69.5847 C41.5058,69.2727 40.9268,69.0267 40.3888,68.8847 L40.2878,68.8547 C40.2548,68.8467 40.2228,68.8427 40.1898,68.8357 L39.9958,68.7967 C39.9298,68.7787 39.8688,68.7757 39.8068,68.7697 L39.6218,68.7467 C39.5618,68.7407 39.5048,68.7447 39.4458,68.7417 C39.3888,68.7427 39.3278,68.7307 39.2728,68.7387 C39.1638,68.7517 39.0488,68.7437 38.9458,68.7697 L38.2588,64.1017 C38.5508,64.0477 38.8398,64.0417 39.1308,64.0227 C39.2768,64.0117 39.4168,64.0227 39.5608,64.0237 C39.7018,64.0297 39.8468,64.0297 39.9858,64.0427 L40.3998,64.0877 C40.5378,64.1047 40.6768,64.1197 40.8068,64.1487 L41.2038,64.2277 C41.2698,64.2417 41.3368,64.2537 41.4008,64.2697 L41.5898,64.3217 C42.6068,64.5917 43.5098,64.9937 44.3428,65.4397 L42.0878,69.5847 Z" id="Fill-94" fill="#F9BF3B" mask="url(#mask-4)"></path>
                <path d="M43.9887,66.1013 C43.0657,65.6063 42.2417,65.2703 41.3967,65.0463 L41.2137,64.9963 C41.1827,64.9883 41.1517,64.9823 41.1197,64.9763 L40.6457,64.8803 C40.5617,64.8623 40.4547,64.8503 40.3417,64.8363 L39.9127,64.7883 C39.8307,64.7823 39.7457,64.7803 39.6617,64.7773 L39.5467,64.7743 C39.4977,64.7733 39.4487,64.7723 39.4007,64.7703 C39.3177,64.7683 39.2457,64.7663 39.1847,64.7703 C39.1177,64.7743 39.0567,64.7783 38.9957,64.7813 C38.7817,64.7933 38.5807,64.8053 38.3937,64.8393 L38.1237,63.3633 C38.4027,63.3123 38.6607,63.2983 38.9117,63.2843 L39.0827,63.2743 C39.2147,63.2643 39.3377,63.2683 39.4467,63.2713 C39.4867,63.2723 39.5257,63.2743 39.5657,63.2743 L39.7017,63.2783 C39.8137,63.2813 39.9287,63.2843 40.0507,63.2943 L40.0697,63.2963 L40.5157,63.3473 C40.6527,63.3623 40.8057,63.3803 40.9607,63.4143 L41.4187,63.5063 C41.4727,63.5173 41.5267,63.5283 41.5787,63.5403 L41.7877,63.5983 C42.7427,63.8513 43.6697,64.2273 44.6977,64.7793 L43.9887,66.1013 Z" id="Fill-95" fill="#F1892D" mask="url(#mask-4)"></path>
                <path d="M41.7334,70.2458 C41.1714,69.9448 40.6554,69.7308 40.1974,69.6098 L40.0974,69.5808 C40.0784,69.5778 40.0594,69.5748 40.0404,69.5708 L39.8034,69.5218 C39.8014,69.5238 39.7844,69.5208 39.7704,69.5198 L39.5464,69.4928 L39.5194,69.4928 C39.4894,69.4938 39.4594,69.4928 39.4284,69.4918 C39.3954,69.4918 39.3614,69.4898 39.3284,69.4868 C39.2794,69.4918 39.2294,69.4948 39.1794,69.4968 C39.1564,69.4978 39.1324,69.4978 39.1094,69.5008 C39.1164,69.4998 39.1224,69.4988 39.1284,69.4968 L38.7634,68.0418 C38.9004,68.0078 39.0224,68.0028 39.1124,67.9978 C39.1344,67.9968 39.1574,67.9968 39.1804,67.9948 C39.2854,67.9808 39.3744,67.9868 39.4274,67.9908 L39.4474,67.9918 L39.4734,67.9918 L39.4864,67.9928 C39.4974,67.9938 39.5084,67.9928 39.5194,67.9928 L39.5214,67.9928 C39.5784,67.9938 39.6354,67.9948 39.6954,67.9998 L39.9154,68.0268 C39.9734,68.0318 40.0604,68.0408 40.1614,68.0648 L40.3584,68.1038 C40.3944,68.1108 40.4294,68.1178 40.4664,68.1258 L40.5914,68.1628 C41.1594,68.3128 41.7814,68.5698 42.4424,68.9238 L41.7334,70.2458 Z" id="Fill-96" fill="#F1892D" mask="url(#mask-4)"></path>
                <polygon id="Fill-97" fill="#F1892D" mask="url(#mask-4)" points="41.1147 69.0754 39.6637 68.6944 40.8647 64.1304 42.3147 64.5124"></polygon>
                <path d="M19.2158,53.4709 C20.7968,53.8829 21.8658,55.4129 21.5908,56.8719 L20.4948,62.7069 C20.2198,64.1659 18.7028,65.0219 17.1218,64.6099 L3.1678,60.9719 C1.5878,60.5599 0.5188,59.0299 0.7928,57.5709 L1.8898,51.7369 C2.1638,50.2779 3.6818,49.4209 5.2618,49.8329 L19.2158,53.4709 Z" id="Fill-98" fill="#A5B5B6" mask="url(#mask-4)"></path>
                <path d="M4.4692,50.4807 C4.0712,50.4807 3.6902,50.5847 3.3742,50.7847 C2.9772,51.0367 2.7112,51.4237 2.6272,51.8747 L1.5302,57.7097 C1.3292,58.7747 2.1662,59.9367 3.3572,60.2467 L17.3112,63.8837 C17.9162,64.0427 18.5352,63.9597 19.0102,63.6587 C19.4072,63.4067 19.6722,63.0197 19.7572,62.5687 L20.8542,56.7337 C21.0542,55.6687 20.2182,54.5067 19.0272,54.1967 L5.0732,50.5597 C4.8712,50.5067 4.6682,50.4807 4.4692,50.4807 M17.9122,65.4617 C17.5872,65.4617 17.2582,65.4207 16.9322,65.3357 L2.9792,61.6977 C1.0202,61.1877 -0.2908,59.2737 0.0552,57.4327 L1.1522,51.5977 C1.3152,50.7327 1.8192,49.9947 2.5712,49.5177 C3.3952,48.9947 4.4462,48.8457 5.4512,49.1077 L19.4052,52.7457 C21.3632,53.2557 22.6752,55.1687 22.3282,57.0107 L21.2312,62.8457 C21.0692,63.7097 20.5652,64.4487 19.8132,64.9257 C19.2552,65.2787 18.5942,65.4617 17.9122,65.4617" id="Fill-99" fill="#354546" mask="url(#mask-4)"></path>
                <path d="M10.1464,61.6213 C10.1124,61.6213 10.0774,61.6193 10.0424,61.6143 C9.6324,61.5573 9.3454,61.1793 9.4024,60.7683 L10.4284,53.3653 C10.4854,52.9543 10.8644,52.6683 11.2744,52.7253 C11.6854,52.7823 11.9714,53.1613 11.9144,53.5713 L10.8884,60.9743 C10.8364,61.3503 10.5154,61.6213 10.1464,61.6213" id="Fill-100" fill="#354546" mask="url(#mask-4)"></path>
                <path d="M10.2021,59.4782 C10.1461,59.4782 10.0901,59.4722 10.0331,59.4582 L0.8651,57.3452 C0.4621,57.2522 0.2101,56.8492 0.3031,56.4462 C0.3961,56.0422 0.7981,55.7902 1.2021,55.8832 L10.3701,57.9972 C10.7731,58.0902 11.0251,58.4932 10.9321,58.8962 C10.8521,59.2432 10.5441,59.4782 10.2021,59.4782" id="Fill-101" fill="#354546" mask="url(#mask-4)"></path>
                <path d="M10.6933,55.9362 C10.6343,55.9362 10.5743,55.9292 10.5143,55.9152 L1.5363,53.7222 C1.1343,53.6242 0.8873,53.2182 0.9853,52.8152 C1.0843,52.4132 1.4903,52.1662 1.8923,52.2652 L10.8703,54.4572 C11.2733,54.5552 11.5193,54.9612 11.4213,55.3642 C11.3373,55.7062 11.0303,55.9362 10.6933,55.9362" id="Fill-102" fill="#354546" mask="url(#mask-4)"></path>
                <path d="M20.1772,52.8698 C20.7212,53.4868 20.7072,54.3648 20.1462,54.8218 L19.6402,55.2318 C19.0792,55.6888 18.1742,55.5578 17.6292,54.9408 L12.6522,49.3038 C12.1082,48.6868 12.1222,47.8088 12.6832,47.3518 L13.1892,46.9418 C13.7502,46.4848 14.6562,46.6168 15.2002,47.2328 L20.1772,52.8698 Z" id="Fill-103" fill="#A5B5B6" mask="url(#mask-4)"></path>
                <path d="M13.9868,47.4187 C13.8638,47.4187 13.7498,47.4527 13.6618,47.5237 L13.1568,47.9347 C13.0448,48.0257 13.0118,48.1517 13.0048,48.2407 C12.9888,48.4327 13.0658,48.6387 13.2148,48.8077 L18.1918,54.4447 C18.4658,54.7537 18.9218,54.8507 19.1678,54.6497 L19.6728,54.2397 C19.7848,54.1477 19.8178,54.0227 19.8248,53.9327 C19.8408,53.7417 19.7638,53.5347 19.6148,53.3667 L14.6378,47.7297 C14.4618,47.5297 14.2098,47.4187 13.9868,47.4187 M18.8428,56.2517 C18.2008,56.2517 17.5388,55.9717 17.0678,55.4377 L12.0908,49.7997 C11.6728,49.3267 11.4608,48.7137 11.5098,48.1177 C11.5548,47.5797 11.8028,47.1017 12.2108,46.7707 L12.7158,46.3597 C13.5868,45.6517 14.9538,45.8207 15.7618,46.7367 L20.7388,52.3737 C21.1568,52.8467 21.3688,53.4607 21.3198,54.0567 C21.2748,54.5937 21.0268,55.0727 20.6188,55.4037 L20.1138,55.8147 C19.7508,56.1087 19.3018,56.2517 18.8428,56.2517" id="Fill-104" fill="#354546" mask="url(#mask-4)"></path>
                <path d="M21.0942,53.9523 L19.9302,52.6343 C18.8422,51.4003 17.0312,51.1383 15.9082,52.0513 L14.7072,53.0273 C13.5842,53.9403 13.5562,55.6963 14.6452,56.9303 L15.8092,58.2483 C16.8982,59.4813 18.7082,59.7443 19.8312,58.8303 L21.0322,57.8553 C22.1552,56.9423 22.1832,55.1853 21.0942,53.9523" id="Fill-105" fill="#A5B5B6" mask="url(#mask-4)"></path>
                <path d="M17.5024,52.26 C17.0874,52.26 16.6914,52.381 16.3814,52.634 L15.1804,53.61 C14.7524,53.958 14.6294,54.418 14.6034,54.743 C14.5544,55.327 14.7744,55.944 15.2074,56.434 L16.3714,57.752 C17.1864,58.675 18.5544,58.903 19.3584,58.249 L20.5584,57.273 C20.9874,56.925 21.1094,56.464 21.1364,56.139 C21.1854,55.555 20.9644,54.939 20.5324,54.448 L19.3684,53.131 C18.8684,52.564 18.1604,52.26 17.5024,52.26 M18.2344,60.123 C17.1594,60.124 16.0444,59.648 15.2464,58.745 L14.0834,57.427 C13.3814,56.632 13.0264,55.609 13.1074,54.619 C13.1804,53.749 13.5804,52.977 14.2344,52.446 L15.4354,51.47 C16.8694,50.304 19.1384,50.604 20.4924,52.138 L21.6564,53.456 C22.3574,54.25 22.7134,55.274 22.6314,56.263 C22.5594,57.133 22.1594,57.905 21.5044,58.437 L20.3044,59.413 C19.7144,59.892 18.9844,60.123 18.2344,60.123" id="Fill-106" fill="#354546" mask="url(#mask-4)"></path>
                <path d="M60.9443,75.427 C60.9203,75.427 60.8973,75.427 60.8753,75.428 C60.6943,75.437 60.6253,75.478 60.6143,75.492 C60.5303,75.608 60.4613,76.304 61.2263,77.923 C61.8083,79.154 62.6323,80.4 63.1133,80.947 C63.4993,81.386 63.9853,81.628 64.4463,81.606 C64.8453,81.588 65.1993,81.383 65.4683,81.012 C66.1413,80.089 66.0063,78.508 65.1743,77.559 C64.4673,76.754 62.1483,75.427 60.9443,75.427 M64.3903,83.107 C63.5123,83.107 62.6423,82.685 61.9863,81.936 C61.4463,81.322 58.0053,76.528 59.4023,74.609 C59.6133,74.319 60.0293,73.966 60.8063,73.93 C62.5523,73.849 65.3433,75.477 66.3013,76.57 C67.6073,78.057 67.7733,80.396 66.6813,81.896 C66.1413,82.636 65.3723,83.065 64.5133,83.104 C64.4723,83.106 64.4313,83.107 64.3903,83.107" id="Fill-107" fill="#19B5FE" mask="url(#mask-4)"></path>
                <path d="M61.2216,74.779 C61.1546,75.211 61.6316,76.041 63.1766,77.076 C64.4546,77.933 66.0046,78.607 66.8126,78.805 C67.4146,78.953 68.0326,78.844 68.5516,78.498 C69.1786,78.081 69.6146,77.358 69.7466,76.513 C70.0086,74.844 69.0546,73.199 67.6186,72.846 C66.4876,72.568 63.4126,72.971 61.9066,73.973 C61.6216,74.162 61.2726,74.455 61.2216,74.779 M67.3446,80.37 C67.0486,80.37 66.7506,80.335 66.4546,80.262 C64.6886,79.828 59.3096,77.283 59.7406,74.546 C59.8486,73.854 60.2976,73.241 61.0756,72.724 C62.8676,71.532 66.3676,70.994 67.9776,71.39 C70.1506,71.924 71.6086,74.326 71.2286,76.746 C71.0316,78.004 70.3586,79.098 69.3826,79.747 C68.7636,80.159 68.0616,80.37 67.3446,80.37" id="Fill-108" fill="#C72C1C" mask="url(#mask-4)"></path>
                <path d="M56.2841,60.0241 C54.6401,59.8801 51.9471,59.8331 50.3001,59.9201 L41.2291,60.3941 C39.5811,60.4801 38.2091,61.9001 38.1801,63.5501 L38.0301,72.1721 C38.0011,73.8221 39.2801,75.5271 40.8721,75.9621 L50.0611,78.4691 C51.6531,78.9031 54.2691,78.9491 55.8751,78.5701 L65.1461,76.3851 C66.7521,76.0071 68.0901,74.3471 68.1181,72.6971 L68.2681,64.0751 C68.2981,62.4251 66.9761,60.9581 65.3331,60.8141 L56.2841,60.0241 Z" id="Fill-109" fill="#A5B5B6" mask="url(#mask-4)"></path>
                <path d="M65.1884,73.986 L55.9174,76.171 C54.3114,76.549 51.6944,76.504 50.1024,76.069 L40.9144,73.562 C39.3224,73.128 38.0434,71.423 38.0724,69.773 L38.0304,72.173 C38.0014,73.822 39.2804,75.528 40.8724,75.962 L50.0614,78.469 C51.6534,78.903 54.2694,78.949 55.8754,78.57 L65.1464,76.385 C66.7514,76.007 68.0894,74.347 68.1184,72.697 L68.1604,70.298 C68.1314,71.948 66.7934,73.607 65.1884,73.986" id="Fill-110" fill="#859596" mask="url(#mask-4)"></path>
                <path d="M52.2646,60.6257 C51.5586,60.6257 50.8906,60.6397 50.3386,60.6677 L41.2676,61.1427 C40.0226,61.2077 38.9516,62.3157 38.9306,63.5627 L38.7806,72.1857 C38.7576,73.4957 39.8056,74.8937 41.0696,75.2387 L50.2586,77.7457 C51.7276,78.1467 54.2216,78.1897 55.7026,77.8407 L64.9736,75.6557 C66.2486,75.3547 67.3456,73.9947 67.3686,72.6847 L67.5186,64.0617 C67.5406,62.8147 66.5096,61.6697 65.2676,61.5617 L56.2186,60.7717 C55.1496,60.6777 53.6366,60.6257 52.2646,60.6257 M53.2436,79.5797 C52.0346,79.5797 50.8026,79.4487 49.8636,79.1927 L40.6746,76.6857 C38.7366,76.1567 37.2446,74.1687 37.2806,72.1597 L37.4316,63.5367 C37.4666,61.4977 39.1526,59.7507 41.1896,59.6447 L50.2606,59.1707 C51.9416,59.0827 54.6726,59.1297 56.3496,59.2767 L65.3976,60.0667 C67.4296,60.2447 69.0546,62.0477 69.0186,64.0877 L68.8686,72.7107 C68.8326,74.7197 67.2736,76.6547 65.3186,77.1157 L56.0466,79.3007 C55.2526,79.4877 54.2556,79.5797 53.2436,79.5797" id="Fill-111" fill="#354546" mask="url(#mask-4)"></path>
                <polygon id="Fill-112" fill="#556566" mask="url(#mask-4)" points="56.1767 73.1018 43.1007 72.8738 43.2617 63.6748 56.3377 63.9028"></polygon>
                <path d="M51.7617,71.1633 C51.5047,71.1633 51.2637,71.0313 51.1247,70.8093 L50.0877,69.1443 L48.4707,69.1163 C48.2197,69.1123 47.9867,68.9823 47.8507,68.7703 L47.7837,68.6643 L47.3467,69.6813 C47.2497,69.9083 47.0467,70.0723 46.8047,70.1213 C46.5627,70.1683 46.3117,70.0953 46.1357,69.9223 L45.2487,69.0603 L43.1687,69.0243 C42.7547,69.0173 42.4247,68.6753 42.4317,68.2613 C42.4387,67.8473 42.7867,67.5153 43.1947,67.5243 L45.5727,67.5663 C45.7627,67.5693 45.9457,67.6453 46.0817,67.7783 L46.3997,68.0873 L46.9657,66.7703 C47.0747,66.5153 47.3167,66.3413 47.5937,66.3193 C47.8707,66.2953 48.1367,66.4293 48.2867,66.6633 L48.8997,67.6233 L50.5217,67.6523 C50.7757,67.6563 51.0107,67.7893 51.1447,68.0053 L51.5387,68.6383 L52.3517,66.0853 C52.4497,65.7773 52.7347,65.5663 53.0577,65.5623 C53.3827,65.5573 53.6697,65.7623 53.7757,66.0673 L54.3457,67.7193 L56.2707,67.7523 C56.6847,67.7593 57.0147,68.1013 57.0067,68.5153 C56.9997,68.9303 56.6567,69.2593 56.2437,69.2523 L53.7947,69.2093 C53.4807,69.2043 53.2017,69.0023 53.0997,68.7053 L53.0957,68.6943 L52.4767,70.6413 C52.3877,70.9193 52.1457,71.1213 51.8557,71.1573 C51.8237,71.1613 51.7927,71.1633 51.7617,71.1633" id="Fill-113" fill="#D5E5E6" mask="url(#mask-4)"></path>
                <path d="M43.8642,72.1369 L55.4402,72.3389 L55.5752,64.6399 L43.9982,64.4379 L43.8642,72.1369 Z M56.1772,73.8519 L56.1642,73.8519 L43.0882,73.6229 C42.6742,73.6159 42.3442,73.2749 42.3512,72.8609 L42.5112,63.6619 C42.5152,63.4629 42.5972,63.2739 42.7402,63.1359 C42.8842,62.9969 43.0742,62.9209 43.2752,62.9249 L56.3502,63.1539 C56.5502,63.1569 56.7392,63.2389 56.8772,63.3819 C57.0152,63.5249 57.0912,63.7179 57.0882,63.9159 L56.9272,73.1149 C56.9242,73.3139 56.8412,73.5029 56.6982,73.6409 C56.5582,73.7769 56.3712,73.8519 56.1772,73.8519 L56.1772,73.8519 Z" id="Fill-114" fill="#354546" mask="url(#mask-4)"></path>
                <path d="M63.1552,65.7976 C63.1382,66.7776 62.3302,67.5586 61.3492,67.5416 C60.3702,67.5246 59.5892,66.7156 59.6062,65.7356 C59.6232,64.7556 60.4312,63.9746 61.4122,63.9916 C62.3912,64.0086 63.1732,64.8176 63.1552,65.7976" id="Fill-115" fill="#F85C4C" mask="url(#mask-4)"></path>
                <path d="M61.3808,64.7414 C60.8238,64.7414 60.3658,65.1894 60.3568,65.7484 C60.3468,66.3134 60.7978,66.7814 61.3628,66.7914 C61.9248,66.7974 62.3958,66.3494 62.4058,65.7844 C62.4158,65.2194 61.9638,64.7514 61.3988,64.7414 L61.3808,64.7414 Z M61.3818,68.2914 L61.3368,68.2914 C60.6618,68.2794 60.0328,68.0054 59.5648,67.5204 C59.0958,67.0354 58.8448,66.3964 58.8568,65.7224 C58.8808,64.3304 60.0358,63.2144 61.4248,63.2414 C62.8178,63.2664 63.9298,64.4184 63.9048,65.8104 C63.8938,66.4844 63.6198,67.1144 63.1348,67.5824 C62.6608,68.0404 62.0398,68.2914 61.3818,68.2914 L61.3818,68.2914 Z" id="Fill-116" fill="#C72C1C" mask="url(#mask-4)"></path>
                <path d="M63.0566,71.4465 C63.0396,72.4265 62.2316,73.2075 61.2506,73.1905 C60.2716,73.1735 59.4906,72.3645 59.5076,71.3845 C59.5246,70.4045 60.3326,69.6235 61.3136,69.6405 C62.2936,69.6575 63.0746,70.4665 63.0566,71.4465" id="Fill-117" fill="#B9D96D" mask="url(#mask-4)"></path>
                <path d="M61.2822,70.3903 C61.0142,70.3903 60.7622,70.4923 60.5702,70.6783 C60.3732,70.8683 60.2622,71.1243 60.2582,71.3973 C60.2482,71.9623 60.6992,72.4303 61.2642,72.4403 C61.5392,72.4473 61.7982,72.3433 61.9942,72.1533 C62.1912,71.9623 62.3032,71.7073 62.3072,71.4333 C62.3172,70.8683 61.8652,70.4003 61.3002,70.3903 L61.2822,70.3903 M61.2842,73.9403 L61.2382,73.9403 C59.8462,73.9153 58.7332,72.7633 58.7582,71.3713 C58.7822,69.9943 59.9102,68.8903 61.2812,68.8903 L61.3262,68.8903 C62.7192,68.9153 63.8312,70.0673 63.8062,71.4593 C63.7952,72.1343 63.5212,72.7633 63.0362,73.2323 C62.5622,73.6893 61.9412,73.9403 61.2842,73.9403" id="Fill-118" fill="#719911" mask="url(#mask-4)"></path>
                <path d="M42.9135,62.5466 C42.5535,62.5466 42.2355,62.2856 42.1745,61.9186 L41.7705,59.4656 C41.7035,59.0566 41.9805,58.6716 42.3895,58.6036 C42.7985,58.5356 43.1835,58.8136 43.2505,59.2216 L43.6545,61.6746 C43.7225,62.0836 43.4455,62.4686 43.0365,62.5366 C42.9955,62.5436 42.9545,62.5466 42.9135,62.5466" id="Fill-119" fill="#354546" mask="url(#mask-4)"></path>
                <path d="M45.874,62.0593 C45.513,62.0593 45.195,61.7983 45.135,61.4313 L44.731,58.9783 C44.664,58.5693 44.94,58.1833 45.349,58.1163 C45.758,58.0483 46.144,58.3263 46.211,58.7343 L46.615,61.1873 C46.682,61.5963 46.405,61.9813 45.997,62.0493 C45.956,62.0563 45.915,62.0593 45.874,62.0593" id="Fill-120" fill="#354546" mask="url(#mask-4)"></path>
                <path d="M63.2177,62.5466 C63.1777,62.5466 63.1367,62.5436 63.0957,62.5366 C62.6867,62.4686 62.4097,62.0836 62.4777,61.6746 L62.8807,59.2216 C62.9477,58.8136 63.3327,58.5366 63.7427,58.6036 C64.1517,58.6716 64.4287,59.0566 64.3617,59.4656 L63.9567,61.9186 C63.8967,62.2856 63.5787,62.5466 63.2177,62.5466" id="Fill-121" fill="#354546" mask="url(#mask-4)"></path>
                <path d="M60.2578,62.0593 C60.2178,62.0593 60.1768,62.0563 60.1358,62.0493 C59.7268,61.9813 59.4498,61.5963 59.5168,61.1873 L59.9208,58.7343 C59.9878,58.3263 60.3728,58.0483 60.7828,58.1163 C61.1918,58.1833 61.4678,58.5693 61.4018,58.9783 L60.9968,61.4313 C60.9368,61.7983 60.6178,62.0593 60.2578,62.0593" id="Fill-122" fill="#354546" mask="url(#mask-4)"></path>
                <polygon id="Fill-123" fill="#A5B5B6" mask="url(#mask-4)" points="39.972 107.861 44.659 107.861 44.659 98.861 39.972 98.861"></polygon>
                <polygon id="Fill-124" fill="#C5D5D6" mask="url(#mask-4)" points="39.972 102.437 44.659 102.437 44.659 98.861 39.972 98.861"></polygon>
                <path d="M40.722,107.111 L43.91,107.111 L43.91,99.611 L40.722,99.611 L40.722,107.111 Z M44.659,108.611 L39.972,108.611 C39.558,108.611 39.222,108.275 39.222,107.861 L39.222,98.861 C39.222,98.446 39.558,98.111 39.972,98.111 L44.659,98.111 C45.073,98.111 45.409,98.446 45.409,98.861 L45.409,107.861 C45.409,108.275 45.073,108.611 44.659,108.611 L44.659,108.611 Z" id="Fill-125" fill="#354546" mask="url(#mask-4)"></path>
                <polygon id="Fill-126" fill="#A5B5B6" mask="url(#mask-4)" points="36.793 106.098 39.978 106.098 39.978 90.198 36.793 90.198"></polygon>
                <path d="M37.543,105.348 L39.228,105.348 L39.228,90.948 L37.543,90.948 L37.543,105.348 Z M39.978,106.848 L36.793,106.848 C36.379,106.848 36.043,106.512 36.043,106.098 L36.043,90.198 C36.043,89.784 36.379,89.448 36.793,89.448 L39.978,89.448 C40.392,89.448 40.728,89.784 40.728,90.198 L40.728,106.098 C40.728,106.512 40.392,106.848 39.978,106.848 L39.978,106.848 Z" id="Fill-127" fill="#354546" mask="url(#mask-4)"></path>
                <path d="M38.4516,84.6853 L38.3196,84.6853 C36.6696,84.6853 35.3196,86.0353 35.3196,87.6853 L35.3196,94.8103 L41.4516,94.8103 L41.4516,87.6853 C41.4516,86.0353 40.1016,84.6853 38.4516,84.6853" id="Fill-128" fill="#A5B5B6" mask="url(#mask-4)"></path>
                <path d="M38.4516,84.6853 L38.3196,84.6853 C36.6696,84.6853 35.3196,86.0353 35.3196,87.6853 L35.3196,90.4233 C35.3196,88.7733 36.6696,87.4233 38.3196,87.4233 L38.4516,87.4233 C40.1016,87.4233 41.4516,88.7733 41.4516,90.4233 L41.4516,87.6853 C41.4516,86.0353 40.1016,84.6853 38.4516,84.6853" id="Fill-129" fill="#C5D5D6" mask="url(#mask-4)"></path>
                <path d="M36.0693,94.0603 L40.7013,94.0603 L40.7013,87.6853 C40.7013,86.4453 39.6923,85.4353 38.4513,85.4353 L38.3193,85.4353 C37.0783,85.4353 36.0693,86.4453 36.0693,87.6853 L36.0693,94.0603 Z M41.4513,95.5603 L35.3193,95.5603 C34.9053,95.5603 34.5693,95.2253 34.5693,94.8103 L34.5693,87.6853 C34.5693,85.6183 36.2513,83.9353 38.3193,83.9353 L38.4513,83.9353 C40.5193,83.9353 42.2013,85.6183 42.2013,87.6853 L42.2013,94.8103 C42.2013,95.2253 41.8663,95.5603 41.4513,95.5603 L41.4513,95.5603 Z" id="Fill-130" fill="#354546" mask="url(#mask-4)"></path>
                <polygon id="Fill-131" fill="#A5B5B6" mask="url(#mask-4)" points="61.097 107.861 65.784 107.861 65.784 98.861 61.097 98.861"></polygon>
                <polygon id="Fill-132" fill="#C5D5D6" mask="url(#mask-4)" points="61.097 102.437 65.784 102.437 65.784 98.861 61.097 98.861"></polygon>
                <path d="M61.847,107.111 L65.035,107.111 L65.035,99.611 L61.847,99.611 L61.847,107.111 Z M65.784,108.611 L61.097,108.611 C60.683,108.611 60.347,108.275 60.347,107.861 L60.347,98.861 C60.347,98.446 60.683,98.111 61.097,98.111 L65.784,98.111 C66.198,98.111 66.534,98.446 66.534,98.861 L66.534,107.861 C66.534,108.275 66.198,108.611 65.784,108.611 L65.784,108.611 Z" id="Fill-133" fill="#354546" mask="url(#mask-4)"></path>
                <polygon id="Fill-134" fill="#A5B5B6" mask="url(#mask-4)" points="65.778 106.098 68.963 106.098 68.963 90.198 65.778 90.198"></polygon>
                <path d="M66.528,105.348 L68.213,105.348 L68.213,90.948 L66.528,90.948 L66.528,105.348 Z M68.963,106.848 L65.778,106.848 C65.364,106.848 65.028,106.512 65.028,106.098 L65.028,90.198 C65.028,89.784 65.364,89.448 65.778,89.448 L68.963,89.448 C69.377,89.448 69.713,89.784 69.713,90.198 L69.713,106.098 C69.713,106.512 69.377,106.848 68.963,106.848 L68.963,106.848 Z" id="Fill-135" fill="#354546" mask="url(#mask-4)"></path>
                <path d="M67.3046,84.6853 L67.4366,84.6853 C69.0866,84.6853 70.4366,86.0353 70.4366,87.6853 L70.4366,94.8103 L64.3046,94.8103 L64.3046,87.6853 C64.3046,86.0353 65.6546,84.6853 67.3046,84.6853" id="Fill-136" fill="#A5B5B6" mask="url(#mask-4)"></path>
                <path d="M67.3046,84.6853 L67.4366,84.6853 C69.0866,84.6853 70.4366,86.0353 70.4366,87.6853 L70.4366,90.4233 C70.4366,88.7733 69.0866,87.4233 67.4366,87.4233 L67.3046,87.4233 C65.6546,87.4233 64.3046,88.7733 64.3046,90.4233 L64.3046,87.6853 C64.3046,86.0353 65.6546,84.6853 67.3046,84.6853" id="Fill-137" fill="#C5D5D6" mask="url(#mask-4)"></path>
                <path d="M65.0546,94.0603 L69.6866,94.0603 L69.6866,87.6853 C69.6866,86.4453 68.6776,85.4353 67.4366,85.4353 L67.3046,85.4353 C66.0636,85.4353 65.0546,86.4453 65.0546,87.6853 L65.0546,94.0603 Z M70.4366,95.5603 L64.3046,95.5603 C63.8906,95.5603 63.5546,95.2253 63.5546,94.8103 L63.5546,87.6853 C63.5546,85.6183 65.2366,83.9353 67.3046,83.9353 L67.4366,83.9353 C69.5046,83.9353 71.1866,85.6183 71.1866,87.6853 L71.1866,94.8103 C71.1866,95.2253 70.8516,95.5603 70.4366,95.5603 L70.4366,95.5603 Z" id="Fill-138" fill="#354546" mask="url(#mask-4)"></path>
                <path d="M60.9589,115.3606 C60.9589,117.0106 59.6089,118.3606 57.9589,118.3606 L47.6589,118.3606 C46.0089,118.3606 44.6589,117.0106 44.6589,115.3606 L44.6589,91.3606 C44.6589,89.7106 46.0089,88.3606 47.6589,88.3606 L57.9589,88.3606 C59.6089,88.3606 60.9589,89.7106 60.9589,91.3606 L60.9589,115.3606 Z" id="Fill-139" fill="#6D6D6D" mask="url(#mask-4)"></path>
                <path d="M57.9589,113.7854 L47.6589,113.7854 C46.3189,113.7854 45.0779,112.8954 44.6589,111.6774 L44.6589,115.3604 C44.6589,117.0104 46.0089,118.3604 47.6589,118.3604 L57.9589,118.3604 C59.6089,118.3604 60.9589,117.0104 60.9589,115.3604 L60.9589,111.6774 C60.5399,112.8954 59.2989,113.7854 57.9589,113.7854" id="Fill-140" fill="#5B5B5B" mask="url(#mask-4)"></path>
                <polygon id="Fill-141" fill="#929292" mask="url(#mask-4)" points="60.8681 101.4108 44.6591 100.0598 44.7491 96.0108 60.8681 96.0108"></polygon>
                <polygon id="Fill-142" fill="#929292" mask="url(#mask-4)" points="60.8681 104.5603 44.7491 105.6643 44.7491 102.9643 60.8681 102.9643"></polygon>
                <path d="M47.6591,89.1105 C46.4181,89.1105 45.4091,90.1195 45.4091,91.3605 L45.4091,115.3605 C45.4091,116.6015 46.4181,117.6105 47.6591,117.6105 L57.9591,117.6105 C59.2001,117.6105 60.2091,116.6015 60.2091,115.3605 L60.2091,91.3605 C60.2091,90.1195 59.2001,89.1105 57.9591,89.1105 L47.6591,89.1105 Z M57.9591,119.1105 L47.6591,119.1105 C45.5911,119.1105 43.9091,117.4285 43.9091,115.3605 L43.9091,91.3605 C43.9091,89.2925 45.5911,87.6105 47.6591,87.6105 L57.9591,87.6105 C60.0271,87.6105 61.7091,89.2925 61.7091,91.3605 L61.7091,115.3605 C61.7091,117.4285 60.0271,119.1105 57.9591,119.1105 L57.9591,119.1105 Z" id="Fill-143" fill="#121212" mask="url(#mask-4)"></path>
                <path d="M60.996,84.6853 L44.622,84.6853 C42.841,84.6853 41.383,86.0353 41.383,87.6853 L41.383,92.0353 L64.235,92.0353 L64.235,87.6853 C64.235,86.0353 62.777,84.6853 60.996,84.6853" id="Fill-144" fill="#A5B5B6" mask="url(#mask-4)"></path>
                <path d="M60.996,84.6853 L44.622,84.6853 C42.841,84.6853 41.383,86.0353 41.383,87.6853 L64.235,87.6853 C64.235,86.0353 62.777,84.6853 60.996,84.6853" id="Fill-145" fill="#C5D5D6" mask="url(#mask-4)"></path>
                <path d="M42.1328,91.2854 L63.4858,91.2854 L63.4858,87.6854 C63.4858,86.4454 62.3688,85.4354 60.9958,85.4354 L44.6218,85.4354 C43.2498,85.4354 42.1328,86.4454 42.1328,87.6854 L42.1328,91.2854 Z M64.2358,92.7854 L41.3828,92.7854 C40.9688,92.7854 40.6328,92.4504 40.6328,92.0354 L40.6328,87.6854 C40.6328,85.6184 42.4228,83.9354 44.6218,83.9354 L60.9958,83.9354 C63.1958,83.9354 64.9858,85.6184 64.9858,87.6854 L64.9858,92.0354 C64.9858,92.4504 64.6498,92.7854 64.2358,92.7854 L64.2358,92.7854 Z" id="Fill-146" fill="#354546" mask="url(#mask-4)"></path>
                <path d="M48.309,86.8664 C47.895,86.8664 47.559,86.5304 47.559,86.1164 L47.559,83.6304 C47.559,83.2164 47.895,82.8804 48.309,82.8804 C48.724,82.8804 49.059,83.2164 49.059,83.6304 L49.059,86.1164 C49.059,86.5304 48.724,86.8664 48.309,86.8664" id="Fill-147" fill="#354546" mask="url(#mask-4)"></path>
                <path d="M51.3095,86.8664 C50.8945,86.8664 50.5595,86.5304 50.5595,86.1164 L50.5595,83.6304 C50.5595,83.2164 50.8945,82.8804 51.3095,82.8804 C51.7235,82.8804 52.0595,83.2164 52.0595,83.6304 L52.0595,86.1164 C52.0595,86.5304 51.7235,86.8664 51.3095,86.8664" id="Fill-148" fill="#354546" mask="url(#mask-4)"></path>
                <path d="M54.3095,86.8664 C53.8945,86.8664 53.5595,86.5304 53.5595,86.1164 L53.5595,83.6304 C53.5595,83.2164 53.8945,82.8804 54.3095,82.8804 C54.7235,82.8804 55.0595,83.2164 55.0595,83.6304 L55.0595,86.1164 C55.0595,86.5304 54.7235,86.8664 54.3095,86.8664" id="Fill-149" fill="#354546" mask="url(#mask-4)"></path>
                <path d="M57.3095,86.8664 C56.8945,86.8664 56.5595,86.5304 56.5595,86.1164 L56.5595,83.6304 C56.5595,83.2164 56.8945,82.8804 57.3095,82.8804 C57.7235,82.8804 58.0595,83.2164 58.0595,83.6304 L58.0595,86.1164 C58.0595,86.5304 57.7235,86.8664 57.3095,86.8664" id="Fill-150" fill="#354546" mask="url(#mask-4)"></path>
                <path d="M75.1601,21.1125 L75.1281,21.1125 C74.7151,21.0945 74.3931,20.7445 74.4111,20.3305 L74.8401,10.2085 C74.9061,8.4195 74.2641,6.7015 73.0341,5.3765 C71.8031,4.0505 70.1381,3.2845 68.3441,3.2185 C68.3371,3.2175 68.3291,3.2175 68.3221,3.2175 L42.2621,1.5045 C38.5491,1.3765 35.4151,4.2855 35.2781,8.0015 L34.8481,18.8755 C34.8321,19.2885 34.4861,19.6105 34.0701,19.5945 C33.6561,19.5785 33.3331,19.2295 33.3501,18.8165 L33.7791,7.9445 C33.8601,5.7525 34.7961,3.7165 36.4151,2.2125 C38.0341,0.7085 40.1331,-0.0745 42.3281,0.0065 C42.3351,0.0065 42.3431,0.0075 42.3491,0.0075 L68.4101,1.7195 C70.5991,1.8035 72.6321,2.7395 74.1331,4.3555 C75.6371,5.9745 76.4201,8.0745 76.3391,10.2685 L75.9091,20.3945 C75.8921,20.7975 75.5601,21.1125 75.1601,21.1125" id="Fill-151" fill="#354546" mask="url(#mask-4)"></path>
                <path d="M29.8164,19.7639 C28.5224,19.7159 27.4144,21.0259 27.3534,22.6749 L26.9794,32.8089 C26.9184,34.4579 27.9264,35.8459 29.2204,35.8939 C30.5144,35.9419 31.5724,35.9809 31.5724,35.9809 L32.1684,19.8509 C32.1684,19.8509 31.1104,19.8119 29.8164,19.7639" id="Fill-152" fill="#A5B5B6" mask="url(#mask-4)"></path>
                <path d="M27.3535,22.675 L27.1695,27.635 L31.8745,27.809 L32.1685,19.851 C32.1685,19.851 31.1105,19.812 29.8165,19.764 C28.5225,19.716 27.4145,21.026 27.3535,22.675" id="Fill-153" fill="#C5D5D6" mask="url(#mask-4)"></path>
                <path d="M31.5449,36.7302 L29.1929,36.6432 C28.3439,36.6122 27.5399,36.1562 26.9849,35.3932 C26.4619,34.6732 26.1939,33.7462 26.2299,32.7812 L26.6039,22.6472 C26.6399,21.6832 26.9759,20.7782 27.5499,20.0992 C28.1599,19.3782 28.9959,18.9802 29.8439,19.0142 L32.1959,19.1012 L32.1409,20.6002 L29.7889,20.5132 C29.4009,20.4972 29.0099,20.6962 28.6949,21.0672 C28.3419,21.4852 28.1259,22.0812 28.1029,22.7032 L27.7289,32.8362 C27.7059,33.4582 27.8769,34.0682 28.1989,34.5112 C28.4849,34.9052 28.8569,35.1292 29.2479,35.1442 L31.5999,35.2312 L31.5449,36.7302 Z" id="Fill-154" fill="#354546" mask="url(#mask-4)"></path>
                <polygon id="Fill-155" fill="#859596" mask="url(#mask-4)" points="35.8881 38.5393 31.4841 38.3763 32.2081 18.7753 36.6121 18.9383"></polygon>
                <polygon id="Fill-156" fill="#A5B5B6" mask="url(#mask-4)" points="36.1982 30.153 31.7942 29.99 32.2082 18.776 36.6122 18.938"></polygon>
                <path d="M32.2612,37.655 L35.1662,37.762 L35.8352,19.66 L32.9302,19.553 L32.2612,37.655 Z M35.8882,39.289 L35.8612,39.289 L31.4562,39.126 C31.0422,39.111 30.7192,38.763 30.7352,38.349 L31.4592,18.748 C31.4742,18.334 31.8212,18.009 32.2362,18.026 L36.6402,18.189 C36.8392,18.196 37.0272,18.282 37.1622,18.428 C37.2972,18.574 37.3692,18.767 37.3622,18.966 L36.6372,38.567 C36.6312,38.766 36.5442,38.954 36.3992,39.089 C36.2602,39.218 36.0772,39.289 35.8882,39.289 L35.8882,39.289 Z" id="Fill-157" fill="#354546" mask="url(#mask-4)"></path>
                <path d="M27.1699,28.385 L27.1689,28.385 L25.3679,28.381 C24.9529,28.381 24.6179,28.044 24.6189,27.63 C24.6199,27.216 24.9559,26.881 25.3689,26.881 L25.3709,26.881 L27.1709,26.885 C27.5859,26.885 27.9209,27.222 27.9199,27.636 C27.9199,28.05 27.5839,28.385 27.1699,28.385" id="Fill-158" fill="#354546" mask="url(#mask-4)"></path>
                <path d="M82.2441,10.5554 C82.1591,10.5554 82.0711,10.5454 81.9841,10.5224 C81.4231,10.3794 81.0831,9.8084 81.2261,9.2464 L82.0031,6.1974 C82.1461,5.6364 82.7171,5.2964 83.2791,5.4394 C83.8421,5.5824 84.1811,6.1544 84.0381,6.7164 L83.2621,9.7644 C83.1401,10.2394 82.7131,10.5554 82.2441,10.5554" id="Fill-159" fill="#354546" mask="url(#mask-4)"></path>
                <path d="M79.166,22.3376 C79.104,22.3376 79.043,22.3296 78.98,22.3146 C78.579,22.2116 78.337,21.8036 78.438,21.4016 L81.517,9.3196 C81.619,8.9186 82.027,8.6756 82.429,8.7786 C82.83,8.8806 83.073,9.2896 82.971,9.6906 L79.893,21.7726 C79.806,22.1116 79.501,22.3376 79.166,22.3376" id="Fill-160" fill="#354546" mask="url(#mask-4)"></path>
                <path d="M79.166,21.5871 C80.46,21.6351 81.468,23.0231 81.407,24.6721 L81.033,34.8061 C80.972,36.4551 79.863,37.7651 78.569,37.7171 C77.276,37.6691 76.218,37.6301 76.218,37.6301 L76.813,21.5001 C76.813,21.5001 77.872,21.5391 79.166,21.5871" id="Fill-161" fill="#A5B5B6" mask="url(#mask-4)"></path>
                <path d="M81.4072,24.6721 L81.2232,29.6321 L76.5192,29.4581 L76.8132,21.5001 C76.8132,21.5001 77.8722,21.5391 79.1662,21.5871 C80.4602,21.6351 81.4682,23.0231 81.4072,24.6721" id="Fill-162" fill="#C5D5D6" mask="url(#mask-4)"></path>
                <path d="M78.6357,38.468 C78.6047,38.468 78.5737,38.468 78.5417,38.467 L76.1897,38.38 L76.2447,36.881 L78.5977,36.968 C78.9867,36.981 79.3757,36.785 79.6917,36.413 C80.0447,35.995 80.2607,35.4 80.2827,34.778 L80.6577,24.644 C80.6807,24.023 80.5097,23.413 80.1877,22.97 C79.9017,22.576 79.5287,22.351 79.1377,22.337 L76.7857,22.25 L76.8407,20.751 L79.1937,20.838 C80.0417,20.869 80.8467,21.325 81.4017,22.089 C81.9237,22.808 82.1927,23.735 82.1567,24.7 L81.7817,34.834 C81.7467,35.798 81.4107,36.703 80.8357,37.382 C80.2487,38.076 79.4517,38.468 78.6357,38.468" id="Fill-163" fill="#354546" mask="url(#mask-4)"></path>
                <polygon id="Fill-164" fill="#859596" mask="url(#mask-4)" points="71.7246 39.8635 76.1286 40.0265 76.8536 20.4255 72.4496 20.2625"></polygon>
                <polygon id="Fill-165" fill="#A5B5B6" mask="url(#mask-4)" points="72.0351 31.4768 76.4381 31.6398 76.8531 20.4248 72.4491 20.2628"></polygon>
                <path d="M72.5019,39.1418 L75.4069,39.2488 L76.0759,21.1468 L73.1709,21.0388 L72.5019,39.1418 Z M76.1299,40.7758 L76.1019,40.7758 L71.6969,40.6128 C71.4979,40.6058 71.3109,40.5198 71.1759,40.3738 C71.0399,40.2278 70.9679,40.0348 70.9759,39.8358 L71.6989,20.2348 C71.7069,20.0358 71.7929,19.8478 71.9389,19.7128 C72.0839,19.5778 72.2779,19.5048 72.4769,19.5128 L76.8809,19.6758 C77.2949,19.6908 77.6179,20.0388 77.6029,20.4528 L76.8789,40.0538 C76.8629,40.4578 76.5309,40.7758 76.1299,40.7758 L76.1299,40.7758 Z" id="Fill-166" fill="#354546" mask="url(#mask-4)"></path>
                <path d="M83.0214,30.5114 C83.0024,30.5114 82.9854,30.5104 82.9664,30.5094 L81.1694,30.3804 C80.7564,30.3504 80.4464,29.9914 80.4754,29.5784 C80.5054,29.1644 80.8654,28.8554 81.2774,28.8844 L83.0744,29.0134 C83.4874,29.0434 83.7974,29.4024 83.7684,29.8154 C83.7404,30.2094 83.4114,30.5114 83.0214,30.5114" id="Fill-167" fill="#354546" mask="url(#mask-4)"></path>
                <path d="M35.8203,44.677 C34.7943,44.677 32.1853,45.791 31.0793,47.051 C30.1413,48.121 29.9903,49.907 30.7513,50.951 C31.0623,51.379 31.4723,51.615 31.9363,51.636 C32.4703,51.658 33.0253,51.386 33.4653,50.885 C33.9983,50.278 34.9113,48.897 35.5553,47.535 C36.3883,45.774 36.3563,44.963 36.2233,44.78 C36.1823,44.724 36.0533,44.686 35.8783,44.678 C35.8603,44.677 35.8403,44.677 35.8203,44.677 M32.0013,53.138 C31.9573,53.138 31.9133,53.137 31.8683,53.135 C30.9463,53.093 30.1193,52.631 29.5393,51.835 C28.3563,50.211 28.5373,47.675 29.9523,46.062 C30.9993,44.869 34.0433,43.091 35.9463,43.18 C36.7723,43.217 37.2123,43.59 37.4353,43.897 C38.0473,44.737 37.8763,46.136 36.9113,48.177 C36.2023,49.678 35.2083,51.173 34.5933,51.874 C33.8833,52.682 32.9453,53.138 32.0013,53.138" id="Fill-168" fill="#19B5FE" mask="url(#mask-4)"></path>
                <path d="M69.2705,43.1506 C69.1465,43.2816 69.1525,43.5426 69.1795,43.7376 C69.3525,44.9766 70.6945,46.7286 71.4465,47.1726 C72.4055,47.7406 73.9665,47.4296 74.8555,46.4946 C75.2815,46.0456 75.4885,45.5196 75.4225,45.0496 C75.3715,44.6756 75.1505,44.3636 74.7845,44.1476 C73.3465,43.2966 69.9185,42.4686 69.2705,43.1506 M72.5915,48.9596 C71.9115,48.9596 71.2495,48.7986 70.6825,48.4636 C69.5185,47.7756 67.9255,45.6066 67.6945,43.9446 C67.5625,42.9996 67.8875,42.4286 68.1835,42.1176 C69.8095,40.4056 74.4975,42.2336 75.5475,42.8566 C76.3095,43.3066 76.7925,44.0116 76.9085,44.8426 C77.0375,45.7676 76.6855,46.7456 75.9425,47.5276 C75.0605,48.4566 73.7975,48.9596 72.5915,48.9596" id="Fill-169" fill="#19B5FE" mask="url(#mask-4)"></path>
                <path d="M29.4521,41.7395 C29.0401,41.7395 28.6861,41.7715 28.4251,41.8355 C26.8061,42.2335 25.7291,44.0845 26.0241,45.9615 C26.1741,46.9125 26.6661,47.7285 27.3741,48.1995 C27.9651,48.5935 28.6661,48.7175 29.3501,48.5495 C30.2471,48.3285 31.9651,47.5825 33.3811,46.6335 C34.8521,45.6475 35.6691,44.6735 35.5681,44.0265 C35.5081,43.6425 35.1061,43.3035 34.7801,43.0875 C33.4521,42.2035 31.0281,41.7395 29.4521,41.7395 M28.7461,50.1225 C27.9711,50.1225 27.2121,49.8935 26.5431,49.4485 C25.4861,48.7455 24.7571,47.5595 24.5421,46.1945 C24.1301,43.5665 25.7111,40.9575 28.0671,40.3785 C29.8261,39.9465 33.6521,40.5345 35.6111,41.8385 C36.4491,42.3955 36.9331,43.0535 37.0501,43.7945 C37.5151,46.7605 31.6391,49.5315 29.7081,50.0055 C29.3891,50.0845 29.0661,50.1225 28.7461,50.1225" id="Fill-170" fill="#719911" mask="url(#mask-4)"></path>
                <path d="M71.374,47.3103 C71.222,51.4333 67.722,54.7913 63.597,54.7743 L41.978,54.6843 C37.853,54.6673 34.74,51.2883 35.061,47.1763 L37.448,13.3293 C37.769,9.2173 41.395,6.1363 45.505,6.4833 L65.273,8.1543 C69.384,8.5013 72.622,12.1583 72.471,16.2803 L71.374,47.3103 Z" id="Fill-171" fill="#A5B5B6" mask="url(#mask-4)"></path>
                <path d="M67.9482,41.0163 C67.8362,44.0483 65.0332,46.5093 61.7192,46.4863 L44.3482,46.3663 C41.0332,46.3433 38.5242,43.8503 38.7722,40.8263 L40.6082,16.9303 C40.8562,13.9063 43.7612,11.6503 47.0652,11.9153 L62.9522,13.1943 C66.2562,13.4603 68.8672,16.1583 68.7552,19.1893 L67.9482,41.0163 Z" id="Fill-172" fill="#C5D5D6" mask="url(#mask-4)"></path>
                <path d="M65.1709,51.4353 L41.6769,51.2763 C38.7619,51.2563 36.3079,49.8153 35.0409,47.6793 C34.9999,51.5603 38.0229,54.6673 41.9779,54.6843 L63.5969,54.7743 C67.0559,54.7883 70.0739,52.4283 71.0489,49.2353 C69.5179,50.6053 67.4329,51.4513 65.1709,51.4353" id="Fill-173" fill="#859596" mask="url(#mask-4)"></path>
                <path d="M65.2314,52.1857 L65.1654,52.1857 L41.6714,52.0267 C38.5764,52.0057 35.8564,50.5237 34.3954,48.0617 C34.1844,47.7057 34.3014,47.2457 34.6574,47.0347 C35.0144,46.8227 35.4744,46.9397 35.6854,47.2967 C36.8754,49.3017 39.1174,50.5087 41.6824,50.5267 L65.1754,50.6857 C67.1724,50.7027 69.0854,49.9857 70.5484,48.6757 C70.8574,48.3997 71.3314,48.4257 71.6074,48.7347 C71.8834,49.0437 71.8574,49.5177 71.5484,49.7937 C69.8244,51.3377 67.5824,52.1857 65.2314,52.1857" id="Fill-174" fill="#354546" mask="url(#mask-4)"></path>
                <path d="M71.374,47.3103 L71.375,47.3103 L71.374,47.3103 Z M44.869,7.2063 C43.286,7.2063 41.767,7.7643 40.541,8.8053 C39.168,9.9723 38.335,11.5993 38.196,13.3883 L35.809,47.2283 C35.67,49.0133 36.236,50.6903 37.403,51.9573 C38.571,53.2253 40.196,53.9273 41.98,53.9343 L63.6,54.0243 L63.629,54.0243 C67.352,54.0243 70.486,51.0063 70.624,47.2833 L71.721,16.2543 C71.859,12.5143 68.938,9.2163 65.211,8.9013 L45.442,7.2313 C45.25,7.2143 45.059,7.2063 44.869,7.2063 L44.869,7.2063 Z M63.629,55.5243 L63.594,55.5243 L41.974,55.4343 C39.769,55.4253 37.753,54.5513 36.3,52.9743 C34.847,51.3963 34.142,49.3163 34.313,47.1173 L36.7,13.2763 C36.872,11.0813 37.891,9.0893 39.57,7.6623 C41.249,6.2353 43.379,5.5513 45.568,5.7363 L65.337,7.4073 C69.851,7.7883 73.387,11.7813 73.22,16.3083 L72.123,47.3373 L72.123,47.3383 C71.956,51.8593 68.148,55.5243 63.629,55.5243 L63.629,55.5243 Z" id="Fill-175" fill="#354546" mask="url(#mask-4)"></path>
                <path d="M54.8466,16.2961 C50.7396,16.2961 45.8426,15.0351 45.8426,9.0251 C45.8426,8.0811 45.9646,7.4551 46.2046,6.5621 C46.3116,6.1621 46.7236,5.9251 47.1236,6.0321 C47.5236,6.1401 47.7606,6.5511 47.6536,6.9511 C47.4386,7.7501 47.3426,8.2391 47.3426,9.0251 C47.3426,10.4521 47.3426,14.7961 54.8466,14.7961 C62.3836,14.7961 62.3836,10.4521 62.3836,9.0251 C62.3836,8.7061 62.3676,8.3851 62.3346,8.0721 C62.2916,7.6601 62.5916,7.2921 63.0036,7.2491 C63.4156,7.2071 63.7846,7.5061 63.8266,7.9181 C63.8646,8.2831 63.8836,8.6551 63.8836,9.0251 C63.8836,12.3421 62.3156,16.2961 54.8466,16.2961" id="Fill-176" fill="#354546" mask="url(#mask-4)"></path>
                <path d="M50.0644,25.9431 C49.8994,30.4131 46.1414,33.9031 41.6704,33.7381 C37.2004,33.5731 33.7104,29.8161 33.8754,25.3451 C34.0404,20.8751 37.7984,17.3841 42.2694,17.5491 C46.7394,17.7141 50.2294,21.4721 50.0644,25.9431" id="Fill-177" fill="#C5D5D6" mask="url(#mask-4)"></path>
                <path d="M41.9663,18.2941 C38.0373,18.2941 34.7713,21.4141 34.6253,25.3731 C34.5523,27.3351 35.2483,29.2071 36.5843,30.6461 C37.9203,32.0841 39.7373,32.9171 41.6983,32.9891 C43.6613,33.0621 45.5333,32.3661 46.9713,31.0291 C48.4103,29.6931 49.2423,27.8771 49.3153,25.9151 C49.4653,21.8651 46.2913,18.4491 42.2413,18.2991 C42.1503,18.2951 42.0573,18.2941 41.9663,18.2941 M41.9783,34.4941 C41.8663,34.4941 41.7553,34.4921 41.6433,34.4881 C39.2813,34.4001 37.0943,33.3981 35.4853,31.6671 C33.8763,29.9341 33.0383,27.6791 33.1263,25.3171 C33.3063,20.4401 37.4203,16.6201 42.2973,16.8001 C47.1733,16.9801 50.9943,21.0941 50.8143,25.9711 L50.0643,25.9431 L50.8143,25.9711 C50.7263,28.3331 49.7243,30.5201 47.9923,32.1281 C46.3423,33.6611 44.2183,34.4941 41.9783,34.4941" id="Fill-178" fill="#354546" mask="url(#mask-4)"></path>
                <path d="M47.1894,25.8371 C47.0824,28.7191 44.6594,30.9701 41.7774,30.8631 C38.8944,30.7561 36.6444,28.3341 36.7514,25.4511 C36.8574,22.5681 39.2804,20.3181 42.1634,20.4251 C45.0454,20.5311 47.2954,22.9541 47.1894,25.8371" id="Fill-179" fill="#9ABD45" mask="url(#mask-4)"></path>
                <path d="M45.2705,24.2351 C45.2045,26.0271 43.6985,27.4251 41.9065,27.3601 C40.1145,27.2931 38.7165,25.7871 38.7825,23.9951 C38.8485,22.2041 40.3545,20.8051 42.1465,20.8711 C43.9375,20.9371 45.3365,22.4431 45.2705,24.2351" id="Fill-180" fill="#CEEC87" mask="url(#mask-4)"></path>
                <path d="M41.9658,21.1711 C40.8338,21.1711 39.7598,21.5921 38.9258,22.3671 C38.0508,23.1801 37.5448,24.2851 37.5008,25.4791 C37.4558,26.6721 37.8798,27.8121 38.6928,28.6881 C39.5058,29.5631 40.6108,30.0691 41.8048,30.1141 C42.9978,30.1571 44.1378,29.7341 45.0138,28.9211 C45.8888,28.1081 46.3958,27.0031 46.4398,25.8091 C46.4838,24.6151 46.0608,23.4761 45.2478,22.6001 C44.4338,21.7251 43.3288,21.2181 42.1348,21.1741 C42.0788,21.1721 42.0218,21.1711 41.9658,21.1711 M41.9758,31.6171 C41.9008,31.6171 41.8248,31.6151 41.7498,31.6121 C40.1548,31.5541 38.6788,30.8781 37.5938,29.7091 C36.5078,28.5401 35.9428,27.0181 36.0018,25.4231 C36.0598,23.8291 36.7368,22.3531 37.9058,21.2681 C39.0738,20.1821 40.5958,19.6171 42.1908,19.6751 C43.7848,19.7341 45.2608,20.4101 46.3458,21.5791 C47.4318,22.7491 47.9978,24.2701 47.9388,25.8641 L47.1898,25.8371 L47.9388,25.8641 C47.8798,27.4591 47.2038,28.9351 46.0348,30.0211 C44.9208,31.0551 43.4868,31.6171 41.9758,31.6171" id="Fill-181" fill="#354546" mask="url(#mask-4)"></path>
                <path d="M43.3159,22.1696 C43.6479,22.9116 42.6099,23.5446 41.2529,24.1526 C39.8949,24.7606 38.7309,25.1116 38.3989,24.3706 C38.0669,23.6286 38.8989,22.5346 40.2559,21.9266 C41.6139,21.3186 42.9839,21.4276 43.3159,22.1696" id="Fill-182" fill="#FFFFFF" mask="url(#mask-4)"></path>
                <path d="M42.3789,29.3503 C42.2929,29.1573 42.5619,28.9933 42.9149,28.8353 C43.2669,28.6783 43.5689,28.5863 43.6549,28.7793 C43.7409,28.9713 43.5249,29.2553 43.1729,29.4133 C42.8209,29.5713 42.4649,29.5423 42.3789,29.3503" id="Fill-183" fill="#FFFFFF" mask="url(#mask-4)"></path>
                <path d="M46.7729,25.7829 C46.7479,26.4629 46.1759,26.9939 45.4959,26.9699 C44.8149,26.9439 44.2839,26.3719 44.3089,25.6919 C44.3339,25.0119 44.9059,24.4799 45.5859,24.5049 C46.2669,24.5299 46.7979,25.1019 46.7729,25.7829" id="Fill-184" fill="#354546" mask="url(#mask-4)"></path>
                <path d="M72.9023,27.2902 C72.7623,31.0792 69.5783,32.3862 65.7903,32.2462 C62.0023,32.1062 59.0453,30.5722 59.1843,26.7832 C59.3243,22.9952 62.5083,20.0382 66.2973,20.1782 C70.0853,20.3172 73.0433,23.5022 72.9023,27.2902" id="Fill-185" fill="#C5D5D6" mask="url(#mask-4)"></path>
                <path d="M66.038,20.923 C64.49,20.923 63.023,21.498 61.883,22.557 C60.686,23.669 59.994,25.179 59.934,26.811 C59.877,28.352 60.375,29.486 61.457,30.277 C62.453,31.006 63.961,31.428 65.818,31.497 C67.689,31.566 69.247,31.256 70.325,30.601 C71.499,29.886 72.097,28.795 72.153,27.263 C72.214,25.631 71.635,24.073 70.523,22.876 C69.412,21.68 67.901,20.987 66.269,20.927 C66.192,20.924 66.115,20.923 66.038,20.923 M66.341,33.006 C66.151,33.006 65.959,33.003 65.763,32.996 C60.966,32.819 58.295,30.544 58.434,26.756 C58.59,22.56 62.131,19.274 66.325,19.428 C70.52,19.583 73.808,23.123 73.652,27.318 C73.517,30.954 70.863,33.006 66.341,33.006" id="Fill-186" fill="#354546" mask="url(#mask-4)"></path>
                <path d="M70.4668,27.2004 C70.3758,29.6424 68.3228,29.9004 65.8798,29.8094 C63.4378,29.7194 61.5298,29.3164 61.6208,26.8734 C61.7108,24.4304 63.7648,22.5244 66.2068,22.6144 C68.6498,22.7044 70.5568,24.7584 70.4668,27.2004" id="Fill-187" fill="#19B5FE" mask="url(#mask-4)"></path>
                <path d="M68.7929,25.6677 C68.7359,27.1867 67.5619,27.7497 66.0439,27.6937 C64.5249,27.6377 63.2379,26.9827 63.2949,25.4647 C63.3509,23.9467 64.6269,22.7607 66.1459,22.8167 C67.6629,22.8737 68.8489,24.1497 68.7929,25.6677" id="Fill-188" fill="#39D5FF" mask="url(#mask-4)"></path>
                <path d="M70.4668,27.2004 L70.4678,27.2004 L70.4668,27.2004 Z M66.0418,23.3614 C64.0768,23.3614 62.4438,24.9214 62.3698,26.9014 C62.3138,28.4534 63.1398,28.9584 65.9078,29.0604 C69.0478,29.1774 69.6678,28.4864 69.7168,27.1724 C69.7918,25.1474 68.2048,23.4384 66.1798,23.3644 C66.1338,23.3624 66.0878,23.3614 66.0418,23.3614 L66.0418,23.3614 Z M66.7188,30.5794 C66.4008,30.5794 66.1068,30.5684 65.8528,30.5594 C64.1938,30.4974 60.7408,30.3704 60.8708,26.8464 C60.9768,23.9934 63.3808,21.7574 66.2348,21.8654 C69.0868,21.9704 71.3208,24.3764 71.2158,27.2284 C71.1058,30.2264 68.5298,30.5794 66.7188,30.5794 L66.7188,30.5794 Z" id="Fill-189" fill="#354546" mask="url(#mask-4)"></path>
                <path d="M67.1845,24.093 C67.4655,24.721 66.5855,25.259 65.4355,25.774 C64.2855,26.288 63.2985,26.586 63.0175,25.958 C62.7365,25.329 63.4405,24.402 64.5915,23.887 C65.7425,23.372 66.9025,23.464 67.1845,24.093" id="Fill-190" fill="#FFFFFF" mask="url(#mask-4)"></path>
                <path d="M67.5009,28.5871 C67.4289,28.4241 67.6559,28.2851 67.9549,28.1511 C68.2539,28.0171 68.5099,27.9401 68.5829,28.1031 C68.6549,28.2661 68.4729,28.5071 68.1739,28.6411 C67.8759,28.7741 67.5739,28.7511 67.5009,28.5871" id="Fill-191" fill="#FFFFFF" mask="url(#mask-4)"></path>
                <path d="M64.1269,27.0051 C64.1059,27.5821 63.6209,28.0321 63.0439,28.0101 C62.4679,27.9891 62.0179,27.5051 62.0389,26.9281 C62.0599,26.3511 62.5449,25.9011 63.1209,25.9221 C63.6979,25.9431 64.1479,26.4281 64.1269,27.0051" id="Fill-192" fill="#354546" mask="url(#mask-4)"></path>
                <path d="M42.1059,40.6384 L64.8519,35.5564 C64.8519,35.5564 66.1299,42.5624 60.5989,44.6074 C50.8559,48.2084 42.1059,40.6384 42.1059,40.6384" id="Fill-193" fill="#FFFFFF" mask="url(#mask-4)"></path>
                <path d="M42.1059,40.6384 L42.1069,40.6384 L42.1059,40.6384 Z M43.8589,41.0154 C44.8119,41.6684 46.2569,42.5524 48.0339,43.3004 C52.3559,45.1204 56.4959,45.3244 60.3389,43.9044 C64.1899,42.4804 64.3219,38.2334 64.1999,36.4704 L43.8589,41.0154 Z M55.1489,46.3214 C52.6219,46.3214 50.0119,45.7674 47.4059,44.6634 C43.9319,43.1924 41.7079,41.2854 41.6149,41.2054 C41.4009,41.0204 41.3089,40.7294 41.3779,40.4554 C41.4479,40.1804 41.6659,39.9684 41.9419,39.9064 L64.6879,34.8244 C64.8869,34.7794 65.0959,34.8184 65.2659,34.9304 C65.4359,35.0434 65.5529,35.2214 65.5889,35.4214 C65.6039,35.4984 65.9289,37.3334 65.5369,39.4514 C64.9999,42.3524 63.3819,44.3784 60.8579,45.3104 C59.0349,45.9854 57.1169,46.3214 55.1489,46.3214 L55.1489,46.3214 Z" id="Fill-194" fill="#354546" mask="url(#mask-4)"></path>
                <path d="M48.5302,45.0559 C48.1552,45.0559 47.8312,44.7749 47.7862,44.3929 L47.2022,39.4209 C47.1532,39.0099 47.4472,38.6369 47.8592,38.5889 C48.2702,38.5389 48.6432,38.8339 48.6912,39.2459 L49.2762,44.2179 C49.3252,44.6299 49.0302,45.0019 48.6192,45.0509 C48.5902,45.0549 48.5592,45.0559 48.5302,45.0559" id="Fill-195" fill="#354546" mask="url(#mask-4)"></path>
                <path d="M53.9814,46.0651 C53.5794,46.0651 53.2464,45.7461 53.2314,45.3411 L52.9764,38.0681 C52.9614,37.6541 53.2864,37.3071 53.6994,37.2931 C54.1124,37.2781 54.4604,37.6021 54.4754,38.0161 L54.7314,45.2891 C54.7454,45.7031 54.4214,46.0501 54.0074,46.0651 L53.9814,46.0651" id="Fill-196" fill="#354546" mask="url(#mask-4)"></path>
                <path d="M59.5478,45.3576 C59.1378,45.3576 58.8028,45.0266 58.7988,44.6156 L58.7148,36.7676 C58.7098,36.3536 59.0428,36.0146 59.4568,36.0096 L59.4648,36.0096 C59.8748,36.0096 60.2098,36.3406 60.2148,36.7516 L60.2988,44.5996 C60.3028,45.0136 59.9708,45.3536 59.5568,45.3576 L59.5478,45.3576 Z" id="Fill-197" fill="#354546" mask="url(#mask-4)"></path>
            </g>
        </g>
    </g>
</svg>