<?xml version="1.0" encoding="UTF-8"?>
<svg width="77px" height="122px" viewBox="0 0 77 122" version="1.1" xmlns="http://www.w3.org/2000/svg" xmlns:xlink="http://www.w3.org/1999/xlink">
    <!-- Generator: Sketch 42 (36781) - http://www.bohemiancoding.com/sketch -->
    <title>29</title>
    <desc>Created with Sketch.</desc>
    <defs>
        <polygon id="path-1" points="63.7592 8 0.4922 8 0.4922 0.3777 63.7592 0.3777 63.7592 8"></polygon>
        <polygon id="path-3" points="0 122.04 76.252 122.04 76.252 0 0 0"></polygon>
    </defs>
    <g id="Page-1" stroke="none" stroke-width="1" fill="none" fill-rule="evenodd">
        <g id="1024" transform="translate(-89.000000, 0.000000)">
            <g id="29" transform="translate(89.000000, 0.000000)">
                <g id="Group-3" transform="translate(6.000000, 114.040000)">
                    <mask id="mask-2" fill="white">
                        <use xlink:href="#path-1"></use>
                    </mask>
                    <g id="Clip-2"></g>
                    <path d="M63.7592,4.1887 C63.7592,6.2937 49.5962,8.0007 32.1262,8.0007 C14.6552,8.0007 0.4922,6.2937 0.4922,4.1887 C0.4922,2.0847 14.6552,0.3777 32.1262,0.3777 C49.5962,0.3777 63.7592,2.0847 63.7592,4.1887" id="Fill-1" fill="#CCCCCC" mask="url(#mask-2)"></path>
                </g>
                <mask id="mask-4" fill="white">
                    <use xlink:href="#path-3"></use>
                </mask>
                <g id="Clip-5"></g>
                <polygon id="Fill-4" fill="#758586" mask="url(#mask-4)" points="29.743 87.553 45.862 87.553 45.862 75.947 29.743 75.947"></polygon>
                <path d="M30.493,86.803 L45.112,86.803 L45.112,76.697 L30.493,76.697 L30.493,86.803 Z M45.862,88.303 L29.743,88.303 C29.329,88.303 28.993,87.967 28.993,87.553 L28.993,75.947 C28.993,75.533 29.329,75.197 29.743,75.197 L45.862,75.197 C46.276,75.197 46.612,75.533 46.612,75.947 L46.612,87.553 C46.612,87.967 46.276,88.303 45.862,88.303 L45.862,88.303 Z" id="Fill-6" fill="#354546" mask="url(#mask-4)"></path>
                <polygon id="Fill-7" fill="#758586" mask="url(#mask-4)" points="33.403 61.397 42.746 61.397 42.746 52.894 33.403 52.894"></polygon>
                <path d="M34.153,60.647 L41.996,60.647 L41.996,53.644 L34.153,53.644 L34.153,60.647 Z M42.746,62.147 L33.403,62.147 C32.989,62.147 32.653,61.811 32.653,61.397 L32.653,52.894 C32.653,52.48 32.989,52.144 33.403,52.144 L42.746,52.144 C43.16,52.144 43.496,52.48 43.496,52.894 L43.496,61.397 C43.496,61.811 43.16,62.147 42.746,62.147 L42.746,62.147 Z" id="Fill-8" fill="#354546" mask="url(#mask-4)"></path>
                <path d="M42.7465,58.3971 C42.7325,58.3971 42.7195,58.3971 42.7055,58.3961 L33.3635,57.8941 C32.9495,57.8721 32.6325,57.5191 32.6545,57.1051 C32.6765,56.6911 33.0315,56.3751 33.4435,56.3971 L42.7865,56.8981 C43.1995,56.9201 43.5175,57.2731 43.4955,57.6871 C43.4735,58.0871 43.1425,58.3971 42.7465,58.3971" id="Fill-9" fill="#354546" mask="url(#mask-4)"></path>
                <path d="M21.7201,62.0798 C23.2081,62.5478 24.6741,63.0228 26.0671,63.3808 L24.9051,67.9548 C23.2811,67.5358 21.7831,67.0448 20.2991,66.5798 L21.7201,62.0798 Z" id="Fill-10" fill="#F9BF3B" mask="url(#mask-4)"></path>
                <path d="M24.7177,68.6804 C23.3267,68.3224 22.0257,67.9104 20.7667,67.5134 L20.0747,67.2954 L20.5237,65.8634 L21.2187,66.0824 C22.4587,66.4744 23.7397,66.8794 25.0917,67.2274 L24.7177,68.6804 Z" id="Fill-11" fill="#F1892D" mask="url(#mask-4)"></path>
                <path d="M25.8807,64.1071 C24.6447,63.7901 23.3907,63.3941 22.0627,62.9741 L21.4947,62.7951 L21.9447,61.3641 L22.5137,61.5441 C23.8217,61.9571 25.0577,62.3471 26.2537,62.6541 L25.8807,64.1071 Z" id="Fill-12" fill="#F1892D" mask="url(#mask-4)"></path>
                <polygon id="Fill-13" fill="#F1892D" mask="url(#mask-4)" points="23.267 67.5031 21.832 67.0651 23.211 62.5521 24.646 62.9901"></polygon>
                <path d="M17.1312,60.7184 C18.7062,61.1334 20.2302,61.6094 21.7202,62.0794 L20.2992,66.5794 C18.8192,66.1114 17.3682,65.6604 15.9302,65.2814 L17.1312,60.7184 Z" id="Fill-14" fill="#F9BF3B" mask="url(#mask-4)"></path>
                <path d="M20.0731,67.2946 C18.6701,66.8506 17.1791,66.3866 15.7401,66.0066 L16.1211,64.5566 C17.5941,64.9446 19.1041,65.4156 20.5251,65.8646 L20.0731,67.2946 Z" id="Fill-15" fill="#F1892D" mask="url(#mask-4)"></path>
                <path d="M21.4945,62.7951 C19.9735,62.3151 18.4815,61.8501 16.9395,61.4441 L17.3225,59.9931 C18.8955,60.4081 20.4075,60.8781 21.9465,61.3651 L21.4945,62.7951 Z" id="Fill-16" fill="#F1892D" mask="url(#mask-4)"></path>
                <polygon id="Fill-17" fill="#F1892D" mask="url(#mask-4)" points="18.8173 66.113 17.3813 65.681 18.7393 61.162 20.1753 61.594"></polygon>
                <path d="M12.1864,59.7643 C13.9254,59.9443 15.5544,60.3053 17.1314,60.7183 L15.9304,65.2823 C14.4964,64.9043 13.0714,64.5983 11.7104,64.4583 L12.1864,59.7643 Z" id="Fill-18" fill="#F9BF3B" mask="url(#mask-4)"></path>
                <path d="M15.7396,66.007 C14.1196,65.581 12.8156,65.326 11.6346,65.205 L11.7866,63.713 C13.0476,63.841 14.4246,64.11 16.1216,64.556 L15.7396,66.007 Z" id="Fill-19" fill="#F1892D" mask="url(#mask-4)"></path>
                <path d="M16.9408,61.444 C15.6678,61.111 13.9668,60.703 12.1088,60.51 L12.2638,59.018 C14.2228,59.221 15.9958,59.646 17.3208,59.993 L16.9408,61.444 Z" id="Fill-20" fill="#F1892D" mask="url(#mask-4)"></path>
                <polygon id="Fill-21" fill="#F1892D" mask="url(#mask-4)" points="14.5287 64.9284 13.0577 64.6344 13.9847 60.0074 15.4547 60.3024"></polygon>
                <path d="M6.5707,60.2262 C7.5627,59.8902 8.5427,59.7472 9.4797,59.6892 C10.4167,59.6372 11.3177,59.6752 12.1867,59.7642 L11.7107,64.4582 C10.3567,64.3182 9.0507,64.3642 8.0777,64.6982 L6.5707,60.2262 Z" id="Fill-22" fill="#F9BF3B" mask="url(#mask-4)"></path>
                <path d="M8.3212,65.4074 L7.8342,63.9884 C9.1042,63.5534 10.6852,63.5984 11.7882,63.7134 L11.6332,65.2044 C10.2662,65.0624 9.1212,65.1334 8.3212,65.4074" id="Fill-23" fill="#F1892D" mask="url(#mask-4)"></path>
                <path d="M6.8114,60.9367 L6.3304,59.5167 C7.2634,59.1997 8.2784,59.0117 9.4334,58.9407 C10.3354,58.8907 11.2594,58.9157 12.2624,59.0187 L12.1104,60.5107 C11.1864,60.4157 10.3394,60.3927 9.5214,60.4377 C8.5054,60.5007 7.6174,60.6637 6.8114,60.9367" id="Fill-24" fill="#F1892D" mask="url(#mask-4)"></path>
                <polygon id="Fill-25" fill="#F1892D" mask="url(#mask-4)" points="9.0028 64.443 8.7308 59.733 10.2288 59.646 10.5008 64.357"></polygon>
                <path d="M1.7933,64.4064 C2.2463,63.4784 2.9103,62.5684 3.7473,61.8304 C4.5853,61.0894 5.5843,60.5574 6.5703,60.2264 L8.0773,64.6984 C7.1013,65.0334 6.4933,65.5704 6.0183,66.5074 L1.7933,64.4064 Z" id="Fill-26" fill="#F9BF3B" mask="url(#mask-4)"></path>
                <path d="M6.6874,66.8459 L5.3494,66.1689 C5.9114,65.0589 6.6774,64.3869 7.8334,63.9889 L8.3214,65.4079 C7.5324,65.6789 7.0744,66.0819 6.6874,66.8459" id="Fill-27" fill="#F1892D" mask="url(#mask-4)"></path>
                <path d="M2.4672,64.735 L1.1192,64.077 C1.6392,63.01 2.3772,62.039 3.2522,61.268 C4.1092,60.51 5.1742,59.903 6.3322,59.515 L6.8092,60.938 C5.8402,61.262 4.9532,61.765 4.2442,62.393 C3.5162,63.034 2.9022,63.844 2.4672,64.735" id="Fill-28" fill="#F1892D" mask="url(#mask-4)"></path>
                <polygon id="Fill-29" fill="#F1892D" mask="url(#mask-4)" points="6.2968 65.8718 3.1838 62.3258 4.3108 61.3358 7.4238 64.8828"></polygon>
                <path d="M0.8436,70.3054 C0.7196,69.3394 0.7096,68.3244 0.8696,67.3134 C0.9026,67.0604 0.9616,66.8104 1.0136,66.5594 C1.0796,66.3124 1.1376,66.0614 1.2216,65.8194 C1.2976,65.5724 1.3866,65.3384 1.4776,65.1054 C1.5226,64.9894 1.5776,64.8714 1.6286,64.7554 C1.6786,64.6384 1.7326,64.5224 1.7936,64.4064 L6.0186,66.5074 C5.9876,66.5634 5.9596,66.6234 5.9336,66.6864 C5.9076,66.7484 5.8776,66.8064 5.8536,66.8714 C5.8036,67.0024 5.7526,67.1324 5.7156,67.2574 C5.6696,67.3834 5.6436,67.5134 5.6066,67.6414 C5.5826,67.7724 5.5476,67.9004 5.5326,68.0344 C5.4476,68.5634 5.4496,69.1204 5.5226,69.6984 L0.8436,70.3054 Z" id="Fill-30" fill="#F9BF3B" mask="url(#mask-4)"></path>
                <path d="M4.7787,69.7927 C4.6957,69.1327 4.6987,68.5067 4.7897,67.9327 C4.8027,67.8177 4.8247,67.7177 4.8437,67.6277 C4.8527,67.5877 4.8617,67.5487 4.8687,67.5087 L4.8867,67.4307 C4.8987,67.3917 4.9077,67.3527 4.9177,67.3137 C4.9407,67.2267 4.9657,67.1287 5.0027,67.0237 C5.0427,66.8927 5.0897,66.7707 5.1347,66.6527 L5.1537,66.6047 C5.1707,66.5567 5.1947,66.5007 5.2197,66.4467 C5.2267,66.4307 5.2347,66.4147 5.2417,66.3977 C5.2787,66.3087 5.3177,66.2267 5.3597,66.1487 L6.6767,66.8657 C6.6607,66.8957 6.6447,66.9317 6.6277,66.9717 C6.6127,67.0067 6.5987,67.0387 6.5837,67.0707 C6.5747,67.0897 6.5657,67.1087 6.5577,67.1287 L6.5347,67.1897 C6.4957,67.2917 6.4597,67.3877 6.4357,67.4677 L6.4197,67.5167 C6.4037,67.5607 6.3877,67.6227 6.3707,67.6877 C6.3607,67.7297 6.3487,67.7717 6.3377,67.8137 C6.3287,67.8567 6.3197,67.8997 6.3107,67.9427 C6.2957,68.0117 6.2827,68.0707 6.2777,68.1177 L6.2737,68.1537 C6.2027,68.5917 6.2007,69.0807 6.2667,69.6047 L4.7787,69.7927 Z" id="Fill-31" fill="#F1892D" mask="url(#mask-4)"></path>
                <path d="M0.0995,70.4011 C-0.0425,69.2971 -0.0325,68.2221 0.1275,67.2061 C0.1575,66.9841 0.2015,66.7741 0.2445,66.5711 L0.2885,66.3681 L0.3295,66.2091 C0.3815,66.0081 0.4355,65.8001 0.5085,65.5881 C0.5915,65.3191 0.6875,65.0681 0.7795,64.8331 C0.8125,64.7461 0.8535,64.6521 0.8945,64.5601 L0.9395,64.4581 C0.9995,64.3181 1.0615,64.1871 1.1275,64.0601 L2.4585,64.7531 C2.4095,64.8461 2.3635,64.9441 2.3175,65.0511 L2.2655,65.1701 C2.2355,65.2371 2.2045,65.3051 2.1785,65.3731 C2.0905,65.6001 2.0075,65.8171 1.9385,66.0391 L1.9305,66.0641 C1.8745,66.2251 1.8295,66.4001 1.7825,66.5841 L1.7115,66.8841 C1.6725,67.0691 1.6355,67.2441 1.6135,67.4111 L1.6105,67.4301 C1.4715,68.3091 1.4635,69.2441 1.5875,70.2101 L0.0995,70.4011 Z" id="Fill-32" fill="#F1892D" mask="url(#mask-4)"></path>
                <polygon id="Fill-33" fill="#F1892D" mask="url(#mask-4)" points="5.4178 68.7761 0.7548 68.0541 0.9838 66.5721 5.6468 67.2941"></polygon>
                <path d="M2.6215,75.5138 C2.2045,74.7398 1.8285,73.9238 1.5185,73.0578 C1.3625,72.6258 1.2295,72.1768 1.1115,71.7208 C1.0015,71.2598 0.9045,70.7898 0.8435,70.3058 L5.5225,69.6988 C5.6685,70.8548 6.1345,72.0838 6.7755,73.2758 L2.6215,75.5138 Z" id="Fill-34" fill="#F9BF3B" mask="url(#mask-4)"></path>
                <path d="M6.1146,73.6305 C5.3756,72.2565 4.9266,70.9645 4.7786,69.7925 L6.2666,69.6055 C6.3916,70.5935 6.7846,71.7095 7.4356,72.9205 L6.1146,73.6305 Z" id="Fill-35" fill="#F1892D" mask="url(#mask-4)"></path>
                <path d="M1.9608,75.8693 C1.4918,74.9993 1.1168,74.1613 0.8128,73.3103 C0.6608,72.8883 0.5208,72.4293 0.3858,71.9093 C0.2478,71.3313 0.1578,70.8563 0.0998,70.4003 L1.5868,70.2113 C1.6388,70.6123 1.7188,71.0363 1.8408,71.5463 C1.9608,72.0073 2.0868,72.4233 2.2248,72.8033 C2.5028,73.5853 2.8488,74.3553 3.2818,75.1583 L1.9608,75.8693 Z" id="Fill-36" fill="#F1892D" mask="url(#mask-4)"></path>
                <polygon id="Fill-37" fill="#F1892D" mask="url(#mask-4)" points="1.7704 73.7643 1.2674 72.3513 5.7114 70.7673 6.2154 72.1813"></polygon>
                <path d="M5.5101,79.7429 C4.4491,78.4499 3.4581,77.0609 2.6211,75.5139 L6.7751,73.2759 C7.4201,74.4709 8.2411,75.6339 9.1561,76.7469 L5.5101,79.7429 Z" id="Fill-38" fill="#F9BF3B" mask="url(#mask-4)"></path>
                <path d="M8.576,77.2228 C7.566,75.9938 6.738,74.7858 6.115,73.6318 L7.435,72.9188 C8.012,73.9888 8.786,75.1158 9.735,76.2708 L8.576,77.2228 Z" id="Fill-39" fill="#F1892D" mask="url(#mask-4)"></path>
                <path d="M4.9305,80.2189 C3.7115,78.7329 2.7405,77.3109 1.9615,75.8699 L3.2815,75.1569 C4.0135,76.5119 4.9325,77.8569 6.0905,79.2669 L4.9305,80.2189 Z" id="Fill-40" fill="#F1892D" mask="url(#mask-4)"></path>
                <polygon id="Fill-41" fill="#F1892D" mask="url(#mask-4)" points="4.4081 78.3405 3.5561 77.1065 7.4381 74.4245 8.2911 75.6585"></polygon>
                <path d="M8.8998,83.363 C7.7118,82.233 6.5738,81.035 5.5098,79.743 L9.1558,76.747 C10.0718,77.86 11.0818,78.927 12.1508,79.943 L8.8998,83.363 Z" id="Fill-42" fill="#F9BF3B" mask="url(#mask-4)"></path>
                <path d="M11.6337,80.4865 C10.4997,79.4085 9.4707,78.3105 8.5767,77.2235 L9.7347,76.2705 C10.5907,77.3105 11.5777,78.3625 12.6677,79.3995 L11.6337,80.4865 Z" id="Fill-43" fill="#F1892D" mask="url(#mask-4)"></path>
                <path d="M8.3832,83.9064 C7.0912,82.6784 5.9632,81.4724 4.9312,80.2194 L6.0892,79.2664 C7.0812,80.4714 8.1702,81.6344 9.4172,82.8194 L8.3832,83.9064 Z" id="Fill-44" fill="#F1892D" mask="url(#mask-4)"></path>
                <polygon id="Fill-45" fill="#F1892D" mask="url(#mask-4)" points="7.6718 82.1598 6.6448 81.0668 10.0828 77.8348 11.1098 78.9278"></polygon>
                <path d="M12.6825,86.5871 L12.4085,86.3801 L12.1595,86.1871 L11.6725,85.7991 C11.3515,85.5391 11.0365,85.2761 10.7245,85.0091 C10.1025,84.4761 9.4945,83.9281 8.8995,83.3631 L12.1505,79.9421 C12.6855,80.4501 13.2345,80.9451 13.7945,81.4251 C14.0745,81.6661 14.3575,81.9011 14.6415,82.1321 L15.0685,82.4721 L15.2805,82.6361 L15.4725,82.7821 L12.6825,86.5871 Z" id="Fill-46" fill="#F9BF3B" mask="url(#mask-4)"></path>
                <path d="M15.0204,83.3801 L14.6084,83.0651 L14.1744,82.7181 C13.8844,82.4841 13.5944,82.2421 13.3064,81.9951 C12.7444,81.5131 12.1814,81.0061 11.6344,80.4861 L12.6664,79.3991 C13.1954,79.9011 13.7394,80.3911 14.2824,80.8561 C14.5594,81.0931 14.8394,81.3271 15.1144,81.5491 L15.9244,82.1831 L15.0204,83.3801 Z" id="Fill-47" fill="#F1892D" mask="url(#mask-4)"></path>
                <path d="M12.2308,87.1862 L11.6988,86.7792 L11.2048,86.3852 C10.8798,86.1222 10.5558,85.8522 10.2368,85.5792 C9.6128,85.0442 8.9898,84.4822 8.3838,83.9072 L9.4168,82.8192 C10.0038,83.3762 10.6078,83.9222 11.2128,84.4402 C11.5208,84.7042 11.8348,84.9652 12.1448,85.2162 L12.8688,85.7882 L13.1338,85.9882 L12.2308,87.1862 Z" id="Fill-48" fill="#F1892D" mask="url(#mask-4)"></path>
                <polygon id="Fill-49" fill="#F1892D" mask="url(#mask-4)" points="11.2948 85.4977 10.1548 84.5217 13.2248 80.9377 14.3638 81.9137"></polygon>
                <path d="M21.3773,81.3527 L18.3583,79.3527 L18.5533,79.0587 C19.4643,77.6837 19.0853,75.8117 17.7093,74.9007 L15.8253,73.6537 C14.4493,72.7427 12.5783,73.1227 11.6673,74.4977 L9.8153,77.2927 L9.2133,78.2027 L6.2133,82.7307 C5.3023,84.1067 5.6823,85.9777 7.0583,86.8887 L14.4613,91.7927 C15.8373,92.7047 17.7083,92.3237 18.6203,90.9487 L22.2223,85.5107 C23.1333,84.1347 22.7523,82.2637 21.3773,81.3527" id="Fill-50" fill="#A5B5B6" mask="url(#mask-4)"></path>
                <path d="M22.222,85.5104 C23.133,84.1354 22.753,82.2634 21.377,81.3524 L19.7,80.2414 L12.825,90.7084 L14.462,91.7924 C15.838,92.7044 17.708,92.3234 18.62,90.9484 L22.222,85.5104 Z" id="Fill-51" fill="#859596" mask="url(#mask-4)"></path>
                <path d="M14.1722,73.905 C13.4422,73.905 12.7252,74.259 12.2932,74.912 L6.8392,83.145 C6.5092,83.643 6.3932,84.244 6.5132,84.835 C6.6332,85.426 6.9742,85.933 7.4722,86.263 L14.8762,91.168 C15.3742,91.498 15.9742,91.613 16.5662,91.493 C17.1572,91.373 17.6642,91.032 17.9942,90.534 L21.5962,85.096 C22.2812,84.062 21.9972,82.663 20.9632,81.978 L17.9442,79.979 C17.7782,79.869 17.6632,79.697 17.6242,79.503 C17.5842,79.307 17.6232,79.105 17.7332,78.939 L17.9282,78.645 C18.2582,78.147 18.3742,77.547 18.2542,76.955 C18.1332,76.364 17.7932,75.857 17.2952,75.527 L15.4112,74.279 C15.0292,74.026 14.5982,73.905 14.1722,73.905 M16.1062,93.04 C15.3772,93.04 14.6662,92.828 14.0472,92.418 L6.6442,87.514 C5.8122,86.963 5.2432,86.117 5.0432,85.134 C4.8432,84.15 5.0372,83.149 5.5892,82.317 L11.0422,74.084 C12.1842,72.36 14.5152,71.886 16.2392,73.028 L18.1232,74.276 C18.9552,74.827 19.5242,75.673 19.7242,76.657 C19.8972,77.509 19.7752,78.374 19.3802,79.131 L21.7912,80.727 L21.7912,80.728 C23.5152,81.869 23.9892,84.201 22.8472,85.925 L19.2452,91.363 C18.6932,92.195 17.8482,92.763 16.8642,92.963 C16.6112,93.015 16.3582,93.04 16.1062,93.04" id="Fill-52" fill="#354546" mask="url(#mask-4)"></path>
                <path d="M12.7841,91.4318 C12.6411,91.4318 12.4981,91.3918 12.3701,91.3068 C12.0251,91.0778 11.9301,90.6128 12.1591,90.2678 L19.0751,79.8278 C19.3041,79.4818 19.7691,79.3878 20.1141,79.6168 C20.4591,79.8448 20.5541,80.3108 20.3251,80.6558 L13.4101,91.0958 C13.2651,91.3138 13.0271,91.4318 12.7841,91.4318" id="Fill-53" fill="#354546" mask="url(#mask-4)"></path>
                <path d="M21.2538,87.7209 C21.1038,87.7209 20.9518,87.6759 20.8198,87.5819 L16.7328,84.6759 C16.3958,84.4349 16.3168,83.9669 16.5568,83.6299 C16.7968,83.2919 17.2648,83.2129 17.6028,83.4529 L21.6898,86.3599 C22.0268,86.5999 22.1058,87.0679 21.8658,87.4059 C21.7198,87.6109 21.4888,87.7209 21.2538,87.7209" id="Fill-54" fill="#354546" mask="url(#mask-4)"></path>
                <path d="M18.8676,91.3234 C18.7326,91.3234 18.5966,91.2864 18.4726,91.2104 L14.2116,88.5684 C13.8596,88.3494 13.7516,87.8874 13.9696,87.5354 C14.1876,87.1834 14.6506,87.0744 15.0026,87.2934 L19.2636,89.9364 C19.6156,90.1544 19.7236,90.6164 19.5056,90.9684 C19.3636,91.1974 19.1186,91.3234 18.8676,91.3234" id="Fill-55" fill="#354546" mask="url(#mask-4)"></path>
                <path d="M9.8124,85.3249 C9.6664,85.3249 9.5224,85.2829 9.3984,85.1999 L6.0484,82.9809 C5.7034,82.7529 5.6084,82.2869 5.8364,81.9419 C6.0654,81.5959 6.5314,81.5019 6.8764,81.7309 L9.6014,83.5359 L13.1184,78.2259 L10.3934,76.4209 C10.0484,76.1919 9.9534,75.7269 10.1824,75.3819 C10.4114,75.0359 10.8764,74.9419 11.2224,75.1709 L14.5724,77.3899 C14.9174,77.6179 15.0124,78.0839 14.7834,78.4289 L10.4374,84.9899 C10.3284,85.1549 10.1564,85.2699 9.9614,85.3099 C9.9124,85.3199 9.8624,85.3249 9.8124,85.3249" id="Fill-56" fill="#354546" mask="url(#mask-4)"></path>
                <path d="M18.3578,80.1032 C18.2158,80.1032 18.0718,80.0622 17.9448,79.9782 L16.2218,78.8372 C15.8768,78.6082 15.7818,78.1432 16.0108,77.7982 C16.2398,77.4532 16.7048,77.3582 17.0498,77.5872 L18.7728,78.7282 C19.1178,78.9572 19.2128,79.4222 18.9838,79.7672 C18.8398,79.9852 18.6008,80.1032 18.3578,80.1032" id="Fill-57" fill="#354546" mask="url(#mask-4)"></path>
                <path d="M55.952,66.5793 C54.469,67.0453 52.971,67.5363 51.347,67.9543 L50.184,63.3813 C51.578,63.0233 53.044,62.5483 54.531,62.0793 L55.952,66.5793 Z" id="Fill-58" fill="#F9BF3B" mask="url(#mask-4)"></path>
                <path d="M50.3705,64.1071 L49.9975,62.6541 C51.1935,62.3471 52.4295,61.9571 53.7375,61.5441 L54.3065,61.3641 L54.7565,62.7951 L54.1895,62.9741 C52.8615,63.3941 51.6065,63.7901 50.3705,64.1071" id="Fill-59" fill="#F1892D" mask="url(#mask-4)"></path>
                <path d="M51.5341,68.6804 L51.1591,67.2274 C52.5111,66.8794 53.7931,66.4744 55.0321,66.0834 L55.7281,65.8634 L56.1771,67.2954 L55.4841,67.5134 C54.2261,67.9104 52.9251,68.3224 51.5341,68.6804" id="Fill-60" fill="#F1892D" mask="url(#mask-4)"></path>
                <polygon id="Fill-61" fill="#F1892D" mask="url(#mask-4)" points="52.9843 67.5031 51.6063 62.9901 53.0403 62.5521 54.4193 67.0651"></polygon>
                <path d="M60.3207,65.2819 C58.8837,65.6599 57.4317,66.1119 55.9517,66.5789 L54.5307,62.0799 C56.0217,61.6089 57.5447,61.1339 59.1207,60.7189 L60.3207,65.2819 Z" id="Fill-62" fill="#F9BF3B" mask="url(#mask-4)"></path>
                <path d="M54.7572,62.7951 L54.3052,61.3651 C55.8442,60.8781 57.3552,60.4081 58.9292,59.9931 L59.3112,61.4441 C57.7702,61.8501 56.2782,62.3151 54.7572,62.7951" id="Fill-63" fill="#F1892D" mask="url(#mask-4)"></path>
                <path d="M56.1781,67.2946 L55.7261,65.8646 C57.1471,65.4156 58.6571,64.9446 60.1301,64.5566 L60.5111,66.0066 C59.0721,66.3866 57.5811,66.8506 56.1781,67.2946" id="Fill-64" fill="#F1892D" mask="url(#mask-4)"></path>
                <polygon id="Fill-65" fill="#F1892D" mask="url(#mask-4)" points="57.434 66.113 56.076 61.594 57.512 61.162 58.871 65.681"></polygon>
                <path d="M64.5409,64.4587 C63.1799,64.5987 61.7559,64.9037 60.3209,65.2817 L59.1209,60.7187 C60.6969,60.3057 62.3259,59.9447 64.0649,59.7647 L64.5409,64.4587 Z" id="Fill-66" fill="#F9BF3B" mask="url(#mask-4)"></path>
                <path d="M59.3104,61.444 L58.9304,59.993 C60.2554,59.646 62.0284,59.221 63.9874,59.018 L64.1424,60.51 C62.2844,60.703 60.5844,61.111 59.3104,61.444" id="Fill-67" fill="#F1892D" mask="url(#mask-4)"></path>
                <path d="M60.5116,66.007 L60.1296,64.556 C61.8266,64.11 63.2046,63.841 64.4646,63.713 L64.6176,65.205 C63.4366,65.326 62.1316,65.581 60.5116,66.007" id="Fill-68" fill="#F1892D" mask="url(#mask-4)"></path>
                <polygon id="Fill-69" fill="#F1892D" mask="url(#mask-4)" points="61.723 64.9284 60.796 60.3024 62.267 60.0074 63.194 64.6344"></polygon>
                <path d="M68.1737,64.6979 C67.1997,64.3639 65.8947,64.3179 64.5407,64.4589 L64.0647,59.7639 C64.9347,59.6759 65.8347,59.6369 66.7717,59.6889 C67.7087,59.7469 68.6887,59.8899 69.6807,60.2259 L68.1737,64.6979 Z" id="Fill-70" fill="#F9BF3B" mask="url(#mask-4)"></path>
                <path d="M69.4398,60.9367 C68.6338,60.6637 67.7468,60.5007 66.7258,60.4377 C65.9128,60.3927 65.0648,60.4157 64.1408,60.5107 L63.9888,59.0187 C64.9918,58.9157 65.9168,58.8907 66.8138,58.9407 C67.9728,59.0117 68.9878,59.1997 69.9208,59.5167 L69.4398,60.9367 Z" id="Fill-71" fill="#F1892D" mask="url(#mask-4)"></path>
                <path d="M67.9306,65.4074 C67.1306,65.1334 65.9856,65.0624 64.6186,65.2044 L64.4636,63.7134 C65.5666,63.5984 67.1476,63.5534 68.4176,63.9884 L67.9306,65.4074 Z" id="Fill-72" fill="#F1892D" mask="url(#mask-4)"></path>
                <polygon id="Fill-73" fill="#F1892D" mask="url(#mask-4)" points="67.2484 64.443 65.7504 64.357 66.0234 59.646 67.5204 59.733"></polygon>
                <path d="M70.2333,66.507 C69.7583,65.57 69.1503,65.034 68.1733,64.698 L69.6803,60.226 C70.6683,60.557 71.6663,61.09 72.5043,61.831 C73.3413,62.569 74.0053,63.478 74.4583,64.406 L70.2333,66.507 Z" id="Fill-74" fill="#F9BF3B" mask="url(#mask-4)"></path>
                <path d="M73.7841,64.735 C73.3491,63.844 72.7361,63.034 72.0081,62.394 C71.2981,61.765 70.4111,61.262 69.4421,60.938 L69.9191,59.515 C71.0771,59.903 72.1431,60.51 73.0011,61.269 C73.8741,62.039 74.6121,63.01 75.1321,64.077 L73.7841,64.735 Z" id="Fill-75" fill="#F1892D" mask="url(#mask-4)"></path>
                <path d="M69.5643,66.8459 C69.1773,66.0819 68.7193,65.6789 67.9303,65.4079 L68.4183,63.9889 C69.5743,64.3869 70.3403,65.0589 70.9023,66.1689 L69.5643,66.8459 Z" id="Fill-76" fill="#F1892D" mask="url(#mask-4)"></path>
                <polygon id="Fill-77" fill="#F1892D" mask="url(#mask-4)" points="69.955 65.8718 68.828 64.8828 71.94 61.3358 73.068 62.3258"></polygon>
                <path d="M70.7284,69.6984 C70.8014,69.1204 70.8034,68.5634 70.7194,68.0344 C70.7044,67.9004 70.6684,67.7724 70.6454,67.6414 C70.6074,67.5134 70.5824,67.3834 70.5354,67.2574 C70.4994,67.1324 70.4474,67.0024 70.3974,66.8714 C70.3744,66.8064 70.3434,66.7484 70.3174,66.6864 C70.2914,66.6234 70.2644,66.5634 70.2334,66.5074 L74.4584,64.4064 C74.5184,64.5224 74.5734,64.6384 74.6234,64.7554 C74.6734,64.8714 74.7284,64.9894 74.7734,65.1054 C74.8644,65.3384 74.9544,65.5724 75.0294,65.8194 C75.1134,66.0614 75.1724,66.3124 75.2374,66.5594 C75.2894,66.8104 75.3494,67.0604 75.3824,67.3134 C75.5414,68.3234 75.5324,69.3394 75.4084,70.3054 L70.7284,69.6984 Z" id="Fill-78" fill="#F9BF3B" mask="url(#mask-4)"></path>
                <path d="M76.1517,70.4011 L74.6637,70.2101 C74.7877,69.2441 74.7797,68.3091 74.6417,67.4301 L74.6387,67.4111 C74.6167,67.2451 74.5797,67.0701 74.5397,66.8851 L74.4687,66.5841 C74.4217,66.3991 74.3767,66.2251 74.3207,66.0641 L74.3127,66.0391 C74.2447,65.8161 74.1617,65.6001 74.0747,65.3791 C74.0477,65.3061 74.0167,65.2391 73.9867,65.1721 C73.9687,65.1321 73.9517,65.0921 73.9347,65.0521 C73.8877,64.9441 73.8417,64.8461 73.7927,64.7531 L75.1237,64.0601 C75.1897,64.1871 75.2517,64.3181 75.3127,64.4591 L75.3577,64.5621 C75.3987,64.6541 75.4397,64.7471 75.4737,64.8391 C75.5637,65.0681 75.6607,65.3191 75.7427,65.5881 C75.8157,65.8001 75.8697,66.0071 75.9217,66.2081 L75.9727,66.4081 L76.0067,66.5721 C76.0497,66.7751 76.0947,66.9841 76.1247,67.2061 C76.2837,68.2221 76.2937,69.2971 76.1517,70.4011" id="Fill-79" fill="#F1892D" mask="url(#mask-4)"></path>
                <path d="M71.4725,69.7927 L69.9845,69.6047 C70.0505,69.0807 70.0485,68.5917 69.9785,68.1537 L69.9735,68.1177 C69.9685,68.0697 69.9555,68.0107 69.9405,67.9417 C69.9315,67.8987 69.9225,67.8567 69.9135,67.8137 C69.9025,67.7717 69.8915,67.7297 69.8805,67.6877 C69.8645,67.6227 69.8475,67.5607 69.8315,67.5167 L69.8155,67.4677 C69.7925,67.3877 69.7555,67.2907 69.7165,67.1887 L69.6975,67.1397 C69.6855,67.1087 69.6765,67.0897 69.6675,67.0697 C69.6525,67.0387 69.6385,67.0067 69.6255,66.9747 C69.6075,66.9317 69.5905,66.8957 69.5745,66.8657 L70.8915,66.1487 C70.9345,66.2267 70.9735,66.3087 71.0115,66.3997 C71.0165,66.4147 71.0245,66.4307 71.0325,66.4467 C71.0565,66.5007 71.0805,66.5567 71.1025,66.6147 L71.1165,66.6507 C71.1615,66.7707 71.2085,66.8927 71.2485,67.0227 C71.2855,67.1287 71.3105,67.2277 71.3335,67.3147 C71.3435,67.3537 71.3535,67.3917 71.3645,67.4307 L71.3835,67.5087 C71.3895,67.5487 71.3985,67.5877 71.4075,67.6267 C71.4265,67.7167 71.4485,67.8177 71.4625,67.9327 C71.5525,68.5067 71.5555,69.1327 71.4725,69.7927" id="Fill-80" fill="#F1892D" mask="url(#mask-4)"></path>
                <polygon id="Fill-81" fill="#F1892D" mask="url(#mask-4)" points="70.8334 68.7761 70.6044 67.2941 75.2674 66.5721 75.4964 68.0541"></polygon>
                <path d="M69.4765,73.2756 C70.1165,72.0836 70.5825,70.8556 70.7285,69.6986 L75.4085,70.3056 C75.3465,70.7896 75.2505,71.2596 75.1405,71.7206 C75.0215,72.1766 74.8885,72.6256 74.7325,73.0576 C74.4235,73.9236 74.0475,74.7396 73.6305,75.5136 L69.4765,73.2756 Z" id="Fill-82" fill="#F9BF3B" mask="url(#mask-4)"></path>
                <path d="M74.2904,75.8693 L72.9694,75.1583 C73.4024,74.3553 73.7484,73.5863 74.0264,72.8063 C74.1644,72.4243 74.2904,72.0083 74.4144,71.5323 C74.5324,71.0363 74.6134,70.6133 74.6644,70.2113 L76.1524,70.4003 C76.0944,70.8573 76.0044,71.3323 75.8694,71.8953 C75.7304,72.4293 75.5914,72.8893 75.4384,73.3123 C75.1344,74.1623 74.7594,74.9993 74.2904,75.8693" id="Fill-83" fill="#F1892D" mask="url(#mask-4)"></path>
                <path d="M70.1366,73.6305 L68.8156,72.9205 C69.4666,71.7095 69.8606,70.5935 69.9846,69.6055 L71.4726,69.7925 C71.3246,70.9645 70.8756,72.2555 70.1366,73.6305" id="Fill-84" fill="#F1892D" mask="url(#mask-4)"></path>
                <polygon id="Fill-85" fill="#F1892D" mask="url(#mask-4)" points="74.4809 73.7643 70.0359 72.1813 70.5399 70.7673 74.9839 72.3513"></polygon>
                <path d="M67.0961,76.7468 C68.0111,75.6338 68.8311,74.4708 69.4761,73.2758 L73.6301,75.5138 C72.7931,77.0608 71.8031,78.4498 70.7411,79.7428 L67.0961,76.7468 Z" id="Fill-86" fill="#F9BF3B" mask="url(#mask-4)"></path>
                <path d="M71.3212,80.2189 L70.1612,79.2669 C71.3192,77.8569 72.2382,76.5119 72.9702,75.1569 L74.2902,75.8699 C73.5112,77.3109 72.5402,78.7329 71.3212,80.2189" id="Fill-87" fill="#F1892D" mask="url(#mask-4)"></path>
                <path d="M67.6757,77.2228 L66.5167,76.2708 C67.4657,75.1168 68.2387,73.9888 68.8167,72.9188 L70.1357,73.6318 C69.5127,74.7858 68.6857,75.9938 67.6757,77.2228" id="Fill-88" fill="#F1892D" mask="url(#mask-4)"></path>
                <polygon id="Fill-89" fill="#F1892D" mask="url(#mask-4)" points="71.8432 78.3405 67.9612 75.6585 68.8132 74.4245 72.6962 77.1065"></polygon>
                <path d="M64.101,79.9426 C65.169,78.9266 66.18,77.8596 67.096,76.7466 L70.741,79.7426 C69.678,81.0346 68.54,82.2326 67.351,83.3626 L64.101,79.9426 Z" id="Fill-90" fill="#F9BF3B" mask="url(#mask-4)"></path>
                <path d="M67.8685,83.9064 L66.8345,82.8194 C68.0815,81.6344 69.1695,80.4714 70.1625,79.2664 L71.3205,80.2194 C70.2885,81.4724 69.1595,82.6784 67.8685,83.9064" id="Fill-91" fill="#F1892D" mask="url(#mask-4)"></path>
                <path d="M64.6176,80.4865 L63.5846,79.3995 C64.6746,78.3635 65.6606,77.3105 66.5166,76.2705 L67.6756,77.2235 C66.7806,78.3105 65.7516,79.4085 64.6176,80.4865" id="Fill-92" fill="#F1892D" mask="url(#mask-4)"></path>
                <polygon id="Fill-93" fill="#F1892D" mask="url(#mask-4)" points="68.5795 82.1598 65.1415 78.9278 66.1695 77.8348 69.6065 81.0668"></polygon>
                <path d="M60.7787,82.7819 L60.9717,82.6359 L61.1827,82.4719 L61.6097,82.1319 C61.8937,81.9019 62.1767,81.6659 62.4567,81.4259 C63.0177,80.9459 63.5667,80.4499 64.1007,79.9429 L67.3517,83.3629 C66.7567,83.9279 66.1497,84.4759 65.5267,85.0099 C65.2157,85.2759 64.8997,85.5389 64.5797,85.7989 L64.0927,86.1869 L63.8427,86.3809 L63.5697,86.5869 L60.7787,82.7819 Z" id="Fill-94" fill="#F9BF3B" mask="url(#mask-4)"></path>
                <path d="M64.0204,87.1862 L63.1174,85.9882 L63.6334,85.5942 L64.1114,85.2122 C64.4174,84.9642 64.7304,84.7032 65.0394,84.4402 C65.6434,83.9212 66.2484,83.3762 66.8354,82.8192 L67.8684,83.9072 C67.2624,84.4812 66.6394,85.0442 66.0144,85.5792 C65.6964,85.8512 65.3724,86.1212 65.0514,86.3812 L64.3024,86.9732 L64.0204,87.1862 Z" id="Fill-95" fill="#F1892D" mask="url(#mask-4)"></path>
                <path d="M61.2313,83.3801 L60.3263,82.1831 L60.7233,81.8801 L61.1423,81.5461 C61.4143,81.3251 61.6933,81.0921 61.9693,80.8561 C62.5123,80.3911 63.0563,79.9001 63.5843,79.3991 L64.6173,80.4861 C64.0703,81.0051 63.5073,81.5131 62.9453,81.9951 C62.6593,82.2401 62.3683,82.4821 62.0823,82.7141 L61.2313,83.3801 Z" id="Fill-96" fill="#F1892D" mask="url(#mask-4)"></path>
                <polygon id="Fill-97" fill="#F1892D" mask="url(#mask-4)" points="64.9569 85.4977 61.8879 81.9137 63.0269 80.9377 66.0959 84.5217"></polygon>
                <path d="M54.8739,81.3527 L57.8929,79.3527 L57.6979,79.0587 C56.7869,77.6837 57.1669,75.8117 58.5419,74.9007 L60.4259,73.6537 C61.8019,72.7427 63.6729,73.1227 64.5839,74.4977 L66.4359,77.2927 L67.0379,78.2027 L70.0379,82.7307 C70.9489,84.1067 70.5689,85.9777 69.1929,86.8887 L61.7899,91.7927 C60.4139,92.7047 58.5429,92.3237 57.6319,90.9487 L54.0299,85.5107 C53.1189,84.1347 53.4989,82.2637 54.8739,81.3527" id="Fill-98" fill="#A5B5B6" mask="url(#mask-4)"></path>
                <path d="M54.0297,85.5104 C53.1187,84.1354 53.4987,82.2634 54.8737,81.3524 L56.5517,80.2414 L63.4267,90.7084 L61.7897,91.7924 C60.4137,92.7044 58.5427,92.3234 57.6317,90.9484 L54.0297,85.5104 Z" id="Fill-99" fill="#859596" mask="url(#mask-4)"></path>
                <path d="M55.288,81.9777 C54.254,82.6637 53.97,84.0617 54.655,85.0967 L58.257,90.5347 C58.587,91.0327 59.095,91.3737 59.686,91.4937 C60.277,91.6127 60.877,91.4977 61.375,91.1677 L68.779,86.2637 C69.277,85.9337 69.618,85.4257 69.738,84.8347 C69.858,84.2437 69.743,83.6437 69.413,83.1447 L63.959,74.9117 C63.274,73.8777 61.875,73.5937 60.841,74.2787 L58.956,75.5267 C58.458,75.8567 58.118,76.3637 57.997,76.9557 C57.877,77.5467 57.993,78.1467 58.323,78.6447 L58.518,78.9387 C58.747,79.2847 58.652,79.7497 58.307,79.9787 L55.288,81.9777 Z M60.146,93.0407 C59.894,93.0407 59.64,93.0147 59.387,92.9627 C58.403,92.7637 57.558,92.1947 57.006,91.3627 L53.404,85.9247 C52.263,84.2007 52.736,81.8697 54.46,80.7277 L54.46,80.7277 L56.871,79.1307 C56.477,78.3737 56.354,77.5087 56.528,76.6567 C56.727,75.6727 57.296,74.8277 58.128,74.2757 L60.012,73.0277 C61.736,71.8867 64.068,72.3597 65.209,74.0837 L70.663,82.3167 C71.214,83.1487 71.408,84.1497 71.208,85.1337 C71.008,86.1177 70.44,86.9627 69.607,87.5147 L62.204,92.4177 C61.585,92.8277 60.874,93.0407 60.146,93.0407 L60.146,93.0407 Z" id="Fill-100" fill="#354546" mask="url(#mask-4)"></path>
                <path d="M63.4677,91.4318 C63.2247,91.4318 62.9867,91.3138 62.8417,91.0958 L55.9257,80.6558 C55.6977,80.3108 55.7917,79.8448 56.1367,79.6168 C56.4827,79.3878 56.9477,79.4818 57.1767,79.8278 L64.0927,90.2678 C64.3207,90.6128 64.2267,91.0778 63.8817,91.3068 C63.7537,91.3918 63.6097,91.4318 63.4677,91.4318" id="Fill-101" fill="#354546" mask="url(#mask-4)"></path>
                <path d="M54.9974,87.7209 C54.7634,87.7209 54.5324,87.6109 54.3854,87.4059 C54.1454,87.0679 54.2244,86.5999 54.5624,86.3599 L58.6484,83.4529 C58.9864,83.2129 59.4544,83.2919 59.6944,83.6299 C59.9344,83.9669 59.8554,84.4349 59.5184,84.6759 L55.4314,87.5819 C55.2994,87.6759 55.1474,87.7209 54.9974,87.7209" id="Fill-102" fill="#354546" mask="url(#mask-4)"></path>
                <path d="M57.3837,91.3234 C57.1327,91.3234 56.8877,91.1974 56.7457,90.9684 C56.5277,90.6164 56.6357,90.1544 56.9877,89.9364 L61.2497,87.2934 C61.6017,87.0744 62.0637,87.1834 62.2817,87.5354 C62.5007,87.8874 62.3917,88.3494 62.0397,88.5684 L57.7787,91.2104 C57.6557,91.2864 57.5187,91.3234 57.3837,91.3234" id="Fill-103" fill="#354546" mask="url(#mask-4)"></path>
                <path d="M66.4389,85.3249 C66.3889,85.3249 66.3389,85.3199 66.2899,85.3099 C66.0949,85.2699 65.9229,85.1549 65.8139,84.9899 L61.4679,78.4289 C61.2399,78.0839 61.3339,77.6179 61.6789,77.3899 L65.0299,75.1709 C65.3749,74.9419 65.8399,75.0359 66.0689,75.3819 C66.2979,75.7269 66.2039,76.1919 65.8579,76.4209 L63.1329,78.2259 L66.6499,83.5359 L69.3749,81.7309 C69.7199,81.5019 70.1859,81.5959 70.4149,81.9419 C70.6439,82.2869 70.5489,82.7529 70.2039,82.9809 L66.8529,85.1999 C66.7299,85.2829 66.5849,85.3249 66.4389,85.3249" id="Fill-104" fill="#354546" mask="url(#mask-4)"></path>
                <path d="M57.8934,80.1032 C57.6504,80.1032 57.4124,79.9852 57.2674,79.7672 C57.0394,79.4222 57.1334,78.9572 57.4784,78.7282 L59.2014,77.5872 C59.5464,77.3582 60.0124,77.4532 60.2404,77.7982 C60.4694,78.1432 60.3744,78.6082 60.0294,78.8372 L58.3074,79.9782 C58.1794,80.0622 58.0354,80.1032 57.8934,80.1032" id="Fill-105" fill="#354546" mask="url(#mask-4)"></path>
                <path d="M46.0277,75.426 C46.0047,75.426 45.9817,75.426 45.9587,75.427 C45.7777,75.436 45.7087,75.477 45.6987,75.491 C45.6137,75.607 45.5457,76.303 46.3107,77.922 C46.8927,79.153 47.7167,80.399 48.1967,80.946 C48.5827,81.385 49.0677,81.626 49.5297,81.605 C49.9297,81.587 50.2827,81.382 50.5527,81.011 C51.2257,80.088 51.0907,78.507 50.2587,77.558 C49.5517,76.753 47.2327,75.426 46.0277,75.426 M49.4747,83.106 C48.5967,83.106 47.7267,82.684 47.0697,81.935 C46.5307,81.321 43.0887,76.527 44.4857,74.608 C44.6977,74.318 45.1127,73.965 45.8907,73.929 C47.6337,73.854 50.4267,75.476 51.3857,76.569 C52.6907,78.056 52.8577,80.395 51.7647,81.895 C51.2257,82.635 50.4557,83.064 49.5977,83.103 C49.5567,83.105 49.5157,83.106 49.4747,83.106" id="Fill-106" fill="#19B5FE" mask="url(#mask-4)"></path>
                <path d="M45.5648,74.6613 L45.5658,74.6613 L45.5648,74.6613 Z M51.7818,72.7593 C50.3658,72.7593 48.1848,73.1773 46.9898,73.9723 C46.7058,74.1613 46.3568,74.4543 46.3058,74.7783 C46.2378,75.2103 46.7158,76.0403 48.2608,77.0753 C49.5398,77.9323 51.0888,78.6053 51.8968,78.8043 C52.4988,78.9523 53.1158,78.8433 53.6358,78.4973 C54.2628,78.0803 54.6978,77.3563 54.8308,76.5123 C55.0928,74.8433 54.1388,73.1983 52.7038,72.8453 C52.4688,72.7873 52.1518,72.7593 51.7818,72.7593 L51.7818,72.7593 Z M52.4288,80.3693 C52.1328,80.3693 51.8348,80.3333 51.5388,80.2613 C49.7718,79.8273 44.3938,77.2823 44.8238,74.5453 C44.9328,73.8533 45.3818,73.2403 46.1598,72.7233 C47.9508,71.5313 51.4518,70.9933 53.0618,71.3893 C55.2338,71.9223 56.6928,74.3253 56.3128,76.7443 C56.1148,78.0033 55.4418,79.0973 54.4668,79.7463 C53.8478,80.1583 53.1458,80.3693 52.4288,80.3693 L52.4288,80.3693 Z" id="Fill-107" fill="#C72C1C" mask="url(#mask-4)"></path>
                <path d="M41.368,60.0231 C39.724,59.8791 37.031,59.8321 35.384,59.9191 L26.313,60.3931 C24.665,60.4791 23.293,61.8991 23.264,63.5491 L23.114,72.1711 C23.085,73.8211 24.364,75.5261 25.956,75.9611 L35.145,78.4681 C36.737,78.9021 39.353,78.9481 40.959,78.5691 L50.23,76.3841 C51.836,76.0061 53.174,74.3461 53.202,72.6961 L53.353,64.0741 C53.382,62.4241 52.06,60.9571 50.416,60.8131 L41.368,60.0231 Z" id="Fill-108" fill="#A5B5B6" mask="url(#mask-4)"></path>
                <path d="M50.2719,73.985 L41.0009,76.17 C39.3949,76.548 36.7789,76.503 35.1869,76.068 L25.9979,73.561 C24.4059,73.127 23.1269,71.422 23.1559,69.772 L23.1139,72.172 C23.0849,73.821 24.3639,75.527 25.9559,75.961 L35.1449,78.468 C36.7369,78.902 39.3539,78.948 40.9589,78.569 L50.2299,76.384 C51.8359,76.006 53.1739,74.346 53.2029,72.696 L53.2439,70.297 C53.2149,71.947 51.8779,73.606 50.2719,73.985" id="Fill-109" fill="#859596" mask="url(#mask-4)"></path>
                <path d="M37.3485,60.6247 C36.6425,60.6247 35.9735,60.6387 35.4225,60.6667 L26.3515,61.1417 C25.1065,61.2067 24.0365,62.3147 24.0145,63.5617 L23.8645,72.1847 C23.8415,73.4947 24.8895,74.8927 26.1535,75.2377 L35.3425,77.7447 C36.8115,78.1457 39.3055,78.1887 40.7865,77.8397 L50.0575,75.6547 C51.3325,75.3537 52.4295,73.9937 52.4525,72.6837 L52.6025,64.0607 C52.6245,62.8137 51.5935,61.6687 50.3515,61.5607 L41.3025,60.7707 C40.2335,60.6767 38.7205,60.6247 37.3485,60.6247 M38.3275,79.5787 C37.1185,79.5787 35.8865,79.4477 34.9475,79.1917 L25.7585,76.6847 C23.8205,76.1557 22.3285,74.1677 22.3645,72.1587 L22.5145,63.5357 C22.5505,61.4967 24.2365,59.7497 26.2735,59.6437 L35.3445,59.1697 C37.0245,59.0817 39.7565,59.1287 41.4335,59.2757 L50.4815,60.0657 C52.5145,60.2437 54.1385,62.0467 54.1025,64.0867 L53.9525,72.7097 C53.9175,74.7187 52.3575,76.6537 50.4025,77.1147 L41.1315,79.2997 C40.3375,79.4867 39.3405,79.5787 38.3275,79.5787" id="Fill-110" fill="#354546" mask="url(#mask-4)"></path>
                <polygon id="Fill-111" fill="#556566" mask="url(#mask-4)" points="41.2611 73.1008 28.1851 72.8728 28.3451 63.6738 41.4211 63.9018"></polygon>
                <path d="M36.8456,71.1623 C36.5886,71.1623 36.3466,71.0303 36.2096,70.8083 L35.1716,69.1433 L33.5546,69.1153 C33.3036,69.1113 33.0706,68.9813 32.9356,68.7693 L32.8676,68.6633 L32.4316,69.6803 C32.3336,69.9073 32.1306,70.0713 31.8886,70.1203 C31.6466,70.1673 31.3966,70.0943 31.2196,69.9213 L30.3326,69.0593 L28.2526,69.0233 C27.8386,69.0163 27.5086,68.6743 27.5156,68.2603 C27.5226,67.8463 27.8646,67.5123 28.2786,67.5233 L30.6566,67.5653 C30.8466,67.5683 31.0296,67.6443 31.1656,67.7773 L31.4836,68.0863 L32.0496,66.7693 C32.1586,66.5143 32.4006,66.3403 32.6776,66.3183 C32.9546,66.2953 33.2206,66.4283 33.3706,66.6623 L33.9836,67.6223 L35.6056,67.6513 C35.8596,67.6553 36.0946,67.7883 36.2286,68.0043 L36.6236,68.6373 L37.4356,66.0843 C37.5336,65.7763 37.8186,65.5653 38.1416,65.5613 C38.4646,65.5563 38.7536,65.7613 38.8596,66.0663 L39.4296,67.7183 L41.3546,67.7513 C41.7686,67.7583 42.0986,68.1003 42.0916,68.5143 C42.0836,68.9293 41.7436,69.2573 41.3276,69.2513 L38.8786,69.2083 C38.5636,69.2033 38.2856,69.0013 38.1826,68.7033 L38.1796,68.6933 L37.5606,70.6403 C37.4716,70.9183 37.2286,71.1203 36.9386,71.1563 C36.9076,71.1603 36.8766,71.1623 36.8456,71.1623" id="Fill-112" fill="#D5E5E6" mask="url(#mask-4)"></path>
                <path d="M28.9481,72.1359 L40.5241,72.3379 L40.6581,64.6389 L29.0821,64.4369 L28.9481,72.1359 Z M41.2611,73.8509 L41.2481,73.8509 L28.1721,73.6219 C27.7581,73.6149 27.4281,73.2739 27.4351,72.8599 L27.5951,63.6609 C27.6031,63.2469 27.9461,62.9129 28.3591,62.9239 L41.4341,63.1529 C41.6341,63.1559 41.8231,63.2379 41.9611,63.3809 C42.0991,63.5239 42.1751,63.7169 42.1711,63.9149 L42.0111,73.1139 C42.0071,73.3129 41.9251,73.5019 41.7821,73.6399 C41.6421,73.7759 41.4551,73.8509 41.2611,73.8509 L41.2611,73.8509 Z" id="Fill-113" fill="#354546" mask="url(#mask-4)"></path>
                <path d="M48.2396,65.7966 C48.2226,66.7766 47.4136,67.5576 46.4336,67.5406 C45.4536,67.5236 44.6736,66.7146 44.6906,65.7346 C44.7076,64.7546 45.5156,63.9736 46.4956,63.9906 C47.4756,64.0076 48.2566,64.8166 48.2396,65.7966" id="Fill-114" fill="#F85C4C" mask="url(#mask-4)"></path>
                <path d="M46.4647,64.7404 C45.9077,64.7404 45.4497,65.1884 45.4397,65.7474 C45.4357,66.0214 45.5377,66.2804 45.7277,66.4774 C45.9177,66.6744 46.1727,66.7854 46.4467,66.7904 C46.7207,66.7924 46.9797,66.6934 47.1767,66.5024 C47.3737,66.3124 47.4847,66.0564 47.4897,65.7834 C47.4997,65.2184 47.0477,64.7504 46.4827,64.7404 L46.4647,64.7404 Z M46.4657,68.2904 L46.4207,68.2904 C45.7467,68.2784 45.1167,68.0044 44.6487,67.5194 C44.1797,67.0344 43.9287,66.3954 43.9407,65.7214 C43.9647,64.3294 45.1107,63.2174 46.5087,63.2404 C47.9017,63.2654 49.0137,64.4174 48.9897,65.8094 C48.9777,66.4834 48.7037,67.1134 48.2187,67.5814 C47.7447,68.0394 47.1237,68.2904 46.4657,68.2904 L46.4657,68.2904 Z" id="Fill-115" fill="#C72C1C" mask="url(#mask-4)"></path>
                <path d="M48.141,71.4455 C48.124,72.4255 47.315,73.2065 46.335,73.1895 C45.355,73.1725 44.575,72.3635 44.592,71.3835 C44.609,70.4035 45.417,69.6225 46.397,69.6395 C47.377,69.6565 48.158,70.4655 48.141,71.4455" id="Fill-116" fill="#B9D96D" mask="url(#mask-4)"></path>
                <path d="M46.3656,70.3893 C46.0986,70.3893 45.8466,70.4913 45.6546,70.6773 C45.4576,70.8673 45.3456,71.1233 45.3416,71.3963 C45.3316,71.9613 45.7826,72.4293 46.3486,72.4393 C46.6226,72.4463 46.8816,72.3423 47.0776,72.1523 C47.2756,71.9613 47.3866,71.7063 47.3906,71.4323 C47.4006,70.8673 46.9486,70.3993 46.3846,70.3893 L46.3656,70.3893 M46.3676,73.9393 L46.3226,73.9393 C44.9296,73.9143 43.8176,72.7623 43.8416,71.3703 C43.8536,70.6963 44.1266,70.0663 44.6126,69.5983 C45.0976,69.1293 45.7366,68.8803 46.4106,68.8893 C47.8026,68.9143 48.9146,70.0663 48.8906,71.4583 C48.8796,72.1333 48.6056,72.7623 48.1196,73.2313 C47.6456,73.6883 47.0246,73.9393 46.3676,73.9393" id="Fill-117" fill="#719911" mask="url(#mask-4)"></path>
                <path d="M27.9979,62.5456 C27.6369,62.5456 27.3189,62.2846 27.2589,61.9176 L26.8549,59.4646 C26.7879,59.0556 27.0639,58.6706 27.4729,58.6026 C27.8819,58.5356 28.2679,58.8126 28.3349,59.2206 L28.7389,61.6736 C28.8059,62.0826 28.5289,62.4676 28.1209,62.5356 C28.0789,62.5426 28.0379,62.5456 27.9979,62.5456" id="Fill-118" fill="#354546" mask="url(#mask-4)"></path>
                <path d="M30.9579,62.0583 C30.5969,62.0583 30.2789,61.7973 30.2189,61.4303 L29.8149,58.9773 C29.7479,58.5683 30.0239,58.1823 30.4329,58.1153 C30.8419,58.0473 31.2279,58.3253 31.2949,58.7333 L31.6989,61.1863 C31.7659,61.5953 31.4889,61.9803 31.0809,62.0483 C31.0399,62.0553 30.9989,62.0583 30.9579,62.0583" id="Fill-119" fill="#354546" mask="url(#mask-4)"></path>
                <path d="M48.3021,62.5456 C48.2611,62.5456 48.2201,62.5426 48.1791,62.5356 C47.7701,62.4676 47.4941,62.0826 47.5611,61.6736 L47.9651,59.2206 C48.0321,58.8126 48.4181,58.5356 48.8271,58.6026 C49.2361,58.6706 49.5121,59.0556 49.4451,59.4646 L49.0411,61.9176 C48.9811,62.2846 48.6621,62.5456 48.3021,62.5456" id="Fill-120" fill="#354546" mask="url(#mask-4)"></path>
                <path d="M45.3417,62.0583 C45.3017,62.0583 45.2607,62.0553 45.2187,62.0483 C44.8107,61.9803 44.5337,61.5953 44.6007,61.1863 L45.0047,58.7333 C45.0717,58.3253 45.4577,58.0483 45.8667,58.1153 C46.2757,58.1823 46.5517,58.5683 46.4847,58.9773 L46.0807,61.4303 C46.0207,61.7973 45.7027,62.0583 45.3417,62.0583" id="Fill-121" fill="#354546" mask="url(#mask-4)"></path>
                <polygon id="Fill-122" fill="#A5B5B6" mask="url(#mask-4)" points="25.056 107.86 29.743 107.86 29.743 98.86 25.056 98.86"></polygon>
                <polygon id="Fill-123" fill="#C5D5D6" mask="url(#mask-4)" points="25.056 102.436 29.743 102.436 29.743 98.86 25.056 98.86"></polygon>
                <path d="M25.806,107.11 L28.994,107.11 L28.994,99.61 L25.806,99.61 L25.806,107.11 Z M29.743,108.61 L25.056,108.61 C24.641,108.61 24.306,108.274 24.306,107.86 L24.306,98.86 C24.306,98.445 24.641,98.11 25.056,98.11 L29.743,98.11 C30.157,98.11 30.493,98.445 30.493,98.86 L30.493,107.86 C30.493,108.274 30.157,108.61 29.743,108.61 L29.743,108.61 Z" id="Fill-124" fill="#354546" mask="url(#mask-4)"></path>
                <polygon id="Fill-125" fill="#A5B5B6" mask="url(#mask-4)" points="21.877 106.097 25.062 106.097 25.062 90.197 21.877 90.197"></polygon>
                <path d="M22.627,105.347 L24.312,105.347 L24.312,90.947 L22.627,90.947 L22.627,105.347 Z M25.062,106.847 L21.877,106.847 C21.463,106.847 21.127,106.511 21.127,106.097 L21.127,90.197 C21.127,89.783 21.463,89.447 21.877,89.447 L25.062,89.447 C25.476,89.447 25.812,89.783 25.812,90.197 L25.812,106.097 C25.812,106.511 25.476,106.847 25.062,106.847 L25.062,106.847 Z" id="Fill-126" fill="#354546" mask="url(#mask-4)"></path>
                <path d="M23.5355,84.6843 L23.4035,84.6843 C21.7535,84.6843 20.4035,86.0343 20.4035,87.6843 L20.4035,94.8093 L26.5355,94.8093 L26.5355,87.6843 C26.5355,86.0343 25.1855,84.6843 23.5355,84.6843" id="Fill-127" fill="#A5B5B6" mask="url(#mask-4)"></path>
                <path d="M23.5355,84.6843 L23.4035,84.6843 C21.7535,84.6843 20.4035,86.0343 20.4035,87.6843 L20.4035,90.4223 C20.4035,88.7723 21.7535,87.4223 23.4035,87.4223 L23.5355,87.4223 C25.1855,87.4223 26.5355,88.7723 26.5355,90.4223 L26.5355,87.6843 C26.5355,86.0343 25.1855,84.6843 23.5355,84.6843" id="Fill-128" fill="#C5D5D6" mask="url(#mask-4)"></path>
                <path d="M21.1532,94.0593 L25.7852,94.0593 L25.7852,87.6843 C25.7852,86.4443 24.7762,85.4343 23.5352,85.4343 L23.4032,85.4343 C22.1622,85.4343 21.1532,86.4443 21.1532,87.6843 L21.1532,94.0593 Z M26.5352,95.5593 L20.4032,95.5593 C19.9892,95.5593 19.6532,95.2243 19.6532,94.8093 L19.6532,87.6843 C19.6532,85.6173 21.3352,83.9343 23.4032,83.9343 L23.5352,83.9343 C25.6032,83.9343 27.2852,85.6173 27.2852,87.6843 L27.2852,94.8093 C27.2852,95.2243 26.9502,95.5593 26.5352,95.5593 L26.5352,95.5593 Z" id="Fill-129" fill="#354546" mask="url(#mask-4)"></path>
                <polygon id="Fill-130" fill="#A5B5B6" mask="url(#mask-4)" points="46.181 107.86 50.868 107.86 50.868 98.86 46.181 98.86"></polygon>
                <polygon id="Fill-131" fill="#C5D5D6" mask="url(#mask-4)" points="46.181 102.436 50.868 102.436 50.868 98.86 46.181 98.86"></polygon>
                <path d="M46.931,107.11 L50.118,107.11 L50.118,99.61 L46.931,99.61 L46.931,107.11 Z M50.868,108.61 L46.181,108.61 C45.766,108.61 45.431,108.274 45.431,107.86 L45.431,98.86 C45.431,98.445 45.766,98.11 46.181,98.11 L50.868,98.11 C51.283,98.11 51.618,98.445 51.618,98.86 L51.618,107.86 C51.618,108.274 51.283,108.61 50.868,108.61 L50.868,108.61 Z" id="Fill-132" fill="#354546" mask="url(#mask-4)"></path>
                <polygon id="Fill-133" fill="#A5B5B6" mask="url(#mask-4)" points="50.862 106.097 54.047 106.097 54.047 90.197 50.862 90.197"></polygon>
                <path d="M51.612,105.347 L53.297,105.347 L53.297,90.947 L51.612,90.947 L51.612,105.347 Z M54.047,106.847 L50.862,106.847 C50.448,106.847 50.112,106.511 50.112,106.097 L50.112,90.197 C50.112,89.783 50.448,89.447 50.862,89.447 L54.047,89.447 C54.461,89.447 54.797,89.783 54.797,90.197 L54.797,106.097 C54.797,106.511 54.461,106.847 54.047,106.847 L54.047,106.847 Z" id="Fill-134" fill="#354546" mask="url(#mask-4)"></path>
                <path d="M52.3881,84.6843 L52.5211,84.6843 C54.1711,84.6843 55.5211,86.0343 55.5211,87.6843 L55.5211,94.8093 L49.3881,94.8093 L49.3881,87.6843 C49.3881,86.0343 50.7381,84.6843 52.3881,84.6843" id="Fill-135" fill="#A5B5B6" mask="url(#mask-4)"></path>
                <path d="M52.3881,84.6843 L52.5211,84.6843 C54.1711,84.6843 55.5211,86.0343 55.5211,87.6843 L55.5211,90.4223 C55.5211,88.7723 54.1711,87.4223 52.5211,87.4223 L52.3881,87.4223 C50.7381,87.4223 49.3881,88.7723 49.3881,90.4223 L49.3881,87.6843 C49.3881,86.0343 50.7381,84.6843 52.3881,84.6843" id="Fill-136" fill="#C5D5D6" mask="url(#mask-4)"></path>
                <path d="M50.1381,94.0593 L54.7711,94.0593 L54.7711,87.6843 C54.7711,86.4443 53.7621,85.4343 52.5211,85.4343 L52.3881,85.4343 C51.1481,85.4343 50.1381,86.4443 50.1381,87.6843 L50.1381,94.0593 Z M55.5211,95.5593 L49.3881,95.5593 C48.9741,95.5593 48.6381,95.2243 48.6381,94.8093 L48.6381,87.6843 C48.6381,85.6173 50.3211,83.9343 52.3881,83.9343 L52.5211,83.9343 C54.5891,83.9343 56.2711,85.6173 56.2711,87.6843 L56.2711,94.8093 C56.2711,95.2243 55.9351,95.5593 55.5211,95.5593 L55.5211,95.5593 Z" id="Fill-137" fill="#354546" mask="url(#mask-4)"></path>
                <path d="M46.0433,115.3596 C46.0433,117.0096 44.6933,118.3596 43.0433,118.3596 L32.7433,118.3596 C31.0933,118.3596 29.7433,117.0096 29.7433,115.3596 L29.7433,91.3596 C29.7433,89.7096 31.0933,88.3596 32.7433,88.3596 L43.0433,88.3596 C44.6933,88.3596 46.0433,89.7096 46.0433,91.3596 L46.0433,115.3596 Z" id="Fill-138" fill="#6D6D6D" mask="url(#mask-4)"></path>
                <path d="M43.0433,113.7844 L32.7433,113.7844 C31.4033,113.7844 30.1623,112.8944 29.7433,111.6764 L29.7433,115.3594 C29.7433,117.0094 31.0933,118.3594 32.7433,118.3594 L43.0433,118.3594 C44.6933,118.3594 46.0433,117.0094 46.0433,115.3594 L46.0433,111.6764 C45.6243,112.8944 44.3833,113.7844 43.0433,113.7844" id="Fill-139" fill="#5B5B5B" mask="url(#mask-4)"></path>
                <polygon id="Fill-140" fill="#929292" mask="url(#mask-4)" points="45.9525 101.4098 29.7435 100.0588 29.8335 96.0098 45.9525 96.0098"></polygon>
                <polygon id="Fill-141" fill="#929292" mask="url(#mask-4)" points="45.9525 104.5593 29.8335 105.6633 29.8335 102.9633 45.9525 102.9633"></polygon>
                <path d="M32.743,89.1095 C31.502,89.1095 30.493,90.1185 30.493,91.3595 L30.493,115.3595 C30.493,116.6005 31.502,117.6095 32.743,117.6095 L43.043,117.6095 C44.284,117.6095 45.293,116.6005 45.293,115.3595 L45.293,91.3595 C45.293,90.1185 44.284,89.1095 43.043,89.1095 L32.743,89.1095 Z M43.043,119.1095 L32.743,119.1095 C30.675,119.1095 28.993,117.4275 28.993,115.3595 L28.993,91.3595 C28.993,89.2915 30.675,87.6095 32.743,87.6095 L43.043,87.6095 C45.111,87.6095 46.793,89.2915 46.793,91.3595 L46.793,115.3595 C46.793,117.4275 45.111,119.1095 43.043,119.1095 L43.043,119.1095 Z" id="Fill-142" fill="#121212" mask="url(#mask-4)"></path>
                <path d="M46.08,84.6843 L29.706,84.6843 C27.924,84.6843 26.467,86.0343 26.467,87.6843 L26.467,92.0343 L49.319,92.0343 L49.319,87.6843 C49.319,86.0343 47.862,84.6843 46.08,84.6843" id="Fill-143" fill="#A5B5B6" mask="url(#mask-4)"></path>
                <path d="M46.08,84.6843 L29.706,84.6843 C27.924,84.6843 26.467,86.0343 26.467,87.6843 L49.319,87.6843 C49.319,86.0343 47.862,84.6843 46.08,84.6843" id="Fill-144" fill="#C5D5D6" mask="url(#mask-4)"></path>
                <path d="M27.2167,91.2844 L48.5697,91.2844 L48.5697,87.6844 C48.5697,86.4444 47.4527,85.4344 46.0797,85.4344 L29.7057,85.4344 C28.3337,85.4344 27.2167,86.4444 27.2167,87.6844 L27.2167,91.2844 Z M49.3197,92.7844 L26.4667,92.7844 C26.0527,92.7844 25.7167,92.4494 25.7167,92.0344 L25.7167,87.6844 C25.7167,85.6174 27.5067,83.9344 29.7057,83.9344 L46.0797,83.9344 C48.2797,83.9344 50.0697,85.6174 50.0697,87.6844 L50.0697,92.0344 C50.0697,92.4494 49.7337,92.7844 49.3197,92.7844 L49.3197,92.7844 Z" id="Fill-145" fill="#354546" mask="url(#mask-4)"></path>
                <path d="M33.3929,86.8654 C32.9789,86.8654 32.6429,86.5294 32.6429,86.1154 L32.6429,83.6294 C32.6429,83.2154 32.9789,82.8794 33.3929,82.8794 C33.8079,82.8794 34.1429,83.2154 34.1429,83.6294 L34.1429,86.1154 C34.1429,86.5294 33.8079,86.8654 33.3929,86.8654" id="Fill-146" fill="#354546" mask="url(#mask-4)"></path>
                <path d="M36.3929,86.8654 C35.9789,86.8654 35.6429,86.5294 35.6429,86.1154 L35.6429,83.6294 C35.6429,83.2154 35.9789,82.8794 36.3929,82.8794 C36.8079,82.8794 37.1429,83.2154 37.1429,83.6294 L37.1429,86.1154 C37.1429,86.5294 36.8079,86.8654 36.3929,86.8654" id="Fill-147" fill="#354546" mask="url(#mask-4)"></path>
                <path d="M39.3929,86.8654 C38.9789,86.8654 38.6429,86.5294 38.6429,86.1154 L38.6429,83.6294 C38.6429,83.2154 38.9789,82.8794 39.3929,82.8794 C39.8079,82.8794 40.1429,83.2154 40.1429,83.6294 L40.1429,86.1154 C40.1429,86.5294 39.8079,86.8654 39.3929,86.8654" id="Fill-148" fill="#354546" mask="url(#mask-4)"></path>
                <path d="M42.3929,86.8654 C41.9789,86.8654 41.6429,86.5294 41.6429,86.1154 L41.6429,83.6294 C41.6429,83.2154 41.9789,82.8794 42.3929,82.8794 C42.8079,82.8794 43.1429,83.2154 43.1429,83.6294 L43.1429,86.1154 C43.1429,86.5294 42.8079,86.8654 42.3929,86.8654" id="Fill-149" fill="#354546" mask="url(#mask-4)"></path>
                <path d="M60.2445,21.1115 L60.2125,21.1115 C59.7985,21.0935 59.4765,20.7435 59.4945,20.3295 L59.9235,10.2075 C59.9905,8.4185 59.3485,6.7005 58.1175,5.3755 C56.8865,4.0495 55.2215,3.2835 53.4275,3.2175 C53.4205,3.2165 53.4135,3.2165 53.4065,3.2165 L27.3465,1.5035 C23.6315,1.3725 20.4995,4.2845 20.3625,8.0005 L19.9325,18.8745 C19.9165,19.2885 19.5675,19.6105 19.1535,19.5935 C18.7395,19.5775 18.4175,19.2285 18.4335,18.8155 L18.8635,7.9435 C18.9445,5.7515 19.8805,3.7155 21.4995,2.2115 C23.1185,0.7075 25.2195,-0.0755 27.4115,0.0055 C27.4195,0.0055 27.4265,0.0065 27.4335,0.0065 L53.4945,1.7185 C55.6835,1.8025 57.7155,2.7385 59.2165,4.3545 C60.7205,5.9735 61.5035,8.0735 61.4225,10.2675 L60.9935,20.3935 C60.9755,20.7965 60.6435,21.1115 60.2445,21.1115" id="Fill-150" fill="#354546" mask="url(#mask-4)"></path>
                <path d="M14.9003,19.7629 C13.6063,19.7149 12.4983,21.0249 12.4373,22.6739 L12.0633,32.8079 C12.0023,34.4569 13.0103,35.8449 14.3043,35.8929 C15.5983,35.9409 16.6563,35.9799 16.6563,35.9799 L17.2523,19.8499 C17.2523,19.8499 16.1943,19.8109 14.9003,19.7629" id="Fill-151" fill="#A5B5B6" mask="url(#mask-4)"></path>
                <path d="M12.4374,22.674 L12.2534,27.634 L16.9584,27.808 L17.2524,19.85 C17.2524,19.85 16.1944,19.811 14.9004,19.763 C13.6064,19.715 12.4984,21.025 12.4374,22.674" id="Fill-152" fill="#C5D5D6" mask="url(#mask-4)"></path>
                <path d="M16.6288,36.7292 L14.2768,36.6422 C13.4278,36.6112 12.6238,36.1552 12.0688,35.3922 C11.5458,34.6722 11.2778,33.7452 11.3138,32.7802 L11.6878,22.6462 C11.7238,21.6822 12.0598,20.7772 12.6338,20.0982 C13.2438,19.3772 14.0798,18.9812 14.9278,19.0132 L17.2798,19.1002 C17.6938,19.1162 18.0178,19.4632 18.0018,19.8772 C17.9868,20.2922 17.6358,20.6142 17.2248,20.5992 L14.8728,20.5122 C14.4818,20.4982 14.0938,20.6952 13.7788,21.0662 C13.4258,21.4842 13.2098,22.0802 13.1868,22.7022 L12.8128,32.8352 C12.7898,33.4572 12.9608,34.0672 13.2818,34.5102 C13.5688,34.9042 13.9408,35.1282 14.3318,35.1432 L16.6848,35.2302 L16.6288,36.7292 Z" id="Fill-153" fill="#354546" mask="url(#mask-4)"></path>
                <polygon id="Fill-154" fill="#859596" mask="url(#mask-4)" points="20.9725 38.5383 16.5685 38.3753 17.2925 18.7743 21.6965 18.9373"></polygon>
                <polygon id="Fill-155" fill="#A5B5B6" mask="url(#mask-4)" points="21.2821 30.152 16.8781 29.989 17.2921 18.775 21.6961 18.937"></polygon>
                <path d="M17.3451,37.654 L20.2501,37.761 L20.9191,19.659 L18.0141,19.552 L17.3451,37.654 Z M20.9721,39.288 L20.9451,39.288 L16.5401,39.125 C16.1261,39.11 15.8031,38.762 15.8191,38.348 L16.5431,18.747 C16.5581,18.333 16.9071,18.01 17.3201,18.025 L21.7241,18.188 C21.9231,18.195 22.1111,18.281 22.2461,18.427 C22.3811,18.573 22.4531,18.766 22.4461,18.965 L21.7211,38.566 C21.7141,38.765 21.6281,38.953 21.4831,39.088 C21.3441,39.217 21.1611,39.288 20.9721,39.288 L20.9721,39.288 Z" id="Fill-156" fill="#354546" mask="url(#mask-4)"></path>
                <path d="M12.2543,28.384 L12.2523,28.384 L10.4513,28.38 C10.0373,28.38 9.7023,28.043 9.7033,27.629 C9.7043,27.215 10.0393,26.88 10.4533,26.88 L10.4543,26.88 L12.2553,26.884 C12.6703,26.884 13.0043,27.221 13.0043,27.635 C13.0033,28.049 12.6673,28.384 12.2543,28.384" id="Fill-157" fill="#354546" mask="url(#mask-4)"></path>
                <path d="M67.3285,10.5544 C67.2425,10.5544 67.1555,10.5444 67.0685,10.5214 C66.5065,10.3784 66.1665,9.8074 66.3105,9.2454 L67.0865,6.1964 C67.2295,5.6354 67.8015,5.2954 68.3635,5.4384 C68.9255,5.5814 69.2655,6.1534 69.1215,6.7154 L68.3455,9.7634 C68.2245,10.2384 67.7975,10.5544 67.3285,10.5544" id="Fill-158" fill="#354546" mask="url(#mask-4)"></path>
                <path d="M64.2499,22.3366 C64.1889,22.3366 64.1269,22.3286 64.0639,22.3136 C63.6629,22.2106 63.4209,21.8026 63.5229,21.4006 L66.6009,9.3186 C66.7029,8.9176 67.1119,8.6746 67.5129,8.7776 C67.9149,8.8796 68.1569,9.2886 68.0549,9.6896 L64.9769,21.7716 C64.8899,22.1106 64.5849,22.3366 64.2499,22.3366" id="Fill-159" fill="#354546" mask="url(#mask-4)"></path>
                <path d="M64.2494,21.5861 C65.5434,21.6341 66.5524,23.0221 66.4914,24.6711 L66.1164,34.8051 C66.0564,36.4541 64.9474,37.7641 63.6534,37.7161 C62.3604,37.6681 61.3014,37.6291 61.3014,37.6291 L61.8974,21.4991 C61.8974,21.4991 62.9564,21.5381 64.2494,21.5861" id="Fill-160" fill="#A5B5B6" mask="url(#mask-4)"></path>
                <path d="M66.4911,24.6711 L66.3081,29.6311 L61.6031,29.4571 L61.8971,21.4991 C61.8971,21.4991 62.9561,21.5381 64.2491,21.5861 C65.5431,21.6341 66.5521,23.0221 66.4911,24.6711" id="Fill-161" fill="#C5D5D6" mask="url(#mask-4)"></path>
                <path d="M63.7201,38.467 C63.6891,38.467 63.6571,38.467 63.6261,38.466 L61.2741,38.379 L61.3291,36.88 L63.6811,36.967 C64.0691,36.98 64.4601,36.784 64.7751,36.412 C65.1281,35.994 65.3441,35.399 65.3671,34.777 L65.7411,24.643 C65.7641,24.022 65.5931,23.412 65.2711,22.969 C64.9851,22.575 64.6131,22.35 64.2221,22.336 L61.8691,22.249 L61.9251,20.75 L64.2771,20.837 C65.1251,20.868 65.9301,21.324 66.4851,22.088 C67.0081,22.807 67.2761,23.734 67.2411,24.699 L66.8661,34.833 C66.8301,35.797 66.4941,36.702 65.9201,37.381 C65.3331,38.075 64.5361,38.467 63.7201,38.467" id="Fill-162" fill="#354546" mask="url(#mask-4)"></path>
                <polygon id="Fill-163" fill="#859596" mask="url(#mask-4)" points="56.8085 39.8625 61.2125 40.0255 61.9365 20.4245 57.5335 20.2615"></polygon>
                <polygon id="Fill-164" fill="#A5B5B6" mask="url(#mask-4)" points="57.1185 31.4758 61.5225 31.6388 61.9365 20.4238 57.5335 20.2618"></polygon>
                <path d="M57.5858,39.1408 L60.4908,39.2478 L61.1598,21.1458 L58.2548,21.0378 L57.5858,39.1408 Z M61.2138,40.7748 L61.1858,40.7748 L56.7808,40.6118 C56.5828,40.6048 56.3948,40.5188 56.2588,40.3728 C56.1238,40.2268 56.0518,40.0338 56.0588,39.8348 L56.7838,20.2338 C56.7908,20.0348 56.8768,19.8468 57.0228,19.7118 C57.1688,19.5768 57.3628,19.5038 57.5608,19.5118 L61.9648,19.6748 C62.3788,19.6898 62.7018,20.0378 62.6868,20.4518 L61.9618,40.0528 C61.9478,40.4568 61.6148,40.7748 61.2138,40.7748 L61.2138,40.7748 Z" id="Fill-165" fill="#354546" mask="url(#mask-4)"></path>
                <path d="M68.1054,30.5104 C68.0864,30.5104 68.0684,30.5094 68.0504,30.5084 L66.2544,30.3794 C65.8404,30.3494 65.5304,29.9904 65.5604,29.5774 C65.5894,29.1634 65.9494,28.8544 66.3614,28.8834 L68.1584,29.0124 C68.5714,29.0424 68.8824,29.4014 68.8524,29.8144 C68.8244,30.2084 68.4954,30.5104 68.1054,30.5104" id="Fill-166" fill="#354546" mask="url(#mask-4)"></path>
                <path d="M20.9042,44.676 C19.8782,44.676 17.2692,45.79 16.1642,47.05 C15.2252,48.12 15.0742,49.906 15.8352,50.95 C16.1462,51.378 16.5562,51.614 17.0202,51.635 C17.5532,51.659 18.1092,51.385 18.5502,50.884 C19.0822,50.277 19.9952,48.896 20.6392,47.534 C21.4722,45.773 21.4402,44.962 21.3072,44.779 C21.2662,44.723 21.1372,44.685 20.9622,44.677 C20.9442,44.676 20.9242,44.676 20.9042,44.676 M17.0852,53.137 C17.0412,53.137 16.9972,53.136 16.9522,53.134 C16.0302,53.092 15.2032,52.63 14.6232,51.834 C13.4402,50.21 13.6212,47.674 15.0362,46.061 C16.0832,44.868 19.1282,43.092 21.0302,43.179 C21.8572,43.216 22.2962,43.589 22.5192,43.896 C23.1312,44.736 22.9602,46.135 21.9952,48.176 C21.2862,49.677 20.2922,51.172 19.6772,51.873 C18.9682,52.681 18.0292,53.137 17.0852,53.137" id="Fill-167" fill="#19B5FE" mask="url(#mask-4)"></path>
                <path d="M53.8109,42.633 L53.8119,42.633 L53.8109,42.633 Z M55.3339,42.898 C54.8759,42.898 54.5219,42.973 54.3549,43.15 C54.2299,43.281 54.2369,43.542 54.2639,43.737 C54.4359,44.975 55.7779,46.728 56.5299,47.172 C57.4889,47.739 59.0499,47.428 59.9389,46.493 C60.3649,46.045 60.5719,45.518 60.5069,45.049 C60.4549,44.675 60.2339,44.362 59.8679,44.146 C58.8029,43.516 56.6439,42.898 55.3339,42.898 L55.3339,42.898 Z M57.6759,48.959 C56.9949,48.959 56.3319,48.798 55.7669,48.463 C54.6019,47.775 53.0099,45.605 52.7779,43.944 C52.6459,42.998 52.9719,42.428 53.2679,42.116 C54.8939,40.405 59.5809,42.233 60.6319,42.855 C61.3939,43.305 61.8769,44.011 61.9919,44.842 C62.1209,45.766 61.7689,46.745 61.0269,47.527 C60.1439,48.455 58.8819,48.958 57.6759,48.959 L57.6759,48.959 Z" id="Fill-168" fill="#19B5FE" mask="url(#mask-4)"></path>
                <path d="M14.536,41.7385 C14.124,41.7385 13.77,41.7705 13.509,41.8345 C11.89,42.2325 10.813,44.0835 11.108,45.9605 C11.258,46.9115 11.75,47.7275 12.458,48.1985 C13.049,48.5925 13.75,48.7165 14.434,48.5485 C15.331,48.3275 17.049,47.5815 18.465,46.6325 C19.936,45.6465 20.753,44.6725 20.652,44.0255 C20.592,43.6415 20.19,43.3025 19.864,43.0865 C18.536,42.2025 16.112,41.7385 14.536,41.7385 M13.831,50.1215 C13.055,50.1215 12.296,49.8925 11.627,49.4475 C10.57,48.7445 9.841,47.5585 9.626,46.1935 C9.214,43.5655 10.795,40.9565 13.151,40.3775 C14.91,39.9455 18.736,40.5335 20.695,41.8375 C21.533,42.3945 22.017,43.0525 22.134,43.7935 C22.599,46.7595 16.723,49.5305 14.792,50.0045 C14.473,50.0835 14.15,50.1215 13.831,50.1215" id="Fill-169" fill="#719911" mask="url(#mask-4)"></path>
                <path d="M56.4574,47.3093 C56.3054,51.4323 52.8054,54.7903 48.6804,54.7733 L27.0614,54.6833 C22.9364,54.6663 19.8234,51.2873 20.1444,47.1753 L22.5324,13.3283 C22.8534,9.2163 26.4784,6.1353 30.5894,6.4823 L50.3574,8.1533 C54.4684,8.5003 57.7064,12.1573 57.5544,16.2793 L56.4574,47.3093 Z" id="Fill-170" fill="#A5B5B6" mask="url(#mask-4)"></path>
                <path d="M53.0321,41.0153 C52.9201,44.0473 50.1171,46.5083 46.8031,46.4853 L29.4321,46.3653 C26.1171,46.3423 23.6081,43.8493 23.8561,40.8253 L25.6921,16.9293 C25.9401,13.9053 28.8451,11.6493 32.1491,11.9143 L48.0361,13.1933 C51.3401,13.4593 53.9501,16.1573 53.8391,19.1883 L53.0321,41.0153 Z" id="Fill-171" fill="#C5D5D6" mask="url(#mask-4)"></path>
                <path d="M50.2543,51.4343 L26.7603,51.2753 C23.8453,51.2553 21.3923,49.8143 20.1243,47.6783 C20.0843,51.5593 23.1063,54.6663 27.0613,54.6833 L48.6803,54.7733 C52.1403,54.7873 55.1583,52.4273 56.1323,49.2343 C54.6013,50.6043 52.5163,51.4503 50.2543,51.4343" id="Fill-172" fill="#859596" mask="url(#mask-4)"></path>
                <path d="M50.3158,52.1847 L50.2498,52.1847 L26.7558,52.0257 C23.6598,52.0047 20.9408,50.5227 19.4798,48.0607 C19.2678,47.7047 19.3858,47.2447 19.7418,47.0337 C20.0978,46.8217 20.5578,46.9387 20.7698,47.2957 C21.9598,49.3007 24.2008,50.5077 26.7658,50.5257 L50.2598,50.6847 C52.2598,50.7027 54.1698,49.9847 55.6318,48.6747 C55.9408,48.3987 56.4158,48.4247 56.6908,48.7337 C56.9678,49.0427 56.9408,49.5167 56.6328,49.7927 C54.9078,51.3367 52.6668,52.1847 50.3158,52.1847" id="Fill-173" fill="#354546" mask="url(#mask-4)"></path>
                <path d="M56.4574,47.3093 L56.4594,47.3093 L56.4574,47.3093 Z M29.9534,7.2053 C28.3694,7.2053 26.8514,7.7633 25.6254,8.8043 C24.2524,9.9713 23.4194,11.5983 23.2804,13.3873 L20.8934,47.2273 C20.7534,49.0123 21.3204,50.6893 22.4874,51.9563 C23.6544,53.2243 25.2804,53.9263 27.0644,53.9333 L48.6844,54.0233 L48.7124,54.0233 C52.4354,54.0233 55.5694,51.0053 55.7074,47.2833 L56.8044,16.2533 C56.9424,12.5133 54.0224,9.2153 50.2944,8.9003 L30.5254,7.2303 C30.3344,7.2133 30.1434,7.2053 29.9534,7.2053 L29.9534,7.2053 Z M48.7124,55.5233 L48.6774,55.5233 L27.0584,55.4333 C24.8524,55.4243 22.8374,54.5503 21.3844,52.9733 C19.9314,51.3953 19.2254,49.3153 19.3964,47.1163 L21.7844,13.2753 C21.9554,11.0803 22.9744,9.0883 24.6544,7.6613 C26.3334,6.2343 28.4634,5.5503 30.6524,5.7353 L50.4204,7.4063 C54.9344,7.7873 58.4704,11.7803 58.3034,16.3073 L57.2074,47.3363 L57.2074,47.3373 C57.0404,51.8583 53.2324,55.5233 48.7124,55.5233 L48.7124,55.5233 Z" id="Fill-174" fill="#354546" mask="url(#mask-4)"></path>
                <path d="M39.931,16.2951 C35.823,16.2951 30.927,15.0341 30.927,9.0241 C30.927,8.0801 31.049,7.4541 31.288,6.5611 C31.396,6.1611 31.807,5.9241 32.207,6.0311 C32.607,6.1391 32.845,6.5501 32.737,6.9501 C32.522,7.7491 32.427,8.2381 32.427,9.0241 C32.427,10.4511 32.427,14.7951 39.931,14.7951 C47.468,14.7951 47.468,10.4511 47.468,9.0241 C47.468,8.7051 47.451,8.3851 47.419,8.0711 C47.376,7.6591 47.676,7.2911 48.088,7.2481 C48.5,7.2061 48.869,7.5051 48.911,7.9171 C48.949,8.2821 48.968,8.6541 48.968,9.0241 C48.968,12.3411 47.4,16.2951 39.931,16.2951" id="Fill-175" fill="#354546" mask="url(#mask-4)"></path>
                <path d="M35.1483,25.9421 C34.9833,30.4121 31.2253,33.9021 26.7543,33.7371 C22.2843,33.5721 18.7943,29.8151 18.9593,25.3441 C19.1243,20.8741 22.8823,17.3831 27.3533,17.5481 C31.8233,17.7131 35.3143,21.4711 35.1483,25.9421" id="Fill-176" fill="#C5D5D6" mask="url(#mask-4)"></path>
                <path d="M27.0502,18.2931 C23.1212,18.2931 19.8552,21.4131 19.7092,25.3721 C19.5592,29.4211 22.7322,32.8381 26.7822,32.9881 C28.7442,33.0611 30.6172,32.3651 32.0552,31.0281 C33.4942,29.6921 34.3262,27.8761 34.3992,25.9141 C34.4712,23.9521 33.7752,22.0801 32.4392,20.6411 C31.1032,19.2031 29.2872,18.3711 27.3252,18.2981 C27.2342,18.2941 27.1412,18.2931 27.0502,18.2931 M27.0622,34.4931 C26.9502,34.4931 26.8392,34.4911 26.7272,34.4871 C21.8502,34.3071 18.0292,30.1931 18.2102,25.3161 C18.3902,20.4391 22.5062,16.6201 27.3812,16.7991 C29.7432,16.8861 31.9302,17.8881 33.5382,19.6201 C35.1472,21.3531 35.9852,23.6071 35.8982,25.9701 L35.1482,25.9421 L35.8982,25.9701 C35.8102,28.3321 34.8082,30.5191 33.0762,32.1271 C31.4262,33.6601 29.3022,34.4931 27.0622,34.4931" id="Fill-177" fill="#354546" mask="url(#mask-4)"></path>
                <path d="M32.2733,25.8361 C32.1663,28.7181 29.7433,30.9691 26.8613,30.8621 C23.9783,30.7551 21.7283,28.3331 21.8353,25.4501 C21.9413,22.5671 24.3643,20.3171 27.2463,20.4241 C30.1293,20.5301 32.3793,22.9531 32.2733,25.8361" id="Fill-178" fill="#9ABD45" mask="url(#mask-4)"></path>
                <path d="M30.3544,24.2341 C30.2884,26.0261 28.7824,27.4241 26.9904,27.3591 C25.1984,27.2921 23.8004,25.7861 23.8664,23.9941 C23.9324,22.2031 25.4384,20.8041 27.2304,20.8701 C29.0214,20.9361 30.4204,22.4421 30.3544,24.2341" id="Fill-179" fill="#CEEC87" mask="url(#mask-4)"></path>
                <path d="M27.0497,21.1701 C25.9177,21.1701 24.8437,21.5911 24.0097,22.3661 C23.1347,23.1791 22.6287,24.2841 22.5847,25.4781 C22.4927,27.9421 24.4247,30.0221 26.8887,30.1131 C29.3537,30.2051 31.4327,28.2731 31.5237,25.8081 C31.5677,24.6141 31.1447,23.4751 30.3317,22.5991 C29.5187,21.7241 28.4127,21.2171 27.2187,21.1731 C27.1627,21.1711 27.1057,21.1701 27.0497,21.1701 M27.0567,31.6161 C26.9827,31.6161 26.9077,31.6141 26.8337,31.6111 C23.5427,31.4901 20.9637,28.7131 21.0857,25.4221 C21.1437,23.8281 21.8207,22.3521 22.9887,21.2671 C24.1577,20.1811 25.6807,19.6161 27.2747,19.6741 C28.8687,19.7331 30.3447,20.4091 31.4307,21.5781 C32.5157,22.7481 33.0817,24.2691 33.0227,25.8631 L32.2737,25.8361 L33.0227,25.8631 C32.9037,29.0801 30.2497,31.6161 27.0567,31.6161" id="Fill-180" fill="#354546" mask="url(#mask-4)"></path>
                <path d="M28.3998,22.1686 C28.7318,22.9106 27.6938,23.5436 26.3368,24.1516 C24.9788,24.7596 23.8148,25.1106 23.4828,24.3696 C23.1508,23.6276 23.9828,22.5336 25.3398,21.9256 C26.6978,21.3176 28.0678,21.4266 28.3998,22.1686" id="Fill-181" fill="#FFFFFF" mask="url(#mask-4)"></path>
                <path d="M27.4628,29.3493 C27.3768,29.1563 27.6458,28.9923 27.9988,28.8343 C28.3508,28.6773 28.6528,28.5853 28.7388,28.7783 C28.8248,28.9703 28.6088,29.2543 28.2568,29.4123 C27.9048,29.5703 27.5488,29.5413 27.4628,29.3493" id="Fill-182" fill="#FFFFFF" mask="url(#mask-4)"></path>
                <path d="M31.8568,25.7819 C31.8318,26.4619 31.2598,26.9929 30.5798,26.9689 C29.8988,26.9429 29.3678,26.3709 29.3928,25.6909 C29.4178,25.0109 29.9898,24.4789 30.6698,24.5039 C31.3508,24.5289 31.8818,25.1009 31.8568,25.7819" id="Fill-183" fill="#354546" mask="url(#mask-4)"></path>
                <path d="M57.9867,27.2892 C57.8467,31.0782 54.6627,32.3852 50.8737,32.2452 C47.0857,32.1052 44.1287,30.5712 44.2687,26.7822 C44.4077,22.9942 47.5927,20.0372 51.3807,20.1772 C55.1697,20.3162 58.1267,23.5012 57.9867,27.2892" id="Fill-184" fill="#C5D5D6" mask="url(#mask-4)"></path>
                <path d="M51.1219,20.922 C49.5749,20.922 48.1069,21.497 46.9669,22.556 C45.7699,23.668 45.0779,25.178 45.0179,26.81 C44.8819,30.498 48.1429,31.394 50.9019,31.496 C56.0019,31.684 57.1619,29.297 57.2369,27.262 C57.3619,23.893 54.7219,21.051 51.3529,20.926 C51.2759,20.923 51.1989,20.922 51.1219,20.922 M51.4249,33.005 C51.2349,33.005 51.0419,33.002 50.8469,32.995 C48.6589,32.914 46.9119,32.407 45.6549,31.487 C44.1829,30.41 43.4439,28.774 43.5189,26.755 C43.5939,24.723 44.4559,22.841 45.9459,21.457 C47.4359,20.073 49.3769,19.352 51.4089,19.427 C55.6039,19.582 58.8909,23.122 58.7359,27.317 C58.6019,30.953 55.9479,33.005 51.4249,33.005" id="Fill-185" fill="#354546" mask="url(#mask-4)"></path>
                <path d="M55.5502,27.1994 C55.4602,29.6414 53.4062,29.8994 50.9642,29.8084 C48.5212,29.7184 46.6142,29.3154 46.7052,26.8724 C46.7952,24.4294 48.8482,22.5234 51.2912,22.6134 C53.7332,22.7034 55.6402,24.7574 55.5502,27.1994" id="Fill-186" fill="#19B5FE" mask="url(#mask-4)"></path>
                <path d="M53.8768,25.6667 C53.8208,27.1857 52.6458,27.7487 51.1268,27.6927 C49.6088,27.6367 48.3218,26.9817 48.3778,25.4637 C48.4348,23.9457 49.7108,22.7597 51.2288,22.8157 C52.7478,22.8727 53.9328,24.1487 53.8768,25.6667" id="Fill-187" fill="#39D5FF" mask="url(#mask-4)"></path>
                <path d="M51.1259,23.36 C49.1609,23.36 47.5279,24.921 47.4549,26.9 C47.3969,28.453 48.2239,28.957 50.9919,29.059 C51.9219,29.094 53.0869,29.091 53.8419,28.765 C54.2939,28.57 54.7619,28.228 54.8009,27.172 C54.8369,26.191 54.4889,25.254 53.8209,24.534 C53.1529,23.815 52.2449,23.399 51.2629,23.363 C51.2169,23.361 51.1709,23.36 51.1259,23.36 M51.7059,30.574 C51.4449,30.574 51.1869,30.568 50.9369,30.558 C49.2769,30.497 45.8249,30.369 45.9559,26.845 C46.0609,23.993 48.4669,21.755 51.3189,21.864 C52.6999,21.915 53.9789,22.501 54.9199,23.514 C55.8609,24.527 56.3509,25.845 56.2999,27.227 C56.2469,28.651 55.6199,29.631 54.4369,30.142 C53.6339,30.489 52.6499,30.574 51.7059,30.574" id="Fill-188" fill="#354546" mask="url(#mask-4)"></path>
                <path d="M52.2679,24.092 C52.5489,24.72 51.6699,25.258 50.5189,25.773 C49.3689,26.287 48.3829,26.585 48.1009,25.957 C47.8199,25.328 48.5249,24.401 49.6749,23.886 C50.8259,23.371 51.9869,23.463 52.2679,24.092" id="Fill-189" fill="#FFFFFF" mask="url(#mask-4)"></path>
                <path d="M52.5853,28.5861 C52.5123,28.4231 52.7403,28.2841 53.0393,28.1501 C53.3373,28.0161 53.5933,27.9391 53.6663,28.1021 C53.7393,28.2651 53.5563,28.5061 53.2583,28.6401 C52.9593,28.7731 52.6583,28.7501 52.5853,28.5861" id="Fill-190" fill="#FFFFFF" mask="url(#mask-4)"></path>
                <path d="M49.2108,27.0041 C49.1898,27.5811 48.7048,28.0311 48.1278,28.0091 C47.5508,27.9881 47.1008,27.5041 47.1228,26.9271 C47.1438,26.3501 47.6278,25.9001 48.2048,25.9211 C48.7818,25.9421 49.2318,26.4271 49.2108,27.0041" id="Fill-191" fill="#354546" mask="url(#mask-4)"></path>
                <path d="M27.1898,40.6374 L49.9358,35.5554 C49.9358,35.5554 51.2138,42.5614 45.6828,44.6064 C35.9398,48.2074 27.1898,40.6374 27.1898,40.6374" id="Fill-192" fill="#FFFFFF" mask="url(#mask-4)"></path>
                <path d="M27.1898,40.6374 L27.1908,40.6374 L27.1898,40.6374 Z M28.9428,41.0144 C29.8958,41.6674 31.3408,42.5514 33.1178,43.2994 C37.4408,45.1194 41.5808,45.3234 45.4218,43.9034 C49.2748,42.4794 49.4058,38.2324 49.2838,36.4694 L28.9428,41.0144 Z M40.2328,46.3204 C37.7068,46.3204 35.0958,45.7664 32.4898,44.6624 C29.0158,43.1914 26.7918,41.2844 26.6988,41.2044 C26.4848,41.0194 26.3938,40.7284 26.4618,40.4544 C26.5318,40.1794 26.7498,39.9674 27.0258,39.9054 L49.7718,34.8234 C49.9708,34.7784 50.1798,34.8174 50.3498,34.9294 C50.5198,35.0424 50.6368,35.2204 50.6728,35.4204 C50.6868,35.4974 51.0128,37.3324 50.6208,39.4504 C50.0838,42.3514 48.4658,44.3774 45.9418,45.3094 C44.1188,45.9844 42.2008,46.3204 40.2328,46.3204 L40.2328,46.3204 Z" id="Fill-193" fill="#354546" mask="url(#mask-4)"></path>
                <path d="M33.6146,45.0549 C33.2396,45.0549 32.9156,44.7739 32.8706,44.3919 L32.2856,39.4199 C32.2376,39.0089 32.5316,38.6359 32.9436,38.5879 C33.3536,38.5379 33.7266,38.8329 33.7756,39.2449 L34.3606,44.2169 C34.4086,44.6289 34.1146,45.0009 33.7026,45.0499 C33.6736,45.0539 33.6436,45.0549 33.6146,45.0549" id="Fill-194" fill="#354546" mask="url(#mask-4)"></path>
                <path d="M39.0648,46.0641 C38.6628,46.0641 38.3298,45.7451 38.3158,45.3401 L38.0608,38.0671 C38.0458,37.6531 38.3698,37.3061 38.7838,37.2921 C39.1978,37.2771 39.5448,37.6011 39.5598,38.0151 L39.8148,45.2881 C39.8298,45.7021 39.5058,46.0491 39.0918,46.0641 L39.0648,46.0641" id="Fill-195" fill="#354546" mask="url(#mask-4)"></path>
                <path d="M44.6322,45.3566 C44.2212,45.3566 43.8862,45.0256 43.8822,44.6146 L43.7992,36.7666 C43.7942,36.3526 44.1262,36.0136 44.5402,36.0086 C44.9562,35.9986 45.2942,36.3366 45.2992,36.7506 L45.3822,44.5986 C45.3862,45.0126 45.0542,45.3526 44.6402,45.3566 L44.6322,45.3566 Z" id="Fill-196" fill="#354546" mask="url(#mask-4)"></path>
            </g>
        </g>
    </g>
</svg>