<?xml version="1.0" encoding="UTF-8"?>
<svg width="89px" height="122px" viewBox="0 0 89 122" version="1.1" xmlns="http://www.w3.org/2000/svg" xmlns:xlink="http://www.w3.org/1999/xlink">
    <!-- Generator: Sketch 42 (36781) - http://www.bohemiancoding.com/sketch -->
    <title>30</title>
    <desc>Created with Sketch.</desc>
    <defs>
        <polygon id="path-1" points="63.5315 8 0.2645 8 0.2645 0.3777 63.5315 0.3777"></polygon>
        <polygon id="path-3" points="0 122.041 88.024 122.041 88.024 0 0 0"></polygon>
    </defs>
    <g id="Page-1" stroke="none" stroke-width="1" fill="none" fill-rule="evenodd">
        <g id="1024">
            <g id="30">
                <g id="Group-3" transform="translate(18.000000, 114.041000)">
                    <mask id="mask-2" fill="white">
                        <use xlink:href="#path-1"></use>
                    </mask>
                    <g id="Clip-2"></g>
                    <path d="M63.5315,4.1887 C63.5315,6.2937 49.3685,8.0007 31.8985,8.0007 C14.4275,8.0007 0.2645,6.2937 0.2645,4.1887 C0.2645,2.0847 14.4275,0.3777 31.8985,0.3777 C49.3685,0.3777 63.5315,2.0847 63.5315,4.1887" id="Fill-1" fill="#CCCCCC" mask="url(#mask-2)"></path>
                </g>
                <mask id="mask-4" fill="white">
                    <use xlink:href="#path-3"></use>
                </mask>
                <g id="Clip-5"></g>
                <polygon id="Fill-4" fill="#758586" mask="url(#mask-4)" points="41.516 87.554 57.635 87.554 57.635 75.948 41.516 75.948"></polygon>
                <path d="M42.265,86.804 L56.884,86.804 L56.884,76.698 L42.265,76.698 L42.265,86.804 Z M57.635,88.304 L41.515,88.304 C41.101,88.304 40.765,87.968 40.765,87.554 L40.765,75.948 C40.765,75.534 41.101,75.198 41.515,75.198 L57.635,75.198 C58.049,75.198 58.385,75.534 58.385,75.948 L58.385,87.554 C58.385,87.968 58.049,88.304 57.635,88.304 L57.635,88.304 Z" id="Fill-6" fill="#354546" mask="url(#mask-4)"></path>
                <polygon id="Fill-7" fill="#758586" mask="url(#mask-4)" points="45.175 61.398 54.518 61.398 54.518 52.895 45.175 52.895"></polygon>
                <path d="M45.926,60.648 L53.769,60.648 L53.769,53.645 L45.926,53.645 L45.926,60.648 Z M54.518,62.148 L45.176,62.148 C44.761,62.148 44.426,61.812 44.426,61.398 L44.426,52.895 C44.426,52.481 44.761,52.145 45.176,52.145 L54.518,52.145 C54.932,52.145 55.268,52.481 55.268,52.895 L55.268,61.398 C55.268,61.812 54.932,62.148 54.518,62.148 L54.518,62.148 Z" id="Fill-8" fill="#354546" mask="url(#mask-4)"></path>
                <path d="M54.5188,58.3981 C54.5048,58.3981 54.4918,58.3981 54.4778,58.3971 L45.1358,57.8951 C44.7218,57.8731 44.4048,57.5201 44.4268,57.1061 C44.4488,56.6921 44.8038,56.3761 45.2158,56.3981 L54.5588,56.8991 C54.9718,56.9211 55.2898,57.2741 55.2678,57.6881 C55.2458,58.0881 54.9148,58.3981 54.5188,58.3981" id="Fill-9" fill="#354546" mask="url(#mask-4)"></path>
                <path d="M67.7244,66.5803 C66.2414,67.0463 64.7434,67.5373 63.1194,67.9553 L61.9564,63.3823 C63.3504,63.0243 64.8164,62.5493 66.3034,62.0803 L67.7244,66.5803 Z" id="Fill-10" fill="#F9BF3B" mask="url(#mask-4)"></path>
                <path d="M62.1433,64.1081 L61.7703,62.6551 C62.9663,62.3481 64.2023,61.9581 65.5103,61.5451 L66.0783,61.3651 L66.5283,62.7961 L65.9623,62.9751 C64.6333,63.3951 63.3793,63.7911 62.1433,64.1081" id="Fill-11" fill="#F1892D" mask="url(#mask-4)"></path>
                <path d="M63.3064,68.6814 L62.9314,67.2284 C64.2834,66.8804 65.5654,66.4754 66.8044,66.0844 L67.5004,65.8644 L67.9494,67.2964 L67.2564,67.5144 C65.9984,67.9114 64.6974,68.3234 63.3064,68.6814" id="Fill-12" fill="#F1892D" mask="url(#mask-4)"></path>
                <polygon id="Fill-13" fill="#F1892D" mask="url(#mask-4)" points="64.7566 67.5041 63.3786 62.9911 64.8126 62.5531 66.1916 67.0661"></polygon>
                <path d="M72.093,65.2829 C70.656,65.6609 69.204,66.1129 67.724,66.5799 L66.303,62.0809 C67.794,61.6099 69.317,61.1349 70.893,60.7199 L72.093,65.2829 Z" id="Fill-14" fill="#F9BF3B" mask="url(#mask-4)"></path>
                <path d="M66.5295,62.7961 L66.0775,61.3661 C67.6165,60.8791 69.1285,60.4091 70.7015,59.9941 L71.0835,61.4451 C69.5425,61.8511 68.0505,62.3161 66.5295,62.7961" id="Fill-15" fill="#F1892D" mask="url(#mask-4)"></path>
                <path d="M67.9504,67.2956 L67.4984,65.8656 C68.9194,65.4166 70.4294,64.9456 71.9024,64.5576 L72.2834,66.0076 C70.8444,66.3876 69.3534,66.8516 67.9504,67.2956" id="Fill-16" fill="#F1892D" mask="url(#mask-4)"></path>
                <polygon id="Fill-17" fill="#F1892D" mask="url(#mask-4)" points="69.2063 66.114 67.8483 61.595 69.2843 61.163 70.6433 65.682"></polygon>
                <path d="M76.3132,64.4597 C74.9522,64.5997 73.5282,64.9047 72.0932,65.2827 L70.8932,60.7197 C72.4692,60.3067 74.0982,59.9457 75.8372,59.7657 L76.3132,64.4597 Z" id="Fill-18" fill="#F9BF3B" mask="url(#mask-4)"></path>
                <path d="M71.0828,61.445 L70.7028,59.994 C72.0278,59.647 73.8008,59.222 75.7598,59.019 L75.9148,60.511 C74.0568,60.704 72.3568,61.112 71.0828,61.445" id="Fill-19" fill="#F1892D" mask="url(#mask-4)"></path>
                <path d="M72.2839,66.008 L71.9019,64.557 C73.5989,64.111 74.9769,63.842 76.2369,63.714 L76.3899,65.206 C75.2089,65.327 73.9039,65.582 72.2839,66.008" id="Fill-20" fill="#F1892D" mask="url(#mask-4)"></path>
                <polygon id="Fill-21" fill="#F1892D" mask="url(#mask-4)" points="73.4954 64.9294 72.5684 60.3034 74.0394 60.0084 74.9664 64.6354"></polygon>
                <path d="M79.946,64.6989 C78.973,64.3649 77.667,64.3189 76.313,64.4599 L75.837,59.7649 C76.707,59.6769 77.607,59.6379 78.544,59.6899 C79.481,59.7479 80.461,59.8909 81.453,60.2269 L79.946,64.6989 Z" id="Fill-22" fill="#F9BF3B" mask="url(#mask-4)"></path>
                <path d="M81.2122,60.9377 C80.3952,60.6607 79.5332,60.5027 78.4982,60.4387 C77.6852,60.3937 76.8372,60.4167 75.9132,60.5117 L75.7612,59.0197 C76.7652,58.9167 77.6892,58.8917 78.5862,58.9417 C79.7452,59.0127 80.7602,59.2007 81.6932,59.5177 L81.2122,60.9377 Z" id="Fill-23" fill="#F1892D" mask="url(#mask-4)"></path>
                <path d="M79.7029,65.4084 C78.9029,65.1344 77.7579,65.0634 76.3909,65.2054 L76.2359,63.7144 C77.3389,63.5994 78.9199,63.5544 80.1899,63.9894 L79.7029,65.4084 Z" id="Fill-24" fill="#F1892D" mask="url(#mask-4)"></path>
                <polygon id="Fill-25" fill="#F1892D" mask="url(#mask-4)" points="79.0208 64.444 77.5228 64.358 77.7958 59.647 79.2928 59.734"></polygon>
                <path d="M82.0056,66.508 C81.5306,65.571 80.9226,65.035 79.9456,64.699 L81.4526,60.227 C82.4406,60.558 83.4386,61.091 84.2766,61.832 C85.1136,62.57 85.7776,63.479 86.2306,64.407 L82.0056,66.508 Z" id="Fill-26" fill="#F9BF3B" mask="url(#mask-4)"></path>
                <path d="M85.5564,64.736 C85.1214,63.845 84.5084,63.035 83.7804,62.395 C83.0704,61.766 82.1834,61.263 81.2144,60.939 L81.6914,59.516 C82.8494,59.904 83.9154,60.511 84.7734,61.27 C85.6464,62.04 86.3844,63.011 86.9044,64.078 L85.5564,64.736 Z" id="Fill-27" fill="#F1892D" mask="url(#mask-4)"></path>
                <path d="M81.3367,66.8469 C80.9497,66.0829 80.4917,65.6799 79.7027,65.4089 L80.1907,63.9899 C81.3467,64.3879 82.1127,65.0599 82.6747,66.1699 L81.3367,66.8469 Z" id="Fill-28" fill="#F1892D" mask="url(#mask-4)"></path>
                <polygon id="Fill-29" fill="#F1892D" mask="url(#mask-4)" points="81.7273 65.8728 80.6003 64.8838 83.7123 61.3368 84.8403 62.3268"></polygon>
                <path d="M82.5007,69.6994 C82.5737,69.1214 82.5757,68.5644 82.4917,68.0354 C82.4767,67.9014 82.4407,67.7734 82.4177,67.6424 C82.3797,67.5144 82.3547,67.3834 82.3077,67.2584 C82.2717,67.1334 82.2197,67.0034 82.1697,66.8724 C82.1467,66.8074 82.1157,66.7494 82.0897,66.6874 C82.0637,66.6244 82.0367,66.5644 82.0057,66.5084 L86.2307,64.4074 C86.2907,64.5234 86.3457,64.6394 86.3957,64.7564 C86.4457,64.8724 86.5007,64.9904 86.5457,65.1064 C86.6367,65.3394 86.7267,65.5734 86.8027,65.8204 C86.8857,66.0624 86.9447,66.3134 87.0097,66.5604 C87.0617,66.8114 87.1217,67.0614 87.1547,67.3144 C87.3137,68.3244 87.3037,69.3404 87.1807,70.3064 L82.5007,69.6994 Z" id="Fill-30" fill="#F9BF3B" mask="url(#mask-4)"></path>
                <path d="M87.9241,70.4021 L86.4361,70.2111 C86.5601,69.2451 86.5521,68.3101 86.4131,67.4311 L86.4111,67.4121 C86.3891,67.2461 86.3521,67.0701 86.3121,66.8851 L86.2411,66.5841 C86.1941,66.4001 86.1491,66.2261 86.0931,66.0651 L86.0851,66.0401 C86.0171,65.8181 85.9341,65.6011 85.8471,65.3801 C85.8191,65.3061 85.7891,65.2391 85.7581,65.1711 L85.7071,65.0531 C85.6601,64.9451 85.6141,64.8471 85.5651,64.7541 L86.8961,64.0611 C86.9621,64.1891 87.0241,64.3191 87.0851,64.4611 L87.1291,64.5621 C87.1701,64.6541 87.2111,64.7471 87.2461,64.8401 C87.3361,65.0691 87.4331,65.3201 87.5151,65.5891 C87.5881,65.8011 87.6421,66.0081 87.6941,66.2091 L87.7451,66.4091 L87.7791,66.5731 C87.8221,66.7761 87.8671,66.9851 87.8971,67.2061 C88.0561,68.2231 88.0661,69.2981 87.9241,70.4021" id="Fill-31" fill="#F1892D" mask="url(#mask-4)"></path>
                <path d="M83.2449,69.7937 L81.7569,69.6057 C81.8229,69.0817 81.8209,68.5927 81.7509,68.1547 L81.7459,68.1187 C81.7409,68.0717 81.7279,68.0127 81.7129,67.9437 C81.7039,67.9007 81.6949,67.8577 81.6859,67.8147 C81.6749,67.7727 81.6639,67.7307 81.6529,67.6887 C81.6369,67.6237 81.6199,67.5617 81.6039,67.5177 L81.5879,67.4687 C81.5649,67.3887 81.5279,67.2937 81.4899,67.1917 L81.4699,67.1407 C81.4579,67.1097 81.4489,67.0907 81.4399,67.0717 C81.4259,67.0397 81.4109,67.0077 81.3969,66.9747 C81.3799,66.9327 81.3629,66.8967 81.3469,66.8667 L82.6639,66.1487 C82.7059,66.2267 82.7449,66.3087 82.7829,66.4007 C82.7889,66.4157 82.7969,66.4317 82.8049,66.4477 C82.8289,66.5027 82.8529,66.5577 82.8749,66.6157 L82.8899,66.6547 C82.9349,66.7727 82.9819,66.8947 83.0209,67.0247 C83.0579,67.1297 83.0829,67.2277 83.1059,67.3147 C83.1159,67.3537 83.1259,67.3927 83.1369,67.4317 L83.1559,67.5097 C83.1619,67.5497 83.1709,67.5887 83.1799,67.6287 C83.1989,67.7187 83.2209,67.8187 83.2349,67.9337 C83.3249,68.5077 83.3279,69.1337 83.2449,69.7937" id="Fill-32" fill="#F1892D" mask="url(#mask-4)"></path>
                <polygon id="Fill-33" fill="#F1892D" mask="url(#mask-4)" points="82.6062 68.7771 82.3772 67.2951 87.0402 66.5731 87.2692 68.0551"></polygon>
                <path d="M81.2488,73.2766 C81.8898,72.0846 82.3548,70.8566 82.5008,69.6996 L87.1808,70.3066 C87.1188,70.7906 87.0228,71.2606 86.9128,71.7216 C86.7938,72.1776 86.6608,72.6266 86.5048,73.0586 C86.1958,73.9246 85.8198,74.7406 85.4028,75.5146 L81.2488,73.2766 Z" id="Fill-34" fill="#F9BF3B" mask="url(#mask-4)"></path>
                <path d="M86.0627,75.8703 L84.7417,75.1593 C85.1747,74.3553 85.5207,73.5863 85.7987,72.8073 C85.9367,72.4243 86.0627,72.0083 86.1867,71.5343 C86.3047,71.0373 86.3857,70.6143 86.4367,70.2123 L87.9247,70.4013 C87.8667,70.8583 87.7767,71.3333 87.6417,71.8963 C87.5037,72.4303 87.3637,72.8893 87.2107,73.3133 C86.9077,74.1623 86.5317,74.9993 86.0627,75.8703" id="Fill-35" fill="#F1892D" mask="url(#mask-4)"></path>
                <path d="M81.9089,73.6315 L80.5879,72.9215 C81.2389,71.7105 81.6329,70.5945 81.7569,69.6065 L83.2449,69.7935 C83.0969,70.9655 82.6479,72.2565 81.9089,73.6315" id="Fill-36" fill="#F1892D" mask="url(#mask-4)"></path>
                <polygon id="Fill-37" fill="#F1892D" mask="url(#mask-4)" points="86.2532 73.7653 81.8082 72.1823 82.3122 70.7683 86.7572 72.3523"></polygon>
                <path d="M78.8684,76.7478 C79.7834,75.6348 80.6034,74.4718 81.2484,73.2768 L85.4024,75.5148 C84.5654,77.0618 83.5754,78.4508 82.5134,79.7438 L78.8684,76.7478 Z" id="Fill-38" fill="#F9BF3B" mask="url(#mask-4)"></path>
                <path d="M83.0935,80.2199 L81.9335,79.2679 C83.0915,77.8579 84.0105,76.5129 84.7425,75.1579 L86.0625,75.8719 C85.2835,77.3119 84.3125,78.7339 83.0935,80.2199" id="Fill-39" fill="#F1892D" mask="url(#mask-4)"></path>
                <path d="M79.448,77.2238 L78.289,76.2718 C79.238,75.1168 80.011,73.9898 80.589,72.9198 L81.908,73.6328 C81.286,74.7868 80.458,75.9948 79.448,77.2238" id="Fill-40" fill="#F1892D" mask="url(#mask-4)"></path>
                <polygon id="Fill-41" fill="#F1892D" mask="url(#mask-4)" points="83.6155 78.3415 79.7335 75.6595 80.5855 74.4255 84.4685 77.1075"></polygon>
                <path d="M75.8733,79.9436 C76.9413,78.9276 77.9523,77.8606 78.8683,76.7476 L82.5133,79.7436 C81.4503,81.0356 80.3123,82.2336 79.1233,83.3636 L75.8733,79.9436 Z" id="Fill-42" fill="#F9BF3B" mask="url(#mask-4)"></path>
                <path d="M79.6409,83.9074 L78.6069,82.8204 C79.8539,81.6354 80.9419,80.4724 81.9349,79.2674 L83.0929,80.2204 C82.0609,81.4734 80.9319,82.6794 79.6409,83.9074" id="Fill-43" fill="#F1892D" mask="url(#mask-4)"></path>
                <path d="M76.3899,80.4875 L75.3569,79.4005 C76.4459,78.3645 77.4329,77.3115 78.2889,76.2715 L79.4479,77.2245 C78.5529,78.3125 77.5239,79.4095 76.3899,80.4875" id="Fill-44" fill="#F1892D" mask="url(#mask-4)"></path>
                <polygon id="Fill-45" fill="#F1892D" mask="url(#mask-4)" points="80.3518 82.1608 76.9138 78.9288 77.9418 77.8358 81.3788 81.0678"></polygon>
                <path d="M72.551,82.7829 L72.744,82.6369 L72.955,82.4729 L73.382,82.1329 C73.666,81.9029 73.949,81.6669 74.229,81.4269 C74.79,80.9469 75.339,80.4509 75.873,79.9439 L79.124,83.3639 C78.529,83.9289 77.921,84.4769 77.299,85.0109 C76.988,85.2769 76.673,85.5399 76.352,85.7999 L75.865,86.1879 L75.615,86.3819 L75.342,86.5879 L72.551,82.7829 Z" id="Fill-46" fill="#F9BF3B" mask="url(#mask-4)"></path>
                <path d="M75.7927,87.1872 L74.8897,85.9892 L75.4047,85.5952 L75.8847,85.2132 C76.1907,84.9642 76.5047,84.7032 76.8117,84.4412 C77.4157,83.9232 78.0207,83.3772 78.6077,82.8202 L79.6407,83.9082 C79.0347,84.4832 78.4107,85.0452 77.7867,85.5802 C77.4697,85.8512 77.1467,86.1212 76.8247,86.3822 L76.0747,86.9742 L75.7927,87.1872 Z" id="Fill-47" fill="#F1892D" mask="url(#mask-4)"></path>
                <path d="M73.0037,83.3811 L72.0987,82.1841 L72.4957,81.8811 L72.9147,81.5471 C73.1857,81.3271 73.4647,81.0941 73.7417,80.8571 C74.2847,80.3921 74.8287,79.9021 75.3567,79.4001 L76.3897,80.4871 C75.8427,81.0071 75.2797,81.5141 74.7177,81.9961 C74.4307,82.2421 74.1397,82.4841 73.8547,82.7151 L73.0037,83.3811 Z" id="Fill-48" fill="#F1892D" mask="url(#mask-4)"></path>
                <polygon id="Fill-49" fill="#F1892D" mask="url(#mask-4)" points="76.7292 85.4987 73.6602 81.9147 74.7992 80.9387 77.8682 84.5227"></polygon>
                <path d="M66.6462,81.3537 L69.6652,79.3537 L69.4702,79.0597 C68.5592,77.6847 68.9392,75.8127 70.3142,74.9017 L72.1982,73.6547 C73.5742,72.7437 75.4452,73.1237 76.3562,74.4987 L78.2082,77.2937 L78.8102,78.2037 L81.8102,82.7317 C82.7212,84.1077 82.3412,85.9787 80.9652,86.8897 L73.5622,91.7937 C72.1862,92.7057 70.3152,92.3247 69.4042,90.9497 L65.8022,85.5117 C64.8912,84.1357 65.2712,82.2647 66.6462,81.3537" id="Fill-50" fill="#A5B5B6" mask="url(#mask-4)"></path>
                <path d="M65.802,85.5114 C64.891,84.1364 65.271,82.2644 66.646,81.3534 L68.324,80.2424 L75.199,90.7094 L73.562,91.7934 C72.186,92.7054 70.315,92.3244 69.404,90.9494 L65.802,85.5114 Z" id="Fill-51" fill="#859596" mask="url(#mask-4)"></path>
                <path d="M67.0608,81.9787 C66.0258,82.6647 65.7418,84.0627 66.4278,85.0977 L70.0298,90.5357 C70.7148,91.5697 72.1128,91.8537 73.1478,91.1687 L80.5518,86.2647 C81.0498,85.9347 81.3908,85.4267 81.5108,84.8357 C81.6308,84.2447 81.5148,83.6447 81.1848,83.1457 L75.7308,74.9127 C75.4008,74.4147 74.8938,74.0747 74.3028,73.9537 C73.7108,73.8337 73.1108,73.9497 72.6128,74.2797 L70.7288,75.5277 C70.2308,75.8577 69.8898,76.3647 69.7698,76.9567 C69.6498,77.5477 69.7658,78.1477 70.0958,78.6457 L70.2898,78.9397 C70.3998,79.1057 70.4398,79.3087 70.3998,79.5037 C70.3608,79.6987 70.2458,79.8697 70.0798,79.9797 L67.0608,81.9787 Z M71.9108,93.0417 C70.6938,93.0417 69.4998,92.4517 68.7788,91.3637 L65.1768,85.9257 C64.0348,84.2017 64.5088,81.8707 66.2318,80.7287 L66.2318,80.7287 L68.6438,79.1317 C68.2488,78.3747 68.1268,77.5097 68.2998,76.6577 C68.4998,75.6737 69.0678,74.8287 69.9008,74.2767 L71.7848,73.0287 C72.6168,72.4777 73.6168,72.2837 74.6008,72.4837 C75.5848,72.6837 76.4308,73.2517 76.9818,74.0847 L82.4358,82.3177 C82.9868,83.1497 83.1798,84.1507 82.9798,85.1347 C82.7808,86.1187 82.2118,86.9637 81.3798,87.5157 L73.9758,92.4187 C73.3398,92.8407 72.6218,93.0417 71.9108,93.0417 L71.9108,93.0417 Z" id="Fill-52" fill="#354546" mask="url(#mask-4)"></path>
                <path d="M75.24,91.4328 C74.997,91.4328 74.759,91.3148 74.614,91.0968 L67.698,80.6568 C67.47,80.3118 67.564,79.8458 67.909,79.6178 C68.255,79.3888 68.72,79.4828 68.949,79.8288 L75.865,90.2688 C76.094,90.6138 75.999,91.0788 75.654,91.3078 C75.526,91.3928 75.382,91.4328 75.24,91.4328" id="Fill-53" fill="#354546" mask="url(#mask-4)"></path>
                <path d="M66.7698,87.7219 C66.5358,87.7219 66.3048,87.6119 66.1578,87.4069 C65.9178,87.0689 65.9968,86.6009 66.3348,86.3609 L70.4208,83.4539 C70.7588,83.2139 71.2268,83.2929 71.4668,83.6309 C71.7068,83.9679 71.6278,84.4359 71.2908,84.6769 L67.2038,87.5829 C67.0718,87.6769 66.9198,87.7219 66.7698,87.7219" id="Fill-54" fill="#354546" mask="url(#mask-4)"></path>
                <path d="M69.1565,91.3244 C68.9055,91.3244 68.6605,91.1984 68.5185,90.9694 C68.3005,90.6174 68.4085,90.1554 68.7605,89.9374 L73.0215,87.2944 C73.3735,87.0754 73.8365,87.1844 74.0545,87.5364 C74.2725,87.8884 74.1645,88.3504 73.8125,88.5694 L69.5515,91.2114 C69.4275,91.2874 69.2915,91.3244 69.1565,91.3244" id="Fill-55" fill="#354546" mask="url(#mask-4)"></path>
                <path d="M78.2112,85.3259 C78.1612,85.3259 78.1112,85.3209 78.0622,85.3109 C77.8672,85.2709 77.6952,85.1559 77.5862,84.9909 L73.2402,78.4299 C73.0122,78.0849 73.1062,77.6189 73.4522,77.3909 L76.8022,75.1719 C77.1472,74.9429 77.6122,75.0369 77.8412,75.3829 C78.0702,75.7279 77.9762,76.1929 77.6302,76.4219 L74.9052,78.2269 L78.4222,83.5369 L81.1472,81.7319 C81.4932,81.5029 81.9582,81.5969 82.1872,81.9429 C82.4162,82.2879 82.3212,82.7539 81.9762,82.9819 L78.6252,85.2009 C78.5022,85.2839 78.3572,85.3259 78.2112,85.3259" id="Fill-56" fill="#354546" mask="url(#mask-4)"></path>
                <path d="M69.6658,80.1042 C69.4228,80.1042 69.1848,79.9862 69.0398,79.7682 C68.8118,79.4232 68.9058,78.9582 69.2508,78.7292 L70.9738,77.5882 C71.3188,77.3592 71.7838,77.4542 72.0128,77.7992 C72.2418,78.1442 72.1468,78.6092 71.8018,78.8382 L70.0798,79.9792 C69.9518,80.0632 69.8078,80.1042 69.6658,80.1042" id="Fill-57" fill="#354546" mask="url(#mask-4)"></path>
                <path d="M8.533,51.132 C8.642,50.265 8.776,49.403 8.939,48.545 C9.02,48.116 9.109,47.688 9.205,47.258 C9.253,47.044 9.304,46.829 9.357,46.612 L9.439,46.284 L9.535,45.927 L14.071,47.226 L14.007,47.466 L13.939,47.736 L13.809,48.292 C13.725,48.666 13.646,49.044 13.575,49.424 C13.431,50.184 13.312,50.95 13.215,51.716 L8.533,51.132 Z" id="Fill-58" fill="#F9BF3B" mask="url(#mask-4)"></path>
                <path d="M13.9592,51.8103 L12.4712,51.6233 C12.5722,50.8223 12.6952,50.0353 12.8382,49.2843 C12.9062,48.9233 12.9842,48.5453 13.0772,48.1293 L13.2802,47.2833 L13.3462,47.0333 L14.7952,47.4193 L14.6662,47.9193 L14.5392,48.4633 C14.4522,48.8543 14.3772,49.2163 14.3122,49.5623 C14.1752,50.2853 14.0562,51.0403 13.9592,51.8103" id="Fill-59" fill="#F1892D" mask="url(#mask-4)"></path>
                <path d="M9.2771,51.2258 L7.7891,51.0388 C7.9021,50.1408 8.0411,49.2548 8.2021,48.4048 C8.2791,47.9938 8.3681,47.5648 8.4731,47.0948 C8.5221,46.8758 8.5741,46.6558 8.6281,46.4338 L8.8111,45.7328 L10.2591,46.1218 L10.0841,46.7948 C10.0331,47.0008 9.9841,47.2118 9.9371,47.4218 C9.8361,47.8748 9.7511,48.2878 9.6761,48.6838 C9.5201,49.5038 9.3861,50.3588 9.2771,51.2258" id="Fill-60" fill="#F1892D" mask="url(#mask-4)"></path>
                <polygon id="Fill-61" fill="#F1892D" mask="url(#mask-4)" points="13.4358 50.1613 8.7998 49.2823 9.0788 47.8083 13.7148 48.6873"></polygon>
                <path d="M8.2527,56.4147 C8.2077,54.6267 8.3157,52.8667 8.5327,51.1317 L13.2147,51.7167 C13.0227,53.2487 12.9317,54.7857 12.9697,56.2907 L8.2527,56.4147 Z" id="Fill-62" fill="#F9BF3B" mask="url(#mask-4)"></path>
                <path d="M12.2195,56.3098 C12.1825,54.8258 12.2665,53.2488 12.4705,51.6228 L13.9595,51.8098 C13.7645,53.3618 13.6835,54.8628 13.7195,56.2718 L12.2195,56.3098 Z" id="Fill-63" fill="#F1892D" mask="url(#mask-4)"></path>
                <path d="M7.5027,56.4333 C7.4597,54.6893 7.5527,52.9253 7.7887,51.0393 L9.2767,51.2253 C9.0507,53.0363 8.9607,54.7273 9.0027,56.3953 L7.5027,56.4333 Z" id="Fill-64" fill="#F1892D" mask="url(#mask-4)"></path>
                <polygon id="Fill-65" fill="#F1892D" mask="url(#mask-4)" points="12.9646 54.7629 8.2536 54.5019 8.3366 53.0049 13.0476 53.2649"></polygon>
                <path d="M8.9836,61.841 C8.5046,60.021 8.3016,58.201 8.2526,56.415 L12.9696,56.291 C13.0096,57.794 13.1846,59.268 13.5456,60.635 L8.9836,61.841 Z" id="Fill-66" fill="#F9BF3B" mask="url(#mask-4)"></path>
                <path d="M12.8206,60.8269 C12.4666,59.4859 12.2646,57.9669 12.2196,56.3109 L13.7186,56.2709 C13.7606,57.8109 13.9456,59.2149 14.2706,60.4439 L12.8206,60.8269 Z" id="Fill-67" fill="#F1892D" mask="url(#mask-4)"></path>
                <path d="M8.2585,62.0314 C7.8065,60.3144 7.5595,58.4834 7.5025,56.4354 L9.0025,56.3934 C9.0555,58.3254 9.2865,60.0454 9.7095,61.6504 L8.2585,62.0314 Z" id="Fill-68" fill="#F1892D" mask="url(#mask-4)"></path>
                <polygon id="Fill-69" fill="#F1892D" mask="url(#mask-4)" points="8.553 59.8591 8.362 58.3711 13.042 57.7701 13.233 59.2581"></polygon>
                <path d="M11.4519,67.1047 C10.2359,65.4847 9.4619,63.6527 8.9839,61.8407 L13.5459,60.6347 C13.9059,62.0007 14.4579,63.2517 15.2239,64.2697 L11.4519,67.1047 Z" id="Fill-70" fill="#F9BF3B" mask="url(#mask-4)"></path>
                <path d="M14.6243,64.7204 C13.8303,63.6644 13.2233,62.3544 12.8203,60.8264 L14.2703,60.4444 C14.6243,61.7834 15.1463,62.9184 15.8233,63.8184 L14.6243,64.7204 Z" id="Fill-71" fill="#F1892D" mask="url(#mask-4)"></path>
                <path d="M10.8523,67.5549 C9.6903,66.0079 8.8173,64.1499 8.2583,62.0329 L9.7083,61.6499 C10.2183,63.5789 11.0063,65.2629 12.0513,66.6549 L10.8523,67.5549 Z" id="Fill-72" fill="#F1892D" mask="url(#mask-4)"></path>
                <polygon id="Fill-73" fill="#F1892D" mask="url(#mask-4)" points="10.2527 65.2263 9.6287 63.8623 13.9207 61.9003 14.5447 63.2653"></polygon>
                <path d="M16.1497,70.8933 C15.2417,70.4723 14.3647,69.9403 13.5667,69.2993 C12.7687,68.6593 12.0577,67.9123 11.4517,67.1043 L15.2237,64.2693 C15.6067,64.7793 16.0397,65.2333 16.5257,65.6243 C17.0137,66.0143 17.5537,66.3433 18.1387,66.6143 L16.1497,70.8933 Z" id="Fill-74" fill="#F9BF3B" mask="url(#mask-4)"></path>
                <path d="M17.823,67.2946 C17.177,66.9946 16.582,66.6296 16.057,66.2106 C15.532,65.7886 15.051,65.2876 14.624,64.7196 L15.823,63.8186 C16.175,64.2866 16.569,64.6966 16.995,65.0396 C17.426,65.3836 17.917,65.6846 18.454,65.9336 L17.823,67.2946 Z" id="Fill-75" fill="#F1892D" mask="url(#mask-4)"></path>
                <path d="M15.8342,71.5739 C14.8412,71.1139 13.9202,70.5449 13.0972,69.8849 C12.2682,69.2189 11.5122,68.4349 10.8522,67.5549 L12.0512,66.6549 C12.6372,67.4339 13.3042,68.1279 14.0362,68.7149 C14.7642,69.2999 15.5822,69.8029 16.4652,70.2129 L15.8342,71.5739 Z" id="Fill-76" fill="#F1892D" mask="url(#mask-4)"></path>
                <polygon id="Fill-77" fill="#F1892D" mask="url(#mask-4)" points="14.1506 69.7702 12.9826 68.8292 15.9416 65.1542 17.1096 66.0952"></polygon>
                <path d="M21.7444,72.2648 C21.2824,72.2418 20.8124,72.1748 20.3454,72.1158 C20.1124,72.0858 19.8764,72.0348 19.6414,71.9948 L19.2894,71.9298 C19.1724,71.9058 19.0554,71.8738 18.9374,71.8468 C17.9974,71.6358 17.0574,71.3138 16.1494,70.8928 L18.1384,66.6148 C18.7234,66.8838 19.3484,67.1058 20.0164,67.2528 C20.0994,67.2718 20.1804,67.2958 20.2644,67.3128 L20.5194,67.3588 C20.6914,67.3868 20.8574,67.4268 21.0324,67.4478 C21.3824,67.4888 21.7284,67.5428 22.0894,67.5588 L21.7444,72.2648 Z" id="Fill-78" fill="#F9BF3B" mask="url(#mask-4)"></path>
                <path d="M22.0564,68.3083 C21.7564,68.2943 21.4754,68.2593 21.2044,68.2253 C21.1184,68.2133 21.0324,68.2033 20.9454,68.1923 C20.8064,68.1753 20.6814,68.1513 20.5704,68.1303 C20.5134,68.1193 20.4554,68.1083 20.3964,68.0983 L20.1154,68.0473 C20.0504,68.0343 19.9874,68.0183 19.9234,68.0023 L19.8444,67.9823 C19.1754,67.8353 18.4924,67.6033 17.8244,67.2953 L18.4524,65.9333 C19.0224,66.1963 19.6034,66.3933 20.1774,66.5203 C20.2234,66.5313 20.2594,66.5393 20.2944,66.5493 C20.3314,66.5583 20.3684,66.5683 20.4064,66.5763 L20.6524,66.6203 C20.7134,66.6303 20.7844,66.6433 20.8534,66.6573 C20.9504,66.6753 21.0404,66.6933 21.1244,66.7033 C21.2114,66.7133 21.3024,66.7253 21.3934,66.7363 C21.6454,66.7683 21.8844,66.7993 22.1224,66.8093 L22.0564,68.3083 Z" id="Fill-79" fill="#F1892D" mask="url(#mask-4)"></path>
                <path d="M21.7063,73.0139 C21.2913,72.9929 20.8803,72.9409 20.4823,72.8889 L20.2523,72.8609 C20.0723,72.8369 19.9013,72.8059 19.7363,72.7739 C19.6623,72.7609 19.5883,72.7459 19.5143,72.7339 L19.1533,72.6669 C19.0513,72.6459 18.9633,72.6249 18.8753,72.6029 L18.7653,72.5769 C17.7833,72.3559 16.7943,72.0179 15.8343,71.5739 L16.4643,70.2129 C17.3283,70.6129 18.2153,70.9159 19.1013,71.1149 L19.2333,71.1459 C19.3023,71.1629 19.3713,71.1809 19.4403,71.1949 L19.7783,71.2569 C19.8503,71.2699 19.9323,71.2849 20.0123,71.2999 C20.1643,71.3279 20.3063,71.3549 20.4413,71.3719 L20.6733,71.4019 C21.0603,71.4509 21.4253,71.4979 21.7823,71.5159 L21.7063,73.0139 Z" id="Fill-80" fill="#F1892D" mask="url(#mask-4)"></path>
                <polygon id="Fill-81" fill="#F1892D" mask="url(#mask-4)" points="19.6672 72.0178 18.2072 71.6748 19.2862 67.0808 20.7462 67.4238"></polygon>
                <path d="M27.1643,72.048 C25.4123,72.292 23.6013,72.399 21.7443,72.265 L22.0893,67.559 C23.5183,67.663 25.0153,67.585 26.5223,67.373 L27.1643,72.048 Z" id="Fill-82" fill="#F9BF3B" mask="url(#mask-4)"></path>
                <path d="M23.3782,68.3547 C22.9192,68.3547 22.4702,68.3387 22.0352,68.3067 L22.1442,66.8107 C23.4502,66.9057 24.8882,66.8457 26.4182,66.6307 L26.6272,68.1157 C25.4962,68.2747 24.4082,68.3547 23.3782,68.3547" id="Fill-83" fill="#F1892D" mask="url(#mask-4)"></path>
                <path d="M23.3933,73.0739 C22.8173,73.0739 22.2503,73.0529 21.6903,73.0129 L21.7983,71.5169 C23.4573,71.6369 25.1793,71.5679 27.0603,71.3049 L27.2683,72.7909 C25.9113,72.9799 24.6313,73.0739 23.3933,73.0739" id="Fill-84" fill="#F1892D" mask="url(#mask-4)"></path>
                <polygon id="Fill-85" fill="#F1892D" mask="url(#mask-4)" points="23.7444 72.3332 23.5274 67.6192 25.0254 67.5502 25.2434 72.2642"></polygon>
                <path d="M32.2903,70.9836 C30.6263,71.4376 28.9183,71.8036 27.1643,72.0476 L26.5223,67.3736 C28.0303,67.1626 29.5503,66.8416 31.0623,66.4276 L32.2903,70.9836 Z" id="Fill-86" fill="#F9BF3B" mask="url(#mask-4)"></path>
                <path d="M26.6257,68.1159 L26.4177,66.6309 C27.8537,66.4299 29.3497,66.1179 30.8647,65.7039 L31.2607,67.1509 C29.6837,67.5819 28.1247,67.9069 26.6257,68.1159" id="Fill-87" fill="#F1892D" mask="url(#mask-4)"></path>
                <path d="M27.2683,72.7907 L27.0603,71.3047 C28.6933,71.0777 30.3863,70.7257 32.0933,70.2607 L32.4883,71.7077 C30.7193,72.1897 28.9633,72.5547 27.2683,72.7907" id="Fill-88" fill="#F1892D" mask="url(#mask-4)"></path>
                <polygon id="Fill-89" fill="#F1892D" mask="url(#mask-4)" points="29.0271 71.7482 28.0571 67.1302 29.5251 66.8222 30.4951 71.4392"></polygon>
                <path d="M37.1868,69.4294 C35.5828,70.0024 33.9558,70.5314 32.2908,70.9834 L31.0628,66.4284 C32.5758,66.0164 34.0828,65.5274 35.5808,64.9924 L37.1868,69.4294 Z" id="Fill-90" fill="#F9BF3B" mask="url(#mask-4)"></path>
                <path d="M31.2595,67.1516 L30.8655,65.7036 C32.2495,65.3276 33.7095,64.8636 35.3285,64.2866 L35.8325,65.6986 C34.1765,66.2896 32.6805,66.7646 31.2595,67.1516" id="Fill-91" fill="#F1892D" mask="url(#mask-4)"></path>
                <path d="M32.4871,71.7077 L32.0931,70.2597 C33.6061,69.8487 35.1901,69.3457 36.9341,68.7227 L37.4391,70.1357 C35.6571,70.7717 34.0381,71.2867 32.4871,71.7077" id="Fill-92" fill="#F1892D" mask="url(#mask-4)"></path>
                <polygon id="Fill-93" fill="#F1892D" mask="url(#mask-4)" points="34.0471 70.4797 32.6121 65.9837 34.0421 65.5287 35.4761 70.0237"></polygon>
                <path d="M16.781,45.4631 C17.206,47.0571 16.25,48.7101 14.656,49.1351 L8.279,50.8371 C6.685,51.2621 5.032,50.3061 4.607,48.7121 L0.852,34.6381 C0.426,33.0441 1.383,31.3921 2.977,30.9661 L9.354,29.2651 C10.948,28.8391 12.601,29.7961 13.026,31.3901 L16.781,45.4631 Z" id="Fill-94" fill="#A5B5B6" mask="url(#mask-4)"></path>
                <path d="M10.1252,29.9138 C9.9322,29.9138 9.7382,29.9388 9.5472,29.9898 L3.1702,31.6908 C2.5932,31.8458 2.1082,32.2178 1.8062,32.7398 C1.5042,33.2618 1.4222,33.8678 1.5772,34.4448 L5.3322,48.5178 C5.6512,49.7168 6.8872,50.4318 8.0852,50.1118 L14.4622,48.4108 C15.0402,48.2568 15.5242,47.8838 15.8272,47.3618 C16.1282,46.8398 16.2102,46.2338 16.0562,45.6568 L12.3012,31.5838 C12.1472,31.0058 11.7752,30.5218 11.2522,30.2198 C10.9032,30.0178 10.5162,29.9138 10.1252,29.9138 M7.5062,51.6888 C5.8492,51.6888 4.3292,50.5808 3.8822,48.9048 L0.1272,34.8318 C-0.1298,33.8678 0.0052,32.8578 0.5082,31.9888 C1.0112,31.1198 1.8192,30.4988 2.7842,30.2418 L9.1612,28.5408 C10.1252,28.2838 11.1352,28.4178 12.0042,28.9208 C12.8732,29.4238 13.4932,30.2318 13.7502,31.1968 L17.5052,45.2698 C17.7632,46.2348 17.6272,47.2448 17.1252,48.1138 C16.6222,48.9818 15.8132,49.6028 14.8492,49.8598 L8.4722,51.5608 C8.1492,51.6478 7.8252,51.6888 7.5062,51.6888" id="Fill-95" fill="#354546" mask="url(#mask-4)"></path>
                <path d="M17.781,45.612 C17.493,46.385 16.625,46.781 15.852,46.493 L15.156,46.234 C14.383,45.946 13.986,45.078 14.275,44.305 L16.908,37.239 C17.196,36.466 18.064,36.069 18.837,36.357 L19.532,36.616 C20.306,36.904 20.702,37.773 20.414,38.546 L17.781,45.612 Z" id="Fill-96" fill="#A5B5B6" mask="url(#mask-4)"></path>
                <path d="M17.781,45.612 L17.782,45.612 L17.781,45.612 Z M18.314,37.013 C18.01,37.013 17.723,37.199 17.611,37.501 L14.977,44.567 C14.833,44.954 15.031,45.387 15.418,45.531 L16.114,45.791 C16.3,45.86 16.503,45.852 16.686,45.768 C16.87,45.685 17.009,45.536 17.078,45.35 L19.712,38.284 C19.856,37.897 19.658,37.464 19.271,37.32 L18.575,37.06 C18.489,37.028 18.401,37.013 18.314,37.013 L18.314,37.013 Z M16.373,47.338 C16.109,47.338 15.844,47.291 15.59,47.196 L14.894,46.937 C13.732,46.504 13.138,45.205 13.572,44.043 L16.205,36.977 C16.638,35.815 17.937,35.221 19.099,35.654 L19.795,35.914 C20.957,36.347 21.551,37.645 21.117,38.808 L18.484,45.874 C18.275,46.435 17.858,46.883 17.31,47.133 C17.01,47.27 16.692,47.338 16.373,47.338 L16.373,47.338 Z" id="Fill-97" fill="#354546" mask="url(#mask-4)"></path>
                <path d="M16.1052,41.423 L14.4532,40.807 C12.9072,40.231 11.1702,41.025 10.5942,42.571 L9.9792,44.223 C9.4022,45.769 10.1962,47.506 11.7422,48.082 L13.3942,48.697 C14.9402,49.274 16.6772,48.48 17.2532,46.934 L17.8692,45.282 C18.4452,43.736 17.6512,41.999 16.1052,41.423" id="Fill-98" fill="#A5B5B6" mask="url(#mask-4)"></path>
                <path d="M17.8689,45.2819 L17.8699,45.2819 L17.8689,45.2819 Z M13.4079,41.3679 C12.4949,41.3679 11.6349,41.9279 11.2969,42.8329 L10.6819,44.4849 C10.2479,45.6469 10.8419,46.9459 12.0039,47.3789 L13.6559,47.9949 C14.2159,48.2029 14.8269,48.1799 15.3759,47.9289 C15.9249,47.6789 16.3419,47.2319 16.5509,46.6719 L17.1659,45.0199 C17.3749,44.4599 17.3519,43.8489 17.1009,43.3009 C16.8499,42.7519 16.4039,42.3349 15.8439,42.1259 L14.1909,41.5099 C13.9329,41.4139 13.6689,41.3679 13.4079,41.3679 L13.4079,41.3679 Z M14.4369,49.6369 C13.9969,49.6369 13.5559,49.5579 13.1329,49.3999 L11.4799,48.7839 C9.5429,48.0619 8.5539,45.8989 9.2759,43.9609 L9.8919,42.3089 C10.6139,40.3709 12.7779,39.3829 14.7149,40.1049 L16.3679,40.7199 C17.3029,41.0689 18.0479,41.7639 18.4649,42.6769 C18.8829,43.5909 18.9199,44.6089 18.5719,45.5439 L17.9559,47.1959 C17.6069,48.1319 16.9119,48.8759 15.9989,49.2939 C15.4999,49.5219 14.9689,49.6369 14.4369,49.6369 L14.4369,49.6369 Z" id="Fill-99" fill="#354546" mask="url(#mask-4)"></path>
                <path d="M4.6369,41.5451 C4.3189,41.5451 4.0229,41.3401 3.9219,41.0201 C3.7979,40.6251 4.0169,40.2041 4.4119,40.0801 L12.3099,37.5951 C12.7049,37.4711 13.1269,37.6911 13.2509,38.0861 C13.3749,38.4811 13.1559,38.9021 12.7609,39.0261 L4.8629,41.5101 C4.7869,41.5341 4.7119,41.5451 4.6369,41.5451" id="Fill-100" fill="#354546" mask="url(#mask-4)"></path>
                <path d="M6.7961,40.612 C6.4741,40.612 6.1761,40.402 6.0781,40.077 L3.3371,30.958 C3.2181,30.561 3.4421,30.143 3.8391,30.024 C4.2361,29.905 4.6541,30.13 4.7741,30.526 L7.5151,39.646 C7.6341,40.042 7.4091,40.461 7.0121,40.58 C6.9411,40.601 6.8681,40.612 6.7961,40.612" id="Fill-101" fill="#354546" mask="url(#mask-4)"></path>
                <path d="M10.575,39.423 C10.249,39.423 9.949,39.208 9.854,38.879 L7.291,29.892 C7.178,29.493 7.408,29.079 7.806,28.965 C8.205,28.851 8.62,29.082 8.734,29.481 L11.297,38.467 C11.41,38.866 11.179,39.28 10.781,39.394 C10.713,39.414 10.643,39.423 10.575,39.423" id="Fill-102" fill="#354546" mask="url(#mask-4)"></path>
                <path d="M56.8645,75.051 L56.8655,75.051 L56.8645,75.051 Z M57.8005,75.427 C57.7765,75.427 57.7535,75.427 57.7305,75.428 C57.5505,75.437 57.4815,75.478 57.4705,75.492 C57.3865,75.608 57.3175,76.304 58.0835,77.923 C58.6645,79.154 59.4895,80.4 59.9695,80.947 C60.3555,81.386 60.8415,81.628 61.3025,81.606 C61.7015,81.588 62.0555,81.383 62.3255,81.012 C62.9975,80.089 62.8635,78.508 62.0315,77.559 C61.3235,76.754 59.0045,75.427 57.8005,75.427 L57.8005,75.427 Z M61.2465,83.107 C60.3695,83.107 59.4995,82.685 58.8425,81.936 C58.3025,81.322 54.8605,76.528 56.2585,74.609 C56.4695,74.319 56.8855,73.966 57.6625,73.93 C59.4075,73.849 62.1995,75.477 63.1585,76.57 C64.4635,78.057 64.6295,80.396 63.5375,81.896 C62.9985,82.636 62.2285,83.065 61.3695,83.104 C61.3285,83.106 61.2875,83.107 61.2465,83.107 L61.2465,83.107 Z" id="Fill-103" fill="#19B5FE" mask="url(#mask-4)"></path>
                <path d="M58.0779,74.779 C58.0099,75.211 58.4879,76.041 60.0329,77.076 C61.3119,77.933 62.8609,78.607 63.6689,78.805 C64.2709,78.953 64.8889,78.844 65.4079,78.498 C66.0349,78.081 66.4709,77.358 66.6029,76.513 C66.8659,74.844 65.9109,73.199 64.4759,72.846 C63.3439,72.568 60.2689,72.971 58.7629,73.973 C58.4779,74.162 58.1289,74.455 58.0779,74.779 M64.2009,80.37 C63.9049,80.37 63.6069,80.335 63.3109,80.262 C61.5439,79.828 56.1659,77.283 56.5959,74.546 C56.7049,73.854 57.1539,73.241 57.9319,72.724 C59.7229,71.532 63.2239,70.994 64.8339,71.39 C67.0069,71.924 68.4649,74.326 68.0849,76.746 C67.8879,78.004 67.2149,79.098 66.2389,79.747 C65.6199,80.159 64.9179,80.37 64.2009,80.37" id="Fill-104" fill="#C72C1C" mask="url(#mask-4)"></path>
                <path d="M53.1404,60.0241 C51.4964,59.8801 48.8034,59.8331 47.1564,59.9201 L38.0854,60.3941 C36.4374,60.4801 35.0654,61.9001 35.0364,63.5501 L34.8864,72.1721 C34.8574,73.8221 36.1364,75.5271 37.7284,75.9621 L46.9174,78.4691 C48.5094,78.9031 51.1254,78.9491 52.7314,78.5701 L62.0024,76.3851 C63.6084,76.0071 64.9464,74.3471 64.9744,72.6971 L65.1254,64.0751 C65.1544,62.4251 63.8324,60.9581 62.1884,60.8141 L53.1404,60.0241 Z" id="Fill-105" fill="#A5B5B6" mask="url(#mask-4)"></path>
                <path d="M62.0442,73.986 L52.7732,76.171 C51.1672,76.549 48.5512,76.504 46.9592,76.069 L37.7702,73.562 C36.1782,73.128 34.8992,71.423 34.9282,69.773 L34.8862,72.173 C34.8572,73.822 36.1362,75.528 37.7282,75.962 L46.9172,78.469 C48.5092,78.903 51.1262,78.949 52.7312,78.57 L62.0022,76.385 C63.6082,76.007 64.9462,74.347 64.9752,72.697 L65.0162,70.298 C64.9872,71.948 63.6502,73.607 62.0442,73.986" id="Fill-106" fill="#859596" mask="url(#mask-4)"></path>
                <path d="M49.1208,60.6257 C48.4148,60.6257 47.7458,60.6397 47.1948,60.6677 L38.1238,61.1427 C36.8788,61.2077 35.8078,62.3157 35.7868,63.5627 L35.6368,72.1857 C35.6138,73.4957 36.6618,74.8937 37.9258,75.2387 L47.1148,77.7457 C48.5838,78.1467 51.0778,78.1897 52.5588,77.8407 L61.8298,75.6557 C63.1048,75.3547 64.2018,73.9947 64.2248,72.6847 L64.3748,64.0617 C64.3968,62.8147 63.3658,61.6697 62.1238,61.5617 L53.0748,60.7717 C52.0058,60.6777 50.4928,60.6257 49.1208,60.6257 M50.0998,79.5797 C48.8908,79.5797 47.6588,79.4487 46.7198,79.1927 L37.5308,76.6857 C35.5928,76.1567 34.1018,74.1687 34.1368,72.1597 L34.2868,63.5367 C34.3228,61.4977 36.0088,59.7507 38.0458,59.6447 L47.1168,59.1707 C48.7968,59.0827 51.5288,59.1297 53.2058,59.2767 L62.2538,60.0667 C64.2868,60.2447 65.9108,62.0477 65.8748,64.0877 L65.7248,72.7107 C65.6898,74.7197 64.1298,76.6547 62.1748,77.1157 L52.9038,79.3007 C52.1098,79.4877 51.1128,79.5797 50.0998,79.5797" id="Fill-107" fill="#354546" mask="url(#mask-4)"></path>
                <polygon id="Fill-108" fill="#556566" mask="url(#mask-4)" points="53.0334 73.1018 39.9574 72.8738 40.1174 63.6748 53.1944 63.9028"></polygon>
                <path d="M48.6179,71.1633 C48.3609,71.1633 48.1189,71.0313 47.9819,70.8093 L46.9439,69.1443 L45.3269,69.1163 C45.0759,69.1123 44.8429,68.9823 44.7069,68.7703 L44.6399,68.6643 L44.2039,69.6813 C44.1059,69.9083 43.9029,70.0723 43.6609,70.1213 C43.4189,70.1683 43.1689,70.0953 42.9919,69.9223 L42.1049,69.0603 L40.0249,69.0243 C39.6109,69.0173 39.2809,68.6753 39.2879,68.2613 C39.2949,67.8473 39.6369,67.5133 40.0509,67.5243 L42.4289,67.5663 C42.6189,67.5693 42.8019,67.6453 42.9379,67.7783 L43.2559,68.0873 L43.8219,66.7703 C43.9309,66.5153 44.1729,66.3413 44.4499,66.3193 C44.7269,66.2963 44.9939,66.4293 45.1429,66.6633 L45.7559,67.6233 L47.3779,67.6523 C47.6319,67.6563 47.8669,67.7893 48.0009,68.0053 L48.3959,68.6383 L49.2079,66.0853 C49.3059,65.7773 49.5909,65.5663 49.9139,65.5623 C50.2389,65.5573 50.5259,65.7623 50.6319,66.0673 L51.2019,67.7193 L53.1269,67.7523 C53.5409,67.7593 53.8709,68.1013 53.8639,68.5153 C53.8559,68.9303 53.5129,69.2583 53.0999,69.2523 L50.6509,69.2093 C50.3359,69.2043 50.0579,69.0023 49.9549,68.7043 L49.9519,68.6943 L49.3329,70.6413 C49.2439,70.9193 49.0009,71.1213 48.7109,71.1573 C48.6799,71.1613 48.6489,71.1633 48.6179,71.1633" id="Fill-109" fill="#D5E5E6" mask="url(#mask-4)"></path>
                <path d="M40.7205,72.1369 L52.2965,72.3389 L52.4305,64.6399 L40.8545,64.4379 L40.7205,72.1369 Z M53.0335,73.8519 L53.0205,73.8519 L39.9445,73.6229 C39.5305,73.6159 39.2005,73.2749 39.2075,72.8609 L39.3675,63.6619 C39.3715,63.4629 39.4535,63.2739 39.5965,63.1359 C39.7405,62.9969 39.9315,62.9179 40.1315,62.9249 L53.2065,63.1539 C53.4065,63.1569 53.5955,63.2389 53.7335,63.3819 C53.8715,63.5249 53.9475,63.7179 53.9435,63.9159 L53.7835,73.1149 C53.7795,73.3139 53.6975,73.5029 53.5545,73.6409 C53.4145,73.7769 53.2275,73.8519 53.0335,73.8519 L53.0335,73.8519 Z" id="Fill-110" fill="#354546" mask="url(#mask-4)"></path>
                <path d="M60.012,65.7976 C59.995,66.7776 59.186,67.5586 58.206,67.5416 C57.226,67.5246 56.446,66.7156 56.463,65.7356 C56.48,64.7556 57.288,63.9746 58.268,63.9916 C59.248,64.0086 60.029,64.8176 60.012,65.7976" id="Fill-111" fill="#F85C4C" mask="url(#mask-4)"></path>
                <path d="M58.2371,64.7414 C57.6801,64.7414 57.2221,65.1894 57.2121,65.7484 C57.2071,66.0224 57.3101,66.2814 57.5001,66.4784 C57.6901,66.6754 57.9451,66.7864 58.2191,66.7914 C58.4921,66.7934 58.7521,66.6944 58.9491,66.5034 C59.1461,66.3134 59.2571,66.0574 59.2621,65.7844 C59.2721,65.2194 58.8201,64.7514 58.2551,64.7414 L58.2371,64.7414 Z M58.2381,68.2914 L58.1931,68.2914 C57.5191,68.2794 56.8891,68.0054 56.4211,67.5204 C55.9521,67.0354 55.7011,66.3964 55.7131,65.7224 C55.7371,64.3454 56.8641,63.2414 58.2371,63.2414 L58.2811,63.2414 C59.6731,63.2664 60.7861,64.4184 60.7621,65.8104 C60.7501,66.4844 60.4761,67.1144 59.9911,67.5824 C59.5171,68.0404 58.8961,68.2914 58.2381,68.2914 L58.2381,68.2914 Z" id="Fill-112" fill="#C72C1C" mask="url(#mask-4)"></path>
                <path d="M59.9133,71.4465 C59.8963,72.4265 59.0873,73.2075 58.1073,73.1905 C57.1273,73.1735 56.3473,72.3645 56.3643,71.3845 C56.3813,70.4045 57.1893,69.6235 58.1693,69.6405 C59.1493,69.6575 59.9303,70.4665 59.9133,71.4465" id="Fill-113" fill="#B9D96D" mask="url(#mask-4)"></path>
                <path d="M58.1379,70.3903 C57.8709,70.3903 57.6189,70.4923 57.4269,70.6783 C57.2299,70.8683 57.1179,71.1243 57.1139,71.3973 C57.1039,71.9623 57.5559,72.4303 58.1209,72.4403 C58.3959,72.4473 58.6539,72.3433 58.8509,72.1533 C59.0479,71.9623 59.1589,71.7073 59.1629,71.4333 C59.1729,70.8683 58.7209,70.4003 58.1569,70.3903 L58.1379,70.3903 M58.1399,73.9403 L58.0949,73.9403 C56.7019,73.9153 55.5899,72.7633 55.6139,71.3713 C55.6259,70.6973 55.8989,70.0673 56.3849,69.5993 C56.8699,69.1303 57.5099,68.8813 58.1829,68.8903 C59.5749,68.9153 60.6869,70.0673 60.6629,71.4593 C60.6519,72.1343 60.3779,72.7633 59.8919,73.2323 C59.4179,73.6893 58.7979,73.9403 58.1399,73.9403" id="Fill-114" fill="#719911" mask="url(#mask-4)"></path>
                <path d="M39.7698,62.5466 C39.4098,62.5466 39.0918,62.2856 39.0308,61.9186 L38.6268,59.4656 C38.5598,59.0566 38.8368,58.6716 39.2458,58.6036 C39.6538,58.5366 40.0398,58.8136 40.1068,59.2216 L40.5108,61.6746 C40.5788,62.0836 40.3018,62.4686 39.8928,62.5366 C39.8518,62.5436 39.8108,62.5466 39.7698,62.5466" id="Fill-115" fill="#354546" mask="url(#mask-4)"></path>
                <path d="M42.7302,62.0593 C42.3692,62.0593 42.0512,61.7983 41.9912,61.4313 L41.5872,58.9783 C41.5202,58.5693 41.7962,58.1833 42.2052,58.1163 C42.6142,58.0483 43.0002,58.3263 43.0672,58.7343 L43.4712,61.1873 C43.5382,61.5963 43.2612,61.9813 42.8532,62.0493 C42.8122,62.0563 42.7712,62.0593 42.7302,62.0593" id="Fill-116" fill="#354546" mask="url(#mask-4)"></path>
                <path d="M60.0745,62.5466 C60.0335,62.5466 59.9925,62.5436 59.9515,62.5366 C59.5425,62.4686 59.2665,62.0836 59.3335,61.6746 L59.7375,59.2216 C59.8045,58.8136 60.1905,58.5366 60.5985,58.6036 C61.0085,58.6716 61.2845,59.0566 61.2175,59.4656 L60.8135,61.9186 C60.7535,62.2856 60.4345,62.5466 60.0745,62.5466" id="Fill-117" fill="#354546" mask="url(#mask-4)"></path>
                <path d="M57.114,62.0593 C57.073,62.0593 57.032,62.0563 56.991,62.0493 C56.583,61.9813 56.306,61.5963 56.373,61.1873 L56.777,58.7343 C56.844,58.3253 57.231,58.0493 57.639,58.1163 C58.048,58.1833 58.324,58.5693 58.257,58.9783 L57.853,61.4313 C57.793,61.7983 57.475,62.0593 57.114,62.0593" id="Fill-118" fill="#354546" mask="url(#mask-4)"></path>
                <polygon id="Fill-119" fill="#A5B5B6" mask="url(#mask-4)" points="36.828 107.861 41.515 107.861 41.515 98.861 36.828 98.861"></polygon>
                <polygon id="Fill-120" fill="#C5D5D6" mask="url(#mask-4)" points="36.828 102.437 41.515 102.437 41.515 98.861 36.828 98.861"></polygon>
                <path d="M37.578,107.111 L40.766,107.111 L40.766,99.611 L37.578,99.611 L37.578,107.111 Z M41.515,108.611 L36.828,108.611 C36.414,108.611 36.078,108.275 36.078,107.861 L36.078,98.861 C36.078,98.446 36.414,98.111 36.828,98.111 L41.515,98.111 C41.929,98.111 42.265,98.446 42.265,98.861 L42.265,107.861 C42.265,108.275 41.929,108.611 41.515,108.611 L41.515,108.611 Z" id="Fill-121" fill="#354546" mask="url(#mask-4)"></path>
                <polygon id="Fill-122" fill="#A5B5B6" mask="url(#mask-4)" points="33.649 106.098 36.834 106.098 36.834 90.198 33.649 90.198"></polygon>
                <path d="M34.399,105.348 L36.084,105.348 L36.084,90.948 L34.399,90.948 L34.399,105.348 Z M36.834,106.848 L33.649,106.848 C33.235,106.848 32.899,106.512 32.899,106.098 L32.899,90.198 C32.899,89.784 33.235,89.448 33.649,89.448 L36.834,89.448 C37.249,89.448 37.584,89.784 37.584,90.198 L37.584,106.098 C37.584,106.512 37.249,106.848 36.834,106.848 L36.834,106.848 Z" id="Fill-123" fill="#354546" mask="url(#mask-4)"></path>
                <path d="M35.3079,84.6853 L35.1759,84.6853 C33.5259,84.6853 32.1759,86.0353 32.1759,87.6853 L32.1759,94.8103 L38.3079,94.8103 L38.3079,87.6853 C38.3079,86.0353 36.9579,84.6853 35.3079,84.6853" id="Fill-124" fill="#A5B5B6" mask="url(#mask-4)"></path>
                <path d="M35.3079,84.6853 L35.1759,84.6853 C33.5259,84.6853 32.1759,86.0353 32.1759,87.6853 L32.1759,90.4233 C32.1759,88.7733 33.5259,87.4233 35.1759,87.4233 L35.3079,87.4233 C36.9579,87.4233 38.3079,88.7733 38.3079,90.4233 L38.3079,87.6853 C38.3079,86.0353 36.9579,84.6853 35.3079,84.6853" id="Fill-125" fill="#C5D5D6" mask="url(#mask-4)"></path>
                <path d="M32.9255,94.0603 L37.5575,94.0603 L37.5575,87.6853 C37.5575,86.4453 36.5485,85.4353 35.3075,85.4353 L35.1755,85.4353 C33.9345,85.4353 32.9255,86.4453 32.9255,87.6853 L32.9255,94.0603 Z M38.3075,95.5603 L32.1755,95.5603 C31.7615,95.5603 31.4255,95.2253 31.4255,94.8103 L31.4255,87.6853 C31.4255,85.6183 33.1075,83.9353 35.1755,83.9353 L35.3075,83.9353 C37.3755,83.9353 39.0575,85.6183 39.0575,87.6853 L39.0575,94.8103 C39.0575,95.2253 38.7225,95.5603 38.3075,95.5603 L38.3075,95.5603 Z" id="Fill-126" fill="#354546" mask="url(#mask-4)"></path>
                <polygon id="Fill-127" fill="#A5B5B6" mask="url(#mask-4)" points="57.953 107.861 62.64 107.861 62.64 98.861 57.953 98.861"></polygon>
                <polygon id="Fill-128" fill="#C5D5D6" mask="url(#mask-4)" points="57.953 102.437 62.64 102.437 62.64 98.861 57.953 98.861"></polygon>
                <path d="M58.703,107.111 L61.89,107.111 L61.89,99.611 L58.703,99.611 L58.703,107.111 Z M62.64,108.611 L57.953,108.611 C57.539,108.611 57.203,108.275 57.203,107.861 L57.203,98.861 C57.203,98.446 57.539,98.111 57.953,98.111 L62.64,98.111 C63.055,98.111 63.39,98.446 63.39,98.861 L63.39,107.861 C63.39,108.275 63.055,108.611 62.64,108.611 L62.64,108.611 Z" id="Fill-129" fill="#354546" mask="url(#mask-4)"></path>
                <polygon id="Fill-130" fill="#A5B5B6" mask="url(#mask-4)" points="62.635 106.098 65.82 106.098 65.82 90.198 62.635 90.198"></polygon>
                <path d="M63.385,105.348 L65.07,105.348 L65.07,90.948 L63.385,90.948 L63.385,105.348 Z M65.82,106.848 L62.635,106.848 C62.22,106.848 61.885,106.512 61.885,106.098 L61.885,90.198 C61.885,89.784 62.22,89.448 62.635,89.448 L65.82,89.448 C66.234,89.448 66.57,89.784 66.57,90.198 L66.57,106.098 C66.57,106.512 66.234,106.848 65.82,106.848 L65.82,106.848 Z" id="Fill-131" fill="#354546" mask="url(#mask-4)"></path>
                <path d="M64.1609,84.6853 L64.2929,84.6853 C65.9429,84.6853 67.2929,86.0353 67.2929,87.6853 L67.2929,94.8103 L61.1609,94.8103 L61.1609,87.6853 C61.1609,86.0353 62.5109,84.6853 64.1609,84.6853" id="Fill-132" fill="#A5B5B6" mask="url(#mask-4)"></path>
                <path d="M64.1609,84.6853 L64.2929,84.6853 C65.9429,84.6853 67.2929,86.0353 67.2929,87.6853 L67.2929,90.4233 C67.2929,88.7733 65.9429,87.4233 64.2929,87.4233 L64.1609,87.4233 C62.5109,87.4233 61.1609,88.7733 61.1609,90.4233 L61.1609,87.6853 C61.1609,86.0353 62.5109,84.6853 64.1609,84.6853" id="Fill-133" fill="#C5D5D6" mask="url(#mask-4)"></path>
                <path d="M61.9109,94.0603 L66.5429,94.0603 L66.5429,87.6853 C66.5429,86.4453 65.5339,85.4353 64.2929,85.4353 L64.1609,85.4353 C62.9199,85.4353 61.9109,86.4453 61.9109,87.6853 L61.9109,94.0603 Z M67.2929,95.5603 L61.1609,95.5603 C60.7459,95.5603 60.4109,95.2253 60.4109,94.8103 L60.4109,87.6853 C60.4109,85.6183 62.0929,83.9353 64.1609,83.9353 L64.2929,83.9353 C66.3609,83.9353 68.0429,85.6183 68.0429,87.6853 L68.0429,94.8103 C68.0429,95.2253 67.7069,95.5603 67.2929,95.5603 L67.2929,95.5603 Z" id="Fill-134" fill="#354546" mask="url(#mask-4)"></path>
                <path d="M57.8157,115.3606 C57.8157,117.0106 56.4657,118.3606 54.8157,118.3606 L44.5157,118.3606 C42.8657,118.3606 41.5157,117.0106 41.5157,115.3606 L41.5157,91.3606 C41.5157,89.7106 42.8657,88.3606 44.5157,88.3606 L54.8157,88.3606 C56.4657,88.3606 57.8157,89.7106 57.8157,91.3606 L57.8157,115.3606 Z" id="Fill-135" fill="#6D6D6D" mask="url(#mask-4)"></path>
                <path d="M54.8157,113.7854 L44.5157,113.7854 C43.1757,113.7854 41.9347,112.8954 41.5157,111.6774 L41.5157,115.3604 C41.5157,117.0104 42.8657,118.3604 44.5157,118.3604 L54.8157,118.3604 C56.4657,118.3604 57.8157,117.0104 57.8157,115.3604 L57.8157,111.6774 C57.3967,112.8954 56.1557,113.7854 54.8157,113.7854" id="Fill-136" fill="#5B5B5B" mask="url(#mask-4)"></path>
                <polygon id="Fill-137" fill="#929292" mask="url(#mask-4)" points="57.7249 101.4108 41.5159 100.0598 41.6059 96.0108 57.7249 96.0108"></polygon>
                <polygon id="Fill-138" fill="#929292" mask="url(#mask-4)" points="57.7249 104.5603 41.6059 105.6643 41.6059 102.9643 57.7249 102.9643"></polygon>
                <path d="M44.5154,89.1105 C43.2744,89.1105 42.2654,90.1195 42.2654,91.3605 L42.2654,115.3605 C42.2654,116.6015 43.2744,117.6105 44.5154,117.6105 L54.8154,117.6105 C56.0564,117.6105 57.0654,116.6015 57.0654,115.3605 L57.0654,91.3605 C57.0654,90.1195 56.0564,89.1105 54.8154,89.1105 L44.5154,89.1105 Z M54.8154,119.1105 L44.5154,119.1105 C42.4474,119.1105 40.7654,117.4285 40.7654,115.3605 L40.7654,91.3605 C40.7654,89.2925 42.4474,87.6105 44.5154,87.6105 L54.8154,87.6105 C56.8834,87.6105 58.5654,89.2925 58.5654,91.3605 L58.5654,115.3605 C58.5654,117.4285 56.8834,119.1105 54.8154,119.1105 L54.8154,119.1105 Z" id="Fill-139" fill="#121212" mask="url(#mask-4)"></path>
                <path d="M57.8523,84.6853 L41.4783,84.6853 C39.6963,84.6853 38.2393,86.0353 38.2393,87.6853 L38.2393,92.0353 L61.0913,92.0353 L61.0913,87.6853 C61.0913,86.0353 59.6343,84.6853 57.8523,84.6853" id="Fill-140" fill="#A5B5B6" mask="url(#mask-4)"></path>
                <path d="M57.8523,84.6853 L41.4783,84.6853 C39.6963,84.6853 38.2393,86.0353 38.2393,87.6853 L61.0913,87.6853 C61.0913,86.0353 59.6343,84.6853 57.8523,84.6853" id="Fill-141" fill="#C5D5D6" mask="url(#mask-4)"></path>
                <path d="M38.989,91.2854 L60.342,91.2854 L60.342,87.6854 C60.342,86.4454 59.225,85.4354 57.852,85.4354 L41.478,85.4354 C40.106,85.4354 38.989,86.4454 38.989,87.6854 L38.989,91.2854 Z M61.092,92.7854 L38.239,92.7854 C37.825,92.7854 37.489,92.4504 37.489,92.0354 L37.489,87.6854 C37.489,85.6184 39.279,83.9354 41.478,83.9354 L57.852,83.9354 C60.052,83.9354 61.842,85.6184 61.842,87.6854 L61.842,92.0354 C61.842,92.4504 61.506,92.7854 61.092,92.7854 L61.092,92.7854 Z" id="Fill-142" fill="#354546" mask="url(#mask-4)"></path>
                <path d="M45.1653,86.8664 C44.7513,86.8664 44.4153,86.5304 44.4153,86.1164 L44.4153,83.6304 C44.4153,83.2164 44.7513,82.8804 45.1653,82.8804 C45.5803,82.8804 45.9153,83.2164 45.9153,83.6304 L45.9153,86.1164 C45.9153,86.5304 45.5803,86.8664 45.1653,86.8664" id="Fill-143" fill="#354546" mask="url(#mask-4)"></path>
                <path d="M48.1653,86.8664 C47.7513,86.8664 47.4153,86.5304 47.4153,86.1164 L47.4153,83.6304 C47.4153,83.2164 47.7513,82.8804 48.1653,82.8804 C48.5803,82.8804 48.9153,83.2164 48.9153,83.6304 L48.9153,86.1164 C48.9153,86.5304 48.5803,86.8664 48.1653,86.8664" id="Fill-144" fill="#354546" mask="url(#mask-4)"></path>
                <path d="M51.1653,86.8664 C50.7513,86.8664 50.4153,86.5304 50.4153,86.1164 L50.4153,83.6304 C50.4153,83.2164 50.7513,82.8804 51.1653,82.8804 C51.5803,82.8804 51.9153,83.2164 51.9153,83.6304 L51.9153,86.1164 C51.9153,86.5304 51.5803,86.8664 51.1653,86.8664" id="Fill-145" fill="#354546" mask="url(#mask-4)"></path>
                <path d="M54.1653,86.8664 C53.7513,86.8664 53.4153,86.5304 53.4153,86.1164 L53.4153,83.6304 C53.4153,83.2164 53.7513,82.8804 54.1653,82.8804 C54.5803,82.8804 54.9153,83.2164 54.9153,83.6304 L54.9153,86.1164 C54.9153,86.5304 54.5803,86.8664 54.1653,86.8664" id="Fill-146" fill="#354546" mask="url(#mask-4)"></path>
                <path d="M72.0168,21.1125 L71.9848,21.1125 C71.5708,21.0945 71.2488,20.7445 71.2668,20.3305 L71.6958,10.2085 C71.8338,6.4935 68.9188,3.3555 65.1998,3.2185 C65.1928,3.2175 65.1858,3.2175 65.1788,3.2175 L39.1188,1.5045 C35.4048,1.3715 32.2718,4.2855 32.1348,8.0015 L31.7048,18.8755 C31.6888,19.2885 31.3408,19.6115 30.9258,19.5945 C30.5118,19.5785 30.1898,19.2295 30.2058,18.8165 L30.6358,7.9445 C30.8038,3.4005 34.6408,-0.1625 39.1838,0.0065 C39.1918,0.0065 39.1988,0.0075 39.2058,0.0075 L65.2668,1.7195 C69.8078,1.8935 73.3628,5.7255 73.1948,10.2685 L72.7658,20.3945 C72.7478,20.7975 72.4158,21.1125 72.0168,21.1125" id="Fill-147" fill="#354546" mask="url(#mask-4)"></path>
                <path d="M26.6726,19.7639 C25.3786,19.7159 24.2706,21.0259 24.2096,22.6749 L23.8356,32.8089 C23.7746,34.4579 24.7826,35.8459 26.0766,35.8939 C27.3706,35.9419 28.4286,35.9809 28.4286,35.9809 L29.0246,19.8509 C29.0246,19.8509 27.9666,19.8119 26.6726,19.7639" id="Fill-148" fill="#A5B5B6" mask="url(#mask-4)"></path>
                <path d="M24.2097,22.675 L24.0267,27.635 L28.7307,27.809 L29.0247,19.851 C29.0247,19.851 27.9667,19.812 26.6727,19.764 C25.3787,19.716 24.2707,21.026 24.2097,22.675" id="Fill-149" fill="#C5D5D6" mask="url(#mask-4)"></path>
                <path d="M28.4011,36.7302 L26.0491,36.6432 C25.2001,36.6122 24.3961,36.1562 23.8411,35.3932 C23.3181,34.6732 23.0501,33.7462 23.0861,32.7812 L23.4601,22.6472 C23.4961,21.6832 23.8321,20.7782 24.4061,20.0992 C25.0161,19.3782 25.8531,18.9842 26.7001,19.0142 L29.0521,19.1012 L28.9971,20.6002 L26.6451,20.5132 C26.2541,20.4992 25.8661,20.6962 25.5511,21.0672 C25.1981,21.4852 24.9821,22.0812 24.9591,22.7032 L24.5851,32.8362 C24.5621,33.4582 24.7331,34.0682 25.0541,34.5112 C25.3411,34.9052 25.7131,35.1292 26.1041,35.1442 L28.4571,35.2312 L28.4011,36.7302 Z" id="Fill-150" fill="#354546" mask="url(#mask-4)"></path>
                <polygon id="Fill-151" fill="#859596" mask="url(#mask-4)" points="32.7449 38.5393 28.3409 38.3763 29.0649 18.7753 33.4689 18.9383"></polygon>
                <polygon id="Fill-152" fill="#A5B5B6" mask="url(#mask-4)" points="33.0544 30.153 28.6504 29.99 29.0644 18.776 33.4694 18.938"></polygon>
                <path d="M29.1174,37.655 L32.0224,37.762 L32.6914,19.66 L29.7864,19.553 L29.1174,37.655 Z M32.7444,39.289 L32.7174,39.289 L28.3124,39.126 C27.8984,39.111 27.5754,38.763 27.5914,38.349 L28.3154,18.748 C28.3304,18.334 28.6784,18.011 29.0924,18.026 L33.4964,18.189 C33.6954,18.196 33.8834,18.282 34.0184,18.428 C34.1534,18.574 34.2254,18.767 34.2184,18.966 L33.4934,38.567 C33.4864,38.766 33.4004,38.954 33.2554,39.089 C33.1164,39.218 32.9334,39.289 32.7444,39.289 L32.7444,39.289 Z" id="Fill-153" fill="#354546" mask="url(#mask-4)"></path>
                <path d="M24.0266,28.385 L24.0246,28.385 L22.2236,28.381 C21.8096,28.381 21.4746,28.044 21.4756,27.63 C21.4766,27.216 21.8116,26.881 22.2256,26.881 L22.2266,26.881 L24.0276,26.885 C24.4426,26.885 24.7766,27.222 24.7766,27.636 C24.7756,28.05 24.4396,28.385 24.0266,28.385" id="Fill-154" fill="#354546" mask="url(#mask-4)"></path>
                <path d="M79.1008,10.5554 C79.0148,10.5554 78.9278,10.5454 78.8408,10.5224 C78.2788,10.3794 77.9388,9.8084 78.0818,9.2464 L78.8588,6.1974 C79.0018,5.6354 79.5738,5.2954 80.1358,5.4394 C80.6978,5.5824 81.0378,6.1544 80.8938,6.7164 L80.1178,9.7644 C79.9968,10.2394 79.5698,10.5554 79.1008,10.5554" id="Fill-155" fill="#354546" mask="url(#mask-4)"></path>
                <path d="M76.0227,22.3376 C75.9607,22.3376 75.8987,22.3296 75.8367,22.3146 C75.4357,22.2116 75.1927,21.8036 75.2947,21.4016 L78.3737,9.3196 C78.4757,8.9186 78.8837,8.6766 79.2857,8.7786 C79.6867,8.8806 79.9287,9.2896 79.8267,9.6906 L76.7487,21.7726 C76.6627,22.1116 76.3567,22.3376 76.0227,22.3376" id="Fill-156" fill="#354546" mask="url(#mask-4)"></path>
                <path d="M76.0217,21.5871 C77.3157,21.6351 78.3247,23.0231 78.2637,24.6721 L77.8887,34.8061 C77.8287,36.4551 76.7197,37.7651 75.4257,37.7171 C74.1327,37.6691 73.0737,37.6301 73.0737,37.6301 L73.6697,21.5001 C73.6697,21.5001 74.7287,21.5391 76.0217,21.5871" id="Fill-157" fill="#A5B5B6" mask="url(#mask-4)"></path>
                <path d="M78.2634,24.6721 L78.0804,29.6321 L73.3754,29.4581 L73.6694,21.5001 C73.6694,21.5001 74.7284,21.5391 76.0214,21.5871 C77.3154,21.6351 78.3244,23.0231 78.2634,24.6721" id="Fill-158" fill="#C5D5D6" mask="url(#mask-4)"></path>
                <path d="M75.4924,38.468 C75.4614,38.468 75.4294,38.468 75.3984,38.467 L73.0464,38.38 L73.1014,36.881 L75.4534,36.968 C75.8454,36.983 76.2324,36.785 76.5474,36.413 C76.9004,35.995 77.1164,35.4 77.1394,34.778 L77.5134,24.644 C77.5364,24.023 77.3654,23.413 77.0444,22.97 C76.7574,22.576 76.3854,22.351 75.9944,22.337 L73.6414,22.25 L73.6974,20.751 L76.0494,20.838 C76.8984,20.869 77.7024,21.325 78.2574,22.089 C78.7804,22.808 79.0484,23.735 79.0134,24.7 L78.6384,34.834 C78.6024,35.798 78.2664,36.703 77.6924,37.382 C77.1054,38.076 76.3084,38.468 75.4924,38.468" id="Fill-159" fill="#354546" mask="url(#mask-4)"></path>
                <polygon id="Fill-160" fill="#859596" mask="url(#mask-4)" points="68.5813 39.8635 72.9853 40.0265 73.7093 20.4255 69.3053 20.2625"></polygon>
                <polygon id="Fill-161" fill="#A5B5B6" mask="url(#mask-4)" points="68.8909 31.4768 73.2949 31.6398 73.7089 20.4248 69.3059 20.2628"></polygon>
                <path d="M69.3582,39.1418 L72.2632,39.2488 L72.9322,21.1468 L70.0272,21.0388 L69.3582,39.1418 Z M72.9852,40.7758 L72.9582,40.7758 L68.5532,40.6128 C68.3552,40.6058 68.1672,40.5198 68.0312,40.3738 C67.8962,40.2278 67.8242,40.0348 67.8322,39.8358 L68.5562,20.2348 C68.5632,20.0358 68.6492,19.8478 68.7952,19.7128 C68.9412,19.5778 69.1342,19.5048 69.3332,19.5128 L73.7372,19.6758 C74.1512,19.6908 74.4742,20.0388 74.4592,20.4528 L73.7342,40.0538 C73.7202,40.4578 73.3872,40.7758 72.9852,40.7758 L72.9852,40.7758 Z" id="Fill-162" fill="#354546" mask="url(#mask-4)"></path>
                <path d="M79.8777,30.5114 C79.8587,30.5114 79.8407,30.5104 79.8227,30.5094 L78.0257,30.3804 C77.6127,30.3504 77.3027,29.9914 77.3327,29.5784 C77.3617,29.1644 77.7207,28.8534 78.1337,28.8844 L79.9307,29.0134 C80.3437,29.0434 80.6547,29.4024 80.6247,29.8154 C80.5967,30.2094 80.2677,30.5114 79.8777,30.5114" id="Fill-163" fill="#354546" mask="url(#mask-4)"></path>
                <path d="M32.6765,44.677 C31.6505,44.677 29.0415,45.791 27.9365,47.051 C26.9975,48.121 26.8465,49.907 27.6075,50.951 C27.9185,51.379 28.3285,51.615 28.7925,51.636 C29.3225,51.661 29.8815,51.386 30.3215,50.885 C30.8545,50.278 31.7675,48.897 32.4115,47.535 C33.2445,45.774 33.2125,44.963 33.0795,44.78 C33.0385,44.724 32.9095,44.686 32.7345,44.678 C32.7165,44.677 32.6965,44.677 32.6765,44.677 M28.8575,53.138 C28.8135,53.138 28.7695,53.137 28.7245,53.135 C27.8025,53.093 26.9755,52.631 26.3955,51.835 C25.2125,50.211 25.3935,47.675 26.8085,46.062 C27.8555,44.869 30.9015,43.093 32.8025,43.18 C33.6295,43.217 34.0685,43.59 34.2915,43.897 C34.9035,44.737 34.7325,46.136 33.7685,48.177 C33.0585,49.678 32.0645,51.173 31.4495,51.874 C30.7405,52.682 29.8015,53.138 28.8575,53.138" id="Fill-164" fill="#19B5FE" mask="url(#mask-4)"></path>
                <path d="M67.1062,42.8991 C66.6482,42.8991 66.2942,42.9741 66.1272,43.1501 C66.0022,43.2821 66.0092,43.5431 66.0362,43.7381 C66.2092,44.9761 67.5502,46.7291 68.3022,47.1731 C69.2612,47.7401 70.8232,47.4291 71.7112,46.4941 C72.1372,46.0451 72.3442,45.5191 72.2792,45.0501 C72.2272,44.6751 72.0062,44.3631 71.6402,44.1471 C70.5752,43.5171 68.4162,42.8991 67.1062,42.8991 M69.4482,48.9601 C68.7672,48.9601 68.1052,48.7991 67.5392,48.4641 C66.3742,47.7751 64.7822,45.6061 64.5502,43.9451 C64.4182,42.9991 64.7442,42.4291 65.0402,42.1171 C66.6662,40.4061 71.3532,42.2341 72.4042,42.8561 C73.1662,43.3061 73.6492,44.0121 73.7652,44.8431 C73.8932,45.7671 73.5412,46.7461 72.7992,47.5271 C71.9162,48.4561 70.6542,48.9601 69.4482,48.9601" id="Fill-165" fill="#19B5FE" mask="url(#mask-4)"></path>
                <path d="M26.3083,41.7395 C25.8963,41.7395 25.5423,41.7715 25.2813,41.8355 C23.6623,42.2335 22.5853,44.0845 22.8803,45.9615 C23.0303,46.9125 23.5223,47.7285 24.2303,48.1995 C24.8213,48.5935 25.5233,48.7175 26.2063,48.5495 C27.1033,48.3285 28.8213,47.5825 30.2373,46.6335 C31.7083,45.6475 32.5253,44.6735 32.4243,44.0265 C32.3643,43.6425 31.9623,43.3035 31.6363,43.0875 C30.3083,42.2035 27.8843,41.7395 26.3083,41.7395 M25.6033,50.1225 C24.8273,50.1225 24.0683,49.8935 23.3993,49.4485 C22.3423,48.7455 21.6133,47.5595 21.3983,46.1945 C20.9863,43.5665 22.5673,40.9575 24.9233,40.3785 C26.6823,39.9465 30.5083,40.5345 32.4673,41.8385 C33.3063,42.3955 33.7893,43.0535 33.9063,43.7945 C34.3713,46.7605 28.4953,49.5315 26.5643,50.0055 C26.2453,50.0845 25.9223,50.1225 25.6033,50.1225" id="Fill-166" fill="#719911" mask="url(#mask-4)"></path>
                <path d="M68.2297,47.3103 C68.0777,51.4333 64.5777,54.7913 60.4527,54.7743 L38.8337,54.6843 C34.7087,54.6673 31.5957,51.2883 31.9167,47.1763 L34.3047,13.3293 C34.6257,9.2173 38.2507,6.1363 42.3617,6.4833 L62.1297,8.1543 C66.2407,8.5013 69.4787,12.1583 69.3267,16.2803 L68.2297,47.3103 Z" id="Fill-167" fill="#A5B5B6" mask="url(#mask-4)"></path>
                <path d="M64.8044,41.0163 C64.6924,44.0483 61.8894,46.5093 58.5754,46.4863 L41.2044,46.3663 C37.8894,46.3433 35.3804,43.8503 35.6284,40.8263 L37.4654,16.9303 C37.7124,13.9063 40.6174,11.6503 43.9214,11.9153 L59.8084,13.1943 C63.1124,13.4603 65.7224,16.1583 65.6114,19.1893 L64.8044,41.0163 Z" id="Fill-168" fill="#C5D5D6" mask="url(#mask-4)"></path>
                <path d="M62.0271,51.4353 L38.5331,51.2763 C35.6181,51.2563 33.1641,49.8153 31.8971,47.6793 C31.8561,51.5603 34.8791,54.6673 38.8341,54.6843 L60.4531,54.7743 C63.9121,54.7883 66.9301,52.4283 67.9051,49.2353 C66.3741,50.6053 64.2881,51.4513 62.0271,51.4353" id="Fill-169" fill="#859596" mask="url(#mask-4)"></path>
                <path d="M62.0881,52.1857 L62.0221,52.1857 L38.5281,52.0267 C35.4321,52.0057 32.7131,50.5237 31.2521,48.0617 C31.0401,47.7057 31.1581,47.2457 31.5141,47.0347 C31.8701,46.8227 32.3301,46.9397 32.5421,47.2967 C33.7321,49.3017 35.9731,50.5087 38.5381,50.5267 L62.0321,50.6857 C64.0331,50.6997 65.9421,49.9857 67.4041,48.6757 C67.7131,48.3997 68.1881,48.4257 68.4631,48.7347 C68.7401,49.0437 68.7131,49.5177 68.4051,49.7937 C66.6801,51.3377 64.4391,52.1857 62.0881,52.1857" id="Fill-170" fill="#354546" mask="url(#mask-4)"></path>
                <path d="M68.2297,47.3103 L68.2317,47.3103 L68.2297,47.3103 Z M41.7257,7.2063 C40.1417,7.2063 38.6237,7.7643 37.3977,8.8053 C36.0247,9.9723 35.1917,11.5993 35.0527,13.3883 L32.6657,47.2283 C32.5257,49.0133 33.0927,50.6903 34.2597,51.9573 C35.4267,53.2253 37.0527,53.9273 38.8367,53.9343 L60.4567,54.0243 C64.1887,54.0373 67.3417,51.0163 67.4797,47.2843 L68.5767,16.2543 C68.7147,12.5143 65.7947,9.2163 62.0667,8.9013 L42.2977,7.2313 C42.1067,7.2143 41.9157,7.2063 41.7257,7.2063 L41.7257,7.2063 Z M60.4847,55.5243 L60.4497,55.5243 L38.8307,55.4343 C36.6247,55.4253 34.6097,54.5513 33.1567,52.9743 C31.7037,51.3963 30.9977,49.3163 31.1687,47.1173 L33.5567,13.2763 C33.7277,11.0813 34.7467,9.0893 36.4257,7.6623 C38.1057,6.2353 40.2357,5.5513 42.4247,5.7363 L62.1927,7.4073 C66.7067,7.7883 70.2437,11.7813 70.0757,16.3083 L68.9797,47.3373 L68.9797,47.3383 C68.8127,51.8593 65.0047,55.5243 60.4847,55.5243 L60.4847,55.5243 Z" id="Fill-171" fill="#354546" mask="url(#mask-4)"></path>
                <path d="M51.7034,16.2961 C47.5954,16.2961 42.6994,15.0351 42.6994,9.0251 C42.6994,8.0811 42.8214,7.4551 43.0604,6.5621 C43.1684,6.1621 43.5794,5.9251 43.9794,6.0321 C44.3794,6.1401 44.6174,6.5511 44.5094,6.9511 C44.2944,7.7501 44.1994,8.2391 44.1994,9.0251 C44.1994,10.4521 44.1994,14.7961 51.7034,14.7961 C59.2404,14.7961 59.2404,10.4521 59.2404,9.0251 C59.2404,8.7061 59.2234,8.3851 59.1914,8.0721 C59.1484,7.6601 59.4484,7.2921 59.8604,7.2491 C60.2714,7.2071 60.6414,7.5061 60.6834,7.9181 C60.7214,8.2831 60.7404,8.6551 60.7404,9.0251 C60.7404,12.3421 59.1724,16.2961 51.7034,16.2961" id="Fill-172" fill="#354546" mask="url(#mask-4)"></path>
                <path d="M46.9207,25.9431 C46.7557,30.4131 42.9977,32.4031 38.5267,32.2381 C34.0567,32.0731 30.5667,29.8161 30.7317,25.3451 C30.8967,20.8751 34.6547,17.3841 39.1257,17.5491 C43.5957,17.7141 47.0857,21.4721 46.9207,25.9431" id="Fill-173" fill="#C5D5D6" mask="url(#mask-4)"></path>
                <path d="M38.823,18.2941 C34.894,18.2941 31.628,21.4141 31.481,25.3731 C31.43,26.7441 31.791,31.2391 38.555,31.4891 C40.717,31.5691 42.571,31.1271 43.916,30.2101 C45.343,29.2361 46.102,27.7921 46.171,25.9151 C46.244,23.9531 45.548,22.0811 44.212,20.6421 C42.876,19.2041 41.059,18.3721 39.098,18.2991 C39.006,18.2951 38.914,18.2941 38.823,18.2941 M39.044,32.9981 C38.865,32.9981 38.683,32.9951 38.499,32.9881 C36.021,32.8971 33.919,32.2051 32.419,30.9891 C30.738,29.6261 29.896,27.6651 29.982,25.3171 C30.162,20.4401 34.278,16.6211 39.153,16.8001 C41.515,16.8871 43.702,17.8891 45.311,19.6211 C46.92,21.3541 47.758,23.6081 47.67,25.9711 L46.921,25.9431 L47.67,25.9711 C47.584,28.3161 46.577,30.2101 44.761,31.4491 C43.269,32.4661 41.301,32.9981 39.044,32.9981" id="Fill-174" fill="#354546" mask="url(#mask-4)"></path>
                <path d="M44.0457,25.8371 C43.9397,28.7191 41.5157,29.4701 38.6337,29.3631 C35.7507,29.2561 33.5007,28.3341 33.6077,25.4511 C33.7137,22.5681 36.1367,20.3181 39.0197,20.4251 C41.9017,20.5311 44.1517,22.9541 44.0457,25.8371" id="Fill-175" fill="#9ABD45" mask="url(#mask-4)"></path>
                <path d="M42.1272,24.2351 C42.0612,26.0271 40.5542,27.4251 38.7632,27.3601 C36.9712,27.2931 35.5722,25.7871 35.6382,23.9951 C35.7052,22.2041 37.2102,20.8051 39.0022,20.8711 C40.7942,20.9371 42.1932,22.4431 42.1272,24.2351" id="Fill-176" fill="#CEEC87" mask="url(#mask-4)"></path>
                <path d="M38.822,21.1711 C37.69,21.1711 36.616,21.5921 35.782,22.3671 C34.907,23.1801 34.401,24.2851 34.357,25.4791 C34.316,26.5721 34.653,27.3171 35.414,27.8231 C36.123,28.2951 37.216,28.5601 38.661,28.6141 C40.122,28.6681 41.252,28.4831 42.021,28.0631 C42.851,27.6091 43.256,26.8941 43.296,25.8091 C43.34,24.6151 42.917,23.4761 42.104,22.6001 C41.291,21.7251 40.185,21.2181 38.991,21.1741 C38.935,21.1721 38.878,21.1711 38.822,21.1711 M39.153,30.1231 C38.975,30.1231 38.793,30.1201 38.606,30.1121 C36.855,30.0481 35.54,29.7081 34.584,29.0731 C33.379,28.2721 32.798,27.0441 32.858,25.4231 C32.916,23.8291 33.593,22.3531 34.761,21.2681 C35.931,20.1821 37.452,19.6171 39.047,19.6751 C40.641,19.7341 42.117,20.4101 43.203,21.5791 C44.288,22.7491 44.854,24.2701 44.795,25.8641 C44.736,27.4621 44.025,28.6771 42.74,29.3791 C41.825,29.8791 40.648,30.1231 39.153,30.1231" id="Fill-177" fill="#354546" mask="url(#mask-4)"></path>
                <path d="M40.1721,22.1696 C40.5041,22.9116 39.4661,23.5446 38.1091,24.1526 C36.7511,24.7606 35.5871,25.1116 35.2551,24.3706 C34.9231,23.6286 35.7551,22.5346 37.1121,21.9266 C38.4701,21.3186 39.8401,21.4276 40.1721,22.1696" id="Fill-178" fill="#FFFFFF" mask="url(#mask-4)"></path>
                <path d="M39.8909,28.0417 C39.8049,27.8487 40.0739,27.6847 40.4259,27.5267 C40.7789,27.3687 41.0809,27.2777 41.1669,27.4707 C41.2529,27.6627 41.0369,27.9467 40.6849,28.1047 C40.3319,28.2627 39.9769,28.2337 39.8909,28.0417" id="Fill-179" fill="#FFFFFF" mask="url(#mask-4)"></path>
                <path d="M43.3591,24.2805 C43.3341,24.9615 42.7621,25.4925 42.0811,25.4675 C41.4011,25.4425 40.8701,24.8695 40.8951,24.1895 C40.9201,23.5095 41.4921,22.9775 42.1721,23.0035 C42.8531,23.0285 43.3841,23.6005 43.3591,24.2805" id="Fill-180" fill="#354546" mask="url(#mask-4)"></path>
                <path d="M69.759,27.2902 C69.619,31.0792 66.435,32.3862 62.646,32.2462 C58.858,32.1062 55.901,30.5722 56.041,26.7832 C56.181,22.9952 59.365,20.0382 63.153,20.1782 C66.942,20.3172 69.899,23.5022 69.759,27.2902" id="Fill-181" fill="#C5D5D6" mask="url(#mask-4)"></path>
                <path d="M62.8943,20.923 C61.3473,20.923 59.8793,21.498 58.7393,22.557 C57.5423,23.669 56.8503,25.179 56.7903,26.811 C56.7333,28.352 57.2313,29.486 58.3133,30.277 C59.3093,31.006 60.8173,31.428 62.6743,31.497 C64.5453,31.566 66.1033,31.256 67.1813,30.601 C68.3543,29.886 68.9533,28.795 69.0093,27.263 C69.0703,25.631 68.4913,24.073 67.3793,22.876 C66.2683,21.68 64.7573,20.987 63.1253,20.927 C63.0483,20.924 62.9713,20.923 62.8943,20.923 M63.1973,33.006 C63.0073,33.006 62.8143,33.003 62.6193,32.996 C57.8223,32.819 55.1513,30.544 55.2913,26.756 C55.3663,24.724 56.2283,22.842 57.7183,21.458 C59.2083,20.074 61.1493,19.353 63.1813,19.428 C67.3763,19.583 70.6633,23.123 70.5083,27.318 C70.3743,30.954 67.7203,33.006 63.1973,33.006" id="Fill-182" fill="#354546" mask="url(#mask-4)"></path>
                <path d="M67.3225,27.2004 C67.2325,29.6424 65.1785,29.9004 62.7365,29.8094 C60.2935,29.7194 58.3865,29.3164 58.4775,26.8734 C58.5675,24.4304 60.6205,22.5244 63.0635,22.6144 C65.5065,22.7044 67.4125,24.7584 67.3225,27.2004" id="Fill-183" fill="#19B5FE" mask="url(#mask-4)"></path>
                <path d="M65.6492,25.6677 C65.5932,27.1867 64.4182,27.7497 62.8992,27.6937 C61.3812,27.6377 60.0942,26.9827 60.1502,25.4647 C60.2072,23.9467 61.4832,22.7607 63.0022,22.8167 C64.5202,22.8737 65.7052,24.1497 65.6492,25.6677" id="Fill-184" fill="#39D5FF" mask="url(#mask-4)"></path>
                <path d="M62.8982,23.361 C60.9332,23.361 59.2992,24.922 59.2272,26.901 C59.1692,28.454 59.9962,28.958 62.7642,29.06 C63.6942,29.095 64.8592,29.092 65.6142,28.766 C66.0662,28.571 66.5342,28.229 66.5732,27.173 C66.6482,25.147 65.0612,23.439 63.0352,23.364 C62.9902,23.362 62.9432,23.361 62.8982,23.361 M63.4782,30.575 C63.2172,30.575 62.9592,30.569 62.7092,30.559 C61.0492,30.498 57.5972,30.37 57.7282,26.846 C57.8332,23.994 60.2402,21.76 63.0912,21.865 C65.9432,21.97 68.1772,24.376 68.0722,27.228 L67.3222,27.2 L68.0722,27.228 C68.0192,28.652 67.3932,29.632 66.2092,30.143 C65.4062,30.49 64.4222,30.575 63.4782,30.575" id="Fill-185" fill="#354546" mask="url(#mask-4)"></path>
                <path d="M61.1931,27.6701 C61.1721,28.2461 60.6871,28.6961 60.1101,28.6751 C59.5341,28.6541 59.0841,28.1701 59.1051,27.5921 C59.1261,27.0161 59.6111,26.5661 60.1881,26.5871 C60.7641,26.6081 61.2141,27.0931 61.1931,27.6701" id="Fill-186" fill="#354546" mask="url(#mask-4)"></path>
                <path d="M64.0403,24.093 C64.3213,24.721 63.4423,25.259 62.2913,25.774 C61.1413,26.288 60.1553,26.586 59.8733,25.958 C59.5923,25.329 60.2973,24.402 61.4473,23.887 C62.5983,23.372 63.7593,23.464 64.0403,24.093" id="Fill-187" fill="#FFFFFF" mask="url(#mask-4)"></path>
                <path d="M64.3577,28.5871 C64.2847,28.4241 64.5127,28.2851 64.8117,28.1511 C65.1097,28.0171 65.3657,27.9401 65.4387,28.1031 C65.5117,28.2661 65.3287,28.5071 65.0307,28.6411 C64.7317,28.7741 64.4307,28.7511 64.3577,28.5871" id="Fill-188" fill="#FFFFFF" mask="url(#mask-4)"></path>
                <path d="M37.8738,35.9782 C38.2038,41.9362 43.8748,46.5092 50.5398,46.1922 C57.2048,45.8752 62.3398,40.7892 62.0088,34.8312 L37.8738,35.9782 Z" id="Fill-189" fill="#FFFFFF" mask="url(#mask-4)"></path>
                <path d="M38.696,36.6901 C39.42,41.8571 44.545,45.7251 50.504,45.4431 C53.736,45.2891 56.753,43.9121 58.781,41.6631 C60.34,39.9351 61.209,37.8121 61.27,35.6171 L38.696,36.6901 Z M49.891,46.9581 C43.125,46.9581 37.466,42.1721 37.125,36.0201 C37.113,35.8201 37.183,35.6241 37.317,35.4761 C37.451,35.3271 37.638,35.2381 37.838,35.2291 L61.973,34.0821 C62.386,34.0621 62.735,34.3781 62.758,34.7891 C62.916,37.6481 61.9,40.4451 59.895,42.6681 C57.6,45.2111 54.203,46.7691 50.575,46.9411 C50.346,46.9521 50.117,46.9581 49.891,46.9581 L49.891,46.9581 Z" id="Fill-190" fill="#354546" mask="url(#mask-4)"></path>
                <path d="M43.2869,44.8435 C42.8829,44.8435 42.5499,44.5225 42.5379,44.1155 L42.2869,35.7555 C42.2749,35.3415 42.5999,34.9955 43.0139,34.9835 C43.4289,34.9695 43.7739,35.2965 43.7869,35.7105 L44.0369,44.0715 C44.0499,44.4855 43.7239,44.8305 43.3099,44.8435 L43.2869,44.8435" id="Fill-191" fill="#354546" mask="url(#mask-4)"></path>
                <path d="M49.6833,46.9558 L49.6793,46.9558 C49.2653,46.9538 48.9313,46.6158 48.9333,46.2018 L48.9883,35.4468 C48.9903,35.0338 49.3253,34.6998 49.7383,34.6998 L49.7423,34.6998 C50.1563,34.7028 50.4903,35.0398 50.4883,35.4538 L50.4333,46.2098 C50.4313,46.6228 50.0963,46.9558 49.6833,46.9558" id="Fill-192" fill="#354546" mask="url(#mask-4)"></path>
                <path d="M56.2327,44.8801 L56.2217,44.8801 C55.8077,44.8741 55.4767,44.5331 55.4827,44.1191 L55.6117,35.1241 C55.6177,34.7101 55.9567,34.3761 56.3717,34.3851 C56.7867,34.3911 57.1167,34.7321 57.1107,35.1461 L56.9827,44.1411 C56.9767,44.5511 56.6417,44.8801 56.2327,44.8801" id="Fill-193" fill="#354546" mask="url(#mask-4)"></path>
            </g>
        </g>
    </g>
</svg>