<?xml version="1.0" encoding="UTF-8"?>
<svg width="64px" height="62px" viewBox="0 0 64 62" version="1.1" xmlns="http://www.w3.org/2000/svg" xmlns:xlink="http://www.w3.org/1999/xlink">
    <!-- Generator: Sketch 43 (38999) - http://www.bohemiancoding.com/sketch -->
    <title>31</title>
    <desc>Created with Sketch.</desc>
    <defs>
        <path d="M63.267,4.138 C63.267,6.242 49.105,7.95 31.634,7.95 C14.163,7.95 0,6.242 0,4.138 C0,2.034 14.163,0.326 31.634,0.326 C49.105,0.326 63.267,2.034 63.267,4.138" id="path-1"></path>
    </defs>
    <g id="Page-1" stroke="none" stroke-width="1" fill="none" fill-rule="evenodd">
        <g id="1024" transform="translate(-383.000000, -430.000000)">
            <g id="31" transform="translate(383.000000, 430.000000)">
                <g id="Group" transform="translate(0.000000, 54.000000)">
                    <g id="Group-2">
                        <mask id="mask-2" fill="white">
                            <use xlink:href="#path-1"></use>
                        </mask>
                        <use id="Mask" fill="#CCCCCC" xlink:href="#path-1"></use>
                        <g mask="url(#mask-2)">
                            <g transform="translate(26.000000, 0.000000)">
                                <polygon id="Fill-7" fill="#758586" points="1 8.503 10.343 8.503 10.343 0 1 0"></polygon>
                                <path d="M1.5,8.503 L9.343,8.503 L9.343,1.5 L1.5,1.5 L1.5,8.503 Z M10.093,10.003 L0.75,10.003 C0.336,10.003 0,9.667 0,9.253 L0,0.75 C0,0.336 0.336,0 0.75,0 L10.093,0 C10.507,0 10.843,0.336 10.843,0.75 L10.843,9.253 C10.843,9.667 10.507,10.003 10.093,10.003 L10.093,10.003 Z" id="Fill-8" fill="#354546"></path>
                                <path d="M10.0939859,6.0011731 C10.0799859,6.0011731 10.0669859,6.0011731 10.0529859,6.0001731 L0.709985929,5.4991731 C0.296985929,5.4771731 -0.020014071,5.1231731 0.000985929011,4.7091731 C0.023985929,4.2961731 0.376985929,3.9781731 0.789985929,4.0011731 L10.1329859,4.5021731 C10.5469859,4.5241731 10.8649859,4.8781731 10.8419859,5.2911731 C10.8209859,5.6911731 10.4899859,6.0011731 10.0939859,6.0011731" id="Fill-9" fill="#354546"></path>
                            </g>
                        </g>
                    </g>
                </g>
                <path d="M53.6457,21.1125 C53.6347,21.1125 53.6247,21.1125 53.6137,21.1115 C53.1997,21.0935 52.8777,20.7445 52.8957,20.3305 L53.3257,10.2095 C53.4617,6.4935 50.5477,3.3555 46.8287,3.2175 C46.8217,3.2175 46.8147,3.2175 46.8077,3.2165 L20.7477,1.5055 C17.0317,1.3735 13.9007,4.2855 13.7627,8.0015 L13.3337,18.8755 C13.3177,19.2895 12.9707,19.6095 12.5547,19.5945 C12.1407,19.5785 11.8187,19.2295 11.8347,18.8155 L12.2647,7.9435 C12.4317,3.3995 16.2697,-0.1635 20.8137,0.0065 C20.8207,0.0065 20.8277,0.0075 20.8347,0.0075 L46.8957,1.7195 C51.4357,1.8935 54.9917,5.7255 54.8247,10.2675 L54.3947,20.3945 C54.3767,20.7975 54.0447,21.1125 53.6457,21.1125" id="Fill-126" fill="#354546"></path>
                <path d="M8.302,19.7639 C7.008,19.7159 5.9,21.0269 5.838,22.6749 L5.464,32.8089 C5.404,34.4569 6.411,35.8459 7.705,35.8939 C8.999,35.9419 10.058,35.9809 10.058,35.9809 L10.654,19.8509 C10.654,19.8509 9.595,19.8119 8.302,19.7639" id="Fill-127" fill="#A5B5B6"></path>
                <path d="M5.8381,22.675 L5.6551,27.635 L10.3591,27.809 L10.6531,19.851 C10.6531,19.851 9.5951,19.812 8.3021,19.764 C7.0081,19.716 5.9001,21.027 5.8381,22.675" id="Fill-128" fill="#C5D5D6"></path>
                <path d="M10.0305,36.7297 L7.6775,36.6427 C6.8295,36.6117 6.0245,36.1567 5.4695,35.3927 C4.9475,34.6727 4.6785,33.7457 4.7155,32.7817 L5.0895,22.6477 C5.1655,20.5817 6.6195,18.9537 8.3295,19.0137 L10.6815,19.1007 L10.6265,20.6007 L8.2735,20.5137 C8.2595,20.5127 8.2465,20.5127 8.2335,20.5127 C7.3815,20.5127 6.6325,21.5027 6.5885,22.7027 L6.2135,32.8357 C6.1905,33.4587 6.3615,34.0687 6.6835,34.5107 C6.9695,34.9047 7.3425,35.1297 7.7335,35.1437 L10.0855,35.2307 L10.0305,36.7297 Z" id="Fill-129" fill="#354546"></path>
                <polygon id="Fill-130" fill="#859596" points="14.3733 38.5393 9.9693 38.3763 10.6933 18.7753 15.0983 18.9383"></polygon>
                <polygon id="Fill-131" fill="#A5B5B6" points="14.6838 30.1526 10.2798 29.9906 10.6938 18.7756 15.0978 18.9386"></polygon>
                <path d="M10.7463,37.6545 L13.6513,37.7615 L14.3203,19.6605 L11.4153,19.5525 L10.7463,37.6545 Z M14.3733,39.2895 L14.3463,39.2895 L9.9413,39.1265 C9.5273,39.1105 9.2043,38.7625 9.2203,38.3485 L9.9433,18.7485 C9.9593,18.3345 10.3063,18.0155 10.7213,18.0255 L15.1253,18.1885 C15.3243,18.1965 15.5123,18.2825 15.6463,18.4275 C15.7823,18.5735 15.8543,18.7665 15.8473,18.9665 L15.1233,38.5665 C15.1153,38.7655 15.0293,38.9535 14.8843,39.0895 C14.7453,39.2175 14.5623,39.2895 14.3733,39.2895 L14.3733,39.2895 Z" id="Fill-132" fill="#354546"></path>
                <path d="M5.6555,28.385 L5.6535,28.385 L3.8525,28.381 C3.4385,28.38 3.1035,28.044 3.1035,27.63 C3.1045,27.216 3.4405,26.881 3.8535,26.881 L3.8555,26.881 L5.6565,26.885 C6.0705,26.886 6.4065,27.222 6.4055,27.636 C6.4045,28.05 6.0685,28.385 5.6555,28.385" id="Fill-133" fill="#354546"></path>
                <path d="M60.7297,10.5559 C60.6437,10.5559 60.5567,10.5449 60.4697,10.5229 C59.9077,10.3799 59.5687,9.8079 59.7107,9.2459 L60.4887,6.1979 C60.6307,5.6359 61.2027,5.2959 61.7647,5.4399 C62.3267,5.5819 62.6667,6.1549 62.5227,6.7159 L61.7467,9.7649 C61.6257,10.2399 61.1987,10.5559 60.7297,10.5559" id="Fill-134" fill="#354546"></path>
                <path d="M57.6516,22.3372 C57.5896,22.3372 57.5276,22.3302 57.4656,22.3142 C57.0646,22.2122 56.8216,21.8042 56.9236,21.4012 L60.0026,9.3202 C60.1046,8.9182 60.5126,8.6762 60.9146,8.7782 C61.3156,8.8812 61.5576,9.2892 61.4556,9.6912 L58.3776,21.7732 C58.2916,22.1112 57.9866,22.3372 57.6516,22.3372" id="Fill-135" fill="#354546"></path>
                <path d="M57.6506,21.5872 C58.9446,21.6352 59.9536,23.0232 59.8926,24.6722 L59.5176,34.8062 C59.4576,36.4542 58.3486,37.7652 57.0546,37.7172 C55.7606,37.6692 54.7026,37.6302 54.7026,37.6302 L55.2986,21.5002 C55.2986,21.5002 56.3566,21.5392 57.6506,21.5872" id="Fill-136" fill="#A5B5B6"></path>
                <path d="M59.8928,24.6721 L59.7088,29.6321 L55.0048,29.4581 L55.2988,21.5001 C55.2988,21.5001 56.3568,21.5391 57.6508,21.5871 C58.9448,21.6351 59.9538,23.0231 59.8928,24.6721" id="Fill-137" fill="#C5D5D6"></path>
                <path d="M57.1213,38.468 C57.0903,38.468 57.0593,38.467 57.0273,38.466 L54.6753,38.379 L54.7303,36.88 L57.0823,36.967 C57.4723,36.986 57.8613,36.785 58.1763,36.413 C58.5293,35.995 58.7453,35.4 58.7683,34.779 L59.1423,24.645 C59.1663,24.023 58.9943,23.412 58.6733,22.97 C58.3873,22.576 58.0143,22.351 57.6233,22.337 L55.2703,22.249 C54.8563,22.235 54.5333,21.887 54.5493,21.473 C54.5643,21.059 54.9133,20.731 55.3263,20.751 L57.6793,20.838 C58.5263,20.869 59.3313,21.324 59.8863,22.088 C60.4093,22.808 60.6783,23.736 60.6423,24.699 L60.2673,34.833 C60.2313,35.798 59.8953,36.703 59.3213,37.382 C58.7343,38.075 57.9363,38.468 57.1213,38.468" id="Fill-138" fill="#354546"></path>
                <polygon id="Fill-139" fill="#859596" points="50.2102 39.8635 54.6142 40.0255 55.3382 20.4255 50.9342 20.2615"></polygon>
                <polygon id="Fill-140" fill="#A5B5B6" points="50.5198 31.4768 54.9238 31.6398 55.3378 20.4248 50.9338 20.2618"></polygon>
                <path d="M50.9875,39.1418 L53.8925,39.2488 L54.5605,21.1468 L51.6555,21.0388 L50.9875,39.1418 Z M54.6145,40.7758 L54.5865,40.7758 L50.1815,40.6128 C49.9835,40.6058 49.7965,40.5198 49.6605,40.3738 C49.5245,40.2278 49.4535,40.0348 49.4605,39.8348 L50.1845,20.2348 C50.1915,20.0368 50.2775,19.8478 50.4245,19.7128 C50.5695,19.5778 50.7645,19.5058 50.9625,19.5128 L55.3665,19.6748 C55.7805,19.6908 56.1025,20.0378 56.0885,20.4528 L55.3635,40.0538 C55.3485,40.4578 55.0155,40.7758 54.6145,40.7758 L54.6145,40.7758 Z" id="Fill-141" fill="#354546"></path>
                <path d="M61.5061,30.511 C61.4881,30.511 61.4701,30.511 61.4511,30.509 L59.6551,30.38 C59.2421,30.35 58.9311,29.991 58.9611,29.578 C58.9901,29.165 59.3511,28.857 59.7631,28.884 L61.5601,29.013 C61.9731,29.043 62.2831,29.402 62.2531,29.816 C62.2251,30.21 61.8961,30.511 61.5061,30.511" id="Fill-142" fill="#354546"></path>
                <path d="M14.3059,44.677 C13.2789,44.677 10.6709,45.791 9.5649,47.051 C8.6259,48.121 8.4759,49.907 9.2369,50.951 C9.5469,51.378 9.9569,51.615 10.4219,51.636 C10.9529,51.658 11.5099,51.387 11.9509,50.885 C12.4839,50.278 13.3969,48.898 14.0409,47.535 C14.8729,45.775 14.8409,44.963 14.7079,44.78 C14.6669,44.724 14.5379,44.686 14.3639,44.678 C14.3449,44.677 14.3259,44.677 14.3059,44.677 M10.4869,53.138 C10.4429,53.138 10.3979,53.137 10.3539,53.135 C9.4319,53.093 8.6049,52.631 8.0239,51.834 C6.8409,50.21 7.0229,47.675 8.4379,46.062 C9.4589,44.897 12.3879,43.177 14.2949,43.177 C14.3409,43.177 14.3869,43.178 14.4319,43.18 C15.2579,43.217 15.6979,43.59 15.9199,43.897 C16.5329,44.737 16.3619,46.137 15.3969,48.176 C14.6869,49.678 13.6939,51.173 13.0779,51.874 C12.3689,52.682 11.4309,53.138 10.4869,53.138" id="Fill-143" fill="#19B5FE"></path>
                <path d="M47.2121,42.634 L47.2141,42.634 L47.2121,42.634 Z M48.7341,42.899 C48.2771,42.899 47.9241,42.974 47.7561,43.151 C47.6311,43.281 47.6381,43.542 47.6651,43.738 C47.8371,44.976 49.1801,46.729 49.9311,47.173 C50.8911,47.74 52.4511,47.43 53.3401,46.494 C53.7671,46.046 53.9731,45.52 53.9071,45.05 C53.8561,44.675 53.6351,44.363 53.2701,44.147 C52.2031,43.517 50.0451,42.899 48.7341,42.899 L48.7341,42.899 Z M51.0771,48.959 C50.3971,48.959 49.7331,48.799 49.1671,48.464 C48.0031,47.776 46.4101,45.606 46.1801,43.946 C46.0471,42.999 46.3721,42.429 46.6681,42.117 C48.2941,40.406 52.9821,42.235 54.0331,42.856 C54.7941,43.307 55.2771,44.012 55.3941,44.843 C55.5231,45.767 55.1701,46.745 54.4281,47.528 C53.5451,48.456 52.2821,48.959 51.0771,48.959 L51.0771,48.959 Z" id="Fill-144" fill="#19B5FE"></path>
                <path d="M7.9368,41.7395 C7.5258,41.7395 7.1718,41.7705 6.9108,41.8355 C5.2918,42.2325 4.2148,44.0845 4.5098,45.9615 C4.6598,46.9125 5.1508,47.7285 5.8598,48.2005 C6.4498,48.5935 7.1518,48.7165 7.8348,48.5495 C8.7328,48.3285 10.4508,47.5825 11.8668,46.6335 C13.3368,45.6475 14.1548,44.6735 14.0528,44.0265 C13.9928,43.6425 13.5908,43.3035 13.2648,43.0875 C11.9378,42.2035 9.5128,41.7395 7.9368,41.7395 M7.2318,50.1235 C6.4568,50.1235 5.6978,49.8935 5.0288,49.4485 C3.9708,48.7455 3.2428,47.5585 3.0278,46.1935 C2.6158,43.5665 4.1968,40.9575 6.5528,40.3795 C8.3108,39.9465 12.1378,40.5355 14.0958,41.8385 C14.9348,42.3955 15.4178,43.0535 15.5348,43.7945 C16.0008,46.7605 10.1248,49.5315 8.1938,50.0055 C7.8738,50.0845 7.5508,50.1235 7.2318,50.1235" id="Fill-145" fill="#719911"></path>
                <path d="M49.8586,47.3108 C49.7066,51.4328 46.2076,54.7908 42.0826,54.7738 L20.4626,54.6838 C16.3376,54.6668 13.2246,51.2888 13.5456,47.1758 L15.9336,13.3298 C16.2546,9.2168 19.8796,6.1358 23.9906,6.4838 L43.7586,8.1548 C47.8696,8.5008 51.1076,12.1588 50.9556,16.2808 L49.8586,47.3108 Z" id="Fill-146" fill="#A5B5B6"></path>
                <path d="M46.4338,41.0168 C46.3218,44.0478 43.5178,46.5088 40.2048,46.4868 L22.8328,46.3668 C19.5188,46.3428 17.0098,43.8498 17.2568,40.8268 L19.0938,16.9308 C19.3408,13.9068 22.2468,11.6498 25.5498,11.9148 L41.4378,13.1938 C44.7408,13.4598 47.3518,16.1578 47.2398,19.1898 L46.4338,41.0168 Z" id="Fill-147" fill="#C5D5D6"></path>
                <path d="M43.6555,51.4358 L20.1625,51.2768 C17.2465,51.2558 14.7935,49.8158 13.5255,47.6788 C13.4855,51.5598 16.5075,54.6678 20.4625,54.6838 L42.0825,54.7738 C45.5415,54.7888 48.5595,52.4278 49.5335,49.2348 C48.0025,50.6058 45.9175,51.4508 43.6555,51.4358" id="Fill-148" fill="#859596"></path>
                <path d="M43.717,52.1858 L43.651,52.1858 L20.156,52.0268 C17.062,52.0048 14.341,50.5238 12.881,48.0618 C12.669,47.7058 12.786,47.2458 13.143,47.0348 C13.499,46.8238 13.959,46.9408 14.171,47.2958 C15.361,49.3018 17.602,50.5088 20.167,50.5268 L43.66,50.6858 L43.717,50.6858 C45.698,50.6858 47.584,49.9728 49.033,48.6758 C49.343,48.3998 49.817,48.4258 50.093,48.7348 C50.369,49.0428 50.343,49.5178 50.034,49.7938 C48.309,51.3368 46.068,52.1858 43.717,52.1858" id="Fill-149" fill="#354546"></path>
                <path d="M49.8586,47.3108 L49.8606,47.3108 L49.8586,47.3108 Z M23.3546,7.2068 C21.7706,7.2068 20.2526,7.7638 19.0266,8.8058 C17.6536,9.9718 16.8206,11.5998 16.6806,13.3878 L14.2946,47.2288 C14.1546,49.0128 14.7206,50.6908 15.8886,51.9578 C17.0556,53.2248 18.6816,53.9268 20.4646,53.9338 L42.0856,54.0238 L42.1136,54.0238 C45.8376,54.0238 48.9716,51.0058 49.1096,47.2828 L50.2056,16.2538 C50.3436,12.5138 47.4226,9.2168 43.6956,8.9018 L23.9266,7.2308 C23.7356,7.2148 23.5446,7.2068 23.3546,7.2068 L23.3546,7.2068 Z M42.1136,55.5238 L42.0786,55.5238 L20.4596,55.4338 C18.2536,55.4248 16.2386,54.5518 14.7856,52.9738 C13.3326,51.3968 12.6266,49.3168 12.7976,47.1178 L15.1856,13.2768 C15.3566,11.0818 16.3756,9.0898 18.0546,7.6628 C19.7346,6.2358 21.8656,5.5518 24.0526,5.7368 L43.8216,7.4068 C48.3366,7.7888 51.8726,11.7818 51.7056,16.3078 L50.6086,47.3368 C50.4416,51.8588 46.6336,55.5238 42.1136,55.5238 L42.1136,55.5238 Z" id="Fill-150" fill="#354546"></path>
                <path d="M33.3323,16.2961 C29.2253,16.2961 24.3283,15.0341 24.3283,9.0251 C24.3283,8.0811 24.4493,7.4551 24.6893,6.5621 C24.7973,6.1621 25.2083,5.9251 25.6083,6.0321 C26.0093,6.1401 26.2463,6.5511 26.1393,6.9511 C25.9243,7.7501 25.8283,8.2391 25.8283,9.0251 C25.8283,10.4521 25.8283,14.7961 33.3323,14.7961 C40.8683,14.7961 40.8683,10.4521 40.8683,9.0251 C40.8683,8.7061 40.8533,8.3861 40.8193,8.0721 C40.7773,7.6601 41.0773,7.2911 41.4893,7.2491 C41.9023,7.2071 42.2703,7.5061 42.3113,7.9181 C42.3503,8.2831 42.3683,8.6551 42.3683,9.0251 C42.3683,12.3421 40.8013,16.2961 33.3323,16.2961" id="Fill-151" fill="#354546"></path>
                <path d="M28.55,25.9426 C28.384,30.4136 24.626,33.9036 20.156,33.7386 C15.686,33.5736 12.196,29.8156 12.361,25.3446 C12.526,20.8746 16.283,17.3836 20.754,17.5496 C25.225,17.7146 28.715,21.4726 28.55,25.9426" id="Fill-152" fill="#C5D5D6"></path>
                <path d="M20.4485,18.2942 C18.5885,18.2942 16.8235,18.9852 15.4535,20.2582 C14.0145,21.5952 13.1825,23.4102 13.1105,25.3722 C13.0375,27.3342 13.7335,29.2072 15.0695,30.6462 C16.4055,32.0842 18.2215,32.9162 20.1835,32.9882 C22.1475,33.0622 24.0185,32.3652 25.4575,31.0292 C26.8955,29.6932 27.7275,27.8772 27.8005,25.9152 L28.5505,25.9432 L27.8005,25.9152 C27.8725,23.9532 27.1775,22.0802 25.8415,20.6422 C24.5055,19.2032 22.6885,18.3712 20.7265,18.2992 C20.6345,18.2952 20.5405,18.2942 20.4485,18.2942 M20.4635,34.4942 C20.3515,34.4942 20.2405,34.4922 20.1285,34.4872 C17.7655,34.4002 15.5795,33.3982 13.9695,31.6662 C12.3615,29.9352 11.5235,27.6802 11.6115,25.3172 C11.6985,22.9552 12.7005,20.7682 14.4325,19.1592 C16.1645,17.5512 18.4195,16.7132 20.7815,16.8002 C23.1435,16.8872 25.3315,17.8892 26.9395,19.6212 C28.5485,21.3542 29.3865,23.6082 29.2995,25.9712 C29.2125,28.3332 28.2105,30.5202 26.4775,32.1292 C24.8275,33.6612 22.7035,34.4942 20.4635,34.4942" id="Fill-153" fill="#354546"></path>
                <path d="M25.6741,25.8372 C25.5681,28.7192 23.1451,30.9702 20.2621,30.8632 C17.3801,30.7572 15.1291,28.3332 15.2361,25.4512 C15.3421,22.5682 17.7661,20.3182 20.6481,20.4252 C23.5301,20.5312 25.7801,22.9542 25.6741,25.8372" id="Fill-154" fill="#9ABD45"></path>
                <path d="M23.7561,24.2346 C23.6901,26.0266 22.1841,27.4256 20.3921,27.3596 C18.6001,27.2936 17.2011,25.7876 17.2681,23.9956 C17.3331,22.2036 18.8401,20.8046 20.6311,20.8716 C22.4231,20.9366 23.8221,22.4436 23.7561,24.2346" id="Fill-155" fill="#CEEC87"></path>
                <path d="M20.4514,21.1711 C19.3184,21.1711 18.2454,21.5921 17.4114,22.3661 C16.5364,23.1801 16.0294,24.2851 15.9854,25.4791 C15.9414,26.6731 16.3644,27.8131 17.1784,28.6881 C17.9904,29.5631 19.0964,30.0691 20.2904,30.1131 C21.4834,30.1601 22.6234,29.7341 23.4994,28.9211 C24.3744,28.1081 24.8814,27.0031 24.9254,25.8091 C24.9694,24.6151 24.5454,23.4761 23.7324,22.6001 C22.9194,21.7251 21.8134,21.2181 20.6204,21.1741 C20.5634,21.1721 20.5074,21.1711 20.4514,21.1711 M20.4584,31.6161 C20.3844,31.6161 20.3094,31.6151 20.2344,31.6121 C18.6394,31.5541 17.1644,30.8771 16.0784,29.7081 C14.9934,28.5391 14.4284,27.0181 14.4864,25.4241 C14.6074,22.1321 17.3824,19.5601 20.6764,19.6751 C22.2694,19.7341 23.7464,20.4101 24.8314,21.5791 C25.9174,22.7481 26.4824,24.2711 26.4244,25.8641 C26.3054,29.0811 23.6504,31.6161 20.4584,31.6161" id="Fill-156" fill="#354546"></path>
                <path d="M21.801,22.1692 C22.133,22.9112 21.096,23.5452 19.738,24.1522 C18.38,24.7612 17.216,25.1112 16.884,24.3702 C16.552,23.6282 17.384,22.5342 18.741,21.9272 C20.099,21.3182 21.469,21.4282 21.801,22.1692" id="Fill-157" fill="#FFFFFF"></path>
                <path d="M20.8645,29.3499 C20.7775,29.1579 21.0475,28.9939 21.3995,28.8349 C21.7525,28.6779 22.0535,28.5859 22.1395,28.7789 C22.2265,28.9719 22.0105,29.2549 21.6585,29.4129 C21.3055,29.5709 20.9505,29.5419 20.8645,29.3499" id="Fill-158" fill="#FFFFFF"></path>
                <path d="M25.258,25.7825 C25.234,26.4635 24.661,26.9945 23.981,26.9695 C23.3,26.9445 22.769,26.3725 22.794,25.6915 C22.82,25.0115 23.391,24.4795 24.071,24.5055 C24.752,24.5305 25.283,25.1015 25.258,25.7825" id="Fill-159" fill="#354546"></path>
                <path d="M51.3879,27.2903 C51.2479,31.0783 48.0639,32.3863 44.2759,32.2463 C40.4879,32.1063 37.5299,30.5713 37.6689,26.7833 C37.8099,22.9953 40.9939,20.0383 44.7829,20.1783 C48.5709,20.3173 51.5279,23.5023 51.3879,27.2903" id="Fill-160" fill="#C5D5D6"></path>
                <path d="M44.5227,20.9231 C42.9757,20.9231 41.5077,21.4981 40.3687,22.5571 C39.1707,23.6681 38.4797,25.1791 38.4187,26.8111 C38.3627,28.3521 38.8607,29.4861 39.9427,30.2771 C40.9387,31.0071 42.4467,31.4281 44.3027,31.4961 C49.4037,31.6871 50.5637,29.2981 50.6387,27.2631 C50.6987,25.6311 50.1207,24.0721 49.0087,22.8761 C47.8977,21.6801 46.3857,20.9871 44.7537,20.9271 C44.6767,20.9241 44.5997,20.9231 44.5227,20.9231 M44.8257,33.0061 C44.6357,33.0061 44.4437,33.0031 44.2477,32.9951 C42.0597,32.9151 40.3127,32.4071 39.0567,31.4881 C37.5847,30.4111 36.8457,28.7751 36.9197,26.7561 C36.9957,24.7241 37.8577,22.8421 39.3467,21.4581 C40.8377,20.0741 42.7777,19.3531 44.8097,19.4281 C46.8417,19.5031 48.7237,20.3651 50.1077,21.8561 C51.4917,23.3461 52.2117,25.2851 52.1377,27.3181 C52.0027,30.9541 49.3477,33.0061 44.8257,33.0061" id="Fill-161" fill="#354546"></path>
                <path d="M48.9514,27.2004 C48.8614,29.6424 46.8074,29.8994 44.3654,29.8094 C41.9234,29.7204 40.0154,29.3164 40.1054,26.8734 C40.1964,24.4304 42.2494,22.5234 44.6924,22.6144 C47.1354,22.7044 49.0424,24.7584 48.9514,27.2004" id="Fill-162" fill="#19B5FE"></path>
                <path d="M47.2776,25.6672 C47.2216,27.1862 46.0476,27.7492 44.5286,27.6932 C43.0096,27.6382 41.7236,26.9822 41.7796,25.4642 C41.8366,23.9462 43.1116,22.7612 44.6306,22.8162 C46.1486,22.8732 47.3346,24.1492 47.2776,25.6672" id="Fill-163" fill="#39D5FF"></path>
                <path d="M44.5256,23.3616 C43.5946,23.3616 42.7136,23.7076 42.0276,24.3436 C41.3076,25.0116 40.8916,25.9206 40.8556,26.9016 C40.7976,28.4536 41.6246,28.9586 44.3926,29.0596 C47.5336,29.1776 48.1536,28.4866 48.2026,27.1736 C48.2766,25.1476 46.6896,23.4386 44.6646,23.3636 C44.6186,23.3626 44.5716,23.3616 44.5256,23.3616 M45.2046,30.5796 C44.8856,30.5796 44.5906,30.5686 44.3386,30.5586 C42.6786,30.4986 39.2266,30.3706 39.3566,26.8456 C39.4626,23.9946 41.8676,21.7606 44.7196,21.8646 C47.5716,21.9696 49.8056,24.3766 49.7016,27.2276 C49.5896,30.2256 47.0156,30.5796 45.2046,30.5796" id="Fill-164" fill="#354546"></path>
                <path d="M45.6692,24.093 C45.9502,24.721 45.0712,25.258 43.9212,25.774 C42.7712,26.288 41.7842,26.586 41.5022,25.957 C41.2212,25.329 41.9262,24.402 43.0762,23.887 C44.2272,23.372 45.3882,23.464 45.6692,24.093" id="Fill-165" fill="#FFFFFF"></path>
                <path d="M45.9866,28.5872 C45.9136,28.4242 46.1416,28.2842 46.4396,28.1512 C46.7386,28.0182 46.9946,27.9412 47.0676,28.1042 C47.1406,28.2672 46.9586,28.5072 46.6596,28.6412 C46.3606,28.7742 46.0596,28.7502 45.9866,28.5872" id="Fill-166" fill="#FFFFFF"></path>
                <path d="M42.6116,27.0051 C42.5906,27.5811 42.1056,28.0311 41.5296,28.0101 C40.9526,27.9891 40.5026,27.5041 40.5236,26.9281 C40.5456,26.3511 41.0296,25.9011 41.6066,25.9221 C42.1826,25.9431 42.6326,26.4281 42.6116,27.0051" id="Fill-167" fill="#354546"></path>
                <path d="M20.591,40.6379 L43.336,35.5559 C43.336,35.5559 44.615,42.5629 39.083,44.6079 C29.342,48.2079 20.591,40.6379 20.591,40.6379" id="Fill-168" fill="#FFFFFF"></path>
                <path d="M20.591,40.6379 L20.592,40.6379 L20.591,40.6379 Z M22.344,41.0149 C23.297,41.6689 24.742,42.5519 26.519,43.2999 C30.842,45.1209 34.982,45.3239 38.823,43.9049 C42.676,42.4799 42.807,38.2329 42.685,36.4699 L22.344,41.0149 Z M33.635,46.3219 C31.108,46.3219 28.497,45.7669 25.892,44.6629 C22.417,43.1919 20.194,41.2859 20.101,41.2049 C19.886,41.0199 19.794,40.7299 19.863,40.4549 C19.933,40.1799 20.151,39.9679 20.427,39.9069 L43.173,34.8249 C43.372,34.7799 43.581,34.8189 43.751,34.9309 C43.921,35.0429 44.037,35.2209 44.074,35.4209 C44.088,35.4979 44.414,37.3329 44.022,39.4509 C43.485,42.3519 41.867,44.3779 39.344,45.3109 C37.52,45.9849 35.603,46.3219 33.635,46.3219 L33.635,46.3219 Z" id="Fill-169" fill="#354546"></path>
                <path d="M27.0159,45.0559 C26.6409,45.0559 26.3169,44.7749 26.2719,44.3939 L25.6869,39.4209 C25.6389,39.0099 25.9329,38.6369 26.3439,38.5879 C26.7549,38.5409 27.1279,38.8339 27.1769,39.2449 L27.7619,44.2179 C27.8099,44.6289 27.5159,45.0019 27.1049,45.0509 C27.0749,45.0539 27.0449,45.0559 27.0159,45.0559" id="Fill-170" fill="#354546"></path>
                <path d="M32.466,46.0657 C32.064,46.0657 31.732,45.7467 31.717,45.3417 L31.461,38.0687 C31.447,37.6547 31.771,37.3067 32.185,37.2927 C32.595,37.2767 32.946,37.6017 32.96,38.0157 L33.216,45.2897 C33.231,45.7037 32.906,46.0497 32.492,46.0647 C32.484,46.0647 32.475,46.0657 32.466,46.0657" id="Fill-171" fill="#354546"></path>
                <path d="M38.0334,45.3577 C37.6234,45.3577 37.2884,45.0267 37.2834,44.6157 L37.1994,36.7677 C37.1954,36.3537 37.5274,36.0137 37.9414,36.0097 L37.9504,36.0097 C38.3604,36.0097 38.6954,36.3397 38.6994,36.7527 L38.7834,44.5997 C38.7884,45.0137 38.4564,45.3527 38.0414,45.3577 L38.0334,45.3577 Z" id="Fill-172" fill="#354546"></path>
            </g>
        </g>
    </g>
</svg>