<?xml version="1.0" encoding="UTF-8"?>
<svg width="60px" height="56px" viewBox="0 0 60 56" version="1.1" xmlns="http://www.w3.org/2000/svg" xmlns:xlink="http://www.w3.org/1999/xlink">
    <!-- Generator: Sketch 43 (38999) - http://www.bohemiancoding.com/sketch -->
    <title>31</title>
    <desc>Created with Sketch.</desc>
    <defs></defs>
    <g id="Page-1" stroke="none" stroke-width="1" fill="none" fill-rule="evenodd">
        <g id="1024" transform="translate(-387.000000, -436.000000)">
            <g id="31" transform="translate(386.000000, 436.000000)">
                <path d="M51.6457,21.1125 C51.6347,21.1125 51.6247,21.1125 51.6137,21.1115 C51.1997,21.0935 50.8777,20.7445 50.8957,20.3305 L51.3257,10.2095 C51.4617,6.4935 48.5477,3.3555 44.8287,3.2175 C44.8217,3.2175 44.8147,3.2175 44.8077,3.2165 L18.7477,1.5055 C15.0317,1.3735 11.9007,4.2855 11.7627,8.0015 L11.3337,18.8755 C11.3177,19.2895 10.9707,19.6095 10.5547,19.5945 C10.1407,19.5785 9.8187,19.2295 9.8347,18.8155 L10.2647,7.9435 C10.4317,3.3995 14.2697,-0.1635 18.8137,0.0065 C18.8207,0.0065 18.8277,0.0075 18.8347,0.0075 L44.8957,1.7195 C49.4357,1.8935 52.9917,5.7255 52.8247,10.2675 L52.3947,20.3945 C52.3767,20.7975 52.0447,21.1125 51.6457,21.1125" id="Fill-126" fill="#354546"></path>
                <path d="M6.302,19.7639 C5.008,19.7159 3.9,21.0269 3.838,22.6749 L3.464,32.8089 C3.404,34.4569 4.411,35.8459 5.705,35.8939 C6.999,35.9419 8.058,35.9809 8.058,35.9809 L8.654,19.8509 C8.654,19.8509 7.595,19.8119 6.302,19.7639" id="Fill-127" fill="#A5B5B6"></path>
                <path d="M3.8381,22.675 L3.6551,27.635 L8.3591,27.809 L8.6531,19.851 C8.6531,19.851 7.5951,19.812 6.3021,19.764 C5.0081,19.716 3.9001,21.027 3.8381,22.675" id="Fill-128" fill="#C5D5D6"></path>
                <path d="M8.0305,36.7297 L5.6775,36.6427 C4.8295,36.6117 4.0245,36.1567 3.4695,35.3927 C2.9475,34.6727 2.6785,33.7457 2.7155,32.7817 L3.0895,22.6477 C3.1655,20.5817 4.6195,18.9537 6.3295,19.0137 L8.6815,19.1007 L8.6265,20.6007 L6.2735,20.5137 C6.2595,20.5127 6.2465,20.5127 6.2335,20.5127 C5.3815,20.5127 4.6325,21.5027 4.5885,22.7027 L4.2135,32.8357 C4.1905,33.4587 4.3615,34.0687 4.6835,34.5107 C4.9695,34.9047 5.3425,35.1297 5.7335,35.1437 L8.0855,35.2307 L8.0305,36.7297 Z" id="Fill-129" fill="#354546"></path>
                <polygon id="Fill-130" fill="#859596" points="12.3733 38.5393 7.9693 38.3763 8.6933 18.7753 13.0983 18.9383"></polygon>
                <polygon id="Fill-131" fill="#A5B5B6" points="12.6838 30.1526 8.2798 29.9906 8.6938 18.7756 13.0978 18.9386"></polygon>
                <path d="M8.7463,37.6545 L11.6513,37.7615 L12.3203,19.6605 L9.4153,19.5525 L8.7463,37.6545 Z M12.3733,39.2895 L12.3463,39.2895 L7.9413,39.1265 C7.5273,39.1105 7.2043,38.7625 7.2203,38.3485 L7.9433,18.7485 C7.9593,18.3345 8.3063,18.0155 8.7213,18.0255 L13.1253,18.1885 C13.3243,18.1965 13.5123,18.2825 13.6463,18.4275 C13.7823,18.5735 13.8543,18.7665 13.8473,18.9665 L13.1233,38.5665 C13.1153,38.7655 13.0293,38.9535 12.8843,39.0895 C12.7453,39.2175 12.5623,39.2895 12.3733,39.2895 L12.3733,39.2895 Z" id="Fill-132" fill="#354546"></path>
                <path d="M3.6555,28.385 L3.6535,28.385 L1.8525,28.381 C1.4385,28.38 1.1035,28.044 1.1035,27.63 C1.1045,27.216 1.4405,26.881 1.8535,26.881 L1.8555,26.881 L3.6565,26.885 C4.0705,26.886 4.4065,27.222 4.4055,27.636 C4.4045,28.05 4.0685,28.385 3.6555,28.385" id="Fill-133" fill="#354546"></path>
                <path d="M58.7297,10.5559 C58.6437,10.5559 58.5567,10.5449 58.4697,10.5229 C57.9077,10.3799 57.5687,9.8079 57.7107,9.2459 L58.4887,6.1979 C58.6307,5.6359 59.2027,5.2959 59.7647,5.4399 C60.3267,5.5819 60.6667,6.1549 60.5227,6.7159 L59.7467,9.7649 C59.6257,10.2399 59.1987,10.5559 58.7297,10.5559" id="Fill-134" fill="#354546"></path>
                <path d="M55.6516,22.3372 C55.5896,22.3372 55.5276,22.3302 55.4656,22.3142 C55.0646,22.2122 54.8216,21.8042 54.9236,21.4012 L58.0026,9.3202 C58.1046,8.9182 58.5126,8.6762 58.9146,8.7782 C59.3156,8.8812 59.5576,9.2892 59.4556,9.6912 L56.3776,21.7732 C56.2916,22.1112 55.9866,22.3372 55.6516,22.3372" id="Fill-135" fill="#354546"></path>
                <path d="M55.6506,21.5872 C56.9446,21.6352 57.9536,23.0232 57.8926,24.6722 L57.5176,34.8062 C57.4576,36.4542 56.3486,37.7652 55.0546,37.7172 C53.7606,37.6692 52.7026,37.6302 52.7026,37.6302 L53.2986,21.5002 C53.2986,21.5002 54.3566,21.5392 55.6506,21.5872" id="Fill-136" fill="#A5B5B6"></path>
                <path d="M57.8928,24.6721 L57.7088,29.6321 L53.0048,29.4581 L53.2988,21.5001 C53.2988,21.5001 54.3568,21.5391 55.6508,21.5871 C56.9448,21.6351 57.9538,23.0231 57.8928,24.6721" id="Fill-137" fill="#C5D5D6"></path>
                <path d="M55.1213,38.468 C55.0903,38.468 55.0593,38.467 55.0273,38.466 L52.6753,38.379 L52.7303,36.88 L55.0823,36.967 C55.4723,36.986 55.8613,36.785 56.1763,36.413 C56.5293,35.995 56.7453,35.4 56.7683,34.779 L57.1423,24.645 C57.1663,24.023 56.9943,23.412 56.6733,22.97 C56.3873,22.576 56.0143,22.351 55.6233,22.337 L53.2703,22.249 C52.8563,22.235 52.5333,21.887 52.5493,21.473 C52.5643,21.059 52.9133,20.731 53.3263,20.751 L55.6793,20.838 C56.5263,20.869 57.3313,21.324 57.8863,22.088 C58.4093,22.808 58.6783,23.736 58.6423,24.699 L58.2673,34.833 C58.2313,35.798 57.8953,36.703 57.3213,37.382 C56.7343,38.075 55.9363,38.468 55.1213,38.468" id="Fill-138" fill="#354546"></path>
                <polygon id="Fill-139" fill="#859596" points="48.2102 39.8635 52.6142 40.0255 53.3382 20.4255 48.9342 20.2615"></polygon>
                <polygon id="Fill-140" fill="#A5B5B6" points="48.5198 31.4768 52.9238 31.6398 53.3378 20.4248 48.9338 20.2618"></polygon>
                <path d="M48.9875,39.1418 L51.8925,39.2488 L52.5605,21.1468 L49.6555,21.0388 L48.9875,39.1418 Z M52.6145,40.7758 L52.5865,40.7758 L48.1815,40.6128 C47.9835,40.6058 47.7965,40.5198 47.6605,40.3738 C47.5245,40.2278 47.4535,40.0348 47.4605,39.8348 L48.1845,20.2348 C48.1915,20.0368 48.2775,19.8478 48.4245,19.7128 C48.5695,19.5778 48.7645,19.5058 48.9625,19.5128 L53.3665,19.6748 C53.7805,19.6908 54.1025,20.0378 54.0885,20.4528 L53.3635,40.0538 C53.3485,40.4578 53.0155,40.7758 52.6145,40.7758 L52.6145,40.7758 Z" id="Fill-141" fill="#354546"></path>
                <path d="M59.5061,30.511 C59.4881,30.511 59.4701,30.511 59.4511,30.509 L57.6551,30.38 C57.2421,30.35 56.9311,29.991 56.9611,29.578 C56.9901,29.165 57.3511,28.857 57.7631,28.884 L59.5601,29.013 C59.9731,29.043 60.2831,29.402 60.2531,29.816 C60.2251,30.21 59.8961,30.511 59.5061,30.511" id="Fill-142" fill="#354546"></path>
                <path d="M12.3059,44.677 C11.2789,44.677 8.6709,45.791 7.5649,47.051 C6.6259,48.121 6.4759,49.907 7.2369,50.951 C7.5469,51.378 7.9569,51.615 8.4219,51.636 C8.9529,51.658 9.5099,51.387 9.9509,50.885 C10.4839,50.278 11.3969,48.898 12.0409,47.535 C12.8729,45.775 12.8409,44.963 12.7079,44.78 C12.6669,44.724 12.5379,44.686 12.3639,44.678 C12.3449,44.677 12.3259,44.677 12.3059,44.677 M8.4869,53.138 C8.4429,53.138 8.3979,53.137 8.3539,53.135 C7.4319,53.093 6.6049,52.631 6.0239,51.834 C4.8409,50.21 5.0229,47.675 6.4379,46.062 C7.4589,44.897 10.3879,43.177 12.2949,43.177 C12.3409,43.177 12.3869,43.178 12.4319,43.18 C13.2579,43.217 13.6979,43.59 13.9199,43.897 C14.5329,44.737 14.3619,46.137 13.3969,48.176 C12.6869,49.678 11.6939,51.173 11.0779,51.874 C10.3689,52.682 9.4309,53.138 8.4869,53.138" id="Fill-143" fill="#19B5FE"></path>
                <path d="M45.2121,42.634 L45.2141,42.634 L45.2121,42.634 Z M46.7341,42.899 C46.2771,42.899 45.9241,42.974 45.7561,43.151 C45.6311,43.281 45.6381,43.542 45.6651,43.738 C45.8371,44.976 47.1801,46.729 47.9311,47.173 C48.8911,47.74 50.4511,47.43 51.3401,46.494 C51.7671,46.046 51.9731,45.52 51.9071,45.05 C51.8561,44.675 51.6351,44.363 51.2701,44.147 C50.2031,43.517 48.0451,42.899 46.7341,42.899 L46.7341,42.899 Z M49.0771,48.959 C48.3971,48.959 47.7331,48.799 47.1671,48.464 C46.0031,47.776 44.4101,45.606 44.1801,43.946 C44.0471,42.999 44.3721,42.429 44.6681,42.117 C46.2941,40.406 50.9821,42.235 52.0331,42.856 C52.7941,43.307 53.2771,44.012 53.3941,44.843 C53.5231,45.767 53.1701,46.745 52.4281,47.528 C51.5451,48.456 50.2821,48.959 49.0771,48.959 L49.0771,48.959 Z" id="Fill-144" fill="#19B5FE"></path>
                <path d="M5.9368,41.7395 C5.5258,41.7395 5.1718,41.7705 4.9108,41.8355 C3.2918,42.2325 2.2148,44.0845 2.5098,45.9615 C2.6598,46.9125 3.1508,47.7285 3.8598,48.2005 C4.4498,48.5935 5.1518,48.7165 5.8348,48.5495 C6.7328,48.3285 8.4508,47.5825 9.8668,46.6335 C11.3368,45.6475 12.1548,44.6735 12.0528,44.0265 C11.9928,43.6425 11.5908,43.3035 11.2648,43.0875 C9.9378,42.2035 7.5128,41.7395 5.9368,41.7395 M5.2318,50.1235 C4.4568,50.1235 3.6978,49.8935 3.0288,49.4485 C1.9708,48.7455 1.2428,47.5585 1.0278,46.1935 C0.6158,43.5665 2.1968,40.9575 4.5528,40.3795 C6.3108,39.9465 10.1378,40.5355 12.0958,41.8385 C12.9348,42.3955 13.4178,43.0535 13.5348,43.7945 C14.0008,46.7605 8.1248,49.5315 6.1938,50.0055 C5.8738,50.0845 5.5508,50.1235 5.2318,50.1235" id="Fill-145" fill="#719911"></path>
                <path d="M47.8586,47.3108 C47.7066,51.4328 44.2076,54.7908 40.0826,54.7738 L18.4626,54.6838 C14.3376,54.6668 11.2246,51.2888 11.5456,47.1758 L13.9336,13.3298 C14.2546,9.2168 17.8796,6.1358 21.9906,6.4838 L41.7586,8.1548 C45.8696,8.5008 49.1076,12.1588 48.9556,16.2808 L47.8586,47.3108 Z" id="Fill-146" fill="#A5B5B6"></path>
                <path d="M44.4338,41.0168 C44.3218,44.0478 41.5178,46.5088 38.2048,46.4868 L20.8328,46.3668 C17.5188,46.3428 15.0098,43.8498 15.2568,40.8268 L17.0938,16.9308 C17.3408,13.9068 20.2468,11.6498 23.5498,11.9148 L39.4378,13.1938 C42.7408,13.4598 45.3518,16.1578 45.2398,19.1898 L44.4338,41.0168 Z" id="Fill-147" fill="#C5D5D6"></path>
                <path d="M41.6555,51.4358 L18.1625,51.2768 C15.2465,51.2558 12.7935,49.8158 11.5255,47.6788 C11.4855,51.5598 14.5075,54.6678 18.4625,54.6838 L40.0825,54.7738 C43.5415,54.7888 46.5595,52.4278 47.5335,49.2348 C46.0025,50.6058 43.9175,51.4508 41.6555,51.4358" id="Fill-148" fill="#859596"></path>
                <path d="M41.717,52.1858 L41.651,52.1858 L18.156,52.0268 C15.062,52.0048 12.341,50.5238 10.881,48.0618 C10.669,47.7058 10.786,47.2458 11.143,47.0348 C11.499,46.8238 11.959,46.9408 12.171,47.2958 C13.361,49.3018 15.602,50.5088 18.167,50.5268 L41.66,50.6858 L41.717,50.6858 C43.698,50.6858 45.584,49.9728 47.033,48.6758 C47.343,48.3998 47.817,48.4258 48.093,48.7348 C48.369,49.0428 48.343,49.5178 48.034,49.7938 C46.309,51.3368 44.068,52.1858 41.717,52.1858" id="Fill-149" fill="#354546"></path>
                <path d="M47.8586,47.3108 L47.8606,47.3108 L47.8586,47.3108 Z M21.3546,7.2068 C19.7706,7.2068 18.2526,7.7638 17.0266,8.8058 C15.6536,9.9718 14.8206,11.5998 14.6806,13.3878 L12.2946,47.2288 C12.1546,49.0128 12.7206,50.6908 13.8886,51.9578 C15.0556,53.2248 16.6816,53.9268 18.4646,53.9338 L40.0856,54.0238 L40.1136,54.0238 C43.8376,54.0238 46.9716,51.0058 47.1096,47.2828 L48.2056,16.2538 C48.3436,12.5138 45.4226,9.2168 41.6956,8.9018 L21.9266,7.2308 C21.7356,7.2148 21.5446,7.2068 21.3546,7.2068 L21.3546,7.2068 Z M40.1136,55.5238 L40.0786,55.5238 L18.4596,55.4338 C16.2536,55.4248 14.2386,54.5518 12.7856,52.9738 C11.3326,51.3968 10.6266,49.3168 10.7976,47.1178 L13.1856,13.2768 C13.3566,11.0818 14.3756,9.0898 16.0546,7.6628 C17.7346,6.2358 19.8656,5.5518 22.0526,5.7368 L41.8216,7.4068 C46.3366,7.7888 49.8726,11.7818 49.7056,16.3078 L48.6086,47.3368 C48.4416,51.8588 44.6336,55.5238 40.1136,55.5238 L40.1136,55.5238 Z" id="Fill-150" fill="#354546"></path>
                <path d="M31.3323,16.2961 C27.2253,16.2961 22.3283,15.0341 22.3283,9.0251 C22.3283,8.0811 22.4493,7.4551 22.6893,6.5621 C22.7973,6.1621 23.2083,5.9251 23.6083,6.0321 C24.0093,6.1401 24.2463,6.5511 24.1393,6.9511 C23.9243,7.7501 23.8283,8.2391 23.8283,9.0251 C23.8283,10.4521 23.8283,14.7961 31.3323,14.7961 C38.8683,14.7961 38.8683,10.4521 38.8683,9.0251 C38.8683,8.7061 38.8533,8.3861 38.8193,8.0721 C38.7773,7.6601 39.0773,7.2911 39.4893,7.2491 C39.9023,7.2071 40.2703,7.5061 40.3113,7.9181 C40.3503,8.2831 40.3683,8.6551 40.3683,9.0251 C40.3683,12.3421 38.8013,16.2961 31.3323,16.2961" id="Fill-151" fill="#354546"></path>
                <path d="M26.55,25.9426 C26.384,30.4136 22.626,33.9036 18.156,33.7386 C13.686,33.5736 10.196,29.8156 10.361,25.3446 C10.526,20.8746 14.283,17.3836 18.754,17.5496 C23.225,17.7146 26.715,21.4726 26.55,25.9426" id="Fill-152" fill="#C5D5D6"></path>
                <path d="M18.4485,18.2942 C16.5885,18.2942 14.8235,18.9852 13.4535,20.2582 C12.0145,21.5952 11.1825,23.4102 11.1105,25.3722 C11.0375,27.3342 11.7335,29.2072 13.0695,30.6462 C14.4055,32.0842 16.2215,32.9162 18.1835,32.9882 C20.1475,33.0622 22.0185,32.3652 23.4575,31.0292 C24.8955,29.6932 25.7275,27.8772 25.8005,25.9152 L26.5505,25.9432 L25.8005,25.9152 C25.8725,23.9532 25.1775,22.0802 23.8415,20.6422 C22.5055,19.2032 20.6885,18.3712 18.7265,18.2992 C18.6345,18.2952 18.5405,18.2942 18.4485,18.2942 M18.4635,34.4942 C18.3515,34.4942 18.2405,34.4922 18.1285,34.4872 C15.7655,34.4002 13.5795,33.3982 11.9695,31.6662 C10.3615,29.9352 9.5235,27.6802 9.6115,25.3172 C9.6985,22.9552 10.7005,20.7682 12.4325,19.1592 C14.1645,17.5512 16.4195,16.7132 18.7815,16.8002 C21.1435,16.8872 23.3315,17.8892 24.9395,19.6212 C26.5485,21.3542 27.3865,23.6082 27.2995,25.9712 C27.2125,28.3332 26.2105,30.5202 24.4775,32.1292 C22.8275,33.6612 20.7035,34.4942 18.4635,34.4942" id="Fill-153" fill="#354546"></path>
                <path d="M23.6741,25.8372 C23.5681,28.7192 21.1451,30.9702 18.2621,30.8632 C15.3801,30.7572 13.1291,28.3332 13.2361,25.4512 C13.3421,22.5682 15.7661,20.3182 18.6481,20.4252 C21.5301,20.5312 23.7801,22.9542 23.6741,25.8372" id="Fill-154" fill="#9ABD45"></path>
                <path d="M21.7561,24.2346 C21.6901,26.0266 20.1841,27.4256 18.3921,27.3596 C16.6001,27.2936 15.2011,25.7876 15.2681,23.9956 C15.3331,22.2036 16.8401,20.8046 18.6311,20.8716 C20.4231,20.9366 21.8221,22.4436 21.7561,24.2346" id="Fill-155" fill="#CEEC87"></path>
                <path d="M18.4514,21.1711 C17.3184,21.1711 16.2454,21.5921 15.4114,22.3661 C14.5364,23.1801 14.0294,24.2851 13.9854,25.4791 C13.9414,26.6731 14.3644,27.8131 15.1784,28.6881 C15.9904,29.5631 17.0964,30.0691 18.2904,30.1131 C19.4834,30.1601 20.6234,29.7341 21.4994,28.9211 C22.3744,28.1081 22.8814,27.0031 22.9254,25.8091 C22.9694,24.6151 22.5454,23.4761 21.7324,22.6001 C20.9194,21.7251 19.8134,21.2181 18.6204,21.1741 C18.5634,21.1721 18.5074,21.1711 18.4514,21.1711 M18.4584,31.6161 C18.3844,31.6161 18.3094,31.6151 18.2344,31.6121 C16.6394,31.5541 15.1644,30.8771 14.0784,29.7081 C12.9934,28.5391 12.4284,27.0181 12.4864,25.4241 C12.6074,22.1321 15.3824,19.5601 18.6764,19.6751 C20.2694,19.7341 21.7464,20.4101 22.8314,21.5791 C23.9174,22.7481 24.4824,24.2711 24.4244,25.8641 C24.3054,29.0811 21.6504,31.6161 18.4584,31.6161" id="Fill-156" fill="#354546"></path>
                <path d="M19.801,22.1692 C20.133,22.9112 19.096,23.5452 17.738,24.1522 C16.38,24.7612 15.216,25.1112 14.884,24.3702 C14.552,23.6282 15.384,22.5342 16.741,21.9272 C18.099,21.3182 19.469,21.4282 19.801,22.1692" id="Fill-157" fill="#FFFFFF"></path>
                <path d="M18.8645,29.3499 C18.7775,29.1579 19.0475,28.9939 19.3995,28.8349 C19.7525,28.6779 20.0535,28.5859 20.1395,28.7789 C20.2265,28.9719 20.0105,29.2549 19.6585,29.4129 C19.3055,29.5709 18.9505,29.5419 18.8645,29.3499" id="Fill-158" fill="#FFFFFF"></path>
                <path d="M23.258,25.7825 C23.234,26.4635 22.661,26.9945 21.981,26.9695 C21.3,26.9445 20.769,26.3725 20.794,25.6915 C20.82,25.0115 21.391,24.4795 22.071,24.5055 C22.752,24.5305 23.283,25.1015 23.258,25.7825" id="Fill-159" fill="#354546"></path>
                <path d="M49.3879,27.2903 C49.2479,31.0783 46.0639,32.3863 42.2759,32.2463 C38.4879,32.1063 35.5299,30.5713 35.6689,26.7833 C35.8099,22.9953 38.9939,20.0383 42.7829,20.1783 C46.5709,20.3173 49.5279,23.5023 49.3879,27.2903" id="Fill-160" fill="#C5D5D6"></path>
                <path d="M42.5227,20.9231 C40.9757,20.9231 39.5077,21.4981 38.3687,22.5571 C37.1707,23.6681 36.4797,25.1791 36.4187,26.8111 C36.3627,28.3521 36.8607,29.4861 37.9427,30.2771 C38.9387,31.0071 40.4467,31.4281 42.3027,31.4961 C47.4037,31.6871 48.5637,29.2981 48.6387,27.2631 C48.6987,25.6311 48.1207,24.0721 47.0087,22.8761 C45.8977,21.6801 44.3857,20.9871 42.7537,20.9271 C42.6767,20.9241 42.5997,20.9231 42.5227,20.9231 M42.8257,33.0061 C42.6357,33.0061 42.4437,33.0031 42.2477,32.9951 C40.0597,32.9151 38.3127,32.4071 37.0567,31.4881 C35.5847,30.4111 34.8457,28.7751 34.9197,26.7561 C34.9957,24.7241 35.8577,22.8421 37.3467,21.4581 C38.8377,20.0741 40.7777,19.3531 42.8097,19.4281 C44.8417,19.5031 46.7237,20.3651 48.1077,21.8561 C49.4917,23.3461 50.2117,25.2851 50.1377,27.3181 C50.0027,30.9541 47.3477,33.0061 42.8257,33.0061" id="Fill-161" fill="#354546"></path>
                <path d="M46.9514,27.2004 C46.8614,29.6424 44.8074,29.8994 42.3654,29.8094 C39.9234,29.7204 38.0154,29.3164 38.1054,26.8734 C38.1964,24.4304 40.2494,22.5234 42.6924,22.6144 C45.1354,22.7044 47.0424,24.7584 46.9514,27.2004" id="Fill-162" fill="#19B5FE"></path>
                <path d="M45.2776,25.6672 C45.2216,27.1862 44.0476,27.7492 42.5286,27.6932 C41.0096,27.6382 39.7236,26.9822 39.7796,25.4642 C39.8366,23.9462 41.1116,22.7612 42.6306,22.8162 C44.1486,22.8732 45.3346,24.1492 45.2776,25.6672" id="Fill-163" fill="#39D5FF"></path>
                <path d="M42.5256,23.3616 C41.5946,23.3616 40.7136,23.7076 40.0276,24.3436 C39.3076,25.0116 38.8916,25.9206 38.8556,26.9016 C38.7976,28.4536 39.6246,28.9586 42.3926,29.0596 C45.5336,29.1776 46.1536,28.4866 46.2026,27.1736 C46.2766,25.1476 44.6896,23.4386 42.6646,23.3636 C42.6186,23.3626 42.5716,23.3616 42.5256,23.3616 M43.2046,30.5796 C42.8856,30.5796 42.5906,30.5686 42.3386,30.5586 C40.6786,30.4986 37.2266,30.3706 37.3566,26.8456 C37.4626,23.9946 39.8676,21.7606 42.7196,21.8646 C45.5716,21.9696 47.8056,24.3766 47.7016,27.2276 C47.5896,30.2256 45.0156,30.5796 43.2046,30.5796" id="Fill-164" fill="#354546"></path>
                <path d="M43.6692,24.093 C43.9502,24.721 43.0712,25.258 41.9212,25.774 C40.7712,26.288 39.7842,26.586 39.5022,25.957 C39.2212,25.329 39.9262,24.402 41.0762,23.887 C42.2272,23.372 43.3882,23.464 43.6692,24.093" id="Fill-165" fill="#FFFFFF"></path>
                <path d="M43.9866,28.5872 C43.9136,28.4242 44.1416,28.2842 44.4396,28.1512 C44.7386,28.0182 44.9946,27.9412 45.0676,28.1042 C45.1406,28.2672 44.9586,28.5072 44.6596,28.6412 C44.3606,28.7742 44.0596,28.7502 43.9866,28.5872" id="Fill-166" fill="#FFFFFF"></path>
                <path d="M40.6116,27.0051 C40.5906,27.5811 40.1056,28.0311 39.5296,28.0101 C38.9526,27.9891 38.5026,27.5041 38.5236,26.9281 C38.5456,26.3511 39.0296,25.9011 39.6066,25.9221 C40.1826,25.9431 40.6326,26.4281 40.6116,27.0051" id="Fill-167" fill="#354546"></path>
                <path d="M18.591,40.6379 L41.336,35.5559 C41.336,35.5559 42.615,42.5629 37.083,44.6079 C27.342,48.2079 18.591,40.6379 18.591,40.6379" id="Fill-168" fill="#FFFFFF"></path>
                <path d="M18.591,40.6379 L18.592,40.6379 L18.591,40.6379 Z M20.344,41.0149 C21.297,41.6689 22.742,42.5519 24.519,43.2999 C28.842,45.1209 32.982,45.3239 36.823,43.9049 C40.676,42.4799 40.807,38.2329 40.685,36.4699 L20.344,41.0149 Z M31.635,46.3219 C29.108,46.3219 26.497,45.7669 23.892,44.6629 C20.417,43.1919 18.194,41.2859 18.101,41.2049 C17.886,41.0199 17.794,40.7299 17.863,40.4549 C17.933,40.1799 18.151,39.9679 18.427,39.9069 L41.173,34.8249 C41.372,34.7799 41.581,34.8189 41.751,34.9309 C41.921,35.0429 42.037,35.2209 42.074,35.4209 C42.088,35.4979 42.414,37.3329 42.022,39.4509 C41.485,42.3519 39.867,44.3779 37.344,45.3109 C35.52,45.9849 33.603,46.3219 31.635,46.3219 L31.635,46.3219 Z" id="Fill-169" fill="#354546"></path>
                <path d="M25.0159,45.0559 C24.6409,45.0559 24.3169,44.7749 24.2719,44.3939 L23.6869,39.4209 C23.6389,39.0099 23.9329,38.6369 24.3439,38.5879 C24.7549,38.5409 25.1279,38.8339 25.1769,39.2449 L25.7619,44.2179 C25.8099,44.6289 25.5159,45.0019 25.1049,45.0509 C25.0749,45.0539 25.0449,45.0559 25.0159,45.0559" id="Fill-170" fill="#354546"></path>
                <path d="M30.466,46.0657 C30.064,46.0657 29.732,45.7467 29.717,45.3417 L29.461,38.0687 C29.447,37.6547 29.771,37.3067 30.185,37.2927 C30.595,37.2767 30.946,37.6017 30.96,38.0157 L31.216,45.2897 C31.231,45.7037 30.906,46.0497 30.492,46.0647 C30.484,46.0647 30.475,46.0657 30.466,46.0657" id="Fill-171" fill="#354546"></path>
                <path d="M36.0334,45.3577 C35.6234,45.3577 35.2884,45.0267 35.2834,44.6157 L35.1994,36.7677 C35.1954,36.3537 35.5274,36.0137 35.9414,36.0097 L35.9504,36.0097 C36.3604,36.0097 36.6954,36.3397 36.6994,36.7527 L36.7834,44.5997 C36.7884,45.0137 36.4564,45.3527 36.0414,45.3577 L36.0334,45.3577 Z" id="Fill-172" fill="#354546"></path>
            </g>
        </g>
    </g>
</svg>