<?xml version="1.0" encoding="UTF-8"?>
<svg width="89px" height="122px" viewBox="0 0 89 122" version="1.1" xmlns="http://www.w3.org/2000/svg" xmlns:xlink="http://www.w3.org/1999/xlink">
    <!-- Generator: Sketch 42 (36781) - http://www.bohemiancoding.com/sketch -->
    <title>7</title>
    <desc>Created with Sketch.</desc>
    <defs>
        <polygon id="path-1" points="83.008 0.3772 83.008 8 0.6581 8 0.6581 0.3772 83.008 0.3772"></polygon>
        <polygon id="path-3" points="0 122.04 89.008 122.04 89.008 0 0 0"></polygon>
    </defs>
    <g id="Page-1" stroke="none" stroke-width="1" fill="none" fill-rule="evenodd">
        <g id="1024" transform="translate(-524.000000, -246.000000)">
            <g id="7" transform="translate(524.000000, 246.000000)">
                <g id="Group-3" transform="translate(6.000000, 114.040000)">
                    <mask id="mask-2" fill="white">
                        <use xlink:href="#path-1"></use>
                    </mask>
                    <g id="Clip-2"></g>
                    <path d="M83.0081,4.1892 C83.0081,6.2932 64.5731,8.0002 41.8331,8.0002 C19.0931,8.0002 0.6581,6.2932 0.6581,4.1892 C0.6581,2.0842 19.0931,0.3772 41.8331,0.3772 C64.5731,0.3772 83.0081,2.0842 83.0081,4.1892" id="Fill-1" fill="#CCCCCC" mask="url(#mask-2)"></path>
                </g>
                <mask id="mask-4" fill="white">
                    <use xlink:href="#path-3"></use>
                </mask>
                <g id="Clip-5"></g>
                <polygon id="Fill-4" fill="#758586" mask="url(#mask-4)" points="29.91 87.553 46.028 87.553 46.028 75.947 29.91 75.947"></polygon>
                <path d="M30.659,86.803 L45.277,86.803 L45.277,76.697 L30.659,76.697 L30.659,86.803 Z M46.028,88.303 L29.909,88.303 C29.494,88.303 29.159,87.967 29.159,87.553 L29.159,75.947 C29.159,75.533 29.494,75.197 29.909,75.197 L46.028,75.197 C46.442,75.197 46.778,75.533 46.778,75.947 L46.778,87.553 C46.778,87.967 46.442,88.303 46.028,88.303 L46.028,88.303 Z" id="Fill-6" fill="#354546" mask="url(#mask-4)"></path>
                <polygon id="Fill-7" fill="#758586" mask="url(#mask-4)" points="33.569 61.397 42.911 61.397 42.911 52.894 33.569 52.894"></polygon>
                <path d="M34.32,60.647 L42.162,60.647 L42.162,53.644 L34.32,53.644 L34.32,60.647 Z M42.911,62.147 L33.57,62.147 C33.156,62.147 32.82,61.811 32.82,61.397 L32.82,52.894 C32.82,52.48 33.156,52.144 33.57,52.144 L42.911,52.144 C43.325,52.144 43.661,52.48 43.661,52.894 L43.661,61.397 C43.661,61.811 43.325,62.147 42.911,62.147 L42.911,62.147 Z" id="Fill-8" fill="#354546" mask="url(#mask-4)"></path>
                <path d="M42.9124,58.3972 C42.8984,58.3972 42.8854,58.3972 42.8714,58.3962 L33.5284,57.8942 C33.1154,57.8722 32.7984,57.5192 32.8204,57.1052 C32.8424,56.6912 33.1964,56.3732 33.6094,56.3962 L42.9514,56.8982 C43.3654,56.9202 43.6834,57.2742 43.6604,57.6872 C43.6394,58.0872 43.3084,58.3972 42.9124,58.3972" id="Fill-9" fill="#354546" mask="url(#mask-4)"></path>
                <path d="M21.886,62.0798 C23.373,62.5488 24.839,63.0228 26.234,63.3808 L25.071,67.9538 C23.447,67.5358 21.948,67.0448 20.465,66.5798 L21.886,62.0798 Z" id="Fill-10" fill="#F9BF3B" mask="url(#mask-4)"></path>
                <path d="M24.8831,68.6804 C23.4901,68.3224 22.1881,67.9094 20.9281,67.5114 L20.2401,67.2944 L20.6901,65.8644 L21.3801,66.0814 C22.6211,66.4734 23.9041,66.8784 25.2581,67.2284 L24.8831,68.6804 Z" id="Fill-11" fill="#F1892D" mask="url(#mask-4)"></path>
                <path d="M26.0462,64.1071 C24.8112,63.7901 23.5552,63.3931 22.2272,62.9731 L21.6612,62.7951 L22.1112,61.3651 L22.6792,61.5441 C23.9872,61.9571 25.2232,62.3471 26.4202,62.6551 L26.0462,64.1071 Z" id="Fill-12" fill="#F1892D" mask="url(#mask-4)"></path>
                <polygon id="Fill-13" fill="#F1892D" mask="url(#mask-4)" points="23.4329 67.5036 21.9979 67.0656 23.3769 62.5526 24.8119 62.9906"></polygon>
                <path d="M17.2971,60.7185 C18.8721,61.1335 20.3961,61.6095 21.8861,62.0795 L20.4651,66.5795 C18.9851,66.1125 17.5331,65.6595 16.0971,65.2815 L17.2971,60.7185 Z" id="Fill-14" fill="#F9BF3B" mask="url(#mask-4)"></path>
                <path d="M20.2395,67.2946 C18.7755,66.8316 17.3435,66.3856 15.9055,66.0076 L16.2875,64.5566 C17.7575,64.9426 19.2685,65.4146 20.6915,65.8636 L20.2395,67.2946 Z" id="Fill-15" fill="#F1892D" mask="url(#mask-4)"></path>
                <path d="M21.6604,62.7946 C20.1404,62.3156 18.6494,61.8506 17.1054,61.4436 L17.4874,59.9936 C19.0644,60.4086 20.5744,60.8786 22.1124,61.3646 L21.6604,62.7946 Z" id="Fill-16" fill="#F1892D" mask="url(#mask-4)"></path>
                <polygon id="Fill-17" fill="#F1892D" mask="url(#mask-4)" points="18.9837 66.113 17.5467 65.681 18.9057 61.163 20.3417 61.594"></polygon>
                <path d="M12.3528,59.7644 C14.0908,59.9444 15.7208,60.3054 17.2968,60.7184 L16.0968,65.2824 C14.6618,64.9044 13.2378,64.5984 11.8758,64.4584 L12.3528,59.7644 Z" id="Fill-18" fill="#F9BF3B" mask="url(#mask-4)"></path>
                <path d="M15.9055,66.0075 C14.2855,65.5805 12.9805,65.3255 11.8005,65.2045 L11.9525,63.7125 C13.2125,63.8415 14.5905,64.1105 16.2875,64.5565 L15.9055,66.0075 Z" id="Fill-19" fill="#F1892D" mask="url(#mask-4)"></path>
                <path d="M17.1067,61.4441 C15.8337,61.1101 14.1327,60.7031 12.2757,60.5101 L12.4297,59.0181 C14.3877,59.2211 16.1617,59.6461 17.4877,59.9931 L17.1067,61.4441 Z" id="Fill-20" fill="#F1892D" mask="url(#mask-4)"></path>
                <polygon id="Fill-21" fill="#F1892D" mask="url(#mask-4)" points="14.6946 64.9284 13.2236 64.6344 14.1496 60.0074 15.6216 60.3014"></polygon>
                <path d="M6.7366,60.2263 C7.7286,59.8903 8.7086,59.7473 9.6456,59.6893 C10.5826,59.6373 11.4826,59.6753 12.3526,59.7643 L11.8766,64.4583 C10.5226,64.3183 9.2166,64.3643 8.2436,64.6983 L6.7366,60.2263 Z" id="Fill-22" fill="#F9BF3B" mask="url(#mask-4)"></path>
                <path d="M8.4866,65.4079 L8.0006,63.9889 C9.2696,63.5539 10.8506,63.5979 11.9536,63.7129 L11.7996,65.2049 C10.4326,65.0629 9.2876,65.1329 8.4866,65.4079" id="Fill-23" fill="#F1892D" mask="url(#mask-4)"></path>
                <path d="M6.9778,60.9372 L6.4968,59.5162 C7.4298,59.2002 8.4448,59.0112 9.5998,58.9412 C10.5008,58.8902 11.4248,58.9162 12.4288,59.0182 L12.2768,60.5102 C11.3518,60.4162 10.5048,60.3922 9.6868,60.4382 C8.6708,60.5002 7.7838,60.6642 6.9778,60.9372" id="Fill-24" fill="#F1892D" mask="url(#mask-4)"></path>
                <polygon id="Fill-25" fill="#F1892D" mask="url(#mask-4)" points="9.1692 64.4431 8.8972 59.7321 10.3942 59.6461 10.6662 64.3571"></polygon>
                <path d="M1.9592,64.406 C2.4112,63.478 3.0752,62.569 3.9132,61.831 C4.7512,61.09 5.7492,60.557 6.7362,60.226 L8.2432,64.698 C7.2672,65.034 6.6582,65.57 6.1842,66.508 L1.9592,64.406 Z" id="Fill-26" fill="#F9BF3B" mask="url(#mask-4)"></path>
                <path d="M6.8528,66.8464 L5.5148,66.1684 C6.0768,65.0594 6.8428,64.3864 7.9988,63.9894 L8.4878,65.4074 C7.6988,65.6784 7.2408,66.0814 6.8528,66.8464" id="Fill-27" fill="#F1892D" mask="url(#mask-4)"></path>
                <path d="M2.6331,64.7351 L1.2851,64.0781 C1.8061,63.0101 2.5431,62.0391 3.4171,61.2681 C4.2751,60.5101 5.3401,59.9041 6.4981,59.5151 L6.9751,60.9381 C6.0061,61.2621 5.1191,61.7651 4.4101,62.3921 C3.6821,63.0351 3.0681,63.8431 2.6331,64.7351" id="Fill-28" fill="#F1892D" mask="url(#mask-4)"></path>
                <polygon id="Fill-29" fill="#F1892D" mask="url(#mask-4)" points="6.4622 65.8718 3.3502 62.3258 4.4772 61.3368 7.5902 64.8828"></polygon>
                <path d="M1.009,70.3054 C0.886,69.3394 0.875,68.3244 1.035,67.3134 C1.069,67.0604 1.128,66.8104 1.18,66.5604 C1.245,66.3124 1.304,66.0624 1.388,65.8204 C1.463,65.5724 1.553,65.3384 1.644,65.1064 C1.689,64.9894 1.744,64.8714 1.794,64.7554 C1.844,64.6384 1.899,64.5224 1.959,64.4064 L6.184,66.5074 C6.154,66.5634 6.125,66.6234 6.1,66.6864 C6.073,66.7484 6.043,66.8064 6.02,66.8714 C5.97,67.0024 5.918,67.1314 5.882,67.2574 C5.835,67.3824 5.81,67.5134 5.773,67.6414 C5.749,67.7724 5.713,67.9014 5.698,68.0344 C5.613,68.5634 5.615,69.1204 5.689,69.6994 L1.009,70.3054 Z" id="Fill-30" fill="#F9BF3B" mask="url(#mask-4)"></path>
                <path d="M4.9446,69.7927 C4.8616,69.1337 4.8656,68.5077 4.9556,67.9327 C4.9686,67.8177 4.9906,67.7177 5.0096,67.6277 C5.0186,67.5887 5.0276,67.5487 5.0346,67.5097 L5.0526,67.4307 C5.0636,67.3917 5.0746,67.3527 5.0846,67.3137 C5.1066,67.2267 5.1316,67.1287 5.1696,67.0227 C5.2086,66.8937 5.2556,66.7717 5.2996,66.6527 L5.3186,66.6047 C5.3366,66.5567 5.3606,66.5017 5.3856,66.4467 C5.3926,66.4317 5.4006,66.4147 5.4076,66.3977 C5.4446,66.3087 5.4836,66.2267 5.5256,66.1487 L6.8426,66.8657 C6.8266,66.8957 6.8096,66.9317 6.7936,66.9727 C6.7786,67.0067 6.7636,67.0387 6.7506,67.0707 C6.7416,67.0897 6.7316,67.1077 6.7236,67.1287 L6.7006,67.1897 C6.6616,67.2917 6.6256,67.3887 6.6016,67.4687 L6.5856,67.5177 C6.5696,67.5607 6.5536,67.6217 6.5366,67.6877 C6.5256,67.7297 6.5146,67.7717 6.5036,67.8137 C6.4956,67.8557 6.4856,67.8997 6.4766,67.9427 C6.4626,68.0117 6.4496,68.0697 6.4436,68.1177 L6.4386,68.1537 C6.3686,68.5917 6.3666,69.0797 6.4326,69.6057 L4.9446,69.7927 Z" id="Fill-31" fill="#F1892D" mask="url(#mask-4)"></path>
                <path d="M0.2659,70.4011 C0.1239,69.2971 0.1329,68.2221 0.2929,67.2061 C0.3229,66.9841 0.3679,66.7751 0.4109,66.5731 L0.4539,66.3681 L0.4959,66.2091 C0.5479,66.0071 0.6019,65.8001 0.6739,65.5881 C0.7569,65.3191 0.8539,65.0671 0.9459,64.8331 C0.9789,64.7461 1.0199,64.6531 1.0609,64.5611 L1.1059,64.4581 C1.1649,64.3181 1.2279,64.1871 1.2939,64.0601 L2.6239,64.7531 C2.5759,64.8461 2.5299,64.9441 2.4839,65.0511 L2.4309,65.1711 C2.4009,65.2381 2.3699,65.3061 2.3449,65.3741 C2.2559,65.5991 2.1729,65.8161 2.1049,66.0401 L2.0969,66.0641 C2.0409,66.2251 1.9959,66.3991 1.9489,66.5841 L1.8769,66.8851 C1.8379,67.0701 1.8009,67.2451 1.7789,67.4121 L1.7759,67.4301 C1.6369,68.3091 1.6289,69.2451 1.7529,70.2111 L0.2659,70.4011 Z" id="Fill-32" fill="#F1892D" mask="url(#mask-4)"></path>
                <polygon id="Fill-33" fill="#F1892D" mask="url(#mask-4)" points="5.5842 68.7761 0.9202 68.0541 1.1492 66.5721 5.8132 67.2941"></polygon>
                <path d="M2.7874,75.5144 C2.3704,74.7404 1.9944,73.9244 1.6844,73.0584 C1.5284,72.6254 1.3954,72.1774 1.2774,71.7204 C1.1674,71.2594 1.0704,70.7894 1.0094,70.3054 L5.6884,69.6994 C5.8344,70.8554 6.3004,72.0834 6.9414,73.2764 L2.7874,75.5144 Z" id="Fill-34" fill="#F9BF3B" mask="url(#mask-4)"></path>
                <path d="M6.2805,73.6306 C5.5415,72.2566 5.0925,70.9646 4.9445,69.7926 L6.4325,69.6056 C6.5575,70.5936 6.9505,71.7096 7.6015,72.9206 L6.2805,73.6306 Z" id="Fill-35" fill="#F1892D" mask="url(#mask-4)"></path>
                <path d="M2.1272,75.8698 C1.6582,74.9988 1.2822,74.1618 0.9792,73.3098 C0.8262,72.8888 0.6862,72.4288 0.5512,71.9088 C0.4132,71.3328 0.3232,70.8568 0.2652,70.3998 L1.7532,70.2118 C1.8042,70.6128 1.8852,71.0368 2.0072,71.5458 C2.1262,72.0078 2.2532,72.4238 2.3902,72.8038 C2.6692,73.5858 3.0152,74.3548 3.4472,75.1578 L2.1272,75.8698 Z" id="Fill-36" fill="#F1892D" mask="url(#mask-4)"></path>
                <polygon id="Fill-37" fill="#F1892D" mask="url(#mask-4)" points="1.9368 73.7644 1.4328 72.3514 5.8778 70.7684 6.3808 72.1804"></polygon>
                <path d="M5.676,79.7429 C4.614,78.4499 3.624,77.0609 2.787,75.5139 L6.942,73.2759 C7.586,74.4709 8.406,75.6349 9.322,76.7469 L5.676,79.7429 Z" id="Fill-38" fill="#F9BF3B" mask="url(#mask-4)"></path>
                <path d="M8.7415,77.2233 C7.7325,75.9943 6.9045,74.7863 6.2815,73.6313 L7.6005,72.9193 C8.1795,73.9893 8.9525,75.1173 9.9005,76.2703 L8.7415,77.2233 Z" id="Fill-39" fill="#F1892D" mask="url(#mask-4)"></path>
                <path d="M5.096,80.2185 C3.877,78.7335 2.907,77.3105 2.127,75.8705 L3.447,75.1565 C4.18,76.5125 5.098,77.8565 6.256,79.2675 L5.096,80.2185 Z" id="Fill-40" fill="#F1892D" mask="url(#mask-4)"></path>
                <polygon id="Fill-41" fill="#F1892D" mask="url(#mask-4)" points="4.5745 78.3405 3.7215 77.1065 7.6045 74.4245 8.4565 75.6585"></polygon>
                <path d="M9.0657,83.363 C7.8777,82.232 6.7397,81.035 5.6757,79.743 L9.3217,76.747 C10.2377,77.86 11.2487,78.927 12.3167,79.943 L9.0657,83.363 Z" id="Fill-42" fill="#F9BF3B" mask="url(#mask-4)"></path>
                <path d="M11.8001,80.486 C10.6651,79.408 9.6371,78.31 8.7421,77.223 L9.9011,76.27 C10.7561,77.31 11.7431,78.363 12.8331,79.399 L11.8001,80.486 Z" id="Fill-43" fill="#F1892D" mask="url(#mask-4)"></path>
                <path d="M8.5491,83.906 C7.2581,82.678 6.1281,81.472 5.0971,80.219 L6.2551,79.266 C7.2471,80.471 8.3361,81.635 9.5821,82.819 L8.5491,83.906 Z" id="Fill-44" fill="#F1892D" mask="url(#mask-4)"></path>
                <polygon id="Fill-45" fill="#F1892D" mask="url(#mask-4)" points="7.8382 82.1599 6.8112 81.0669 10.2482 77.8349 11.2762 78.9279"></polygon>
                <path d="M12.8479,86.5876 L12.5749,86.3806 L12.3249,86.1876 L11.8379,85.7986 C11.5179,85.5386 11.2019,85.2756 10.8909,85.0096 C10.2679,84.4766 9.6599,83.9276 9.0659,83.3626 L12.3169,79.9426 C12.8509,80.4496 13.3999,80.9456 13.9599,81.4256 C14.2409,81.6656 14.5239,81.9016 14.8079,82.1326 L15.2349,82.4726 L15.4459,82.6366 L15.6389,82.7816 L12.8479,86.5876 Z" id="Fill-46" fill="#F9BF3B" mask="url(#mask-4)"></path>
                <path d="M15.1858,83.3796 L14.7748,83.0656 L14.3398,82.7186 C14.0488,82.4836 13.7588,82.2406 13.4718,81.9946 C12.9088,81.5126 12.3458,81.0046 11.7998,80.4866 L12.8328,79.3996 C13.3598,79.8996 13.9038,80.3896 14.4488,80.8566 C14.7248,81.0926 15.0038,81.3256 15.2798,81.5496 L16.0908,82.1846 L15.1858,83.3796 Z" id="Fill-47" fill="#F1892D" mask="url(#mask-4)"></path>
                <path d="M12.3967,87.1862 L11.8657,86.7792 L11.3707,86.3852 C11.0467,86.1242 10.7237,85.8532 10.4027,85.5792 C9.7797,85.0442 9.1557,84.4822 8.5497,83.9072 L9.5827,82.8192 C10.1697,83.3762 10.7747,83.9222 11.3787,84.4402 C11.6887,84.7062 12.0017,84.9662 12.3097,85.2162 L13.0347,85.7892 L13.2997,85.9882 L12.3967,87.1862 Z" id="Fill-48" fill="#F1892D" mask="url(#mask-4)"></path>
                <polygon id="Fill-49" fill="#F1892D" mask="url(#mask-4)" points="11.4602 85.4978 10.3212 84.5218 13.3912 80.9378 14.5292 81.9138"></polygon>
                <path d="M55.8128,69.2849 C54.8648,69.3969 53.9098,69.3979 52.9788,69.3059 C52.0468,69.2139 51.1418,69.0289 50.2718,68.7819 L51.5338,64.3929 C52.8038,64.7549 54.0668,64.8929 55.2778,64.7499 L55.8128,69.2849 Z" id="Fill-50" fill="#F9BF3B" mask="url(#mask-4)"></path>
                <path d="M54.3206,65.5554 C53.3616,65.5554 52.3596,65.4084 51.3286,65.1144 L51.7386,63.6714 C52.9606,64.0194 54.1216,64.1314 55.1896,64.0054 L55.3656,65.4944 C55.0236,65.5354 54.6746,65.5554 54.3206,65.5554" id="Fill-51" fill="#F1892D" mask="url(#mask-4)"></path>
                <path d="M54.3118,70.1228 C53.8448,70.1228 53.3748,70.0988 52.9048,70.0528 C51.9808,69.9608 51.0258,69.7758 50.0668,69.5038 L50.4768,68.0598 C51.3508,68.3098 52.2168,68.4768 53.0518,68.5598 C53.9558,68.6488 54.8548,68.6438 55.7258,68.5408 L55.9008,70.0298 C55.3778,70.0918 54.8468,70.1228 54.3118,70.1228" id="Fill-52" fill="#F1892D" mask="url(#mask-4)"></path>
                <polygon id="Fill-53" fill="#F1892D" mask="url(#mask-4)" points="53.7249 69.3796 52.2329 69.2326 52.6819 64.6876 54.1739 64.8356"></polygon>
                <path d="M61.1077,67.448 C59.5427,68.377 57.7167,69.073 55.8127,69.285 L55.2777,64.75 C56.4907,64.614 57.6577,64.18 58.7807,63.518 L61.1077,67.448 Z" id="Fill-54" fill="#F9BF3B" mask="url(#mask-4)"></path>
                <path d="M55.3616,65.4958 L55.1946,64.0048 C56.2456,63.8878 57.3236,63.5068 58.3996,62.8718 L59.1616,64.1648 C57.9016,64.9058 56.6236,65.3538 55.3616,65.4958" id="Fill-55" fill="#F1892D" mask="url(#mask-4)"></path>
                <path d="M55.8958,70.031 L55.7298,68.54 C57.3968,68.354 59.1238,67.754 60.7248,66.802 L61.4908,68.093 C59.7078,69.151 57.7728,69.821 55.8958,70.031" id="Fill-56" fill="#F1892D" mask="url(#mask-4)"></path>
                <polygon id="Fill-57" fill="#F1892D" mask="url(#mask-4)" points="57.8811 68.8855 56.3561 64.5815 57.7701 64.0805 59.2951 68.3855"></polygon>
                <path d="M65.2112,64.1823 C64.0142,65.3653 62.6822,66.5153 61.1072,67.4483 L58.7802,63.5183 C59.9032,62.8563 60.9692,61.9553 61.9942,60.9413 L65.2112,64.1823 Z" id="Fill-58" fill="#F9BF3B" mask="url(#mask-4)"></path>
                <path d="M59.1614,64.1648 L58.3994,62.8728 C59.3614,62.3058 60.3644,61.4998 61.4664,60.4088 L62.5214,61.4748 C61.3304,62.6538 60.2314,63.5338 59.1614,64.1648" id="Fill-59" fill="#F1892D" mask="url(#mask-4)"></path>
                <path d="M61.4895,68.0925 L60.7255,66.8025 C62.0315,66.0295 63.2905,65.0265 64.6845,63.6495 L65.7385,64.7155 C64.2545,66.1825 62.9045,67.2555 61.4895,68.0925" id="Fill-60" fill="#F1892D" mask="url(#mask-4)"></path>
                <polygon id="Fill-61" fill="#F1892D" mask="url(#mask-4)" points="62.718 66.3806 59.842 62.8346 61.007 61.8896 63.883 65.4366"></polygon>
                <path d="M68.4856,60.5749 C67.4656,61.7599 66.4066,62.9959 65.2116,64.1819 L61.9946,60.9409 C63.0206,59.9229 64.0036,58.7839 65.0246,57.5959 L68.4856,60.5749 Z" id="Fill-62" fill="#F9BF3B" mask="url(#mask-4)"></path>
                <path d="M62.5227,61.4743 L61.4657,60.4093 C62.4907,59.3933 63.4897,58.2313 64.4557,57.1073 L65.5927,58.0853 C64.6077,59.2313 63.5887,60.4153 62.5227,61.4743" id="Fill-63" fill="#F1892D" mask="url(#mask-4)"></path>
                <path d="M65.7405,64.7146 L64.6825,63.6506 C65.8255,62.5156 66.8475,61.3276 67.8365,60.1806 L67.9175,60.0856 L69.0535,61.0646 L68.9725,61.1586 C67.9665,62.3286 66.9245,63.5376 65.7405,64.7146" id="Fill-64" fill="#F1892D" mask="url(#mask-4)"></path>
                <polygon id="Fill-65" fill="#F1892D" mask="url(#mask-4)" points="66.4143 62.9362 63.0113 59.8902 64.0123 58.7732 67.4143 61.8192"></polygon>
                <path d="M71.4592,57.403 C70.9782,57.816 70.4822,58.326 69.9882,58.864 C69.4932,59.406 68.9942,59.984 68.4852,60.575 L65.0242,57.596 C65.5362,57.002 66.0602,56.394 66.6192,55.781 C67.1842,55.169 67.7752,54.549 68.4812,53.941 L71.4592,57.403 Z" id="Fill-66" fill="#F9BF3B" mask="url(#mask-4)"></path>
                <path d="M65.593,58.0857 L64.456,57.1067 L64.497,57.0597 C64.996,56.4807 65.513,55.8807 66.066,55.2757 C66.721,54.5647 67.298,53.9697 67.992,53.3717 L68.971,54.5097 C68.331,55.0607 67.788,55.6187 67.17,56.2897 C66.635,56.8757 66.126,57.4667 65.633,58.0387 L65.593,58.0857 Z" id="Fill-67" fill="#F1892D" mask="url(#mask-4)"></path>
                <path d="M69.054,61.0642 L67.917,60.0852 C68.411,59.5122 68.922,58.9192 69.435,58.3582 C70.058,57.6802 70.532,57.2102 70.971,56.8342 L71.947,57.9732 C71.554,58.3092 71.12,58.7412 70.54,59.3712 C70.044,59.9152 69.541,60.5002 69.054,61.0642" id="Fill-68" fill="#F1892D" mask="url(#mask-4)"></path>
                <polygon id="Fill-69" fill="#F1892D" mask="url(#mask-4)" points="69.4827 59.4177 66.1127 56.3347 67.1257 55.2287 70.4947 58.3107"></polygon>
                <path d="M73.551,56.4978 C73.408,56.4528 73.302,56.4388 73.187,56.4428 C73.072,56.4478 72.937,56.4768 72.761,56.5448 C72.411,56.6788 71.938,56.9848 71.459,57.4028 L68.482,53.9408 C68.836,53.6388 69.211,53.3368 69.646,53.0538 C70.078,52.7698 70.56,52.5008 71.115,52.2848 C71.668,52.0698 72.303,51.9108 72.972,51.8818 C73.639,51.8498 74.319,51.9488 74.92,52.1418 L73.551,56.4978 Z" id="Fill-70" fill="#F9BF3B" mask="url(#mask-4)"></path>
                <path d="M68.969,54.5114 L67.994,53.3694 C68.308,53.1034 68.732,52.7544 69.237,52.4254 C69.78,52.0704 70.305,51.7954 70.843,51.5854 C71.537,51.3164 72.242,51.1624 72.939,51.1324 C73.667,51.0964 74.434,51.1984 75.149,51.4274 L74.692,52.8564 C74.146,52.6814 73.565,52.6044 73.008,52.6304 C72.472,52.6544 71.928,52.7734 71.388,52.9834 C70.948,53.1554 70.512,53.3824 70.057,53.6814 C69.625,53.9624 69.265,54.2584 68.969,54.5114" id="Fill-71" fill="#F1892D" mask="url(#mask-4)"></path>
                <path d="M71.9524,57.9685 L70.9654,56.8385 C71.5024,56.3685 72.0454,56.0155 72.4924,55.8445 C72.7314,55.7515 72.9504,55.7015 73.1574,55.6945 C73.3704,55.6865 73.5584,55.7145 73.7764,55.7825 L73.3244,57.2135 C73.2554,57.1915 73.2324,57.1925 73.2114,57.1935 C73.2024,57.1935 73.1494,57.1975 73.0324,57.2435 C72.8144,57.3265 72.4194,57.5605 71.9524,57.9685" id="Fill-72" fill="#F1892D" mask="url(#mask-4)"></path>
                <polygon id="Fill-73" fill="#F1892D" mask="url(#mask-4)" points="72.0618 56.8151 70.4158 52.5551 71.8148 52.0141 73.4598 56.2741"></polygon>
                <path d="M75.0344,57.8415 C75.0224,57.7455 74.9934,57.6525 74.9454,57.5685 C74.9104,57.5035 74.7974,57.3515 74.6374,57.1985 L74.5054,57.0805 C74.4614,57.0405 74.4044,57.0015 74.3564,56.9605 C74.3054,56.9165 74.2554,56.8845 74.2054,56.8495 C74.1554,56.8165 74.1044,56.7715 74.0574,56.7465 C73.8634,56.6185 73.6914,56.5455 73.5514,56.4975 L74.9204,52.1415 C75.5224,52.3345 76.0614,52.6035 76.5234,52.9035 C76.6454,52.9765 76.7474,53.0555 76.8584,53.1325 C76.9684,53.2105 77.0794,53.2875 77.1794,53.3705 C77.2814,53.4535 77.3834,53.5305 77.4844,53.6205 L77.7894,53.8955 C78.1924,54.2845 78.5894,54.7365 78.9414,55.3525 C79.2784,55.9485 79.4974,56.6125 79.5744,57.2915 L75.0344,57.8415 Z" id="Fill-74" fill="#F9BF3B" mask="url(#mask-4)"></path>
                <path d="M78.8294,57.3767 C78.7654,56.8067 78.5774,56.2327 78.2884,55.7217 C78.0254,55.2607 77.7134,54.8647 77.2774,54.4437 L76.9824,54.1787 C76.9284,54.1297 76.8664,54.0817 76.8054,54.0317 L76.7054,53.9527 C76.6294,53.8897 76.5414,53.8267 76.4474,53.7607 L76.4254,53.7437 C76.3944,53.7237 76.3554,53.6947 76.3164,53.6677 C76.2514,53.6207 76.1944,53.5797 76.1384,53.5457 L76.1154,53.5317 C75.6694,53.2427 75.1904,53.0157 74.6914,52.8557 L75.1484,51.4277 C75.7694,51.6257 76.3664,51.9077 76.9214,52.2677 C77.0244,52.3297 77.1124,52.3927 77.1904,52.4477 C77.2214,52.4707 77.2524,52.4927 77.2844,52.5147 L77.3154,52.5367 C77.4284,52.6167 77.5434,52.6987 77.6574,52.7937 L77.7404,52.8587 C77.8204,52.9237 77.9004,52.9867 77.9804,53.0587 L78.3094,53.3557 C78.6494,53.6837 79.1514,54.2077 79.5934,54.9807 C79.9814,55.6697 80.2324,56.4387 80.3204,57.2067 L78.8294,57.3767 Z" id="Fill-75" fill="#F1892D" mask="url(#mask-4)"></path>
                <path d="M74.2971,57.9441 C74.2861,57.9261 74.2251,57.8431 74.1281,57.7501 L74.0051,57.6401 C73.9871,57.6251 73.9721,57.6131 73.9561,57.6011 C73.9291,57.5801 73.9011,57.5571 73.8741,57.5361 L73.8621,57.5251 C73.8461,57.5111 73.8291,57.5011 73.8141,57.4901 L73.7831,57.4681 C73.7541,57.4501 73.7261,57.4281 73.6971,57.4071 L73.6461,57.3731 C73.5361,57.3011 73.4301,57.2491 73.3121,57.2091 L73.7901,55.7881 C74.0231,55.8661 74.2381,55.9701 74.4481,56.1061 C74.5091,56.1411 74.5571,56.1771 74.5941,56.2051 L74.6671,56.2571 C74.7131,56.2881 74.7751,56.3311 74.8421,56.3891 C74.8541,56.3991 74.8671,56.4091 74.8801,56.4201 C74.9261,56.4551 74.9711,56.4911 75.0091,56.5261 L75.1521,56.6551 C75.3431,56.8361 75.5161,57.0481 75.6041,57.2071 C75.6951,57.3691 75.7561,57.5551 75.7791,57.7551 L74.2891,57.9281 L74.2971,57.9441 Z" id="Fill-76" fill="#F1892D" mask="url(#mask-4)"></path>
                <polygon id="Fill-77" fill="#F1892D" mask="url(#mask-4)" points="75.179 57.7165 74.094 56.6815 77.247 53.3775 78.332 54.4135"></polygon>
                <path d="M73.721,60.4636 C74.139,59.8936 74.514,59.3246 74.753,58.8286 C74.873,58.5816 74.958,58.3566 75.001,58.1806 C75.017,58.1336 75.016,58.1026 75.028,58.0626 C75.033,58.0286 75.032,58.0116 75.038,57.9856 C75.037,57.9386 75.043,57.8896 75.034,57.8416 L79.575,57.2916 C79.617,57.6316 79.617,57.9766 79.594,58.3176 C79.576,58.4856 79.557,58.6626 79.531,58.8226 C79.5,58.9746 79.473,59.1366 79.434,59.2776 C79.288,59.8616 79.081,60.3676 78.861,60.8236 C78.414,61.7346 77.908,62.4696 77.406,63.1616 L73.721,60.4636 Z" id="Fill-78" fill="#F9BF3B" mask="url(#mask-4)"></path>
                <path d="M78.012,63.6023 L76.799,62.7203 C77.241,62.1123 77.749,61.3883 78.187,60.4943 C78.426,60.0003 78.592,59.5553 78.706,59.0953 L78.711,59.0813 C78.733,59.0013 78.751,58.9003 78.772,58.7923 L78.792,58.6903 C78.815,58.5523 78.832,58.3943 78.846,58.2553 C78.867,57.9243 78.863,57.6393 78.83,57.3843 L80.32,57.1993 C80.364,57.5523 80.37,57.9343 80.342,58.3673 L80.34,58.3923 C80.323,58.5623 80.301,58.7603 80.27,58.9483 L80.245,59.0733 C80.222,59.1963 80.196,59.3333 80.159,59.4673 C80.02,60.0263 79.821,60.5613 79.535,61.1513 C79.043,62.1563 78.491,62.9433 78.012,63.6023" id="Fill-79" fill="#F1892D" mask="url(#mask-4)"></path>
                <path d="M75.7727,58.1355 L75.7657,58.1675 C75.7687,58.1565 75.7707,58.1455 75.7727,58.1355 M74.3257,60.9065 L73.1167,60.0205 C73.5617,59.4125 73.8847,58.9025 74.0777,58.5025 C74.1697,58.3135 74.2417,58.1315 74.2737,57.9995 L74.2787,57.9805 C74.2817,57.9645 74.2847,57.9485 74.2877,57.9335 C74.2877,57.9295 74.2887,57.9255 74.2887,57.9205 L74.2897,57.9065 L74.2897,57.9165 C74.2927,57.8895 74.2987,57.8495 74.3097,57.8045 L74.6987,57.9015 L75.7727,57.7105 C75.7927,57.8185 75.7897,57.9075 75.7887,57.9605 L75.7877,58.0695 L75.7757,58.1215 C75.7737,58.1395 75.7717,58.1565 75.7687,58.1765 L75.7547,58.2455 C75.7497,58.2805 75.7407,58.3255 75.7247,58.3805 C75.6657,58.6125 75.5627,58.8805 75.4267,59.1575 C75.1937,59.6425 74.8327,60.2155 74.3257,60.9065" id="Fill-80" fill="#F1892D" mask="url(#mask-4)"></path>
                <polygon id="Fill-81" fill="#F1892D" mask="url(#mask-4)" points="78.5325 61.4987 74.4255 59.5027 75.0815 58.1537 79.1885 60.1487"></polygon>
                <path d="M70.8577,64.0339 C71.8587,62.8009 72.8757,61.6129 73.7207,60.4639 L77.4057,63.1619 C76.3937,64.5319 75.3687,65.7199 74.3987,66.9169 L70.8577,64.0339 Z" id="Fill-82" fill="#F9BF3B" mask="url(#mask-4)"></path>
                <path d="M74.9817,67.3894 L73.8157,66.4454 C74.0887,66.1084 74.3657,65.7724 74.6457,65.4334 C75.3537,64.5754 76.0857,63.6874 76.8017,62.7164 L78.0087,63.6074 C77.2677,64.6104 76.5237,65.5134 75.8027,66.3874 C75.5257,66.7234 75.2517,67.0554 74.9817,67.3894" id="Fill-83" fill="#F1892D" mask="url(#mask-4)"></path>
                <path d="M71.4397,64.5066 L70.2757,63.5616 C70.5527,63.2196 70.8307,62.8816 71.1067,62.5476 C71.8317,61.6666 72.5167,60.8356 73.1167,60.0196 L74.3257,60.9076 C73.7007,61.7576 73.0017,62.6046 72.2637,63.5016 C71.9907,63.8326 71.7147,64.1676 71.4397,64.5066" id="Fill-84" fill="#F1892D" mask="url(#mask-4)"></path>
                <polygon id="Fill-85" fill="#F1892D" mask="url(#mask-4)" points="75.4124 65.6853 71.8734 62.7983 72.8214 61.6363 76.3594 64.5223"></polygon>
                <path d="M67.9075,67.9294 C68.8445,66.5564 69.8515,65.2674 70.8575,64.0334 L74.3985,66.9164 C73.4285,68.1084 72.5085,69.2874 71.6815,70.5014 L67.9075,67.9294 Z" id="Fill-86" fill="#F9BF3B" mask="url(#mask-4)"></path>
                <path d="M72.301,70.9235 L71.062,70.0785 C71.797,68.9995 72.647,67.8785 73.818,66.4435 L74.98,67.3915 C73.838,68.7915 73.012,69.8815 72.301,70.9235" id="Fill-87" fill="#F1892D" mask="url(#mask-4)"></path>
                <path d="M68.5276,68.3523 L67.2886,67.5073 C68.3286,65.9813 69.4316,64.5963 70.2766,63.5603 L71.4386,64.5073 C70.6136,65.5203 69.5356,66.8733 68.5276,68.3523" id="Fill-88" fill="#F1892D" mask="url(#mask-4)"></path>
                <polygon id="Fill-89" fill="#F1892D" mask="url(#mask-4)" points="72.5305 69.2966 68.9015 66.5256 69.8115 65.3326 73.4405 68.1046"></polygon>
                <path d="M65.386,72.321 C66.108,70.764 66.971,69.301 67.907,67.929 L71.682,70.502 C70.854,71.713 70.125,72.957 69.531,74.24 L65.386,72.321 Z" id="Fill-90" fill="#F9BF3B" mask="url(#mask-4)"></path>
                <path d="M70.2102,74.5554 L68.8502,73.9244 C69.4392,72.6534 70.1622,71.3954 71.0622,70.0774 L72.3012,70.9244 C71.4482,72.1724 70.7652,73.3604 70.2102,74.5554" id="Fill-91" fill="#F1892D" mask="url(#mask-4)"></path>
                <path d="M66.0667,72.6364 L64.7067,72.0054 C65.4017,70.5044 66.2467,69.0324 67.2887,67.5064 L68.5277,68.3524 C67.5327,69.8104 66.7277,71.2114 66.0667,72.6364" id="Fill-92" fill="#F1892D" mask="url(#mask-4)"></path>
                <polygon id="Fill-93" fill="#F1892D" mask="url(#mask-4)" points="70.1428 72.9929 66.1908 70.7049 66.9428 69.4069 70.8948 71.6949"></polygon>
                <path d="M63.7249,77.24 C64.0899,75.529 64.6639,73.876 65.3859,72.321 L69.5309,74.24 C68.9349,75.522 68.4789,76.844 68.1909,78.195 L63.7249,77.24 Z" id="Fill-94" fill="#F9BF3B" mask="url(#mask-4)"></path>
                <path d="M68.9241,78.3513 L67.4571,78.0393 C67.7481,76.6713 68.2171,75.2883 68.8501,73.9243 L70.2101,74.5553 C69.6251,75.8173 69.1921,77.0943 68.9241,78.3513" id="Fill-95" fill="#F1892D" mask="url(#mask-4)"></path>
                <path d="M64.4583,77.3962 L62.9913,77.0832 C63.3543,75.3852 63.9313,73.6762 64.7063,72.0042 L66.0663,72.6362 C65.3383,74.2062 64.7973,75.8072 64.4583,77.3962" id="Fill-96" fill="#F1892D" mask="url(#mask-4)"></path>
                <polygon id="Fill-97" fill="#F1892D" mask="url(#mask-4)" points="68.5042 76.9021 64.1802 75.4321 64.6632 74.0111 68.9862 75.4811"></polygon>
                <path d="M45.2581,75.0495 L45.2601,75.0495 L45.2581,75.0495 Z M46.1941,75.4265 C46.1701,75.4265 46.1471,75.4265 46.1241,75.4275 C45.9451,75.4355 45.8741,75.4775 45.8641,75.4915 C45.7791,75.6075 45.7111,76.3025 46.4771,77.9225 C47.0591,79.1535 47.8831,80.3985 48.3631,80.9455 C48.7491,81.3855 49.2351,81.6265 49.6951,81.6055 C50.0961,81.5865 50.4491,81.3815 50.7191,81.0115 C51.3921,80.0875 51.2571,78.5065 50.4241,77.5585 C49.7181,76.7525 47.3991,75.4265 46.1941,75.4265 L46.1941,75.4265 Z M49.6401,83.1065 C48.7631,83.1065 47.8931,82.6845 47.2361,81.9355 C46.6961,81.3205 43.2541,76.5275 44.6521,74.6085 C44.8631,74.3185 45.2791,73.9645 46.0571,73.9295 C47.7971,73.8555 50.5931,75.4765 51.5521,76.5695 C52.8571,78.0565 53.0241,80.3955 51.9311,81.8955 C51.3921,82.6355 50.6221,83.0645 49.7641,83.1035 C49.7231,83.1055 49.6821,83.1065 49.6401,83.1065 L49.6401,83.1065 Z" id="Fill-98" fill="#19B5FE" mask="url(#mask-4)"></path>
                <path d="M45.7307,74.6618 L45.7317,74.6618 L45.7307,74.6618 Z M51.9487,72.7598 C50.5317,72.7598 48.3507,73.1778 47.1567,73.9728 C46.8727,74.1608 46.5217,74.4548 46.4707,74.7778 C46.4037,75.2098 46.8807,76.0408 48.4257,77.0758 C49.7057,77.9328 51.2537,78.6048 52.0627,78.8048 C52.6647,78.9518 53.2817,78.8438 53.8017,78.4978 C54.4287,78.0808 54.8637,77.3568 54.9967,76.5128 C55.2587,74.8438 54.3047,73.1978 52.8697,72.8458 C52.6347,72.7878 52.3177,72.7598 51.9487,72.7598 L51.9487,72.7598 Z M52.5937,80.3698 C52.2987,80.3698 52.0017,80.3338 51.7047,80.2608 C49.9377,79.8268 44.5597,77.2818 44.9897,74.5458 C45.0977,73.8528 45.5467,73.2408 46.3257,72.7238 C48.1167,71.5308 51.6177,70.9928 53.2277,71.3888 C55.3997,71.9228 56.8587,74.3258 56.4787,76.7448 C56.2807,78.0038 55.6077,79.0978 54.6317,79.7458 C54.0137,80.1578 53.3117,80.3698 52.5937,80.3698 L52.5937,80.3698 Z" id="Fill-99" fill="#C72C1C" mask="url(#mask-4)"></path>
                <path d="M41.5335,60.0232 C39.8895,59.8792 37.1975,59.8332 35.5495,59.9192 L26.4785,60.3922 C24.8315,60.4792 23.4595,61.8992 23.4305,63.5482 L23.2805,72.1712 C23.2515,73.8222 24.5305,75.5272 26.1225,75.9612 L35.3105,78.4682 C36.9025,78.9032 39.5185,78.9482 41.1255,78.5702 L50.3955,76.3842 C52.0025,76.0052 53.3395,74.3462 53.3685,72.6972 L53.5185,64.0742 C53.5475,62.4242 52.2255,60.9572 50.5825,60.8132 L41.5335,60.0232 Z" id="Fill-100" fill="#A5B5B6" mask="url(#mask-4)"></path>
                <path d="M50.4378,73.9851 L41.1668,76.1711 C39.5608,76.5481 36.9448,76.5031 35.3528,76.0691 L26.1638,73.5611 C24.5718,73.1271 23.2928,71.4221 23.3218,69.7721 L23.2808,72.1721 C23.2508,73.8221 24.5308,75.5271 26.1228,75.9611 L35.3108,78.4681 C36.9028,78.9031 39.5188,78.9481 41.1248,78.5701 L50.3958,76.3841 C52.0018,76.0061 53.3388,74.3461 53.3688,72.6971 L53.4108,70.2971 C53.3808,71.9471 52.0438,73.6061 50.4378,73.9851" id="Fill-101" fill="#859596" mask="url(#mask-4)"></path>
                <path d="M37.5159,60.6247 C36.8089,60.6247 36.1409,60.6387 35.5879,60.6677 L26.5179,61.1417 C25.2729,61.2067 24.2029,62.3147 24.1799,63.5627 L24.0299,72.1857 C24.0069,73.4947 25.0559,74.8927 26.3199,75.2367 L35.5079,77.7447 C36.9779,78.1457 39.4709,78.1887 40.9539,77.8397 L50.2239,75.6547 C51.4989,75.3537 52.5959,73.9937 52.6189,72.6837 L52.7689,64.0607 C52.7899,62.8137 51.7589,61.6687 50.5169,61.5607 L41.4689,60.7707 C40.4009,60.6767 38.8879,60.6247 37.5159,60.6247 M38.4939,79.5787 C37.2849,79.5787 36.0529,79.4477 35.1139,79.1917 L25.9239,76.6847 C23.9869,76.1557 22.4949,74.1677 22.5309,72.1587 L22.6809,63.5357 C22.7159,61.4957 24.4029,59.7497 26.4399,59.6437 L35.5099,59.1697 C37.1919,59.0817 39.9229,59.1297 41.5989,59.2757 L50.6479,60.0657 C52.6799,60.2437 54.3039,62.0477 54.2689,64.0867 L54.1189,72.7097 C54.0829,74.7187 52.5239,76.6537 50.5679,77.1147 L41.2969,79.2997 C40.5029,79.4867 39.5059,79.5787 38.4939,79.5787" id="Fill-102" fill="#354546" mask="url(#mask-4)"></path>
                <polygon id="Fill-103" fill="#556566" mask="url(#mask-4)" points="41.427 73.1013 28.351 72.8723 28.512 63.6743 41.587 63.9023"></polygon>
                <path d="M37.011,71.1618 C36.755,71.1618 36.513,71.0308 36.375,70.8088 L35.337,69.1438 L33.72,69.1158 C33.469,69.1108 33.237,68.9808 33.101,68.7688 L33.033,68.6638 L32.597,69.6808 C32.499,69.9068 32.297,70.0708 32.055,70.1198 C31.813,70.1678 31.562,70.0938 31.385,69.9218 L30.499,69.0588 L28.418,69.0228 C28.004,69.0158 27.674,68.6748 27.682,68.2608 C27.689,67.8468 28.025,67.5188 28.445,67.5228 L30.822,67.5648 C31.013,67.5678 31.195,67.6438 31.332,67.7768 L31.65,68.0868 L32.215,66.7698 C32.324,66.5148 32.567,66.3408 32.844,66.3178 C33.12,66.2968 33.387,66.4288 33.536,66.6628 L34.15,67.6228 L35.771,67.6508 C36.026,67.6558 36.26,67.7888 36.395,68.0048 L36.789,68.6378 L37.602,66.0838 C37.699,65.7758 37.984,65.5648 38.307,65.5608 L38.317,65.5608 C38.636,65.5608 38.921,65.7648 39.026,66.0668 L39.596,67.7188 L41.521,67.7518 C41.935,67.7588 42.264,68.0998 42.257,68.5148 C42.25,68.9288 41.907,69.2638 41.494,69.2518 L39.045,69.2088 C38.73,69.2028 38.451,69.0018 38.349,68.7038 L38.346,68.6938 L37.726,70.6398 C37.638,70.9188 37.395,71.1198 37.105,71.1558 C37.073,71.1608 37.042,71.1618 37.011,71.1618" id="Fill-104" fill="#D5E5E6" mask="url(#mask-4)"></path>
                <path d="M29.1135,72.1355 L40.6895,72.3375 L40.8245,64.6395 L29.2485,64.4375 L29.1135,72.1355 Z M41.4265,73.8515 C41.4225,73.8515 41.4185,73.8515 41.4145,73.8505 L28.3385,73.6225 C27.9245,73.6145 27.5935,73.2745 27.6005,72.8605 L27.7615,63.6605 C27.7645,63.4615 27.8465,63.2725 27.9905,63.1345 C28.1345,62.9965 28.3245,62.9155 28.5245,62.9245 L41.6005,63.1525 C42.0145,63.1595 42.3445,63.5015 42.3375,63.9155 L42.1765,73.1145 C42.1735,73.3135 42.0915,73.5025 41.9475,73.6405 C41.8075,73.7755 41.6215,73.8515 41.4265,73.8515 L41.4265,73.8515 Z" id="Fill-105" fill="#354546" mask="url(#mask-4)"></path>
                <path d="M48.4055,65.7966 C48.3875,66.7766 47.5805,67.5576 46.5995,67.5396 C45.6195,67.5236 44.8395,66.7146 44.8555,65.7346 C44.8735,64.7546 45.6815,63.9736 46.6615,63.9906 C47.6415,64.0076 48.4225,64.8166 48.4055,65.7966" id="Fill-106" fill="#F85C4C" mask="url(#mask-4)"></path>
                <path d="M46.6301,64.74 C46.0731,64.74 45.6151,65.188 45.6061,65.748 C45.5961,66.312 46.0481,66.78 46.6121,66.791 C46.8901,66.799 47.1461,66.693 47.3431,66.503 C47.5391,66.312 47.6511,66.057 47.6551,65.783 C47.6651,65.219 47.2141,64.751 46.6491,64.741 C46.6431,64.741 46.6371,64.74 46.6301,64.74 M46.6321,68.291 C46.6161,68.291 46.6021,68.291 46.5871,68.29 C45.1941,68.265 44.0821,67.114 44.1061,65.721 C44.1301,64.344 45.2581,63.24 46.6301,63.24 C46.6451,63.24 46.6591,63.241 46.6751,63.241 C48.0671,63.265 49.1801,64.418 49.1551,65.809 C49.1441,66.484 48.8701,67.113 48.3851,67.582 C47.9101,68.04 47.2891,68.291 46.6321,68.291" id="Fill-107" fill="#C72C1C" mask="url(#mask-4)"></path>
                <path d="M48.3069,71.446 C48.2899,72.425 47.4819,73.207 46.5009,73.189 C45.5209,73.173 44.7409,72.364 44.7569,71.384 C44.7749,70.403 45.5829,69.623 46.5629,69.64 C47.5429,69.657 48.3249,70.466 48.3069,71.446" id="Fill-108" fill="#B9D96D" mask="url(#mask-4)"></path>
                <path d="M46.5315,70.3894 C46.2645,70.3894 46.0125,70.4914 45.8205,70.6774 C45.6235,70.8684 45.5115,71.1224 45.5075,71.3974 C45.4975,71.9614 45.9495,72.4294 46.5135,72.4394 C46.7915,72.4434 47.0475,72.3424 47.2445,72.1524 C47.4405,71.9614 47.5525,71.7064 47.5565,71.4324 C47.5615,71.1594 47.4595,70.8994 47.2695,70.7024 C47.0795,70.5054 46.8235,70.3944 46.5505,70.3894 L46.5315,70.3894 Z M46.5335,73.9394 L46.4885,73.9394 C45.0955,73.9144 43.9835,72.7624 44.0075,71.3704 C44.0315,69.9934 45.1595,68.8894 46.5315,68.8894 C46.5465,68.8894 46.5605,68.8894 46.5765,68.8904 C47.2505,68.9024 47.8805,69.1754 48.3485,69.6604 C48.8165,70.1464 49.0685,70.7854 49.0565,71.4584 C49.0455,72.1334 48.7715,72.7624 48.2865,73.2314 C47.8115,73.6894 47.1905,73.9394 46.5335,73.9394 L46.5335,73.9394 Z" id="Fill-109" fill="#719911" mask="url(#mask-4)"></path>
                <path d="M28.1633,62.5456 C27.8033,62.5456 27.4843,62.2846 27.4243,61.9176 L27.0203,59.4646 C26.9533,59.0566 27.2293,58.6696 27.6393,58.6026 C28.0483,58.5356 28.4343,58.8126 28.5003,59.2206 L28.9043,61.6736 C28.9723,62.0826 28.6953,62.4686 28.2863,62.5356 C28.2453,62.5426 28.2043,62.5456 28.1633,62.5456" id="Fill-110" fill="#354546" mask="url(#mask-4)"></path>
                <path d="M31.1243,62.0583 C30.7633,62.0583 30.4453,61.7973 30.3853,61.4303 L29.9803,58.9773 C29.9133,58.5693 30.1903,58.1823 30.5993,58.1153 C31.0083,58.0473 31.3943,58.3253 31.4613,58.7333 L31.8643,61.1863 C31.9323,61.5953 31.6553,61.9813 31.2463,62.0483 C31.2053,62.0553 31.1643,62.0583 31.1243,62.0583" id="Fill-111" fill="#354546" mask="url(#mask-4)"></path>
                <path d="M48.468,62.5456 C48.428,62.5456 48.386,62.5426 48.345,62.5356 C47.937,62.4686 47.659,62.0826 47.727,61.6736 L48.131,59.2206 C48.198,58.8126 48.583,58.5366 48.992,58.6026 C49.402,58.6696 49.678,59.0566 49.611,59.4646 L49.207,61.9176 C49.147,62.2846 48.828,62.5456 48.468,62.5456" id="Fill-112" fill="#354546" mask="url(#mask-4)"></path>
                <path d="M45.5081,62.0583 C45.4671,62.0583 45.4261,62.0553 45.3851,62.0483 C44.9761,61.9813 44.6991,61.5953 44.7671,61.1863 L45.1711,58.7333 C45.2371,58.3253 45.6231,58.0483 46.0321,58.1153 C46.4421,58.1823 46.7181,58.5693 46.6511,58.9773 L46.2471,61.4303 C46.1871,61.7973 45.8681,62.0583 45.5081,62.0583" id="Fill-113" fill="#354546" mask="url(#mask-4)"></path>
                <polygon id="Fill-114" fill="#A5B5B6" mask="url(#mask-4)" points="25.222 107.86 29.909 107.86 29.909 98.86 25.222 98.86"></polygon>
                <polygon id="Fill-115" fill="#C5D5D6" mask="url(#mask-4)" points="25.222 102.435 29.909 102.435 29.909 98.86 25.222 98.86"></polygon>
                <path d="M25.972,107.11 L29.16,107.11 L29.16,99.61 L25.972,99.61 L25.972,107.11 Z M29.909,108.61 L25.222,108.61 C24.808,108.61 24.472,108.274 24.472,107.86 L24.472,98.86 C24.472,98.445 24.808,98.11 25.222,98.11 L29.909,98.11 C30.324,98.11 30.659,98.445 30.659,98.86 L30.659,107.86 C30.659,108.274 30.324,108.61 29.909,108.61 L29.909,108.61 Z" id="Fill-116" fill="#354546" mask="url(#mask-4)"></path>
                <polygon id="Fill-117" fill="#A5B5B6" mask="url(#mask-4)" points="22.043 106.097 25.228 106.097 25.228 90.197 22.043 90.197"></polygon>
                <path d="M22.793,105.347 L24.478,105.347 L24.478,90.947 L22.793,90.947 L22.793,105.347 Z M25.228,106.847 L22.043,106.847 C21.628,106.847 21.293,106.511 21.293,106.097 L21.293,90.197 C21.293,89.783 21.628,89.447 22.043,89.447 L25.228,89.447 C25.642,89.447 25.978,89.783 25.978,90.197 L25.978,106.097 C25.978,106.511 25.642,106.847 25.228,106.847 L25.228,106.847 Z" id="Fill-118" fill="#354546" mask="url(#mask-4)"></path>
                <path d="M23.7014,84.6843 L23.5694,84.6843 C21.9194,84.6843 20.5694,86.0353 20.5694,87.6843 L20.5694,94.8093 L26.7014,94.8093 L26.7014,87.6843 C26.7014,86.0353 25.3514,84.6843 23.7014,84.6843" id="Fill-119" fill="#A5B5B6" mask="url(#mask-4)"></path>
                <path d="M23.7014,84.6843 L23.5694,84.6843 C21.9194,84.6843 20.5694,86.0353 20.5694,87.6843 L20.5694,90.4223 C20.5694,88.7723 21.9194,87.4223 23.5694,87.4223 L23.7014,87.4223 C25.3514,87.4223 26.7014,88.7723 26.7014,90.4223 L26.7014,87.6843 C26.7014,86.0353 25.3514,84.6843 23.7014,84.6843" id="Fill-120" fill="#C5D5D6" mask="url(#mask-4)"></path>
                <path d="M21.3196,94.0593 L25.9516,94.0593 L25.9516,87.6843 C25.9516,86.4443 24.9426,85.4343 23.7016,85.4343 L23.5696,85.4343 C22.3286,85.4343 21.3196,86.4443 21.3196,87.6843 L21.3196,94.0593 Z M26.7016,95.5593 L20.5696,95.5593 C20.1546,95.5593 19.8196,95.2233 19.8196,94.8093 L19.8196,87.6843 C19.8196,85.6173 21.5016,83.9343 23.5696,83.9343 L23.7016,83.9343 C25.7696,83.9343 27.4516,85.6173 27.4516,87.6843 L27.4516,94.8093 C27.4516,95.2233 27.1156,95.5593 26.7016,95.5593 L26.7016,95.5593 Z" id="Fill-121" fill="#354546" mask="url(#mask-4)"></path>
                <polygon id="Fill-122" fill="#A5B5B6" mask="url(#mask-4)" points="46.347 107.86 51.034 107.86 51.034 98.86 46.347 98.86"></polygon>
                <polygon id="Fill-123" fill="#C5D5D6" mask="url(#mask-4)" points="46.347 102.435 51.034 102.435 51.034 98.86 46.347 98.86"></polygon>
                <path d="M47.097,107.11 L50.285,107.11 L50.285,99.61 L47.097,99.61 L47.097,107.11 Z M51.034,108.61 L46.347,108.61 C45.933,108.61 45.597,108.274 45.597,107.86 L45.597,98.86 C45.597,98.445 45.933,98.11 46.347,98.11 L51.034,98.11 C51.449,98.11 51.784,98.445 51.784,98.86 L51.784,107.86 C51.784,108.274 51.449,108.61 51.034,108.61 L51.034,108.61 Z" id="Fill-124" fill="#354546" mask="url(#mask-4)"></path>
                <polygon id="Fill-125" fill="#A5B5B6" mask="url(#mask-4)" points="51.028 106.097 54.214 106.097 54.214 90.197 51.028 90.197"></polygon>
                <path d="M51.778,105.347 L53.464,105.347 L53.464,90.947 L51.778,90.947 L51.778,105.347 Z M54.213,106.847 L51.028,106.847 C50.614,106.847 50.278,106.511 50.278,106.097 L50.278,90.197 C50.278,89.783 50.614,89.447 51.028,89.447 L54.213,89.447 C54.627,89.447 54.963,89.783 54.963,90.197 L54.963,106.097 C54.963,106.511 54.627,106.847 54.213,106.847 L54.213,106.847 Z" id="Fill-126" fill="#354546" mask="url(#mask-4)"></path>
                <path d="M52.554,84.6843 L52.687,84.6843 C54.337,84.6843 55.687,86.0353 55.687,87.6843 L55.687,94.8093 L49.554,94.8093 L49.554,87.6843 C49.554,86.0353 50.905,84.6843 52.554,84.6843" id="Fill-127" fill="#A5B5B6" mask="url(#mask-4)"></path>
                <path d="M52.554,84.6843 L52.687,84.6843 C54.337,84.6843 55.687,86.0353 55.687,87.6843 L55.687,90.4223 C55.687,88.7723 54.337,87.4223 52.687,87.4223 L52.554,87.4223 C50.905,87.4223 49.554,88.7723 49.554,90.4223 L49.554,87.6843 C49.554,86.0353 50.905,84.6843 52.554,84.6843" id="Fill-128" fill="#C5D5D6" mask="url(#mask-4)"></path>
                <path d="M50.304,94.0593 L54.937,94.0593 L54.937,87.6843 C54.937,86.4443 53.927,85.4343 52.687,85.4343 L52.554,85.4343 C51.314,85.4343 50.304,86.4443 50.304,87.6843 L50.304,94.0593 Z M55.687,95.5593 L49.554,95.5593 C49.14,95.5593 48.804,95.2233 48.804,94.8093 L48.804,87.6843 C48.804,85.6173 50.487,83.9343 52.554,83.9343 L52.687,83.9343 C54.754,83.9343 56.437,85.6173 56.437,87.6843 L56.437,94.8093 C56.437,95.2233 56.101,95.5593 55.687,95.5593 L55.687,95.5593 Z" id="Fill-129" fill="#354546" mask="url(#mask-4)"></path>
                <path d="M46.2092,115.3601 C46.2092,117.0091 44.8582,118.3601 43.2092,118.3601 L32.9092,118.3601 C31.2592,118.3601 29.9092,117.0091 29.9092,115.3601 L29.9092,91.3601 C29.9092,89.7101 31.2592,88.3601 32.9092,88.3601 L43.2092,88.3601 C44.8582,88.3601 46.2092,89.7101 46.2092,91.3601 L46.2092,115.3601 Z" id="Fill-130" fill="#6D6D6D" mask="url(#mask-4)"></path>
                <path d="M43.2092,113.7849 L32.9092,113.7849 C31.5682,113.7849 30.3282,112.8939 29.9092,111.6769 L29.9092,115.3599 C29.9092,117.0099 31.2592,118.3599 32.9092,118.3599 L43.2092,118.3599 C44.8582,118.3599 46.2092,117.0099 46.2092,115.3599 L46.2092,111.6769 C45.7902,112.8939 44.5492,113.7849 43.2092,113.7849" id="Fill-131" fill="#5B5B5B" mask="url(#mask-4)"></path>
                <polygon id="Fill-132" fill="#929292" mask="url(#mask-4)" points="46.1184 101.4099 29.9094 100.0589 29.9994 96.0099 46.1184 96.0099"></polygon>
                <polygon id="Fill-133" fill="#929292" mask="url(#mask-4)" points="46.1184 104.5593 29.9994 105.6633 29.9994 102.9633 46.1184 102.9633"></polygon>
                <path d="M32.9094,89.1101 C31.6684,89.1101 30.6594,90.1191 30.6594,91.3601 L30.6594,115.3601 C30.6594,116.6001 31.6684,117.6101 32.9094,117.6101 L43.2094,117.6101 C44.4494,117.6101 45.4594,116.6001 45.4594,115.3601 L45.4594,91.3601 C45.4594,90.1191 44.4494,89.1101 43.2094,89.1101 L32.9094,89.1101 Z M43.2094,119.1101 L32.9094,119.1101 C30.8414,119.1101 29.1594,117.4271 29.1594,115.3601 L29.1594,91.3601 C29.1594,89.2921 30.8414,87.6101 32.9094,87.6101 L43.2094,87.6101 C45.2764,87.6101 46.9594,89.2921 46.9594,91.3601 L46.9594,115.3601 C46.9594,117.4271 45.2764,119.1101 43.2094,119.1101 L43.2094,119.1101 Z" id="Fill-134" fill="#121212" mask="url(#mask-4)"></path>
                <path d="M46.2464,84.6843 L29.8724,84.6843 C28.0904,84.6843 26.6334,86.0353 26.6334,87.6843 L26.6334,92.0353 L49.4854,92.0353 L49.4854,87.6843 C49.4854,86.0353 48.0274,84.6843 46.2464,84.6843" id="Fill-135" fill="#A5B5B6" mask="url(#mask-4)"></path>
                <path d="M46.2464,84.6843 L29.8724,84.6843 C28.0904,84.6843 26.6334,86.0353 26.6334,87.6843 L49.4854,87.6843 C49.4854,86.0353 48.0274,84.6843 46.2464,84.6843" id="Fill-136" fill="#C5D5D6" mask="url(#mask-4)"></path>
                <path d="M27.3831,91.2849 L48.7361,91.2849 L48.7361,87.6839 C48.7361,86.4439 47.6181,85.4339 46.2461,85.4339 L29.8721,85.4339 C28.4991,85.4339 27.3831,86.4439 27.3831,87.6839 L27.3831,91.2849 Z M49.4861,92.7849 L26.6331,92.7849 C26.2181,92.7849 25.8831,92.4489 25.8831,92.0349 L25.8831,87.6839 C25.8831,85.6169 27.6721,83.9339 29.8721,83.9339 L46.2461,83.9339 C48.4451,83.9339 50.2361,85.6169 50.2361,87.6839 L50.2361,92.0349 C50.2361,92.4489 49.9001,92.7849 49.4861,92.7849 L49.4861,92.7849 Z" id="Fill-137" fill="#354546" mask="url(#mask-4)"></path>
                <path d="M33.5589,86.865 C33.1449,86.865 32.8089,86.53 32.8089,86.115 L32.8089,83.63 C32.8089,83.216 33.1449,82.88 33.5589,82.88 C33.9729,82.88 34.3089,83.216 34.3089,83.63 L34.3089,86.115 C34.3089,86.53 33.9729,86.865 33.5589,86.865" id="Fill-138" fill="#354546" mask="url(#mask-4)"></path>
                <path d="M36.5589,86.865 C36.1449,86.865 35.8089,86.53 35.8089,86.115 L35.8089,83.63 C35.8089,83.216 36.1449,82.88 36.5589,82.88 C36.9729,82.88 37.3089,83.216 37.3089,83.63 L37.3089,86.115 C37.3089,86.53 36.9729,86.865 36.5589,86.865" id="Fill-139" fill="#354546" mask="url(#mask-4)"></path>
                <path d="M39.5589,86.865 C39.1449,86.865 38.8089,86.53 38.8089,86.115 L38.8089,83.63 C38.8089,83.216 39.1449,82.88 39.5589,82.88 C39.9729,82.88 40.3089,83.216 40.3089,83.63 L40.3089,86.115 C40.3089,86.53 39.9729,86.865 39.5589,86.865" id="Fill-140" fill="#354546" mask="url(#mask-4)"></path>
                <path d="M42.5589,86.865 C42.1449,86.865 41.8089,86.53 41.8089,86.115 L41.8089,83.63 C41.8089,83.216 42.1449,82.88 42.5589,82.88 C42.9729,82.88 43.3089,83.216 43.3089,83.63 L43.3089,86.115 C43.3089,86.53 42.9729,86.865 42.5589,86.865" id="Fill-141" fill="#354546" mask="url(#mask-4)"></path>
                <path d="M59.5589,75.863 L60.1919,75.874 L59.8479,87.426 L59.4959,87.42 C57.8449,87.392 56.5179,86.019 56.5459,84.37 L56.5079,78.812 C56.5369,77.162 57.9089,75.836 59.5589,75.863" id="Fill-142" fill="#A5B5B6" mask="url(#mask-4)"></path>
                <path d="M59.8479,88.1765 C59.8439,88.1765 59.8389,88.1765 59.8349,88.1755 L59.4829,88.1695 C58.4839,88.1535 57.5499,87.7455 56.8519,87.0245 C56.1569,86.3045 55.7819,85.3615 55.7959,84.3655 L55.7579,78.8175 L55.7579,78.7995 C55.7929,76.7535 57.4679,75.1135 59.5069,75.1135 L59.5719,75.1135 L60.2039,75.1235 C60.6189,75.1305 60.9499,75.4725 60.9419,75.8865 C60.9349,76.2965 60.6009,76.6235 60.1929,76.6235 L60.1799,76.6235 L59.5459,76.6135 L59.5069,76.6135 C58.2859,76.6135 57.2839,77.5925 57.2579,78.8165 L57.2959,84.3645 L57.2959,84.3825 C57.2859,84.9805 57.5109,85.5475 57.9309,85.9825 C58.3499,86.4155 58.9109,86.6595 59.5079,86.6705 L59.8609,86.6765 C60.2749,86.6835 60.6049,87.0255 60.5979,87.4395 C60.5909,87.8485 60.2559,88.1765 59.8479,88.1765" id="Fill-143" fill="#354546" mask="url(#mask-4)"></path>
                <path d="M74.1975,92.6491 C73.7835,92.6491 73.4475,92.3141 73.4475,91.8991 L73.4475,87.0381 C73.4475,85.9431 72.5565,85.0511 71.4615,85.0511 L59.5265,85.0511 C58.4305,85.0511 57.5405,85.9431 57.5405,87.0381 L57.5405,91.8991 C57.5405,92.3141 57.2045,92.6491 56.7905,92.6491 C56.3765,92.6491 56.0405,92.3141 56.0405,91.8991 L56.0405,87.0381 C56.0405,85.1161 57.6045,83.5511 59.5265,83.5511 L71.4615,83.5511 C73.3845,83.5511 74.9475,85.1161 74.9475,87.0381 L74.9475,91.8991 C74.9475,92.3141 74.6115,92.6491 74.1975,92.6491" id="Fill-144" fill="#373737" mask="url(#mask-4)"></path>
                <path d="M76.5628,97.0466 L76.5628,114.4546 C76.5628,116.6026 75.1768,118.3596 73.4838,118.3596 L47.8438,118.3596 C46.1498,118.3596 44.7638,116.6026 44.7638,114.4546 L44.7638,97.0466 L76.5628,97.0466 Z" id="Fill-145" fill="#494949" mask="url(#mask-4)"></path>
                <path d="M45.5139,97.7966 L45.5139,114.4546 C45.5139,116.1646 46.5809,117.6096 47.8439,117.6096 L73.4839,117.6096 C74.7459,117.6096 75.8129,116.1646 75.8129,114.4546 L75.8129,97.7966 L45.5139,97.7966 Z M73.4839,119.1096 L47.8439,119.1096 C45.7329,119.1096 44.0139,117.0216 44.0139,114.4546 L44.0139,97.0466 C44.0139,96.6326 44.3499,96.2966 44.7639,96.2966 L76.5629,96.2966 C76.9769,96.2966 77.3129,96.6326 77.3129,97.0466 L77.3129,114.4546 C77.3129,117.0216 75.5949,119.1096 73.4839,119.1096 L73.4839,119.1096 Z" id="Fill-146" fill="#373737" mask="url(#mask-4)"></path>
                <path d="M47.844,90.0241 L73.484,90.0241 C75.177,90.0241 76.563,91.4821 76.563,93.2631 L76.563,96.5031 L44.764,96.5031 L44.764,93.2631 C44.764,91.4821 46.15,90.0241 47.844,90.0241" id="Fill-147" fill="#E74C3C" mask="url(#mask-4)"></path>
                <path d="M45.5139,95.7526 L75.8129,95.7526 L75.8129,93.2636 C75.8129,91.8916 74.7679,90.7736 73.4839,90.7736 L47.8439,90.7736 C46.5589,90.7736 45.5139,91.8916 45.5139,93.2636 L45.5139,95.7526 Z M76.5629,97.2526 L44.7639,97.2526 C44.3499,97.2526 44.0139,96.9166 44.0139,96.5026 L44.0139,93.2636 C44.0139,91.0646 45.7319,89.2736 47.8439,89.2736 L73.4839,89.2736 C75.5949,89.2736 77.3129,91.0646 77.3129,93.2636 L77.3129,96.5026 C77.3129,96.9166 76.9769,97.2526 76.5629,97.2526 L76.5629,97.2526 Z" id="Fill-148" fill="#C72C1C" mask="url(#mask-4)"></path>
                <polygon id="Fill-149" fill="#494949" mask="url(#mask-4)" points="43.649 98.616 77.679 98.616 77.679 95.476 43.649 95.476"></polygon>
                <path d="M44.399,97.866 L76.929,97.866 L76.929,96.226 L44.399,96.226 L44.399,97.866 Z M77.679,99.366 L43.649,99.366 C43.235,99.366 42.899,99.031 42.899,98.616 L42.899,95.476 C42.899,95.062 43.235,94.726 43.649,94.726 L77.679,94.726 C78.093,94.726 78.429,95.062 78.429,95.476 L78.429,98.616 C78.429,99.031 78.093,99.366 77.679,99.366 L77.679,99.366 Z" id="Fill-150" fill="#373737" mask="url(#mask-4)"></path>
                <path d="M83.9319,97.0466 L83.9319,114.4546 C83.9319,116.6026 82.5459,118.3596 80.8519,118.3596 L55.2129,118.3596 C53.5189,118.3596 52.1329,116.6026 52.1329,114.4546 L52.1329,97.0466 L83.9319,97.0466 Z" id="Fill-151" fill="#6D6D6D" mask="url(#mask-4)"></path>
                <path d="M52.8831,97.7966 L52.8831,114.4546 C52.8831,116.1646 53.9501,117.6096 55.2131,117.6096 L80.8521,117.6096 C82.1151,117.6096 83.1821,116.1646 83.1821,114.4546 L83.1821,97.7966 L52.8831,97.7966 Z M80.8521,119.1096 L55.2131,119.1096 C53.1011,119.1096 51.3831,117.0216 51.3831,114.4546 L51.3831,97.0466 C51.3831,96.6326 51.7191,96.2966 52.1331,96.2966 L83.9321,96.2966 C84.3461,96.2966 84.6821,96.6326 84.6821,97.0466 L84.6821,114.4546 C84.6821,117.0216 82.9641,119.1096 80.8521,119.1096 L80.8521,119.1096 Z" id="Fill-152" fill="#373737" mask="url(#mask-4)"></path>
                <path d="M55.2132,90.0241 L80.8522,90.0241 C82.5462,90.0241 83.9322,91.4821 83.9322,93.2631 L83.9322,96.5031 L52.1332,96.5031 L52.1332,93.2631 C52.1332,91.4821 53.5192,90.0241 55.2132,90.0241" id="Fill-153" fill="#F85C4C" mask="url(#mask-4)"></path>
                <path d="M52.8831,95.7526 L83.1821,95.7526 L83.1821,93.2636 C83.1821,91.8916 82.1371,90.7736 80.8521,90.7736 L55.2131,90.7736 C53.9281,90.7736 52.8831,91.8916 52.8831,93.2636 L52.8831,95.7526 Z M83.9321,97.2526 L52.1331,97.2526 C51.7191,97.2526 51.3831,96.9166 51.3831,96.5026 L51.3831,93.2636 C51.3831,91.0646 53.1011,89.2736 55.2131,89.2736 L80.8521,89.2736 C82.9641,89.2736 84.6821,91.0646 84.6821,93.2636 L84.6821,96.5026 C84.6821,96.9166 84.3461,97.2526 83.9321,97.2526 L83.9321,97.2526 Z" id="Fill-154" fill="#C72C1C" mask="url(#mask-4)"></path>
                <polygon id="Fill-155" fill="#6D6D6D" mask="url(#mask-4)" points="51.018 98.616 85.048 98.616 85.048 95.476 51.018 95.476"></polygon>
                <path d="M51.768,97.866 L84.298,97.866 L84.298,96.226 L51.768,96.226 L51.768,97.866 Z M85.048,99.366 L51.018,99.366 C50.604,99.366 50.268,99.031 50.268,98.616 L50.268,95.476 C50.268,95.062 50.604,94.726 51.018,94.726 L85.048,94.726 C85.462,94.726 85.798,95.062 85.798,95.476 L85.798,98.616 C85.798,99.031 85.462,99.366 85.048,99.366 L85.048,99.366 Z" id="Fill-156" fill="#373737" mask="url(#mask-4)"></path>
                <polygon id="Fill-157" fill="#A4A4A4" mask="url(#mask-4)" points="58.298 99.642 63.028 99.642 63.028 93.922 58.298 93.922"></polygon>
                <path d="M59.048,98.892 L62.278,98.892 L62.278,94.672 L59.048,94.672 L59.048,98.892 Z M63.029,100.392 L58.298,100.392 C57.884,100.392 57.548,100.056 57.548,99.642 L57.548,93.923 C57.548,93.509 57.884,93.173 58.298,93.173 L63.029,93.173 C63.443,93.173 63.779,93.509 63.779,93.923 L63.779,99.642 C63.779,100.056 63.443,100.392 63.029,100.392 L63.029,100.392 Z" id="Fill-158" fill="#373737" mask="url(#mask-4)"></path>
                <polygon id="Fill-159" fill="#A4A4A4" mask="url(#mask-4)" points="74.198 99.642 78.928 99.642 78.928 93.922 74.198 93.922"></polygon>
                <path d="M74.948,98.892 L78.178,98.892 L78.178,94.672 L74.948,94.672 L74.948,98.892 Z M78.928,100.392 L74.198,100.392 C73.783,100.392 73.448,100.056 73.448,99.642 L73.448,93.923 C73.448,93.509 73.783,93.173 74.198,93.173 L78.928,93.173 C79.342,93.173 79.678,93.509 79.678,93.923 L79.678,99.642 C79.678,100.056 79.342,100.392 78.928,100.392 L78.928,100.392 Z" id="Fill-160" fill="#373737" mask="url(#mask-4)"></path>
                <path d="M58.051,111.0964 C58.051,112.6014 59.281,113.8314 60.786,113.8314 L75.279,113.8314 C76.783,113.8314 78.014,112.6014 78.014,111.0964 L78.014,105.0904 C78.014,103.5864 76.783,102.3554 75.279,102.3554 L60.786,102.3554 C59.281,102.3554 58.051,103.5864 58.051,105.0904 L58.051,111.0964 Z" id="Fill-161" fill="#5B5B5B" mask="url(#mask-4)"></path>
                <path d="M60.7864,103.1052 C59.6914,103.1052 58.8014,103.9962 58.8014,105.0902 L58.8014,111.0962 C58.8014,112.1912 59.6914,113.0822 60.7864,113.0822 L75.2784,113.0822 C76.3734,113.0822 77.2644,112.1912 77.2644,111.0962 L77.2644,105.0902 C77.2644,103.9962 76.3734,103.1052 75.2784,103.1052 L60.7864,103.1052 Z M75.2784,114.5822 L60.7864,114.5822 C58.8644,114.5822 57.3014,113.0182 57.3014,111.0962 L57.3014,105.0902 C57.3014,103.1682 58.8644,101.6052 60.7864,101.6052 L75.2784,101.6052 C77.2004,101.6052 78.7644,103.1682 78.7644,105.0902 L78.7644,111.0962 C78.7644,113.0182 77.2004,114.5822 75.2784,114.5822 L75.2784,114.5822 Z" id="Fill-162" fill="#373737" mask="url(#mask-4)"></path>
                <path d="M60.1917,75.8737 L62.9117,75.9197 L64.0017,75.9377 L69.4327,76.0297 C71.0827,76.0587 72.4097,77.4317 72.3807,79.0807 L72.1787,86.9107 C72.1507,88.5607 70.7787,89.8877 69.1287,89.8597 L62.6067,89.7487 C60.9567,89.7217 59.6297,88.3487 59.6577,86.6987 L59.7647,84.2767 L60.1917,75.8737 Z" id="Fill-163" fill="#A5B5B6" mask="url(#mask-4)"></path>
                <path d="M62.6067,89.7487 C60.9567,89.7217 59.6297,88.3487 59.6577,86.6987 L59.7377,85.8867 L72.2577,86.1457 L72.1787,86.9107 C72.1507,88.5607 70.7787,89.8877 69.1277,89.8597 L62.6067,89.7487 Z" id="Fill-164" fill="#859596" mask="url(#mask-4)"></path>
                <path d="M69.1799,90.6101 L69.1159,90.6101 L62.5939,90.4991 C60.5269,90.4641 58.8719,88.7541 58.9079,86.6861 C58.9079,86.6791 58.9089,86.6721 58.9089,86.6661 L59.0159,84.2451 C59.0339,83.8311 59.3849,83.5151 59.7979,83.5281 C60.2119,83.5471 60.5329,83.8971 60.5139,84.3101 L60.4079,86.7211 C60.3919,87.9571 61.3819,88.9781 62.6189,89.0001 L69.1409,89.1101 C69.7399,89.1151 70.3069,88.8941 70.7409,88.4751 C71.1739,88.0561 71.4179,87.4961 71.4289,86.8981 L71.6319,79.0611 C71.6529,77.8281 70.6599,76.8011 69.4199,76.7801 L60.1789,76.6241 C59.7649,76.6171 59.4349,76.2751 59.4429,75.8611 C59.4499,75.4521 59.7839,75.1241 60.1919,75.1241 L60.2049,75.1241 L69.4459,75.2811 C71.5129,75.3151 73.1659,77.0261 73.1309,79.0931 L72.9279,86.9301 C72.9109,87.9221 72.5049,88.8561 71.7829,89.5531 C71.0759,90.2361 70.1549,90.6101 69.1799,90.6101" id="Fill-165" fill="#354546" mask="url(#mask-4)"></path>
                <path d="M72.259,86.8483 L72.245,86.8483 L59.725,86.6363 C59.311,86.6283 58.981,86.2873 58.988,85.8733 C58.994,85.4633 59.329,85.1363 59.738,85.1363 L59.75,85.1363 L72.271,85.3483 C72.685,85.3553 73.016,85.6973 73.008,86.1113 C73.001,86.5203 72.667,86.8483 72.259,86.8483" id="Fill-166" fill="#354546" mask="url(#mask-4)"></path>
                <path d="M63.9085,90.529 C63.8825,90.529 63.8545,90.527 63.8265,90.524 C63.4155,90.48 63.1175,90.11 63.1625,89.698 L63.5765,85.883 C63.6215,85.47 63.9905,85.175 64.4025,85.218 C64.8145,85.263 65.1125,85.633 65.0675,86.045 L64.6535,89.86 C64.6115,90.244 64.2865,90.529 63.9085,90.529" id="Fill-167" fill="#354546" mask="url(#mask-4)"></path>
                <path d="M68.2288,90.6023 C68.1818,90.6023 68.1348,90.5973 68.0868,90.5883 C67.6798,90.5103 67.4138,90.1183 67.4918,89.7103 L68.2218,85.9013 C68.2998,85.4943 68.6928,85.2283 69.0998,85.3053 C69.5068,85.3833 69.7738,85.7773 69.6958,86.1833 L68.9648,89.9933 C68.8958,90.3523 68.5818,90.6023 68.2288,90.6023" id="Fill-168" fill="#354546" mask="url(#mask-4)"></path>
                <path d="M68.9153,80.7907 L68.9023,80.7907 L61.0343,80.6567 C60.8353,80.6537 60.6453,80.5717 60.5083,80.4287 C60.3693,80.2857 60.2943,80.0937 60.2973,79.8947 L60.3653,75.8767 C60.3723,75.4667 60.7063,75.1397 61.1153,75.1397 L61.1283,75.1397 C61.5423,75.1467 61.8723,75.4877 61.8653,75.9017 L61.8103,79.1707 L68.1783,79.2777 L68.2323,76.0107 C68.2393,75.6007 68.5743,75.2727 68.9823,75.2727 L68.9953,75.2727 C69.4093,75.2797 69.7393,75.6217 69.7323,76.0357 L69.6643,80.0537 C69.6573,80.4637 69.3233,80.7907 68.9153,80.7907" id="Fill-169" fill="#354546" mask="url(#mask-4)"></path>
                <path d="M59.7649,85.0271 L59.7499,85.0271 C59.3359,85.0191 59.0069,84.6771 59.0149,84.2631 L59.0569,82.0481 C59.0649,81.6381 59.3989,81.3121 59.8059,81.3121 L59.8209,81.3121 C60.2349,81.3201 60.5649,81.6621 60.5569,82.0761 L60.5149,84.2921 C60.5069,84.7011 60.1719,85.0271 59.7649,85.0271" id="Fill-170" fill="#354546" mask="url(#mask-4)"></path>
                <path d="M16.1057,78.0534 L15.6767,78.5194 L24.9847,86.4954 L25.2227,86.2364 C26.3417,85.0234 26.2637,83.1154 25.0507,81.9964 L20.3447,77.8814 C19.1317,76.7624 17.2247,76.8404 16.1057,78.0534" id="Fill-171" fill="#A5B5B6" mask="url(#mask-4)"></path>
                <path d="M24.9837,87.2458 C24.8017,87.2458 24.6207,87.1798 24.4757,87.0468 C24.1717,86.7668 24.1517,86.2918 24.4327,85.9868 L24.6717,85.7268 C25.5107,84.8178 25.4547,83.3958 24.5487,82.5548 L19.8517,78.4458 C19.8467,78.4408 19.8417,78.4368 19.8377,78.4328 C19.3977,78.0268 18.8227,77.8218 18.2207,77.8428 C17.6177,77.8668 17.0627,78.1228 16.6577,78.5618 L16.2277,79.0278 C15.9477,79.3328 15.4727,79.3518 15.1687,79.0708 C14.8637,78.7908 14.8447,78.3158 15.1257,78.0118 L15.5547,77.5458 C16.2317,76.8108 17.1567,76.3848 18.1597,76.3438 C19.1617,76.3018 20.1127,76.6498 20.8457,77.3228 L25.5447,81.4328 C25.5487,81.4358 25.5537,81.4408 25.5587,81.4448 C27.0797,82.8468 27.1757,85.2238 25.7747,86.7438 L25.5357,87.0038 C25.3877,87.1638 25.1857,87.2458 24.9837,87.2458" id="Fill-172" fill="#354546" mask="url(#mask-4)"></path>
                <path d="M11.1204,93.3483 L11.1644,93.3863 C13.1314,90.9513 15.4254,88.3023 17.9444,85.5913 C20.2304,83.1323 22.4814,80.8583 24.5924,78.8533 C26.5654,76.9403 25.8734,73.3843 25.8734,73.3843 L30.2414,77.2493 L30.4664,77.4483 L34.8344,81.3133 C34.8344,81.3133 31.1404,80.9873 29.3814,83.0903 C27.5414,85.3343 25.4414,87.7433 23.1554,90.2023 C20.6364,92.9133 18.1594,95.3993 15.8664,97.5463 L15.9094,97.5853 C13.9364,99.4983 14.6294,103.0543 14.6294,103.0543 L10.2604,99.1893 L10.0364,98.9913 L5.6684,95.1253 C5.6684,95.1253 9.3614,95.4513 11.1204,93.3483" id="Fill-173" fill="#A4A4A4" mask="url(#mask-4)"></path>
                <path d="M7.5696,95.8073 L13.7656,101.2883 C13.8066,100.0563 14.1006,98.4673 15.1666,97.2773 C15.2066,97.1723 15.2696,97.0783 15.3536,96.9993 C17.7156,94.7863 20.1566,92.3283 22.6066,89.6923 C24.8276,87.3013 26.9116,84.9203 28.8006,82.6153 C28.8076,82.6063 28.8146,82.5973 28.8226,82.5893 C29.9236,81.2883 31.6126,80.8033 32.9316,80.6313 L26.7366,75.1493 C26.6926,76.4573 26.3646,78.1653 25.1326,79.3733 C25.1256,79.3813 25.1166,79.3893 25.1086,79.3973 C22.9426,81.4543 20.7166,83.7103 18.4946,86.1023 C16.0446,88.7393 13.7746,91.3483 11.7486,93.8583 C11.6756,93.9473 11.5866,94.0173 11.4846,94.0653 C10.3856,95.2043 8.8136,95.6453 7.5696,95.8073 M14.6296,103.8043 C14.4496,103.8043 14.2716,103.7403 14.1316,103.6163 L5.1716,95.6873 C4.9276,95.4723 4.8506,95.1263 4.9786,94.8283 C5.1066,94.5323 5.4106,94.3473 5.7336,94.3783 C5.7656,94.3803 9.0626,94.6393 10.5456,92.8673 C10.6076,92.7933 10.6816,92.7333 10.7646,92.6883 C12.7656,90.2213 14.9956,87.6633 17.3956,85.0813 C19.6326,82.6733 21.8756,80.4013 24.0586,78.3263 C24.0626,78.3223 24.0666,78.3183 24.0696,78.3143 C25.7216,76.7123 25.1426,73.5583 25.1366,73.5263 C25.0766,73.2113 25.2226,72.8923 25.5026,72.7333 C25.7806,72.5753 26.1306,72.6103 26.3706,72.8233 L35.3316,80.7513 C35.5736,80.9653 35.6506,81.3123 35.5226,81.6093 C35.3946,81.9073 35.0906,82.0893 34.7676,82.0603 C34.7366,82.0573 31.4386,81.7993 29.9566,83.5723 C29.9536,83.5763 29.9496,83.5793 29.9466,83.5833 C28.0416,85.9073 25.9416,88.3063 23.7056,90.7123 C21.3056,93.2943 18.9146,95.7083 16.5936,97.8923 C16.5556,97.9783 16.5016,98.0573 16.4316,98.1233 C14.7696,99.7363 15.3586,102.8793 15.3646,102.9113 C15.4256,103.2263 15.2796,103.5453 15.0016,103.7053 C14.8846,103.7713 14.7566,103.8043 14.6296,103.8043" id="Fill-174" fill="#373737" mask="url(#mask-4)"></path>
                <path d="M37.0842,67.5603 L32.1832,70.7133 C31.6642,71.0463 31.5222,71.7353 31.8662,72.2433 L34.1632,75.6243 C34.5082,76.1323 35.2142,76.2753 35.7322,75.9413 L41.1312,72.4683 C41.9812,74.8993 41.6352,77.4843 39.9572,79.2893 C37.3132,82.1353 32.3652,81.9623 28.9082,78.9043 C25.4512,75.8443 24.7932,71.0583 27.4382,68.2113 C29.7422,65.7323 33.7932,65.5443 37.0842,67.5603" id="Fill-175" fill="#C8C8C8" mask="url(#mask-4)"></path>
                <path d="M32.386,66.9401 C30.674,66.9401 29.084,67.5421 27.988,68.7221 C26.999,69.7861 26.497,71.2301 26.574,72.7911 C26.672,74.8141 27.704,76.8361 29.406,78.3411 C32.555,81.1281 37.042,81.3241 39.408,78.7781 C40.639,77.4541 41.09,75.5861 40.684,73.6481 L36.138,76.5721 C35.28,77.1251 34.115,76.8881 33.542,76.0461 L31.245,72.6641 C30.965,72.2511 30.865,71.7541 30.965,71.2661 C31.066,70.7751 31.354,70.3551 31.777,70.0831 L35.594,67.6271 C34.535,67.1681 33.438,66.9401 32.386,66.9401 M35.019,82.0581 C32.756,82.0581 30.359,81.1881 28.411,79.4651 C26.409,77.6941 25.194,75.2881 25.075,72.8641 C24.979,70.8961 25.623,69.0631 26.889,67.7011 C29.381,65.0191 33.834,64.6901 37.476,66.9191 C37.697,67.0551 37.831,67.2941 37.834,67.5511 C37.837,67.8091 37.707,68.0511 37.49,68.1901 L32.588,71.3431 C32.48,71.4141 32.446,71.5121 32.435,71.5651 C32.424,71.6171 32.417,71.7181 32.487,71.8211 L34.783,75.2041 C34.901,75.3761 35.15,75.4241 35.326,75.3101 L40.725,71.8371 C40.918,71.7131 41.157,71.6841 41.374,71.7591 C41.592,71.8341 41.763,72.0031 41.839,72.2201 C42.818,75.0151 42.32,77.8491 40.507,79.7991 C39.104,81.3091 37.119,82.0581 35.019,82.0581" id="Fill-176" fill="#373737" mask="url(#mask-4)"></path>
                <path d="M4.7005,107.1882 L9.0075,104.4182 C9.4625,104.1252 9.5875,103.5212 9.2845,103.0752 L7.2665,100.1032 C6.9645,99.6582 6.3445,99.5332 5.8875,99.8262 L1.1455,102.8762 C0.3985,100.7422 0.7035,98.4702 2.1775,96.8842 C4.5005,94.3842 8.8465,94.5362 11.8835,97.2232 C14.9205,99.9112 15.4985,104.1162 13.1755,106.6162 C11.1505,108.7932 7.5925,108.9592 4.7005,107.1882" id="Fill-177" fill="#C8C8C8" mask="url(#mask-4)"></path>
                <path d="M6.2053,107.112 C8.5673,108.076 11.1293,107.715 12.6253,106.105 C13.4763,105.189 13.9093,103.944 13.8433,102.597 C13.7583,100.845 12.8613,99.091 11.3863,97.785 C8.6563,95.37 4.7703,95.195 2.7263,97.395 C1.6923,98.507 1.2973,100.064 1.6013,101.691 L5.4823,99.195 C6.2783,98.683 7.3563,98.901 7.8873,99.682 L9.9053,102.654 C10.1653,103.037 10.2583,103.498 10.1653,103.952 C10.0723,104.407 9.8053,104.797 9.4123,105.049 L6.2053,107.112 Z M8.8223,109.137 C7.3183,109.137 5.7423,108.706 4.3093,107.828 C4.0893,107.693 3.9533,107.455 3.9503,107.197 C3.9473,106.939 4.0773,106.697 4.2943,106.557 L8.6013,103.788 C8.6643,103.747 8.6873,103.691 8.6953,103.651 C8.7033,103.613 8.7043,103.555 8.6643,103.496 L6.6463,100.525 C6.5713,100.416 6.4073,100.383 6.2943,100.457 L1.5523,103.508 C1.3583,103.632 1.1193,103.66 0.9023,103.586 C0.6843,103.511 0.5143,103.341 0.4373,103.125 C-0.4337,100.636 0.0113,98.113 1.6273,96.374 C4.2223,93.583 9.0453,93.712 12.3803,96.662 C14.1563,98.234 15.2363,100.371 15.3413,102.524 C15.4273,104.278 14.8523,105.912 13.7243,107.127 C12.4883,108.456 10.7123,109.137 8.8223,109.137 L8.8223,109.137 Z" id="Fill-178" fill="#373737" mask="url(#mask-4)"></path>
                <path d="M15.677,78.5192 L13.833,80.5192 L13.095,81.3212 L9.413,85.3152 C8.295,86.5282 8.372,88.4362 9.586,89.5542 L16.979,96.4212 C18.192,97.5402 20.1,97.4622 21.218,96.2482 L25.639,91.4532 C26.757,90.2402 26.679,88.3322 25.466,87.2132 L22.054,84.0092 L15.677,78.5192 Z" id="Fill-179" fill="#A5B5B6" mask="url(#mask-4)"></path>
                <path d="M25.6389,91.4528 C26.7569,90.2398 26.6789,88.3318 25.4659,87.2138 L23.9869,85.8498 L15.5349,95.0908 L16.9789,96.4218 C18.1919,97.5398 20.0999,97.4628 21.2179,96.2488 L25.6389,91.4528 Z" id="Fill-180" fill="#859596" mask="url(#mask-4)"></path>
                <path d="M19.0071,97.9626 C18.0621,97.9626 17.1661,97.6136 16.4701,96.9736 L9.0751,90.1046 C8.3431,89.4296 7.9161,88.5036 7.8751,87.5006 C7.8351,86.4976 8.1851,85.5406 8.8611,84.8076 L15.1251,78.0116 C15.4051,77.7066 15.8801,77.6876 16.1851,77.9686 C16.4891,78.2486 16.5091,78.7236 16.2281,79.0276 L9.9641,85.8236 C9.5601,86.2636 9.3501,86.8376 9.3741,87.4406 C9.3991,88.0426 9.6541,88.5986 10.0941,89.0026 L17.4891,95.8726 C17.9271,96.2756 18.5001,96.4836 19.1041,96.4606 C19.7061,96.4366 20.2611,96.1806 20.6661,95.7406 L25.0871,90.9446 C25.4921,90.5056 25.7011,89.9316 25.6771,89.3276 C25.6531,88.7256 25.3971,88.1706 24.9571,87.7656 L21.5401,84.5566 C21.2381,84.2736 21.2231,83.7986 21.5071,83.4966 C21.7901,83.1936 22.2651,83.1796 22.5671,83.4626 L25.9801,86.6666 C26.7081,87.3386 27.1351,88.2646 27.1761,89.2676 C27.2171,90.2706 26.8661,91.2276 26.1901,91.9616 L21.7701,96.7576 C21.0931,97.4916 20.1671,97.9186 19.1641,97.9586 C19.1111,97.9616 19.0591,97.9626 19.0071,97.9626" id="Fill-181" fill="#354546" mask="url(#mask-4)"></path>
                <path d="M15.4993,95.8083 C15.3173,95.8083 15.1353,95.7433 14.9903,95.6103 C14.6873,95.3293 14.6673,94.8543 14.9473,94.5493 L23.4353,85.3413 C23.7163,85.0373 24.1903,85.0183 24.4943,85.2983 C24.7993,85.5793 24.8183,86.0533 24.5383,86.3583 L16.0513,95.5663 C15.9023,95.7273 15.7013,95.8083 15.4993,95.8083" id="Fill-182" fill="#354546" mask="url(#mask-4)"></path>
                <path d="M24.4514,93.4909 C24.2614,93.4909 24.0714,93.4189 23.9254,93.2749 L20.3524,89.7559 C20.0574,89.4659 20.0544,88.9899 20.3454,88.6949 C20.6364,88.3999 21.1104,88.3959 21.4054,88.6869 L24.9774,92.2069 C25.2724,92.4969 25.2764,92.9719 24.9854,93.2669 C24.8394,93.4159 24.6454,93.4909 24.4514,93.4909" id="Fill-183" fill="#354546" mask="url(#mask-4)"></path>
                <path d="M21.5227,96.6687 C21.3477,96.6687 21.1727,96.6077 21.0317,96.4847 L17.2447,93.1977 C16.9317,92.9267 16.8977,92.4527 17.1687,92.1407 C17.4407,91.8267 17.9147,91.7937 18.2277,92.0647 L22.0147,95.3527 C22.3277,95.6237 22.3607,96.0977 22.0887,96.4097 C21.9407,96.5807 21.7327,96.6687 21.5227,96.6687" id="Fill-184" fill="#354546" mask="url(#mask-4)"></path>
                <path d="M12.9729,88.7575 C12.7839,88.7575 12.6019,88.6865 12.4619,88.5575 L9.2069,85.5335 C8.9049,85.2515 8.8869,84.7775 9.1679,84.4745 C9.4509,84.1705 9.9249,84.1535 10.2289,84.4355 L12.9319,86.9455 L17.2479,82.2635 L14.5399,79.7475 C14.2369,79.4665 14.2199,78.9915 14.5009,78.6885 C14.7839,78.3845 15.2579,78.3665 15.5619,78.6495 L18.8169,81.6725 C19.1189,81.9535 19.1369,82.4265 18.8579,82.7305 L13.5249,88.5165 C13.3889,88.6625 13.2019,88.7495 13.0019,88.7575 L12.9729,88.7575 Z" id="Fill-185" fill="#354546" mask="url(#mask-4)"></path>
                <path d="M22.053,84.7595 C21.872,84.7595 21.691,84.6945 21.546,84.5625 L19.914,83.0635 C19.609,82.7825 19.588,82.3085 19.868,82.0035 C20.149,81.6985 20.623,81.6785 20.929,81.9585 L22.561,83.4575 C22.865,83.7375 22.886,84.2115 22.606,84.5175 C22.458,84.6785 22.256,84.7595 22.053,84.7595" id="Fill-186" fill="#354546" mask="url(#mask-4)"></path>
                <path d="M60.4104,21.111 L60.3784,21.111 C59.9644,21.093 59.6424,20.744 59.6604,20.33 L60.0904,10.208 C60.1554,8.419 59.5144,6.701 58.2834,5.376 C57.0534,4.049 55.3874,3.284 53.5934,3.217 C53.5864,3.217 53.5794,3.216 53.5724,3.216 L27.5124,1.504 C23.7964,1.373 20.6654,4.285 20.5274,8.001 L20.0984,18.874 C20.0824,19.288 19.7354,19.614 19.3194,19.593 C18.9054,19.578 18.5834,19.229 18.5994,18.815 L19.0294,7.943 C19.1964,3.399 23.0344,-0.16 27.5784,0.006 C27.5854,0.006 27.5924,0.006 27.5994,0.007 L53.6604,1.718 C55.8494,1.802 57.8824,2.739 59.3834,4.355 C60.8864,5.973 61.6704,8.074 61.5884,10.267 L61.1594,20.393 C61.1414,20.797 60.8094,21.111 60.4104,21.111" id="Fill-187" fill="#354546" mask="url(#mask-4)"></path>
                <path d="M15.0657,19.7634 C13.7727,19.7154 12.6647,21.0254 12.6027,22.6744 L12.2287,32.8084 C12.1687,34.4564 13.1757,35.8454 14.4697,35.8934 C15.7637,35.9404 16.8227,35.9804 16.8227,35.9804 L17.4187,19.8504 C17.4187,19.8504 16.3597,19.8114 15.0657,19.7634" id="Fill-188" fill="#A5B5B6" mask="url(#mask-4)"></path>
                <path d="M12.6028,22.6745 L12.4198,27.6345 L17.1238,27.8075 L17.4178,19.8505 C17.4178,19.8505 16.3598,19.8115 15.0658,19.7635 C13.7728,19.7155 12.6648,21.0255 12.6028,22.6745" id="Fill-189" fill="#C5D5D6" mask="url(#mask-4)"></path>
                <path d="M16.7952,36.7292 L14.4422,36.6422 C12.7332,36.5792 11.4022,34.8462 11.4802,32.7802 L11.8542,22.6462 C11.8892,21.6822 12.2252,20.7772 12.8002,20.0982 C13.4092,19.3772 14.2432,18.9842 15.0942,19.0132 L17.4462,19.1002 L17.3912,20.5992 L15.0382,20.5122 C14.6492,20.4972 14.2592,20.6952 13.9442,21.0672 C13.5912,21.4852 13.3752,22.0812 13.3532,22.7022 L12.9782,32.8352 C12.9332,34.0542 13.6292,35.1112 14.4982,35.1432 L16.8502,35.2302 L16.7952,36.7292 Z" id="Fill-190" fill="#354546" mask="url(#mask-4)"></path>
                <polygon id="Fill-191" fill="#859596" mask="url(#mask-4)" points="21.138 38.5388 16.734 38.3758 17.458 18.7748 21.863 18.9368"></polygon>
                <polygon id="Fill-192" fill="#A5B5B6" mask="url(#mask-4)" points="21.4485 30.1521 17.0445 29.9891 17.4585 18.7751 21.8625 18.9371"></polygon>
                <path d="M17.511,37.654 L20.416,37.761 L21.085,19.659 L18.18,19.551 L17.511,37.654 Z M21.138,39.289 C21.129,39.289 21.119,39.289 21.111,39.288 L16.706,39.126 C16.292,39.11 15.969,38.762 15.985,38.348 L16.708,18.747 C16.716,18.549 16.802,18.36 16.948,18.225 C17.093,18.09 17.288,18.02 17.486,18.025 L21.89,18.188 C22.304,18.203 22.627,18.551 22.612,18.966 L21.888,38.566 C21.88,38.765 21.794,38.953 21.649,39.089 C21.51,39.217 21.327,39.289 21.138,39.289 L21.138,39.289 Z" id="Fill-193" fill="#354546" mask="url(#mask-4)"></path>
                <path d="M12.4202,28.3835 L12.4182,28.3835 L10.6172,28.3805 C10.2032,28.3795 9.8682,28.0435 9.8682,27.6285 C9.8692,27.2155 10.2052,26.8805 10.6182,26.8805 L10.6202,26.8805 L12.4212,26.8835 C12.8352,26.8845 13.1712,27.2215 13.1702,27.6355 C13.1692,28.0485 12.8332,28.3835 12.4202,28.3835" id="Fill-194" fill="#354546" mask="url(#mask-4)"></path>
                <path d="M67.4944,10.5544 C67.4084,10.5544 67.3214,10.5434 67.2344,10.5224 C66.6724,10.3784 66.3334,9.8074 66.4754,9.2444 L67.2534,6.1974 C67.3954,5.6344 67.9674,5.2954 68.5294,5.4384 C69.0914,5.5814 69.4314,6.1534 69.2874,6.7154 L68.5114,9.7634 C68.3904,10.2394 67.9634,10.5544 67.4944,10.5544" id="Fill-195" fill="#354546" mask="url(#mask-4)"></path>
                <path d="M64.4163,22.3366 C64.3543,22.3366 64.2923,22.3286 64.2303,22.3136 C63.8293,22.2106 63.5863,21.8026 63.6883,21.4006 L66.7673,9.3186 C66.8693,8.9176 67.2773,8.6756 67.6793,8.7776 C68.0803,8.8806 68.3223,9.2886 68.2203,9.6906 L65.1423,21.7716 C65.0563,22.1106 64.7513,22.3366 64.4163,22.3366" id="Fill-196" fill="#354546" mask="url(#mask-4)"></path>
                <path d="M64.4153,21.5866 C65.7093,21.6346 66.7183,23.0226 66.6573,24.6716 L66.2823,34.8056 C66.2223,36.4536 65.1133,37.7636 63.8193,37.7156 C62.5253,37.6686 61.4673,37.6286 61.4673,37.6286 L62.0633,21.4996 C62.0633,21.4996 63.1213,21.5386 64.4153,21.5866" id="Fill-197" fill="#A5B5B6" mask="url(#mask-4)"></path>
                <path d="M66.6575,24.6716 L66.4735,29.6306 L61.7695,29.4566 L62.0635,21.4996 C62.0635,21.4996 63.1215,21.5386 64.4155,21.5866 C65.7095,21.6346 66.7185,23.0226 66.6575,24.6716" id="Fill-198" fill="#C5D5D6" mask="url(#mask-4)"></path>
                <path d="M63.886,38.4675 C63.855,38.4675 63.824,38.4665 63.792,38.4655 L61.44,38.3785 L61.495,36.8795 L63.847,36.9665 C64.237,36.9825 64.626,36.7835 64.941,36.4115 C65.294,35.9945 65.51,35.3985 65.533,34.7775 L65.907,24.6435 C65.952,23.4245 65.257,22.3675 64.388,22.3355 L62.035,22.2485 L62.091,20.7495 L64.444,20.8365 C66.154,20.9005 67.483,22.6325 67.407,24.6985 L67.032,34.8325 C66.996,35.7965 66.66,36.7015 66.086,37.3815 C65.499,38.0745 64.701,38.4675 63.886,38.4675" id="Fill-199" fill="#354546" mask="url(#mask-4)"></path>
                <polygon id="Fill-200" fill="#859596" mask="url(#mask-4)" points="56.9749 39.862 61.3789 40.025 62.1029 20.425 57.6989 20.261"></polygon>
                <polygon id="Fill-201" fill="#A5B5B6" mask="url(#mask-4)" points="57.2844 31.4763 61.6884 31.6383 62.1024 20.4243 57.6984 20.2613"></polygon>
                <path d="M57.7522,39.1403 L60.6572,39.2473 L61.3252,21.1463 L58.4202,21.0383 L57.7522,39.1403 Z M61.3792,40.7753 L61.3512,40.7753 L56.9462,40.6123 C56.5332,40.5963 56.2102,40.2483 56.2252,39.8343 L56.9492,20.2343 C56.9652,19.8203 57.3142,19.4953 57.7272,19.5113 L62.1312,19.6743 C62.3292,19.6823 62.5172,19.7683 62.6522,19.9133 C62.7882,20.0593 62.8592,20.2523 62.8532,20.4523 L62.1282,40.0523 C62.1212,40.2513 62.0342,40.4393 61.8892,40.5753 C61.7502,40.7033 61.5672,40.7753 61.3792,40.7753 L61.3792,40.7753 Z" id="Fill-202" fill="#354546" mask="url(#mask-4)"></path>
                <path d="M68.2708,30.5105 C68.2528,30.5105 68.2348,30.5095 68.2158,30.5085 L66.4198,30.3785 C66.0068,30.3495 65.6958,29.9895 65.7258,29.5765 C65.7548,29.1635 66.1138,28.8545 66.5278,28.8825 L68.3248,29.0125 C68.7378,29.0415 69.0478,29.4015 69.0178,29.8145 C68.9898,30.2085 68.6608,30.5105 68.2708,30.5105" id="Fill-203" fill="#354546" mask="url(#mask-4)"></path>
                <path d="M21.0706,44.6755 C20.0436,44.6755 17.4356,45.7895 16.3296,47.0505 C15.3906,48.1195 15.2406,49.9055 16.0016,50.9505 C16.3116,51.3775 16.7216,51.6135 17.1866,51.6355 C17.7176,51.6565 18.2746,51.3855 18.7156,50.8835 C19.2486,50.2775 20.1616,48.8965 20.8056,47.5345 C21.6376,45.7735 21.6056,44.9615 21.4726,44.7795 C21.4316,44.7235 21.3026,44.6855 21.1286,44.6775 C21.1096,44.6765 21.0906,44.6755 21.0706,44.6755 M17.2516,53.1375 C17.2076,53.1375 17.1626,53.1355 17.1186,53.1335 C16.1966,53.0925 15.3696,52.6305 14.7886,51.8335 C13.6056,50.2095 13.7876,47.6735 15.2026,46.0615 C16.2496,44.8675 19.2946,43.0975 21.1956,43.1785 C22.0226,43.2165 22.4626,43.5895 22.6846,43.8955 C23.2976,44.7365 23.1266,46.1355 22.1616,48.1755 C21.4516,49.6775 20.4586,51.1725 19.8426,51.8725 C19.1336,52.6815 18.1956,53.1375 17.2516,53.1375" id="Fill-204" fill="#19B5FE" mask="url(#mask-4)"></path>
                <path d="M53.9768,42.6335 L53.9788,42.6335 L53.9768,42.6335 Z M55.4988,42.8985 C55.0418,42.8985 54.6888,42.9735 54.5208,43.1505 C54.3958,43.2805 54.4028,43.5415 54.4298,43.7375 C54.6018,44.9755 55.9448,46.7275 56.6958,47.1725 C57.6558,47.7395 59.2158,47.4285 60.1048,46.4925 C60.5308,46.0445 60.7378,45.5185 60.6718,45.0485 C60.6208,44.6745 60.3998,44.3625 60.0348,44.1465 C58.9678,43.5165 56.8098,42.8985 55.4988,42.8985 L55.4988,42.8985 Z M57.8418,48.9585 C57.1618,48.9585 56.4978,48.7985 55.9318,48.4635 C54.7678,47.7755 53.1748,45.6055 52.9448,43.9445 C52.8118,42.9975 53.1368,42.4285 53.4328,42.1165 C55.0588,40.4055 59.7468,42.2335 60.7978,42.8555 C61.5588,43.3055 62.0418,44.0115 62.1588,44.8415 C62.2878,45.7665 61.9348,46.7445 61.1928,47.5275 C60.3098,48.4555 59.0468,48.9585 57.8418,48.9585 L57.8418,48.9585 Z" id="Fill-205" fill="#19B5FE" mask="url(#mask-4)"></path>
                <path d="M14.7014,41.739 C14.2904,41.739 13.9364,41.77 13.6754,41.835 C12.0564,42.232 10.9794,44.083 11.2744,45.961 C11.4244,46.912 11.9154,47.728 12.6244,48.199 C13.2144,48.592 13.9164,48.717 14.5994,48.548 C15.4974,48.328 17.2154,47.581 18.6314,46.633 C20.1014,45.647 20.9194,44.673 20.8174,44.026 C20.7574,43.642 20.3554,43.303 20.0294,43.086 C18.7024,42.203 16.2774,41.739 14.7014,41.739 M13.9964,50.122 C13.2214,50.122 12.4624,49.893 11.7934,49.448 C10.7354,48.745 10.0074,47.558 9.7924,46.193 C9.3804,43.565 10.9614,40.957 13.3174,40.378 C15.0754,39.945 18.9024,40.534 20.8604,41.838 C21.6994,42.395 22.1824,43.053 22.2994,43.794 C22.7654,46.76 16.8894,49.53 14.9584,50.005 C14.6384,50.083 14.3154,50.122 13.9964,50.122" id="Fill-206" fill="#719911" mask="url(#mask-4)"></path>
                <path d="M56.6233,47.3093 C56.4713,51.4313 52.9723,54.7903 48.8473,54.7733 L27.2273,54.6833 C23.1023,54.6663 19.9893,51.2883 20.3103,47.1743 L22.6983,13.3293 C23.0193,9.2153 26.6443,6.1353 30.7553,6.4833 L50.5233,8.1533 C54.6343,8.5003 57.8723,12.1583 57.7203,16.2803 L56.6233,47.3093 Z" id="Fill-207" fill="#A5B5B6" mask="url(#mask-4)"></path>
                <path d="M53.1985,41.0153 C53.0865,44.0463 50.2825,46.5083 46.9685,46.4863 L29.5975,46.3653 C26.2835,46.3423 23.7745,43.8493 24.0215,40.8253 L25.8585,16.9293 C26.1055,13.9063 29.0115,11.6493 32.3145,11.9143 L48.2025,13.1933 C51.5055,13.4583 54.1165,16.1573 54.0045,19.1883 L53.1985,41.0153 Z" id="Fill-208" fill="#C5D5D6" mask="url(#mask-4)"></path>
                <path d="M50.4202,51.4343 L26.9272,51.2753 C24.0112,51.2553 21.5582,49.8143 20.2902,47.6783 C20.2492,51.5593 23.2722,54.6663 27.2272,54.6833 L48.8472,54.7733 C52.3062,54.7883 55.3242,52.4273 56.2982,49.2343 C54.7672,50.6043 52.6822,51.4503 50.4202,51.4343" id="Fill-209" fill="#859596" mask="url(#mask-4)"></path>
                <path d="M50.4817,52.1843 L50.4157,52.1843 L26.9207,52.0253 C23.8267,52.0043 21.1057,50.5223 19.6457,48.0613 C19.4337,47.7053 19.5507,47.2453 19.9077,47.0333 C20.2637,46.8223 20.7237,46.9393 20.9357,47.2953 C22.1257,49.3003 24.3677,50.5083 26.9317,50.5253 L50.4247,50.6843 C52.4227,50.6963 54.3357,49.9843 55.7977,48.6753 C56.1067,48.3993 56.5817,48.4253 56.8577,48.7343 C57.1327,49.0423 57.1077,49.5173 56.7977,49.7923 C55.0737,51.3363 52.8327,52.1843 50.4817,52.1843" id="Fill-210" fill="#354546" mask="url(#mask-4)"></path>
                <path d="M56.6233,47.3093 L56.6253,47.3093 L56.6233,47.3093 Z M30.1193,7.2053 C28.5353,7.2053 27.0173,7.7633 25.7913,8.8043 C24.4183,9.9713 23.5853,11.5983 23.4453,13.3863 L21.0593,47.2283 C20.9193,49.0123 21.4853,50.6893 22.6533,51.9563 C23.8203,53.2243 25.4463,53.9253 27.2303,53.9333 L48.8503,54.0233 L48.8783,54.0233 C52.6013,54.0233 55.7363,51.0053 55.8743,47.2823 L56.9703,16.2533 C57.1083,12.5133 54.1873,9.2153 50.4603,8.9013 L30.6913,7.2303 C30.5003,7.2133 30.3093,7.2053 30.1193,7.2053 L30.1193,7.2053 Z M48.8783,55.5233 L48.8433,55.5233 L27.2243,55.4333 C25.0183,55.4243 23.0033,54.5503 21.5503,52.9733 C20.0973,51.3953 19.3913,49.3163 19.5623,47.1173 L21.9503,13.2763 C22.1213,11.0803 23.1403,9.0883 24.8193,7.6623 C26.4993,6.2353 28.6303,5.5503 30.8173,5.7353 L50.5863,7.4063 C55.1013,7.7883 58.6373,11.7813 58.4703,16.3073 L57.3733,47.3353 L57.3733,47.3373 C57.2063,51.8583 53.3983,55.5233 48.8783,55.5233 L48.8783,55.5233 Z" id="Fill-211" fill="#354546" mask="url(#mask-4)"></path>
                <path d="M40.0969,16.2956 C35.9899,16.2956 31.0929,15.0336 31.0929,9.0236 C31.0929,8.0796 31.2139,7.4536 31.4539,6.5616 C31.5619,6.1606 31.9729,5.9246 32.3729,6.0306 C32.7739,6.1396 33.0109,6.5506 32.9029,6.9506 C32.6889,7.7486 32.5929,8.2376 32.5929,9.0236 C32.5929,10.4506 32.5929,14.7956 40.0969,14.7956 C47.6329,14.7956 47.6329,10.4506 47.6329,9.0236 C47.6329,8.7056 47.6179,8.3856 47.5839,8.0706 C47.5419,7.6586 47.8419,7.2906 48.2539,7.2476 C48.6669,7.2076 49.0349,7.5056 49.0759,7.9176 C49.1149,8.2816 49.1329,8.6536 49.1329,9.0236 C49.1329,12.3406 47.5659,16.2956 40.0969,16.2956" id="Fill-212" fill="#354546" mask="url(#mask-4)"></path>
                <path d="M35.3147,25.9421 C35.1487,30.4131 31.3907,32.4031 26.9207,32.2381 C22.4507,32.0721 18.9607,29.8141 19.1257,25.3441 C19.2907,20.8741 23.0477,17.3831 27.5187,17.5481 C31.9897,17.7131 35.4797,21.4711 35.3147,25.9421" id="Fill-213" fill="#C5D5D6" mask="url(#mask-4)"></path>
                <path d="M27.2161,18.2927 C23.2871,18.2927 20.0211,21.4137 19.8751,25.3717 C19.8051,27.2557 20.4391,28.7537 21.7571,29.8227 C23.0021,30.8327 24.7981,31.4087 26.9481,31.4877 C29.1111,31.5687 30.9651,31.1257 32.3101,30.2087 C33.7371,29.2347 34.4951,27.7907 34.5651,25.9147 C34.6371,23.9527 33.9421,22.0797 32.6061,20.6417 C31.2701,19.2027 29.4531,18.3707 27.4911,18.2977 C27.4001,18.2947 27.3081,18.2927 27.2161,18.2927 M27.4381,32.9977 C27.2581,32.9977 27.0761,32.9937 26.8931,32.9867 C24.4151,32.8957 22.3131,32.2037 20.8131,30.9877 C19.1321,29.6247 18.2891,27.6637 18.3761,25.3157 C18.5561,20.4397 22.6681,16.6207 27.5461,16.7987 C29.9081,16.8867 32.0961,17.8887 33.7041,19.6207 C35.3131,21.3527 36.1511,23.6067 36.0641,25.9697 C35.9771,28.3147 34.9711,30.2097 33.1541,31.4477 C31.6621,32.4657 29.6951,32.9977 27.4381,32.9977" id="Fill-214" fill="#354546" mask="url(#mask-4)"></path>
                <path d="M32.4387,25.8357 C32.3327,28.7187 29.9097,29.4687 27.0267,29.3617 C24.1447,29.2557 21.8937,28.3327 22.0007,25.4497 C22.1067,22.5677 24.5307,20.3167 27.4127,20.4237 C30.2947,20.5297 32.5447,22.9537 32.4387,25.8357" id="Fill-215" fill="#9ABD45" mask="url(#mask-4)"></path>
                <path d="M30.5208,24.2341 C30.4548,26.0261 28.9488,27.4241 27.1568,27.3581 C25.3648,27.2931 23.9658,25.7861 24.0328,23.9951 C24.0978,22.2031 25.6048,20.8031 27.3958,20.8701 C29.1878,20.9361 30.5868,22.4421 30.5208,24.2341" id="Fill-216" fill="#CEEC87" mask="url(#mask-4)"></path>
                <path d="M27.218,21.1706 C24.826,21.1706 22.839,23.0686 22.75,25.4786 C22.653,28.1116 24.999,28.5366 27.055,28.6126 C28.516,28.6676 29.646,28.4816 30.414,28.0616 C31.244,27.6086 31.65,26.8936 31.69,25.8086 C31.78,23.3436 29.85,21.2646 27.385,21.1736 C27.329,21.1716 27.274,21.1706 27.218,21.1706 M27.529,30.1216 C27.357,30.1216 27.181,30.1186 26.999,30.1116 C24.302,30.0126 21.114,29.1176 21.251,25.4226 C21.372,22.1316 24.152,19.5556 27.441,19.6746 C30.732,19.7956 33.31,22.5726 33.189,25.8636 C33.115,27.8286 32.059,30.1216 27.529,30.1216" id="Fill-217" fill="#354546" mask="url(#mask-4)"></path>
                <path d="M28.5657,22.1687 C28.8977,22.9107 27.8607,23.5447 26.5027,24.1517 C25.1447,24.7597 23.9807,25.1107 23.6487,24.3687 C23.3167,23.6277 24.1487,22.5337 25.5057,21.9257 C26.8637,21.3177 28.2337,21.4267 28.5657,22.1687" id="Fill-218" fill="#FFFFFF" mask="url(#mask-4)"></path>
                <path d="M28.2844,28.0407 C28.1984,27.8487 28.4674,27.6837 28.8194,27.5257 C29.1724,27.3677 29.4734,27.2767 29.5604,27.4697 C29.6464,27.6617 29.4304,27.9457 29.0784,28.1027 C28.7254,28.2617 28.3704,28.2327 28.2844,28.0407" id="Fill-219" fill="#FFFFFF" mask="url(#mask-4)"></path>
                <path d="M31.7522,24.28 C31.7282,24.961 31.1552,25.491 30.4752,25.467 C29.7942,25.441 29.2632,24.869 29.2882,24.188 C29.3142,23.509 29.8862,22.977 30.5652,23.002 C31.2462,23.027 31.7772,23.599 31.7522,24.28" id="Fill-220" fill="#354546" mask="url(#mask-4)"></path>
                <path d="M58.1526,27.2898 C58.0126,31.0778 54.8286,32.3858 51.0406,32.2448 C47.2526,32.1048 44.2946,30.5708 44.4336,26.7828 C44.5746,22.9948 47.7586,20.0368 51.5476,20.1768 C55.3356,20.3168 58.2926,23.5018 58.1526,27.2898" id="Fill-221" fill="#C5D5D6" mask="url(#mask-4)"></path>
                <path d="M51.2874,20.9226 C49.7404,20.9226 48.2724,21.4976 47.1334,22.5566 C45.9354,23.6676 45.2444,25.1786 45.1834,26.8106 C45.0474,30.4976 48.3084,31.3946 51.0674,31.4956 C56.1694,31.6896 57.3274,29.2976 57.4034,27.2616 C57.4634,25.6296 56.8854,24.0716 55.7734,22.8756 C54.6624,21.6786 53.1504,20.9866 51.5184,20.9266 C51.4414,20.9236 51.3644,20.9226 51.2874,20.9226 M51.5904,33.0056 C51.4004,33.0056 51.2084,33.0016 51.0124,32.9946 C46.2154,32.8176 43.5454,30.5436 43.6844,26.7546 C43.7604,24.7226 44.6224,22.8416 46.1114,21.4566 C47.6024,20.0726 49.5424,19.3506 51.5744,19.4276 C53.6064,19.5026 55.4884,20.3646 56.8724,21.8546 C58.2564,23.3446 58.9764,25.2846 58.9024,27.3176 C58.7674,30.9526 56.1124,33.0056 51.5904,33.0056" id="Fill-222" fill="#354546" mask="url(#mask-4)"></path>
                <path d="M55.7161,27.1999 C55.6261,29.6419 53.5721,29.8989 51.1301,29.8089 C48.6881,29.7189 46.7801,29.3149 46.8701,26.8729 C46.9611,24.4299 49.0141,22.5229 51.4571,22.6129 C53.9001,22.7039 55.8071,24.7569 55.7161,27.1999" id="Fill-223" fill="#19B5FE" mask="url(#mask-4)"></path>
                <path d="M54.0423,25.6667 C53.9863,27.1857 52.8123,27.7487 51.2933,27.6927 C49.7743,27.6367 48.4883,26.9817 48.5443,25.4637 C48.6013,23.9447 49.8763,22.7607 51.3953,22.8157 C52.9133,22.8717 54.0993,24.1477 54.0423,25.6667" id="Fill-224" fill="#39D5FF" mask="url(#mask-4)"></path>
                <path d="M51.2913,23.3601 C49.3263,23.3601 47.6933,24.9211 47.6203,26.9001 C47.5803,27.9681 47.9963,28.3401 48.4073,28.5631 C49.0963,28.9361 50.1843,29.0231 51.1573,29.0591 C54.2983,29.1771 54.9183,28.4851 54.9673,27.1721 L55.7163,27.2001 L54.9673,27.1721 C55.0413,25.1461 53.4543,23.4371 51.4293,23.3631 C51.3833,23.3611 51.3373,23.3601 51.2913,23.3601 M51.9693,30.5791 C51.6503,30.5791 51.3553,30.5681 51.1033,30.5581 C49.9553,30.5161 48.6533,30.4031 47.6933,29.8821 C46.5983,29.2891 46.0683,28.2671 46.1213,26.8451 C46.2273,23.9931 48.6323,21.7601 51.4843,21.8641 C54.3363,21.9691 56.5703,24.3761 56.4663,27.2271 C56.3543,30.2251 53.7803,30.5791 51.9693,30.5791" id="Fill-225" fill="#354546" mask="url(#mask-4)"></path>
                <path d="M49.5872,27.6687 C49.5662,28.2457 49.0802,28.6957 48.5042,28.6747 C47.9272,28.6527 47.4772,28.1687 47.4982,27.5917 C47.5202,27.0157 48.0042,26.5647 48.5812,26.5867 C49.1572,26.6067 49.6082,27.0927 49.5872,27.6687" id="Fill-226" fill="#354546" mask="url(#mask-4)"></path>
                <path d="M52.4339,24.0915 C52.7149,24.7205 51.8359,25.2575 50.6859,25.7725 C49.5349,26.2875 48.5489,26.5855 48.2669,25.9565 C47.9859,25.3275 48.6909,24.4015 49.8409,23.8865 C50.9919,23.3705 52.1529,23.4635 52.4339,24.0915" id="Fill-227" fill="#FFFFFF" mask="url(#mask-4)"></path>
                <path d="M52.7512,28.5866 C52.6782,28.4236 52.9062,28.2836 53.2042,28.1496 C53.5032,28.0166 53.7592,27.9396 53.8322,28.1026 C53.9052,28.2656 53.7232,28.5066 53.4242,28.6396 C53.1252,28.7736 52.8242,28.7496 52.7512,28.5866" id="Fill-228" fill="#FFFFFF" mask="url(#mask-4)"></path>
                <path d="M26.2669,35.9773 C26.5979,41.9353 32.2679,46.5083 38.9329,46.1913 C45.5979,45.8743 50.7329,40.7883 50.4029,34.8303 L26.2669,35.9773 Z" id="Fill-229" fill="#FFFFFF" mask="url(#mask-4)"></path>
                <path d="M27.0901,36.6892 C27.8141,41.8562 32.9401,45.7242 38.8981,45.4422 C42.1291,45.2892 45.1461,43.9112 47.1751,41.6622 C48.7341,39.9342 49.6031,37.8102 49.6641,35.6162 L27.0901,36.6892 Z M38.2841,46.9572 C31.5191,46.9572 25.8601,42.1702 25.5191,36.0192 C25.5071,35.8192 25.5761,35.6242 25.7101,35.4752 C25.8441,35.3272 26.0311,35.2382 26.2321,35.2282 L50.3671,34.0812 C50.7771,34.0582 51.1291,34.3762 51.1521,34.7892 C51.3101,37.6472 50.2931,40.4442 48.2881,42.6672 C45.9941,45.2102 42.5971,46.7682 38.9691,46.9402 C38.7391,46.9522 38.5111,46.9572 38.2841,46.9572 L38.2841,46.9572 Z" id="Fill-230" fill="#354546" mask="url(#mask-4)"></path>
                <path d="M31.6809,44.8425 C31.2769,44.8425 30.9439,44.5215 30.9319,44.1145 L30.6809,35.7545 C30.6679,35.3405 30.9939,34.9945 31.4079,34.9825 L31.4309,34.9825 C31.8339,34.9825 32.1669,35.3035 32.1799,35.7095 L32.4309,44.0705 C32.4429,44.4845 32.1179,44.8295 31.7029,44.8425 L31.6809,44.8425 Z" id="Fill-231" fill="#354546" mask="url(#mask-4)"></path>
                <path d="M38.0764,46.9548 L38.0734,46.9548 C37.6584,46.9528 37.3244,46.6148 37.3264,46.2008 L37.3814,35.4448 C37.3844,35.0308 37.7224,34.6938 38.1354,34.6988 C38.5494,34.7008 38.8844,35.0388 38.8814,35.4528 L38.8264,46.2088 C38.8244,46.6218 38.4894,46.9548 38.0764,46.9548" id="Fill-232" fill="#354546" mask="url(#mask-4)"></path>
                <path d="M44.6262,44.8786 L44.6152,44.8786 C44.2012,44.8726 43.8702,44.5326 43.8762,44.1186 L44.0052,35.1236 C44.0112,34.7126 44.3462,34.3846 44.7552,34.3846 L44.7662,34.3846 C45.1802,34.3906 45.5112,34.7306 45.5052,35.1446 L45.3762,44.1396 C45.3702,44.5506 45.0352,44.8786 44.6262,44.8786" id="Fill-233" fill="#354546" mask="url(#mask-4)"></path>
            </g>
        </g>
    </g>
</svg>