<?xml version="1.0" encoding="UTF-8"?>
<svg width="103px" height="122px" viewBox="0 0 103 122" version="1.1" xmlns="http://www.w3.org/2000/svg" xmlns:xlink="http://www.w3.org/1999/xlink">
    <!-- Generator: Sketch 42 (36781) - http://www.bohemiancoding.com/sketch -->
    <title>8</title>
    <desc>Created with Sketch.</desc>
    <defs>
        <polygon id="path-1" points="63.7587 8 0.4927 8 0.4927 0.3772 63.7587 0.3772"></polygon>
        <polygon id="path-3" points="0 122.04 102.728 122.04 102.728 0 0 0"></polygon>
    </defs>
    <g id="Page-1" stroke="none" stroke-width="1" fill="none" fill-rule="evenodd">
        <g id="1024" transform="translate(-421.000000, -246.000000)">
            <g id="8" transform="translate(421.000000, 246.000000)">
                <g id="Group-3" transform="translate(6.000000, 114.040000)">
                    <mask id="mask-2" fill="white">
                        <use xlink:href="#path-1"></use>
                    </mask>
                    <g id="Clip-2"></g>
                    <path d="M63.7587,4.1892 C63.7587,6.2932 49.5967,8.0002 32.1257,8.0002 C14.6547,8.0002 0.4927,6.2932 0.4927,4.1892 C0.4927,2.0842 14.6547,0.3772 32.1257,0.3772 C49.5967,0.3772 63.7587,2.0842 63.7587,4.1892" id="Fill-1" fill="#CCCCCC" mask="url(#mask-2)"></path>
                </g>
                <mask id="mask-4" fill="white">
                    <use xlink:href="#path-3"></use>
                </mask>
                <g id="Clip-5"></g>
                <polygon id="Fill-4" fill="#758586" mask="url(#mask-4)" points="29.743 87.553 45.862 87.553 45.862 75.947 29.743 75.947"></polygon>
                <path d="M30.493,86.803 L45.112,86.803 L45.112,76.697 L30.493,76.697 L30.493,86.803 Z M45.862,88.303 L29.743,88.303 C29.329,88.303 28.993,87.967 28.993,87.553 L28.993,75.947 C28.993,75.533 29.329,75.197 29.743,75.197 L45.862,75.197 C46.276,75.197 46.612,75.533 46.612,75.947 L46.612,87.553 C46.612,87.967 46.276,88.303 45.862,88.303 L45.862,88.303 Z" id="Fill-6" fill="#354546" mask="url(#mask-4)"></path>
                <polygon id="Fill-7" fill="#758586" mask="url(#mask-4)" points="33.403 61.397 42.746 61.397 42.746 52.894 33.403 52.894"></polygon>
                <path d="M34.153,60.647 L41.996,60.647 L41.996,53.644 L34.153,53.644 L34.153,60.647 Z M42.746,62.147 L33.403,62.147 C32.989,62.147 32.653,61.811 32.653,61.397 L32.653,52.894 C32.653,52.48 32.989,52.144 33.403,52.144 L42.746,52.144 C43.16,52.144 43.496,52.48 43.496,52.894 L43.496,61.397 C43.496,61.811 43.16,62.147 42.746,62.147 L42.746,62.147 Z" id="Fill-8" fill="#354546" mask="url(#mask-4)"></path>
                <path d="M42.747,58.3972 C42.733,58.3972 42.72,58.3972 42.706,58.3962 L33.363,57.8942 C32.95,57.8722 32.632,57.5192 32.655,57.1052 C32.677,56.6912 33.03,56.3732 33.444,56.3962 L42.786,56.8982 C43.2,56.9202 43.517,57.2742 43.495,57.6872 C43.474,58.0872 43.143,58.3972 42.747,58.3972" id="Fill-9" fill="#354546" mask="url(#mask-4)"></path>
                <path d="M21.7202,62.0798 C23.2082,62.5488 24.6742,63.0228 26.0672,63.3808 L24.9052,67.9538 C23.2812,67.5358 21.7832,67.0448 20.2992,66.5798 L21.7202,62.0798 Z" id="Fill-10" fill="#F9BF3B" mask="url(#mask-4)"></path>
                <path d="M24.7177,68.6804 C23.3247,68.3224 22.0227,67.9094 20.7617,67.5114 L20.0747,67.2944 L20.5237,65.8644 L21.2147,66.0814 C22.4547,66.4734 23.7387,66.8784 25.0927,67.2284 L24.7177,68.6804 Z" id="Fill-11" fill="#F1892D" mask="url(#mask-4)"></path>
                <path d="M25.8808,64.1071 C24.6448,63.7901 23.3898,63.3931 22.0608,62.9731 L21.4948,62.7951 L21.9448,61.3651 L22.5128,61.5441 C23.8208,61.9571 25.0578,62.3471 26.2538,62.6551 L25.8808,64.1071 Z" id="Fill-12" fill="#F1892D" mask="url(#mask-4)"></path>
                <polygon id="Fill-13" fill="#F1892D" mask="url(#mask-4)" points="23.267 67.5036 21.832 67.0656 23.211 62.5526 24.646 62.9906"></polygon>
                <path d="M17.1313,60.7185 C18.7063,61.1335 20.2303,61.6095 21.7203,62.0795 L20.2993,66.5795 C18.8193,66.1125 17.3683,65.6595 15.9303,65.2815 L17.1313,60.7185 Z" id="Fill-14" fill="#F9BF3B" mask="url(#mask-4)"></path>
                <path d="M20.0732,67.2946 C18.6102,66.8316 17.1772,66.3856 15.7402,66.0076 L16.1212,64.5566 C17.5912,64.9426 19.1032,65.4146 20.5252,65.8636 L20.0732,67.2946 Z" id="Fill-15" fill="#F1892D" mask="url(#mask-4)"></path>
                <path d="M21.4946,62.7946 C19.9746,62.3156 18.4836,61.8506 16.9406,61.4436 L17.3226,59.9936 C18.8986,60.4086 20.4096,60.8786 21.9466,61.3646 L21.4946,62.7946 Z" id="Fill-16" fill="#F1892D" mask="url(#mask-4)"></path>
                <polygon id="Fill-17" fill="#F1892D" mask="url(#mask-4)" points="18.8178 66.113 17.3808 65.681 18.7388 61.163 20.1758 61.594"></polygon>
                <path d="M12.1865,59.7644 C13.9255,59.9444 15.5545,60.3054 17.1315,60.7184 L15.9305,65.2824 C14.4965,64.9044 13.0715,64.5984 11.7105,64.4584 L12.1865,59.7644 Z" id="Fill-18" fill="#F9BF3B" mask="url(#mask-4)"></path>
                <path d="M15.7397,66.0075 C14.1197,65.5805 12.8147,65.3255 11.6347,65.2045 L11.7867,63.7125 C13.0467,63.8415 14.4247,64.1105 16.1217,64.5565 L15.7397,66.0075 Z" id="Fill-19" fill="#F1892D" mask="url(#mask-4)"></path>
                <path d="M16.9409,61.4441 C15.6679,61.1101 13.9669,60.7031 12.1089,60.5101 L12.2639,59.0181 C14.2229,59.2211 15.9959,59.6461 17.3209,59.9931 L16.9409,61.4441 Z" id="Fill-20" fill="#F1892D" mask="url(#mask-4)"></path>
                <polygon id="Fill-21" fill="#F1892D" mask="url(#mask-4)" points="14.5287 64.9284 13.0577 64.6344 13.9847 60.0074 15.4547 60.3014"></polygon>
                <path d="M6.5707,60.2263 C7.5637,59.8903 8.5427,59.7473 9.4797,59.6893 C10.4167,59.6373 11.3177,59.6753 12.1867,59.7643 L11.7107,64.4583 C10.3567,64.3183 9.0507,64.3643 8.0777,64.6983 L6.5707,60.2263 Z" id="Fill-22" fill="#F9BF3B" mask="url(#mask-4)"></path>
                <path d="M8.3212,65.4079 L7.8342,63.9889 C9.1042,63.5539 10.6852,63.5979 11.7882,63.7129 L11.6332,65.2049 C10.2662,65.0629 9.1212,65.1329 8.3212,65.4079" id="Fill-23" fill="#F1892D" mask="url(#mask-4)"></path>
                <path d="M6.8115,60.9372 L6.3305,59.5162 C7.2645,59.2002 8.2795,59.0112 9.4335,58.9412 C10.3355,58.8902 11.2595,58.9162 12.2625,59.0182 L12.1105,60.5102 C11.1865,60.4162 10.3385,60.3922 9.5215,60.4382 C8.5055,60.5002 7.6175,60.6642 6.8115,60.9372" id="Fill-24" fill="#F1892D" mask="url(#mask-4)"></path>
                <polygon id="Fill-25" fill="#F1892D" mask="url(#mask-4)" points="9.0029 64.4431 8.7309 59.7321 10.2289 59.6461 10.5009 64.3571"></polygon>
                <path d="M1.7934,64.406 C2.2464,63.478 2.9104,62.569 3.7474,61.831 C4.5854,61.09 5.5844,60.557 6.5704,60.226 L8.0774,64.698 C7.1014,65.034 6.4934,65.57 6.0184,66.508 L1.7934,64.406 Z" id="Fill-26" fill="#F9BF3B" mask="url(#mask-4)"></path>
                <path d="M6.6874,66.8464 L5.3494,66.1684 C5.9114,65.0594 6.6774,64.3864 7.8334,63.9894 L8.3214,65.4074 C7.5324,65.6784 7.0744,66.0814 6.6874,66.8464" id="Fill-27" fill="#F1892D" mask="url(#mask-4)"></path>
                <path d="M2.4677,64.7351 L1.1187,64.0781 C1.6397,63.0101 2.3767,62.0391 3.2517,61.2681 C4.1087,60.5101 5.1747,59.9041 6.3327,59.5151 L6.8097,60.9381 C5.8407,61.2621 4.9527,61.7651 4.2447,62.3921 C3.5157,63.0351 2.9017,63.8441 2.4677,64.7351" id="Fill-28" fill="#F1892D" mask="url(#mask-4)"></path>
                <polygon id="Fill-29" fill="#F1892D" mask="url(#mask-4)" points="6.2968 65.8718 3.1838 62.3258 4.3108 61.3368 7.4238 64.8828"></polygon>
                <path d="M0.8437,70.3054 C0.7197,69.3394 0.7097,68.3244 0.8697,67.3134 C0.9027,67.0604 0.9617,66.8104 1.0137,66.5604 C1.0797,66.3124 1.1377,66.0624 1.2217,65.8204 C1.2977,65.5724 1.3867,65.3384 1.4777,65.1064 C1.5227,64.9894 1.5777,64.8714 1.6287,64.7554 C1.6787,64.6384 1.7327,64.5224 1.7937,64.4064 L6.0187,66.5074 C5.9877,66.5634 5.9597,66.6234 5.9337,66.6864 C5.9077,66.7484 5.8777,66.8064 5.8537,66.8714 C5.8037,67.0024 5.7527,67.1314 5.7157,67.2574 C5.6697,67.3824 5.6437,67.5134 5.6067,67.6414 C5.5837,67.7724 5.5477,67.9014 5.5327,68.0344 C5.4477,68.5634 5.4497,69.1204 5.5227,69.6994 L0.8437,70.3054 Z" id="Fill-30" fill="#F9BF3B" mask="url(#mask-4)"></path>
                <path d="M4.7792,69.7927 C4.6962,69.1337 4.6992,68.5077 4.7892,67.9327 C4.8032,67.8177 4.8252,67.7167 4.8442,67.6267 C4.8532,67.5877 4.8612,67.5487 4.8682,67.5087 L4.8872,67.4307 C4.8982,67.3917 4.9082,67.3527 4.9182,67.3137 C4.9402,67.2267 4.9662,67.1287 5.0032,67.0227 C5.0422,66.8947 5.0882,66.7727 5.1332,66.6557 L5.1532,66.6047 C5.1702,66.5567 5.1952,66.5017 5.2192,66.4467 C5.2272,66.4317 5.2352,66.4147 5.2412,66.3977 C5.2782,66.3087 5.3172,66.2267 5.3602,66.1487 L6.6772,66.8657 C6.6612,66.8957 6.6442,66.9317 6.6272,66.9727 C6.6122,67.0067 6.5982,67.0387 6.5842,67.0707 C6.5752,67.0897 6.5662,67.1077 6.5582,67.1287 L6.5342,67.1927 C6.4952,67.2937 6.4592,67.3887 6.4362,67.4677 L6.4192,67.5177 C6.4032,67.5607 6.3872,67.6217 6.3712,67.6877 C6.3602,67.7297 6.3492,67.7717 6.3372,67.8137 C6.3292,67.8557 6.3202,67.8987 6.3112,67.9417 C6.2962,68.0117 6.2832,68.0707 6.2782,68.1177 L6.2732,68.1527 C6.2022,68.5927 6.2002,69.0807 6.2672,69.6057 L4.7792,69.7927 Z" id="Fill-31" fill="#F1892D" mask="url(#mask-4)"></path>
                <path d="M0.0995,70.4011 C-0.0425,69.2971 -0.0325,68.2221 0.1275,67.2061 C0.1565,66.9841 0.2015,66.7751 0.2445,66.5731 L0.2885,66.3681 L0.3295,66.2111 C0.3815,66.0091 0.4355,65.8001 0.5085,65.5881 C0.5915,65.3191 0.6875,65.0671 0.7795,64.8331 C0.8125,64.7461 0.8535,64.6521 0.8955,64.5591 L0.9395,64.4581 C0.9995,64.3181 1.0615,64.1871 1.1275,64.0601 L2.4585,64.7531 C2.4095,64.8461 2.3635,64.9441 2.3175,65.0511 L2.2665,65.1691 C2.2355,65.2371 2.2045,65.3051 2.1785,65.3741 C2.0905,65.5991 2.0075,65.8161 1.9385,66.0401 L1.9305,66.0641 C1.8745,66.2251 1.8295,66.4001 1.7825,66.5861 L1.7115,66.8851 C1.6725,67.0701 1.6355,67.2451 1.6135,67.4121 L1.6105,67.4301 C1.4715,68.3091 1.4635,69.2451 1.5875,70.2111 L0.0995,70.4011 Z" id="Fill-32" fill="#F1892D" mask="url(#mask-4)"></path>
                <polygon id="Fill-33" fill="#F1892D" mask="url(#mask-4)" points="5.4179 68.7761 0.7549 68.0541 0.9839 66.5721 5.6469 67.2941"></polygon>
                <path d="M2.6215,75.5144 C2.2045,74.7404 1.8285,73.9244 1.5185,73.0584 C1.3635,72.6254 1.2295,72.1774 1.1115,71.7204 C1.0015,71.2594 0.9055,70.7894 0.8435,70.3054 L5.5225,69.6994 C5.6685,70.8554 6.1345,72.0834 6.7755,73.2764 L2.6215,75.5144 Z" id="Fill-34" fill="#F9BF3B" mask="url(#mask-4)"></path>
                <path d="M6.1147,73.6306 C5.3757,72.2566 4.9267,70.9646 4.7787,69.7926 L6.2667,69.6056 C6.3917,70.5936 6.7847,71.7096 7.4357,72.9206 L6.1147,73.6306 Z" id="Fill-35" fill="#F1892D" mask="url(#mask-4)"></path>
                <path d="M1.9609,75.8698 C1.4919,74.9988 1.1169,74.1618 0.8129,73.3098 C0.6599,72.8868 0.5199,72.4278 0.3859,71.9088 C0.2469,71.3318 0.1569,70.8558 0.0999,70.3998 L1.5879,70.2118 C1.6389,70.6118 1.7189,71.0368 1.8409,71.5458 C1.9609,72.0068 2.0869,72.4228 2.2239,72.8038 C2.5029,73.5858 2.8489,74.3548 3.2819,75.1578 L1.9609,75.8698 Z" id="Fill-36" fill="#F1892D" mask="url(#mask-4)"></path>
                <polygon id="Fill-37" fill="#F1892D" mask="url(#mask-4)" points="1.7704 73.7644 1.2674 72.3514 5.7114 70.7684 6.2154 72.1804"></polygon>
                <path d="M5.5102,79.7429 C4.4492,78.4499 3.4582,77.0609 2.6212,75.5139 L6.7752,73.2759 C7.4202,74.4709 8.2412,75.6349 9.1562,76.7469 L5.5102,79.7429 Z" id="Fill-38" fill="#F9BF3B" mask="url(#mask-4)"></path>
                <path d="M8.5761,77.2233 C7.5661,75.9943 6.7381,74.7853 6.1151,73.6313 L7.4351,72.9193 C8.0131,73.9893 8.7861,75.1173 9.7351,76.2703 L8.5761,77.2233 Z" id="Fill-39" fill="#F1892D" mask="url(#mask-4)"></path>
                <path d="M4.9306,80.2185 C3.7116,78.7335 2.7406,77.3105 1.9616,75.8705 L3.2816,75.1565 C4.0136,76.5115 4.9326,77.8565 6.0906,79.2675 L4.9306,80.2185 Z" id="Fill-40" fill="#F1892D" mask="url(#mask-4)"></path>
                <polygon id="Fill-41" fill="#F1892D" mask="url(#mask-4)" points="4.4081 78.3405 3.5561 77.1065 7.4381 74.4245 8.2911 75.6585"></polygon>
                <path d="M8.8998,83.363 C7.7118,82.232 6.5738,81.035 5.5098,79.743 L9.1558,76.747 C10.0718,77.86 11.0818,78.927 12.1508,79.943 L8.8998,83.363 Z" id="Fill-42" fill="#F9BF3B" mask="url(#mask-4)"></path>
                <path d="M11.6342,80.486 C10.4992,79.408 9.4702,78.31 8.5762,77.223 L9.7342,76.27 C10.5902,77.31 11.5772,78.363 12.6672,79.399 L11.6342,80.486 Z" id="Fill-43" fill="#F1892D" mask="url(#mask-4)"></path>
                <path d="M8.3832,83.906 C7.0912,82.678 5.9632,81.472 4.9312,80.219 L6.0892,79.266 C7.0812,80.471 8.1702,81.634 9.4172,82.819 L8.3832,83.906 Z" id="Fill-44" fill="#F1892D" mask="url(#mask-4)"></path>
                <polygon id="Fill-45" fill="#F1892D" mask="url(#mask-4)" points="7.6718 82.1599 6.6448 81.0669 10.0828 77.8349 11.1098 78.9279"></polygon>
                <path d="M12.6826,86.5876 L12.4096,86.3806 L12.1596,86.1876 L11.6726,85.7986 C11.3516,85.5386 11.0366,85.2756 10.7246,85.0096 C10.1026,84.4766 9.4946,83.9276 8.8996,83.3626 L12.1506,79.9426 C12.6856,80.4496 13.2346,80.9456 13.7946,81.4256 C14.0746,81.6656 14.3576,81.9016 14.6416,82.1326 L15.0686,82.4726 L15.2806,82.6366 L15.4726,82.7816 L12.6826,86.5876 Z" id="Fill-46" fill="#F9BF3B" mask="url(#mask-4)"></path>
                <path d="M15.02,83.3796 L14.609,83.0656 L14.174,82.7186 C13.884,82.4836 13.593,82.2406 13.307,81.9956 C12.743,81.5126 12.18,81.0046 11.634,80.4866 L12.667,79.3996 C13.194,79.8996 13.738,80.3896 14.283,80.8566 C14.559,81.0926 14.838,81.3256 15.114,81.5496 L15.925,82.1846 L15.02,83.3796 Z" id="Fill-47" fill="#F1892D" mask="url(#mask-4)"></path>
                <path d="M12.2309,87.1862 L11.6989,86.7792 L11.2049,86.3852 C10.8819,86.1242 10.5579,85.8532 10.2369,85.5792 C9.6139,85.0442 8.9899,84.4822 8.3839,83.9072 L9.4169,82.8192 C10.0039,83.3762 10.6089,83.9222 11.2129,84.4402 C11.5229,84.7062 11.8359,84.9662 12.1449,85.2162 L12.8689,85.7892 L13.1339,85.9882 L12.2309,87.1862 Z" id="Fill-48" fill="#F1892D" mask="url(#mask-4)"></path>
                <polygon id="Fill-49" fill="#F1892D" mask="url(#mask-4)" points="11.2944 85.4978 10.1554 84.5218 13.2254 80.9378 14.3644 81.9138"></polygon>
                <path d="M21.3774,81.3532 L18.3584,79.3532 L18.5534,79.0592 C19.4644,77.6832 19.0854,75.8122 17.7094,74.9012 L15.8254,73.6532 C14.4494,72.7422 12.5784,73.1222 11.6674,74.4982 L9.8154,77.2922 L9.2134,78.2022 L6.2134,82.7312 C5.3024,84.1072 5.6824,85.9772 7.0584,86.8892 L14.4614,91.7922 C15.8374,92.7042 17.7094,92.3242 18.6204,90.9492 L22.2224,85.5102 C23.1334,84.1352 22.7524,82.2642 21.3774,81.3532" id="Fill-50" fill="#A5B5B6" mask="url(#mask-4)"></path>
                <path d="M22.2221,85.5105 C23.1331,84.1355 22.7531,82.2645 21.3771,81.3535 L19.7001,80.2415 L12.8251,90.7085 L14.4621,91.7925 C15.8381,92.7035 17.7091,92.3235 18.6201,90.9485 L22.2221,85.5105 Z" id="Fill-51" fill="#859596" mask="url(#mask-4)"></path>
                <path d="M14.1718,73.905 C13.4418,73.905 12.7248,74.259 12.2928,74.912 L6.8388,83.145 C6.1538,84.179 6.4388,85.579 7.4728,86.263 L14.8768,91.168 C15.3748,91.498 15.9748,91.613 16.5658,91.493 C17.1568,91.373 17.6648,91.033 17.9948,90.535 L21.5968,85.096 C22.2818,84.062 21.9978,82.663 20.9638,81.978 L17.9448,79.978 C17.5988,79.75 17.5048,79.285 17.7338,78.939 L17.9278,78.645 C18.2578,78.147 18.3738,77.547 18.2538,76.956 C18.1338,76.364 17.7938,75.857 17.2948,75.527 L15.4108,74.279 C15.0298,74.026 14.5988,73.905 14.1718,73.905 M16.1058,93.04 C15.3778,93.04 14.6668,92.828 14.0478,92.419 L6.6438,87.514 C4.9208,86.373 4.4468,84.041 5.5888,82.317 L11.0428,74.084 C12.1838,72.36 14.5158,71.886 16.2388,73.028 L18.1238,74.276 C18.9558,74.827 19.5238,75.673 19.7238,76.657 C19.8968,77.509 19.7748,78.374 19.3808,79.131 L21.7918,80.727 C23.5158,81.87 23.9888,84.201 22.8468,85.925 L19.2448,91.363 C18.6938,92.195 17.8488,92.763 16.8648,92.964 C16.6118,93.014 16.3578,93.04 16.1058,93.04" id="Fill-52" fill="#354546" mask="url(#mask-4)"></path>
                <path d="M12.7841,91.4323 C12.6421,91.4323 12.4981,91.3913 12.3701,91.3073 C12.0251,91.0783 11.9301,90.6133 12.1591,90.2683 L19.0751,79.8283 C19.3041,79.4823 19.7691,79.3873 20.1141,79.6163 C20.4591,79.8453 20.5541,80.3103 20.3251,80.6563 L13.4101,91.0963 C13.2651,91.3143 13.0271,91.4323 12.7841,91.4323" id="Fill-53" fill="#354546" mask="url(#mask-4)"></path>
                <path d="M21.2538,87.7204 C21.1038,87.7204 20.9518,87.6754 20.8198,87.5814 L16.7328,84.6754 C16.3958,84.4354 16.3168,83.9674 16.5568,83.6294 C16.7968,83.2914 17.2658,83.2124 17.6028,83.4524 L21.6898,86.3604 C22.0268,86.5994 22.1058,87.0684 21.8658,87.4064 C21.7198,87.6114 21.4888,87.7204 21.2538,87.7204" id="Fill-54" fill="#354546" mask="url(#mask-4)"></path>
                <path d="M18.8676,91.3239 C18.7326,91.3239 18.5966,91.2869 18.4726,91.2109 L14.2116,88.5679 C13.8596,88.3489 13.7516,87.8869 13.9696,87.5359 C14.1876,87.1829 14.6506,87.0749 15.0026,87.2939 L19.2636,89.9359 C19.6156,90.1539 19.7236,90.6169 19.5056,90.9689 C19.3636,91.1979 19.1186,91.3239 18.8676,91.3239" id="Fill-55" fill="#354546" mask="url(#mask-4)"></path>
                <path d="M9.8129,85.3249 C9.6669,85.3249 9.5219,85.2819 9.3979,85.1999 L6.0479,82.9809 C5.7029,82.7529 5.6079,82.2869 5.8369,81.9419 C6.0659,81.5959 6.5309,81.5019 6.8759,81.7309 L9.6019,83.5359 L13.1189,78.2259 L10.3939,76.4209 C10.0479,76.1919 9.9539,75.7269 10.1829,75.3819 C10.4109,75.0359 10.8759,74.9409 11.2219,75.1709 L14.5719,77.3889 C14.9169,77.6189 15.0119,78.0839 14.7829,78.4289 L10.4379,84.9889 C10.3279,85.1549 10.1569,85.2699 9.9619,85.3099 C9.9129,85.3199 9.8629,85.3249 9.8129,85.3249" id="Fill-56" fill="#354546" mask="url(#mask-4)"></path>
                <path d="M18.3583,80.1032 C18.2153,80.1032 18.0723,80.0632 17.9443,79.9782 L16.2223,78.8372 C15.8773,78.6092 15.7823,78.1432 16.0103,77.7982 C16.2393,77.4532 16.7053,77.3582 17.0503,77.5862 L18.7733,78.7282 C19.1183,78.9572 19.2123,79.4222 18.9833,79.7672 C18.8393,79.9852 18.6013,80.1032 18.3583,80.1032" id="Fill-57" fill="#354546" mask="url(#mask-4)"></path>
                <path d="M77.8769,67.74 C77.9849,66.893 78.0679,66.046 78.1229,65.195 C78.1519,64.77 78.1719,64.344 78.1869,63.914 C78.1939,63.699 78.1989,63.484 78.2019,63.266 L78.2049,62.936 L78.2019,62.576 L73.4839,62.688 L73.4859,62.93 L73.4829,63.203 L73.4709,63.76 C73.4579,64.134 73.4399,64.511 73.4149,64.886 C73.3659,65.639 73.2919,66.392 73.1959,67.14 L77.8769,67.74 Z" id="Fill-58" fill="#F9BF3B" mask="url(#mask-4)"></path>
                <path d="M73.9404,67.2351 L72.4524,67.0451 C72.5484,66.2891 72.6214,65.5461 72.6664,64.8391 C72.6884,64.5061 72.7074,64.1451 72.7204,63.7331 L72.7364,62.9241 L72.7344,62.6921 L74.2344,62.6831 L74.2364,62.9251 L74.2344,63.2091 L74.2204,63.7781 C74.2054,64.2141 74.1864,64.5911 74.1634,64.9371 C74.1164,65.6731 74.0414,66.4471 73.9404,67.2351" id="Fill-59" fill="#F1892D" mask="url(#mask-4)"></path>
                <path d="M78.621,67.8347 L77.133,67.6457 C77.242,66.7907 77.323,65.9507 77.375,65.1467 C77.4,64.7637 77.421,64.3527 77.437,63.8887 C77.444,63.6797 77.449,63.4687 77.452,63.2557 L77.455,62.9307 L77.452,62.5817 L78.952,62.5687 L78.955,62.9307 L78.952,63.2727 C78.949,63.4987 78.943,63.7197 78.936,63.9387 C78.92,64.4207 78.898,64.8487 78.871,65.2457 C78.818,66.0777 78.733,66.9497 78.621,67.8347" id="Fill-60" fill="#F1892D" mask="url(#mask-4)"></path>
                <polygon id="Fill-61" fill="#F1892D" mask="url(#mask-4)" points="78.0742 65.9431 73.3652 65.6341 73.4642 64.1381 78.1722 64.4471"></polygon>
                <path d="M76.8603,72.8073 C77.3393,71.1243 77.6573,69.4323 77.8773,67.7403 L73.1963,67.1403 C73.0033,68.6333 72.7233,70.1093 72.3213,71.5183 L76.8603,72.8073 Z" id="Fill-62" fill="#F9BF3B" mask="url(#mask-4)"></path>
                <path d="M73.0419,71.7243 L71.5999,71.3123 C71.9639,70.0373 72.2509,68.6003 72.4529,67.0433 L73.9399,67.2363 C73.7289,68.8673 73.4269,70.3763 73.0419,71.7243" id="Fill-63" fill="#F1892D" mask="url(#mask-4)"></path>
                <path d="M77.582,73.0124 L76.139,72.6024 C76.572,71.0794 76.897,69.4574 77.133,67.6434 L78.621,67.8364 C78.376,69.7254 78.036,71.4174 77.582,73.0124" id="Fill-64" fill="#F1892D" mask="url(#mask-4)"></path>
                <polygon id="Fill-65" fill="#F1892D" mask="url(#mask-4)" points="77.3203 71.0134 72.6913 70.0964 72.9823 68.6244 77.6113 69.5414"></polygon>
                <path d="M74.8447,77.779 C75.3007,76.974 75.6827,76.15 76.0117,75.318 C76.3407,74.487 76.6197,73.648 76.8607,72.807 L72.3217,71.518 C72.1197,72.222 71.8897,72.911 71.6267,73.573 C71.3657,74.236 71.0687,74.873 70.7317,75.466 L74.8447,77.779 Z" id="Fill-66" fill="#F9BF3B" mask="url(#mask-4)"></path>
                <path d="M71.3837,75.8366 L70.0797,75.0956 C70.3857,74.5566 70.6717,73.9516 70.9297,73.2976 C71.1757,72.6776 71.4007,72.0106 71.5997,71.3126 L73.0417,71.7246 C72.8297,72.4696 72.5877,73.1846 72.3237,73.8496 C72.0407,74.5666 71.7247,75.2356 71.3837,75.8366" id="Fill-67" fill="#F1892D" mask="url(#mask-4)"></path>
                <path d="M75.497,78.1491 L74.191,77.4101 C74.607,76.6761 74.975,75.9021 75.313,75.0431 C75.618,74.2751 75.895,73.4541 76.139,72.6011 L77.582,73.0131 C77.325,73.9131 77.031,74.7821 76.708,75.5941 C76.344,76.5181 75.947,77.3541 75.497,78.1491" id="Fill-68" fill="#F1892D" mask="url(#mask-4)"></path>
                <polygon id="Fill-69" fill="#F1892D" mask="url(#mask-4)" points="75.7334 76.0153 71.3494 74.2703 71.9044 72.8763 76.2894 74.6213"></polygon>
                <path d="M71.4755,82.0944 C72.1375,81.4404 72.7255,80.7754 73.2685,80.1014 L73.3715,79.9754 L73.4805,79.8344 L73.6965,79.5494 C73.8445,79.3614 73.9775,79.1654 74.1085,78.9704 L74.3055,78.6774 C74.3705,78.5784 74.4285,78.4784 74.4905,78.3794 C74.6095,78.1804 74.7375,77.9824 74.8445,77.7794 L70.7315,75.4654 C70.6525,75.6184 70.5595,75.7574 70.4735,75.9044 C70.4285,75.9754 70.3865,76.0494 70.3405,76.1184 L70.2015,76.3244 C70.1085,76.4634 70.0165,76.6014 69.9145,76.7284 L69.7675,76.9224 C69.7425,76.9554 69.7205,76.9874 69.6925,77.0224 L69.6045,77.1284 C69.1395,77.7064 68.6585,78.2434 68.1765,78.7194 L71.4755,82.0944 Z" id="Fill-70" fill="#F9BF3B" mask="url(#mask-4)"></path>
                <path d="M68.7041,79.2526 L67.6491,78.1866 C68.1081,77.7326 68.5691,77.2196 69.0191,76.6586 L69.1141,76.5446 C69.1221,76.5336 69.1301,76.5236 69.1391,76.5116 L69.3291,76.2596 C69.4131,76.1546 69.4961,76.0296 69.5771,75.9086 L69.7211,75.6966 C69.7371,75.6716 69.7601,75.6346 69.7811,75.5976 L69.8361,75.5086 C69.8581,75.4706 69.8901,75.4196 69.9211,75.3686 C69.9751,75.2816 70.0241,75.1996 70.0651,75.1216 L71.3981,75.8096 C71.3321,75.9396 71.2601,76.0556 71.1961,76.1566 C71.1711,76.1996 71.1441,76.2426 71.1181,76.2856 L71.0681,76.3686 C71.0351,76.4236 71.0031,76.4786 70.9681,76.5306 L70.8211,76.7466 C70.7321,76.8786 70.6291,77.0346 70.5081,77.1876 L70.3451,77.4026 C70.3221,77.4346 70.3001,77.4646 70.2721,77.4976 L70.1831,77.6066 C69.7021,78.2036 69.2031,78.7606 68.7041,79.2526" id="Fill-71" fill="#F1892D" mask="url(#mask-4)"></path>
                <path d="M72.0019,82.6276 L70.9479,81.5606 C71.5429,80.9736 72.1109,80.3416 72.6849,79.6306 L72.8869,79.3776 L73.0989,79.0966 C73.2399,78.9166 73.3609,78.7366 73.4849,78.5526 L73.6849,78.2576 C73.7169,78.2086 73.7519,78.1486 73.7869,78.0906 L73.8529,77.9846 C73.8819,77.9366 73.9169,77.8786 73.9519,77.8206 C74.0359,77.6846 74.1149,77.5556 74.1809,77.4306 L75.5079,78.1286 C75.4199,78.2966 75.3229,78.4526 75.2309,78.6046 C75.1979,78.6576 75.1659,78.7116 75.1339,78.7646 L75.0699,78.8686 C75.0249,78.9416 74.9809,79.0156 74.9339,79.0876 L74.7299,79.3896 C74.5969,79.5876 74.4519,79.8006 74.2869,80.0116 L73.8479,80.5776 C73.2429,81.3276 72.6379,82.0006 72.0019,82.6276" id="Fill-72" fill="#F1892D" mask="url(#mask-4)"></path>
                <polygon id="Fill-73" fill="#F1892D" mask="url(#mask-4)" points="72.7959 80.6833 69.1319 77.7103 70.0759 76.5463 73.7409 79.5183"></polygon>
                <path d="M64.8447,84.3425 C65.4867,84.5955 66.1857,84.6915 66.8727,84.6265 C67.5607,84.5645 68.2327,84.3485 68.8647,84.0425 C69.1727,83.8845 69.5067,83.6975 69.7257,83.5415 C69.8467,83.4595 69.9727,83.3755 70.0867,83.2935 L70.3887,83.0585 C70.5957,82.9025 70.7737,82.7405 70.9557,82.5805 C71.1437,82.4195 71.3067,82.2565 71.4757,82.0945 L68.1767,78.7195 C68.0567,78.8355 67.9367,78.9575 67.8177,79.0575 C67.6987,79.1615 67.5777,79.2725 67.4627,79.3565 L67.2897,79.4925 L67.1547,79.5835 C67.0457,79.6625 67.0277,79.6685 66.9817,79.6965 C66.8957,79.7395 66.8037,79.7765 66.7077,79.7895 C66.6117,79.8055 66.5117,79.7895 66.4227,79.7525 L64.8447,84.3425 Z" id="Fill-74" fill="#F9BF3B" mask="url(#mask-4)"></path>
                <path d="M66.6484,79.0456 L66.6864,79.1216 L66.7114,79.0606 C66.6904,79.0516 66.6694,79.0476 66.6484,79.0456 M66.6324,80.5466 C66.4654,80.5466 66.2944,80.5126 66.1334,80.4436 L66.6694,79.1606 L66.6044,79.0476 C66.6004,79.0476 66.5964,79.0486 66.5924,79.0486 C66.5954,79.0476 66.6064,79.0446 66.6274,79.0336 L66.6384,79.0276 C66.6514,79.0206 66.6604,79.0156 66.7104,78.9796 L66.8484,78.8856 L67.0224,78.7486 C67.0854,78.7026 67.1664,78.6326 67.2504,78.5576 L67.3374,78.4806 C67.4084,78.4216 67.4894,78.3426 67.5744,78.2596 L67.6554,78.1806 L68.6984,79.2586 L68.6234,79.3316 C68.5224,79.4306 68.4194,79.5316 68.3054,79.6266 L68.2454,79.6796 C68.1414,79.7716 68.0354,79.8656 67.9184,79.9526 L67.7064,80.1166 L67.5834,80.1986 C67.4774,80.2756 67.4244,80.3076 67.3714,80.3366 L67.3234,80.3626 C67.1474,80.4526 66.9814,80.5086 66.8134,80.5316 C66.7544,80.5416 66.6944,80.5466 66.6324,80.5466" id="Fill-75" fill="#F1892D" mask="url(#mask-4)"></path>
                <path d="M66.457,85.3962 C65.81,85.3962 65.164,85.2752 64.569,85.0402 L65.12,83.6452 C65.645,83.8522 66.227,83.9342 66.803,83.8792 C67.353,83.8302 67.933,83.6592 68.529,83.3722 C68.855,83.2042 69.133,83.0432 69.29,82.9312 L69.327,82.9062 C69.432,82.8352 69.539,82.7632 69.638,82.6922 L69.928,82.4662 C70.097,82.3382 70.242,82.2092 70.396,82.0742 L70.46,82.0172 C70.607,81.8912 70.735,81.7672 70.87,81.6362 L70.953,81.5552 L71.997,82.6322 L71.917,82.7102 C71.77,82.8532 71.619,83.0002 71.443,83.1512 L71.39,83.1982 C71.221,83.3472 71.047,83.5002 70.841,83.6572 L70.524,83.9022 C70.41,83.9842 70.286,84.0682 70.165,84.1502 L70.152,84.1582 C69.873,84.3562 69.485,84.5672 69.208,84.7092 L69.191,84.7182 C68.429,85.0862 67.671,85.3072 66.94,85.3742 C66.779,85.3882 66.618,85.3962 66.457,85.3962" id="Fill-76" fill="#F1892D" mask="url(#mask-4)"></path>
                <polygon id="Fill-77" fill="#F1892D" mask="url(#mask-4)" points="68.1767 84.3405 66.2927 79.9935 67.6687 79.3975 69.5527 83.7445"></polygon>
                <path d="M60.6523,79.2468 C60.8263,79.6438 61.0063,80.0468 61.2143,80.4578 C61.4153,80.8668 61.6523,81.2898 61.9203,81.7188 L62.1333,82.0438 L62.1623,82.0848 L62.1983,82.1358 L62.2713,82.2348 L62.4223,82.4348 C62.5173,82.5638 62.6333,82.6988 62.7523,82.8308 C62.8683,82.9628 62.9873,83.0928 63.1163,83.2108 C63.6193,83.6978 64.2013,84.0938 64.8443,84.3428 L66.4233,79.7528 C66.3343,79.7148 66.2563,79.6518 66.1893,79.5828 C66.1723,79.5658 66.1563,79.5478 66.1403,79.5288 C66.1253,79.5108 66.1113,79.4938 66.0883,79.4618 L66.0563,79.4198 L66.0413,79.3978 L66.0333,79.3888 L66.0193,79.3658 L65.9023,79.1878 C65.5873,78.6868 65.2743,78.0488 64.9813,77.3688 L60.6523,79.2468 Z" id="Fill-78" fill="#F9BF3B" mask="url(#mask-4)"></path>
                <path d="M66.1269,80.4411 C65.9569,80.3691 65.7989,80.2571 65.6559,80.1101 C65.6239,80.0781 65.5939,80.0441 65.5639,80.0071 C65.5389,79.9781 65.5149,79.9491 65.4779,79.8981 L65.3909,79.7751 L65.2749,79.5991 C64.9579,79.0961 64.6399,78.4671 64.2929,77.6671 L65.6699,77.0711 C65.9809,77.7911 66.2729,78.3691 66.5369,78.7891 L66.7309,79.0641 C66.7399,79.0741 66.7449,79.0781 66.7459,79.0781 C66.7449,79.0781 66.7359,79.0711 66.7189,79.0631 L66.1269,80.4411 Z" id="Fill-79" fill="#F1892D" mask="url(#mask-4)"></path>
                <path d="M64.5742,85.0417 C63.8642,84.7677 63.2002,84.3347 62.6012,83.7567 C62.4432,83.6107 62.3042,83.4577 62.1882,83.3267 C62.0832,83.2077 61.9412,83.0457 61.8192,82.8817 L61.5112,82.4607 L61.2842,82.1157 C61.0032,81.6657 60.7532,81.2197 60.5412,80.7887 C60.3112,80.3317 60.1122,79.8847 59.9652,79.5467 L61.3402,78.9477 C61.4792,79.2677 61.6682,79.6897 61.8852,80.1207 C62.0762,80.5107 62.2992,80.9087 62.5512,81.3127 L62.8762,81.7907 L63.0202,81.9827 C63.1102,82.1037 63.2222,82.2317 63.3112,82.3317 C63.4052,82.4377 63.5132,82.5577 63.6222,82.6577 L63.6372,82.6717 C64.0942,83.1127 64.5912,83.4397 65.1152,83.6437 L64.5742,85.0417 Z" id="Fill-80" fill="#F1892D" mask="url(#mask-4)"></path>
                <polygon id="Fill-81" fill="#F1892D" mask="url(#mask-4)" points="62.3222 82.3513 61.5172 81.0853 65.5002 78.5553 66.3042 79.8213"></polygon>
                <path d="M58.8437,74.7341 C59.4337,76.1541 59.9717,77.6651 60.6527,79.2471 L64.9817,77.3691 C64.3897,76.0001 63.8457,74.4801 63.2037,72.9311 L58.8437,74.7341 Z" id="Fill-82" fill="#F9BF3B" mask="url(#mask-4)"></path>
                <path d="M64.2929,77.6667 C63.9599,76.8957 63.6479,76.0967 63.3189,75.2497 C63.0619,74.5867 62.7949,73.9017 62.5119,73.2187 L63.8969,72.6447 C64.1869,73.3437 64.4559,74.0357 64.7169,74.7057 C65.0409,75.5387 65.3479,76.3257 65.6699,77.0707 L64.2929,77.6667 Z" id="Fill-83" fill="#F1892D" mask="url(#mask-4)"></path>
                <path d="M59.9638,79.5437 C59.5708,78.6317 59.2278,77.7477 58.8958,76.8937 C58.6418,76.2417 58.4018,75.6267 58.1518,75.0217 L59.5358,74.4457 C59.7938,75.0667 60.0358,75.6897 60.2928,76.3497 C60.6208,77.1917 60.9588,78.0637 61.3418,78.9507 L59.9638,79.5437 Z" id="Fill-84" fill="#F1892D" mask="url(#mask-4)"></path>
                <polygon id="Fill-85" fill="#F1892D" mask="url(#mask-4)" points="59.9863 77.6286 59.4423 76.2316 63.8393 74.5186 64.3833 75.9156"></polygon>
                <path d="M56.8857,70.9333 C57.2577,71.4503 57.6017,72.0543 57.9247,72.6973 C58.2477,73.3393 58.5507,74.0253 58.8437,74.7343 L63.2037,72.9313 C62.8827,72.1553 62.5377,71.3683 62.1397,70.5753 C61.7397,69.7833 61.2917,68.9823 60.7267,68.1933 L56.8857,70.9333 Z" id="Fill-86" fill="#F9BF3B" mask="url(#mask-4)"></path>
                <path d="M62.5117,73.2185 C62.1397,72.3195 61.8087,71.5865 61.4697,70.9115 C61.0117,70.0045 60.5807,69.2795 60.1167,68.6295 L61.3357,67.7565 C61.8467,68.4695 62.3157,69.2575 62.8097,70.2375 C63.1647,70.9475 63.5107,71.7105 63.8977,72.6445 L62.5117,73.2185 Z" id="Fill-87" fill="#F1892D" mask="url(#mask-4)"></path>
                <path d="M58.1503,75.0202 C57.8243,74.2322 57.5403,73.6002 57.2543,73.0342 C56.9133,72.3552 56.5933,71.8112 56.2763,71.3722 L57.4943,70.4952 C57.8573,70.9992 58.2173,71.6092 58.5943,72.3602 C58.8963,72.9602 59.1963,73.6242 59.5373,74.4472 L58.1503,75.0202 Z" id="Fill-88" fill="#F1892D" mask="url(#mask-4)"></path>
                <polygon id="Fill-89" fill="#F1892D" mask="url(#mask-4)" points="58.2617 73.3669 57.5877 72.0269 61.8027 69.9049 62.4767 71.2449"></polygon>
                <path d="M54.5263,69.1052 L54.6833,69.1382 C54.7333,69.1562 54.7843,69.1722 54.8353,69.1882 C54.8593,69.1962 54.8853,69.2022 54.9113,69.2102 L54.9843,69.2442 L55.1333,69.3042 C55.1823,69.3322 55.2313,69.3582 55.2803,69.3832 L55.3553,69.4212 L55.4283,69.4692 L55.5773,69.5632 L55.7243,69.6752 C56.1213,69.9712 56.5133,70.4182 56.8853,70.9332 L60.7263,68.1932 C60.5843,67.9962 60.4413,67.7992 60.2813,67.6052 C60.1303,67.4102 59.9593,67.2172 59.7863,67.0272 C59.6173,66.8362 59.4203,66.6532 59.2333,66.4682 L58.9273,66.2012 L58.7743,66.0682 L58.6083,65.9412 L58.2743,65.6912 L57.9153,65.4592 L57.7343,65.3462 L57.5433,65.2432 L57.1563,65.0412 C57.0223,64.9812 56.8863,64.9242 56.7513,64.8682 L56.5463,64.7842 C56.4763,64.7592 56.4063,64.7372 56.3363,64.7142 L55.9123,64.5832 C55.7693,64.5452 55.6253,64.5162 55.4813,64.4842 L54.5263,69.1052 Z" id="Fill-90" fill="#F9BF3B" mask="url(#mask-4)"></path>
                <path d="M60.1181,68.6316 C59.9741,68.4326 59.8451,68.2546 59.7031,68.0836 L59.6881,68.0646 C59.5511,67.8866 59.3871,67.7036 59.2301,67.5306 C59.1151,67.4016 58.9861,67.2766 58.8501,67.1426 C58.8071,67.1006 58.7641,67.0596 58.7221,67.0176 L58.3021,66.6506 L57.8461,66.3076 L57.3551,65.9936 L56.8301,65.7166 C56.7081,65.6626 56.5851,65.6106 56.4621,65.5606 L56.2781,65.4856 C56.2421,65.4726 56.2061,65.4606 56.1701,65.4486 L55.7081,65.3046 C55.6091,65.2786 55.5091,65.2576 55.4091,65.2356 L55.3211,65.2176 L55.6411,63.7516 L55.7261,63.7706 C55.8501,63.7976 55.9751,63.8246 56.0991,63.8566 L56.1351,63.8656 L56.6301,64.0216 C56.6871,64.0396 56.7451,64.0586 56.8011,64.0786 L56.8301,64.0896 L57.0341,64.1736 C57.1801,64.2346 57.3231,64.2936 57.4641,64.3576 L57.5031,64.3756 L58.1331,64.7106 L58.7231,65.0906 L59.2641,65.4996 L59.7621,65.9356 L59.8981,66.0686 C60.0481,66.2156 60.2031,66.3666 60.3471,66.5306 C60.5151,66.7156 60.6981,66.9196 60.8661,67.1366 C61.0341,67.3396 61.1781,67.5366 61.3351,67.7546 L60.1181,68.6316 Z" id="Fill-91" fill="#F1892D" mask="url(#mask-4)"></path>
                <path d="M56.2773,71.3728 C55.9153,70.8698 55.5783,70.5018 55.2763,70.2768 L55.1493,70.1808 L54.9423,70.0528 C54.8963,70.0288 54.8513,70.0058 54.8063,69.9808 L54.6483,69.9148 C54.6343,69.9108 54.6213,69.9068 54.6063,69.9018 C54.5703,69.8918 54.5273,69.8778 54.4823,69.8618 L54.3733,69.8398 L54.6793,68.3708 L54.9373,68.4328 C54.9743,68.4458 55.0103,68.4578 55.0483,68.4688 L55.0683,68.4748 C55.0983,68.4828 55.1293,68.4918 55.1583,68.5028 L55.4633,68.6288 L55.5063,68.6528 C55.5443,68.6748 55.5823,68.6948 55.6203,68.7148 L55.7713,68.7978 L56.0333,68.9678 L56.1793,69.0798 C56.6023,69.3938 57.0353,69.8588 57.4933,70.4948 L56.2773,71.3728 Z" id="Fill-92" fill="#F1892D" mask="url(#mask-4)"></path>
                <polygon id="Fill-93" fill="#F1892D" mask="url(#mask-4)" points="56.3183 70.1345 55.1313 69.2175 58.0143 65.4835 59.2023 66.3995"></polygon>
                <path d="M51.3418,69.738 C51.9418,69.46 52.5338,69.248 53.0778,69.136 L53.1818,69.113 C53.2148,69.106 53.2468,69.104 53.2798,69.099 L53.4768,69.072 C53.5428,69.058 53.6048,69.058 53.6668,69.055 L53.8528,69.044 C53.9128,69.041 53.9698,69.049 54.0288,69.049 C54.0858,69.052 54.1478,69.045 54.2008,69.055 C54.3098,69.075 54.4248,69.074 54.5268,69.105 L55.4818,64.484 C55.1928,64.415 54.9048,64.39 54.6148,64.355 C54.4698,64.337 54.3298,64.34 54.1868,64.333 C54.0448,64.329 53.9008,64.322 53.7608,64.326 L53.3448,64.347 C53.2058,64.356 53.0668,64.363 52.9348,64.384 L52.5338,64.44 C52.4678,64.45 52.4008,64.459 52.3348,64.47 L52.1438,64.511 C51.1128,64.722 50.1878,65.072 49.3298,65.469 L51.3418,69.738 Z" id="Fill-94" fill="#F9BF3B" mask="url(#mask-4)"></path>
                <path d="M49.6455,66.1501 L49.0135,64.7901 C50.0725,64.2981 51.0195,63.9761 51.9935,63.7771 L52.2005,63.7331 C52.2535,63.7231 52.3085,63.7151 52.3625,63.7081 L52.8235,63.6421 C52.9805,63.6181 53.1345,63.6091 53.2715,63.6001 L53.7395,63.5761 C53.8615,63.5721 53.9765,63.5761 54.0875,63.5791 L54.2245,63.5831 C54.2635,63.5861 54.3035,63.5871 54.3435,63.5871 C54.4525,63.5901 54.5755,63.5931 54.7115,63.6111 L54.8765,63.6301 C55.1255,63.6601 55.3835,63.6891 55.6585,63.7551 L55.3035,65.2131 C55.1205,65.1691 54.9185,65.1451 54.7065,65.1211 C54.6455,65.1141 54.5845,65.1071 54.5235,65.0991 C54.4575,65.0901 54.3855,65.0891 54.3025,65.0871 C54.2545,65.0861 54.2065,65.0841 54.1575,65.0821 L54.0415,65.0791 C53.9575,65.0761 53.8735,65.0721 53.7905,65.0751 L53.3595,65.0981 C53.2465,65.1051 53.1385,65.1111 53.0535,65.1251 L52.5755,65.1921 C52.5425,65.1971 52.5105,65.2011 52.4795,65.2071 L52.2995,65.2451 C51.4375,65.4211 50.5955,65.7091 49.6455,66.1501" id="Fill-95" fill="#F1892D" mask="url(#mask-4)"></path>
                <path d="M51.6582,70.4177 L51.0262,69.0577 C51.7072,68.7417 52.3432,68.5217 52.9192,68.4037 L53.0462,68.3747 C53.0832,68.3677 53.1192,68.3637 53.1552,68.3587 L53.3532,68.3317 C53.4552,68.3137 53.5422,68.3097 53.6002,68.3077 L53.8212,68.2937 C53.8822,68.2907 53.9392,68.2937 53.9972,68.2967 C54.0092,68.2977 54.0202,68.2987 54.0322,68.2987 L54.0822,68.3007 L54.0902,68.2997 C54.1432,68.2997 54.2332,68.2987 54.3372,68.3177 C54.3592,68.3217 54.3832,68.3227 54.4052,68.3257 C54.4942,68.3347 54.6152,68.3477 54.7502,68.3897 L54.3032,69.8207 C54.3082,69.8227 54.3142,69.8247 54.3212,69.8257 C54.2982,69.8217 54.2742,69.8197 54.2512,69.8177 C54.2012,69.8127 54.1522,69.8077 54.1032,69.7997 C54.0702,69.7997 54.0362,69.7997 54.0032,69.7987 C53.9722,69.7977 53.9432,69.7957 53.9142,69.7947 C53.9042,69.7937 53.8932,69.7927 53.8842,69.7927 L53.6592,69.8067 C53.6442,69.8077 53.6302,69.8077 53.6152,69.8087 L53.5822,69.8137 L53.2272,69.8717 C52.7632,69.9657 52.2362,70.1497 51.6582,70.4177" id="Fill-96" fill="#F1892D" mask="url(#mask-4)"></path>
                <polygon id="Fill-97" fill="#F1892D" mask="url(#mask-4)" points="52.3437 69.2858 51.4077 64.6598 52.8787 64.3628 53.8137 68.9878"></polygon>
                <path d="M45.6982,75.4919 C45.6142,75.6069 45.5452,76.3029 46.3102,77.9229 C46.8922,79.1529 47.7172,80.3979 48.1972,80.9459 C48.5832,81.3859 49.0682,81.6269 49.5302,81.6049 C49.9292,81.5869 50.2832,81.3819 50.5522,81.0119 C51.2252,80.0879 51.0912,78.5069 50.2592,77.5579 C49.5382,76.7369 47.1362,75.3799 45.9592,75.4279 C45.7782,75.4349 45.7092,75.4769 45.6982,75.4919 M49.4742,83.1059 C48.5962,83.1059 47.7262,82.6839 47.0702,81.9349 C46.5302,81.3209 43.0892,76.5269 44.4862,74.6079 C44.6972,74.3179 45.1132,73.9649 45.8902,73.9299 C47.6372,73.8479 50.4272,75.4759 51.3862,76.5689 C52.6912,78.0559 52.8572,80.3949 51.7652,81.8949 C51.2252,82.6359 50.4562,83.0639 49.5972,83.1029 C49.5562,83.1049 49.5152,83.1059 49.4742,83.1059" id="Fill-98" fill="#19B5FE" mask="url(#mask-4)"></path>
                <path d="M45.5644,74.6618 L45.5664,74.6618 L45.5644,74.6618 Z M51.7824,72.7598 C50.3664,72.7598 48.1854,73.1778 46.9904,73.9728 C46.7064,74.1608 46.3564,74.4548 46.3054,74.7778 C46.2384,75.2098 46.7154,76.0408 48.2604,77.0758 C49.5394,77.9328 51.0884,78.6048 51.8964,78.8048 C52.4994,78.9518 53.1164,78.8438 53.6354,78.4978 C54.2624,78.0808 54.6984,77.3568 54.8314,76.5128 C55.0924,74.8438 54.1384,73.1978 52.7044,72.8458 C52.4694,72.7878 52.1514,72.7598 51.7824,72.7598 L51.7824,72.7598 Z M52.4284,80.3698 C52.1324,80.3698 51.8354,80.3338 51.5394,80.2608 C49.7724,79.8268 44.3934,77.2818 44.8244,74.5458 C44.9324,73.8528 45.3814,73.2408 46.1594,72.7238 C47.9514,71.5308 51.4524,70.9928 53.0614,71.3888 C55.2344,71.9228 56.6924,74.3258 56.3124,76.7448 C56.1154,78.0038 55.4424,79.0978 54.4664,79.7458 C53.8474,80.1578 53.1454,80.3698 52.4284,80.3698 L52.4284,80.3698 Z" id="Fill-99" fill="#C72C1C" mask="url(#mask-4)"></path>
                <path d="M41.3681,60.0232 C39.7241,59.8792 37.0311,59.8332 35.3841,59.9192 L26.3131,60.3922 C24.6651,60.4792 23.2931,61.8992 23.2641,63.5482 L23.1141,72.1712 C23.0851,73.8222 24.3641,75.5272 25.9561,75.9612 L35.1451,78.4682 C36.7371,78.9032 39.3531,78.9482 40.9591,78.5702 L50.2301,76.3842 C51.8361,76.0052 53.1741,74.3462 53.2021,72.6972 L53.3521,64.0742 C53.3821,62.4242 52.0601,60.9572 50.4171,60.8132 L41.3681,60.0232 Z" id="Fill-100" fill="#A5B5B6" mask="url(#mask-4)"></path>
                <path d="M50.2724,73.9851 L41.0014,76.1711 C39.3954,76.5481 36.7784,76.5031 35.1874,76.0691 L25.9984,73.5611 C24.4064,73.1271 23.1274,71.4221 23.1564,69.7721 L23.1144,72.1721 C23.0854,73.8221 24.3644,75.5271 25.9564,75.9611 L35.1454,78.4681 C36.7364,78.9031 39.3534,78.9481 40.9594,78.5701 L50.2304,76.3841 C51.8354,76.0061 53.1734,74.3461 53.2024,72.6971 L53.2444,70.2971 C53.2154,71.9471 51.8774,73.6061 50.2724,73.9851" id="Fill-101" fill="#859596" mask="url(#mask-4)"></path>
                <path d="M37.3501,60.6247 C36.6431,60.6247 35.9751,60.6387 35.4231,60.6677 L26.3521,61.1417 C25.1071,61.2067 24.0371,62.3147 24.0151,63.5627 L23.8641,72.1857 C23.8411,73.4947 24.8901,74.8927 26.1531,75.2367 L35.3431,77.7447 C36.8111,78.1457 39.3051,78.1887 40.7871,77.8397 L50.0581,75.6547 C51.3331,75.3537 52.4301,73.9937 52.4531,72.6837 L52.6031,64.0607 C52.6251,62.8137 51.5941,61.6687 50.3511,61.5607 L41.3031,60.7707 C40.2341,60.6767 38.7221,60.6247 37.3501,60.6247 M38.3271,79.5787 C37.1191,79.5787 35.8871,79.4477 34.9481,79.1917 L25.7591,76.6847 C23.8201,76.1557 22.3291,74.1677 22.3641,72.1587 L22.5151,63.5357 C22.5501,61.4957 24.2371,59.7497 26.2741,59.6437 L35.3451,59.1697 C37.0261,59.0817 39.7581,59.1297 41.4331,59.2757 L50.4821,60.0657 C52.5141,60.2437 54.1391,62.0477 54.1021,64.0867 L53.9521,72.7097 C53.9171,74.7187 52.3581,76.6537 50.4021,77.1147 L41.1321,79.2997 C40.3371,79.4867 39.3401,79.5787 38.3271,79.5787" id="Fill-102" fill="#354546" mask="url(#mask-4)"></path>
                <polygon id="Fill-103" fill="#556566" mask="url(#mask-4)" points="41.2607 73.1013 28.1847 72.8723 28.3457 63.6743 41.4217 63.9023"></polygon>
                <path d="M36.8457,71.1618 C36.5887,71.1618 36.3467,71.0308 36.2097,70.8088 L35.1717,69.1438 L33.5547,69.1158 C33.3037,69.1108 33.0707,68.9808 32.9357,68.7688 L32.8677,68.6638 L32.4307,69.6808 C32.3337,69.9068 32.1307,70.0708 31.8887,70.1198 C31.6467,70.1678 31.3967,70.0938 31.2197,69.9218 L30.3327,69.0588 L28.2527,69.0228 C27.8387,69.0158 27.5087,68.6748 27.5157,68.2608 C27.5227,67.8468 27.8617,67.5188 28.2787,67.5228 L30.6567,67.5648 C30.8467,67.5678 31.0297,67.6438 31.1657,67.7768 L31.4837,68.0868 L32.0497,66.7698 C32.1587,66.5148 32.4007,66.3408 32.6777,66.3178 C32.9547,66.2968 33.2207,66.4288 33.3707,66.6628 L33.9837,67.6228 L35.6057,67.6508 C35.8597,67.6558 36.0947,67.7888 36.2287,68.0048 L36.6237,68.6378 L37.4357,66.0838 C37.5337,65.7758 37.8187,65.5648 38.1417,65.5608 L38.1507,65.5608 C38.4707,65.5608 38.7547,65.7648 38.8597,66.0668 L39.4297,67.7188 L41.3547,67.7518 C41.7687,67.7588 42.0987,68.0998 42.0907,68.5148 C42.0837,68.9288 41.7447,69.2638 41.3277,69.2518 L38.8787,69.2088 C38.5637,69.2028 38.2857,69.0018 38.1827,68.7038 L38.1797,68.6928 L37.5607,70.6398 C37.4717,70.9188 37.2287,71.1198 36.9387,71.1558 C36.9077,71.1608 36.8767,71.1618 36.8457,71.1618" id="Fill-104" fill="#D5E5E6" mask="url(#mask-4)"></path>
                <path d="M28.9482,72.1355 L40.5242,72.3375 L40.6592,64.6395 L29.0822,64.4375 L28.9482,72.1355 Z M41.2612,73.8515 C41.2572,73.8515 41.2532,73.8515 41.2482,73.8505 L28.1722,73.6225 C27.7582,73.6145 27.4282,73.2745 27.4352,72.8605 L27.5962,63.6605 C27.5992,63.4615 27.6812,63.2725 27.8242,63.1345 C27.9682,62.9965 28.1592,62.9145 28.3592,62.9245 L41.4342,63.1525 C41.8482,63.1595 42.1782,63.5015 42.1722,63.9155 L42.0112,73.1145 C42.0082,73.3135 41.9262,73.5025 41.7822,73.6405 C41.6422,73.7755 41.4552,73.8515 41.2612,73.8515 L41.2612,73.8515 Z" id="Fill-105" fill="#354546" mask="url(#mask-4)"></path>
                <path d="M48.2392,65.7966 C48.2222,66.7766 47.4142,67.5576 46.4332,67.5396 C45.4542,67.5236 44.6732,66.7146 44.6902,65.7346 C44.7072,64.7546 45.5152,63.9736 46.4962,63.9906 C47.4752,64.0076 48.2572,64.8166 48.2392,65.7966" id="Fill-106" fill="#F85C4C" mask="url(#mask-4)"></path>
                <path d="M46.4648,64.74 C45.9078,64.74 45.4498,65.188 45.4408,65.748 C45.4308,66.312 45.8818,66.78 46.4468,66.791 C46.7238,66.799 46.9808,66.693 47.1768,66.503 C47.3738,66.312 47.4858,66.057 47.4898,65.783 C47.4998,65.219 47.0478,64.751 46.4828,64.741 C46.4768,64.741 46.4708,64.74 46.4648,64.74 M46.4658,68.291 C46.4508,68.291 46.4358,68.291 46.4208,68.29 C45.0288,68.265 43.9158,67.114 43.9408,65.721 C43.9638,64.344 45.0928,63.24 46.4648,63.24 C46.4798,63.24 46.4938,63.241 46.5088,63.241 C47.9018,63.265 49.0138,64.418 48.9888,65.809 C48.9778,66.484 48.7038,67.113 48.2188,67.582 C47.7448,68.04 47.1238,68.291 46.4658,68.291" id="Fill-107" fill="#C72C1C" mask="url(#mask-4)"></path>
                <path d="M48.1416,71.446 C48.1236,72.425 47.3156,73.207 46.3356,73.189 C45.3556,73.173 44.5746,72.364 44.5916,71.384 C44.6086,70.403 45.4166,69.623 46.3976,69.64 C47.3776,69.657 48.1586,70.466 48.1416,71.446" id="Fill-108" fill="#B9D96D" mask="url(#mask-4)"></path>
                <path d="M46.3662,70.3894 C45.8092,70.3894 45.3512,70.8374 45.3422,71.3974 C45.3322,71.9614 45.7832,72.4294 46.3482,72.4394 C46.6252,72.4434 46.8822,72.3424 47.0782,72.1524 C47.2752,71.9614 47.3872,71.7064 47.3912,71.4324 C47.3952,71.1594 47.2942,70.8994 47.1032,70.7024 C46.9132,70.5054 46.6582,70.3944 46.3842,70.3894 L46.3662,70.3894 Z M46.3672,73.9394 L46.3222,73.9394 C44.9302,73.9144 43.8172,72.7624 43.8422,71.3704 C43.8662,69.9784 45.0222,68.8604 46.4102,68.8904 C47.0852,68.9024 47.7142,69.1754 48.1822,69.6604 C48.6512,70.1464 48.9022,70.7854 48.8902,71.4584 C48.8792,72.1334 48.6052,72.7624 48.1202,73.2314 C47.6462,73.6894 47.0252,73.9394 46.3672,73.9394 L46.3672,73.9394 Z" id="Fill-109" fill="#719911" mask="url(#mask-4)"></path>
                <path d="M27.998,62.5456 C27.637,62.5456 27.319,62.2846 27.259,61.9176 L26.855,59.4646 C26.788,59.0566 27.064,58.6696 27.473,58.6026 C27.882,58.5356 28.268,58.8126 28.335,59.2206 L28.739,61.6736 C28.806,62.0826 28.529,62.4686 28.121,62.5356 C28.08,62.5426 28.039,62.5456 27.998,62.5456" id="Fill-110" fill="#354546" mask="url(#mask-4)"></path>
                <path d="M30.9579,62.0583 C30.5969,62.0583 30.2789,61.7973 30.2189,61.4303 L29.8149,58.9773 C29.7479,58.5693 30.0239,58.1823 30.4329,58.1153 C30.8419,58.0473 31.2279,58.3253 31.2949,58.7333 L31.6989,61.1863 C31.7659,61.5953 31.4889,61.9813 31.0809,62.0483 C31.0399,62.0553 30.9989,62.0583 30.9579,62.0583" id="Fill-111" fill="#354546" mask="url(#mask-4)"></path>
                <path d="M48.3017,62.5456 C48.2617,62.5456 48.2207,62.5426 48.1797,62.5356 C47.7707,62.4686 47.4937,62.0826 47.5617,61.6736 L47.9647,59.2206 C48.0317,58.8126 48.4167,58.5366 48.8267,58.6026 C49.2357,58.6696 49.5127,59.0566 49.4457,59.4646 L49.0407,61.9176 C48.9807,62.2846 48.6627,62.5456 48.3017,62.5456" id="Fill-112" fill="#354546" mask="url(#mask-4)"></path>
                <path d="M45.3418,62.0583 C45.3018,62.0583 45.2608,62.0553 45.2198,62.0483 C44.8108,61.9813 44.5338,61.5953 44.6008,61.1863 L45.0048,58.7333 C45.0718,58.3253 45.4568,58.0483 45.8658,58.1153 C46.2758,58.1823 46.5528,58.5693 46.4858,58.9773 L46.0808,61.4303 C46.0208,61.7973 45.7028,62.0583 45.3418,62.0583" id="Fill-113" fill="#354546" mask="url(#mask-4)"></path>
                <polygon id="Fill-114" fill="#A5B5B6" mask="url(#mask-4)" points="25.056 107.86 29.743 107.86 29.743 98.86 25.056 98.86"></polygon>
                <polygon id="Fill-115" fill="#C5D5D6" mask="url(#mask-4)" points="25.056 102.435 29.743 102.435 29.743 98.86 25.056 98.86"></polygon>
                <path d="M25.806,107.11 L28.994,107.11 L28.994,99.61 L25.806,99.61 L25.806,107.11 Z M29.743,108.61 L25.056,108.61 C24.642,108.61 24.306,108.274 24.306,107.86 L24.306,98.86 C24.306,98.445 24.642,98.11 25.056,98.11 L29.743,98.11 C30.157,98.11 30.493,98.445 30.493,98.86 L30.493,107.86 C30.493,108.274 30.157,108.61 29.743,108.61 L29.743,108.61 Z" id="Fill-116" fill="#354546" mask="url(#mask-4)"></path>
                <polygon id="Fill-117" fill="#A5B5B6" mask="url(#mask-4)" points="21.877 106.097 25.062 106.097 25.062 90.197 21.877 90.197"></polygon>
                <path d="M22.627,105.347 L24.312,105.347 L24.312,90.947 L22.627,90.947 L22.627,105.347 Z M25.062,106.847 L21.877,106.847 C21.463,106.847 21.127,106.511 21.127,106.097 L21.127,90.197 C21.127,89.783 21.463,89.447 21.877,89.447 L25.062,89.447 C25.477,89.447 25.812,89.783 25.812,90.197 L25.812,106.097 C25.812,106.511 25.477,106.847 25.062,106.847 L25.062,106.847 Z" id="Fill-118" fill="#354546" mask="url(#mask-4)"></path>
                <path d="M23.5356,84.6843 L23.4036,84.6843 C21.7536,84.6843 20.4036,86.0353 20.4036,87.6843 L20.4036,94.8093 L26.5356,94.8093 L26.5356,87.6843 C26.5356,86.0353 25.1856,84.6843 23.5356,84.6843" id="Fill-119" fill="#A5B5B6" mask="url(#mask-4)"></path>
                <path d="M23.5356,84.6843 L23.4036,84.6843 C21.7536,84.6843 20.4036,86.0353 20.4036,87.6843 L20.4036,90.4223 C20.4036,88.7723 21.7536,87.4223 23.4036,87.4223 L23.5356,87.4223 C25.1856,87.4223 26.5356,88.7723 26.5356,90.4223 L26.5356,87.6843 C26.5356,86.0353 25.1856,84.6843 23.5356,84.6843" id="Fill-120" fill="#C5D5D6" mask="url(#mask-4)"></path>
                <path d="M21.1533,94.0593 L25.7853,94.0593 L25.7853,87.6843 C25.7853,86.4443 24.7763,85.4343 23.5353,85.4343 L23.4033,85.4343 C22.1623,85.4343 21.1533,86.4443 21.1533,87.6843 L21.1533,94.0593 Z M26.5353,95.5593 L20.4033,95.5593 C19.9893,95.5593 19.6533,95.2233 19.6533,94.8093 L19.6533,87.6843 C19.6533,85.6173 21.3353,83.9343 23.4033,83.9343 L23.5353,83.9343 C25.6033,83.9343 27.2853,85.6173 27.2853,87.6843 L27.2853,94.8093 C27.2853,95.2233 26.9503,95.5593 26.5353,95.5593 L26.5353,95.5593 Z" id="Fill-121" fill="#354546" mask="url(#mask-4)"></path>
                <polygon id="Fill-122" fill="#A5B5B6" mask="url(#mask-4)" points="46.181 107.86 50.868 107.86 50.868 98.86 46.181 98.86"></polygon>
                <polygon id="Fill-123" fill="#C5D5D6" mask="url(#mask-4)" points="46.181 102.435 50.868 102.435 50.868 98.86 46.181 98.86"></polygon>
                <path d="M46.931,107.11 L50.119,107.11 L50.119,99.61 L46.931,99.61 L46.931,107.11 Z M50.868,108.61 L46.181,108.61 C45.767,108.61 45.431,108.274 45.431,107.86 L45.431,98.86 C45.431,98.445 45.767,98.11 46.181,98.11 L50.868,98.11 C51.282,98.11 51.618,98.445 51.618,98.86 L51.618,107.86 C51.618,108.274 51.282,108.61 50.868,108.61 L50.868,108.61 Z" id="Fill-124" fill="#354546" mask="url(#mask-4)"></path>
                <polygon id="Fill-125" fill="#A5B5B6" mask="url(#mask-4)" points="50.862 106.097 54.047 106.097 54.047 90.197 50.862 90.197"></polygon>
                <path d="M51.612,105.347 L53.297,105.347 L53.297,90.947 L51.612,90.947 L51.612,105.347 Z M54.047,106.847 L50.862,106.847 C50.448,106.847 50.112,106.511 50.112,106.097 L50.112,90.197 C50.112,89.783 50.448,89.447 50.862,89.447 L54.047,89.447 C54.462,89.447 54.797,89.783 54.797,90.197 L54.797,106.097 C54.797,106.511 54.462,106.847 54.047,106.847 L54.047,106.847 Z" id="Fill-126" fill="#354546" mask="url(#mask-4)"></path>
                <path d="M52.3886,84.6843 L52.5206,84.6843 C54.1706,84.6843 55.5206,86.0353 55.5206,87.6843 L55.5206,94.8093 L49.3886,94.8093 L49.3886,87.6843 C49.3886,86.0353 50.7386,84.6843 52.3886,84.6843" id="Fill-127" fill="#A5B5B6" mask="url(#mask-4)"></path>
                <path d="M52.3886,84.6843 L52.5206,84.6843 C54.1706,84.6843 55.5206,86.0353 55.5206,87.6843 L55.5206,90.4223 C55.5206,88.7723 54.1706,87.4223 52.5206,87.4223 L52.3886,87.4223 C50.7386,87.4223 49.3886,88.7723 49.3886,90.4223 L49.3886,87.6843 C49.3886,86.0353 50.7386,84.6843 52.3886,84.6843" id="Fill-128" fill="#C5D5D6" mask="url(#mask-4)"></path>
                <path d="M50.1386,94.0593 L54.7706,94.0593 L54.7706,87.6843 C54.7706,86.4443 53.7616,85.4343 52.5206,85.4343 L52.3886,85.4343 C51.1476,85.4343 50.1386,86.4443 50.1386,87.6843 L50.1386,94.0593 Z M55.5206,95.5593 L49.3886,95.5593 C48.9746,95.5593 48.6386,95.2233 48.6386,94.8093 L48.6386,87.6843 C48.6386,85.6173 50.3206,83.9343 52.3886,83.9343 L52.5206,83.9343 C54.5886,83.9343 56.2706,85.6173 56.2706,87.6843 L56.2706,94.8093 C56.2706,95.2233 55.9356,95.5593 55.5206,95.5593 L55.5206,95.5593 Z" id="Fill-129" fill="#354546" mask="url(#mask-4)"></path>
                <path d="M46.0429,115.3601 C46.0429,117.0091 44.6929,118.3601 43.0429,118.3601 L32.7429,118.3601 C31.0929,118.3601 29.7429,117.0091 29.7429,115.3601 L29.7429,91.3601 C29.7429,89.7101 31.0929,88.3601 32.7429,88.3601 L43.0429,88.3601 C44.6929,88.3601 46.0429,89.7101 46.0429,91.3601 L46.0429,115.3601 Z" id="Fill-130" fill="#6D6D6D" mask="url(#mask-4)"></path>
                <path d="M43.0429,113.7849 L32.7429,113.7849 C31.4029,113.7849 30.1629,112.8939 29.7429,111.6769 L29.7429,115.3599 C29.7429,117.0099 31.0929,118.3599 32.7429,118.3599 L43.0429,118.3599 C44.6929,118.3599 46.0429,117.0099 46.0429,115.3599 L46.0429,111.6769 C45.6239,112.8939 44.3829,113.7849 43.0429,113.7849" id="Fill-131" fill="#5B5B5B" mask="url(#mask-4)"></path>
                <polygon id="Fill-132" fill="#929292" mask="url(#mask-4)" points="45.9531 101.4099 29.7431 100.0589 29.8341 96.0099 45.9531 96.0099"></polygon>
                <polygon id="Fill-133" fill="#929292" mask="url(#mask-4)" points="45.9531 104.5593 29.8341 105.6633 29.8341 102.9633 45.9531 102.9633"></polygon>
                <path d="M32.7431,89.1101 C31.5021,89.1101 30.4931,90.1191 30.4931,91.3601 L30.4931,115.3601 C30.4931,116.6001 31.5021,117.6101 32.7431,117.6101 L43.0431,117.6101 C44.2841,117.6101 45.2931,116.6001 45.2931,115.3601 L45.2931,91.3601 C45.2931,90.1191 44.2841,89.1101 43.0431,89.1101 L32.7431,89.1101 Z M43.0431,119.1101 L32.7431,119.1101 C30.6751,119.1101 28.9931,117.4271 28.9931,115.3601 L28.9931,91.3601 C28.9931,89.2921 30.6751,87.6101 32.7431,87.6101 L43.0431,87.6101 C45.1111,87.6101 46.7931,89.2921 46.7931,91.3601 L46.7931,115.3601 C46.7931,117.4271 45.1111,119.1101 43.0431,119.1101 L43.0431,119.1101 Z" id="Fill-134" fill="#121212" mask="url(#mask-4)"></path>
                <path d="M46.08,84.6843 L29.706,84.6843 C27.925,84.6843 26.467,86.0353 26.467,87.6843 L26.467,92.0353 L49.319,92.0353 L49.319,87.6843 C49.319,86.0353 47.862,84.6843 46.08,84.6843" id="Fill-135" fill="#A5B5B6" mask="url(#mask-4)"></path>
                <path d="M46.08,84.6843 L29.706,84.6843 C27.925,84.6843 26.467,86.0353 26.467,87.6843 L49.319,87.6843 C49.319,86.0353 47.862,84.6843 46.08,84.6843" id="Fill-136" fill="#C5D5D6" mask="url(#mask-4)"></path>
                <path d="M27.2167,91.2849 L48.5697,91.2849 L48.5697,87.6839 C48.5697,86.4439 47.4527,85.4339 46.0797,85.4339 L29.7057,85.4339 C28.3337,85.4339 27.2167,86.4439 27.2167,87.6839 L27.2167,91.2849 Z M49.3197,92.7849 L26.4667,92.7849 C26.0527,92.7849 25.7167,92.4489 25.7167,92.0349 L25.7167,87.6839 C25.7167,85.6169 27.5067,83.9339 29.7057,83.9339 L46.0797,83.9339 C48.2797,83.9339 50.0697,85.6169 50.0697,87.6839 L50.0697,92.0349 C50.0697,92.4489 49.7337,92.7849 49.3197,92.7849 L49.3197,92.7849 Z" id="Fill-137" fill="#354546" mask="url(#mask-4)"></path>
                <path d="M33.393,86.865 C32.979,86.865 32.643,86.53 32.643,86.115 L32.643,83.63 C32.643,83.216 32.979,82.88 33.393,82.88 C33.807,82.88 34.143,83.216 34.143,83.63 L34.143,86.115 C34.143,86.53 33.807,86.865 33.393,86.865" id="Fill-138" fill="#354546" mask="url(#mask-4)"></path>
                <path d="M36.393,86.865 C35.979,86.865 35.643,86.53 35.643,86.115 L35.643,83.63 C35.643,83.216 35.979,82.88 36.393,82.88 C36.807,82.88 37.143,83.216 37.143,83.63 L37.143,86.115 C37.143,86.53 36.807,86.865 36.393,86.865" id="Fill-139" fill="#354546" mask="url(#mask-4)"></path>
                <path d="M39.393,86.865 C38.979,86.865 38.643,86.53 38.643,86.115 L38.643,83.63 C38.643,83.216 38.979,82.88 39.393,82.88 C39.807,82.88 40.143,83.216 40.143,83.63 L40.143,86.115 C40.143,86.53 39.807,86.865 39.393,86.865" id="Fill-140" fill="#354546" mask="url(#mask-4)"></path>
                <path d="M42.3935,86.865 C41.9795,86.865 41.6435,86.53 41.6435,86.115 L41.6435,83.63 C41.6435,83.216 41.9795,82.88 42.3935,82.88 C42.8075,82.88 43.1435,83.216 43.1435,83.63 L43.1435,86.115 C43.1435,86.53 42.8075,86.865 42.3935,86.865" id="Fill-141" fill="#354546" mask="url(#mask-4)"></path>
                <path d="M60.2451,21.111 L60.2121,21.111 C59.7991,21.093 59.4771,20.744 59.4951,20.33 L59.9241,10.208 C59.9901,8.419 59.3491,6.701 58.1181,5.376 C56.8871,4.049 55.2221,3.284 53.4281,3.217 C53.4211,3.217 53.4131,3.216 53.4061,3.216 L27.3461,1.504 C23.6301,1.373 20.4991,4.285 20.3621,8.001 L19.9321,18.874 C19.9161,19.288 19.5711,19.614 19.1541,19.593 C18.7401,19.578 18.4171,19.229 18.4341,18.815 L18.8631,7.943 C19.0311,3.399 22.8671,-0.16 27.4121,0.006 C27.4191,0.006 27.4271,0.006 27.4331,0.007 L53.4941,1.718 C55.6831,1.802 57.7161,2.739 59.2171,4.355 C60.7211,5.973 61.5041,8.074 61.4231,10.267 L60.9931,20.393 C60.9761,20.797 60.6441,21.111 60.2451,21.111" id="Fill-142" fill="#354546" mask="url(#mask-4)"></path>
                <path d="M14.9003,19.7634 C13.6063,19.7154 12.4983,21.0254 12.4373,22.6744 L12.0633,32.8084 C12.0023,34.4564 13.0103,35.8454 14.3043,35.8934 C15.5983,35.9404 16.6563,35.9804 16.6563,35.9804 L17.2523,19.8504 C17.2523,19.8504 16.1943,19.8114 14.9003,19.7634" id="Fill-143" fill="#A5B5B6" mask="url(#mask-4)"></path>
                <path d="M12.4374,22.6745 L12.2544,27.6345 L16.9584,27.8075 L17.2524,19.8505 C17.2524,19.8505 16.1944,19.8115 14.9004,19.7635 C13.6064,19.7155 12.4984,21.0255 12.4374,22.6745" id="Fill-144" fill="#C5D5D6" mask="url(#mask-4)"></path>
                <path d="M16.6288,36.7292 L14.2768,36.6422 C12.5668,36.5792 11.2368,34.8462 11.3138,32.7802 L11.6878,22.6462 C11.7238,21.6822 12.0598,20.7772 12.6338,20.0982 C13.2438,19.3772 14.0778,18.9842 14.9278,19.0132 L17.2798,19.1002 L17.2248,20.5992 L14.8728,20.5122 C14.4828,20.4972 14.0938,20.6952 13.7788,21.0672 C13.4258,21.4852 13.2098,22.0812 13.1868,22.7022 L12.8128,32.8352 C12.7678,34.0542 13.4628,35.1112 14.3318,35.1432 L16.6848,35.2302 L16.6288,36.7292 Z" id="Fill-145" fill="#354546" mask="url(#mask-4)"></path>
                <polygon id="Fill-146" fill="#859596" mask="url(#mask-4)" points="20.9726 38.5388 16.5686 38.3758 17.2926 18.7748 21.6966 18.9368"></polygon>
                <polygon id="Fill-147" fill="#A5B5B6" mask="url(#mask-4)" points="21.2822 30.1521 16.8782 29.9891 17.2922 18.7751 21.6972 18.9371"></polygon>
                <path d="M17.3452,37.654 L20.2502,37.761 L20.9192,19.659 L18.0142,19.551 L17.3452,37.654 Z M20.9722,39.289 C20.9632,39.289 20.9542,39.289 20.9452,39.288 L16.5402,39.126 C16.1262,39.11 15.8032,38.762 15.8192,38.348 L16.5432,18.747 C16.5502,18.549 16.6362,18.36 16.7822,18.225 C16.9282,18.09 17.1222,18.02 17.3202,18.025 L21.7242,18.188 C22.1382,18.203 22.4612,18.551 22.4462,18.966 L21.7212,38.566 C21.7142,38.765 21.6282,38.953 21.4832,39.089 C21.3442,39.217 21.1612,39.289 20.9722,39.289 L20.9722,39.289 Z" id="Fill-148" fill="#354546" mask="url(#mask-4)"></path>
                <path d="M12.2543,28.3835 L12.2533,28.3835 L10.4513,28.3805 C10.0373,28.3795 9.7023,28.0435 9.7033,27.6285 C9.7033,27.2155 10.0393,26.8805 10.4533,26.8805 L10.4543,26.8805 L12.2553,26.8835 C12.6703,26.8845 13.0043,27.2215 13.0043,27.6355 C13.0033,28.0485 12.6673,28.3835 12.2543,28.3835" id="Fill-149" fill="#354546" mask="url(#mask-4)"></path>
                <path d="M67.3281,10.5544 C67.2431,10.5544 67.1551,10.5434 67.0681,10.5224 C66.5071,10.3784 66.1671,9.8074 66.3101,9.2444 L67.0871,6.1974 C67.2301,5.6344 67.8021,5.2954 68.3631,5.4384 C68.9261,5.5814 69.2651,6.1534 69.1221,6.7154 L68.3461,9.7634 C68.2241,10.2394 67.7971,10.5544 67.3281,10.5544" id="Fill-150" fill="#354546" mask="url(#mask-4)"></path>
                <path d="M64.25,22.3366 C64.188,22.3366 64.127,22.3286 64.064,22.3136 C63.663,22.2106 63.421,21.8026 63.523,21.4006 L66.601,9.3186 C66.703,8.9176 67.111,8.6756 67.513,8.7766 C67.914,8.8796 68.157,9.2876 68.055,9.6896 L64.977,21.7716 C64.891,22.1106 64.585,22.3366 64.25,22.3366" id="Fill-151" fill="#354546" mask="url(#mask-4)"></path>
                <path d="M64.25,21.5866 C65.543,21.6346 66.552,23.0226 66.491,24.6716 L66.117,34.8056 C66.056,36.4536 64.947,37.7636 63.654,37.7156 C62.36,37.6686 61.302,37.6286 61.302,37.6286 L61.897,21.4996 C61.897,21.4996 62.956,21.5386 64.25,21.5866" id="Fill-152" fill="#A5B5B6" mask="url(#mask-4)"></path>
                <path d="M66.4912,24.6716 L66.3072,29.6306 L61.6032,29.4566 L61.8972,21.4996 C61.8972,21.4996 62.9562,21.5386 64.2502,21.5866 C65.5432,21.6346 66.5522,23.0226 66.4912,24.6716" id="Fill-153" fill="#C5D5D6" mask="url(#mask-4)"></path>
                <path d="M63.7226,38.4675 C63.6906,38.4675 63.6586,38.4665 63.6256,38.4655 L61.2746,38.3785 L61.3286,36.8795 L63.6816,36.9665 C64.5466,36.9995 65.3226,35.9955 65.3676,34.7775 L65.7426,24.6435 C65.7866,23.4245 65.0906,22.3675 64.2216,22.3355 L61.8696,22.2485 L61.9246,20.7495 L64.2776,20.8365 C65.9876,20.9005 67.3176,22.6325 67.2416,24.6985 L66.8666,34.8325 C66.7906,36.8605 65.3906,38.4675 63.7226,38.4675" id="Fill-154" fill="#354546" mask="url(#mask-4)"></path>
                <polygon id="Fill-155" fill="#859596" mask="url(#mask-4)" points="56.8085 39.862 61.2125 40.025 61.9375 20.425 57.5335 20.261"></polygon>
                <polygon id="Fill-156" fill="#A5B5B6" mask="url(#mask-4)" points="57.1191 31.4763 61.5231 31.6383 61.9371 20.4243 57.5331 20.2613"></polygon>
                <path d="M57.5859,39.1403 L60.4909,39.2473 L61.1599,21.1463 L58.2549,21.0383 L57.5859,39.1403 Z M61.2129,40.7753 L61.1859,40.7753 L56.7809,40.6123 C56.3669,40.5963 56.0439,40.2483 56.0599,39.8343 L56.7829,20.2343 C56.7989,19.8203 57.1479,19.4953 57.5609,19.5113 L61.9649,19.6743 C62.1639,19.6823 62.3519,19.7683 62.4869,19.9133 C62.6219,20.0593 62.6939,20.2523 62.6869,20.4523 L61.9629,40.0523 C61.9549,40.2513 61.8689,40.4393 61.7239,40.5753 C61.5839,40.7033 61.4019,40.7753 61.2129,40.7753 L61.2129,40.7753 Z" id="Fill-157" fill="#354546" mask="url(#mask-4)"></path>
                <path d="M68.1054,30.5105 C68.0864,30.5105 68.0694,30.5095 68.0504,30.5085 L66.2534,30.3785 C65.8404,30.3495 65.5304,29.9895 65.5594,29.5765 C65.5894,29.1635 65.9484,28.8545 66.3624,28.8825 L68.1584,29.0125 C68.5714,29.0415 68.8814,29.4015 68.8524,29.8145 C68.8244,30.2085 68.4954,30.5105 68.1054,30.5105" id="Fill-158" fill="#354546" mask="url(#mask-4)"></path>
                <path d="M20.9042,44.6755 C19.8782,44.6755 17.2692,45.7895 16.1642,47.0505 C15.2252,48.1195 15.0742,49.9055 15.8352,50.9505 C16.1462,51.3775 16.5562,51.6135 17.0202,51.6355 C17.5522,51.6565 18.1092,51.3855 18.5502,50.8835 C19.0822,50.2775 19.9952,48.8965 20.6392,47.5345 C21.4722,45.7735 21.4402,44.9615 21.3072,44.7795 C21.2662,44.7235 21.1372,44.6855 20.9622,44.6775 C20.9442,44.6765 20.9242,44.6755 20.9042,44.6755 M17.0852,53.1375 C17.0412,53.1375 16.9972,53.1355 16.9522,53.1335 C16.0302,53.0925 15.2032,52.6305 14.6232,51.8335 C13.4402,50.2095 13.6212,47.6735 15.0362,46.0615 C16.0832,44.8675 19.1282,43.0975 21.0302,43.1785 C21.8562,43.2165 22.2962,43.5895 22.5192,43.8955 C23.1312,44.7365 22.9602,46.1355 21.9962,48.1755 C21.2862,49.6775 20.2922,51.1725 19.6772,51.8725 C18.9672,52.6815 18.0302,53.1375 17.0852,53.1375" id="Fill-159" fill="#19B5FE" mask="url(#mask-4)"></path>
                <path d="M53.8115,42.6335 L53.8125,42.6335 L53.8115,42.6335 Z M55.3335,42.8985 C54.8765,42.8985 54.5225,42.9735 54.3555,43.1505 L54.3545,43.1505 C54.2305,43.2805 54.2365,43.5415 54.2635,43.7375 C54.4365,44.9755 55.7785,46.7275 56.5305,47.1725 C57.4895,47.7395 59.0505,47.4285 59.9395,46.4925 C60.3655,46.0445 60.5725,45.5185 60.5065,45.0485 C60.4555,44.6745 60.2335,44.3625 59.8685,44.1465 C58.8025,43.5165 56.6435,42.8985 55.3335,42.8985 L55.3335,42.8985 Z M57.6755,48.9585 C56.9955,48.9585 56.3325,48.7985 55.7665,48.4635 C54.6025,47.7755 53.0095,45.6055 52.7785,43.9445 C52.6465,42.9975 52.9715,42.4285 53.2675,42.1165 C54.8935,40.4045 59.5815,42.2335 60.6315,42.8555 C61.3935,43.3055 61.8765,44.0115 61.9925,44.8415 C62.1215,45.7665 61.7695,46.7445 61.0265,47.5275 C60.1445,48.4555 58.8815,48.9585 57.6755,48.9585 L57.6755,48.9585 Z" id="Fill-160" fill="#19B5FE" mask="url(#mask-4)"></path>
                <path d="M14.5356,41.739 C14.1236,41.739 13.7706,41.77 13.5096,41.835 C11.8906,42.232 10.8136,44.083 11.1086,45.961 C11.2576,46.912 11.7496,47.728 12.4586,48.199 C13.0486,48.592 13.7506,48.716 14.4346,48.548 C15.3316,48.328 17.0486,47.581 18.4646,46.633 C19.9356,45.647 20.7536,44.673 20.6516,44.026 C20.5916,43.642 20.1906,43.303 19.8646,43.086 C18.5366,42.203 16.1116,41.739 14.5356,41.739 M13.8306,50.122 C13.0556,50.122 12.2966,49.893 11.6276,49.448 C10.5706,48.745 9.8406,47.558 9.6266,46.193 C9.2136,43.565 10.7956,40.957 13.1516,40.378 C14.9106,39.946 18.7366,40.534 20.6956,41.838 C21.5336,42.395 22.0176,43.053 22.1336,43.794 C22.5996,46.76 16.7226,49.53 14.7926,50.005 C14.4726,50.083 14.1506,50.122 13.8306,50.122" id="Fill-161" fill="#719911" mask="url(#mask-4)"></path>
                <path d="M56.458,47.3093 C56.306,51.4313 52.806,54.7903 48.681,54.7733 L27.062,54.6833 C22.937,54.6663 19.824,51.2883 20.145,47.1743 L22.532,13.3293 C22.853,9.2153 26.478,6.1353 30.589,6.4833 L50.357,8.1533 C54.468,8.5003 57.707,12.1583 57.555,16.2803 L56.458,47.3093 Z" id="Fill-162" fill="#A5B5B6" mask="url(#mask-4)"></path>
                <path d="M53.0322,41.0153 C52.9212,44.0463 50.1172,46.5083 46.8032,46.4863 L29.4322,46.3653 C26.1172,46.3423 23.6082,43.8493 23.8562,40.8253 L25.6932,16.9293 C25.9402,13.9063 28.8452,11.6493 32.1492,11.9143 L48.0362,13.1933 C51.3402,13.4583 53.9512,16.1573 53.8392,19.1883 L53.0322,41.0153 Z" id="Fill-163" fill="#C5D5D6" mask="url(#mask-4)"></path>
                <path d="M50.2548,51.4343 L26.7608,51.2753 C23.8458,51.2553 21.3918,49.8143 20.1248,47.6783 C20.0838,51.5593 23.1068,54.6663 27.0618,54.6833 L48.6808,54.7733 C52.1408,54.7883 55.1578,52.4273 56.1328,49.2343 C54.6018,50.6043 52.5168,51.4503 50.2548,51.4343" id="Fill-164" fill="#859596" mask="url(#mask-4)"></path>
                <path d="M50.3154,52.1843 L50.2504,52.1843 L26.7554,52.0253 C23.6604,52.0043 20.9404,50.5223 19.4794,48.0613 C19.2684,47.7053 19.3854,47.2453 19.7414,47.0333 C20.0984,46.8223 20.5584,46.9393 20.7694,47.2953 C21.9594,49.3003 24.2014,50.5073 26.7664,50.5253 L50.2594,50.6843 C52.2604,50.6963 54.1694,49.9843 55.6324,48.6753 C55.9414,48.3993 56.4154,48.4253 56.6914,48.7343 C56.9674,49.0423 56.9414,49.5173 56.6324,49.7923 C54.9084,51.3363 52.6664,52.1843 50.3154,52.1843" id="Fill-165" fill="#354546" mask="url(#mask-4)"></path>
                <path d="M56.458,47.3093 L56.459,47.3093 L56.458,47.3093 Z M29.954,7.2053 C28.37,7.2053 26.851,7.7633 25.625,8.8043 C24.252,9.9713 23.419,11.5983 23.28,13.3863 L20.893,47.2283 C20.754,49.0123 21.32,50.6893 22.487,51.9563 C23.655,53.2243 25.28,53.9253 27.064,53.9333 L48.684,54.0233 L48.713,54.0233 C52.436,54.0233 55.57,51.0053 55.708,47.2833 L56.805,16.2533 C56.942,12.5133 54.022,9.2153 50.295,8.9013 L30.526,7.2303 C30.334,7.2133 30.144,7.2053 29.954,7.2053 L29.954,7.2053 Z M48.713,55.5233 L48.678,55.5233 L27.058,55.4333 C24.853,55.4243 22.837,54.5503 21.384,52.9733 C19.931,51.3953 19.226,49.3163 19.397,47.1173 L21.784,13.2763 C21.956,11.0803 22.975,9.0883 24.654,7.6623 C26.333,6.2353 28.464,5.5513 30.652,5.7353 L50.421,7.4063 C54.935,7.7883 58.471,11.7813 58.304,16.3073 L57.207,47.3353 L57.207,47.3373 C57.04,51.8583 53.232,55.5233 48.713,55.5233 L48.713,55.5233 Z" id="Fill-166" fill="#354546" mask="url(#mask-4)"></path>
                <path d="M39.9311,16.2956 C35.8231,16.2956 30.9271,15.0336 30.9271,9.0236 C30.9271,8.0806 31.0491,7.4546 31.2881,6.5616 C31.3961,6.1606 31.8071,5.9246 32.2071,6.0306 C32.6071,6.1396 32.8451,6.5506 32.7371,6.9496 C32.5231,7.7496 32.4271,8.2386 32.4271,9.0236 C32.4271,10.4506 32.4271,14.7956 39.9311,14.7956 C47.4681,14.7956 47.4681,10.4506 47.4681,9.0236 C47.4681,8.7056 47.4511,8.3856 47.4191,8.0706 C47.3771,7.6586 47.6761,7.2906 48.0881,7.2476 C48.5011,7.2076 48.8691,7.5056 48.9111,7.9176 C48.9481,8.2816 48.9681,8.6536 48.9681,9.0236 C48.9681,12.3406 47.4001,16.2956 39.9311,16.2956" id="Fill-167" fill="#354546" mask="url(#mask-4)"></path>
                <path d="M35.1484,25.9421 C34.9834,30.4131 31.2254,33.9031 26.7544,33.7381 C22.2844,33.5721 18.7944,29.8141 18.9594,25.3441 C19.1244,20.8741 22.8824,17.3831 27.3534,17.5481 C31.8234,17.7131 35.3134,21.4711 35.1484,25.9421" id="Fill-168" fill="#C5D5D6" mask="url(#mask-4)"></path>
                <path d="M27.0507,18.2927 C23.1217,18.2927 19.8557,21.4137 19.7087,25.3717 C19.6367,27.3337 20.3327,29.2067 21.6687,30.6457 C23.0047,32.0837 24.8207,32.9157 26.7827,32.9877 C28.7457,33.0627 30.6167,32.3647 32.0557,31.0287 C33.4947,29.6927 34.3267,27.8767 34.3987,25.9147 C34.5487,21.8637 31.3757,18.4477 27.3257,18.2977 C27.2337,18.2947 27.1417,18.2927 27.0507,18.2927 M27.0617,34.4927 C26.9507,34.4927 26.8397,34.4907 26.7277,34.4867 C24.3647,34.3997 22.1777,33.3977 20.5697,31.6657 C18.9607,29.9337 18.1227,27.6787 18.2097,25.3157 C18.3897,20.4397 22.5037,16.6207 27.3807,16.7987 C32.2577,16.9797 36.0777,21.0937 35.8977,25.9697 L35.1487,25.9417 L35.8977,25.9697 C35.8107,28.3317 34.8087,30.5197 33.0767,32.1277 C31.4267,33.6597 29.3017,34.4927 27.0617,34.4927" id="Fill-169" fill="#354546" mask="url(#mask-4)"></path>
                <path d="M32.2734,25.8357 C32.1674,28.7187 29.7434,30.9687 26.8614,30.8617 C23.9784,30.7557 21.7284,28.3327 21.8354,25.4497 C21.9414,22.5677 24.3644,20.3167 27.2474,20.4237 C30.1294,20.5297 32.3794,22.9537 32.2734,25.8357" id="Fill-170" fill="#9ABD45" mask="url(#mask-4)"></path>
                <path d="M30.3549,24.2341 C30.2889,26.0261 28.7819,27.4241 26.9909,27.3581 C25.1989,27.2931 23.7999,25.7861 23.8659,23.9951 C23.9329,22.2031 25.4379,20.8031 27.2299,20.8701 C29.0219,20.9361 30.4209,22.4421 30.3549,24.2341" id="Fill-171" fill="#CEEC87" mask="url(#mask-4)"></path>
                <path d="M27.0517,21.1706 C24.6607,21.1706 22.6737,23.0686 22.5847,25.4786 C22.4927,27.9416 24.4247,30.0226 26.8887,30.1126 C28.0817,30.1586 29.2227,29.7336 30.0977,28.9206 C30.9727,28.1076 31.4797,27.0016 31.5237,25.8086 C31.5677,24.6136 31.1447,23.4746 30.3317,22.5996 C29.5187,21.7246 28.4127,21.2176 27.2187,21.1736 C27.1627,21.1716 27.1077,21.1706 27.0517,21.1706 M27.0567,31.6156 C26.9827,31.6156 26.9077,31.6136 26.8337,31.6116 C23.5427,31.4896 20.9637,28.7136 21.0857,25.4226 C21.2037,22.2066 23.8587,19.6706 27.0517,19.6706 C27.1257,19.6706 27.1997,19.6716 27.2747,19.6746 C30.5657,19.7956 33.1447,22.5726 33.0227,25.8636 C32.9037,29.0796 30.2497,31.6156 27.0567,31.6156" id="Fill-172" fill="#354546" mask="url(#mask-4)"></path>
                <path d="M28.3998,22.1687 C28.7318,22.9107 27.6938,23.5447 26.3368,24.1517 C24.9788,24.7597 23.8148,25.1107 23.4828,24.3687 C23.1508,23.6277 23.9828,22.5337 25.3398,21.9257 C26.6978,21.3177 28.0678,21.4267 28.3998,22.1687" id="Fill-173" fill="#FFFFFF" mask="url(#mask-4)"></path>
                <path d="M27.4628,29.3493 C27.3768,29.1573 27.6458,28.9923 27.9988,28.8343 C28.3508,28.6763 28.6528,28.5853 28.7388,28.7783 C28.8248,28.9703 28.6088,29.2543 28.2568,29.4113 C27.9048,29.5703 27.5488,29.5413 27.4628,29.3493" id="Fill-174" fill="#FFFFFF" mask="url(#mask-4)"></path>
                <path d="M31.8569,25.7819 C31.8319,26.4629 31.2599,26.9939 30.5799,26.9689 C29.8989,26.9429 29.3679,26.3709 29.3929,25.6909 C29.4179,25.0109 29.9899,24.4789 30.6699,24.5039 C31.3509,24.5289 31.8819,25.1009 31.8569,25.7819" id="Fill-175" fill="#354546" mask="url(#mask-4)"></path>
                <path d="M57.9873,27.2898 C57.8463,31.0778 54.6623,32.3858 50.8743,32.2448 C47.0863,32.1048 44.1293,30.5708 44.2683,26.7828 C44.4083,22.9948 47.5923,20.0368 51.3813,20.1768 C55.1693,20.3168 58.1273,23.5018 57.9873,27.2898" id="Fill-176" fill="#C5D5D6" mask="url(#mask-4)"></path>
                <path d="M51.122,20.9226 C49.574,20.9226 48.107,21.4976 46.967,22.5566 C45.77,23.6676 45.078,25.1786 45.018,26.8106 C44.882,30.4976 48.143,31.3946 50.902,31.4956 C56.004,31.6896 57.162,29.2976 57.237,27.2616 C57.298,25.6296 56.719,24.0716 55.607,22.8756 C54.496,21.6786 52.985,20.9866 51.353,20.9266 C51.276,20.9236 51.199,20.9226 51.122,20.9226 M51.425,33.0056 C51.235,33.0056 51.043,33.0016 50.847,32.9946 C46.05,32.8176 43.379,30.5436 43.518,26.7546 C43.594,24.7226 44.456,22.8416 45.946,21.4566 C47.436,20.0726 49.378,19.3506 51.409,19.4276 C53.441,19.5026 55.322,20.3646 56.707,21.8546 C58.091,23.3446 58.811,25.2846 58.736,27.3176 C58.602,30.9526 55.947,33.0056 51.425,33.0056" id="Fill-177" fill="#354546" mask="url(#mask-4)"></path>
                <path d="M55.5507,27.1999 C55.4597,29.6419 53.4067,29.8989 50.9637,29.8089 C48.5217,29.7189 46.6147,29.3149 46.7047,26.8729 C46.7947,24.4299 48.8487,22.5229 51.2907,22.6129 C53.7337,22.7039 55.6407,24.7569 55.5507,27.1999" id="Fill-178" fill="#19B5FE" mask="url(#mask-4)"></path>
                <path d="M53.8769,25.6667 C53.8199,27.1857 52.6459,27.7487 51.1279,27.6927 C49.6089,27.6367 48.3219,26.9817 48.3789,25.4637 C48.4349,23.9447 49.7109,22.7607 51.2299,22.8157 C52.7469,22.8717 53.9329,24.1477 53.8769,25.6667" id="Fill-179" fill="#39D5FF" mask="url(#mask-4)"></path>
                <path d="M55.5507,27.1999 L55.5517,27.1999 L55.5507,27.1999 Z M51.1257,23.3599 C49.1607,23.3599 47.5277,24.9209 47.4537,26.8999 C47.4147,27.9689 47.8297,28.3409 48.2417,28.5629 C48.9307,28.9359 50.0187,29.0229 50.9917,29.0589 C54.1307,29.1759 54.7517,28.4849 54.8007,27.1719 C54.8757,25.1459 53.2887,23.4369 51.2637,23.3629 C51.2177,23.3609 51.1717,23.3599 51.1257,23.3599 L51.1257,23.3599 Z M51.8027,30.5789 C51.4847,30.5789 51.1907,30.5679 50.9367,30.5579 C49.7897,30.5159 48.4887,30.4029 47.5277,29.8829 C46.4317,29.2889 45.9037,28.2669 45.9547,26.8459 C46.0607,23.9929 48.4637,21.7609 51.3187,21.8639 C54.1707,21.9699 56.4047,24.3759 56.2997,27.2269 C56.1897,30.2249 53.6147,30.5789 51.8027,30.5789 L51.8027,30.5789 Z" id="Fill-180" fill="#354546" mask="url(#mask-4)"></path>
                <path d="M52.2685,24.0915 C52.5495,24.7205 51.6695,25.2575 50.5195,25.7725 C49.3695,26.2875 48.3825,26.5855 48.1015,25.9565 C47.8205,25.3275 48.5255,24.4015 49.6755,23.8865 C50.8265,23.3705 51.9875,23.4635 52.2685,24.0915" id="Fill-181" fill="#FFFFFF" mask="url(#mask-4)"></path>
                <path d="M52.5849,28.5866 C52.5129,28.4236 52.7399,28.2836 53.0389,28.1496 C53.3379,28.0166 53.5939,27.9396 53.6669,28.1026 C53.7389,28.2656 53.5569,28.5066 53.2579,28.6396 C52.9599,28.7736 52.6579,28.7496 52.5849,28.5866" id="Fill-182" fill="#FFFFFF" mask="url(#mask-4)"></path>
                <path d="M49.2109,27.0036 C49.1899,27.5806 48.7049,28.0306 48.1279,28.0096 C47.5519,27.9876 47.1019,27.5036 47.1219,26.9266 C47.1439,26.3506 47.6289,25.8996 48.2049,25.9216 C48.7819,25.9426 49.2319,26.4276 49.2109,27.0036" id="Fill-183" fill="#354546" mask="url(#mask-4)"></path>
                <path d="M27.1899,40.6374 L49.9359,35.5554 C49.9359,35.5554 51.2139,42.5624 45.6829,44.6064 C35.9409,48.2064 27.1899,40.6374 27.1899,40.6374" id="Fill-184" fill="#FFFFFF" mask="url(#mask-4)"></path>
                <path d="M27.1899,40.6374 L27.1909,40.6374 L27.1899,40.6374 Z M28.9429,41.0144 C29.8959,41.6674 31.3409,42.5514 33.1179,43.2994 C37.4409,45.1194 41.5809,45.3234 45.4229,43.9034 C49.2739,42.4794 49.4059,38.2324 49.2839,36.4694 L28.9429,41.0144 Z M40.2329,46.3204 C37.7069,46.3204 35.0959,45.7664 32.4899,44.6624 C29.0159,43.1914 26.7919,41.2844 26.6989,41.2044 C26.4849,41.0194 26.3929,40.7294 26.4619,40.4534 C26.5319,40.1794 26.7499,39.9674 27.0259,39.9064 L49.7719,34.8234 C49.9709,34.7794 50.1799,34.8174 50.3499,34.9304 C50.5199,35.0424 50.6369,35.2204 50.6729,35.4204 C50.6879,35.4974 51.0139,37.3324 50.6209,39.4504 C50.0839,42.3514 48.4659,44.3774 45.9419,45.3104 C44.1189,45.9844 42.2009,46.3204 40.2329,46.3204 L40.2329,46.3204 Z" id="Fill-185" fill="#354546" mask="url(#mask-4)"></path>
                <path d="M33.6147,45.0554 C33.2397,45.0554 32.9157,44.7744 32.8707,44.3924 L32.2857,39.4194 C32.2377,39.0084 32.5317,38.6354 32.9437,38.5874 C33.3547,38.5394 33.7267,38.8334 33.7757,39.2444 L34.3607,44.2174 C34.4087,44.6284 34.1147,45.0014 33.7027,45.0494 C33.6737,45.0534 33.6437,45.0554 33.6147,45.0554" id="Fill-186" fill="#354546" mask="url(#mask-4)"></path>
                <path d="M39.0649,46.0642 C38.6629,46.0642 38.3299,45.7462 38.3159,45.3402 L38.0609,38.0672 C38.0459,37.6542 38.3699,37.3062 38.7839,37.2922 C39.1959,37.2772 39.5449,37.6012 39.5599,38.0142 L39.8149,45.2882 C39.8299,45.7022 39.5059,46.0492 39.0919,46.0642 L39.0649,46.0642 Z" id="Fill-187" fill="#354546" mask="url(#mask-4)"></path>
                <path d="M44.6328,45.3562 C44.2218,45.3562 43.8868,45.0262 43.8828,44.6152 L43.7988,36.7672 C43.7938,36.3522 44.1268,36.0132 44.5408,36.0082 C44.9528,36.0052 45.2938,36.3362 45.2988,36.7512 L45.3828,44.5982 C45.3868,45.0122 45.0548,45.3522 44.6408,45.3562 L44.6328,45.3562 Z" id="Fill-188" fill="#354546" mask="url(#mask-4)"></path>
                <path d="M74.9433,54.1003 C73.2943,54.0643 71.9143,55.3833 71.8783,57.0333 L71.7753,62.8823 C71.7383,64.5333 73.0583,65.9123 74.7083,65.9493 L81.6243,65.9783 C83.2733,66.0143 84.0533,64.6603 84.0903,63.0103 L84.1753,57.4603 C84.2123,55.8113 83.4913,54.4653 81.8413,54.4293 L74.9433,54.1003 Z" id="Fill-189" fill="#A5B5B6" mask="url(#mask-4)"></path>
                <path d="M74.8759,54.8493 C73.6579,54.8493 72.6539,55.8263 72.6269,57.0493 L72.5249,62.8963 C72.4969,64.1393 73.4839,65.1713 74.7249,65.1993 L81.6269,65.2283 C82.1749,65.2443 82.5739,65.0593 82.8619,64.6763 C83.1549,64.2863 83.3249,63.6893 83.3409,62.9943 L83.4259,57.4493 C83.4439,56.6123 83.2609,55.2103 81.8249,55.1793 C81.8179,55.1793 81.8129,55.1783 81.8059,55.1783 L74.9179,54.8503 C74.9039,54.8493 74.8899,54.8493 74.8759,54.8493 M81.6879,66.7293 C81.6619,66.7293 81.6349,66.7283 81.6069,66.7283 L74.7049,66.6993 C72.6239,66.6533 70.9799,64.9333 71.0249,62.8663 L71.1279,57.0203 C71.1739,54.9503 72.8969,53.3103 74.9599,53.3503 C74.9659,53.3503 74.9729,53.3513 74.9789,53.3513 L81.8679,53.6803 C83.7749,53.7273 84.9759,55.2163 84.9259,57.4773 L84.8409,63.0223 C84.7899,65.2853 83.5569,66.7293 81.6879,66.7293" id="Fill-190" fill="#354546" mask="url(#mask-4)"></path>
                <path d="M81.871,69.0114 C80.131,66.3684 82.948,62.5144 81.682,60.3014 C80.392,58.0454 82.248,53.2734 82.248,53.2734 L82.863,53.3234 L82.967,52.0334 L78.468,51.6714 L78.363,52.9604 L78.979,53.0104 C78.979,53.0104 80.048,58.0184 78.413,60.0374 C76.809,62.0204 78.974,66.2764 76.833,68.6064 L71.64,68.8114 L71.556,69.8454 L86.882,71.0794 L86.966,70.0444 L81.871,69.0114 Z" id="Fill-191" fill="#F6AB35" mask="url(#mask-4)"></path>
                <path d="M75.4834,69.4099 L83.0754,70.0209 L81.7224,69.7469 C81.5264,69.7069 81.3554,69.5909 81.2454,69.4249 C80.1414,67.7479 80.5634,65.7619 80.9354,64.0099 C81.2134,62.6949 81.4774,61.4539 81.0314,60.6739 C80.4024,59.5749 80.3064,57.9319 80.7464,55.7909 C81.0584,54.2709 81.5294,53.0529 81.5484,53.0019 C81.5974,52.8769 81.6764,52.7699 81.7764,52.6899 L79.5384,52.5109 C79.6234,52.6049 79.6844,52.7229 79.7124,52.8529 C79.7244,52.9069 79.9944,54.1849 80.0584,55.7349 C80.1494,57.9199 79.7924,59.5259 78.9964,60.5099 C78.4304,61.2089 78.4924,62.4759 78.5574,63.8179 C78.6444,65.6069 78.7434,67.6359 77.3844,69.1129 C77.2504,69.2609 77.0614,69.3479 76.8624,69.3549 L75.4834,69.4099 Z M86.8814,71.8299 C86.8624,71.8299 86.8414,71.8289 86.8224,71.8269 L71.4964,70.5939 C71.0834,70.5599 70.7754,70.1989 70.8084,69.7859 L70.8914,68.7509 C70.9214,68.3729 71.2304,68.0769 71.6094,68.0609 L76.4674,67.8699 C77.2034,66.8569 77.1324,65.4129 77.0594,63.8899 C76.9834,62.3269 76.9044,60.7099 77.8304,59.5659 C78.8484,58.3079 78.6074,55.2929 78.3464,53.7119 L78.3034,53.7079 C78.1054,53.6919 77.9214,53.5979 77.7934,53.4469 C77.6644,53.2959 77.6004,53.0979 77.6164,52.8999 L77.7194,51.6109 C77.7364,51.4129 77.8304,51.2289 77.9814,51.0999 C78.1324,50.9719 78.3294,50.9069 78.5274,50.9239 L83.0274,51.2859 C83.4404,51.3189 83.7484,51.6809 83.7144,52.0939 L83.6114,53.3839 C83.5784,53.7959 83.2154,54.1039 82.8034,54.0699 L82.7594,54.0669 C82.2504,55.5859 81.5294,58.5229 82.3334,59.9289 C83.0634,61.2059 82.7274,62.7899 82.4024,64.3209 C82.0864,65.8119 81.7854,67.2259 82.3494,68.3439 L87.1144,69.3099 C87.4864,69.3859 87.7434,69.7269 87.7124,70.1049 L87.6294,71.1399 C87.6134,71.3389 87.5194,71.5219 87.3684,71.6509 C87.2324,71.7659 87.0594,71.8299 86.8814,71.8299 L86.8814,71.8299 Z" id="Fill-192" fill="#E67E22" mask="url(#mask-4)"></path>
                <path d="M70.3271,29.9948 C69.3901,41.6308 74.0521,51.4988 80.7381,52.0368 C87.4251,52.5758 93.6051,43.5798 94.5421,31.9438 L70.3271,29.9948 Z" id="Fill-193" fill="#F9B32F" mask="url(#mask-4)"></path>
                <path d="M70.3271,29.9948 C69.6361,38.5758 73.0741,45.8548 78.0061,46.2518 C82.9371,46.6488 87.4951,40.0148 88.1861,31.4318 L70.3271,29.9948 Z" id="Fill-194" fill="#FFCF4B" mask="url(#mask-4)"></path>
                <path d="M82.1513,34.4802 C78.6553,34.1992 75.5923,36.8052 75.3103,40.3012 C75.0293,43.7982 77.6353,46.8612 81.1323,47.1432 C84.6293,47.4242 87.6913,44.8182 87.9733,41.3212 C88.2553,37.8252 85.6483,34.7622 82.1513,34.4802" id="Fill-195" fill="#FFCF4B" mask="url(#mask-4)"></path>
                <path d="M81.6328,35.2097 C80.3058,35.2097 79.0338,35.6757 78.0118,36.5457 C76.8718,37.5157 76.1788,38.8707 76.0588,40.3617 C75.9388,41.8537 76.4058,43.3027 77.3758,44.4417 C78.3458,45.5817 79.7008,46.2747 81.1928,46.3957 C82.6848,46.5157 84.1328,46.0477 85.2728,45.0777 C86.4118,44.1077 87.1058,42.7527 87.2258,41.2617 C87.3458,39.7707 86.8778,38.3207 85.9078,37.1817 C84.9388,36.0417 83.5828,35.3487 82.0918,35.2287 C81.9388,35.2157 81.7848,35.2097 81.6328,35.2097 M81.6478,47.9137 C81.4568,47.9137 81.2658,47.9057 81.0718,47.8907 C79.1818,47.7377 77.4628,46.8587 76.2338,45.4137 C75.0038,43.9697 74.4108,42.1327 74.5638,40.2417 C74.7158,38.3517 75.5948,36.6327 77.0398,35.4027 C78.4848,34.1737 80.3208,33.5807 82.2118,33.7327 C84.1028,33.8857 85.8208,34.7647 87.0508,36.2097 C88.2798,37.6537 88.8728,39.4907 88.7208,41.3817 C88.4218,45.0917 85.3068,47.9137 81.6478,47.9137" id="Fill-196" fill="#E67E22" mask="url(#mask-4)"></path>
                <path d="M81.4101,44.4528 C81.3891,44.4528 81.3701,44.4528 81.3481,44.4508 C80.9361,44.4178 80.6291,44.0568 80.6621,43.6428 L81.1611,37.4358 C81.1941,37.0228 81.5561,36.7138 81.9701,36.7488 C82.3821,36.7818 82.6891,37.1428 82.6561,37.5568 L82.1571,43.7638 C82.1251,44.1558 81.7971,44.4528 81.4101,44.4528" id="Fill-197" fill="#E67E22" mask="url(#mask-4)"></path>
                <path d="M83.3164,38.3591 C83.2954,38.3591 83.2754,38.3591 83.2544,38.3571 L80.4424,38.1301 C80.0294,38.0971 79.7214,37.7361 79.7544,37.3231 C79.7884,36.9101 80.1494,36.6011 80.5624,36.6351 L83.3764,36.8621 C83.7884,36.8951 84.0964,37.2561 84.0634,37.6701 C84.0314,38.0621 83.7034,38.3591 83.3164,38.3591" id="Fill-198" fill="#E67E22" mask="url(#mask-4)"></path>
                <path d="M82.7822,44.99 C82.7612,44.99 82.7422,44.99 82.7212,44.988 L79.9082,44.761 C79.4962,44.728 79.1872,44.367 79.2202,43.954 C79.2542,43.541 79.6152,43.231 80.0292,43.266 L82.8422,43.493 C83.2552,43.526 83.5622,43.887 83.5292,44.301 C83.4972,44.693 83.1692,44.99 82.7822,44.99" id="Fill-199" fill="#E67E22" mask="url(#mask-4)"></path>
                <path d="M71.0214,30.8034 C70.7084,36.0294 71.5274,40.9944 73.3514,44.8574 C75.1994,48.7674 77.8434,51.0514 80.7984,51.2894 C83.7534,51.5284 86.7294,49.6964 89.1774,46.1314 C91.5964,42.6104 93.2014,37.8394 93.7264,32.6314 L71.0214,30.8034 Z M81.3164,52.8104 C81.1034,52.8104 80.8914,52.8024 80.6774,52.7844 C77.1654,52.5014 74.0824,49.9134 71.9964,45.4974 C69.9734,41.2174 69.1164,35.6914 69.5794,29.9344 C69.6124,29.5224 69.9734,29.2104 70.3864,29.2474 L94.6024,31.1974 C95.0144,31.2304 95.3234,31.5914 95.2904,32.0044 C94.8264,37.7604 93.0944,43.0784 90.4154,46.9814 C87.8164,50.7624 84.6074,52.8104 81.3164,52.8104 L81.3164,52.8104 Z" id="Fill-200" fill="#E67E22" mask="url(#mask-4)"></path>
                <path d="M89.6523,52.5505 C88.8853,52.5505 88.1893,52.2395 87.7473,51.6655 C87.2343,51.0005 87.2093,50.1295 87.6783,49.3905 C88.4833,48.1265 89.0083,47.9245 90.1203,47.5865 C90.9113,47.3465 92.1063,46.9825 94.2613,45.8585 C99.4583,43.1465 101.0713,39.8585 101.2063,38.3435 C101.3033,37.2395 101.0853,36.3445 100.5753,35.7545 C100.1183,35.2275 99.4283,34.9345 98.5253,34.8835 C96.0723,34.7415 94.8363,35.9625 94.8243,35.9755 C94.5383,36.2755 94.0633,36.2855 93.7633,35.9995 C93.4653,35.7135 93.4543,35.2385 93.7403,34.9395 C93.8073,34.8675 95.4343,33.2075 98.6093,33.3855 C99.9163,33.4585 100.9873,33.9395 101.7093,34.7735 C102.4923,35.6785 102.8343,36.9585 102.7003,38.4765 C102.5003,40.7355 100.3513,44.3715 94.9553,47.1885 C92.6763,48.3765 91.4003,48.7655 90.5553,49.0225 C89.6283,49.3045 89.4853,49.3475 88.9443,50.1965 C88.8113,50.4045 88.8083,50.5855 88.9343,50.7495 C89.1203,50.9905 89.5603,51.1535 90.1253,50.9735 C90.5193,50.8475 90.9413,51.0655 91.0673,51.4595 C91.1933,51.8545 90.9753,52.2765 90.5813,52.4025 C90.2683,52.5025 89.9553,52.5505 89.6523,52.5505" id="Fill-201" fill="#E67E22" mask="url(#mask-4)"></path>
                <path d="M72.2929,51.154 C71.8559,51.154 71.3999,51.045 70.9639,50.823 C70.5949,50.635 70.4469,50.184 70.6349,49.815 C70.8219,49.445 71.2729,49.299 71.6429,49.485 C72.1709,49.754 72.6309,49.664 72.8539,49.456 C73.0039,49.313 73.0299,49.134 72.9329,48.907 C72.5339,47.983 72.3999,47.917 71.5289,47.49 C70.7369,47.101 69.5389,46.514 67.4809,44.976 C65.1509,43.236 63.4249,41.337 62.3469,39.329 C61.2169,37.223 61.1889,35.696 61.2299,35.136 C61.3389,33.617 61.8829,32.408 62.7999,31.64 C63.6459,30.932 64.7799,30.63 66.0809,30.766 C69.2439,31.098 70.5839,32.999 70.6399,33.079 C70.8739,33.421 70.7869,33.887 70.4459,34.122 C70.1059,34.355 69.6429,34.271 69.4059,33.933 C69.3569,33.866 68.3559,32.513 65.9249,32.258 C65.0239,32.164 64.2969,32.343 63.7629,32.791 C63.1639,33.292 62.8059,34.14 62.7259,35.245 C62.6149,36.762 63.6829,40.266 68.3779,43.774 C70.3249,45.229 71.4469,45.779 72.1889,46.143 C73.2319,46.654 73.7179,46.938 74.3109,48.314 C74.6559,49.119 74.4909,49.975 73.8799,50.549 C73.4539,50.949 72.8919,51.154 72.2929,51.154" id="Fill-202" fill="#E67E22" mask="url(#mask-4)"></path>
                <path d="M74.2822,32.7849 C74.3032,33.1739 73.8452,33.5139 73.2602,33.5459 C72.6742,33.5779 72.1812,33.2889 72.1602,32.9009 C72.1382,32.5129 72.5962,32.1719 73.1822,32.1389 C73.7682,32.1079 74.2612,32.3959 74.2822,32.7849" id="Fill-203" fill="#FFFFFF" mask="url(#mask-4)"></path>
                <polygon id="Fill-204" fill="#B3421B" mask="url(#mask-4)" points="87.0947 80.8444 69.7997 79.4524 70.4837 70.9564 87.7797 72.3484"></polygon>
                <path d="M70.6074,78.7653 L86.4074,80.0363 L86.9704,73.0363 L71.1704,71.7643 L70.6074,78.7653 Z M87.0954,81.5943 C87.0754,81.5943 87.0544,81.5943 87.0344,81.5923 L69.7394,80.2003 C69.5414,80.1843 69.3574,80.0893 69.2284,79.9383 C69.0994,79.7863 69.0364,79.5903 69.0514,79.3923 L69.7364,70.8963 C69.7524,70.6983 69.8454,70.5143 69.9984,70.3853 C70.1494,70.2563 70.3444,70.1923 70.5444,70.2083 L87.8384,71.6013 C88.2524,71.6343 88.5594,71.9953 88.5264,72.4093 L87.8424,80.9053 C87.8104,81.2973 87.4824,81.5943 87.0954,81.5943 L87.0954,81.5943 Z" id="Fill-205" fill="#7D2E13" mask="url(#mask-4)"></path>
                <polygon id="Fill-206" fill="#D64F1F" mask="url(#mask-4)" points="88.1728 83.0339 68.3848 81.4409 68.5528 79.3519 88.3418 80.9449"></polygon>
                <path d="M69.1923,80.7536 L87.4863,82.2266 L87.5333,81.6326 L69.2403,80.1596 L69.1923,80.7536 Z M88.1723,83.7836 C88.1533,83.7836 88.1323,83.7836 88.1133,83.7816 L68.3253,82.1886 C67.9123,82.1556 67.6043,81.7936 67.6373,81.3806 L67.8053,79.2916 C67.8213,79.0936 67.9163,78.9096 68.0673,78.7806 C68.2183,78.6516 68.4153,78.5876 68.6133,78.6046 L88.4013,80.1976 C88.8143,80.2316 89.1223,80.5926 89.0883,81.0056 L88.9213,83.0946 C88.9053,83.2926 88.8103,83.4766 88.6593,83.6056 C88.5233,83.7216 88.3503,83.7836 88.1723,83.7836 L88.1723,83.7836 Z" id="Fill-207" fill="#7D2E13" mask="url(#mask-4)"></path>
                <polygon id="Fill-208" fill="#F9B32F" mask="url(#mask-4)" points="84.1171 74.5085 83.8101 78.3195 73.4461 77.4855 73.7531 73.6745"></polygon>
                <path d="M74.2539,76.7976 L83.1229,77.5116 L83.3099,75.1956 L74.4409,74.4826 L74.2539,76.7976 Z M83.8109,79.0686 C83.7899,79.0686 83.7709,79.0686 83.7499,79.0676 L73.3859,78.2326 C72.9729,78.1986 72.6649,77.8376 72.6979,77.4246 L73.0049,73.6136 C73.0379,73.2016 73.3989,72.8916 73.8139,72.9276 L84.1769,73.7616 C84.5899,73.7946 84.8979,74.1556 84.8639,74.5686 L84.5579,78.3796 C84.5419,78.5776 84.4479,78.7616 84.2959,78.8906 C84.1599,79.0066 83.9869,79.0686 83.8109,79.0686 L83.8109,79.0686 Z" id="Fill-209" fill="#7D2E13" mask="url(#mask-4)"></path>
                <path d="M84.8418,57.8874 C85.6648,57.9384 86.3798,57.3054 86.4308,56.4824 L86.4768,55.7414 C86.5278,54.9174 85.8958,54.2024 85.0708,54.1524 L81.4428,53.8454 C80.6188,53.7944 79.9038,54.4264 79.8528,55.2494 L79.8068,55.9914 C79.7558,56.8144 80.3888,57.5304 81.2118,57.5804 L84.8418,57.8874 Z" id="Fill-210" fill="#A5B5B6" mask="url(#mask-4)"></path>
                <path d="M84.8945,57.1384 C85.3055,57.1624 85.6575,56.8464 85.6825,56.4364 L85.7285,55.6954 C85.7405,55.4964 85.6735,55.3044 85.5405,55.1544 C85.4065,55.0024 85.2235,54.9124 85.0255,54.9004 C85.0195,54.9004 85.0145,54.9004 85.0085,54.8994 L81.3885,54.5934 C80.9775,54.5714 80.6265,54.8854 80.6015,55.2964 L80.5555,56.0364 C80.5305,56.4504 80.8455,56.8064 81.2575,56.8314 C81.2635,56.8314 81.2695,56.8324 81.2755,56.8324 L84.8945,57.1384 Z M84.9355,58.6404 C84.8885,58.6404 84.8415,58.6384 84.7945,58.6354 C84.7905,58.6354 84.7845,58.6344 84.7785,58.6344 L81.1565,58.3284 C79.9225,58.2464 78.9825,57.1804 79.0585,55.9454 L79.1045,55.2034 C79.1805,53.9654 80.2485,53.0184 81.4885,53.0964 C81.4945,53.0974 81.4995,53.0974 81.5045,53.0974 L85.1265,53.4044 C85.7215,53.4434 86.2675,53.7114 86.6645,54.1594 C87.0625,54.6114 87.2615,55.1894 87.2255,55.7874 L87.1795,56.5284 C87.1055,57.7194 86.1135,58.6404 84.9355,58.6404 L84.9355,58.6404 Z" id="Fill-211" fill="#354546" mask="url(#mask-4)"></path>
                <path d="M84.4257,62.1325 C85.2487,62.1835 85.9647,61.5515 86.0157,60.7285 L86.0617,59.9865 C86.1127,59.1635 85.4797,58.4475 84.6557,58.3975 L81.0267,58.0905 C80.2027,58.0395 79.4887,58.6725 79.4377,59.4955 L79.3917,60.2365 C79.3407,61.0605 79.9727,61.7755 80.7957,61.8255 L84.4257,62.1325 Z" id="Fill-212" fill="#A5B5B6" mask="url(#mask-4)"></path>
                <path d="M84.4794,61.3845 C84.8884,61.4085 85.2414,61.0915 85.2664,60.6815 L85.3124,59.9415 C85.3374,59.5285 85.0224,59.1715 84.6104,59.1465 C84.6044,59.1455 84.5984,59.1455 84.5924,59.1455 L80.9734,58.8395 C80.7774,58.8275 80.5874,58.8955 80.4384,59.0275 C80.2884,59.1605 80.1984,59.3435 80.1854,59.5415 L80.1404,60.2825 C80.1274,60.4815 80.1944,60.6735 80.3284,60.8235 C80.4614,60.9755 80.6444,61.0655 80.8424,61.0775 C80.8484,61.0775 80.8534,61.0775 80.8594,61.0785 L84.4794,61.3845 Z M84.5194,62.8855 C84.4734,62.8855 84.4264,62.8845 84.3794,62.8815 C84.3744,62.8805 84.3684,62.8805 84.3634,62.8805 L80.7414,62.5735 C80.1464,62.5345 79.6004,62.2665 79.2044,61.8185 C78.8054,61.3665 78.6064,60.7885 78.6424,60.1905 L78.6884,59.4495 C78.7254,58.8515 78.9944,58.3025 79.4454,57.9045 C79.8964,57.5045 80.4734,57.3045 81.0734,57.3425 C81.0784,57.3425 81.0834,57.3435 81.0894,57.3435 L84.7114,57.6495 C85.9454,57.7315 86.8854,58.7975 86.8094,60.0325 L86.7634,60.7745 C86.6904,61.9655 85.6974,62.8855 84.5194,62.8855 L84.5194,62.8855 Z" id="Fill-213" fill="#354546" mask="url(#mask-4)"></path>
                <path d="M84.2031,65.988 C85.0261,66.039 85.7421,65.406 85.7931,64.583 L85.8381,63.842 C85.8891,63.018 85.2571,62.303 84.4331,62.253 L80.8041,61.946 C79.9801,61.895 79.2651,62.527 79.2141,63.351 L79.1691,64.092 C79.1181,64.915 79.7501,65.631 80.5731,65.681 L84.2031,65.988 Z" id="Fill-214" fill="#A5B5B6" mask="url(#mask-4)"></path>
                <path d="M84.2558,65.24 C84.6668,65.263 85.0188,64.947 85.0438,64.537 L85.0898,63.796 C85.1148,63.384 84.7998,63.027 84.3868,63.002 C84.3818,63.001 84.3758,63.001 84.3698,63 L80.7498,62.694 C80.5548,62.684 80.3648,62.751 80.2158,62.883 C80.0658,63.016 79.9748,63.199 79.9628,63.397 L79.9168,64.137 C79.9048,64.336 79.9718,64.528 80.1058,64.679 C80.2378,64.831 80.4208,64.921 80.6188,64.932 C80.6248,64.933 80.6308,64.933 80.6368,64.934 L84.2558,65.24 Z M84.2968,66.741 C84.2498,66.741 84.2038,66.739 84.1568,66.736 C84.1518,66.736 84.1458,66.736 84.1398,66.735 L80.5178,66.429 C79.9238,66.39 79.3778,66.122 78.9818,65.673 C78.5818,65.221 78.3828,64.644 78.4198,64.046 L78.4658,63.304 C78.5028,62.707 78.7718,62.158 79.2228,61.759 C79.6738,61.36 80.2508,61.159 80.8498,61.198 C80.8558,61.198 80.8608,61.198 80.8668,61.199 L84.4878,61.505 C85.7228,61.586 86.6628,62.653 86.5868,63.888 L86.5408,64.629 C86.4678,65.82 85.4748,66.741 84.2968,66.741 L84.2968,66.741 Z" id="Fill-215" fill="#354546" mask="url(#mask-4)"></path>
                <path d="M78.9521,54.1814 C78.5531,53.5324 77.6431,53.3404 76.9311,53.7544 L76.2921,54.1274 C75.5801,54.5424 75.3251,55.4124 75.7241,56.0624 L79.3791,61.9944 C79.7791,62.6444 80.6881,62.8354 81.3991,62.4214 L82.0401,62.0484 C82.7521,61.6334 83.0071,60.7634 82.6061,60.1144 L78.9521,54.1814 Z" id="Fill-216" fill="#A5B5B6" mask="url(#mask-4)"></path>
                <path d="M77.7402,54.2858 C77.5952,54.2858 77.4452,54.3238 77.3092,54.4028 L76.6692,54.7758 C76.4842,54.8838 76.3512,55.0538 76.3042,55.2428 C76.2772,55.3488 76.2652,55.5108 76.3632,55.6688 L80.0172,61.6008 C80.2032,61.9028 80.6642,61.9818 81.0222,61.7728 L81.6622,61.3998 C81.8462,61.2928 81.9792,61.1228 82.0272,60.9328 C82.0532,60.8268 82.0652,60.6658 81.9682,60.5078 L78.3132,54.5748 C78.1982,54.3878 77.9772,54.2858 77.7402,54.2858 M80.5952,63.3898 C79.8522,63.3898 79.1382,63.0338 78.7402,62.3888 L75.0862,56.4548 C74.7962,55.9848 74.7122,55.4248 74.8492,54.8778 C74.9942,54.2988 75.3832,53.7898 75.9142,53.4798 L76.5542,53.1068 C77.6162,52.4878 78.9782,52.7938 79.5912,53.7878 L83.2452,59.7218 C83.5352,60.1908 83.6192,60.7518 83.4822,61.2978 C83.3372,61.8768 82.9492,62.3868 82.4182,62.6958 L81.7772,63.0688 C81.4052,63.2858 80.9962,63.3898 80.5952,63.3898" id="Fill-217" fill="#354546" mask="url(#mask-4)"></path>
                <path d="M76.957,53.4118 L75.194,53.3558 C73.546,53.3038 72.153,54.6098 72.102,56.2598 L72.046,58.0218 C71.993,59.6708 73.3,61.0628 74.949,61.1148 L76.712,61.1708 C78.36,61.2238 79.753,59.9168 79.805,58.2668 L79.86,56.5058 C79.913,54.8558 78.606,53.4638 76.957,53.4118" id="Fill-218" fill="#A5B5B6" mask="url(#mask-4)"></path>
                <path d="M72.1015,56.2595 L72.1025,56.2595 L72.1015,56.2595 Z M75.0995,54.1045 C74.5285,54.1045 73.9845,54.3205 73.5625,54.7165 C73.1225,55.1295 72.8705,55.6865 72.8505,56.2825 L72.7945,58.0455 C72.7765,58.6435 72.9935,59.2145 73.4065,59.6545 C73.8195,60.0945 74.3755,60.3465 74.9725,60.3655 L76.7355,60.4215 C77.3345,60.4405 77.9045,60.2235 78.3435,59.8105 C78.7835,59.3975 79.0365,58.8415 79.0555,58.2435 L79.1115,56.4815 C79.1295,55.8845 78.9135,55.3125 78.4995,54.8725 C78.0865,54.4335 77.5305,54.1805 76.9335,54.1605 L75.1705,54.1055 C75.1475,54.1055 75.1225,54.1045 75.0995,54.1045 L75.0995,54.1045 Z M76.8085,61.9225 C76.7685,61.9225 76.7285,61.9215 76.6875,61.9205 L74.9255,61.8645 C73.9275,61.8335 72.9995,61.4125 72.3125,60.6805 C71.6255,59.9485 71.2645,58.9955 71.2955,57.9975 L71.3515,56.2365 C71.3835,55.2385 71.8035,54.3105 72.5365,53.6225 C73.2675,52.9355 74.2185,52.5725 75.2185,52.6065 L76.9805,52.6615 C77.9785,52.6945 78.9065,53.1135 79.5935,53.8465 C80.2805,54.5785 80.6415,55.5305 80.6105,56.5295 L80.5545,58.2905 C80.5235,59.2885 80.1025,60.2165 79.3705,60.9045 C78.6675,61.5635 77.7615,61.9225 76.8085,61.9225 L76.8085,61.9225 Z" id="Fill-219" fill="#354546" mask="url(#mask-4)"></path>
            </g>
        </g>
    </g>
</svg>