<?xml version="1.0" encoding="UTF-8"?>
<svg width="115px" height="122px" viewBox="0 0 115 122" version="1.1" xmlns="http://www.w3.org/2000/svg" xmlns:xlink="http://www.w3.org/1999/xlink">
    <!-- Generator: Sketch 42 (36781) - http://www.bohemiancoding.com/sketch -->
    <title>9</title>
    <desc>Created with Sketch.</desc>
    <defs>
        <polygon id="path-1" points="63.4605 8 0.1935 8 0.1935 0.3772 63.4605 0.3772 63.4605 8"></polygon>
        <polygon id="path-3" points="0 122.041 114.459 122.041 114.459 0 0 0"></polygon>
    </defs>
    <g id="Page-1" stroke="none" stroke-width="1" fill="none" fill-rule="evenodd">
        <g id="1024" transform="translate(-305.000000, -246.000000)">
            <g id="9" transform="translate(305.000000, 246.000000)">
                <g id="Group-3" transform="translate(25.000000, 114.041000)">
                    <mask id="mask-2" fill="white">
                        <use xlink:href="#path-1"></use>
                    </mask>
                    <g id="Clip-2"></g>
                    <path d="M63.4605,4.1892 C63.4605,6.2932 49.2975,8.0002 31.8275,8.0002 C14.3565,8.0002 0.1935,6.2932 0.1935,4.1892 C0.1935,2.0842 14.3565,0.3772 31.8275,0.3772 C49.2975,0.3772 63.4605,2.0842 63.4605,4.1892" id="Fill-1" fill="#CCCCCC" mask="url(#mask-2)"></path>
                </g>
                <mask id="mask-4" fill="white">
                    <use xlink:href="#path-3"></use>
                </mask>
                <g id="Clip-5"></g>
                <polygon id="Fill-4" fill="#758586" mask="url(#mask-4)" points="48.445 87.554 64.564 87.554 64.564 72.01 48.445 72.01"></polygon>
                <path d="M49.194,86.804 L63.813,86.804 L63.813,72.76 L49.194,72.76 L49.194,86.804 Z M64.564,88.304 L48.444,88.304 C48.03,88.304 47.694,87.968 47.694,87.554 L47.694,72.01 C47.694,71.596 48.03,71.26 48.444,71.26 L64.564,71.26 C64.978,71.26 65.314,71.596 65.314,72.01 L65.314,87.554 C65.314,87.968 64.978,88.304 64.564,88.304 L64.564,88.304 Z" id="Fill-6" fill="#354546" mask="url(#mask-4)"></path>
                <polygon id="Fill-7" fill="#758586" mask="url(#mask-4)" points="52.105 61.398 61.447 61.398 61.447 52.895 52.105 52.895"></polygon>
                <path d="M52.855,60.648 L60.697,60.648 L60.697,53.645 L52.855,53.645 L52.855,60.648 Z M61.447,62.148 L52.105,62.148 C51.69,62.148 51.355,61.812 51.355,61.398 L51.355,52.895 C51.355,52.481 51.69,52.145 52.105,52.145 L61.447,52.145 C61.861,52.145 62.197,52.481 62.197,52.895 L62.197,61.398 C62.197,61.812 61.861,62.148 61.447,62.148 L61.447,62.148 Z" id="Fill-8" fill="#354546" mask="url(#mask-4)"></path>
                <path d="M61.4478,58.3982 C61.4338,58.3982 61.4208,58.3982 61.4068,58.3972 L52.0648,57.8952 C51.6508,57.8732 51.3338,57.5202 51.3558,57.1062 C51.3778,56.6922 51.7328,56.3762 52.1448,56.3972 L61.4878,56.8992 C61.9008,56.9212 62.2188,57.2752 62.1968,57.6882 C62.1748,58.0882 61.8438,58.3982 61.4478,58.3982" id="Fill-9" fill="#354546" mask="url(#mask-4)"></path>
                <path d="M17.9288,69.1726 C17.6428,68.3686 17.3808,67.5586 17.1458,66.7386 C17.0268,66.3296 16.9168,65.9176 16.8098,65.5016 C16.7578,65.2936 16.7068,65.0836 16.6578,64.8716 L16.5838,64.5496 L16.5098,64.1966 L21.1428,63.3006 L21.1928,63.5376 L21.2538,63.8036 L21.3848,64.3446 C21.4778,64.7076 21.5748,65.0706 21.6798,65.4336 C21.8878,66.1586 22.1208,66.8786 22.3738,67.5886 L17.9288,69.1726 Z" id="Fill-10" fill="#F9BF3B" mask="url(#mask-4)"></path>
                <path d="M21.6671,67.8406 C21.4011,67.0916 21.1631,66.3516 20.9591,65.6406 C20.8631,65.3096 20.7641,64.9446 20.6581,64.5296 L20.4091,63.4556 L21.8761,63.1456 L21.9851,63.6376 L22.1141,64.1676 C22.2131,64.5586 22.3081,64.9066 22.4001,65.2246 C22.5961,65.9086 22.8241,66.6186 23.0801,67.3376 L21.6671,67.8406 Z" id="Fill-11" fill="#F1892D" mask="url(#mask-4)"></path>
                <path d="M17.2222,69.4245 C16.9232,68.5825 16.6552,67.7485 16.4242,66.9455 C16.3142,66.5675 16.2022,66.1535 16.0832,65.6865 C16.0292,65.4725 15.9772,65.2585 15.9272,65.0415 L15.7762,64.3515 L17.2442,64.0425 L17.3892,64.7055 C17.4362,64.9085 17.4862,65.1135 17.5372,65.3175 C17.6522,65.7675 17.7602,66.1645 17.8662,66.5295 C18.0882,67.3065 18.3472,68.1105 18.6362,68.9215 L17.2222,69.4245 Z" id="Fill-12" fill="#F1892D" mask="url(#mask-4)"></path>
                <polygon id="Fill-13" fill="#F1892D" mask="url(#mask-4)" points="17.3531 67.4597 16.9381 66.0187 21.4721 64.7127 21.8881 66.1537"></polygon>
                <path d="M20.003,73.907 C19.176,72.365 18.504,70.78 17.929,69.173 L22.374,67.589 C22.881,69.007 23.469,70.389 24.163,71.679 L20.003,73.907 Z" id="Fill-14" fill="#F9BF3B" mask="url(#mask-4)"></path>
                <path d="M23.502,72.0349 C22.839,70.8009 22.222,69.3889 21.668,67.8419 L23.08,67.3359 C23.609,68.8139 24.195,70.1559 24.823,71.3249 L23.502,72.0349 Z" id="Fill-15" fill="#F1892D" mask="url(#mask-4)"></path>
                <path d="M19.3423,74.2615 C18.5583,72.8015 17.8653,71.2195 17.2223,69.4255 L18.6343,68.9195 C19.2523,70.6425 19.9153,72.1575 20.6643,73.5525 L19.3423,74.2615 Z" id="Fill-16" fill="#F1892D" mask="url(#mask-4)"></path>
                <polygon id="Fill-17" fill="#F1892D" mask="url(#mask-4)" points="19.1714 72.2527 18.5724 70.8767 22.8994 68.9937 23.4984 70.3697"></polygon>
                <path d="M23.0328,78.3347 C22.4158,77.6457 21.8658,76.9217 21.3678,76.1797 C20.8678,75.4377 20.4168,74.6777 20.0028,73.9067 L24.1628,71.6797 C24.5098,72.3247 24.8808,72.9477 25.2788,73.5387 C25.6758,74.1317 26.1018,74.6897 26.5578,75.1967 L23.0328,78.3347 Z" id="Fill-18" fill="#F9BF3B" mask="url(#mask-4)"></path>
                <path d="M25.9996,75.699 C25.5386,75.185 25.0856,74.599 24.6556,73.957 C24.2566,73.365 23.8686,72.718 23.5016,72.035 L24.8236,71.325 C25.1666,71.964 25.5296,72.568 25.9006,73.121 C26.2926,73.705 26.7016,74.235 27.1156,74.696 L25.9996,75.699 Z" id="Fill-19" fill="#F1892D" mask="url(#mask-4)"></path>
                <path d="M22.4742,78.8357 C21.8652,78.1547 21.2992,77.4227 20.7452,76.5977 C20.2572,75.8727 19.7852,75.0867 19.3422,74.2627 L20.6632,73.5527 C21.0832,74.3337 21.5292,75.0757 21.9902,75.7607 C22.5052,76.5277 23.0292,77.2067 23.5922,77.8347 L22.4742,78.8357 Z" id="Fill-20" fill="#F1892D" mask="url(#mask-4)"></path>
                <polygon id="Fill-21" fill="#F1892D" mask="url(#mask-4)" points="21.7877 76.8005 20.9487 75.5575 24.8587 72.9175 25.6987 74.1605"></polygon>
                <path d="M27.2447,81.8318 C26.4577,81.3348 25.7417,80.8098 25.0677,80.2678 L24.9387,80.1658 L24.8037,80.0528 L24.5317,79.8198 C24.3467,79.6668 24.1757,79.5048 24.0057,79.3418 L23.7497,79.0978 C23.6667,79.0148 23.5877,78.9298 23.5067,78.8458 C23.3477,78.6768 23.1807,78.5108 23.0327,78.3348 L26.5577,75.1968 C26.6677,75.3308 26.7877,75.4458 26.9037,75.5698 C26.9617,75.6308 27.0187,75.6938 27.0777,75.7528 L27.2597,75.9238 C27.3787,76.0388 27.4987,76.1538 27.6247,76.2568 L27.8097,76.4158 C27.8427,76.4418 27.8697,76.4688 27.9057,76.4958 L28.0137,76.5818 C28.5907,77.0478 29.1757,77.4698 29.7477,77.8318 L27.2447,81.8318 Z" id="Fill-22" fill="#F9BF3B" mask="url(#mask-4)"></path>
                <path d="M29.3463,78.4656 C28.7533,78.0896 28.1473,77.6536 27.5423,77.1646 L27.4423,77.0866 C27.4073,77.0586 27.3783,77.0336 27.3503,77.0096 L27.1433,76.8316 C26.9923,76.7086 26.8573,76.5786 26.7383,76.4626 L26.5623,76.2966 C26.5093,76.2446 26.4653,76.1976 26.4223,76.1526 L26.3643,76.0916 C26.3203,76.0446 26.2853,76.0086 26.2503,75.9726 C26.1673,75.8856 26.0723,75.7876 25.9793,75.6756 L27.1353,74.7196 C27.1913,74.7866 27.2583,74.8566 27.3293,74.9306 C27.3703,74.9726 27.4113,75.0156 27.4523,75.0586 C27.4663,75.0726 27.4903,75.0986 27.5143,75.1236 C27.5433,75.1546 27.5733,75.1866 27.6023,75.2156 L27.7753,75.3786 C27.8853,75.4856 27.9933,75.5896 28.0963,75.6736 L28.1133,75.6876 L28.3373,75.8796 C28.3473,75.8896 28.3583,75.8986 28.3703,75.9076 L28.4763,75.9906 C29.0443,76.4496 29.6043,76.8536 30.1483,77.1976 L29.3463,78.4656 Z" id="Fill-23" fill="#F1892D" mask="url(#mask-4)"></path>
                <path d="M26.8438,82.4656 C26.0888,81.9876 25.3538,81.4606 24.5968,80.8516 L24.3208,80.6256 L24.0448,80.3906 C23.8448,80.2246 23.6588,80.0476 23.4858,79.8816 L23.2328,79.6396 C23.1628,79.5716 23.1048,79.5106 23.0458,79.4486 L22.9688,79.3666 C22.9168,79.3136 22.8728,79.2676 22.8288,79.2216 C22.7068,79.0946 22.5808,78.9626 22.4588,78.8186 L23.6068,77.8526 C23.6978,77.9586 23.8018,78.0686 23.9118,78.1836 C23.9598,78.2336 24.0068,78.2816 24.0528,78.3316 L24.1328,78.4146 C24.1798,78.4646 24.2268,78.5146 24.2758,78.5626 L24.5238,78.7986 C24.6788,78.9476 24.8418,79.1026 25.0108,79.2426 L25.5318,79.6776 C26.2488,80.2556 26.9388,80.7506 27.6458,81.1976 L26.8438,82.4656 Z" id="Fill-24" fill="#F1892D" mask="url(#mask-4)"></path>
                <polygon id="Fill-25" fill="#F1892D" mask="url(#mask-4)" points="25.6534 80.7351 24.4814 79.7981 27.4274 76.1131 28.5994 77.0491"></polygon>
                <path d="M34.2022,82.614 C33.6302,82.999 32.9662,83.241 32.2812,83.324 C31.5962,83.411 30.8932,83.343 30.2112,83.178 C29.8752,83.09 29.5102,82.978 29.2632,82.873 C29.1272,82.819 28.9862,82.763 28.8562,82.708 L28.5122,82.542 C28.2762,82.433 28.0682,82.314 27.8552,82.196 C27.6382,82.08 27.4442,81.955 27.2442,81.832 L29.7472,77.832 C29.8902,77.92 30.0332,78.013 30.1712,78.085 C30.3102,78.162 30.4502,78.244 30.5802,78.301 L30.7782,78.398 L30.9312,78.458 C31.0532,78.511 31.0732,78.513 31.1242,78.53 C31.2172,78.554 31.3142,78.571 31.4112,78.564 C31.5082,78.558 31.6022,78.522 31.6812,78.467 L34.2022,82.614 Z" id="Fill-26" fill="#F9BF3B" mask="url(#mask-4)"></path>
                <path d="M31.3096,77.8249 C31.2896,77.8309 31.2696,77.8399 31.2506,77.8519 L31.2886,77.9059 L31.3096,77.8249 Z M31.3636,79.3159 C31.2296,79.3159 31.0866,79.2959 30.9336,79.2559 L30.8766,79.2389 C30.8186,79.2209 30.7606,79.2019 30.6426,79.1499 L30.4486,79.0719 L30.2636,78.9809 C30.1306,78.9219 30.0056,78.8509 29.8836,78.7829 L29.8146,78.7449 C29.6846,78.6769 29.5626,78.5999 29.4446,78.5259 L29.3536,78.4699 L30.1416,77.1929 L30.2396,77.2549 C30.3406,77.3169 30.4356,77.3779 30.5156,77.4189 L30.6166,77.4739 C30.7156,77.5299 30.8096,77.5829 30.8816,77.6139 L31.2356,77.7719 C31.2926,77.7979 31.3026,77.8009 31.3166,77.8039 L31.3286,77.8079 C31.3556,77.8149 31.3666,77.8149 31.3676,77.8159 L31.3546,77.8159 L31.3566,77.8169 L31.3146,77.9439 L32.1116,79.0809 C31.9156,79.2179 31.6896,79.2989 31.4576,79.3119 C31.4266,79.3149 31.3956,79.3159 31.3636,79.3159 L31.3636,79.3159 Z" id="Fill-27" fill="#F1892D" mask="url(#mask-4)"></path>
                <path d="M31.6705,84.112 C31.1485,84.112 30.6015,84.044 30.0365,83.908 L30.0185,83.904 C29.7155,83.823 29.2925,83.7 28.9775,83.566 L28.9675,83.562 C28.8315,83.508 28.6895,83.452 28.5595,83.396 L28.5325,83.383 L28.1885,83.218 C27.9625,83.114 27.7585,83.001 27.5615,82.89 L27.4915,82.851 C27.2975,82.749 27.1195,82.636 26.9455,82.529 L26.8505,82.469 L27.6395,81.194 L27.7385,81.256 C27.8985,81.355 28.0495,81.449 28.2105,81.535 L28.2915,81.581 C28.4725,81.681 28.6425,81.776 28.8265,81.861 L29.1675,82.024 C29.2805,82.073 29.4025,82.121 29.5205,82.168 L29.5585,82.183 C29.7355,82.259 30.0405,82.357 30.3955,82.452 C31.0395,82.605 31.6425,82.648 32.1885,82.58 C32.7645,82.509 33.3155,82.306 33.7845,81.992 L34.6205,83.237 C33.9565,83.682 33.1795,83.97 32.3725,84.069 C32.1445,84.097 31.9105,84.112 31.6705,84.112" id="Fill-28" fill="#F1892D" mask="url(#mask-4)"></path>
                <polygon id="Fill-29" fill="#F1892D" mask="url(#mask-4)" points="30.9468 83.324 29.4748 83.034 30.3878 78.386 31.8598 78.675"></polygon>
                <path d="M37.211,76.7419 C37.127,77.1679 37.035,77.5979 36.92,78.0449 C36.812,78.4869 36.67,78.9509 36.5,79.4279 L36.36,79.7909 L36.342,79.8369 L36.317,79.8929 L36.267,80.0069 L36.163,80.2329 C36.096,80.3809 36.011,80.5369 35.925,80.6909 C35.839,80.8459 35.751,80.9969 35.65,81.1399 C35.262,81.7229 34.777,82.2339 34.202,82.6139 L31.681,78.4669 C31.76,78.4099 31.823,78.3339 31.873,78.2509 C31.887,78.2309 31.898,78.2089 31.909,78.1869 C31.92,78.1669 31.931,78.1469 31.946,78.1109 L31.968,78.0629 L31.979,78.0399 L31.984,78.0269 L31.993,78.0039 L32.069,77.8039 C32.271,77.2469 32.44,76.5559 32.582,75.8299 L37.211,76.7419 Z" id="Fill-30" fill="#F9BF3B" mask="url(#mask-4)"></path>
                <path d="M32.1177,79.0769 L31.2447,77.8559 C31.2297,77.8679 31.2217,77.8759 31.2217,77.8759 C31.2257,77.8719 31.2297,77.8659 31.2327,77.8599 L31.2907,77.7389 L31.3687,77.5359 C31.5337,77.0819 31.6947,76.4559 31.8457,75.6859 L33.3177,75.9739 C33.1497,76.8309 32.9727,77.5129 32.7747,78.0589 L32.6307,78.4179 C32.6107,78.4659 32.5927,78.5009 32.5747,78.5339 C32.5537,78.5739 32.5317,78.6139 32.5067,78.6529 C32.3987,78.8269 32.2677,78.9699 32.1177,79.0769" id="Fill-31" fill="#F1892D" mask="url(#mask-4)"></path>
                <path d="M34.6158,83.24 L33.7888,81.988 C34.2578,81.678 34.6738,81.254 35.0248,80.724 L35.0368,80.708 C35.1208,80.588 35.1988,80.454 35.2698,80.326 C35.3368,80.207 35.4198,80.056 35.4788,79.925 L35.6628,79.514 L35.7968,79.166 C35.9578,78.717 36.0908,78.279 36.1918,77.866 C36.3128,77.395 36.4028,76.961 36.4758,76.596 L37.9468,76.888 C37.8748,77.251 37.7758,77.731 37.6468,78.232 C37.5338,78.689 37.3858,79.179 37.2058,79.679 L37.1998,79.697 L36.9518,80.312 L36.8438,80.547 C36.7628,80.726 36.6588,80.915 36.5778,81.059 C36.4948,81.209 36.3908,81.389 36.2688,81.563 C35.8068,82.257 35.2508,82.82 34.6158,83.24" id="Fill-32" fill="#F1892D" mask="url(#mask-4)"></path>
                <polygon id="Fill-33" fill="#F1892D" mask="url(#mask-4)" points="36.2422 80.1316 31.8112 78.5086 32.3272 77.0996 36.7582 78.7226"></polygon>
                <path d="M38.0157,71.947 C37.7427,73.461 37.5387,75.051 37.2107,76.742 L32.5817,75.83 C32.8677,74.366 33.0757,72.765 33.3707,71.116 L38.0157,71.947 Z" id="Fill-34" fill="#F9BF3B" mask="url(#mask-4)"></path>
                <path d="M33.3174,75.9743 L31.8454,75.6863 C32.0014,74.8893 32.1324,74.0543 32.2724,73.1703 C32.3834,72.4613 32.4994,71.7273 32.6324,70.9833 L34.1094,71.2483 C33.9784,71.9763 33.8644,72.7033 33.7534,73.4043 C33.6124,74.3023 33.4784,75.1503 33.3174,75.9743" id="Fill-35" fill="#F1892D" mask="url(#mask-4)"></path>
                <path d="M37.9473,76.8855 L36.4753,76.5995 C36.6583,75.6515 36.8033,74.7285 36.9443,73.8345 C37.0543,73.1355 37.1583,72.4755 37.2783,71.8135 L38.7543,72.0795 C38.6373,72.7255 38.5343,73.3775 38.4263,74.0685 C38.2833,74.9735 38.1363,75.9105 37.9473,76.8855" id="Fill-36" fill="#F1892D" mask="url(#mask-4)"></path>
                <polygon id="Fill-37" fill="#F1892D" mask="url(#mask-4)" points="37.5167 75.0193 32.8557 74.2833 33.0897 72.8013 37.7507 73.5383"></polygon>
                <path d="M39.1187,67.8161 C38.8657,68.4001 38.6577,69.0641 38.4787,69.7601 C38.3007,70.4581 38.1517,71.1921 38.0157,71.9471 L33.3707,71.1161 C33.5197,70.2901 33.6887,69.4461 33.9097,68.5871 C34.1307,67.7271 34.3977,66.8501 34.7817,65.9581 L39.1187,67.8161 Z" id="Fill-38" fill="#F9BF3B" mask="url(#mask-4)"></path>
                <path d="M34.1094,71.2488 L32.6324,70.9828 C32.8114,69.9878 32.9854,69.1678 33.1824,68.4008 C33.4564,67.3368 33.7454,66.4668 34.0924,65.6618 L35.4704,66.2548 C35.1544,66.9878 34.8894,67.7878 34.6354,68.7738 C34.4484,69.5038 34.2814,70.2898 34.1094,71.2488" id="Fill-39" fill="#F1892D" mask="url(#mask-4)"></path>
                <path d="M38.754,72.0788 L37.278,71.8138 C37.435,70.9368 37.586,70.2248 37.753,69.5748 C37.962,68.7608 38.183,68.0878 38.431,67.5168 L39.807,68.1148 C39.591,68.6118 39.395,69.2108 39.206,69.9468 C39.048,70.5608 38.905,71.2388 38.754,72.0788" id="Fill-40" fill="#F1892D" mask="url(#mask-4)"></path>
                <polygon id="Fill-41" fill="#F1892D" mask="url(#mask-4)" points="38.2925 70.487 33.7225 69.313 34.0955 67.86 38.6655 69.034"></polygon>
                <path d="M41.0338,65.5271 L40.8868,65.5921 C40.8418,65.6211 40.7968,65.6481 40.7498,65.6731 C40.7268,65.6861 40.7028,65.6981 40.6798,65.7121 L40.6158,65.7591 L40.4828,65.8511 C40.4408,65.8881 40.3988,65.9241 40.3558,65.9601 L40.2908,66.0121 L40.2298,66.0761 L40.1048,66.1991 L39.9848,66.3391 C39.6598,66.7141 39.3718,67.2341 39.1188,67.8161 L34.7818,65.9581 C34.8778,65.7351 34.9758,65.5121 35.0918,65.2891 C35.1978,65.0651 35.3238,64.8411 35.4518,64.6191 C35.5758,64.3961 35.7298,64.1741 35.8718,63.9551 L36.1138,63.6281 L36.2358,63.4651 L36.3708,63.3061 L36.6438,62.9911 L36.9448,62.6881 L37.0978,62.5391 L37.2628,62.3961 L37.5968,62.1171 C37.7158,62.0301 37.8358,61.9461 37.9568,61.8611 L38.1388,61.7361 C38.2008,61.6971 38.2658,61.6611 38.3288,61.6231 L38.7148,61.4041 C38.8468,61.3381 38.9808,61.2781 39.1148,61.2161 L41.0338,65.5271 Z" id="Fill-42" fill="#F9BF3B" mask="url(#mask-4)"></path>
                <path d="M35.4693,66.2566 L34.0933,65.6596 C34.2003,65.4136 34.2983,65.1906 34.4193,64.9556 C34.5373,64.7086 34.6723,64.4696 34.8013,64.2456 C34.9043,64.0616 35.0243,63.8786 35.1393,63.7026 L35.2683,63.5086 L35.6633,62.9806 L36.1123,62.4616 L36.6083,61.9716 L37.1513,61.5146 C37.2753,61.4226 37.4013,61.3346 37.5273,61.2466 L37.7393,61.1016 C37.7913,61.0696 37.8443,61.0366 37.8983,61.0066 L38.3773,60.7346 C38.4903,60.6776 38.6053,60.6246 38.7203,60.5716 L38.8023,60.5346 L39.4283,61.8986 L39.3433,61.9366 C39.2513,61.9786 39.1593,62.0206 39.0683,62.0656 L38.6533,62.3026 C38.6183,62.3226 38.5843,62.3426 38.5503,62.3626 L38.3823,62.4796 C38.2773,62.5526 38.1673,62.6286 38.0603,62.7076 L37.6053,63.0906 L37.1943,63.5016 L36.8223,63.9346 L36.4873,64.3836 L36.3923,64.5286 C36.2863,64.6896 36.1873,64.8406 36.1063,64.9846 C35.9863,65.1946 35.8653,65.4076 35.7683,65.6106 L35.7583,65.6326 C35.6563,65.8296 35.5673,66.0316 35.4693,66.2566" id="Fill-43" fill="#F1892D" mask="url(#mask-4)"></path>
                <path d="M39.8067,68.116 L38.4317,67.517 C38.7437,66.799 39.0667,66.253 39.4187,65.847 L39.5797,65.663 L39.8167,65.431 L39.8817,65.379 C39.9137,65.352 39.9477,65.323 39.9807,65.294 L40.0567,65.233 L40.2877,65.073 C40.3147,65.056 40.3427,65.041 40.3697,65.026 L40.3867,65.017 C40.4217,64.998 40.4547,64.978 40.4887,64.958 L40.5807,64.908 L40.7267,64.843 L41.3397,66.212 L41.2387,66.258 C41.1967,66.282 41.1557,66.306 41.1127,66.33 C41.1077,66.333 41.0977,66.339 41.0857,66.345 L40.9457,66.443 C40.9077,66.475 40.8697,66.508 40.8317,66.54 L40.7547,66.611 L40.6547,66.71 L40.5567,66.825 C40.3037,67.116 40.0537,67.548 39.8067,68.116" id="Fill-44" fill="#F1892D" mask="url(#mask-4)"></path>
                <polygon id="Fill-45" fill="#F1892D" mask="url(#mask-4)" points="39.5025 66.9148 35.8885 63.8808 36.8525 62.7318 40.4665 65.7658"></polygon>
                <path d="M44.2794,65.4656 C43.6344,65.3216 43.0104,65.2406 42.4544,65.2486 L42.3494,65.2476 C42.3154,65.2486 42.2824,65.2536 42.2494,65.2556 L42.0514,65.2706 C41.9844,65.2716 41.9244,65.2846 41.8624,65.2946 L41.6784,65.3226 C41.6184,65.3336 41.5654,65.3526 41.5084,65.3646 C41.4524,65.3816 41.3904,65.3876 41.3404,65.4086 C41.2384,65.4506 41.1264,65.4746 41.0334,65.5276 L39.1144,61.2166 C39.3824,61.0866 39.6584,61.0016 39.9334,60.9046 C40.0714,60.8566 40.2094,60.8286 40.3474,60.7916 C40.4854,60.7586 40.6254,60.7196 40.7624,60.6946 L41.1734,60.6266 C41.3104,60.6056 41.4484,60.5826 41.5814,60.5746 L41.9854,60.5446 C42.0514,60.5406 42.1194,60.5336 42.1864,60.5316 L42.3824,60.5306 C43.4344,60.5176 44.4124,60.6606 45.3354,60.8666 L44.2794,65.4656 Z" id="Fill-46" fill="#F9BF3B" mask="url(#mask-4)"></path>
                <path d="M39.4439,61.8904 L38.7859,60.5414 C39.0419,60.4174 39.2869,60.3334 39.5249,60.2524 L39.6859,60.1984 C39.8109,60.1534 39.9299,60.1224 40.0359,60.0974 C40.0739,60.0874 40.1129,60.0784 40.1519,60.0684 L40.2849,60.0354 C40.3919,60.0074 40.5039,59.9794 40.6229,59.9564 L40.6419,59.9534 L41.0879,59.8814 C41.2219,59.8604 41.3739,59.8354 41.5319,59.8274 L41.9959,59.7914 C42.0509,59.7874 42.1069,59.7844 42.1609,59.7824 L42.3789,59.7814 C43.3659,59.7704 44.3599,59.8804 45.4989,60.1354 L45.1719,61.5994 C44.1489,61.3704 43.2649,61.2694 42.3919,61.2814 L42.2009,61.2824 C42.1699,61.2834 42.1369,61.2864 42.1039,61.2874 L41.6229,61.3244 C41.5379,61.3284 41.4319,61.3454 41.3209,61.3634 L40.8929,61.4324 C40.8129,61.4484 40.7309,61.4694 40.6499,61.4894 L40.5359,61.5174 C40.4889,61.5304 40.4419,61.5414 40.3949,61.5534 C40.3139,61.5734 40.2439,61.5904 40.1869,61.6114 L40.0089,61.6724 C39.8059,61.7424 39.6139,61.8074 39.4439,61.8904" id="Fill-47" fill="#F1892D" mask="url(#mask-4)"></path>
                <path d="M44.1158,66.198 C43.4938,66.059 42.9388,65.99 42.4658,65.999 L42.4458,65.999 L42.3668,65.998 L42.3598,65.999 C42.3408,66.001 42.3218,66.003 42.3028,66.004 L42.0628,66.02 C42.0578,66.021 42.0438,66.024 42.0288,66.027 L41.8078,66.061 C41.7998,66.063 41.7898,66.067 41.7798,66.07 C41.7508,66.078 41.7218,66.086 41.6928,66.093 C41.6608,66.101 41.6278,66.108 41.5948,66.115 C41.5488,66.133 41.5018,66.149 41.4548,66.165 C41.4318,66.172 41.4088,66.178 41.3878,66.187 C41.3938,66.185 41.3998,66.182 41.4048,66.178 L40.6618,64.876 C40.7848,64.805 40.9008,64.767 40.9858,64.74 C41.0078,64.732 41.0298,64.725 41.0508,64.718 C41.1478,64.677 41.2348,64.658 41.2878,64.647 L41.3448,64.633 C41.3568,64.631 41.3678,64.628 41.3788,64.624 C41.4338,64.609 41.4888,64.594 41.5478,64.584 L41.7658,64.551 C41.8238,64.54 41.9098,64.525 42.0138,64.521 L42.2148,64.506 C42.2518,64.503 42.2888,64.499 42.3268,64.498 L42.3428,64.498 L42.4538,64.499 C43.0418,64.49 43.7108,64.571 44.4428,64.734 L44.1158,66.198 Z" id="Fill-48" fill="#F1892D" mask="url(#mask-4)"></path>
                <polygon id="Fill-49" fill="#F1892D" mask="url(#mask-4)" points="41.7047 65.2605 41.6317 60.5425 43.1317 60.5195 43.2047 65.2375"></polygon>
                <path d="M17.9127,56.1072 C19.5457,56.0782 20.9877,57.2642 21.1167,58.7432 L21.6307,64.6582 C21.7597,66.1362 20.5287,67.3702 18.8957,67.3982 L4.4777,67.6532 C2.8447,67.6822 1.4027,66.4962 1.2737,65.0172 L0.7597,59.1032 C0.6307,57.6242 1.8617,56.3902 3.4947,56.3622 L17.9127,56.1072 Z" id="Fill-50" fill="#A5B5B6" mask="url(#mask-4)"></path>
                <path d="M17.9258,56.8572 L3.5078,57.1122 C2.8828,57.1232 2.3088,57.3692 1.9318,57.7872 C1.6178,58.1362 1.4668,58.5802 1.5068,59.0382 L2.0218,64.9532 C2.1148,66.0322 3.2328,66.9312 4.4648,66.9032 L18.8828,66.6482 C19.5078,66.6372 20.0818,66.3912 20.4578,65.9732 C20.7728,65.6252 20.9238,65.1802 20.8838,64.7222 L20.3688,58.8082 C20.2748,57.7292 19.1578,56.8292 17.9258,56.8572 M4.4198,68.4042 C2.4258,68.4042 0.6878,66.9272 0.5268,65.0832 L0.0118,59.1682 C-0.0642,58.2922 0.2218,57.4452 0.8178,56.7832 C1.4708,56.0572 2.4428,55.6302 3.4818,55.6122 L17.8998,55.3572 C19.9268,55.3262 21.7008,56.8112 21.8638,58.6782 L22.3788,64.5922 C22.4548,65.4682 22.1688,66.3162 21.5718,66.9772 C20.9188,67.7032 19.9478,68.1292 18.9088,68.1482 L4.4908,68.4032 C4.4678,68.4042 4.4438,68.4042 4.4198,68.4042" id="Fill-51" fill="#354546" mask="url(#mask-4)"></path>
                <path d="M11.1695,66.4275 C10.8005,66.4275 10.4785,66.1545 10.4275,65.7785 L9.4215,58.3715 C9.3655,57.9615 9.6535,57.5835 10.0645,57.5285 C10.4745,57.4715 10.8525,57.7595 10.9075,58.1695 L11.9135,65.5755 C11.9695,65.9865 11.6815,66.3655 11.2715,66.4195 C11.2365,66.4245 11.2035,66.4275 11.1695,66.4275" id="Fill-52" fill="#354546" mask="url(#mask-4)"></path>
                <path d="M1.2481,64.781 C0.8501,64.781 0.5181,64.468 0.4991,64.066 C0.4801,63.652 0.8001,63.301 1.2141,63.282 L10.6121,62.848 C11.0251,62.834 11.3771,63.149 11.3961,63.563 C11.4151,63.977 11.0951,64.328 10.6821,64.347 L1.2831,64.78 C1.2711,64.781 1.2601,64.781 1.2481,64.781" id="Fill-53" fill="#354546" mask="url(#mask-4)"></path>
                <path d="M0.9288,61.1111 C0.5258,61.1111 0.1928,60.7921 0.1798,60.3851 C0.1658,59.9711 0.4908,59.6251 0.9048,59.6111 L10.1408,59.3041 C10.5558,59.2911 10.9018,59.6161 10.9158,60.0291 C10.9288,60.4431 10.6048,60.7901 10.1908,60.8031 L0.9538,61.1101 C0.9458,61.1111 0.9368,61.1111 0.9288,61.1111" id="Fill-54" fill="#354546" mask="url(#mask-4)"></path>
                <path d="M18.6763,55.2693 C19.3663,55.7163 19.5903,56.5663 19.1723,57.1573 L18.7963,57.6893 C18.3783,58.2803 17.4703,58.3973 16.7803,57.9503 L10.4693,53.8623 C9.7793,53.4153 9.5553,52.5653 9.9733,51.9743 L10.3493,51.4423 C10.7673,50.8513 11.6743,50.7343 12.3653,51.1813 L18.6763,55.2693 Z" id="Fill-55" fill="#A5B5B6" mask="url(#mask-4)"></path>
                <path d="M11.4527,51.6599 C11.2477,51.6599 11.0627,51.7329 10.9617,51.8759 L10.5857,52.4069 C10.5027,52.5249 10.5057,52.6549 10.5227,52.7429 C10.5587,52.9309 10.6877,53.1099 10.8767,53.2319 L17.1877,57.3199 C17.5357,57.5459 17.9997,57.5149 18.1837,57.2559 L18.5597,56.7239 C18.6427,56.6059 18.6397,56.4759 18.6227,56.3889 C18.5867,56.1999 18.4577,56.0209 18.2687,55.8989 L11.9577,51.8099 C11.8007,51.7099 11.6197,51.6599 11.4527,51.6599 M17.6847,58.9699 C17.2387,58.9699 16.7787,58.8429 16.3727,58.5799 L10.0617,54.4909 C9.5317,54.1479 9.1627,53.6139 9.0497,53.0269 C8.9477,52.4969 9.0577,51.9699 9.3617,51.5409 L9.7377,51.0099 C10.3857,50.0929 11.7477,49.8879 12.7727,50.5519 L19.0837,54.6399 C19.6147,54.9829 19.9827,55.5169 20.0967,56.1039 C20.1977,56.6349 20.0867,57.1619 19.7847,57.5909 L19.4087,58.1219 C19.0167,58.6759 18.3657,58.9699 17.6847,58.9699" id="Fill-56" fill="#354546" mask="url(#mask-4)"></path>
                <path d="M19.8511,56.0652 L18.3751,55.1092 C16.9941,54.2142 15.1811,54.4492 14.3451,55.6312 L13.4511,56.8942 C12.6151,58.0762 13.0611,59.7752 14.4421,60.6692 L15.9181,61.6262 C17.2991,62.5202 19.1131,62.2852 19.9491,61.1032 L20.8421,59.8402 C21.6781,58.6582 21.2321,56.9602 19.8511,56.0652" id="Fill-57" fill="#A5B5B6" mask="url(#mask-4)"></path>
                <path d="M16.5591,55.3191 C15.9091,55.3191 15.3031,55.5751 14.9571,56.0641 L14.0631,57.3271 C13.7451,57.7781 13.7511,58.2551 13.8121,58.5741 C13.9231,59.1501 14.3021,59.6841 14.8501,60.0401 L16.3261,60.9961 C17.3591,61.6661 18.7381,61.5161 19.3361,60.6701 L20.2291,59.4071 C20.5491,58.9561 20.5421,58.4801 20.4811,58.1601 C20.3701,57.5841 19.9921,57.0491 19.4431,56.6941 L17.9681,55.7381 C17.5311,55.4561 17.0341,55.3191 16.5591,55.3191 M17.7321,62.9171 C16.9781,62.9181 16.2001,62.7021 15.5101,62.2551 L14.0351,61.2981 C13.1451,60.7221 12.5271,59.8331 12.3391,58.8581 C12.1741,58.0011 12.3521,57.1491 12.8391,56.4611 L13.7321,55.1981 C14.7991,53.6891 17.0651,53.3671 18.7831,54.4791 L20.2591,55.4351 C21.1481,56.0111 21.7661,56.9011 21.9541,57.8771 C22.1191,58.7331 21.9411,59.5851 21.4551,60.2731 L20.5611,61.5361 C19.9221,62.4391 18.8541,62.9171 17.7321,62.9171" id="Fill-58" fill="#354546" mask="url(#mask-4)"></path>
                <path d="M96.5298,69.4734 C96.8158,68.6684 97.0788,67.8594 97.3138,67.0394 C97.4318,66.6294 97.5428,66.2174 97.6488,65.8014 C97.7008,65.5934 97.7528,65.3834 97.8018,65.1714 L97.8748,64.8494 L97.9488,64.4964 L93.3168,63.6004 L93.2658,63.8374 L93.2058,64.1034 L93.0738,64.6454 C92.9818,65.0074 92.8838,65.3704 92.7788,65.7344 C92.5718,66.4594 92.3378,67.1794 92.0858,67.8884 L96.5298,69.4734 Z" id="Fill-59" fill="#F9BF3B" mask="url(#mask-4)"></path>
                <path d="M92.7921,68.1404 L91.3781,67.6374 C91.6341,66.9184 91.8631,66.2084 92.0581,65.5274 C92.1511,65.2054 92.2461,64.8574 92.3471,64.4594 L92.5831,63.4454 L94.0501,63.7564 L93.9371,64.2694 L93.8031,64.8224 C93.6951,65.2444 93.5971,65.6084 93.4991,65.9434 C93.2961,66.6514 93.0581,67.3914 92.7921,68.1404" id="Fill-60" fill="#F1892D" mask="url(#mask-4)"></path>
                <path d="M97.2369,69.7243 L95.8229,69.2213 C96.1119,68.4103 96.3709,67.6063 96.5919,66.8323 C96.6999,66.4633 96.8069,66.0663 96.9219,65.6163 C96.9729,65.4133 97.0229,65.2093 97.0709,65.0013 L97.2149,64.3423 L98.6829,64.6513 L98.5329,65.3373 C98.4819,65.5583 98.4299,65.7733 98.3759,65.9853 C98.2569,66.4533 98.1449,66.8663 98.0339,67.2483 C97.8039,68.0493 97.5359,68.8833 97.2369,69.7243" id="Fill-61" fill="#F1892D" mask="url(#mask-4)"></path>
                <polygon id="Fill-62" fill="#F1892D" mask="url(#mask-4)" points="97.106 67.7605 92.571 66.4545 92.986 65.0135 97.521 66.3195"></polygon>
                <path d="M94.4561,74.2077 C95.2831,72.6657 95.9551,71.0797 96.5301,69.4737 L92.0851,67.8887 C91.5781,69.3067 90.9901,70.6887 90.2961,71.9797 L94.4561,74.2077 Z" id="Fill-63" fill="#F9BF3B" mask="url(#mask-4)"></path>
                <path d="M90.9571,72.3347 L89.6351,71.6247 C90.2641,70.4557 90.8501,69.1137 91.3791,67.6367 L92.7911,68.1417 C92.2371,69.6887 91.6201,71.1007 90.9571,72.3347" id="Fill-64" fill="#F1892D" mask="url(#mask-4)"></path>
                <path d="M95.1168,74.5622 L93.7948,73.8532 C94.5428,72.4582 95.2068,70.9432 95.8238,69.2202 L97.2358,69.7262 C96.5938,71.5192 95.9008,73.1012 95.1168,74.5622" id="Fill-65" fill="#F1892D" mask="url(#mask-4)"></path>
                <polygon id="Fill-66" fill="#F1892D" mask="url(#mask-4)" points="95.2877 72.5525 90.9607 70.6695 91.5597 69.2935 95.8867 71.1765"></polygon>
                <path d="M91.4258,78.6345 C92.0438,77.9455 92.5928,77.2215 93.0908,76.4795 C93.5908,75.7385 94.0418,74.9785 94.4558,74.2075 L90.2968,71.9805 C89.9498,72.6245 89.5778,73.2475 89.1798,73.8395 C88.7828,74.4315 88.3578,74.9895 87.9018,75.4975 L91.4258,78.6345 Z" id="Fill-67" fill="#F9BF3B" mask="url(#mask-4)"></path>
                <path d="M88.4595,75.9988 L87.3435,74.9968 C87.7575,74.5348 88.1665,74.0058 88.5575,73.4218 C88.9295,72.8688 89.2925,72.2648 89.6355,71.6248 L90.9575,72.3348 C90.5895,73.0188 90.2015,73.6648 89.8025,74.2588 C89.3735,74.8988 88.9205,75.4848 88.4595,75.9988" id="Fill-68" fill="#F1892D" mask="url(#mask-4)"></path>
                <path d="M91.9849,79.1355 L90.8669,78.1345 C91.4299,77.5065 91.9529,76.8285 92.4679,76.0615 C92.9299,75.3755 93.3759,74.6335 93.7949,73.8525 L95.1169,74.5625 C94.6739,75.3865 94.2019,76.1725 93.7129,76.8985 C93.1589,77.7235 92.5939,78.4545 91.9849,79.1355" id="Fill-69" fill="#F1892D" mask="url(#mask-4)"></path>
                <polygon id="Fill-70" fill="#F1892D" mask="url(#mask-4)" points="92.6714 77.1013 88.7604 74.4603 89.5994 73.2173 93.5104 75.8583"></polygon>
                <path d="M87.2144,82.1316 C88.0014,81.6346 88.7174,81.1096 89.3914,80.5676 L89.5204,80.4666 L89.6554,80.3526 L89.9274,80.1196 C90.1114,79.9666 90.2834,79.8046 90.4534,79.6416 L90.7094,79.3976 C90.7924,79.3156 90.8714,79.2296 90.9524,79.1456 C91.1114,78.9766 91.2784,78.8106 91.4254,78.6346 L87.9014,75.4976 C87.7914,75.6306 87.6714,75.7456 87.5554,75.8696 C87.4974,75.9306 87.4404,75.9936 87.3804,76.0526 L87.1994,76.2236 C87.0804,76.3386 86.9604,76.4536 86.8344,76.5566 L86.6494,76.7156 C86.6164,76.7426 86.5894,76.7686 86.5534,76.7966 L86.4454,76.8816 C85.8684,77.3476 85.2824,77.7696 84.7114,78.1316 L87.2144,82.1316 Z" id="Fill-71" fill="#F9BF3B" mask="url(#mask-4)"></path>
                <path d="M85.1129,78.7654 L84.3109,77.4974 C84.8549,77.1534 85.4149,76.7494 85.9739,76.2974 L86.0909,76.2054 C86.1009,76.1994 86.1109,76.1894 86.1219,76.1804 L86.3629,75.9734 C86.4669,75.8894 86.5789,75.7804 86.6779,75.6844 L86.8649,75.5074 C86.8859,75.4864 86.9159,75.4544 86.9449,75.4234 L87.0169,75.3484 C87.0479,75.3154 87.0889,75.2734 87.1289,75.2304 C87.1999,75.1574 87.2679,75.0874 87.3239,75.0194 L88.4799,75.9754 C88.3869,76.0874 88.2919,76.1864 88.2079,76.2734 C88.1739,76.3084 88.1389,76.3444 88.1039,76.3814 L88.0379,76.4524 C87.9939,76.4974 87.9499,76.5444 87.9049,76.5884 L87.7159,76.7684 C87.6079,76.8724 87.4669,77.0074 87.3159,77.1314 L87.1089,77.3094 C87.0809,77.3334 87.0519,77.3584 87.0199,77.3844 L86.9079,77.4714 C86.3119,77.9534 85.7059,78.3904 85.1129,78.7654" id="Fill-72" fill="#F1892D" mask="url(#mask-4)"></path>
                <path d="M87.6148,82.7654 L86.8138,81.4974 C87.5198,81.0514 88.2098,80.5554 88.9218,79.9834 L89.1718,79.7794 L89.4398,79.5494 C89.6178,79.4024 89.7808,79.2474 89.9328,79.1004 L90.1908,78.8544 C90.2318,78.8144 90.2788,78.7644 90.3258,78.7154 L90.4128,78.6234 C90.4518,78.5814 90.4998,78.5334 90.5468,78.4834 C90.6568,78.3684 90.7618,78.2594 90.8518,78.1524 L91.9998,79.1184 C91.8778,79.2624 91.7518,79.3944 91.6298,79.5214 C91.5858,79.5674 91.5418,79.6134 91.4988,79.6594 L91.4128,79.7484 C91.3548,79.8104 91.2958,79.8714 91.2348,79.9324 L90.9708,80.1834 C90.8008,80.3474 90.6148,80.5244 90.4068,80.6974 L89.8558,81.1574 C89.1048,81.7604 88.3698,82.2884 87.6148,82.7654" id="Fill-73" fill="#F1892D" mask="url(#mask-4)"></path>
                <polygon id="Fill-74" fill="#F1892D" mask="url(#mask-4)" points="88.8057 81.0359 85.8597 77.3489 87.0317 76.4129 89.9777 80.0989"></polygon>
                <path d="M80.2569,82.9148 C80.8289,83.2988 81.4929,83.5408 82.1779,83.6248 C82.8629,83.7108 83.5659,83.6428 84.2479,83.4788 C84.5839,83.3898 84.9489,83.2788 85.1959,83.1728 C85.3319,83.1188 85.4729,83.0628 85.6019,83.0078 L85.9469,82.8428 C86.1829,82.7328 86.3909,82.6138 86.6029,82.4958 C86.8209,82.3798 87.0149,82.2548 87.2149,82.1318 L84.7119,78.1318 C84.5689,78.2198 84.4259,78.3128 84.2879,78.3848 C84.1489,78.4618 84.0089,78.5438 83.8789,78.6018 L83.6809,78.6978 L83.5279,78.7578 C83.4059,78.8108 83.3859,78.8138 83.3349,78.8298 C83.2409,78.8548 83.1449,78.8708 83.0479,78.8638 C82.9509,78.8578 82.8569,78.8218 82.7779,78.7668 L80.2569,82.9148 Z" id="Fill-75" fill="#F9BF3B" mask="url(#mask-4)"></path>
                <path d="M83.1495,78.1247 L83.1705,78.2057 L83.2085,78.1517 C83.1895,78.1397 83.1685,78.1307 83.1495,78.1247 M83.0935,79.6157 C83.0605,79.6157 83.0265,79.6137 82.9935,79.6117 C82.7695,79.5987 82.5435,79.5187 82.3475,79.3807 L83.1445,78.2437 L83.1025,78.1167 L83.1055,78.1157 C83.1015,78.1157 83.0975,78.1157 83.0945,78.1147 C83.0965,78.1147 83.1075,78.1137 83.1305,78.1077 L83.1425,78.1037 C83.1565,78.1007 83.1665,78.0977 83.2235,78.0717 L83.5775,77.9137 C83.6495,77.8827 83.7435,77.8297 83.8415,77.7747 L83.9425,77.7187 C84.0235,77.6777 84.1185,77.6177 84.2195,77.5547 L84.3175,77.4927 L85.1055,78.7707 L85.0145,78.8257 C84.8965,78.8997 84.7745,78.9777 84.6435,79.0447 L84.5745,79.0837 C84.4535,79.1507 84.3285,79.2217 84.1955,79.2807 L83.9535,79.3957 L83.8165,79.4497 C83.6975,79.5017 83.6395,79.5207 83.5815,79.5387 L83.5255,79.5557 C83.3735,79.5957 83.2315,79.6157 83.0935,79.6157" id="Fill-76" fill="#F1892D" mask="url(#mask-4)"></path>
                <path d="M82.7886,84.4118 C82.5486,84.4118 82.3136,84.3968 82.0846,84.3688 C81.2796,84.2698 80.5026,83.9818 79.8386,83.5368 L80.6746,82.2918 C81.1436,82.6058 81.6946,82.8088 82.2686,82.8798 C82.8166,82.9488 83.4196,82.9048 84.0636,82.7518 C84.4186,82.6568 84.7236,82.5588 84.9006,82.4828 L84.9376,82.4688 C85.0556,82.4218 85.1786,82.3728 85.2916,82.3238 L85.6226,82.1658 C85.8166,82.0758 85.9866,81.9808 86.1676,81.8808 L86.2386,81.8408 C86.4106,81.7488 86.5616,81.6548 86.7216,81.5548 L86.8196,81.4938 L87.6086,82.7688 L87.5146,82.8278 C87.3406,82.9358 87.1616,83.0478 86.9566,83.1568 L86.8976,83.1898 C86.7006,83.3008 86.4966,83.4138 86.2616,83.5228 L85.8996,83.6958 C85.7686,83.7528 85.6276,83.8078 85.4906,83.8628 L85.4816,83.8658 C85.1666,83.9998 84.7426,84.1238 84.4406,84.2038 L84.4226,84.2088 C83.8586,84.3438 83.3106,84.4118 82.7886,84.4118" id="Fill-77" fill="#F1892D" mask="url(#mask-4)"></path>
                <polygon id="Fill-78" fill="#F1892D" mask="url(#mask-4)" points="83.5118 83.6238 82.5988 78.9758 84.0708 78.6858 84.9838 83.3348"></polygon>
                <path d="M77.2476,77.0427 C77.3326,77.4677 77.4236,77.8977 77.5386,78.3457 C77.6476,78.7867 77.7886,79.2507 77.9586,79.7277 L78.0986,80.0907 L78.1166,80.1367 L78.1416,80.1927 L78.1926,80.3077 L78.2966,80.5327 C78.3626,80.6807 78.4476,80.8377 78.5346,80.9907 C78.6196,81.1457 78.7076,81.2967 78.8096,81.4397 C79.1966,82.0227 79.6816,82.5337 80.2566,82.9147 L82.7776,78.7667 C82.6986,78.7097 82.6366,78.6337 82.5856,78.5507 C82.5726,78.5307 82.5606,78.5097 82.5496,78.4877 C82.5386,78.4667 82.5276,78.4467 82.5126,78.4107 L82.4906,78.3627 L82.4806,78.3397 L82.4756,78.3277 L82.4656,78.3037 L82.3896,78.1047 C82.1876,77.5467 82.0196,76.8557 81.8776,76.1307 L77.2476,77.0427 Z" id="Fill-79" fill="#F9BF3B" mask="url(#mask-4)"></path>
                <path d="M82.3414,79.3767 C82.1914,79.2697 82.0604,79.1267 81.9524,78.9527 C81.9274,78.9147 81.9054,78.8747 81.8844,78.8337 C81.8664,78.8007 81.8484,78.7667 81.8234,78.7067 L81.7634,78.5667 L81.6894,78.3727 C81.4864,77.8137 81.3084,77.1307 81.1414,76.2737 L82.6134,75.9857 C82.7634,76.7557 82.9254,77.3827 83.0944,77.8487 L83.2264,78.1597 C83.2294,78.1657 83.2334,78.1717 83.2374,78.1767 C83.2374,78.1767 83.2294,78.1677 83.2144,78.1567 L82.3414,79.3767 Z" id="Fill-80" fill="#F1892D" mask="url(#mask-4)"></path>
                <path d="M79.8433,83.5398 C79.2083,83.1198 78.6523,82.5568 78.1903,81.8628 C78.0683,81.6888 77.9643,81.5098 77.8793,81.3558 C77.7993,81.2158 77.6963,81.0258 77.6133,80.8418 L77.4013,80.3658 L77.2523,79.9788 C77.0733,79.4788 76.9253,78.9898 76.8103,78.5238 C76.6833,78.0298 76.5843,77.5508 76.5123,77.1878 L77.9833,76.8958 C78.0513,77.2388 78.1453,77.6918 78.2653,78.1578 C78.3683,78.5798 78.5013,79.0168 78.6623,79.4658 L78.8773,80.0028 L78.9773,80.2198 C79.0393,80.3558 79.1223,80.5068 79.1873,80.6238 C79.2603,80.7538 79.3383,80.8888 79.4223,81.0078 L79.4333,81.0248 C79.7853,81.5538 80.2013,81.9778 80.6703,82.2888 L79.8433,83.5398 Z" id="Fill-81" fill="#F1892D" mask="url(#mask-4)"></path>
                <polygon id="Fill-82" fill="#F1892D" mask="url(#mask-4)" points="78.2169 80.4314 77.7009 79.0234 82.1319 77.4004 82.6479 78.8084"></polygon>
                <path d="M76.4429,72.2468 C76.7169,73.7608 76.9199,75.3508 77.2479,77.0428 L81.8779,76.1308 C81.5909,74.6658 81.3839,73.0658 81.0879,71.4158 L76.4429,72.2468 Z" id="Fill-83" fill="#F9BF3B" mask="url(#mask-4)"></path>
                <path d="M81.1412,76.2742 C80.9802,75.4502 80.8472,74.6022 80.7052,73.7052 C80.5952,73.0032 80.4802,72.2772 80.3492,71.5482 L81.8262,71.2832 C81.9592,72.0282 82.0752,72.7612 82.1872,73.4712 C82.3262,74.3552 82.4572,75.1892 82.6132,75.9862 L81.1412,76.2742 Z" id="Fill-84" fill="#F1892D" mask="url(#mask-4)"></path>
                <path d="M76.5113,77.1853 C76.3233,76.2103 76.1753,75.2743 76.0323,74.3683 C75.9243,73.6773 75.8223,73.0253 75.7053,72.3803 L77.1813,72.1133 C77.3013,72.7753 77.4053,73.4363 77.5143,74.1353 C77.6553,75.0283 77.8003,75.9513 77.9843,76.8993 L76.5113,77.1853 Z" id="Fill-85" fill="#F1892D" mask="url(#mask-4)"></path>
                <polygon id="Fill-86" fill="#F1892D" mask="url(#mask-4)" points="76.9424 75.3191 76.7084 73.8381 81.3694 73.1011 81.6034 74.5831"></polygon>
                <path d="M75.3404,68.116 C75.5934,68.701 75.8014,69.364 75.9804,70.06 C76.1584,70.759 76.3074,71.492 76.4434,72.247 L81.0884,71.416 C80.9394,70.59 80.7704,69.747 80.5494,68.887 C80.3284,68.028 80.0614,67.15 79.6774,66.259 L75.3404,68.116 Z" id="Fill-87" fill="#F9BF3B" mask="url(#mask-4)"></path>
                <path d="M80.3497,71.5486 C80.1777,70.5896 80.0107,69.8036 79.8237,69.0726 C79.5697,68.0876 79.3047,67.2876 78.9887,66.5546 L80.3667,65.9616 C80.7127,66.7676 81.0017,67.6366 81.2767,68.6996 C81.4727,69.4676 81.6477,70.2876 81.8267,71.2826 L80.3497,71.5486 Z" id="Fill-88" fill="#F1892D" mask="url(#mask-4)"></path>
                <path d="M75.7047,72.3786 C75.5547,71.5386 75.4107,70.8606 75.2527,70.2466 C75.0647,69.5116 74.8677,68.9116 74.6527,68.4146 L76.0287,67.8176 C76.2757,68.3886 76.4977,69.0616 76.7057,69.8746 C76.8727,70.5246 77.0237,71.2366 77.1817,72.1146 L75.7047,72.3786 Z" id="Fill-89" fill="#F1892D" mask="url(#mask-4)"></path>
                <polygon id="Fill-90" fill="#F1892D" mask="url(#mask-4)" points="76.1666 70.7868 75.7926 69.3348 80.3636 68.1608 80.7366 69.6128"></polygon>
                <path d="M73.4254,65.8269 L73.5714,65.8919 C73.6174,65.9209 73.6624,65.9479 73.7094,65.9729 C73.7324,65.9869 73.7564,65.9979 73.7794,66.0119 L73.8434,66.0599 L73.9764,66.1509 C74.0184,66.1879 74.0604,66.2239 74.1034,66.2599 L74.1684,66.3129 L74.2294,66.3759 L74.3544,66.4989 L74.4744,66.6399 C74.7994,67.0139 75.0874,67.5349 75.3404,68.1159 L79.6774,66.2589 C79.5804,66.0349 79.4834,65.8129 79.3674,65.5889 C79.2614,65.3659 79.1354,65.1409 79.0074,64.9189 C78.8834,64.6959 78.7294,64.4739 78.5874,64.2549 L78.3454,63.9279 L78.2234,63.7649 L78.0884,63.6059 L77.8154,63.2909 L77.5134,62.9879 L77.3614,62.8389 L77.1964,62.6969 L76.8624,62.4179 C76.7434,62.3299 76.6224,62.2459 76.5024,62.1619 L76.3204,62.0359 C76.2584,61.9969 76.1934,61.9609 76.1304,61.9239 L75.7444,61.7039 C75.6124,61.6379 75.4784,61.5779 75.3434,61.5159 L73.4254,65.8269 Z" id="Fill-91" fill="#F9BF3B" mask="url(#mask-4)"></path>
                <path d="M78.9893,66.5564 C78.8923,66.3324 78.8033,66.1304 78.7013,65.9324 L78.6903,65.9104 C78.5943,65.7084 78.4723,65.4944 78.3573,65.2924 C78.2723,65.1404 78.1723,64.9904 78.0673,64.8294 C78.0343,64.7804 78.0023,64.7314 77.9703,64.6824 L77.6373,64.2344 L77.2653,63.8014 L76.8533,63.3914 L76.3983,63.0074 C76.2913,62.9294 76.1823,62.8524 76.0723,62.7764 L75.9083,62.6634 C75.8753,62.6424 75.8403,62.6224 75.8053,62.6024 L75.3903,62.3664 C75.3003,62.3204 75.2083,62.2794 75.1153,62.2374 L75.0313,62.1984 L75.6563,60.8344 L75.7383,60.8714 C75.8533,60.9244 75.9683,60.9774 76.0813,61.0344 L76.1143,61.0514 L76.5603,61.3064 C76.6143,61.3374 76.6673,61.3694 76.7203,61.4024 L76.7453,61.4184 L76.9273,61.5434 C77.0573,61.6344 77.1843,61.7234 77.3073,61.8144 L77.3423,61.8414 L77.8853,62.3024 L78.3823,62.7994 L78.8223,63.3144 L79.2163,63.8464 L79.3193,64.0034 C79.4353,64.1794 79.5543,64.3614 79.6623,64.5534 C79.7863,64.7694 79.9223,65.0084 80.0393,65.2554 C80.1603,65.4914 80.2593,65.7134 80.3653,65.9594 L78.9893,66.5564 Z" id="Fill-92" fill="#F1892D" mask="url(#mask-4)"></path>
                <path d="M74.6524,68.4158 C74.4054,67.8478 74.1554,67.4158 73.9084,67.1328 L73.8044,67.0108 L73.6294,66.8418 C73.5894,66.8088 73.5504,66.7758 73.5134,66.7428 L73.3724,66.6448 C73.3604,66.6388 73.3484,66.6318 73.3364,66.6238 C73.3014,66.6048 73.2614,66.5818 73.2204,66.5578 L73.1184,66.5118 L73.7324,65.1428 L73.9704,65.2578 C74.0044,65.2778 74.0374,65.2988 74.0714,65.3168 L74.0884,65.3258 C74.1164,65.3408 74.1444,65.3558 74.1714,65.3728 L74.2784,65.4488 L74.4784,65.5938 C74.5104,65.6228 74.5444,65.6518 74.5794,65.6808 L74.7074,65.7908 L74.9264,66.0138 L75.0464,66.1548 C75.3924,66.5528 75.7154,67.0988 76.0274,67.8168 L74.6524,68.4158 Z" id="Fill-93" fill="#F1892D" mask="url(#mask-4)"></path>
                <polygon id="Fill-94" fill="#F1892D" mask="url(#mask-4)" points="74.9566 67.2146 73.9926 66.0656 77.6066 63.0316 78.5706 64.1816"></polygon>
                <path d="M70.1797,65.7663 C70.8247,65.6213 71.4487,65.5403 72.0047,65.5493 L72.1097,65.5473 C72.1437,65.5483 72.1757,65.5533 72.2097,65.5553 L72.4077,65.5703 C72.4747,65.5713 72.5347,65.5843 72.5967,65.5943 L72.7807,65.6223 C72.8407,65.6333 72.8937,65.6523 72.9507,65.6653 C73.0067,65.6813 73.0687,65.6873 73.1187,65.7093 C73.2207,65.7513 73.3327,65.7743 73.4257,65.8273 L75.3437,61.5163 C75.0767,61.3863 74.8007,61.3013 74.5257,61.2043 C74.3877,61.1563 74.2497,61.1283 74.1117,61.0913 C73.9737,61.0583 73.8337,61.0203 73.6967,60.9943 L73.2857,60.9263 C73.1487,60.9053 73.0107,60.8823 72.8767,60.8753 L72.4737,60.8443 C72.4077,60.8403 72.3387,60.8333 72.2727,60.8313 L72.0767,60.8303 C71.0247,60.8173 70.0467,60.9603 69.1237,61.1663 L70.1797,65.7663 Z" id="Fill-95" fill="#F9BF3B" mask="url(#mask-4)"></path>
                <path d="M75.0152,62.1902 C74.8442,62.1072 74.6532,62.0422 74.4502,61.9722 L74.2772,61.9132 C74.2152,61.8902 74.1452,61.8742 74.0642,61.8532 C74.0172,61.8412 73.9702,61.8302 73.9232,61.8172 L73.8092,61.7902 C73.7282,61.7692 73.6462,61.7482 73.5662,61.7322 L73.1382,61.6632 C73.0262,61.6452 72.9212,61.6282 72.8362,61.6242 L72.8202,61.6232 L72.3542,61.5872 C72.3222,61.5862 72.2892,61.5832 72.2572,61.5822 L72.0742,61.5812 C71.1932,61.5702 70.3092,61.6702 69.2872,61.8992 L68.9602,60.4352 C70.0992,60.1802 71.0932,60.0702 72.0872,60.0812 L72.2982,60.0832 C72.3522,60.0842 72.4072,60.0872 72.4632,60.0912 L72.9272,60.1272 C73.0852,60.1362 73.2372,60.1602 73.3712,60.1812 L73.8362,60.2562 C73.9552,60.2792 74.0672,60.3072 74.1742,60.3352 L74.3072,60.3682 C74.3462,60.3782 74.3852,60.3872 74.4232,60.3972 C74.5292,60.4232 74.6482,60.4532 74.7782,60.4992 L74.9342,60.5532 C75.1722,60.6332 75.4172,60.7172 75.6722,60.8422 L75.0152,62.1902 Z" id="Fill-96" fill="#F1892D" mask="url(#mask-4)"></path>
                <path d="M70.3433,66.4978 L70.0163,65.0338 C70.7483,64.8708 71.4163,64.7868 72.0043,64.7988 L72.1163,64.7978 L72.1323,64.7978 C72.1703,64.7998 72.2073,64.8028 72.2433,64.8058 L72.4453,64.8208 C72.5493,64.8248 72.6343,64.8398 72.6933,64.8508 L72.9113,64.8848 C72.9703,64.8938 73.0253,64.9088 73.0803,64.9248 C73.0913,64.9278 73.1023,64.9308 73.1143,64.9338 L73.1713,64.9468 C73.2243,64.9578 73.3103,64.9768 73.4083,65.0178 C73.4293,65.0258 73.4513,65.0318 73.4723,65.0398 C73.5573,65.0668 73.6743,65.1058 73.7963,65.1758 L73.0543,66.4788 C73.0593,66.4818 73.0653,66.4848 73.0713,66.4868 C73.0493,66.4778 73.0273,66.4718 73.0043,66.4648 C72.9573,66.4488 72.9093,66.4338 72.8643,66.4148 C72.8313,66.4078 72.7983,66.4008 72.7663,66.3928 C72.7373,66.3858 72.7083,66.3778 72.6793,66.3698 C72.6693,66.3668 72.6603,66.3638 72.6503,66.3608 L72.4303,66.3268 C72.4153,66.3248 72.4013,66.3208 72.3853,66.3198 L72.3513,66.3178 L72.1533,66.3038 C72.1373,66.3028 72.1183,66.3008 72.0983,66.2988 L72.0913,66.2978 L72.0033,66.2988 L71.9933,66.2988 C71.5203,66.2928 70.9653,66.3588 70.3433,66.4978" id="Fill-97" fill="#F1892D" mask="url(#mask-4)"></path>
                <polygon id="Fill-98" fill="#F1892D" mask="url(#mask-4)" points="72.754 65.5603 71.254 65.5383 71.327 60.8193 72.827 60.8423"></polygon>
                <path d="M96.5464,56.407 C94.9134,56.379 93.4714,57.564 93.3424,59.043 L92.8274,64.958 C92.6994,66.436 93.9304,67.67 95.5634,67.699 L109.9814,67.954 C111.6144,67.982 113.0564,66.796 113.1854,65.317 L113.6994,59.403 C113.8284,57.925 112.5974,56.691 110.9644,56.662 L96.5464,56.407 Z" id="Fill-99" fill="#A5B5B6" mask="url(#mask-4)"></path>
                <path d="M96.4893,57.157 C95.2763,57.157 94.1823,58.042 94.0903,59.108 L93.5743,65.023 C93.5353,65.48 93.6863,65.925 94.0013,66.273 C94.3773,66.691 94.9513,66.937 95.5763,66.949 L109.9943,67.204 C111.2223,67.221 112.3433,66.332 112.4373,65.253 L112.9523,59.338 C112.9923,58.881 112.8413,58.436 112.5263,58.087 C112.1503,57.669 111.5753,57.423 110.9503,57.412 L96.5333,57.157 L96.4893,57.157 Z M110.0393,68.704 C110.0153,68.704 109.9913,68.704 109.9683,68.703 L95.5503,68.448 C94.5103,68.43 93.5403,68.004 92.8863,67.277 C92.2903,66.616 92.0043,65.769 92.0803,64.892 L92.5953,58.978 C92.7583,57.111 94.5303,55.618 96.5593,55.657 L110.9773,55.912 C112.0163,55.93 112.9873,56.357 113.6413,57.083 C114.2373,57.745 114.5233,58.592 114.4473,59.468 L113.9323,65.383 C113.7713,67.227 112.0323,68.704 110.0393,68.704 L110.0393,68.704 Z" id="Fill-100" fill="#354546" mask="url(#mask-4)"></path>
                <path d="M103.2896,66.7273 C103.2556,66.7273 103.2216,66.7243 103.1876,66.7203 C102.7766,66.6653 102.4896,66.2873 102.5456,65.8753 L103.5506,58.4703 C103.6066,58.0593 103.9836,57.7703 104.3946,57.8283 C104.8056,57.8833 105.0936,58.2613 105.0376,58.6713 L104.0316,66.0783 C103.9806,66.4543 103.6586,66.7273 103.2896,66.7273" id="Fill-101" fill="#354546" mask="url(#mask-4)"></path>
                <path d="M113.211,65.0808 L113.176,65.0808 L103.777,64.6468 C103.364,64.6278 103.044,64.2768 103.063,63.8628 C103.082,63.4488 103.432,63.1328 103.847,63.1478 L113.245,63.5818 C113.659,63.6018 113.979,63.9518 113.96,64.3658 C113.941,64.7678 113.609,65.0808 113.211,65.0808" id="Fill-102" fill="#354546" mask="url(#mask-4)"></path>
                <path d="M113.5303,61.4109 L113.5053,61.4109 L104.2683,61.1039 C103.8543,61.0899 103.5303,60.7429 103.5433,60.3289 C103.5573,59.9159 103.9023,59.5899 104.3183,59.6039 L113.5543,59.9119 C113.9683,59.9259 114.2933,60.2719 114.2793,60.6859 C114.2653,61.0919 113.9323,61.4109 113.5303,61.4109" id="Fill-103" fill="#354546" mask="url(#mask-4)"></path>
                <path d="M95.7828,55.5691 C95.0928,56.0161 94.8688,56.8661 95.2868,57.4571 L95.6628,57.9891 C96.0808,58.5801 96.9878,58.6971 97.6788,58.2501 L103.9898,54.1621 C104.6798,53.7151 104.9038,52.8651 104.4858,52.2741 L104.1098,51.7421 C103.6918,51.1511 102.7838,51.0341 102.0938,51.4811 L95.7828,55.5691 Z" id="Fill-104" fill="#A5B5B6" mask="url(#mask-4)"></path>
                <path d="M96.1905,56.199 C96.0015,56.321 95.8725,56.5 95.8365,56.688 C95.8185,56.776 95.8155,56.906 95.8995,57.024 L96.2755,57.555 C96.4595,57.815 96.9235,57.845 97.2705,57.621 L103.5825,53.532 C103.7715,53.41 103.9005,53.231 103.9365,53.044 C103.9535,52.955 103.9565,52.825 103.8735,52.707 L103.4975,52.176 C103.3135,51.917 102.8485,51.886 102.5015,52.111 L96.1905,56.199 Z M96.7735,59.269 C96.0935,59.269 95.4425,58.975 95.0505,58.422 L94.6745,57.89 C94.3715,57.462 94.2605,56.934 94.3625,56.404 C94.4765,55.817 94.8445,55.283 95.3745,54.94 L95.3755,54.94 L101.6865,50.852 C102.7115,50.187 104.0735,50.392 104.7215,51.309 L105.0975,51.841 C105.4005,52.269 105.5115,52.797 105.4095,53.327 C105.2965,53.914 104.9275,54.448 104.3975,54.791 L98.0865,58.88 C97.6805,59.142 97.2205,59.269 96.7735,59.269 L96.7735,59.269 Z" id="Fill-105" fill="#354546" mask="url(#mask-4)"></path>
                <path d="M101.0079,57.1941 L100.1139,55.9311 C99.2789,54.7501 97.4649,54.5141 96.0839,55.4091 L94.6079,56.3651 C93.2269,57.2591 92.7809,58.9591 93.6169,60.1401 L94.5099,61.4031 C95.3459,62.5851 97.1599,62.8201 98.5409,61.9251 L100.0169,60.9691 C101.3979,60.0751 101.8439,58.3761 101.0079,57.1941" id="Fill-106" fill="#A5B5B6" mask="url(#mask-4)"></path>
                <path d="M96.0836,55.4089 L96.0846,55.4089 L96.0836,55.4089 Z M97.8996,55.6189 C97.4256,55.6189 96.9276,55.7559 96.4916,56.0389 L95.0156,56.9939 C94.4676,57.3489 94.0886,57.8839 93.9786,58.4599 C93.9166,58.7799 93.9106,59.2559 94.2296,59.7069 L95.1226,60.9699 C95.7206,61.8159 97.0996,61.9659 98.1336,61.2959 L99.6086,60.3399 C100.1576,59.9839 100.5356,59.4499 100.6466,58.8749 C100.7086,58.5549 100.7146,58.0779 100.3956,57.6279 L99.5016,56.3639 C99.1566,55.8759 98.5496,55.6189 97.8996,55.6189 L97.8996,55.6189 Z M96.7276,63.2179 C95.6046,63.2179 94.5366,62.7389 93.8976,61.8369 L93.0046,60.5729 C92.5176,59.8849 92.3406,59.0329 92.5056,58.1769 C92.6926,57.2009 93.3106,56.3109 94.2006,55.7349 L95.6756,54.7789 C97.3936,53.6669 99.6596,53.9889 100.7266,55.4989 L101.6206,56.7619 C102.1066,57.4499 102.2846,58.3009 102.1196,59.1579 C101.9316,60.1329 101.3136,61.0229 100.4246,61.5989 L98.9486,62.5549 C98.2586,63.0019 97.4806,63.2179 96.7276,63.2179 L96.7276,63.2179 Z" id="Fill-107" fill="#354546" mask="url(#mask-4)"></path>
                <path d="M64.4,73.0925 C64.316,73.2085 64.247,73.9045 65.012,75.5235 C65.594,76.7535 66.419,77.9995 66.899,78.5465 C67.284,78.9875 67.769,79.2275 68.232,79.2055 C68.631,79.1875 68.985,78.9825 69.254,78.6125 C69.927,77.6895 69.792,76.1075 68.96,75.1585 C68.239,74.3375 65.842,72.9755 64.66,73.0295 C64.48,73.0365 64.41,73.0785 64.4,73.0925 M68.176,80.7065 C67.298,80.7065 66.428,80.2845 65.771,79.5355 C65.232,78.9215 61.79,74.1275 63.188,72.2085 C63.399,71.9185 63.815,71.5655 64.592,71.5305 C66.334,71.4495 69.129,73.0765 70.087,74.1695 C71.392,75.6565 71.559,77.9965 70.466,79.4955 C69.927,80.2365 69.157,80.6655 68.299,80.7035 C68.258,80.7055 68.217,80.7065 68.176,80.7065" id="Fill-108" fill="#19B5FE" mask="url(#mask-4)"></path>
                <path d="M64.2662,72.2624 L64.2672,72.2624 L64.2662,72.2624 Z M70.4832,70.3604 C69.0672,70.3604 66.8862,70.7784 65.6922,71.5734 C65.4072,71.7624 65.0582,72.0554 65.0072,72.3784 C64.9392,72.8114 65.4172,73.6414 66.9622,74.6764 C68.2412,75.5334 69.7902,76.2064 70.5982,76.4054 C71.2002,76.5534 71.8172,76.4444 72.3372,76.0984 C72.9642,75.6814 73.3992,74.9574 73.5322,74.1134 C73.7942,72.4444 72.8402,70.7994 71.4052,70.4464 C71.1702,70.3884 70.8532,70.3604 70.4832,70.3604 L70.4832,70.3604 Z M71.1302,77.9704 C70.8342,77.9704 70.5362,77.9344 70.2402,77.8624 C68.4732,77.4274 63.0952,74.8834 63.5252,72.1464 C63.6342,71.4544 64.0832,70.8414 64.8612,70.3244 C66.6522,69.1324 70.1532,68.5944 71.7632,68.9904 C73.9352,69.5244 75.3942,71.9264 75.0142,74.3464 C74.8162,75.6044 74.1432,76.6984 73.1682,77.3474 C72.5492,77.7584 71.8472,77.9704 71.1302,77.9704 L71.1302,77.9704 Z" id="Fill-109" fill="#C72C1C" mask="url(#mask-4)"></path>
                <path d="M60.0694,57.6238 C58.4254,57.4798 55.7324,57.4338 54.0854,57.5198 L45.0144,57.9938 C43.3664,58.0798 41.9944,59.4998 41.9654,61.1498 L41.8154,69.7728 C41.7864,71.4228 43.0654,73.1278 44.6574,73.5618 L53.8464,76.0688 C55.4384,76.5038 58.0544,76.5498 59.6604,76.1708 L68.9314,73.9858 C70.5374,73.6068 71.8754,71.9478 71.9034,70.2978 L72.0544,61.6748 C72.0834,60.0248 70.7614,58.5578 69.1174,58.4148 L60.0694,57.6238 Z" id="Fill-110" fill="#A5B5B6" mask="url(#mask-4)"></path>
                <path d="M68.9732,71.5857 L59.7022,73.7717 C58.0962,74.1497 55.4802,74.1047 53.8882,73.6697 L44.6992,71.1627 C43.1072,70.7287 41.8282,69.0227 41.8572,67.3727 L41.8152,69.7737 C41.7862,71.4227 43.0652,73.1277 44.6572,73.5627 L53.8462,76.0687 C55.4382,76.5037 58.0552,76.5497 59.6602,76.1707 L68.9312,73.9857 C70.5372,73.6067 71.8752,71.9477 71.9042,70.2977 L71.9452,67.8977 C71.9172,69.5477 70.5792,71.2077 68.9732,71.5857" id="Fill-111" fill="#859596" mask="url(#mask-4)"></path>
                <path d="M56.0513,58.2263 C55.3443,58.2263 54.6763,58.2403 54.1243,58.2683 L45.0533,58.7433 C43.8083,58.8073 42.7383,59.9153 42.7163,61.1633 L42.5653,69.7863 C42.5423,71.0953 43.5913,72.4943 44.8553,72.8383 L54.0443,75.3453 C55.5133,75.7473 58.0063,75.7893 59.4883,75.4413 L68.7593,73.2553 C70.0343,72.9553 71.1313,71.5943 71.1543,70.2853 L71.3043,61.6623 C71.3263,60.4143 70.2953,59.2703 69.0523,59.1623 L60.0043,58.3713 C58.9353,58.2783 57.4233,58.2263 56.0513,58.2263 M57.0283,77.1803 C55.8203,77.1803 54.5883,77.0483 53.6493,76.7923 L44.4603,74.2863 C42.5213,73.7563 41.0303,71.7683 41.0653,69.7593 L41.2163,61.1363 C41.2513,59.0973 42.9383,57.3513 44.9753,57.2453 L54.0453,56.7703 C55.7273,56.6823 58.4593,56.7303 60.1343,56.8763 L69.1833,57.6663 C71.2153,57.8443 72.8403,59.6483 72.8043,61.6883 L72.6533,70.3113 C72.6183,72.3203 71.0593,74.2543 69.1033,74.7153 L59.8323,76.9013 C59.0383,77.0873 58.0413,77.1803 57.0283,77.1803" id="Fill-112" fill="#354546" mask="url(#mask-4)"></path>
                <polygon id="Fill-113" fill="#556566" mask="url(#mask-4)" points="59.9625 70.7019 46.8865 70.4729 47.0465 61.2749 60.1235 61.5039"></polygon>
                <path d="M55.5469,68.7634 C55.2899,68.7634 55.0479,68.6314 54.9109,68.4094 L53.8729,66.7444 L52.2559,66.7164 C52.0049,66.7124 51.7719,66.5824 51.6359,66.3694 L51.5689,66.2654 L51.1319,67.2814 C51.0349,67.5084 50.8319,67.6724 50.5899,67.7204 C50.3479,67.7694 50.0979,67.6954 49.9209,67.5234 L49.0339,66.6604 L46.9539,66.6234 C46.5399,66.6174 46.2099,66.2754 46.2169,65.8614 C46.2239,65.4474 46.5689,65.1134 46.9799,65.1244 L49.3579,65.1654 C49.5479,65.1694 49.7309,65.2444 49.8669,65.3784 L50.1849,65.6874 L50.7509,64.3704 C50.8599,64.1164 51.1019,63.9424 51.3789,63.9194 C51.6559,63.8974 51.9229,64.0294 52.0719,64.2634 L52.6849,65.2244 L54.3069,65.2524 C54.5609,65.2564 54.7959,65.3894 54.9299,65.6054 L55.3249,66.2394 L56.1369,63.6854 C56.2349,63.3774 56.5199,63.1664 56.8429,63.1624 C57.1649,63.1594 57.4549,63.3624 57.5609,63.6674 L58.1309,65.3194 L60.0559,65.3524 C60.4699,65.3604 60.7999,65.7014 60.7929,66.1164 C60.7849,66.5254 60.4509,66.8524 60.0429,66.8524 L60.0299,66.8524 L57.5799,66.8094 C57.2649,66.8044 56.9869,66.6024 56.8839,66.3044 L56.8809,66.2944 L56.2619,68.2414 C56.1729,68.5194 55.9299,68.7214 55.6399,68.7574 C55.6089,68.7614 55.5779,68.7634 55.5469,68.7634" id="Fill-114" fill="#D5E5E6" mask="url(#mask-4)"></path>
                <path d="M47.6495,69.737 L59.2255,69.939 L59.3595,62.24 L47.7835,62.038 L47.6495,69.737 Z M59.9625,71.452 L59.9495,71.452 L46.8735,71.223 C46.4595,71.216 46.1295,70.875 46.1365,70.461 L46.2965,61.262 C46.3005,61.063 46.3825,60.874 46.5255,60.735 C46.6695,60.597 46.8615,60.515 47.0605,60.525 L60.1355,60.754 C60.5505,60.76 60.8795,61.102 60.8725,61.516 L60.7125,70.715 C60.7095,70.914 60.6265,71.103 60.4835,71.241 C60.3435,71.377 60.1565,71.452 59.9625,71.452 L59.9625,71.452 Z" id="Fill-115" fill="#354546" mask="url(#mask-4)"></path>
                <path d="M66.941,63.3972 C66.924,64.3772 66.115,65.1582 65.135,65.1412 C64.155,65.1242 63.375,64.3162 63.392,63.3352 C63.409,62.3552 64.217,61.5752 65.197,61.5912 C66.177,61.6092 66.958,62.4182 66.941,63.3972" id="Fill-116" fill="#F85C4C" mask="url(#mask-4)"></path>
                <path d="M65.1661,62.3415 C64.6091,62.3415 64.1511,62.7895 64.1411,63.3485 C64.1311,63.9135 64.5831,64.3815 65.1481,64.3915 C65.4231,64.4005 65.6811,64.2935 65.8781,64.1045 C66.0751,63.9135 66.1861,63.6575 66.1911,63.3845 C66.2011,62.8195 65.7491,62.3515 65.1841,62.3415 L65.1661,62.3415 Z M65.1671,65.8915 L65.1221,65.8915 C63.7301,65.8665 62.6171,64.7145 62.6421,63.3215 C62.6661,61.9305 63.8201,60.8135 65.2101,60.8415 C66.6021,60.8655 67.7151,62.0185 67.6911,63.4105 C67.6791,64.0845 67.4051,64.7145 66.9201,65.1825 C66.4461,65.6405 65.8251,65.8915 65.1671,65.8915 L65.1671,65.8915 Z" id="Fill-117" fill="#C72C1C" mask="url(#mask-4)"></path>
                <path d="M66.8423,69.0466 C66.8253,70.0266 66.0163,70.8076 65.0363,70.7906 C64.0563,70.7736 63.2763,69.9646 63.2933,68.9846 C63.3103,68.0046 64.1183,67.2236 65.0983,67.2406 C66.0783,67.2576 66.8593,68.0666 66.8423,69.0466" id="Fill-118" fill="#B9D96D" mask="url(#mask-4)"></path>
                <path d="M66.8423,69.0466 L66.8433,69.0466 L66.8423,69.0466 Z M65.0673,67.9906 C64.8003,67.9906 64.5483,68.0926 64.3553,68.2776 C64.1583,68.4686 64.0473,68.7246 64.0433,68.9976 C64.0323,69.5636 64.4853,70.0296 65.0503,70.0406 C65.3243,70.0506 65.5823,69.9426 65.7803,69.7526 C65.9763,69.5636 66.0883,69.3076 66.0923,69.0336 C66.1023,68.4686 65.6503,68.0006 65.0853,67.9906 L65.0673,67.9906 Z M65.0693,71.5406 C65.0533,71.5406 65.0383,71.5406 65.0233,71.5396 C63.6313,71.5166 62.5183,70.3636 62.5433,68.9716 C62.5543,68.2976 62.8283,67.6676 63.3133,67.1986 C63.7993,66.7316 64.4383,66.4826 65.1123,66.4906 C66.5033,66.5156 67.6163,67.6676 67.5923,69.0596 C67.5803,69.7336 67.3063,70.3626 66.8213,70.8316 C66.3473,71.2896 65.7263,71.5406 65.0693,71.5406 L65.0693,71.5406 Z" id="Fill-119" fill="#719911" mask="url(#mask-4)"></path>
                <path d="M46.6988,60.1462 C46.3388,60.1462 46.0208,59.8852 45.9598,59.5182 L45.5558,57.0652 C45.4888,56.6572 45.7658,56.2712 46.1748,56.2042 C46.5828,56.1362 46.9688,56.4132 47.0358,56.8222 L47.4398,59.2742 C47.5078,59.6832 47.2308,60.0692 46.8218,60.1362 C46.7808,60.1432 46.7398,60.1462 46.6988,60.1462" id="Fill-120" fill="#354546" mask="url(#mask-4)"></path>
                <path d="M49.6592,59.6589 C49.2982,59.6589 48.9802,59.3979 48.9202,59.0309 L48.5162,56.5779 C48.4492,56.1699 48.7252,55.7839 49.1342,55.7169 C49.5432,55.6489 49.9292,55.9259 49.9962,56.3349 L50.4002,58.7869 C50.4672,59.1959 50.1902,59.5819 49.7822,59.6489 C49.7412,59.6559 49.7002,59.6589 49.6592,59.6589" id="Fill-121" fill="#354546" mask="url(#mask-4)"></path>
                <path d="M67.0035,60.1462 C66.9625,60.1462 66.9215,60.1432 66.8805,60.1362 C66.4715,60.0692 66.1955,59.6832 66.2625,59.2742 L66.6665,56.8222 C66.7335,56.4132 67.1195,56.1362 67.5275,56.2042 C67.9375,56.2712 68.2135,56.6572 68.1465,57.0652 L67.7425,59.5182 C67.6825,59.8852 67.3635,60.1462 67.0035,60.1462" id="Fill-122" fill="#354546" mask="url(#mask-4)"></path>
                <path d="M64.043,59.6589 C64.002,59.6589 63.962,59.6559 63.92,59.6489 C63.512,59.5819 63.235,59.1959 63.302,58.7869 L63.706,56.3349 C63.773,55.9259 64.159,55.6489 64.568,55.7169 C64.977,55.7839 65.253,56.1699 65.186,56.5779 L64.782,59.0309 C64.722,59.3979 64.404,59.6589 64.043,59.6589" id="Fill-123" fill="#354546" mask="url(#mask-4)"></path>
                <polygon id="Fill-124" fill="#A5B5B6" mask="url(#mask-4)" points="43.757 107.861 48.444 107.861 48.444 98.861 43.757 98.861"></polygon>
                <polygon id="Fill-125" fill="#C5D5D6" mask="url(#mask-4)" points="43.757 102.436 48.444 102.436 48.444 98.861 43.757 98.861"></polygon>
                <path d="M44.507,107.111 L47.695,107.111 L47.695,99.611 L44.507,99.611 L44.507,107.111 Z M48.444,108.611 L43.757,108.611 C43.343,108.611 43.007,108.275 43.007,107.861 L43.007,98.861 C43.007,98.446 43.343,98.111 43.757,98.111 L48.444,98.111 C48.859,98.111 49.194,98.446 49.194,98.861 L49.194,107.861 C49.194,108.275 48.859,108.611 48.444,108.611 L48.444,108.611 Z" id="Fill-126" fill="#354546" mask="url(#mask-4)"></path>
                <polygon id="Fill-127" fill="#A5B5B6" mask="url(#mask-4)" points="40.578 106.098 43.763 106.098 43.763 90.198 40.578 90.198"></polygon>
                <path d="M41.328,105.348 L43.013,105.348 L43.013,90.948 L41.328,90.948 L41.328,105.348 Z M43.763,106.848 L40.578,106.848 C40.164,106.848 39.828,106.512 39.828,106.098 L39.828,90.198 C39.828,89.784 40.164,89.448 40.578,89.448 L43.763,89.448 C44.178,89.448 44.513,89.784 44.513,90.198 L44.513,106.098 C44.513,106.512 44.178,106.848 43.763,106.848 L43.763,106.848 Z" id="Fill-128" fill="#354546" mask="url(#mask-4)"></path>
                <path d="M42.2369,84.6853 L42.1049,84.6853 C40.4549,84.6853 39.1049,86.0363 39.1049,87.6853 L39.1049,94.8103 L45.2369,94.8103 L45.2369,87.6853 C45.2369,86.0363 43.8869,84.6853 42.2369,84.6853" id="Fill-129" fill="#A5B5B6" mask="url(#mask-4)"></path>
                <path d="M42.2369,84.6853 L42.1049,84.6853 C40.4549,84.6853 39.1049,86.0363 39.1049,87.6853 L39.1049,90.4233 C39.1049,88.7733 40.4549,87.4233 42.1049,87.4233 L42.2369,87.4233 C43.8869,87.4233 45.2369,88.7733 45.2369,90.4233 L45.2369,87.6853 C45.2369,86.0363 43.8869,84.6853 42.2369,84.6853" id="Fill-130" fill="#C5D5D6" mask="url(#mask-4)"></path>
                <path d="M39.8546,94.0603 L44.4866,94.0603 L44.4866,87.6853 C44.4866,86.4453 43.4776,85.4353 42.2366,85.4353 L42.1046,85.4353 C40.8636,85.4353 39.8546,86.4453 39.8546,87.6853 L39.8546,94.0603 Z M45.2366,95.5603 L39.1046,95.5603 C38.6906,95.5603 38.3546,95.2243 38.3546,94.8103 L38.3546,87.6853 C38.3546,85.6183 40.0366,83.9353 42.1046,83.9353 L42.2366,83.9353 C44.3046,83.9353 45.9866,85.6183 45.9866,87.6853 L45.9866,94.8103 C45.9866,95.2243 45.6516,95.5603 45.2366,95.5603 L45.2366,95.5603 Z" id="Fill-131" fill="#354546" mask="url(#mask-4)"></path>
                <polygon id="Fill-132" fill="#A5B5B6" mask="url(#mask-4)" points="64.882 107.861 69.569 107.861 69.569 98.861 64.882 98.861"></polygon>
                <polygon id="Fill-133" fill="#C5D5D6" mask="url(#mask-4)" points="64.882 102.436 69.569 102.436 69.569 98.861 64.882 98.861"></polygon>
                <path d="M65.632,107.111 L68.82,107.111 L68.82,99.611 L65.632,99.611 L65.632,107.111 Z M69.57,108.611 L64.882,108.611 C64.468,108.611 64.132,108.275 64.132,107.861 L64.132,98.861 C64.132,98.446 64.468,98.111 64.882,98.111 L69.57,98.111 C69.984,98.111 70.32,98.446 70.32,98.861 L70.32,107.861 C70.32,108.275 69.984,108.611 69.57,108.611 L69.57,108.611 Z" id="Fill-134" fill="#354546" mask="url(#mask-4)"></path>
                <polygon id="Fill-135" fill="#A5B5B6" mask="url(#mask-4)" points="69.564 106.098 72.749 106.098 72.749 90.198 69.564 90.198"></polygon>
                <path d="M70.314,105.348 L71.999,105.348 L71.999,90.948 L70.314,90.948 L70.314,105.348 Z M72.749,106.848 L69.564,106.848 C69.149,106.848 68.814,106.512 68.814,106.098 L68.814,90.198 C68.814,89.784 69.149,89.448 69.564,89.448 L72.749,89.448 C73.163,89.448 73.499,89.784 73.499,90.198 L73.499,106.098 C73.499,106.512 73.163,106.848 72.749,106.848 L72.749,106.848 Z" id="Fill-136" fill="#354546" mask="url(#mask-4)"></path>
                <path d="M71.0899,84.6853 L71.2219,84.6853 C72.8719,84.6853 74.2219,86.0363 74.2219,87.6853 L74.2219,94.8103 L68.0899,94.8103 L68.0899,87.6853 C68.0899,86.0363 69.4399,84.6853 71.0899,84.6853" id="Fill-137" fill="#A5B5B6" mask="url(#mask-4)"></path>
                <path d="M71.0899,84.6853 L71.2219,84.6853 C72.8719,84.6853 74.2219,86.0363 74.2219,87.6853 L74.2219,90.4233 C74.2219,88.7733 72.8719,87.4233 71.2219,87.4233 L71.0899,87.4233 C69.4399,87.4233 68.0899,88.7733 68.0899,90.4233 L68.0899,87.6853 C68.0899,86.0363 69.4399,84.6853 71.0899,84.6853" id="Fill-138" fill="#C5D5D6" mask="url(#mask-4)"></path>
                <path d="M68.8399,94.0603 L73.4719,94.0603 L73.4719,87.6853 C73.4719,86.4453 72.4629,85.4353 71.2219,85.4353 L71.0899,85.4353 C69.8489,85.4353 68.8399,86.4453 68.8399,87.6853 L68.8399,94.0603 Z M74.2219,95.5603 L68.0899,95.5603 C67.6749,95.5603 67.3399,95.2243 67.3399,94.8103 L67.3399,87.6853 C67.3399,85.6183 69.0219,83.9353 71.0899,83.9353 L71.2219,83.9353 C73.2899,83.9353 74.9719,85.6183 74.9719,87.6853 L74.9719,94.8103 C74.9719,95.2243 74.6359,95.5603 74.2219,95.5603 L74.2219,95.5603 Z" id="Fill-139" fill="#354546" mask="url(#mask-4)"></path>
                <path d="M64.7447,115.3611 C64.7447,117.0101 63.3947,118.3611 61.7447,118.3611 L51.4447,118.3611 C49.7947,118.3611 48.4447,117.0101 48.4447,115.3611 L48.4447,91.3611 C48.4447,89.7111 49.7947,88.3611 51.4447,88.3611 L61.7447,88.3611 C63.3947,88.3611 64.7447,89.7111 64.7447,91.3611 L64.7447,115.3611 Z" id="Fill-140" fill="#6D6D6D" mask="url(#mask-4)"></path>
                <path d="M61.7447,113.7859 L51.4447,113.7859 C50.1047,113.7859 48.8637,112.8949 48.4447,111.6779 L48.4447,115.3609 C48.4447,117.0109 49.7947,118.3609 51.4447,118.3609 L61.7447,118.3609 C63.3947,118.3609 64.7447,117.0109 64.7447,115.3609 L64.7447,111.6779 C64.3257,112.8949 63.0847,113.7859 61.7447,113.7859" id="Fill-141" fill="#5B5B5B" mask="url(#mask-4)"></path>
                <polygon id="Fill-142" fill="#929292" mask="url(#mask-4)" points="64.6539 101.4109 48.4449 100.0599 48.5349 96.0109 64.6539 96.0109"></polygon>
                <polygon id="Fill-143" fill="#929292" mask="url(#mask-4)" points="64.6539 104.5603 48.5349 105.6643 48.5349 102.9643 64.6539 102.9643"></polygon>
                <path d="M51.4444,89.1111 C50.2034,89.1111 49.1944,90.1201 49.1944,91.3611 L49.1944,115.3611 C49.1944,116.6011 50.2034,117.6111 51.4444,117.6111 L61.7444,117.6111 C62.9854,117.6111 63.9944,116.6011 63.9944,115.3611 L63.9944,91.3611 C63.9944,90.1201 62.9854,89.1111 61.7444,89.1111 L51.4444,89.1111 Z M61.7444,119.1111 L51.4444,119.1111 C49.3764,119.1111 47.6944,117.4281 47.6944,115.3611 L47.6944,91.3611 C47.6944,89.2931 49.3764,87.6111 51.4444,87.6111 L61.7444,87.6111 C63.8124,87.6111 65.4944,89.2931 65.4944,91.3611 L65.4944,115.3611 C65.4944,117.4281 63.8124,119.1111 61.7444,119.1111 L61.7444,119.1111 Z" id="Fill-144" fill="#121212" mask="url(#mask-4)"></path>
                <path d="M64.7813,84.6853 L48.4073,84.6853 C46.6263,84.6853 45.1683,86.0363 45.1683,87.6853 L45.1683,92.0363 L68.0203,92.0363 L68.0203,87.6853 C68.0203,86.0363 66.5633,84.6853 64.7813,84.6853" id="Fill-145" fill="#A5B5B6" mask="url(#mask-4)"></path>
                <path d="M64.7813,84.6853 L48.4073,84.6853 C46.6263,84.6853 45.1683,86.0363 45.1683,87.6853 L68.0203,87.6853 C68.0203,86.0363 66.5633,84.6853 64.7813,84.6853" id="Fill-146" fill="#C5D5D6" mask="url(#mask-4)"></path>
                <path d="M45.918,91.2859 L67.271,91.2859 L67.271,87.6849 C67.271,86.4449 66.154,85.4349 64.781,85.4349 L48.407,85.4349 C47.035,85.4349 45.918,86.4449 45.918,87.6849 L45.918,91.2859 Z M68.021,92.7859 L45.168,92.7859 C44.754,92.7859 44.418,92.4499 44.418,92.0359 L44.418,87.6849 C44.418,85.6179 46.208,83.9349 48.407,83.9349 L64.781,83.9349 C66.981,83.9349 68.771,85.6179 68.771,87.6849 L68.771,92.0359 C68.771,92.4499 68.435,92.7859 68.021,92.7859 L68.021,92.7859 Z" id="Fill-147" fill="#354546" mask="url(#mask-4)"></path>
                <path d="M52.0943,86.866 C51.6803,86.866 51.3443,86.531 51.3443,86.116 L51.3443,83.631 C51.3443,83.217 51.6803,82.881 52.0943,82.881 C52.5093,82.881 52.8443,83.217 52.8443,83.631 L52.8443,86.116 C52.8443,86.531 52.5093,86.866 52.0943,86.866" id="Fill-148" fill="#354546" mask="url(#mask-4)"></path>
                <path d="M55.0943,86.866 C54.6803,86.866 54.3443,86.531 54.3443,86.116 L54.3443,83.631 C54.3443,83.217 54.6803,82.881 55.0943,82.881 C55.5093,82.881 55.8443,83.217 55.8443,83.631 L55.8443,86.116 C55.8443,86.531 55.5093,86.866 55.0943,86.866" id="Fill-149" fill="#354546" mask="url(#mask-4)"></path>
                <path d="M58.0943,86.866 C57.6803,86.866 57.3443,86.531 57.3443,86.116 L57.3443,83.631 C57.3443,83.217 57.6803,82.881 58.0943,82.881 C58.5093,82.881 58.8443,83.217 58.8443,83.631 L58.8443,86.116 C58.8443,86.531 58.5093,86.866 58.0943,86.866" id="Fill-150" fill="#354546" mask="url(#mask-4)"></path>
                <path d="M61.0943,86.866 C60.6803,86.866 60.3443,86.531 60.3443,86.116 L60.3443,83.631 C60.3443,83.217 60.6803,82.881 61.0943,82.881 C61.5093,82.881 61.8443,83.217 61.8443,83.631 L61.8443,86.116 C61.8443,86.531 61.5093,86.866 61.0943,86.866" id="Fill-151" fill="#354546" mask="url(#mask-4)"></path>
                <path d="M78.9459,21.112 L78.9139,21.112 C78.4999,21.094 78.1779,20.745 78.1959,20.331 L78.6259,10.209 C78.6919,8.42 78.0499,6.702 76.8189,5.377 C75.5879,4.05 73.9229,3.285 72.1289,3.218 C72.1219,3.218 72.1149,3.217 72.1079,3.217 L46.0479,1.505 C42.3329,1.371 39.2009,4.286 39.0639,8.002 L38.6339,18.875 C38.6179,19.289 38.2689,19.614 37.8549,19.594 C37.4409,19.579 37.1189,19.23 37.1349,18.816 L37.5649,7.944 C37.7329,3.4 41.5679,-0.164 46.1129,0.007 C46.1209,0.007 46.1279,0.007 46.1349,0.008 L72.1959,1.719 C74.3849,1.803 76.4169,2.74 77.9179,4.356 C79.4219,5.974 80.2049,8.075 80.1239,10.268 L79.6949,20.394 C79.6779,20.798 79.3449,21.112 78.9459,21.112" id="Fill-152" fill="#354546" mask="url(#mask-4)"></path>
                <path d="M33.6016,19.7644 C32.3076,19.7164 31.1996,21.0264 31.1386,22.6754 L30.7646,32.8094 C30.7036,34.4574 31.7116,35.8464 33.0056,35.8944 C34.2996,35.9414 35.3576,35.9814 35.3576,35.9814 L35.9536,19.8514 C35.9536,19.8514 34.8956,19.8124 33.6016,19.7644" id="Fill-153" fill="#A5B5B6" mask="url(#mask-4)"></path>
                <path d="M31.1387,22.6755 L30.9557,27.6355 L35.6597,27.8085 L35.9537,19.8515 C35.9537,19.8515 34.8957,19.8125 33.6017,19.7645 C32.3077,19.7165 31.1997,21.0265 31.1387,22.6755" id="Fill-154" fill="#C5D5D6" mask="url(#mask-4)"></path>
                <path d="M35.3301,36.7302 L32.9781,36.6432 C31.2681,36.5802 29.9381,34.8472 30.0151,32.7812 L30.3891,22.6472 C30.4651,20.5812 31.9181,18.9532 33.6291,19.0142 L35.9811,19.1012 C36.3951,19.1172 36.7191,19.4642 36.7031,19.8782 C36.6881,20.2932 36.3401,20.6172 35.9261,20.6002 L33.5741,20.5132 C32.7031,20.4772 31.9331,21.4842 31.8881,22.7032 L31.5141,32.8362 C31.4691,34.0552 32.1641,35.1122 33.0341,35.1442 L35.3861,35.2312 L35.3301,36.7302 Z" id="Fill-155" fill="#354546" mask="url(#mask-4)"></path>
                <polygon id="Fill-156" fill="#859596" mask="url(#mask-4)" points="39.6734 38.5398 35.2694 38.3768 35.9934 18.7758 40.3984 18.9378"></polygon>
                <polygon id="Fill-157" fill="#A5B5B6" mask="url(#mask-4)" points="39.9835 30.1531 35.5795 29.9901 35.9935 18.7761 40.3985 18.9381"></polygon>
                <path d="M36.0464,37.655 L38.9514,37.762 L39.6204,19.66 L36.7154,19.552 L36.0464,37.655 Z M39.6734,39.29 C39.6644,39.29 39.6554,39.29 39.6464,39.289 L35.2414,39.127 C34.8274,39.111 34.5044,38.763 34.5204,38.349 L35.2444,18.748 C35.2514,18.55 35.3374,18.361 35.4834,18.226 C35.6294,18.091 35.8234,18.021 36.0214,18.026 L40.4254,18.189 C40.8394,18.204 41.1624,18.552 41.1474,18.967 L40.4224,38.567 C40.4154,38.766 40.3294,38.954 40.1844,39.09 C40.0454,39.218 39.8624,39.29 39.6734,39.29 L39.6734,39.29 Z" id="Fill-158" fill="#354546" mask="url(#mask-4)"></path>
                <path d="M30.9556,28.3845 L30.9536,28.3845 L29.1526,28.3815 C28.7386,28.3805 28.4036,28.0445 28.4046,27.6295 C28.4056,27.2165 28.7406,26.8815 29.1546,26.8815 L29.1556,26.8815 L30.9566,26.8845 C31.3716,26.8855 31.7056,27.2225 31.7056,27.6365 C31.7046,28.0495 31.3686,28.3845 30.9556,28.3845" id="Fill-159" fill="#354546" mask="url(#mask-4)"></path>
                <path d="M86.0298,10.5554 C85.9438,10.5554 85.8568,10.5444 85.7698,10.5234 C85.2078,10.3794 84.8678,9.8084 85.0118,9.2454 L85.7878,6.1984 C85.9308,5.6354 86.5018,5.2964 87.0648,5.4394 C87.6268,5.5824 87.9668,6.1544 87.8228,6.7164 L87.0468,9.7644 C86.9258,10.2404 86.4988,10.5554 86.0298,10.5554" id="Fill-160" fill="#354546" mask="url(#mask-4)"></path>
                <path d="M82.9517,22.3376 C82.8897,22.3376 82.8277,22.3296 82.7657,22.3146 C82.3647,22.2116 82.1217,21.8036 82.2237,21.4016 L85.3027,9.3196 C85.4047,8.9186 85.8127,8.6766 86.2147,8.7786 C86.6157,8.8816 86.8577,9.2896 86.7557,9.6916 L83.6777,21.7726 C83.5917,22.1116 83.2857,22.3376 82.9517,22.3376" id="Fill-161" fill="#354546" mask="url(#mask-4)"></path>
                <path d="M82.9512,21.5876 C84.2442,21.6356 85.2532,23.0236 85.1922,24.6726 L84.8182,34.8066 C84.7572,36.4546 83.6492,37.7646 82.3552,37.7166 C81.0612,37.6696 80.0032,37.6296 80.0032,37.6296 L80.5982,21.5006 C80.5982,21.5006 81.6572,21.5396 82.9512,21.5876" id="Fill-162" fill="#A5B5B6" mask="url(#mask-4)"></path>
                <path d="M85.1924,24.6726 L85.0094,29.6316 L80.3044,29.4576 L80.5984,21.5006 C80.5984,21.5006 81.6574,21.5396 82.9514,21.5876 C84.2444,21.6356 85.2534,23.0236 85.1924,24.6726" id="Fill-163" fill="#C5D5D6" mask="url(#mask-4)"></path>
                <path d="M82.4214,38.4685 C82.3904,38.4685 82.3594,38.4675 82.3274,38.4665 L79.9754,38.3795 L80.0304,36.8805 L82.3824,36.9675 C82.7734,36.9835 83.1614,36.7845 83.4764,36.4125 C83.8294,35.9955 84.0454,35.3995 84.0684,34.7785 L84.4424,24.6445 C84.4874,23.4255 83.7924,22.3685 82.9234,22.3365 L80.5714,22.2495 L80.6264,20.7505 L82.9784,20.8375 C84.6894,20.9015 86.0184,22.6335 85.9424,24.6995 L85.5674,34.8335 C85.5314,35.7975 85.1954,36.7025 84.6214,37.3825 C84.0344,38.0755 83.2374,38.4685 82.4214,38.4685" id="Fill-164" fill="#354546" mask="url(#mask-4)"></path>
                <polygon id="Fill-165" fill="#859596" mask="url(#mask-4)" points="75.5103 39.863 79.9143 40.026 80.6383 20.426 76.2343 20.262"></polygon>
                <polygon id="Fill-166" fill="#A5B5B6" mask="url(#mask-4)" points="75.8199 31.4773 80.2239 31.6393 80.6389 20.4253 76.2349 20.2623"></polygon>
                <path d="M76.2872,39.1413 L79.1922,39.2483 L79.8612,21.1473 L76.9562,21.0393 L76.2872,39.1413 Z M79.9142,40.7763 L79.8872,40.7763 L75.4822,40.6133 C75.0682,40.5973 74.7452,40.2493 74.7612,39.8353 L75.4852,20.2353 C75.5002,19.8213 75.8482,19.4993 76.2622,19.5123 L80.6662,19.6753 C80.8652,19.6833 81.0532,19.7693 81.1882,19.9143 C81.3232,20.0603 81.3952,20.2533 81.3882,20.4533 L80.6642,40.0533 C80.6562,40.2523 80.5702,40.4403 80.4252,40.5763 C80.2862,40.7043 80.1032,40.7763 79.9142,40.7763 L79.9142,40.7763 Z" id="Fill-167" fill="#354546" mask="url(#mask-4)"></path>
                <path d="M86.8067,30.5115 C86.7887,30.5115 86.7697,30.5105 86.7517,30.5095 L84.9557,30.3795 C84.5427,30.3505 84.2317,29.9905 84.2617,29.5775 C84.2907,29.1645 84.6487,28.8555 85.0627,28.8835 L86.8597,29.0135 C87.2727,29.0425 87.5837,29.4025 87.5537,29.8155 C87.5257,30.2095 87.1967,30.5115 86.8067,30.5115" id="Fill-168" fill="#354546" mask="url(#mask-4)"></path>
                <path d="M39.6055,44.6765 C38.5795,44.6765 35.9705,45.7905 34.8655,47.0515 C33.9265,48.1205 33.7755,49.9065 34.5365,50.9515 C34.8475,51.3785 35.2575,51.6145 35.7215,51.6365 C36.2525,51.6575 36.8105,51.3865 37.2515,50.8845 C37.7835,50.2785 38.6965,48.8975 39.3405,47.5355 C40.1735,45.7745 40.1415,44.9625 40.0085,44.7805 C39.9675,44.7245 39.8385,44.6865 39.6635,44.6785 C39.6455,44.6775 39.6255,44.6765 39.6055,44.6765 M35.7865,53.1385 C35.7425,53.1385 35.6985,53.1365 35.6535,53.1345 C34.7315,53.0935 33.9045,52.6315 33.3245,51.8345 C32.1405,50.2105 32.3225,47.6745 33.7375,46.0625 C34.7845,44.8685 37.8295,43.0995 39.7315,43.1795 C40.5585,43.2175 40.9975,43.5905 41.2205,43.8965 C41.8325,44.7375 41.6615,46.1365 40.6965,48.1765 C39.9875,49.6785 38.9935,51.1735 38.3785,51.8735 C37.6685,52.6825 36.7315,53.1385 35.7865,53.1385" id="Fill-169" fill="#19B5FE" mask="url(#mask-4)"></path>
                <path d="M72.5123,42.6345 L72.5143,42.6345 L72.5123,42.6345 Z M74.0353,42.8995 C73.5773,42.8995 73.2233,42.9745 73.0563,43.1515 C72.9313,43.2815 72.9383,43.5425 72.9653,43.7385 C73.1373,44.9765 74.4803,46.7285 75.2313,47.1735 C76.1903,47.7405 77.7513,47.4295 78.6403,46.4935 C79.0663,46.0455 79.2733,45.5195 79.2083,45.0495 C79.1563,44.6755 78.9353,44.3635 78.5693,44.1475 C77.5043,43.5175 75.3453,42.8995 74.0353,42.8995 L74.0353,42.8995 Z M76.3773,48.9595 C75.6973,48.9595 75.0333,48.7995 74.4683,48.4645 C73.3033,47.7765 71.7113,45.6065 71.4793,43.9455 C71.3473,42.9985 71.6733,42.4295 71.9693,42.1175 C73.5953,40.4055 78.2823,42.2345 79.3333,42.8565 C80.0953,43.3065 80.5783,44.0125 80.6943,44.8425 C80.8223,45.7675 80.4703,46.7455 79.7283,47.5285 C78.8453,48.4565 77.5833,48.9595 76.3773,48.9595 L76.3773,48.9595 Z" id="Fill-170" fill="#19B5FE" mask="url(#mask-4)"></path>
                <path d="M33.2369,41.74 C32.8249,41.74 32.4719,41.771 32.2109,41.836 C30.5919,42.233 29.5149,44.084 29.8099,45.962 C29.9589,46.913 30.4509,47.729 31.1599,48.2 C31.7499,48.593 32.4519,48.717 33.1359,48.549 C34.0329,48.329 35.7499,47.582 37.1659,46.634 C38.6369,45.648 39.4549,44.674 39.3529,44.027 C39.2929,43.643 38.8919,43.304 38.5659,43.087 C37.2379,42.204 34.8129,41.74 33.2369,41.74 M32.5319,50.123 C31.7569,50.123 30.9979,49.894 30.3289,49.449 C29.2719,48.746 28.5429,47.559 28.3279,46.194 C27.9149,43.566 29.4969,40.958 31.8529,40.379 C33.6119,39.947 37.4379,40.535 39.3969,41.839 C40.2349,42.396 40.7189,43.054 40.8349,43.795 C41.3009,46.761 35.4239,49.531 33.4939,50.006 C33.1739,50.084 32.8519,50.123 32.5319,50.123" id="Fill-171" fill="#719911" mask="url(#mask-4)"></path>
                <path d="M75.1592,47.3103 C75.0072,51.4323 71.5072,54.7913 67.3822,54.7743 L45.7632,54.6843 C41.6382,54.6673 38.5252,51.2893 38.8462,47.1753 L41.2342,13.3303 C41.5552,9.2163 45.1802,6.1363 49.2902,6.4843 L69.0592,8.1543 C73.1692,8.5013 76.4082,12.1593 76.2552,16.2813 L75.1592,47.3103 Z" id="Fill-172" fill="#A5B5B6" mask="url(#mask-4)"></path>
                <path d="M71.7339,41.0163 C71.6219,44.0473 68.8179,46.5093 65.5039,46.4873 L48.1329,46.3663 C44.8189,46.3433 42.3099,43.8503 42.5569,40.8263 L44.3939,16.9303 C44.6409,13.9073 47.5469,11.6503 50.8499,11.9153 L66.7379,13.1943 C70.0409,13.4593 72.6519,16.1583 72.5399,19.1893 L71.7339,41.0163 Z" id="Fill-173" fill="#C5D5D6" mask="url(#mask-4)"></path>
                <path d="M68.9561,51.4353 L45.4621,51.2763 C42.5471,51.2563 40.0931,49.8153 38.8261,47.6793 C38.7851,51.5603 41.8081,54.6673 45.7631,54.6843 L67.3821,54.7743 C70.8411,54.7893 73.8591,52.4283 74.8341,49.2353 C73.3031,50.6053 71.2171,51.4513 68.9561,51.4353" id="Fill-174" fill="#859596" mask="url(#mask-4)"></path>
                <path d="M69.0167,52.1853 L68.9507,52.1853 L45.4567,52.0263 C42.3617,52.0053 39.6417,50.5233 38.1807,48.0623 C37.9697,47.7063 38.0867,47.2463 38.4427,47.0343 C38.7997,46.8233 39.2597,46.9403 39.4707,47.2963 C40.6607,49.3013 42.9027,50.5093 45.4677,50.5263 L68.9607,50.6853 C70.9617,50.6973 72.8707,49.9853 74.3337,48.6763 C74.6427,48.4003 75.1167,48.4263 75.3927,48.7353 C75.6687,49.0433 75.6427,49.5183 75.3337,49.7943 C73.6087,51.3373 71.3677,52.1853 69.0167,52.1853" id="Fill-175" fill="#354546" mask="url(#mask-4)"></path>
                <path d="M75.1592,47.3103 L75.1602,47.3103 L75.1592,47.3103 Z M48.6552,7.2063 C47.0712,7.2063 45.5522,7.7643 44.3262,8.8053 C42.9532,9.9723 42.1212,11.5993 41.9812,13.3873 L39.5942,47.2293 C39.4552,49.0133 40.0212,50.6903 41.1892,51.9573 C42.3562,53.2253 43.9812,53.9263 45.7652,53.9343 L67.3852,54.0243 L67.4142,54.0243 C71.1372,54.0243 74.2722,51.0063 74.4092,47.2833 L75.5062,16.2543 C75.6442,12.5143 72.7232,9.2163 68.9952,8.9023 L49.2272,7.2313 C49.0352,7.2143 48.8452,7.2063 48.6552,7.2063 L48.6552,7.2063 Z M67.4132,55.5243 L67.3792,55.5243 L45.7592,55.4343 C43.5542,55.4253 41.5382,54.5513 40.0852,52.9743 C38.6322,51.3963 37.9272,49.3173 38.0982,47.1183 L40.4852,13.2773 C40.6572,11.0813 41.6762,9.0893 43.3552,7.6633 C45.0342,6.2363 47.1652,5.5513 49.3532,5.7363 L69.1222,7.4073 C73.6362,7.7893 77.1722,11.7823 77.0052,16.3083 L75.9092,47.3363 L75.9082,47.3383 C75.7412,51.8593 71.9342,55.5243 67.4132,55.5243 L67.4132,55.5243 Z" id="Fill-176" fill="#354546" mask="url(#mask-4)"></path>
                <path d="M58.6324,16.2966 C54.5244,16.2966 49.6284,15.0346 49.6284,9.0246 C49.6284,8.0816 49.7504,7.4546 49.9894,6.5626 C50.0974,6.1616 50.5094,5.9256 50.9084,6.0316 C51.3094,6.1406 51.5464,6.5516 51.4384,6.9516 C51.2234,7.7506 51.1284,8.2386 51.1284,9.0246 C51.1284,10.4516 51.1284,14.7966 58.6324,14.7966 C66.1694,14.7966 66.1694,10.4516 66.1694,9.0246 C66.1694,8.7066 66.1524,8.3866 66.1204,8.0716 C66.0774,7.6596 66.3774,7.2916 66.7894,7.2486 C67.2014,7.2066 67.5704,7.5066 67.6124,7.9186 C67.6504,8.2826 67.6694,8.6546 67.6694,9.0246 C67.6694,12.3416 66.1014,16.2966 58.6324,16.2966" id="Fill-177" fill="#354546" mask="url(#mask-4)"></path>
                <path d="M53.8497,25.9431 C53.6847,30.4141 49.9267,33.9041 45.4557,33.7391 C40.9857,33.5731 37.4957,29.8151 37.6607,25.3451 C37.8267,20.8751 41.5837,17.3841 46.0547,17.5491 C50.5247,17.7141 54.0147,21.4721 53.8497,25.9431" id="Fill-178" fill="#C5D5D6" mask="url(#mask-4)"></path>
                <path d="M45.752,18.2937 C41.823,18.2937 38.557,21.4147 38.41,25.3727 C38.338,27.3347 39.034,29.2077 40.37,30.6467 C41.706,32.0847 43.522,32.9167 45.484,32.9887 C47.445,33.0627 49.318,32.3657 50.757,31.0297 C52.195,29.6937 53.028,27.8777 53.1,25.9157 C53.25,21.8647 50.077,18.4487 46.026,18.2987 C45.935,18.2957 45.843,18.2937 45.752,18.2937 M45.764,34.4937 C45.652,34.4937 45.541,34.4917 45.428,34.4877 C43.066,34.4007 40.879,33.3987 39.271,31.6667 C37.662,29.9347 36.824,27.6797 36.911,25.3167 C37.087,20.5517 41.021,16.7937 45.751,16.7937 C45.861,16.7937 45.971,16.7957 46.082,16.7997 C50.959,16.9807 54.779,21.0947 54.599,25.9707 C54.512,28.3327 53.51,30.5207 51.778,32.1287 C50.128,33.6607 48.003,34.4937 45.764,34.4937" id="Fill-179" fill="#354546" mask="url(#mask-4)"></path>
                <path d="M50.9747,25.8367 C50.8687,28.7197 48.4447,30.9697 45.5627,30.8627 C42.6807,30.7567 40.4297,28.3337 40.5367,25.4507 C40.6427,22.5687 43.0657,20.3177 45.9487,20.4247 C48.8307,20.5307 51.0807,22.9547 50.9747,25.8367" id="Fill-180" fill="#9ABD45" mask="url(#mask-4)"></path>
                <path d="M49.0562,24.2351 C48.9902,26.0271 47.4832,27.4251 45.6922,27.3591 C43.9002,27.2941 42.5012,25.7871 42.5672,23.9961 C42.6342,22.2041 44.1392,20.8041 45.9312,20.8711 C47.7232,20.9371 49.1222,22.4431 49.0562,24.2351" id="Fill-181" fill="#CEEC87" mask="url(#mask-4)"></path>
                <path d="M45.753,21.1716 C43.362,21.1716 41.375,23.0696 41.286,25.4796 C41.194,27.9426 43.126,30.0236 45.59,30.1136 C46.784,30.1576 47.924,29.7346 48.799,28.9216 C49.674,28.1086 50.181,27.0026 50.225,25.8096 C50.316,23.3446 48.385,21.2656 45.92,21.1746 C45.864,21.1726 45.809,21.1716 45.753,21.1716 M45.761,31.6166 C45.686,31.6166 45.61,31.6156 45.535,31.6126 C42.244,31.4906 39.665,28.7146 39.787,25.4236 C39.905,22.2066 42.56,19.6716 45.753,19.6716 C45.827,19.6716 45.901,19.6726 45.976,19.6756 C49.267,19.7966 51.846,22.5736 51.724,25.8646 C51.665,27.4586 50.989,28.9356 49.82,30.0206 C48.706,31.0546 47.273,31.6166 45.761,31.6166" id="Fill-182" fill="#354546" mask="url(#mask-4)"></path>
                <path d="M47.1011,22.1697 C47.4331,22.9117 46.3951,23.5457 45.0381,24.1527 C43.6801,24.7607 42.5161,25.1117 42.1841,24.3697 C41.8521,23.6287 42.6841,22.5347 44.0411,21.9267 C45.3991,21.3187 46.7691,21.4277 47.1011,22.1697" id="Fill-183" fill="#FFFFFF" mask="url(#mask-4)"></path>
                <path d="M47.251,28.6931 C47.085,28.4741 47.378,28.1861 47.778,27.8821 C48.179,27.5791 48.536,27.3751 48.701,27.5931 C48.867,27.8121 48.677,28.2361 48.276,28.5401 C47.876,28.8431 47.417,28.9121 47.251,28.6931" id="Fill-184" fill="#FFFFFF" mask="url(#mask-4)"></path>
                <path d="M46.7886,29.1384 C46.7636,29.8194 46.1916,30.3504 45.5106,30.3254 C44.8306,30.2994 44.2996,29.7284 44.3246,29.0474 C44.3496,28.3674 44.9216,27.8354 45.6016,27.8614 C46.2826,27.8854 46.8136,28.4574 46.7886,29.1384" id="Fill-185" fill="#354546" mask="url(#mask-4)"></path>
                <path d="M76.688,27.2908 C76.548,31.0788 73.364,32.3868 69.576,32.2458 C65.787,32.1058 62.83,30.5718 62.97,26.7838 C63.11,22.9958 66.294,20.0378 70.082,20.1778 C73.871,20.3178 76.828,23.5028 76.688,27.2908" id="Fill-186" fill="#C5D5D6" mask="url(#mask-4)"></path>
                <path d="M76.688,27.2908 L76.689,27.2908 L76.688,27.2908 Z M69.823,20.9238 C68.276,20.9238 66.808,21.4988 65.668,22.5578 C64.472,23.6688 63.779,25.1798 63.719,26.8118 C63.583,30.4988 66.844,31.3948 69.603,31.4968 C74.703,31.6878 75.863,29.2988 75.938,27.2628 C75.999,25.6308 75.42,24.0728 74.309,22.8768 C73.197,21.6798 71.687,20.9878 70.055,20.9278 C69.978,20.9248 69.9,20.9238 69.823,20.9238 L69.823,20.9238 Z M70.126,33.0068 C69.937,33.0068 69.744,33.0028 69.548,32.9958 C64.751,32.8178 62.08,30.5448 62.22,26.7558 C62.295,24.7238 63.157,22.8428 64.647,21.4578 C66.138,20.0738 68.077,19.3518 70.11,19.4288 C72.143,19.5038 74.024,20.3658 75.408,21.8548 C76.792,23.3458 77.513,25.2858 77.438,27.3178 C77.303,30.9538 74.648,33.0068 70.126,33.0068 L70.126,33.0068 Z" id="Fill-187" fill="#354546" mask="url(#mask-4)"></path>
                <path d="M74.2515,27.2009 C74.1615,29.6429 72.1075,29.8999 69.6655,29.8099 C67.2225,29.7199 65.3155,29.3159 65.4065,26.8739 C65.4965,24.4309 67.5495,22.5239 69.9925,22.6139 C72.4355,22.7049 74.3415,24.7579 74.2515,27.2009" id="Fill-188" fill="#19B5FE" mask="url(#mask-4)"></path>
                <path d="M72.5782,25.6677 C72.5222,27.1867 71.3472,27.7497 69.8282,27.6937 C68.3102,27.6377 67.0232,26.9827 67.0792,25.4647 C67.1362,23.9457 68.4122,22.7617 69.9312,22.8167 C71.4492,22.8727 72.6342,24.1487 72.5782,25.6677" id="Fill-189" fill="#39D5FF" mask="url(#mask-4)"></path>
                <path d="M69.8257,23.3611 C68.8947,23.3611 68.0127,23.7081 67.3277,24.3431 C66.6077,25.0111 66.1917,25.9211 66.1557,26.9011 C66.1167,27.9691 66.5317,28.3411 66.9437,28.5641 C67.6317,28.9371 68.7197,29.0241 69.6937,29.0601 C72.8317,29.1771 73.4537,28.4861 73.5017,27.1731 L74.2517,27.2011 L73.5017,27.1731 C73.5767,25.1471 71.9897,23.4381 69.9647,23.3641 C69.9177,23.3621 69.8717,23.3611 69.8257,23.3611 M70.5037,30.5801 C70.1857,30.5801 69.8917,30.5691 69.6377,30.5591 C68.4917,30.5171 67.1897,30.4041 66.2287,29.8831 C65.1327,29.2901 64.6037,28.2681 64.6567,26.8461 C64.7077,25.4651 65.2937,24.1851 66.3067,23.2451 C67.3197,22.3031 68.6387,21.8151 70.0197,21.8651 C72.8717,21.9701 75.1067,24.3761 75.0007,27.2281 C74.8897,30.2261 72.3157,30.5801 70.5037,30.5801" id="Fill-190" fill="#354546" mask="url(#mask-4)"></path>
                <path d="M68.4942,25.072 C69.1272,25.343 69.0282,25.907 68.7572,26.54 C68.4862,27.172 68.1452,27.633 67.5132,27.362 C66.8802,27.091 66.5862,26.358 66.8572,25.725 C67.1282,25.093 67.8612,24.801 68.4942,25.072" id="Fill-191" fill="#FFFFFF" mask="url(#mask-4)"></path>
                <path d="M71.2867,28.5876 C71.2137,28.4246 71.4417,28.2846 71.7407,28.1506 C72.0387,28.0176 72.2947,27.9406 72.3677,28.1036 C72.4407,28.2666 72.2577,28.5076 71.9597,28.6406 C71.6607,28.7746 71.3597,28.7506 71.2867,28.5876" id="Fill-192" fill="#FFFFFF" mask="url(#mask-4)"></path>
                <path d="M70.8731,24.154 C70.8521,24.73 70.3671,25.18 69.7901,25.159 C69.2141,25.138 68.7641,24.653 68.7851,24.077 C68.8061,23.5 69.2901,23.05 69.8681,23.071 C70.4441,23.092 70.8941,23.577 70.8731,24.154" id="Fill-193" fill="#354546" mask="url(#mask-4)"></path>
                <path d="M67.3467,40.0613 C65.3147,37.9053 61.4567,35.7523 56.8297,35.8253 C52.2027,35.7523 48.3457,37.9053 46.3137,40.0623 C44.2077,42.2503 43.9287,44.4463 44.7547,45.2103 C46.6407,46.7073 51.5807,44.3623 56.8297,44.5933 C62.0777,44.3623 67.0187,46.7073 68.9047,45.2103 C69.7317,44.4453 69.4517,42.2503 67.3467,40.0613" id="Fill-194" fill="#FFFFFF" mask="url(#mask-4)"></path>
                <path d="M57.5855,43.8269 C59.7095,43.8269 61.7265,44.1869 63.5285,44.5089 C65.7185,44.8989 67.6125,45.2369 68.4125,44.6429 C68.5155,44.5339 68.5785,44.3229 68.5855,44.0609 C68.6075,43.2969 68.1515,41.9809 66.8065,40.5819 L66.8005,40.5759 C65.0205,38.6859 61.3415,36.5059 56.8415,36.5749 L56.8185,36.5749 C52.3175,36.5059 48.6395,38.6859 46.8595,40.5759 C45.5075,41.9809 45.0525,43.2969 45.0745,44.0609 C45.0825,44.3239 45.1445,44.5339 45.2475,44.6429 C46.0465,45.2369 47.9405,44.8989 50.1305,44.5089 C52.1465,44.1489 54.4295,43.7419 56.8305,43.8429 C57.0835,43.8319 57.3355,43.8269 57.5855,43.8269 L57.5855,43.8269 Z M68.9045,45.2109 L68.9065,45.2109 L68.9045,45.2109 Z M67.0155,46.4639 C65.9475,46.4639 64.6865,46.2389 63.2655,45.9849 C61.3175,45.6379 59.1095,45.2429 56.8625,45.3429 C56.8405,45.3439 56.8185,45.3439 56.7965,45.3429 C54.5495,45.2439 52.3425,45.6379 50.3945,45.9849 C47.7165,46.4629 45.6025,46.8409 44.2885,45.7989 C44.2735,45.7869 44.2595,45.7739 44.2455,45.7619 C43.8275,45.3739 43.5955,44.8019 43.5745,44.1049 C43.5345,42.6999 44.3355,41.0369 45.7725,39.5419 C47.8185,37.3709 51.7275,35.0729 56.6005,35.0729 C56.6765,35.0729 56.7525,35.0739 56.8305,35.0749 C61.8075,35.0079 65.8065,37.3339 67.8895,39.5449 C69.3255,41.0389 70.1255,42.7009 70.0855,44.1049 C70.0645,44.8019 69.8335,45.3739 69.4145,45.7619 C69.4005,45.7739 69.3855,45.7869 69.3715,45.7989 C68.7545,46.2879 67.9605,46.4639 67.0155,46.4639 L67.0155,46.4639 Z" id="Fill-195" fill="#354546" mask="url(#mask-4)"></path>
                <path d="M49.9952,45.9304 C49.6152,45.9304 49.2882,45.6424 49.2502,45.2554 L48.5102,37.8634 C48.4692,37.4504 48.7692,37.0824 49.1822,37.0414 C49.5932,37.0014 49.9612,37.3004 50.0022,37.7134 L50.7432,45.1064 C50.7842,45.5184 50.4832,45.8854 50.0712,45.9274 C50.0452,45.9294 50.0202,45.9304 49.9952,45.9304" id="Fill-196" fill="#354546" mask="url(#mask-4)"></path>
                <path d="M56.8301,45.3435 C56.4151,45.3435 56.0801,45.0075 56.0801,44.5935 L56.0801,35.8245 C56.0801,35.4105 56.4151,35.0745 56.8301,35.0745 C57.2441,35.0745 57.5801,35.4105 57.5801,35.8245 L57.5801,44.5935 C57.5801,45.0075 57.2441,45.3435 56.8301,45.3435" id="Fill-197" fill="#354546" mask="url(#mask-4)"></path>
                <path d="M63.0255,45.9304 C62.9855,45.9304 62.9445,45.9274 62.9035,45.9204 C62.4955,45.8544 62.2175,45.4684 62.2845,45.0604 L63.5045,37.5774 C63.5705,37.1684 63.9565,36.8914 64.3645,36.9574 C64.7735,37.0254 65.0515,37.4094 64.9845,37.8194 L63.7645,45.3014 C63.7045,45.6694 63.3865,45.9304 63.0255,45.9304" id="Fill-198" fill="#354546" mask="url(#mask-4)"></path>
            </g>
        </g>
    </g>
</svg>